<svg width="64" height="37" viewBox="0 0 64 37" fill="none" xmlns="http://www.w3.org/2000/svg">
<mask id="mask0_1133_4325" style="mask-type:alpha" maskUnits="userSpaceOnUse" x="0" y="0" width="64" height="37">
<path d="M24.2388 0.000366211H30.5815V28.5036H24.2388V0.000366211ZM33.6087 0.000366211H39.9514V28.5036H33.6087V0.000366211ZM41.681 7.81325H48.601L52.7812 20.4014L56.9619 7.81325H63.8811L53.0699 36.4615H46.1499L49.457 28.3604L41.681 7.81325V7.81325ZM21.4628 18.3096C21.4628 16.8196 21.2047 15.4174 20.6886 14.1023C20.1725 12.7872 19.453 11.6475 18.53 10.6824C17.6071 9.71697 16.5037 8.94949 15.2195 8.37964C13.9353 7.8098 12.525 7.52468 10.9892 7.52468C4.30738 7.52468 0.250977 12.2753 0.250977 18.3092C0.250977 24.2165 4.87169 28.8351 9.82119 28.9579L15.2971 22.8757L15.2081 22.7249V28.53H21.4632V18.3096H21.4628ZM15.1855 22.7483L10.8768 22.759C7.92336 22.759 4.65873 18.4938 7.98835 15.1514C10.9429 12.1863 15.3694 14.6181 15.3694 18.7448L15.1859 22.7483H15.1855Z" fill="#3E0046"/>
</mask>
<g mask="url(#mask0_1133_4325)">
<rect x="-38.4951" y="-31.1442" width="140.529" height="98.75" fill="white"/>
</g>
</svg>
