<svg width="145" height="20" viewBox="0 0 145 20" fill="none" xmlns="http://www.w3.org/2000/svg">
<path d="M39.9203 10.2125C42.3953 10.2125 43.6328 12.05 43.6328 14.49C43.6328 17.035 42.4665 18.8025 39.9203 18.8025C37.4103 18.8025 36.2078 17.035 36.2078 14.49C36.2078 12.015 37.4578 10.2125 39.9203 10.2125ZM39.9203 17.1425C40.5915 17.1425 40.8753 16.5425 40.8753 14.4925C40.8753 12.5837 40.6628 11.8762 39.9203 11.8762C39.1778 11.8762 38.9653 12.5837 38.9653 14.4925C38.9653 16.5425 39.2478 17.1425 39.9203 17.1425ZM45.3303 12.2975H44.2678V10.4225H45.3303V9.50375C45.3303 7.48875 46.3203 6.74625 48.0878 6.74625C48.6178 6.74625 49.0065 6.8175 49.4315 6.8525V8.8675C49.2695 8.82648 49.1035 8.8026 48.9365 8.79625C48.229 8.79625 47.9815 9.07875 47.9815 9.57375V10.4237H49.4315V12.2987H47.9815V18.6237H45.3315L45.3303 12.2975ZM14.4315 12.6862C14.4315 12.1912 14.184 11.8737 13.724 11.8737C13.099 11.8737 12.874 12.4737 12.874 12.97L10.5765 12.51C10.859 10.885 12.344 10.26 13.829 10.26C15.4203 10.26 17.0815 10.9312 17.0815 12.77V17.3662C17.0815 18.3212 17.2228 18.5687 17.329 18.71H14.6065C14.5715 18.4975 14.5353 18.11 14.5353 17.9675C14.0403 18.3425 13.2628 18.8175 12.4853 18.8175C11.1765 18.8175 10.1515 17.9337 10.2353 16.4137C10.2703 14.2925 12.7103 13.6562 14.4778 13.4437L14.4315 12.6862ZM14.4428 14.7162C13.524 14.8225 12.8178 15.1762 12.8178 16.2012C12.8178 16.7675 13.1003 17.085 13.5953 17.085C13.914 17.085 14.2203 16.8725 14.4453 16.59L14.4428 14.7162ZM21.2553 12.7562V18.625H18.6053V10.425H21.1865V11.275H21.2215C21.7878 10.7087 22.494 10.25 23.5553 10.25C24.7215 10.25 25.3928 11.0275 25.3928 12.1587V18.6637H22.7503V13.0075C22.7503 12.5475 22.5753 12.265 22.1503 12.265C21.8315 12.265 21.5253 12.44 21.2665 12.76" fill="#3366CC"/>
<path d="M27.0164 6.995H29.6664V12.8988H29.7377L31.6827 10.4238H34.2989L32.0714 12.9338L34.3214 18.6263H31.5752L30.2664 15.055H30.2314L29.6652 15.68V18.625H27.0152L27.0164 6.995ZM7.35893 12.5813C8.63143 13.0063 9.55143 14.0313 9.55143 15.5163C9.55143 17.4963 7.96018 18.6413 5.73268 18.6413H1.24268V7.01H5.83768C7.88768 7.01 9.26768 8.26 9.26768 9.83875C9.26768 11.3588 8.20518 12.1725 7.35893 12.4888V12.5813ZM4.10643 16.4838H5.20268C5.82768 16.4838 6.68768 16.2013 6.68768 14.9988C6.68768 14.1488 6.15768 13.5488 5.20268 13.5488H4.10643V16.4838ZM4.10643 11.605H5.09643C6.15893 11.605 6.58143 11.0388 6.58143 10.3325C6.58143 9.23625 5.83893 9.06 5.16893 9.06H4.10643V11.605ZM103.135 12.6875C103.135 12.1925 102.923 11.875 102.464 11.875C101.839 11.875 101.614 12.475 101.58 12.9713L99.2827 12.5113C99.5652 10.8863 101.05 10.2613 102.57 10.2613C104.161 10.2613 105.823 10.9325 105.823 12.7713V17.3675C105.823 18.3225 105.964 18.57 106.07 18.7113H103.348C103.313 18.4988 103.276 18.1113 103.276 17.9688C102.816 18.4638 102.026 18.8875 101.261 18.8875C99.9527 18.8875 98.9277 18.0038 98.9639 16.4838C99.0352 14.3625 101.439 13.7263 103.171 13.5138L103.135 12.6875ZM103.136 14.7163C102.218 14.8225 101.511 15.1763 101.511 16.2013C101.511 16.7675 101.794 17.085 102.289 17.085C102.608 17.085 102.914 16.8725 103.139 16.59L103.136 14.7163ZM75.8864 15.0913C75.8514 15.8338 76.0277 17.0363 77.1364 17.0363C77.7614 17.0363 78.3027 16.5763 78.4452 15.905L80.2127 16.53C80.1064 16.905 79.2939 18.7575 76.9252 18.7575C74.3802 18.7575 73.2477 16.7075 73.2477 14.445C73.2477 12.1113 74.4502 10.1675 76.8889 10.1675C79.4339 10.1675 80.3189 12.36 80.3189 14.5175V15.0838L75.8864 15.0913ZM77.8689 13.4875C77.9039 12.745 77.7977 11.8625 76.8789 11.8625C76.1364 11.8625 75.8539 12.7463 75.8889 13.4875H77.8689ZM87.4727 10.425H90.1227V18.625H87.4727V10.425ZM87.4727 6.995H90.1227V9.36375H87.4727V6.995Z" fill="#3366CC"/>
<path d="M95.9937 13.465C95.9937 13.1463 95.9937 12.7575 95.8525 12.44C95.7112 12.1225 95.4987 11.8738 95.075 11.8738C94.1912 11.8738 94.085 12.9363 94.085 14.5963C94.085 16.4338 94.3675 17.0713 95.075 17.0713C95.9937 17.0713 96.1 16.1163 96.1 15.5163L98.15 15.7988C97.9375 17.8138 96.8062 18.8388 94.8625 18.8388C92.4587 18.8388 91.2212 16.7513 91.2212 14.7388C91.2212 12.5113 92.4712 10.2488 94.9687 10.2488C97.7975 10.2488 98.2212 12.6888 98.2212 13.5013L95.9937 13.465ZM54.0275 6.995H57.8812L60.3562 18.6263H57.4812L57.0212 16.2575H54.3125L53.8175 18.6263H51.2725L54.0275 6.995ZM54.7725 14.2075H56.6475L55.7975 9.4575H55.7262L54.7725 14.2075Z" fill="#3366CC"/>
<path d="M81.4278 10.425H84.0091L84.0441 11.5212H84.0791C84.6091 10.6375 85.5991 10.2125 86.6241 10.2125V12.9C86.3416 12.7937 86.0241 12.6875 85.5278 12.6875C84.8566 12.6875 84.3966 12.935 84.0778 13.3125V18.6125H81.4278V10.425ZM67.9566 12.745V18.625H65.3403V13.0037C65.3403 12.5437 65.1991 12.2612 64.7153 12.2612C64.4328 12.2612 64.0441 12.4738 63.8316 12.7563V18.625H61.2153V10.425H63.7966V11.275H63.8316C64.3978 10.745 65.2103 10.25 66.2003 10.25C66.548 10.2384 66.8902 10.3386 67.1766 10.5359C67.463 10.7332 67.6786 11.0173 67.7916 11.3462H67.8266C68.2866 10.8512 69.0991 10.25 70.1953 10.25C71.2916 10.25 72.0328 10.9925 72.0328 12.125V18.6662H69.4753V13.01C69.4753 12.55 69.3341 12.2675 68.8503 12.2675C68.5316 12.2675 68.1428 12.55 67.9666 12.7625L67.9566 12.745ZM122.25 5.475L125.325 6.78375C122.103 8.09164 118.983 9.63975 115.992 11.415L112.917 9.93C115.922 8.2325 119.033 6.7125 122.25 5.475ZM118.395 4.13125C115.049 5.18659 111.816 6.57216 108.744 8.2675L111.644 9.39875C114.614 7.66625 117.76 6.18125 121.013 5.015L118.397 4.13125" fill="#3366CC"/>
<path d="M129.297 5.36875C126.645 4.09909 123.903 3.02376 121.095 2.15125L118.16 3.07C121.06 3.92 123.887 5.015 126.61 6.3225L129.297 5.3675V5.36875ZM133.575 4.06C130.887 2.89375 128.095 1.90375 125.231 1.125L122.544 1.75C125.372 2.5625 128.131 3.625 130.794 4.875L133.586 4.0625L133.575 4.06ZM140.505 6.39375C133.717 8.64375 127.389 11.9087 121.661 16.01C123.093 16.8956 124.496 17.827 125.869 18.8025C131.277 14.525 137.289 10.9188 143.759 8.23125C142.662 7.56 141.602 6.95875 140.506 6.39375H140.505ZM135.837 4.16625C128.802 6.04125 122.19 9.045 116.215 13.0038C117.559 13.675 118.865 14.3825 120.175 15.125C126.073 11.0512 132.576 7.92975 139.444 5.875C138.241 5.275 137.04 4.70875 135.837 4.1775" fill="#E2173E"/>
</svg>
