<svg width="100" height="27" viewBox="0 0 100 27" fill="none" xmlns="http://www.w3.org/2000/svg">
<path d="M17.0372 0.0309601V11.6625H4.71207V0.0309601H0V26.291H4.71207V14.2755H17.0372V26.291H21.7492V0.0309601H17.0372Z" fill="#1D1D1D"/>
<path d="M64.2384 21.7399C64.2384 21.7399 64.2384 14.7678 64.2384 14.1517C64.2384 12.6192 63.8916 9.79257 60.5697 8.21672C57.2477 6.64087 51.7864 5.79876 47.4087 10.613L49.0929 12.0372C49.0929 12.0372 52.7399 8.52012 57.0557 10.3529C58.3777 10.9164 59.3096 12.4768 59.452 13.4861C59.5728 14.3529 59.452 15.9443 59.452 15.9443C58.1981 15.1734 56.2724 14.3653 53.6904 14.3653C48.7492 14.3653 45.9009 17.0186 45.9009 20.6656C45.9009 24.3127 48.7492 26.7059 53.6904 26.7059C56.4211 26.7059 58.418 25.4087 59.6594 24.2446C59.7616 24.8854 59.9009 25.4892 60.0991 26.1672H64.7802C64.2755 24.8142 64.2415 22.2508 64.2384 21.7399ZM55.0464 24.2508C50.4706 24.2508 50.7306 20.6687 50.7306 20.6687C50.7306 20.6687 50.4706 16.8266 55.0464 16.8266C56.9567 16.8266 58.4427 17.5449 59.4489 18.2136L59.4458 21.7554C58.4365 23.0464 56.9783 24.2508 55.0464 24.2508Z" fill="#1D1D1D"/>
<path d="M34.6223 6.98452C27.1486 7.31579 24.5789 12.7492 24.5789 16.6563C24.5789 23.7554 30.4272 26.7121 34.6223 26.7121C38.8173 26.7121 41.4087 25.6347 43.5015 22.613L41.7957 21.3622C41.7957 21.3622 40.1115 23.8855 36.3808 23.8855C32.0217 23.8855 29.6687 20.6285 29.6687 17.9721H44.4706C45.3375 12.6192 41.3653 6.68731 34.6223 6.98452ZM29.6718 15.3591C29.6718 15.3591 30.1889 9.64087 34.483 9.46749C39.2724 9.46749 39.5758 15.3591 39.5758 15.3591H29.6718Z" fill="#1D1D1D"/>
<path d="M73.5263 8.85449C72.9474 9.4613 72.5015 10.1517 72.0774 10.8762V7.43034L67.0495 7.43963C67.3034 8.12074 67.4396 9.19195 67.5015 10.0495V26.1703H72.2291L72.2353 16.1115C72.2384 15.5325 72.291 14.9443 72.3994 14.3746C72.8638 11.9381 74.6471 10.4241 77.1362 10.3313L78.904 10.3282V6.99381C76.9257 6.85449 74.9226 7.39319 73.5263 8.85449Z" fill="#1D1D1D"/>
<path d="M99.7554 26.3003C99.5015 25.6192 99.3653 24.548 99.3034 23.6904V0H94.4985V10.0898C93.1362 8.16718 91.0124 6.93498 88.0681 6.93498C83.4923 6.93498 79.1641 11.1362 79.1641 16.709C79.1641 23.0279 83.4923 26.6997 88.0681 26.6997C91.1579 26.6997 93.2508 25.6811 94.5635 23.6997C94.5789 23.8638 94.6037 24.1331 94.6347 24.3901C94.7368 25.031 94.8762 25.6347 95.0743 26.3127H99.7554C99.7554 26.3096 99.7523 26.3034 99.7523 26.3003H99.7554ZM89.5728 23.4923C86.7276 23.4923 83.9938 21 83.9938 16.8235C83.9938 12.9567 86.7245 10.4644 89.5728 10.4644C91.6223 10.4644 93.5697 11.805 94.5015 14.0062V19.9938C93.5727 22.2477 91.6223 23.4923 89.5728 23.4923Z" fill="#1D1D1D"/>
</svg>
