<svg width="662" height="422" viewBox="0 0 662 422" fill="none" xmlns="http://www.w3.org/2000/svg">
<path d="M0 7.99999C0 3.58171 3.58172 0 8 0H654C658.418 0 662 3.58172 662 8V414C662 418.418 658.418 422 654 422H8.00001C3.58173 422 0 418.418 0 414V7.99999Z" fill="white"/>
<rect x="24.5" y="94.5" width="613" height="297" rx="7.5" fill="white"/>
<path d="M57.2784 129.364H59.4091L63.1136 138.409H63.25L66.9545 129.364H69.0852V141H67.4148V132.58H67.3068L63.875 140.983H62.4886L59.0568 132.574H58.9489V141H57.2784V129.364ZM75.1776 141.176C74.3594 141.176 73.6454 140.989 73.0355 140.614C72.4257 140.239 71.9522 139.714 71.6151 139.04C71.2779 138.366 71.1094 137.578 71.1094 136.676C71.1094 135.771 71.2779 134.979 71.6151 134.301C71.9522 133.623 72.4257 133.097 73.0355 132.722C73.6454 132.347 74.3594 132.159 75.1776 132.159C75.9957 132.159 76.7098 132.347 77.3196 132.722C77.9295 133.097 78.4029 133.623 78.7401 134.301C79.0772 134.979 79.2457 135.771 79.2457 136.676C79.2457 137.578 79.0772 138.366 78.7401 139.04C78.4029 139.714 77.9295 140.239 77.3196 140.614C76.7098 140.989 75.9957 141.176 75.1776 141.176ZM75.1832 139.75C75.7135 139.75 76.1529 139.61 76.5014 139.33C76.8499 139.049 77.1075 138.676 77.2741 138.21C77.4446 137.744 77.5298 137.231 77.5298 136.67C77.5298 136.114 77.4446 135.602 77.2741 135.136C77.1075 134.667 76.8499 134.29 76.5014 134.006C76.1529 133.722 75.7135 133.58 75.1832 133.58C74.6491 133.58 74.206 133.722 73.8537 134.006C73.5052 134.29 73.2457 134.667 73.0753 135.136C72.9086 135.602 72.8253 136.114 72.8253 136.67C72.8253 137.231 72.9086 137.744 73.0753 138.21C73.2457 138.676 73.5052 139.049 73.8537 139.33C74.206 139.61 74.6491 139.75 75.1832 139.75ZM82.8409 135.818V141H81.142V132.273H82.7727V133.693H82.8807C83.0814 133.231 83.3958 132.86 83.8239 132.58C84.2557 132.299 84.7992 132.159 85.4545 132.159C86.0492 132.159 86.5701 132.284 87.017 132.534C87.464 132.78 87.8106 133.148 88.0568 133.636C88.303 134.125 88.4261 134.729 88.4261 135.449V141H86.7273V135.653C86.7273 135.021 86.5625 134.527 86.233 134.17C85.9034 133.811 85.4508 133.631 84.875 133.631C84.4811 133.631 84.1307 133.716 83.8239 133.886C83.5208 134.057 83.2803 134.307 83.1023 134.636C82.928 134.962 82.8409 135.356 82.8409 135.818ZM94.7784 132.273V133.636H90.0114V132.273H94.7784ZM91.2898 130.182H92.9886V138.438C92.9886 138.767 93.0379 139.015 93.1364 139.182C93.2348 139.345 93.3617 139.456 93.517 139.517C93.6761 139.574 93.8485 139.602 94.0341 139.602C94.1705 139.602 94.2898 139.593 94.392 139.574C94.4943 139.555 94.5739 139.54 94.6307 139.528L94.9375 140.932C94.839 140.97 94.6989 141.008 94.517 141.045C94.3352 141.087 94.108 141.11 93.8352 141.114C93.3883 141.121 92.9716 141.042 92.5852 140.875C92.1989 140.708 91.8864 140.451 91.6477 140.102C91.4091 139.754 91.2898 139.316 91.2898 138.79V130.182ZM98.544 135.818V141H96.8452V129.364H98.5213V133.693H98.6293C98.8338 133.223 99.1463 132.85 99.5668 132.574C99.9872 132.297 100.536 132.159 101.214 132.159C101.813 132.159 102.336 132.282 102.783 132.528C103.233 132.775 103.582 133.142 103.828 133.631C104.078 134.116 104.203 134.722 104.203 135.449V141H102.504V135.653C102.504 135.013 102.339 134.517 102.01 134.165C101.68 133.809 101.222 133.631 100.635 133.631C100.233 133.631 99.8736 133.716 99.5554 133.886C99.241 134.057 98.9929 134.307 98.8111 134.636C98.633 134.962 98.544 135.356 98.544 135.818ZM108.169 129.364V141H106.47V129.364H108.169ZM111.528 144.273C111.275 144.273 111.044 144.252 110.835 144.21C110.627 144.172 110.472 144.131 110.369 144.085L110.778 142.693C111.089 142.777 111.366 142.813 111.608 142.801C111.85 142.79 112.064 142.699 112.25 142.528C112.439 142.358 112.606 142.08 112.75 141.693L112.96 141.114L109.767 132.273H111.585L113.795 139.045H113.886L116.097 132.273H117.92L114.324 142.165C114.157 142.619 113.945 143.004 113.688 143.318C113.43 143.636 113.123 143.875 112.767 144.034C112.411 144.193 111.998 144.273 111.528 144.273ZM133.553 133.148H131.78C131.712 132.769 131.585 132.436 131.399 132.148C131.214 131.86 130.986 131.616 130.717 131.415C130.448 131.214 130.147 131.062 129.814 130.96C129.484 130.858 129.134 130.807 128.763 130.807C128.092 130.807 127.492 130.975 126.962 131.312C126.435 131.65 126.018 132.144 125.712 132.795C125.409 133.447 125.257 134.242 125.257 135.182C125.257 136.129 125.409 136.928 125.712 137.58C126.018 138.231 126.437 138.723 126.967 139.057C127.498 139.39 128.094 139.557 128.757 139.557C129.125 139.557 129.473 139.508 129.803 139.409C130.136 139.307 130.437 139.157 130.706 138.96C130.975 138.763 131.202 138.523 131.388 138.239C131.577 137.951 131.708 137.621 131.78 137.25L133.553 137.256C133.458 137.828 133.274 138.354 133.001 138.835C132.732 139.312 132.386 139.725 131.962 140.074C131.541 140.419 131.06 140.686 130.518 140.875C129.977 141.064 129.386 141.159 128.746 141.159C127.738 141.159 126.84 140.92 126.053 140.443C125.265 139.962 124.643 139.275 124.189 138.381C123.738 137.487 123.513 136.42 123.513 135.182C123.513 133.939 123.74 132.873 124.195 131.983C124.649 131.089 125.27 130.403 126.058 129.926C126.846 129.445 127.742 129.205 128.746 129.205C129.363 129.205 129.939 129.294 130.473 129.472C131.011 129.646 131.494 129.903 131.922 130.244C132.35 130.581 132.704 130.994 132.984 131.483C133.265 131.968 133.454 132.523 133.553 133.148ZM138.057 141.193C137.504 141.193 137.004 141.091 136.557 140.886C136.11 140.678 135.756 140.377 135.494 139.983C135.237 139.589 135.108 139.106 135.108 138.534C135.108 138.042 135.203 137.636 135.392 137.318C135.581 137 135.837 136.748 136.159 136.562C136.481 136.377 136.841 136.237 137.239 136.142C137.636 136.047 138.042 135.975 138.455 135.926C138.977 135.866 139.402 135.816 139.727 135.778C140.053 135.737 140.29 135.67 140.438 135.58C140.585 135.489 140.659 135.341 140.659 135.136V135.097C140.659 134.6 140.519 134.216 140.239 133.943C139.962 133.67 139.549 133.534 139 133.534C138.428 133.534 137.977 133.661 137.648 133.915C137.322 134.165 137.097 134.443 136.972 134.75L135.375 134.386C135.564 133.856 135.841 133.428 136.205 133.102C136.572 132.773 136.994 132.534 137.472 132.386C137.949 132.235 138.451 132.159 138.977 132.159C139.326 132.159 139.695 132.201 140.085 132.284C140.479 132.364 140.847 132.511 141.188 132.727C141.532 132.943 141.814 133.252 142.034 133.653C142.254 134.051 142.364 134.568 142.364 135.205V141H140.705V139.807H140.636C140.527 140.027 140.362 140.242 140.142 140.455C139.922 140.667 139.64 140.843 139.295 140.983C138.951 141.123 138.538 141.193 138.057 141.193ZM138.426 139.83C138.896 139.83 139.297 139.737 139.631 139.551C139.968 139.366 140.223 139.123 140.398 138.824C140.576 138.521 140.665 138.197 140.665 137.852V136.727C140.604 136.788 140.487 136.845 140.312 136.898C140.142 136.947 139.947 136.991 139.727 137.028C139.508 137.062 139.294 137.095 139.085 137.125C138.877 137.152 138.703 137.174 138.562 137.193C138.233 137.235 137.932 137.305 137.659 137.403C137.39 137.502 137.174 137.644 137.011 137.83C136.852 138.011 136.773 138.254 136.773 138.557C136.773 138.977 136.928 139.295 137.239 139.511C137.549 139.723 137.945 139.83 138.426 139.83ZM151.166 134.403L149.626 134.676C149.562 134.479 149.46 134.292 149.32 134.114C149.183 133.936 148.998 133.79 148.763 133.676C148.528 133.562 148.234 133.506 147.882 133.506C147.401 133.506 147 133.614 146.678 133.83C146.356 134.042 146.195 134.316 146.195 134.653C146.195 134.945 146.303 135.18 146.518 135.358C146.734 135.536 147.083 135.682 147.564 135.795L148.95 136.114C149.753 136.299 150.352 136.585 150.746 136.972C151.14 137.358 151.337 137.86 151.337 138.477C151.337 139 151.185 139.466 150.882 139.875C150.583 140.28 150.164 140.598 149.626 140.83C149.092 141.061 148.473 141.176 147.768 141.176C146.791 141.176 145.994 140.968 145.376 140.551C144.759 140.131 144.38 139.534 144.24 138.761L145.882 138.511C145.984 138.939 146.195 139.263 146.513 139.483C146.831 139.699 147.246 139.807 147.757 139.807C148.314 139.807 148.759 139.691 149.092 139.46C149.426 139.225 149.592 138.939 149.592 138.602C149.592 138.33 149.49 138.1 149.286 137.915C149.085 137.729 148.776 137.589 148.359 137.494L146.882 137.17C146.068 136.985 145.465 136.689 145.075 136.284C144.689 135.879 144.496 135.366 144.496 134.744C144.496 134.229 144.64 133.778 144.928 133.392C145.215 133.006 145.613 132.705 146.121 132.489C146.628 132.269 147.21 132.159 147.865 132.159C148.808 132.159 149.551 132.364 150.092 132.773C150.634 133.178 150.992 133.722 151.166 134.403ZM154.903 135.818V141H153.205V129.364H154.881V133.693H154.989C155.193 133.223 155.506 132.85 155.926 132.574C156.347 132.297 156.896 132.159 157.574 132.159C158.172 132.159 158.695 132.282 159.142 132.528C159.593 132.775 159.941 133.142 160.188 133.631C160.438 134.116 160.562 134.722 160.562 135.449V141H158.864V135.653C158.864 135.013 158.699 134.517 158.369 134.165C158.04 133.809 157.581 133.631 156.994 133.631C156.593 133.631 156.233 133.716 155.915 133.886C155.6 134.057 155.352 134.307 155.17 134.636C154.992 134.962 154.903 135.356 154.903 135.818ZM173.547 132.42C173.486 131.883 173.236 131.466 172.797 131.17C172.357 130.871 171.804 130.722 171.138 130.722C170.661 130.722 170.248 130.797 169.899 130.949C169.551 131.097 169.28 131.301 169.087 131.562C168.897 131.82 168.803 132.114 168.803 132.443C168.803 132.72 168.867 132.958 168.996 133.159C169.128 133.36 169.301 133.528 169.513 133.665C169.729 133.797 169.96 133.909 170.206 134C170.452 134.087 170.689 134.159 170.916 134.216L172.053 134.511C172.424 134.602 172.804 134.725 173.195 134.881C173.585 135.036 173.946 135.241 174.28 135.494C174.613 135.748 174.882 136.062 175.087 136.438C175.295 136.812 175.399 137.261 175.399 137.784C175.399 138.443 175.229 139.028 174.888 139.54C174.551 140.051 174.06 140.455 173.416 140.75C172.776 141.045 172.001 141.193 171.092 141.193C170.221 141.193 169.467 141.055 168.831 140.778C168.195 140.502 167.696 140.11 167.337 139.602C166.977 139.091 166.778 138.485 166.74 137.784H168.501C168.536 138.205 168.672 138.555 168.911 138.835C169.153 139.112 169.462 139.318 169.837 139.455C170.215 139.587 170.63 139.653 171.081 139.653C171.577 139.653 172.018 139.576 172.405 139.42C172.795 139.261 173.102 139.042 173.325 138.761C173.549 138.477 173.661 138.146 173.661 137.767C173.661 137.422 173.562 137.14 173.365 136.92C173.172 136.701 172.909 136.519 172.575 136.375C172.246 136.231 171.873 136.104 171.456 135.994L170.081 135.619C169.149 135.366 168.411 134.992 167.865 134.5C167.323 134.008 167.053 133.356 167.053 132.545C167.053 131.875 167.234 131.29 167.598 130.79C167.962 130.29 168.454 129.902 169.075 129.625C169.696 129.345 170.397 129.205 171.178 129.205C171.965 129.205 172.661 129.343 173.263 129.619C173.869 129.896 174.346 130.277 174.695 130.761C175.043 131.242 175.225 131.795 175.24 132.42H173.547ZM182.889 137.381V132.273H184.594V141H182.923V139.489H182.832C182.632 139.955 182.31 140.343 181.866 140.653C181.427 140.96 180.88 141.114 180.224 141.114C179.664 141.114 179.168 140.991 178.736 140.744C178.308 140.494 177.971 140.125 177.724 139.636C177.482 139.148 177.361 138.544 177.361 137.824V132.273H179.06V137.619C179.06 138.214 179.224 138.687 179.554 139.04C179.884 139.392 180.312 139.568 180.838 139.568C181.156 139.568 181.473 139.489 181.787 139.33C182.105 139.17 182.368 138.93 182.577 138.608C182.789 138.286 182.893 137.877 182.889 137.381ZM186.876 141V132.273H188.507V133.693H188.615C188.797 133.212 189.094 132.837 189.507 132.568C189.92 132.295 190.414 132.159 190.99 132.159C191.573 132.159 192.062 132.295 192.456 132.568C192.854 132.841 193.147 133.216 193.337 133.693H193.428C193.636 133.227 193.967 132.856 194.422 132.58C194.876 132.299 195.418 132.159 196.047 132.159C196.839 132.159 197.484 132.407 197.984 132.903C198.488 133.4 198.74 134.148 198.74 135.148V141H197.041V135.307C197.041 134.716 196.88 134.288 196.558 134.023C196.236 133.758 195.852 133.625 195.405 133.625C194.852 133.625 194.422 133.795 194.115 134.136C193.808 134.473 193.655 134.907 193.655 135.438V141H191.962V135.199C191.962 134.725 191.814 134.345 191.518 134.057C191.223 133.769 190.839 133.625 190.365 133.625C190.043 133.625 189.746 133.71 189.473 133.881C189.204 134.047 188.986 134.28 188.82 134.58C188.657 134.879 188.575 135.225 188.575 135.619V141H186.876ZM201.017 141V132.273H202.648V133.693H202.756C202.938 133.212 203.235 132.837 203.648 132.568C204.061 132.295 204.555 132.159 205.131 132.159C205.714 132.159 206.203 132.295 206.597 132.568C206.994 132.841 207.288 133.216 207.477 133.693H207.568C207.777 133.227 208.108 132.856 208.562 132.58C209.017 132.299 209.559 132.159 210.188 132.159C210.979 132.159 211.625 132.407 212.125 132.903C212.629 133.4 212.881 134.148 212.881 135.148V141H211.182V135.307C211.182 134.716 211.021 134.288 210.699 134.023C210.377 133.758 209.992 133.625 209.545 133.625C208.992 133.625 208.562 133.795 208.256 134.136C207.949 134.473 207.795 134.907 207.795 135.438V141H206.102V135.199C206.102 134.725 205.955 134.345 205.659 134.057C205.364 133.769 204.979 133.625 204.506 133.625C204.184 133.625 203.886 133.71 203.614 133.881C203.345 134.047 203.127 134.28 202.96 134.58C202.797 134.879 202.716 135.225 202.716 135.619V141H201.017ZM217.697 141.193C217.144 141.193 216.644 141.091 216.197 140.886C215.75 140.678 215.396 140.377 215.135 139.983C214.877 139.589 214.749 139.106 214.749 138.534C214.749 138.042 214.843 137.636 215.033 137.318C215.222 137 215.478 136.748 215.8 136.562C216.122 136.377 216.482 136.237 216.879 136.142C217.277 136.047 217.682 135.975 218.095 135.926C218.618 135.866 219.042 135.816 219.368 135.778C219.694 135.737 219.93 135.67 220.078 135.58C220.226 135.489 220.3 135.341 220.3 135.136V135.097C220.3 134.6 220.16 134.216 219.879 133.943C219.603 133.67 219.19 133.534 218.641 133.534C218.069 133.534 217.618 133.661 217.288 133.915C216.963 134.165 216.737 134.443 216.612 134.75L215.016 134.386C215.205 133.856 215.482 133.428 215.845 133.102C216.213 132.773 216.635 132.534 217.112 132.386C217.589 132.235 218.091 132.159 218.618 132.159C218.966 132.159 219.336 132.201 219.726 132.284C220.12 132.364 220.487 132.511 220.828 132.727C221.173 132.943 221.455 133.252 221.675 133.653C221.894 134.051 222.004 134.568 222.004 135.205V141H220.345V139.807H220.277C220.167 140.027 220.002 140.242 219.783 140.455C219.563 140.667 219.281 140.843 218.936 140.983C218.591 141.123 218.179 141.193 217.697 141.193ZM218.067 139.83C218.536 139.83 218.938 139.737 219.271 139.551C219.608 139.366 219.864 139.123 220.038 138.824C220.216 138.521 220.305 138.197 220.305 137.852V136.727C220.245 136.788 220.127 136.845 219.953 136.898C219.783 136.947 219.588 136.991 219.368 137.028C219.148 137.062 218.934 137.095 218.726 137.125C218.518 137.152 218.343 137.174 218.203 137.193C217.874 137.235 217.572 137.305 217.3 137.403C217.031 137.502 216.815 137.644 216.652 137.83C216.493 138.011 216.413 138.254 216.413 138.557C216.413 138.977 216.569 139.295 216.879 139.511C217.19 139.723 217.586 139.83 218.067 139.83ZM224.267 141V132.273H225.909V133.659H226C226.159 133.189 226.439 132.82 226.841 132.551C227.246 132.278 227.705 132.142 228.216 132.142C228.322 132.142 228.447 132.146 228.591 132.153C228.739 132.161 228.854 132.17 228.938 132.182V133.807C228.869 133.788 228.748 133.767 228.574 133.744C228.4 133.718 228.225 133.705 228.051 133.705C227.65 133.705 227.292 133.79 226.977 133.96C226.667 134.127 226.42 134.36 226.239 134.659C226.057 134.955 225.966 135.292 225.966 135.67V141H224.267ZM231.747 144.273C231.493 144.273 231.262 144.252 231.054 144.21C230.846 144.172 230.69 144.131 230.588 144.085L230.997 142.693C231.308 142.777 231.584 142.813 231.827 142.801C232.069 142.79 232.283 142.699 232.469 142.528C232.658 142.358 232.825 142.08 232.969 141.693L233.179 141.114L229.986 132.273H231.804L234.014 139.045H234.105L236.315 132.273H238.139L234.543 142.165C234.376 142.619 234.164 143.004 233.906 143.318C233.649 143.636 233.342 143.875 232.986 144.034C232.63 144.193 232.217 144.273 231.747 144.273ZM240.855 141.108C240.545 141.108 240.277 140.998 240.054 140.778C239.83 140.555 239.719 140.286 239.719 139.972C239.719 139.661 239.83 139.396 240.054 139.176C240.277 138.953 240.545 138.841 240.855 138.841C241.166 138.841 241.433 138.953 241.656 139.176C241.88 139.396 241.991 139.661 241.991 139.972C241.991 140.18 241.938 140.371 241.832 140.545C241.73 140.716 241.594 140.852 241.423 140.955C241.253 141.057 241.063 141.108 240.855 141.108ZM240.855 134.756C240.545 134.756 240.277 134.644 240.054 134.42C239.83 134.197 239.719 133.93 239.719 133.619C239.719 133.309 239.83 133.044 240.054 132.824C240.277 132.6 240.545 132.489 240.855 132.489C241.166 132.489 241.433 132.6 241.656 132.824C241.88 133.044 241.991 133.309 241.991 133.619C241.991 133.828 241.938 134.019 241.832 134.193C241.73 134.364 241.594 134.5 241.423 134.602C241.253 134.705 241.063 134.756 240.855 134.756Z" fill="#1D1D1D"/>
<path d="M522.266 131.818H523.738L527.198 140.27H527.317L530.778 131.818H532.249V142H531.096V134.264H530.996L527.814 142H526.701L523.519 134.264H523.42V142H522.266V131.818ZM536.809 142.179C536.325 142.179 535.886 142.088 535.492 141.906C535.097 141.72 534.784 141.453 534.552 141.105C534.32 140.754 534.204 140.33 534.204 139.832C534.204 139.395 534.29 139.04 534.463 138.768C534.635 138.493 534.865 138.278 535.154 138.122C535.442 137.966 535.76 137.85 536.108 137.774C536.46 137.695 536.813 137.632 537.167 137.585C537.631 137.526 538.007 137.481 538.296 137.451C538.587 137.418 538.8 137.363 538.932 137.287C539.068 137.211 539.136 137.078 539.136 136.889V136.849C539.136 136.359 539.002 135.978 538.733 135.706C538.468 135.434 538.065 135.298 537.525 135.298C536.965 135.298 536.526 135.421 536.208 135.666C535.89 135.911 535.666 136.173 535.537 136.452L534.423 136.054C534.622 135.59 534.887 135.229 535.218 134.97C535.553 134.708 535.918 134.526 536.312 134.423C536.71 134.317 537.101 134.264 537.485 134.264C537.731 134.264 538.012 134.294 538.331 134.354C538.652 134.41 538.962 134.528 539.26 134.707C539.562 134.886 539.812 135.156 540.011 135.517C540.21 135.878 540.309 136.362 540.309 136.969V142H539.136V140.966H539.076C538.997 141.132 538.864 141.309 538.679 141.498C538.493 141.687 538.246 141.848 537.938 141.98C537.63 142.113 537.253 142.179 536.809 142.179ZM536.988 141.125C537.452 141.125 537.843 141.034 538.162 140.852C538.483 140.669 538.725 140.434 538.887 140.146C539.053 139.857 539.136 139.554 539.136 139.236V138.162C539.086 138.222 538.977 138.276 538.808 138.326C538.642 138.372 538.45 138.414 538.231 138.45C538.016 138.483 537.805 138.513 537.6 138.54C537.398 138.563 537.234 138.583 537.108 138.599C536.803 138.639 536.518 138.704 536.252 138.793C535.991 138.879 535.779 139.01 535.616 139.186C535.457 139.358 535.377 139.594 535.377 139.892C535.377 140.3 535.528 140.608 535.83 140.817C536.135 141.022 536.521 141.125 536.988 141.125ZM542.451 142V134.364H543.584V135.517H543.664C543.803 135.139 544.055 134.833 544.42 134.597C544.784 134.362 545.195 134.244 545.653 134.244C545.739 134.244 545.846 134.246 545.976 134.249C546.105 134.253 546.203 134.258 546.269 134.264V135.457C546.229 135.447 546.138 135.433 545.996 135.413C545.856 135.389 545.709 135.378 545.553 135.378C545.182 135.378 544.85 135.456 544.559 135.612C544.27 135.764 544.042 135.976 543.873 136.248C543.707 136.516 543.624 136.823 543.624 137.168V142H542.451ZM550.53 142.159C549.814 142.159 549.197 141.99 548.68 141.652C548.163 141.314 547.765 140.848 547.487 140.255C547.209 139.662 547.069 138.984 547.069 138.222C547.069 137.446 547.212 136.762 547.497 136.168C547.785 135.572 548.186 135.106 548.7 134.771C549.217 134.433 549.82 134.264 550.51 134.264C551.047 134.264 551.531 134.364 551.961 134.562C552.392 134.761 552.745 135.04 553.02 135.398C553.296 135.756 553.466 136.173 553.532 136.651H552.359C552.27 136.303 552.071 135.994 551.763 135.726C551.458 135.454 551.047 135.318 550.53 135.318C550.072 135.318 549.671 135.437 549.327 135.676C548.985 135.911 548.718 136.245 548.526 136.675C548.337 137.103 548.243 137.605 548.243 138.182C548.243 138.772 548.336 139.286 548.521 139.723C548.71 140.161 548.975 140.5 549.317 140.742C549.661 140.984 550.066 141.105 550.53 141.105C550.835 141.105 551.111 141.052 551.36 140.946C551.608 140.84 551.819 140.688 551.991 140.489C552.164 140.29 552.286 140.051 552.359 139.773H553.532C553.466 140.223 553.302 140.629 553.04 140.991C552.782 141.349 552.439 141.634 552.011 141.846C551.587 142.055 551.093 142.159 550.53 142.159ZM556.421 137.406V142H555.248V131.818H556.421V135.557H556.52C556.699 135.162 556.968 134.849 557.326 134.617C557.687 134.382 558.168 134.264 558.768 134.264C559.288 134.264 559.744 134.369 560.135 134.577C560.526 134.783 560.829 135.099 561.045 135.527C561.263 135.951 561.373 136.491 561.373 137.148V142H560.199V137.227C560.199 136.621 560.042 136.152 559.727 135.82C559.416 135.486 558.983 135.318 558.43 135.318C558.045 135.318 557.7 135.399 557.395 135.562C557.094 135.724 556.855 135.961 556.68 136.273C556.507 136.584 556.421 136.962 556.421 137.406ZM567.437 142V141.105L570.798 137.426C571.192 136.995 571.517 136.621 571.772 136.303C572.027 135.981 572.216 135.679 572.339 135.398C572.465 135.113 572.528 134.814 572.528 134.503C572.528 134.145 572.442 133.835 572.269 133.573C572.1 133.311 571.868 133.109 571.573 132.967C571.278 132.824 570.947 132.753 570.579 132.753C570.188 132.753 569.846 132.834 569.555 132.996C569.266 133.156 569.043 133.379 568.884 133.668C568.728 133.956 568.65 134.294 568.65 134.682H567.477C567.477 134.085 567.614 133.562 567.889 133.111C568.164 132.66 568.539 132.309 569.013 132.057C569.49 131.805 570.025 131.679 570.619 131.679C571.215 131.679 571.744 131.805 572.205 132.057C572.665 132.309 573.027 132.648 573.288 133.076C573.55 133.504 573.681 133.979 573.681 134.503C573.681 134.877 573.613 135.244 573.477 135.602C573.345 135.956 573.113 136.352 572.781 136.79C572.453 137.224 571.997 137.754 571.414 138.381L569.127 140.827V140.906H573.86V142H567.437ZM579.234 142.139C578.485 142.139 577.847 141.935 577.32 141.528C576.793 141.117 576.391 140.522 576.112 139.743C575.834 138.961 575.695 138.016 575.695 136.909C575.695 135.809 575.834 134.869 576.112 134.09C576.394 133.308 576.798 132.711 577.325 132.3C577.856 131.886 578.492 131.679 579.234 131.679C579.977 131.679 580.612 131.886 581.138 132.3C581.669 132.711 582.073 133.308 582.352 134.09C582.633 134.869 582.774 135.809 582.774 136.909C582.774 138.016 582.635 138.961 582.357 139.743C582.078 140.522 581.675 141.117 581.148 141.528C580.621 141.935 579.983 142.139 579.234 142.139ZM579.234 141.045C579.977 141.045 580.554 140.687 580.964 139.972C581.375 139.256 581.581 138.235 581.581 136.909C581.581 136.027 581.487 135.277 581.298 134.657C581.112 134.037 580.844 133.565 580.492 133.24C580.144 132.915 579.725 132.753 579.234 132.753C578.499 132.753 577.924 133.116 577.509 133.842C577.095 134.564 576.888 135.587 576.888 136.909C576.888 137.791 576.981 138.54 577.166 139.156C577.352 139.773 577.619 140.242 577.967 140.563C578.318 140.885 578.741 141.045 579.234 141.045ZM584.663 142V141.105L588.024 137.426C588.419 136.995 588.743 136.621 588.999 136.303C589.254 135.981 589.443 135.679 589.565 135.398C589.691 135.113 589.754 134.814 589.754 134.503C589.754 134.145 589.668 133.835 589.496 133.573C589.327 133.311 589.095 133.109 588.8 132.967C588.505 132.824 588.173 132.753 587.805 132.753C587.414 132.753 587.073 132.834 586.781 132.996C586.493 133.156 586.269 133.379 586.11 133.668C585.954 133.956 585.876 134.294 585.876 134.682H584.703C584.703 134.085 584.841 133.562 585.116 133.111C585.391 132.66 585.765 132.309 586.239 132.057C586.717 131.805 587.252 131.679 587.845 131.679C588.442 131.679 588.97 131.805 589.431 132.057C589.892 132.309 590.253 132.648 590.515 133.076C590.777 133.504 590.908 133.979 590.908 134.503C590.908 134.877 590.84 135.244 590.704 135.602C590.571 135.956 590.339 136.352 590.008 136.79C589.68 137.224 589.224 137.754 588.641 138.381L586.354 140.827V140.906H591.087V142H584.663ZM596.58 142.139C595.924 142.139 595.339 142.027 594.825 141.801C594.315 141.576 593.909 141.263 593.607 140.862C593.309 140.457 593.147 139.988 593.12 139.455H594.373C594.399 139.783 594.512 140.066 594.711 140.305C594.91 140.54 595.17 140.722 595.491 140.852C595.813 140.981 596.169 141.045 596.56 141.045C596.998 141.045 597.386 140.969 597.724 140.817C598.062 140.664 598.327 140.452 598.519 140.18C598.711 139.909 598.808 139.594 598.808 139.236C598.808 138.861 598.715 138.531 598.529 138.246C598.344 137.958 598.072 137.733 597.714 137.57C597.356 137.408 596.918 137.327 596.401 137.327H595.586V136.233H596.401C596.806 136.233 597.16 136.16 597.465 136.014C597.773 135.868 598.014 135.663 598.186 135.398C598.362 135.133 598.45 134.821 598.45 134.463C598.45 134.118 598.373 133.818 598.221 133.563C598.068 133.308 597.853 133.109 597.575 132.967C597.299 132.824 596.975 132.753 596.6 132.753C596.249 132.753 595.917 132.817 595.606 132.947C595.298 133.073 595.046 133.257 594.85 133.499C594.655 133.737 594.549 134.026 594.532 134.364H593.339C593.359 133.83 593.519 133.363 593.821 132.962C594.123 132.557 594.517 132.242 595.004 132.017C595.495 131.792 596.033 131.679 596.62 131.679C597.25 131.679 597.79 131.807 598.241 132.062C598.692 132.314 599.038 132.647 599.28 133.061C599.522 133.475 599.643 133.923 599.643 134.403C599.643 134.977 599.492 135.466 599.19 135.87C598.892 136.274 598.486 136.554 597.972 136.71V136.79C598.615 136.896 599.117 137.169 599.479 137.61C599.84 138.048 600.021 138.589 600.021 139.236C600.021 139.789 599.87 140.286 599.568 140.727C599.27 141.165 598.862 141.509 598.345 141.761C597.828 142.013 597.24 142.139 596.58 142.139Z" fill="#1D1D1D"/>
<rect x="56" y="155" width="550" height="1" fill="#D9D9D9"/>
<path d="M57.563 188V177.818H61.0034C61.8021 177.818 62.4551 177.962 62.9622 178.251C63.4726 178.536 63.8504 178.922 64.0957 179.409C64.341 179.896 64.4636 180.44 64.4636 181.04C64.4636 181.64 64.341 182.185 64.0957 182.675C63.8538 183.166 63.4792 183.557 62.9721 183.849C62.465 184.137 61.8154 184.281 61.0233 184.281H58.5574V183.188H60.9835C61.5304 183.188 61.9695 183.093 62.301 182.904C62.6324 182.715 62.8727 182.46 63.0218 182.138C63.1743 181.814 63.2505 181.447 63.2505 181.04C63.2505 180.632 63.1743 180.268 63.0218 179.946C62.8727 179.625 62.6307 179.373 62.296 179.19C61.9612 179.005 61.5171 178.912 60.9636 178.912H58.796V188H57.563ZM66.2907 188V180.364H67.4242V181.517H67.5037C67.6429 181.139 67.8948 180.833 68.2594 180.597C68.624 180.362 69.035 180.244 69.4924 180.244C69.5785 180.244 69.6863 180.246 69.8155 180.249C69.9448 180.253 70.0426 180.258 70.1088 180.264V181.457C70.0691 181.447 69.9779 181.433 69.8354 181.413C69.6962 181.389 69.5487 181.378 69.3929 181.378C69.0217 181.378 68.6903 181.456 68.3986 181.612C68.1103 181.764 67.8816 181.976 67.7125 182.248C67.5468 182.516 67.464 182.823 67.464 183.168V188H66.2907ZM74.3695 188.159C73.6801 188.159 73.0752 187.995 72.5549 187.667C72.0378 187.339 71.6335 186.88 71.3418 186.29C71.0534 185.7 70.9093 185.01 70.9093 184.222C70.9093 183.426 71.0534 182.732 71.3418 182.138C71.6335 181.545 72.0378 181.085 72.5549 180.756C73.0752 180.428 73.6801 180.264 74.3695 180.264C75.0589 180.264 75.6621 180.428 76.1792 180.756C76.6995 181.085 77.1039 181.545 77.3922 182.138C77.6839 182.732 77.8297 183.426 77.8297 184.222C77.8297 185.01 77.6839 185.7 77.3922 186.29C77.1039 186.88 76.6995 187.339 76.1792 187.667C75.6621 187.995 75.0589 188.159 74.3695 188.159ZM74.3695 187.105C74.8932 187.105 75.324 186.971 75.6621 186.702C76.0002 186.434 76.2504 186.081 76.4128 185.643C76.5752 185.206 76.6564 184.732 76.6564 184.222C76.6564 183.711 76.5752 183.236 76.4128 182.795C76.2504 182.354 76.0002 181.998 75.6621 181.726C75.324 181.454 74.8932 181.318 74.3695 181.318C73.8458 181.318 73.415 181.454 73.0769 181.726C72.7388 181.998 72.4886 182.354 72.3262 182.795C72.1638 183.236 72.0826 183.711 72.0826 184.222C72.0826 184.732 72.1638 185.206 72.3262 185.643C72.4886 186.081 72.7388 186.434 73.0769 186.702C73.415 186.971 73.8458 187.105 74.3695 187.105ZM83.0213 180.364V181.358H78.9048V180.364H83.0213ZM80.1378 188V179.31C80.1378 178.872 80.2405 178.508 80.446 178.216C80.6515 177.924 80.9183 177.705 81.2464 177.56C81.5746 177.414 81.9209 177.341 82.2855 177.341C82.5739 177.341 82.8092 177.364 82.9915 177.411C83.1738 177.457 83.3097 177.5 83.3991 177.54L83.0611 178.554C83.0014 178.534 82.9186 178.509 82.8125 178.479C82.7098 178.45 82.5739 178.435 82.4048 178.435C82.017 178.435 81.737 178.532 81.5646 178.728C81.3956 178.924 81.3111 179.21 81.3111 179.588V188H80.1378ZM84.6657 188V180.364H85.839V188H84.6657ZM85.2623 179.091C85.0336 179.091 84.8364 179.013 84.6706 178.857C84.5082 178.701 84.427 178.514 84.427 178.295C84.427 178.077 84.5082 177.889 84.6706 177.734C84.8364 177.578 85.0336 177.5 85.2623 177.5C85.4909 177.5 85.6865 177.578 85.8489 177.734C86.0146 177.889 86.0975 178.077 86.0975 178.295C86.0975 178.514 86.0146 178.701 85.8489 178.857C85.6865 179.013 85.4909 179.091 85.2623 179.091ZM91.3089 180.364V181.358H87.3516V180.364H91.3089ZM88.505 178.534H89.6783V185.812C89.6783 186.144 89.7263 186.393 89.8224 186.558C89.9219 186.721 90.0478 186.83 90.2003 186.886C90.3561 186.939 90.5201 186.966 90.6925 186.966C90.8217 186.966 90.9278 186.959 91.0107 186.946C91.0935 186.929 91.1598 186.916 91.2095 186.906L91.4482 187.96C91.3686 187.99 91.2576 188.02 91.1151 188.05C90.9725 188.083 90.7919 188.099 90.5732 188.099C90.2417 188.099 89.9169 188.028 89.5987 187.886C89.2839 187.743 89.022 187.526 88.8132 187.234C88.6077 186.943 88.505 186.575 88.505 186.131V178.534Z" fill="black"/>
<path d="M62.0597 217.818V199.636H63.2244V217.818H62.0597ZM65.7031 205.276C65.6274 204.603 65.3149 204.082 64.7656 203.713C64.2164 203.339 63.5251 203.152 62.6918 203.152C62.0952 203.152 61.5791 203.247 61.1435 203.436C60.7079 203.621 60.3693 203.876 60.1278 204.203C59.8911 204.525 59.7727 204.892 59.7727 205.304C59.7727 205.65 59.8532 205.948 60.0142 206.199C60.1799 206.45 60.3954 206.661 60.6605 206.831C60.9304 206.997 61.2192 207.136 61.527 207.25C61.8348 207.359 62.1307 207.449 62.4148 207.52L63.8352 207.889C64.2992 208.003 64.7751 208.157 65.2628 208.351C65.7505 208.545 66.2027 208.801 66.6193 209.118C67.036 209.435 67.3722 209.828 67.6278 210.297C67.8883 210.766 68.0185 211.327 68.0185 211.98C68.0185 212.804 67.8054 213.536 67.3793 214.175C66.9579 214.814 66.3447 215.318 65.5398 215.688C64.7396 216.057 63.7713 216.241 62.6349 216.241C61.5459 216.241 60.6037 216.069 59.8082 215.723C59.0128 215.377 58.3902 214.887 57.9403 214.253C57.4905 213.614 57.242 212.856 57.1946 211.98H59.3963C59.4389 212.506 59.6094 212.944 59.9077 213.294C60.2107 213.64 60.5966 213.898 61.0653 214.068C61.5388 214.234 62.0573 214.317 62.6207 214.317C63.241 214.317 63.7926 214.22 64.2756 214.026C64.7633 213.827 65.1468 213.552 65.4261 213.202C65.7055 212.847 65.8452 212.432 65.8452 211.959C65.8452 211.528 65.7221 211.175 65.4759 210.901C65.2344 210.626 64.9053 210.399 64.4886 210.219C64.0767 210.039 63.6103 209.88 63.0895 209.743L61.3707 209.274C60.206 208.957 59.2827 208.491 58.6009 207.875C57.9238 207.259 57.5852 206.445 57.5852 205.432C57.5852 204.594 57.8125 203.862 58.267 203.237C58.7216 202.612 59.3371 202.127 60.1136 201.781C60.8902 201.431 61.7661 201.256 62.7415 201.256C63.7263 201.256 64.5952 201.429 65.348 201.774C66.1056 202.12 66.7022 202.596 67.1378 203.202C67.5734 203.803 67.8007 204.494 67.8196 205.276H65.7031ZM70.1367 213.159V211.384L76.4222 201.455H77.8214V204.068H76.9336L72.4379 211.185V211.298H81.0529V213.159H70.1367ZM77.033 216V212.619L77.0472 211.81V201.455H79.1282V216H77.033ZM85.7724 214.011L85.6658 214.786C85.5948 215.354 85.4741 215.946 85.3036 216.561C85.1379 217.181 84.9651 217.757 84.7852 218.287C84.61 218.817 84.4656 219.239 84.3519 219.551H82.8462C82.9078 219.258 82.993 218.86 83.1019 218.358C83.2108 217.861 83.3174 217.304 83.4215 216.689C83.5257 216.073 83.6038 215.446 83.6559 214.807L83.7269 214.011H85.7724ZM88.7429 216V214.409L93.6648 209.31C94.1903 208.756 94.6236 208.27 94.9645 207.854C95.3101 207.432 95.5682 207.032 95.7386 206.653C95.9091 206.275 95.9943 205.872 95.9943 205.446C95.9943 204.963 95.8807 204.546 95.6534 204.196C95.4261 203.841 95.116 203.569 94.723 203.379C94.33 203.185 93.8873 203.088 93.3949 203.088C92.8741 203.088 92.4195 203.195 92.0312 203.408C91.643 203.621 91.3447 203.921 91.1364 204.31C90.928 204.698 90.8239 205.152 90.8239 205.673H88.7287C88.7287 204.788 88.9323 204.014 89.3395 203.351C89.7467 202.688 90.3054 202.174 91.0156 201.81C91.7259 201.44 92.5331 201.256 93.4375 201.256C94.3513 201.256 95.1563 201.438 95.8523 201.803C96.553 202.162 97.0999 202.655 97.4929 203.28C97.8859 203.9 98.0824 204.601 98.0824 205.382C98.0824 205.922 97.9806 206.45 97.777 206.966C97.5781 207.482 97.2301 208.057 96.733 208.692C96.2358 209.321 95.5445 210.086 94.6591 210.986L91.7685 214.011V214.118H98.3168V216H88.7429ZM100.391 213.159V211.384L106.676 201.455H108.075V204.068H107.188L102.692 211.185V211.298H111.307V213.159H100.391ZM107.287 216V212.619L107.301 211.81V201.455H109.382V216H107.287ZM118.583 216.199C117.693 216.199 116.893 216.028 116.183 215.688C115.477 215.342 114.914 214.868 114.492 214.267C114.071 213.666 113.846 212.979 113.817 212.207H115.948C116 212.832 116.277 213.346 116.779 213.749C117.281 214.151 117.882 214.352 118.583 214.352C119.142 214.352 119.637 214.224 120.067 213.969C120.503 213.708 120.844 213.351 121.09 212.896C121.341 212.442 121.467 211.923 121.467 211.341C121.467 210.749 121.339 210.221 121.083 209.757C120.827 209.293 120.475 208.929 120.025 208.663C119.58 208.398 119.068 208.263 118.491 208.259C118.05 208.259 117.608 208.334 117.163 208.486C116.718 208.637 116.358 208.836 116.083 209.082L114.073 208.784L114.89 201.455H122.887V203.337H116.715L116.254 207.406H116.339C116.623 207.132 116.999 206.902 117.468 206.717C117.942 206.533 118.448 206.44 118.988 206.44C119.873 206.44 120.662 206.651 121.353 207.072C122.049 207.494 122.596 208.069 122.994 208.798C123.396 209.523 123.595 210.356 123.59 211.298C123.595 212.241 123.382 213.081 122.951 213.82C122.525 214.558 121.933 215.141 121.175 215.567C120.423 215.988 119.558 216.199 118.583 216.199ZM127.085 216.135C126.696 216.135 126.362 215.998 126.083 215.723C125.804 215.444 125.664 215.107 125.664 214.714C125.664 214.326 125.804 213.995 126.083 213.72C126.362 213.441 126.696 213.301 127.085 213.301C127.473 213.301 127.807 213.441 128.086 213.72C128.365 213.995 128.505 214.326 128.505 214.714C128.505 214.975 128.439 215.214 128.306 215.432C128.178 215.645 128.008 215.815 127.795 215.943C127.582 216.071 127.345 216.135 127.085 216.135ZM135.888 216.199C134.998 216.199 134.197 216.028 133.487 215.688C132.782 215.342 132.218 214.868 131.797 214.267C131.375 213.666 131.151 212.979 131.122 212.207H133.253C133.305 212.832 133.582 213.346 134.084 213.749C134.586 214.151 135.187 214.352 135.888 214.352C136.446 214.352 136.941 214.224 137.372 213.969C137.808 213.708 138.149 213.351 138.395 212.896C138.646 212.442 138.771 211.923 138.771 211.341C138.771 210.749 138.643 210.221 138.388 209.757C138.132 209.293 137.779 208.929 137.33 208.663C136.884 208.398 136.373 208.263 135.795 208.259C135.355 208.259 134.912 208.334 134.467 208.486C134.022 208.637 133.662 208.836 133.388 209.082L131.378 208.784L132.195 201.455H140.192V203.337H134.02L133.558 207.406H133.643C133.928 207.132 134.304 206.902 134.773 206.717C135.246 206.533 135.753 206.44 136.293 206.44C137.178 206.44 137.966 206.651 138.658 207.072C139.354 207.494 139.901 208.069 140.298 208.798C140.701 209.523 140.9 210.356 140.895 211.298C140.9 212.241 140.687 213.081 140.256 213.82C139.83 214.558 139.238 215.141 138.48 215.567C137.727 215.988 136.863 216.199 135.888 216.199ZM148.553 216.241C147.431 216.237 146.472 215.941 145.676 215.354C144.881 214.767 144.273 213.912 143.851 212.79C143.43 211.668 143.219 210.316 143.219 208.734C143.219 207.158 143.43 205.811 143.851 204.693C144.277 203.576 144.888 202.723 145.684 202.136C146.484 201.549 147.44 201.256 148.553 201.256C149.666 201.256 150.62 201.552 151.415 202.143C152.211 202.731 152.819 203.583 153.24 204.7C153.667 205.813 153.88 207.158 153.88 208.734C153.88 210.321 153.669 211.675 153.248 212.797C152.826 213.914 152.218 214.769 151.422 215.361C150.627 215.948 149.67 216.241 148.553 216.241ZM148.553 214.345C149.538 214.345 150.307 213.865 150.861 212.903C151.42 211.942 151.699 210.553 151.699 208.734C151.699 207.527 151.571 206.507 151.316 205.673C151.065 204.835 150.703 204.201 150.229 203.77C149.76 203.334 149.202 203.116 148.553 203.116C147.573 203.116 146.803 203.599 146.245 204.565C145.686 205.531 145.404 206.921 145.4 208.734C145.4 209.946 145.525 210.972 145.776 211.81C146.032 212.643 146.394 213.275 146.863 213.706C147.331 214.132 147.895 214.345 148.553 214.345Z" fill="black"/>
<rect x="56" y="237" width="396" height="50" fill="#226752"/>
<rect x="56" y="291" width="65" height="50" fill="#6F6F6B"/>
<rect x="255" y="361.5" width="12" height="12" fill="#226752"/>
<path d="M274.081 362.818V373H272.848V362.818H274.081ZM277.567 368.406V373H276.394V365.364H277.528V366.557H277.627C277.806 366.169 278.078 365.857 278.442 365.622C278.807 365.384 279.278 365.264 279.854 365.264C280.371 365.264 280.824 365.37 281.212 365.582C281.599 365.791 281.901 366.109 282.116 366.537C282.332 366.961 282.44 367.498 282.44 368.148V373H281.266V368.227C281.266 367.627 281.111 367.16 280.799 366.825C280.487 366.487 280.06 366.318 279.516 366.318C279.142 366.318 278.807 366.399 278.512 366.562C278.22 366.724 277.99 366.961 277.821 367.273C277.652 367.584 277.567 367.962 277.567 368.406ZM287.686 373.159C286.97 373.159 286.354 372.99 285.836 372.652C285.319 372.314 284.922 371.848 284.643 371.255C284.365 370.662 284.226 369.984 284.226 369.222C284.226 368.446 284.368 367.762 284.653 367.168C284.942 366.572 285.343 366.106 285.856 365.771C286.373 365.433 286.977 365.264 287.666 365.264C288.203 365.264 288.687 365.364 289.118 365.562C289.549 365.761 289.902 366.04 290.177 366.398C290.452 366.756 290.622 367.173 290.689 367.651H289.515C289.426 367.303 289.227 366.994 288.919 366.726C288.614 366.454 288.203 366.318 287.686 366.318C287.229 366.318 286.827 366.437 286.483 366.676C286.141 366.911 285.875 367.245 285.682 367.675C285.493 368.103 285.399 368.605 285.399 369.182C285.399 369.772 285.492 370.286 285.677 370.723C285.866 371.161 286.131 371.5 286.473 371.742C286.818 371.984 287.222 372.105 287.686 372.105C287.991 372.105 288.268 372.052 288.516 371.946C288.765 371.84 288.975 371.688 289.148 371.489C289.32 371.29 289.443 371.051 289.515 370.773H290.689C290.622 371.223 290.458 371.629 290.197 371.991C289.938 372.349 289.595 372.634 289.167 372.846C288.743 373.055 288.249 373.159 287.686 373.159ZM295.506 373.159C294.817 373.159 294.212 372.995 293.692 372.667C293.175 372.339 292.77 371.88 292.479 371.29C292.19 370.7 292.046 370.01 292.046 369.222C292.046 368.426 292.19 367.732 292.479 367.138C292.77 366.545 293.175 366.085 293.692 365.756C294.212 365.428 294.817 365.264 295.506 365.264C296.196 365.264 296.799 365.428 297.316 365.756C297.836 366.085 298.241 366.545 298.529 367.138C298.821 367.732 298.966 368.426 298.966 369.222C298.966 370.01 298.821 370.7 298.529 371.29C298.241 371.88 297.836 372.339 297.316 372.667C296.799 372.995 296.196 373.159 295.506 373.159ZM295.506 372.105C296.03 372.105 296.461 371.971 296.799 371.702C297.137 371.434 297.387 371.081 297.55 370.643C297.712 370.206 297.793 369.732 297.793 369.222C297.793 368.711 297.712 368.236 297.55 367.795C297.387 367.354 297.137 366.998 296.799 366.726C296.461 366.454 296.03 366.318 295.506 366.318C294.983 366.318 294.552 366.454 294.214 366.726C293.876 366.998 293.625 367.354 293.463 367.795C293.3 368.236 293.219 368.711 293.219 369.222C293.219 369.732 293.3 370.206 293.463 370.643C293.625 371.081 293.876 371.434 294.214 371.702C294.552 371.971 294.983 372.105 295.506 372.105ZM300.757 373V365.364H301.891V366.557H301.99C302.15 366.149 302.406 365.833 302.761 365.607C303.116 365.379 303.542 365.264 304.039 365.264C304.542 365.264 304.962 365.379 305.297 365.607C305.635 365.833 305.898 366.149 306.087 366.557H306.167C306.362 366.162 306.655 365.849 307.047 365.617C307.438 365.382 307.907 365.264 308.453 365.264C309.136 365.264 309.695 365.478 310.129 365.906C310.563 366.33 310.78 366.991 310.78 367.889V373H309.607V367.889C309.607 367.326 309.453 366.923 309.145 366.681C308.836 366.439 308.473 366.318 308.056 366.318C307.519 366.318 307.103 366.481 306.808 366.805C306.513 367.127 306.365 367.535 306.365 368.028V373H305.172V367.77C305.172 367.336 305.031 366.986 304.75 366.721C304.468 366.452 304.105 366.318 303.661 366.318C303.356 366.318 303.071 366.399 302.806 366.562C302.544 366.724 302.332 366.95 302.169 367.238C302.01 367.523 301.931 367.853 301.931 368.227V373H300.757ZM316.127 373.159C315.391 373.159 314.757 372.997 314.223 372.672C313.693 372.344 313.283 371.886 312.995 371.3C312.71 370.71 312.567 370.024 312.567 369.241C312.567 368.459 312.71 367.77 312.995 367.173C313.283 366.573 313.684 366.106 314.198 365.771C314.715 365.433 315.318 365.264 316.008 365.264C316.406 365.264 316.798 365.33 317.186 365.463C317.574 365.596 317.927 365.811 318.245 366.109C318.563 366.404 318.817 366.795 319.006 367.283C319.195 367.77 319.289 368.37 319.289 369.082V369.58H313.403V368.565H318.096C318.096 368.134 318.01 367.75 317.837 367.412C317.668 367.074 317.426 366.807 317.112 366.612C316.8 366.416 316.432 366.318 316.008 366.318C315.54 366.318 315.136 366.434 314.795 366.666C314.457 366.895 314.196 367.193 314.014 367.561C313.832 367.929 313.741 368.323 313.741 368.744V369.42C313.741 369.997 313.84 370.486 314.039 370.887C314.241 371.285 314.521 371.588 314.879 371.797C315.237 372.002 315.653 372.105 316.127 372.105C316.435 372.105 316.714 372.062 316.962 371.976C317.214 371.886 317.431 371.754 317.614 371.578C317.796 371.399 317.937 371.177 318.036 370.912L319.17 371.23C319.05 371.615 318.85 371.953 318.568 372.244C318.286 372.533 317.938 372.758 317.524 372.92C317.11 373.08 316.644 373.159 316.127 373.159Z" fill="black"/>
<rect x="336" y="361.5" width="12" height="12" fill="#6F6F6B"/>
<path d="M353.659 373V362.818H359.804V363.912H354.892V367.352H359.485V368.446H354.892V371.906H359.883V373H353.659ZM362.742 365.364L364.571 368.486L366.401 365.364H367.753L365.287 369.182L367.753 373H366.401L364.571 370.037L362.742 373H361.39L363.816 369.182L361.39 365.364H362.742ZM369.427 375.864V365.364H370.561V366.577H370.7C370.786 366.444 370.906 366.275 371.058 366.07C371.214 365.861 371.436 365.675 371.724 365.513C372.016 365.347 372.41 365.264 372.907 365.264C373.55 365.264 374.117 365.425 374.608 365.746C375.098 366.068 375.481 366.524 375.756 367.114C376.031 367.704 376.169 368.4 376.169 369.202C376.169 370.01 376.031 370.711 375.756 371.305C375.481 371.895 375.1 372.352 374.613 372.677C374.126 372.998 373.564 373.159 372.927 373.159C372.437 373.159 372.044 373.078 371.749 372.915C371.454 372.75 371.227 372.562 371.068 372.354C370.909 372.142 370.786 371.966 370.7 371.827H370.601V375.864H369.427ZM370.581 369.182C370.581 369.759 370.665 370.267 370.834 370.708C371.003 371.146 371.25 371.489 371.575 371.737C371.9 371.982 372.298 372.105 372.768 372.105C373.259 372.105 373.668 371.976 373.996 371.717C374.328 371.455 374.576 371.104 374.742 370.663C374.911 370.219 374.996 369.725 374.996 369.182C374.996 368.645 374.913 368.161 374.747 367.73C374.585 367.296 374.338 366.953 374.006 366.701C373.678 366.446 373.265 366.318 372.768 366.318C372.291 366.318 371.89 366.439 371.565 366.681C371.24 366.92 370.995 367.254 370.829 367.685C370.664 368.113 370.581 368.612 370.581 369.182ZM381.16 373.159C380.425 373.159 379.79 372.997 379.256 372.672C378.726 372.344 378.317 371.886 378.028 371.3C377.743 370.71 377.601 370.024 377.601 369.241C377.601 368.459 377.743 367.77 378.028 367.173C378.317 366.573 378.718 366.106 379.231 365.771C379.748 365.433 380.352 365.264 381.041 365.264C381.439 365.264 381.831 365.33 382.219 365.463C382.607 365.596 382.96 365.811 383.278 366.109C383.596 366.404 383.85 366.795 384.039 367.283C384.228 367.77 384.322 368.37 384.322 369.082V369.58H378.436V368.565H383.129C383.129 368.134 383.043 367.75 382.871 367.412C382.702 367.074 382.46 366.807 382.145 366.612C381.833 366.416 381.465 366.318 381.041 366.318C380.574 366.318 380.169 366.434 379.828 366.666C379.49 366.895 379.23 367.193 379.047 367.561C378.865 367.929 378.774 368.323 378.774 368.744V369.42C378.774 369.997 378.873 370.486 379.072 370.887C379.274 371.285 379.555 371.588 379.912 371.797C380.27 372.002 380.686 372.105 381.16 372.105C381.469 372.105 381.747 372.062 381.996 371.976C382.247 371.886 382.465 371.754 382.647 371.578C382.829 371.399 382.97 371.177 383.069 370.912L384.203 371.23C384.084 371.615 383.883 371.953 383.601 372.244C383.32 372.533 382.972 372.758 382.557 372.92C382.143 373.08 381.677 373.159 381.16 373.159ZM387.28 368.406V373H386.107V365.364H387.241V366.557H387.34C387.519 366.169 387.791 365.857 388.155 365.622C388.52 365.384 388.991 365.264 389.567 365.264C390.084 365.264 390.537 365.37 390.925 365.582C391.312 365.791 391.614 366.109 391.829 366.537C392.045 366.961 392.153 367.498 392.153 368.148V373H390.979V368.227C390.979 367.627 390.823 367.16 390.512 366.825C390.2 366.487 389.773 366.318 389.229 366.318C388.855 366.318 388.52 366.399 388.225 366.562C387.933 366.724 387.703 366.961 387.534 367.273C387.365 367.584 387.28 367.962 387.28 368.406ZM399.706 367.074L398.652 367.372C398.585 367.196 398.488 367.026 398.358 366.86C398.232 366.691 398.06 366.552 397.841 366.442C397.623 366.333 397.342 366.278 397.001 366.278C396.534 366.278 396.144 366.386 395.833 366.602C395.525 366.814 395.37 367.084 395.37 367.412C395.37 367.704 395.476 367.934 395.689 368.103C395.901 368.272 396.232 368.413 396.683 368.526L397.816 368.804C398.499 368.97 399.008 369.223 399.343 369.565C399.677 369.903 399.845 370.339 399.845 370.872C399.845 371.31 399.719 371.701 399.467 372.045C399.218 372.39 398.87 372.662 398.423 372.861C397.975 373.06 397.455 373.159 396.862 373.159C396.083 373.159 395.438 372.99 394.928 372.652C394.417 372.314 394.094 371.82 393.958 371.17L395.072 370.892C395.178 371.303 395.379 371.611 395.674 371.817C395.972 372.022 396.361 372.125 396.842 372.125C397.389 372.125 397.823 372.009 398.145 371.777C398.469 371.542 398.632 371.26 398.632 370.932C398.632 370.667 398.539 370.445 398.353 370.266C398.168 370.083 397.883 369.947 397.498 369.858L396.225 369.56C395.526 369.394 395.012 369.137 394.684 368.789C394.359 368.438 394.197 367.999 394.197 367.472C394.197 367.041 394.318 366.66 394.56 366.328C394.805 365.997 395.138 365.737 395.559 365.548C395.984 365.359 396.464 365.264 397.001 365.264C397.757 365.264 398.35 365.43 398.781 365.761C399.215 366.093 399.523 366.53 399.706 367.074ZM404.813 373.159C404.077 373.159 403.442 372.997 402.909 372.672C402.378 372.344 401.969 371.886 401.681 371.3C401.396 370.71 401.253 370.024 401.253 369.241C401.253 368.459 401.396 367.77 401.681 367.173C401.969 366.573 402.37 366.106 402.884 365.771C403.401 365.433 404.004 365.264 404.693 365.264C405.091 365.264 405.484 365.33 405.872 365.463C406.259 365.596 406.612 365.811 406.931 366.109C407.249 366.404 407.502 366.795 407.691 367.283C407.88 367.77 407.975 368.37 407.975 369.082V369.58H402.088V368.565H406.781C406.781 368.134 406.695 367.75 406.523 367.412C406.354 367.074 406.112 366.807 405.797 366.612C405.485 366.416 405.118 366.318 404.693 366.318C404.226 366.318 403.822 366.434 403.48 366.666C403.142 366.895 402.882 367.193 402.7 367.561C402.517 367.929 402.426 368.323 402.426 368.744V369.42C402.426 369.997 402.526 370.486 402.725 370.887C402.927 371.285 403.207 371.588 403.565 371.797C403.923 372.002 404.339 372.105 404.813 372.105C405.121 372.105 405.399 372.062 405.648 371.976C405.9 371.886 406.117 371.754 406.299 371.578C406.481 371.399 406.622 371.177 406.722 370.912L407.855 371.23C407.736 371.615 407.535 371.953 407.254 372.244C406.972 372.533 406.624 372.758 406.21 372.92C405.795 373.08 405.33 373.159 404.813 373.159ZM415.169 367.074L414.115 367.372C414.048 367.196 413.95 367.026 413.821 366.86C413.695 366.691 413.523 366.552 413.304 366.442C413.085 366.333 412.805 366.278 412.464 366.278C411.997 366.278 411.607 366.386 411.296 366.602C410.987 366.814 410.833 367.084 410.833 367.412C410.833 367.704 410.939 367.934 411.151 368.103C411.364 368.272 411.695 368.413 412.146 368.526L413.279 368.804C413.962 368.97 414.471 369.223 414.806 369.565C415.14 369.903 415.308 370.339 415.308 370.872C415.308 371.31 415.182 371.701 414.93 372.045C414.681 372.39 414.333 372.662 413.886 372.861C413.438 373.06 412.918 373.159 412.325 373.159C411.546 373.159 410.901 372.99 410.391 372.652C409.88 372.314 409.557 371.82 409.421 371.17L410.535 370.892C410.641 371.303 410.842 371.611 411.137 371.817C411.435 372.022 411.824 372.125 412.305 372.125C412.852 372.125 413.286 372.009 413.607 371.777C413.932 371.542 414.095 371.26 414.095 370.932C414.095 370.667 414.002 370.445 413.816 370.266C413.631 370.083 413.346 369.947 412.961 369.858L411.688 369.56C410.989 369.394 410.475 369.137 410.147 368.789C409.822 368.438 409.66 367.999 409.66 367.472C409.66 367.041 409.781 366.66 410.023 366.328C410.268 365.997 410.601 365.737 411.022 365.548C411.446 365.359 411.927 365.264 412.464 365.264C413.22 365.264 413.813 365.43 414.244 365.761C414.678 366.093 414.986 366.53 415.169 367.074Z" fill="black"/>
<rect x="24.5" y="94.5" width="613" height="297" rx="7.5" stroke="#E1E1DD"/>
<path d="M51.3864 48.1818C51.3864 49.4242 51.1591 50.4924 50.7045 51.3864C50.25 52.2765 49.6269 52.9621 48.8352 53.4432C48.0473 53.9205 47.1515 54.1591 46.1477 54.1591C45.1402 54.1591 44.2405 53.9205 43.4489 53.4432C42.661 52.9621 42.0398 52.2746 41.5852 51.3807C41.1307 50.4867 40.9034 49.4205 40.9034 48.1818C40.9034 46.9394 41.1307 45.8731 41.5852 44.983C42.0398 44.089 42.661 43.4034 43.4489 42.9261C44.2405 42.4451 45.1402 42.2045 46.1477 42.2045C47.1515 42.2045 48.0473 42.4451 48.8352 42.9261C49.6269 43.4034 50.25 44.089 50.7045 44.983C51.1591 45.8731 51.3864 46.9394 51.3864 48.1818ZM49.6477 48.1818C49.6477 47.2348 49.4943 46.4375 49.1875 45.7898C48.8845 45.1383 48.4678 44.6458 47.9375 44.3125C47.411 43.9754 46.8144 43.8068 46.1477 43.8068C45.4773 43.8068 44.8788 43.9754 44.3523 44.3125C43.8258 44.6458 43.4091 45.1383 43.1023 45.7898C42.7992 46.4375 42.6477 47.2348 42.6477 48.1818C42.6477 49.1288 42.7992 49.928 43.1023 50.5795C43.4091 51.2273 43.8258 51.7197 44.3523 52.0568C44.8788 52.3902 45.4773 52.5568 46.1477 52.5568C46.8144 52.5568 47.411 52.3902 47.9375 52.0568C48.4678 51.7197 48.8845 51.2273 49.1875 50.5795C49.4943 49.928 49.6477 49.1288 49.6477 48.1818ZM60.9048 45.2727L57.7401 54H55.9219L52.7514 45.2727H54.5753L56.7855 51.9886H56.8764L59.081 45.2727H60.9048ZM65.9659 54.1761C65.1061 54.1761 64.3655 53.9924 63.7443 53.625C63.1269 53.2538 62.6496 52.733 62.3125 52.0625C61.9792 51.3883 61.8125 50.5985 61.8125 49.6932C61.8125 48.7992 61.9792 48.0114 62.3125 47.3295C62.6496 46.6477 63.1193 46.1155 63.7216 45.733C64.3277 45.3504 65.036 45.1591 65.8466 45.1591C66.339 45.1591 66.8163 45.2405 67.2784 45.4034C67.7405 45.5663 68.1553 45.822 68.5227 46.1705C68.8902 46.5189 69.1799 46.9716 69.392 47.5284C69.6042 48.0814 69.7102 48.7538 69.7102 49.5455V50.1477H62.7727V48.875H68.0455C68.0455 48.428 67.9545 48.0322 67.7727 47.6875C67.5909 47.339 67.3352 47.0644 67.0057 46.8636C66.6799 46.6629 66.2973 46.5625 65.858 46.5625C65.3807 46.5625 64.964 46.6799 64.608 46.9148C64.2557 47.1458 63.983 47.4489 63.7898 47.8239C63.6004 48.1951 63.5057 48.5985 63.5057 49.0341V50.0284C63.5057 50.6117 63.608 51.108 63.8125 51.517C64.0208 51.9261 64.3106 52.2386 64.6818 52.4545C65.053 52.6667 65.4867 52.7727 65.983 52.7727C66.3049 52.7727 66.5985 52.7273 66.8636 52.6364C67.1288 52.5417 67.358 52.4015 67.5511 52.2159C67.7443 52.0303 67.892 51.8011 67.9943 51.5284L69.6023 51.8182C69.4735 52.2917 69.2424 52.7064 68.9091 53.0625C68.5795 53.4148 68.1648 53.6894 67.6648 53.8864C67.1686 54.0795 66.6023 54.1761 65.9659 54.1761ZM71.5952 54V45.2727H73.2372V46.6591H73.3281C73.4872 46.1894 73.7675 45.8201 74.169 45.5511C74.5743 45.2784 75.0327 45.142 75.544 45.142C75.6501 45.142 75.7751 45.1458 75.919 45.1534C76.0668 45.161 76.1823 45.1705 76.2656 45.1818V46.8068C76.1974 46.7879 76.0762 46.767 75.902 46.7443C75.7277 46.7178 75.5535 46.7045 75.3793 46.7045C74.9777 46.7045 74.6198 46.7898 74.3054 46.9602C73.9948 47.1269 73.7486 47.3598 73.5668 47.6591C73.3849 47.9545 73.294 48.2917 73.294 48.6705V54H71.5952ZM85.4673 45.2727L82.3026 54H80.4844L77.3139 45.2727H79.1378L81.348 51.9886H81.4389L83.6435 45.2727H85.4673ZM87.0639 54V45.2727H88.7628V54H87.0639ZM87.9219 43.9261C87.6264 43.9261 87.3726 43.8277 87.1605 43.6307C86.9522 43.4299 86.848 43.1913 86.848 42.9148C86.848 42.6345 86.9522 42.3958 87.1605 42.1989C87.3726 41.9981 87.6264 41.8977 87.9219 41.8977C88.2173 41.8977 88.4692 41.9981 88.6776 42.1989C88.8897 42.3958 88.9957 42.6345 88.9957 42.9148C88.9957 43.1913 88.8897 43.4299 88.6776 43.6307C88.4692 43.8277 88.2173 43.9261 87.9219 43.9261ZM94.8097 54.1761C93.9498 54.1761 93.2093 53.9924 92.5881 53.625C91.9706 53.2538 91.4934 52.733 91.1562 52.0625C90.8229 51.3883 90.6562 50.5985 90.6562 49.6932C90.6562 48.7992 90.8229 48.0114 91.1562 47.3295C91.4934 46.6477 91.9631 46.1155 92.5653 45.733C93.1714 45.3504 93.8797 45.1591 94.6903 45.1591C95.1828 45.1591 95.66 45.2405 96.1222 45.4034C96.5843 45.5663 96.9991 45.822 97.3665 46.1705C97.7339 46.5189 98.0237 46.9716 98.2358 47.5284C98.4479 48.0814 98.554 48.7538 98.554 49.5455V50.1477H91.6165V48.875H96.8892C96.8892 48.428 96.7983 48.0322 96.6165 47.6875C96.4347 47.339 96.179 47.0644 95.8494 46.8636C95.5237 46.6629 95.1411 46.5625 94.7017 46.5625C94.2244 46.5625 93.8078 46.6799 93.4517 46.9148C93.0994 47.1458 92.8267 47.4489 92.6335 47.8239C92.4441 48.1951 92.3494 48.5985 92.3494 49.0341V50.0284C92.3494 50.6117 92.4517 51.108 92.6562 51.517C92.8646 51.9261 93.1544 52.2386 93.5256 52.4545C93.8968 52.6667 94.3305 52.7727 94.8267 52.7727C95.1487 52.7727 95.4422 52.7273 95.7074 52.6364C95.9725 52.5417 96.2017 52.4015 96.3949 52.2159C96.5881 52.0303 96.7358 51.8011 96.8381 51.5284L98.446 51.8182C98.3172 52.2917 98.0862 52.7064 97.7528 53.0625C97.4233 53.4148 97.0085 53.6894 96.5085 53.8864C96.0123 54.0795 95.446 54.1761 94.8097 54.1761ZM102.315 54L99.7472 45.2727H101.503L103.213 51.6818H103.298L105.014 45.2727H106.77L108.474 51.6534H108.56L110.259 45.2727H112.014L109.452 54H107.719L105.946 47.6989H105.815L104.043 54H102.315Z" fill="#226752"/>
<path d="M129 70H24V74H129V70Z" fill="#226752" mask="url(#path-16-inside-2_1839_2864)"/>
<path d="M146.409 53.5V41.8636H150.341C151.254 41.8636 152 42.0284 152.58 42.358C153.163 42.6837 153.595 43.125 153.875 43.6818C154.155 44.2386 154.295 44.8598 154.295 45.5455C154.295 46.2311 154.155 46.8542 153.875 47.4148C153.598 47.9754 153.17 48.4223 152.591 48.7557C152.011 49.0852 151.269 49.25 150.364 49.25H147.545V48H150.318C150.943 48 151.445 47.892 151.824 47.6761C152.203 47.4602 152.477 47.1686 152.648 46.8011C152.822 46.4299 152.909 46.0114 152.909 45.5455C152.909 45.0795 152.822 44.6629 152.648 44.2955C152.477 43.928 152.201 43.6402 151.818 43.4318C151.436 43.2197 150.928 43.1136 150.295 43.1136H147.818V53.5H146.409ZM156.384 53.5V44.7727H157.679V46.0909H157.77C157.929 45.6591 158.217 45.3087 158.634 45.0398C159.05 44.7708 159.52 44.6364 160.043 44.6364C160.141 44.6364 160.264 44.6383 160.412 44.642C160.56 44.6458 160.671 44.6515 160.747 44.6591V46.0227C160.702 46.0114 160.598 45.9943 160.435 45.9716C160.276 45.9451 160.107 45.9318 159.929 45.9318C159.505 45.9318 159.126 46.0208 158.793 46.1989C158.463 46.3731 158.202 46.6155 158.009 46.9261C157.819 47.233 157.724 47.5833 157.724 47.9773V53.5H156.384ZM165.616 53.6818C164.829 53.6818 164.137 53.4943 163.543 53.1193C162.952 52.7443 162.49 52.2197 162.156 51.5455C161.827 50.8712 161.662 50.0833 161.662 49.1818C161.662 48.2727 161.827 47.4792 162.156 46.8011C162.49 46.1231 162.952 45.5966 163.543 45.2216C164.137 44.8466 164.829 44.6591 165.616 44.6591C166.404 44.6591 167.094 44.8466 167.685 45.2216C168.279 45.5966 168.741 46.1231 169.071 46.8011C169.404 47.4792 169.571 48.2727 169.571 49.1818C169.571 50.0833 169.404 50.8712 169.071 51.5455C168.741 52.2197 168.279 52.7443 167.685 53.1193C167.094 53.4943 166.404 53.6818 165.616 53.6818ZM165.616 52.4773C166.215 52.4773 166.707 52.3239 167.094 52.017C167.48 51.7102 167.766 51.3068 167.952 50.8068C168.137 50.3068 168.23 49.7652 168.23 49.1818C168.23 48.5985 168.137 48.0549 167.952 47.5511C167.766 47.0473 167.48 46.6402 167.094 46.3295C166.707 46.0189 166.215 45.8636 165.616 45.8636C165.018 45.8636 164.526 46.0189 164.139 46.3295C163.753 46.6402 163.467 47.0473 163.281 47.5511C163.096 48.0549 163.003 48.5985 163.003 49.1818C163.003 49.7652 163.096 50.3068 163.281 50.8068C163.467 51.3068 163.753 51.7102 164.139 52.017C164.526 52.3239 165.018 52.4773 165.616 52.4773ZM175.504 44.7727V45.9091H170.8V44.7727H175.504ZM172.209 53.5V43.5682C172.209 43.0682 172.326 42.6515 172.561 42.3182C172.796 41.9848 173.101 41.7348 173.476 41.5682C173.851 41.4015 174.247 41.3182 174.663 41.3182C174.993 41.3182 175.262 41.3447 175.47 41.3977C175.679 41.4508 175.834 41.5 175.936 41.5455L175.55 42.7045C175.482 42.6818 175.387 42.6534 175.266 42.6193C175.148 42.5852 174.993 42.5682 174.8 42.5682C174.357 42.5682 174.036 42.6799 173.839 42.9034C173.646 43.1269 173.55 43.4545 173.55 43.8864V53.5H172.209ZM177.384 53.5V44.7727H178.724V53.5H177.384ZM178.065 43.3182C177.804 43.3182 177.579 43.2292 177.389 43.0511C177.204 42.8731 177.111 42.6591 177.111 42.4091C177.111 42.1591 177.204 41.9451 177.389 41.767C177.579 41.589 177.804 41.5 178.065 41.5C178.327 41.5 178.55 41.589 178.736 41.767C178.925 41.9451 179.02 42.1591 179.02 42.4091C179.02 42.6591 178.925 42.8731 178.736 43.0511C178.55 43.2292 178.327 43.3182 178.065 43.3182ZM184.976 44.7727V45.9091H180.453V44.7727H184.976ZM181.771 42.6818H183.112V51C183.112 51.3788 183.167 51.6629 183.277 51.8523C183.391 52.0379 183.535 52.1629 183.709 52.2273C183.887 52.2879 184.074 52.3182 184.271 52.3182C184.419 52.3182 184.54 52.3106 184.635 52.2955C184.73 52.2765 184.805 52.2614 184.862 52.25L185.135 53.4545C185.044 53.4886 184.917 53.5227 184.754 53.5568C184.591 53.5947 184.385 53.6136 184.135 53.6136C183.756 53.6136 183.385 53.5322 183.021 53.3693C182.661 53.2064 182.362 52.9583 182.124 52.625C181.889 52.2917 181.771 51.8712 181.771 51.3636V42.6818ZM194.061 53.7045C193.508 53.7045 193.006 53.6004 192.555 53.392C192.105 53.1799 191.747 52.875 191.482 52.4773C191.216 52.0758 191.084 51.5909 191.084 51.0227C191.084 50.5227 191.182 50.1174 191.379 49.8068C191.576 49.4924 191.839 49.2462 192.169 49.0682C192.499 48.8902 192.862 48.7576 193.26 48.6705C193.661 48.5795 194.065 48.5076 194.47 48.4545C195 48.3864 195.43 48.3352 195.76 48.3011C196.093 48.2633 196.336 48.2008 196.487 48.1136C196.643 48.0265 196.72 47.875 196.72 47.6591V47.6136C196.72 47.053 196.567 46.6174 196.26 46.3068C195.957 45.9962 195.497 45.8409 194.879 45.8409C194.239 45.8409 193.737 45.9811 193.374 46.2614C193.01 46.5417 192.754 46.8409 192.607 47.1591L191.334 46.7045C191.561 46.1742 191.864 45.7614 192.243 45.4659C192.625 45.1667 193.042 44.9583 193.493 44.8409C193.947 44.7197 194.394 44.6591 194.834 44.6591C195.114 44.6591 195.436 44.6932 195.8 44.7614C196.167 44.8258 196.521 44.9602 196.862 45.1648C197.207 45.3693 197.493 45.678 197.72 46.0909C197.947 46.5038 198.061 47.0568 198.061 47.75V53.5H196.72V52.3182H196.652C196.561 52.5076 196.41 52.7102 196.197 52.9261C195.985 53.142 195.703 53.3258 195.351 53.4773C194.999 53.6288 194.569 53.7045 194.061 53.7045ZM194.266 52.5C194.796 52.5 195.243 52.3958 195.607 52.1875C195.974 51.9792 196.25 51.7102 196.436 51.3807C196.625 51.0511 196.72 50.7045 196.72 50.3409V49.1136C196.663 49.1818 196.538 49.2443 196.345 49.3011C196.156 49.3542 195.936 49.4015 195.686 49.4432C195.44 49.4811 195.199 49.5152 194.964 49.5455C194.733 49.572 194.546 49.5947 194.402 49.6136C194.054 49.6591 193.728 49.733 193.425 49.8352C193.125 49.9337 192.883 50.0833 192.697 50.2841C192.516 50.4811 192.425 50.75 192.425 51.0909C192.425 51.5568 192.597 51.9091 192.942 52.1477C193.29 52.3826 193.732 52.5 194.266 52.5ZM201.849 48.25V53.5H200.509V44.7727H201.804V46.1364H201.918C202.122 45.6932 202.433 45.3371 202.849 45.0682C203.266 44.7955 203.804 44.6591 204.463 44.6591C205.054 44.6591 205.571 44.7803 206.014 45.0227C206.457 45.2614 206.802 45.625 207.048 46.1136C207.295 46.5985 207.418 47.2121 207.418 47.9545V53.5H206.077V48.0455C206.077 47.3598 205.899 46.8258 205.543 46.4432C205.187 46.0568 204.698 45.8636 204.077 45.8636C203.649 45.8636 203.266 45.9564 202.929 46.142C202.596 46.3277 202.332 46.5985 202.139 46.9545C201.946 47.3106 201.849 47.7424 201.849 48.25ZM213.163 53.6818C212.436 53.6818 211.794 53.4981 211.237 53.1307C210.68 52.7595 210.245 52.2367 209.93 51.5625C209.616 50.8845 209.459 50.0833 209.459 49.1591C209.459 48.2424 209.616 47.447 209.93 46.7727C210.245 46.0985 210.682 45.5777 211.243 45.2102C211.804 44.8428 212.451 44.6591 213.186 44.6591C213.754 44.6591 214.203 44.7538 214.533 44.9432C214.866 45.1288 215.12 45.3409 215.294 45.5795C215.472 45.8144 215.61 46.0076 215.709 46.1591H215.822V41.8636H217.163V53.5H215.868V52.1591H215.709C215.61 52.3182 215.47 52.5189 215.288 52.7614C215.107 53 214.847 53.214 214.51 53.4034C214.173 53.589 213.724 53.6818 213.163 53.6818ZM213.345 52.4773C213.883 52.4773 214.338 52.3371 214.709 52.0568C215.08 51.7727 215.362 51.3807 215.555 50.8807C215.749 50.3769 215.845 49.7955 215.845 49.1364C215.845 48.4848 215.75 47.9148 215.561 47.4261C215.372 46.9337 215.091 46.5511 214.72 46.2784C214.349 46.0019 213.891 45.8636 213.345 45.8636C212.777 45.8636 212.304 46.0095 211.925 46.3011C211.55 46.589 211.268 46.9811 211.078 47.4773C210.893 47.9697 210.8 48.5227 210.8 49.1364C210.8 49.7576 210.894 50.322 211.084 50.8295C211.277 51.3333 211.561 51.7348 211.936 52.0341C212.315 52.3295 212.785 52.4773 213.345 52.4773ZM224.487 53.5V41.8636H225.896V52.25H231.305V53.5H224.487ZM236.851 53.6818C236.063 53.6818 235.372 53.4943 234.777 53.1193C234.186 52.7443 233.724 52.2197 233.391 51.5455C233.061 50.8712 232.896 50.0833 232.896 49.1818C232.896 48.2727 233.061 47.4792 233.391 46.8011C233.724 46.1231 234.186 45.5966 234.777 45.2216C235.372 44.8466 236.063 44.6591 236.851 44.6591C237.639 44.6591 238.328 44.8466 238.919 45.2216C239.514 45.5966 239.976 46.1231 240.305 46.8011C240.639 47.4792 240.805 48.2727 240.805 49.1818C240.805 50.0833 240.639 50.8712 240.305 51.5455C239.976 52.2197 239.514 52.7443 238.919 53.1193C238.328 53.4943 237.639 53.6818 236.851 53.6818ZM236.851 52.4773C237.449 52.4773 237.942 52.3239 238.328 52.017C238.714 51.7102 239 51.3068 239.186 50.8068C239.372 50.3068 239.464 49.7652 239.464 49.1818C239.464 48.5985 239.372 48.0549 239.186 47.5511C239 47.0473 238.714 46.6402 238.328 46.3295C237.942 46.0189 237.449 45.8636 236.851 45.8636C236.252 45.8636 235.76 46.0189 235.374 46.3295C234.987 46.6402 234.701 47.0473 234.516 47.5511C234.33 48.0549 234.237 48.5985 234.237 49.1818C234.237 49.7652 234.33 50.3068 234.516 50.8068C234.701 51.3068 234.987 51.7102 235.374 52.017C235.76 52.3239 236.252 52.4773 236.851 52.4773ZM249.034 46.7273L247.83 47.0682C247.754 46.8674 247.642 46.6723 247.494 46.483C247.35 46.2898 247.153 46.1307 246.903 46.0057C246.653 45.8807 246.333 45.8182 245.943 45.8182C245.409 45.8182 244.964 45.9413 244.608 46.1875C244.256 46.4299 244.08 46.7386 244.08 47.1136C244.08 47.447 244.201 47.7102 244.443 47.9034C244.686 48.0966 245.064 48.2576 245.58 48.3864L246.875 48.7045C247.655 48.8939 248.237 49.1837 248.619 49.5739C249.002 49.9602 249.193 50.4583 249.193 51.0682C249.193 51.5682 249.049 52.0152 248.761 52.4091C248.477 52.803 248.08 53.1136 247.568 53.3409C247.057 53.5682 246.462 53.6818 245.784 53.6818C244.894 53.6818 244.157 53.4886 243.574 53.1023C242.991 52.7159 242.621 52.1515 242.466 51.4091L243.739 51.0909C243.86 51.5606 244.089 51.9129 244.426 52.1477C244.767 52.3826 245.212 52.5 245.761 52.5C246.386 52.5 246.883 52.3674 247.25 52.1023C247.621 51.8333 247.807 51.5114 247.807 51.1364C247.807 50.8333 247.701 50.5795 247.489 50.375C247.277 50.1667 246.951 50.0114 246.511 49.9091L245.057 49.5682C244.258 49.3788 243.67 49.0852 243.295 48.6875C242.924 48.286 242.739 47.7841 242.739 47.1818C242.739 46.6894 242.877 46.2538 243.153 45.875C243.434 45.4962 243.814 45.1989 244.295 44.983C244.78 44.767 245.33 44.6591 245.943 44.6591C246.807 44.6591 247.485 44.8485 247.977 45.2273C248.473 45.6061 248.826 46.1061 249.034 46.7273ZM257.393 46.7273L256.189 47.0682C256.113 46.8674 256.001 46.6723 255.854 46.483C255.71 46.2898 255.513 46.1307 255.263 46.0057C255.013 45.8807 254.693 45.8182 254.303 45.8182C253.768 45.8182 253.323 45.9413 252.967 46.1875C252.615 46.4299 252.439 46.7386 252.439 47.1136C252.439 47.447 252.56 47.7102 252.803 47.9034C253.045 48.0966 253.424 48.2576 253.939 48.3864L255.234 48.7045C256.015 48.8939 256.596 49.1837 256.979 49.5739C257.361 49.9602 257.553 50.4583 257.553 51.0682C257.553 51.5682 257.409 52.0152 257.121 52.4091C256.837 52.803 256.439 53.1136 255.928 53.3409C255.416 53.5682 254.821 53.6818 254.143 53.6818C253.253 53.6818 252.517 53.4886 251.933 53.1023C251.35 52.7159 250.981 52.1515 250.825 51.4091L252.098 51.0909C252.219 51.5606 252.448 51.9129 252.786 52.1477C253.126 52.3826 253.571 52.5 254.121 52.5C254.746 52.5 255.242 52.3674 255.609 52.1023C255.981 51.8333 256.166 51.5114 256.166 51.1364C256.166 50.8333 256.06 50.5795 255.848 50.375C255.636 50.1667 255.31 50.0114 254.871 49.9091L253.416 49.5682C252.617 49.3788 252.03 49.0852 251.655 48.6875C251.284 48.286 251.098 47.7841 251.098 47.1818C251.098 46.6894 251.236 46.2538 251.513 45.875C251.793 45.4962 252.174 45.1989 252.655 44.983C253.14 44.767 253.689 44.6591 254.303 44.6591C255.166 44.6591 255.844 44.8485 256.337 45.2273C256.833 45.6061 257.185 46.1061 257.393 46.7273Z" fill="#1D1D1D"/>
<path d="M275 71H129V73H275V71Z" fill="#E1E1DD" mask="url(#path-19-inside-3_1839_2864)"/>
<path d="M638 71H24V73H638V71Z" fill="#E1E1DD" mask="url(#path-14-inside-1_1839_2864)"/>
</svg>
