<svg width="103" height="37" viewBox="0 0 103 37" fill="none" xmlns="http://www.w3.org/2000/svg">
<mask id="mask0_1133_4316" style="mask-type:alpha" maskUnits="userSpaceOnUse" x="0" y="0" width="103" height="37">
<path d="M69.5139 26.37C69.5088 26.3751 69.5022 26.3751 69.5022 26.3817C65.151 29.4442 59.9996 32.6605 54.4571 36.0374L54.2385 36.1633C54.1634 36.2141 54.1466 36.3177 54.1976 36.3919C54.2487 36.466 54.3529 36.4833 54.4274 36.4325L54.6113 36.335L70.1467 28.0348C70.1742 28.0174 70.203 28.0021 70.233 27.9891C69.9337 27.4965 69.6865 26.9581 69.518 26.3751L69.5139 26.37ZM98.0618 3.3887C91.2067 -4.1319 47.0903 2.63349 28.3334 6.7041L27.8958 6.79552C27.8746 6.79925 27.8543 6.8071 27.8362 6.81862C27.8181 6.83013 27.8024 6.84509 27.79 6.86263C27.7777 6.88018 27.769 6.89996 27.7643 6.92086C27.7597 6.94177 27.7592 6.96337 27.763 6.98445C27.7668 7.00552 27.7746 7.02566 27.7862 7.0437C27.7978 7.06174 27.8128 7.07734 27.8305 7.0896C27.8661 7.11436 27.9102 7.12404 27.953 7.11649L28.3845 7.03015C43.925 4.27748 76.2469 0.464867 83.2 7.32218C85.3245 9.41716 84.8174 12.1074 82.3538 15.2897C83.6775 16.1368 84.6213 17.4705 85.0472 19.1358C94.6585 12.794 101.111 6.73254 98.0598 3.38413L98.0618 3.3887Z" fill="#D03027"/>
<path d="M72.288 24.3954C72.3748 27.0399 74.0601 29.209 76.2536 29.209C80.5076 29.209 82.3206 24.0119 82.1929 20.5432C82.101 17.8931 80.3749 15.7295 78.1814 15.7295C74.5269 15.7244 72.1614 20.8982 72.288 24.3954ZM70.0435 24.2522C69.8882 19.7361 73.4447 15.117 78.613 15.117C82.0663 15.117 84.3328 17.4065 84.4553 20.9154C84.6223 25.6778 81.2957 30.0506 75.891 30.0506C72.4259 30.0506 70.164 27.7667 70.0435 24.2522ZM21.0943 23.0617C20.9105 23.1303 20.674 23.1988 20.3794 23.2618C20.0857 23.3304 19.5449 23.4223 18.762 23.5483C18.2206 23.6346 17.8468 23.7428 17.6385 23.8972C17.4372 24.046 17.3167 24.2232 17.281 24.4467C17.2401 24.6813 17.3157 24.8647 17.5169 25.0135C17.7243 25.1567 18.0695 25.2308 18.5587 25.2308C18.9225 25.2314 19.284 25.1735 19.6291 25.0592C19.98 24.9449 20.2798 24.79 20.504 24.5955C20.671 24.4523 20.7915 24.2694 20.8839 24.046C20.9416 23.8972 21.0167 23.5711 21.1025 23.0617H21.0943ZM25.5885 20.2857C25.5711 20.692 25.4965 21.0642 25.3872 21.6996L24.6273 25.9403C24.564 26.3182 24.7024 26.6107 25.0532 26.8159L25.0303 26.982L20.6791 26.9769L20.6383 25.9002C19.9823 26.2856 19.2783 26.5839 18.5444 26.7875C17.854 26.9652 17.2953 27.0394 16.4608 27.0394C15.0564 27.0394 14.2505 26.8962 13.6928 26.4096C13.129 25.9119 12.8527 25.5797 12.8757 24.8926C12.8987 24.4975 13.1055 23.9886 13.3997 23.6331C13.6989 23.2776 14.1131 23.0378 14.5564 22.8205C15.0058 22.6087 15.5349 22.4548 16.3004 22.3339C17.0665 22.208 18.142 22.0876 19.5755 21.9683C20.3293 21.9053 20.79 21.7336 21.0029 21.6483C21.3022 21.534 21.4232 21.402 21.4636 21.1617C21.5443 20.7265 21.4059 20.4751 20.8191 20.3603C19.2538 20.0556 16.3127 20.5604 14.799 20.9327L15.6222 18.7234C17.6139 18.4314 19.4897 18.2486 21.4646 18.2486C24.613 18.2486 25.6145 19.1358 25.5798 20.2801L25.5885 20.2857ZM38.2001 26.9769L39.7082 18.4954H43.8754L42.3674 26.9769H38.2001ZM39.9385 16.537C40.0651 15.8387 41.1703 15.2775 42.4021 15.2775C43.6395 15.2775 44.5429 15.8443 44.4224 16.537C44.2896 17.2354 43.1906 17.8067 41.9476 17.8067C40.7158 17.8067 39.818 17.2399 39.939 16.537H39.9385ZM58.6708 23.0785C58.4323 23.1562 58.1903 23.2229 57.9456 23.2786C57.652 23.3466 57.1111 23.433 56.3283 23.5589C55.793 23.6453 55.4131 23.7534 55.2057 23.9078C55.0045 24.051 54.8891 24.2339 54.8482 24.4513C54.7972 24.6859 54.8891 24.8748 55.0842 25.018C55.2972 25.1613 55.6424 25.2298 56.1311 25.2298C56.494 25.2304 56.8549 25.1763 57.2015 25.0693C57.559 24.949 57.8522 24.8002 58.082 24.6056C58.2434 24.4624 58.3639 24.2735 58.4497 24.0561C58.5074 23.9129 58.5825 23.5868 58.6744 23.0775L58.6708 23.0785ZM63.1649 20.2968C63.1476 20.7148 63.073 21.081 62.9576 21.7108L62.2038 25.9576C62.1405 26.3299 62.2789 26.628 62.6297 26.8332L62.6067 26.982L58.2556 26.9871L58.2209 25.9053C57.568 26.2937 56.8652 26.5922 56.1316 26.7925C55.4412 26.9754 54.8825 27.05 54.0368 27.05C52.6323 27.05 51.8326 26.9129 51.279 26.4203C50.7091 25.9165 50.4389 25.5904 50.4619 24.9033C50.4793 24.497 50.6866 23.9931 50.9859 23.6437C51.2851 23.2781 51.6993 23.0485 52.1487 22.8311C52.5981 22.6138 53.1272 22.4655 53.8871 22.3385L57.1678 21.9728C57.916 21.9098 58.3767 21.7443 58.5896 21.6579C58.8945 21.5437 59.0099 21.4116 59.0559 21.1653C59.1309 20.7362 58.9982 20.4848 58.4175 20.3639C56.8405 20.0592 53.9111 20.564 52.3974 20.9363L53.2145 18.727C55.2175 18.435 57.082 18.2521 59.0569 18.2521C62.1936 18.2572 63.1951 19.1511 63.1665 20.2897L63.1649 20.2968ZM12.317 23.9312C10.9586 24.2004 10.1992 24.3035 8.85806 24.3035C6.86635 24.3035 5.28319 23.3192 5.37001 21.5162C5.43334 20.3141 6.86124 17.7844 10.4923 17.7844C11.6378 17.7844 12.5351 17.9845 13.7327 18.6661L14.2622 15.7239C12.628 15.1114 11.5453 15.02 10.1409 15.0312C5.37512 15.082 0.805415 17.2354 0.235478 21.6132C-0.339565 26.0607 5.12233 27.1714 7.54558 27.1714C8.94488 27.1663 10.4055 27.1084 11.7588 26.9713L12.317 23.9312ZM46.1761 18.4543L46.4754 16.7255L50.8316 15.7808L50.3654 18.4482H52.5001L52.0915 20.1536L50.0196 20.1485L48.7613 26.9652C48.7613 26.9652 44.5654 26.9368 44.548 26.9652L45.8028 20.1597H44.2263L44.548 18.4431H46.171L46.1761 18.4543ZM69.4128 15.2658L67.3869 26.9708L63.145 26.9759L65.2797 15.1506L69.4128 15.2658ZM32.6861 20.4858C32.1519 20.4823 31.6317 20.6554 31.2071 20.9779C30.7695 21.31 30.4937 21.7905 30.3839 22.4253C30.2511 23.1638 30.3328 23.696 30.6254 24.0221C30.9247 24.3482 31.3506 24.5147 31.9144 24.5147C32.2944 24.5147 32.6805 24.4462 32.9736 24.303C33.3311 24.114 33.5778 23.9195 33.7907 23.6046C34.0206 23.2786 34.1707 22.9119 34.2514 22.4883C34.3724 21.8179 34.2687 21.3202 33.9577 20.9886C33.6528 20.6564 33.2325 20.4848 32.681 20.4848L32.6861 20.4858ZM25.1007 29.9018L27.1323 18.5457H30.793L30.511 19.9931C30.8277 19.5579 31.3343 19.2034 32.0365 18.9164C32.7443 18.6305 33.5379 18.4187 34.402 18.4187C35.357 18.4187 35.9443 18.4695 36.6583 18.8367C37.3661 19.209 37.8671 19.7468 38.1317 20.4451C38.4074 21.1318 38.4656 21.9104 38.3155 22.7519C38.0678 24.1536 37.383 25.2532 36.2548 26.0658C35.1385 26.8784 34.1304 27.0902 32.6978 27.0968C32.1912 27.0968 31.7653 27.046 31.4145 26.9596C31.0692 26.8682 30.793 26.7595 30.5856 26.6275C30.3844 26.4954 30.1771 26.3075 29.9013 26.0094L29.2221 29.9018H25.1007ZM100.738 21.5279C100.715 20.8474 100.37 20.3832 99.6618 20.3832C97.9525 20.3832 96.138 23.7148 95.8229 25.0536C98.6256 25.0587 100.807 23.3994 100.738 21.5279H100.738ZM101.106 26.7479L101.433 26.9713C100.599 28.66 98.9004 30.0165 96.9097 30.0165C95.2754 30.0165 93.94 28.9348 93.871 26.9083C93.7382 23.274 97.163 19.9027 99.9662 19.9027C101.169 19.9027 102.286 20.4238 102.332 21.7108C102.435 24.6056 98.3544 25.4827 95.6671 25.5452C95.5803 25.8484 95.5461 26.1521 95.5635 26.6097C95.6145 27.8058 96.3295 28.8139 97.8427 28.8139C99.1434 28.8139 100.444 27.7727 101.111 26.7479H101.106Z" fill="#004977"/>
<path d="M84.3925 21.436L85.3475 21.3446C85.6524 21.3446 85.9399 21.402 85.9578 21.7001C85.9629 21.8779 85.6412 23.1653 85.5722 23.4624L84.9216 26.3126L84.1213 29.6666H85.7903L86.7284 25.1506C89.5883 22.1856 90.694 21.2186 91.3676 21.2186C91.6725 21.2186 91.8798 21.3791 91.8972 21.7397C91.9145 22.2608 91.5908 23.4452 91.4769 23.789L90.5219 27.08C90.3033 27.8185 90.1419 28.4878 90.1644 28.9632C90.193 29.6844 90.6306 30.0043 91.2869 30.0043C92.5126 30.0043 93.3935 28.7347 94.1647 27.4975L93.94 27.0912C93.6335 27.5889 92.9032 28.6823 92.3343 28.6823C92.1556 28.6823 91.9835 28.562 91.9768 28.2644C91.9595 27.8809 92.1209 27.303 92.2358 26.9195L93.3006 23.0617C93.5886 21.9972 93.7209 21.3161 93.7091 20.949C93.6805 20.2278 93.2597 19.89 92.6096 19.89C91.5101 19.89 90.0541 20.6915 86.9633 24.2222H86.9123L87.3035 22.4995C87.5164 21.5548 87.7238 20.5706 87.9194 19.889C86.8489 20.2725 85.3179 20.7016 84.3741 20.8845L84.3925 21.436Z" fill="#004977"/>
</mask>
<g mask="url(#mask0_1133_4316)">
<rect x="-18.7969" y="-31.1442" width="140.529" height="98.75" fill="white"/>
</g>
</svg>
