<svg width="110" height="40" viewBox="0 0 110 40" fill="none" xmlns="http://www.w3.org/2000/svg">
<path d="M74.3361 28.671C74.3307 28.6765 74.3237 28.6765 74.3237 28.6835C69.7136 31.9462 64.2557 35.3729 58.3833 38.9706L58.1517 39.1048C58.0722 39.1589 58.0543 39.2693 58.1085 39.3483C58.1626 39.4273 58.2729 39.4457 58.3519 39.3916L58.5467 39.2877L75.0065 30.4447C75.0357 30.4261 75.0663 30.4099 75.098 30.396C74.7809 29.8712 74.519 29.2976 74.3405 28.6765L74.3361 28.671ZM104.583 4.18695C97.3198 -3.82543 50.5782 3.38236 30.7052 7.71915L30.2415 7.81655C30.219 7.82053 30.1976 7.82889 30.1784 7.84116C30.1591 7.85343 30.1425 7.86937 30.1295 7.88806C30.1164 7.90675 30.1071 7.92783 30.1022 7.9501C30.0973 7.97236 30.0968 7.99538 30.1008 8.01783C30.1048 8.04029 30.1132 8.06174 30.1254 8.08096C30.1377 8.10018 30.1536 8.1168 30.1723 8.12986C30.2101 8.15625 30.2567 8.16655 30.3021 8.15852L30.7593 8.06653C47.2245 5.13385 81.4698 1.07193 88.8367 8.37766C91.0876 10.6096 90.5503 13.4758 87.9401 16.8662C89.3426 17.7687 90.3425 19.1896 90.7938 20.9638C100.977 14.2073 107.814 7.74946 104.581 4.18208L104.583 4.18695Z" fill="#D03027"/>
<path d="M77.2753 26.5673C77.3673 29.3847 79.1529 31.6957 81.4768 31.6957C85.9841 31.6957 87.9049 26.1588 87.7697 22.4632C87.6723 19.6398 85.8434 17.3348 83.5194 17.3348C79.6474 17.3294 77.1411 22.8414 77.2753 26.5673ZM74.8972 26.4147C74.7327 21.6034 78.5009 16.6822 83.9766 16.6822C87.6355 16.6822 90.0368 19.1214 90.1667 22.8598C90.3436 27.9335 86.819 32.5923 81.0927 32.5923C77.4214 32.5923 75.0249 30.159 74.8972 26.4147ZM23.0353 25.1464C22.8405 25.2195 22.59 25.2925 22.2778 25.3596C21.9667 25.4327 21.3937 25.5306 20.5642 25.6648C19.9906 25.7568 19.5946 25.872 19.3738 26.0365C19.1606 26.195 19.0329 26.3839 18.995 26.622C18.9518 26.8719 19.0318 27.0673 19.245 27.2258C19.4647 27.3784 19.8305 27.4574 20.3488 27.4574C20.7343 27.458 21.1173 27.3963 21.483 27.2745C21.8547 27.1528 22.1723 26.9877 22.4098 26.7805C22.5868 26.6279 22.7145 26.4331 22.8124 26.195C22.8735 26.0365 22.9531 25.6891 23.044 25.1464H23.0353ZM27.7969 22.1889C27.7785 22.6217 27.6995 23.0183 27.5837 23.6952L26.7786 28.2133C26.7115 28.6159 26.8581 28.9275 27.2298 29.1461L27.2055 29.3231L22.5954 29.3176L22.5521 28.1705C21.8571 28.5812 21.1113 28.899 20.3337 29.1158C19.6021 29.3052 19.0102 29.3842 18.1261 29.3842C16.6381 29.3842 15.7842 29.2316 15.1934 28.7133C14.596 28.183 14.3033 27.8291 14.3276 27.097C14.352 26.6761 14.5711 26.1339 14.8828 25.7551C15.1999 25.3764 15.6387 25.121 16.1084 24.8894C16.5845 24.6638 17.1451 24.4998 17.9562 24.371C18.7678 24.2369 19.9073 24.1086 21.4261 23.9815C22.2248 23.9144 22.7128 23.7315 22.9385 23.6406C23.2555 23.5188 23.3838 23.3782 23.4265 23.1222C23.512 22.6585 23.3654 22.3907 22.7437 22.2684C21.0853 21.9437 17.9691 22.4816 16.3654 22.8782L17.2376 20.5245C19.3478 20.2133 21.3352 20.0186 23.4276 20.0186C26.7634 20.0186 27.8245 20.9638 27.7877 22.1829L27.7969 22.1889ZM41.159 29.3176L42.7568 20.2815H47.172L45.5742 29.3176H41.159ZM43.0008 18.1951C43.135 17.4511 44.3059 16.8532 45.611 16.8532C46.9221 16.8532 47.8792 17.4571 47.7515 18.1951C47.6109 18.9391 46.4465 19.5478 45.1295 19.5478C43.8244 19.5478 42.8731 18.944 43.0014 18.1951H43.0008ZM62.8478 25.1643C62.5951 25.2471 62.3387 25.3182 62.0795 25.3775C61.7684 25.45 61.1953 25.542 60.3659 25.6761C59.7988 25.7681 59.3962 25.8834 59.1766 26.0479C58.9634 26.2005 58.8411 26.3952 58.7978 26.6268C58.7437 26.8768 58.8411 27.0781 59.0478 27.2307C59.2734 27.3833 59.6392 27.4563 60.157 27.4563C60.5415 27.457 60.9239 27.3993 61.2911 27.2853C61.6699 27.1571 61.9805 26.9986 62.2239 26.7913C62.3949 26.6387 62.5226 26.4374 62.6135 26.2059C62.6747 26.0533 62.7542 25.7059 62.8516 25.1632L62.8478 25.1643ZM67.6094 22.2008C67.591 22.6461 67.512 23.0362 67.3897 23.7071L66.591 28.2317C66.5239 28.6283 66.6706 28.9459 67.0423 29.1645L67.018 29.3231L62.4079 29.3285L62.3711 28.176C61.6794 28.5898 60.9348 28.9078 60.1575 29.1212C59.426 29.316 58.834 29.3956 57.938 29.3956C56.45 29.3956 55.6027 29.2495 55.0162 28.7246C54.4123 28.1879 54.1261 27.8405 54.1504 27.1084C54.1688 26.6755 54.3885 26.1388 54.7056 25.7665C55.0226 25.3769 55.4615 25.1324 55.9376 24.9008C56.4138 24.6692 56.9743 24.5112 57.7795 24.3759L61.2554 23.9863C62.0481 23.9192 62.5362 23.7428 62.7618 23.6509C63.0848 23.5291 63.2071 23.3884 63.2558 23.126C63.3353 22.6688 63.1947 22.401 62.5794 22.2722C60.9086 21.9475 57.8049 22.4854 56.2011 22.882L57.0669 20.5283C59.189 20.2171 61.1645 20.0223 63.2569 20.0223C66.5802 20.0278 67.6413 20.9801 67.611 22.1932L67.6094 22.2008ZM13.7357 26.0728C12.2964 26.3595 11.4918 26.4694 10.0709 26.4694C7.9607 26.4694 6.28333 25.4208 6.37532 23.4999C6.44241 22.2192 7.95529 19.524 11.8024 19.524C13.0161 19.524 13.9667 19.7372 15.2356 20.4633L15.7967 17.3288C14.0652 16.6763 12.9181 16.5789 11.4301 16.5908C6.38073 16.6449 1.5391 18.9391 0.93525 23.6032C0.325988 28.3415 6.11289 29.5249 8.68034 29.5249C10.1629 29.5195 11.7104 29.4578 13.1443 29.3117L13.7357 26.0728ZM49.6096 20.2377L49.9267 18.3958L54.5422 17.3894L54.0482 20.2312H56.3099L55.877 22.0482L53.6818 22.0428L52.3486 29.3052C52.3486 29.3052 47.903 29.2749 47.8847 29.3052L49.2141 22.0547H47.5438L47.8847 20.2258H49.6042L49.6096 20.2377ZM74.229 16.8408L72.0825 29.3112L67.5883 29.3166L69.85 16.7179L74.229 16.8408ZM35.3169 22.402C34.7509 22.3983 34.1997 22.5828 33.7499 22.9263C33.2862 23.2802 32.994 23.7921 32.8777 24.4684C32.737 25.2552 32.8236 25.8222 33.1336 26.1696C33.4507 26.517 33.9019 26.6945 34.4993 26.6945C34.9019 26.6945 35.3109 26.6214 35.6215 26.4688C36.0003 26.2675 36.2616 26.0603 36.4872 25.7248C36.7307 25.3775 36.8898 24.9868 36.9753 24.5355C37.1035 23.8213 36.9937 23.291 36.6642 22.9377C36.3411 22.5838 35.8958 22.401 35.3115 22.401L35.3169 22.402ZM27.2801 32.4338L29.4326 20.3351H33.3111L33.0124 21.8772C33.3479 21.4135 33.8846 21.0358 34.6286 20.7301C35.3786 20.4255 36.2194 20.1998 37.1349 20.1998C38.1467 20.1998 38.769 20.2539 39.5254 20.6451C40.2754 21.0417 40.8062 21.6148 41.0865 22.3588C41.3787 23.0903 41.4403 23.9198 41.2813 24.8164C41.0188 26.3098 40.2932 27.4812 39.098 28.3469C37.9152 29.2127 36.8471 29.4383 35.3293 29.4453C34.7926 29.4453 34.3413 29.3912 33.9696 29.2992C33.6038 29.2019 33.3111 29.0861 33.0914 28.9454C32.8782 28.8047 32.6585 28.6045 32.3663 28.2869L31.6467 32.4338H27.2801ZM107.418 23.5123C107.394 22.7873 107.028 22.2927 106.278 22.2927C104.467 22.2927 102.545 25.8423 102.211 27.2686C105.18 27.274 107.492 25.5062 107.419 23.5123H107.418ZM107.808 29.0736L108.155 29.3117C107.271 31.1108 105.471 32.556 103.362 32.556C101.631 32.556 100.216 31.4035 100.143 29.2446C100.002 25.3726 103.63 21.7809 106.601 21.7809C107.875 21.7809 109.058 22.336 109.107 23.7071C109.217 26.7913 104.893 27.7258 102.046 27.7923C101.954 28.1154 101.917 28.4389 101.936 28.9264C101.99 30.2007 102.747 31.2747 104.351 31.2747C105.729 31.2747 107.107 30.1655 107.814 29.0736H107.808Z" fill="#004977"/>
<path d="M90.1003 23.4144L91.1121 23.317C91.4352 23.317 91.7398 23.3782 91.7587 23.6958C91.7641 23.8852 91.4233 25.2568 91.3502 25.5733L90.6609 28.6099L89.813 32.1832H91.5812L92.5752 27.3719C95.6053 24.2131 96.7767 23.1828 97.4904 23.1828C97.8135 23.1828 98.0332 23.3538 98.0515 23.738C98.0699 24.2931 97.7269 25.5549 97.6062 25.9213L96.5944 29.4275C96.3628 30.2142 96.1918 30.9274 96.2156 31.4338C96.2459 32.2022 96.7097 32.5431 97.4049 32.5431C98.7036 32.5431 99.6369 31.1903 100.454 29.8723L100.216 29.4394C99.8912 29.9697 99.1175 31.1346 98.5147 31.1346C98.3253 31.1346 98.143 31.0064 98.136 30.6893C98.1176 30.2808 98.2885 29.665 98.4103 29.2565L99.5384 25.1464C99.8436 24.0123 99.9838 23.2867 99.9713 22.8955C99.941 22.1272 99.4952 21.7673 98.8064 21.7673C97.6414 21.7673 96.0988 22.6212 92.8241 26.3828H92.77L93.1845 24.5474C93.4101 23.541 93.6298 22.4924 93.837 21.7663C92.7029 22.1748 91.0807 22.632 90.0808 22.8268L90.1003 23.4144Z" fill="#004977"/>
</svg>
