<svg width="420" height="241" viewBox="0 0 420 241" fill="none" xmlns="http://www.w3.org/2000/svg">
<g filter="url(#filter0_d)">
<rect x="8" y="6" width="404" height="225" rx="8" fill="white"/>
</g>
<path d="M44.6 44.166C44.372 45.378 43.76 46.35 42.764 47.082C41.768 47.814 40.568 48.18 39.164 48.18C37.376 48.18 35.93 47.58 34.826 46.38C33.734 45.18 33.188 43.638 33.188 41.754C33.188 39.858 33.74 38.298 34.844 37.074C35.948 35.838 37.388 35.22 39.164 35.22C40.532 35.22 41.69 35.586 42.638 36.318C43.598 37.05 44.186 38.058 44.402 39.342H42.674C42.458 38.538 42.044 37.902 41.432 37.434C40.82 36.966 40.07 36.732 39.182 36.732C37.886 36.732 36.836 37.218 36.032 38.19C35.24 39.15 34.844 40.338 34.844 41.754C34.844 43.182 35.246 44.358 36.05 45.282C36.854 46.206 37.892 46.668 39.164 46.668C40.088 46.668 40.874 46.44 41.522 45.984C42.17 45.528 42.62 44.922 42.872 44.166H44.6ZM54.3016 46.776H54.5356V48H53.8156C52.9276 48 52.3936 47.616 52.2136 46.848C51.5176 47.736 50.5276 48.18 49.2436 48.18C48.3556 48.18 47.6356 47.964 47.0836 47.532C46.5436 47.088 46.2736 46.446 46.2736 45.606C46.2736 44.79 46.5496 44.154 47.1016 43.698C47.6656 43.23 48.4096 42.948 49.3336 42.852L52.0156 42.6V42.096C52.0156 41.472 51.8536 40.986 51.5296 40.638C51.2056 40.29 50.7436 40.116 50.1436 40.116C49.0636 40.116 48.4156 40.686 48.1996 41.826H46.6336C46.7296 40.938 47.0836 40.218 47.6956 39.666C48.3196 39.102 49.1356 38.82 50.1436 38.82C51.1876 38.82 52.0216 39.108 52.6456 39.684C53.2816 40.26 53.5996 41.076 53.5996 42.132V46.038C53.5996 46.53 53.8336 46.776 54.3016 46.776ZM52.0156 44.544V43.752L49.8376 43.968C49.2256 44.028 48.7396 44.19 48.3796 44.454C48.0316 44.718 47.8576 45.084 47.8576 45.552C47.8576 46.02 48.0076 46.368 48.3076 46.596C48.6076 46.812 48.9916 46.92 49.4596 46.92C50.1436 46.92 50.7376 46.728 51.2416 46.344C51.7576 45.948 52.0156 45.348 52.0156 44.544ZM59.3331 48.18C58.2171 48.18 57.3591 47.916 56.7591 47.388C56.1711 46.86 55.8531 46.152 55.8051 45.264H57.3351C57.4431 46.38 58.1091 46.938 59.3331 46.938C59.8131 46.938 60.2091 46.836 60.5211 46.632C60.8451 46.416 61.0071 46.098 61.0071 45.678C61.0071 45.234 60.8391 44.892 60.5031 44.652C60.1791 44.412 59.7291 44.208 59.1531 44.04L58.5411 43.878C58.2051 43.782 57.9231 43.686 57.6951 43.59C57.4671 43.494 57.2151 43.356 56.9391 43.176C56.6631 42.984 56.4531 42.738 56.3091 42.438C56.1651 42.138 56.0931 41.79 56.0931 41.394C56.0931 40.614 56.3871 39.99 56.9751 39.522C57.5751 39.054 58.2951 38.82 59.1351 38.82C60.1431 38.82 60.9231 39.072 61.4751 39.576C62.0271 40.08 62.3211 40.686 62.3571 41.394H60.8271C60.7911 40.998 60.6231 40.68 60.3231 40.44C60.0231 40.188 59.6331 40.062 59.1531 40.062C58.7091 40.062 58.3371 40.17 58.0371 40.386C57.7491 40.602 57.6051 40.914 57.6051 41.322C57.6051 41.526 57.6471 41.706 57.7311 41.862C57.8151 42.006 57.9471 42.132 58.1271 42.24C58.3191 42.348 58.4871 42.432 58.6311 42.492C58.7871 42.552 59.0091 42.624 59.2971 42.708L59.8731 42.888C60.6651 43.104 61.3011 43.422 61.7811 43.842C62.2731 44.25 62.5191 44.85 62.5191 45.642C62.5191 46.482 62.2191 47.118 61.6191 47.55C61.0191 47.97 60.2571 48.18 59.3331 48.18ZM68.9038 38.82C69.8878 38.82 70.6798 39.126 71.2798 39.738C71.8798 40.35 72.1798 41.22 72.1798 42.348V48H70.6138V42.69C70.6138 41.862 70.4158 41.244 70.0198 40.836C69.6358 40.416 69.1318 40.206 68.5078 40.206C67.8478 40.206 67.2898 40.434 66.8338 40.89C66.3898 41.334 66.1678 41.994 66.1678 42.87V48H64.6018V35.22H66.1678V40.08H66.2938C66.9058 39.24 67.7758 38.82 68.9038 38.82ZM76.9128 37.668V39H79.0188V40.278H76.9128V48H75.3288V40.278H73.4928V39H75.3288V37.524C75.3288 36.792 75.5448 36.228 75.9768 35.832C76.4208 35.424 77.0208 35.22 77.7768 35.22C78.2808 35.22 78.7488 35.31 79.1808 35.49L78.8928 36.66C78.6288 36.576 78.3468 36.534 78.0468 36.534C77.2908 36.534 76.9128 36.912 76.9128 37.668ZM80.7209 48V35.22H82.2869V48H80.7209ZM88.87 48.18C87.574 48.18 86.494 47.736 85.63 46.848C84.778 45.948 84.352 44.832 84.352 43.5C84.352 42.144 84.778 41.028 85.63 40.152C86.482 39.264 87.562 38.82 88.87 38.82C90.166 38.82 91.246 39.264 92.11 40.152C92.974 41.04 93.406 42.156 93.406 43.5C93.406 44.844 92.974 45.96 92.11 46.848C91.258 47.736 90.178 48.18 88.87 48.18ZM86.746 45.84C87.298 46.476 88.006 46.794 88.87 46.794C89.734 46.794 90.442 46.476 90.994 45.84C91.558 45.192 91.84 44.412 91.84 43.5C91.84 42.576 91.558 41.796 90.994 41.16C90.442 40.524 89.734 40.206 88.87 40.206C87.994 40.206 87.286 40.524 86.746 41.16C86.206 41.796 85.936 42.576 85.936 43.5C85.936 44.412 86.206 45.192 86.746 45.84ZM96.7144 48L94.4464 39H95.9404L97.6144 46.182H97.7404L99.6844 39.648H101.43L103.356 46.182H103.482L105.174 39H106.668L104.364 48H102.528L100.62 41.394H100.494L98.5324 48H96.7144ZM117.329 48.18C116.033 48.18 114.953 47.736 114.089 46.848C113.237 45.948 112.811 44.832 112.811 43.5C112.811 42.144 113.237 41.028 114.089 40.152C114.941 39.264 116.021 38.82 117.329 38.82C118.625 38.82 119.705 39.264 120.569 40.152C121.433 41.04 121.865 42.156 121.865 43.5C121.865 44.844 121.433 45.96 120.569 46.848C119.717 47.736 118.637 48.18 117.329 48.18ZM115.205 45.84C115.757 46.476 116.465 46.794 117.329 46.794C118.193 46.794 118.901 46.476 119.453 45.84C120.017 45.192 120.299 44.412 120.299 43.5C120.299 42.576 120.017 41.796 119.453 41.16C118.901 40.524 118.193 40.206 117.329 40.206C116.453 40.206 115.745 40.524 115.205 41.16C114.665 41.796 114.395 42.576 114.395 43.5C114.395 44.412 114.665 45.192 115.205 45.84ZM126.062 48L122.642 39H124.28L126.98 46.362H127.106L129.806 39H131.444L128.024 48H126.062ZM140.481 43.32C140.481 43.404 140.469 43.59 140.445 43.878H133.731C133.779 44.778 134.049 45.504 134.541 46.056C135.045 46.608 135.711 46.884 136.539 46.884C137.127 46.884 137.625 46.758 138.033 46.506C138.453 46.242 138.741 45.864 138.897 45.372H140.427C140.235 46.26 139.791 46.95 139.095 47.442C138.399 47.934 137.547 48.18 136.539 48.18C135.255 48.18 134.205 47.76 133.389 46.92C132.573 46.08 132.165 44.97 132.165 43.59C132.165 42.162 132.573 41.01 133.389 40.134C134.205 39.258 135.231 38.82 136.467 38.82C137.619 38.82 138.573 39.21 139.329 39.99C140.097 40.77 140.481 41.88 140.481 43.32ZM138.249 40.836C137.793 40.356 137.199 40.116 136.467 40.116C135.735 40.116 135.117 40.368 134.613 40.872C134.121 41.364 133.833 41.982 133.749 42.726H138.951C138.939 41.946 138.705 41.316 138.249 40.836ZM142.631 48V39H144.053L144.197 40.242H144.323C144.587 39.786 144.911 39.438 145.295 39.198C145.679 38.946 146.213 38.82 146.897 38.82H147.419V40.404C147.239 40.38 146.969 40.368 146.609 40.368C145.841 40.368 145.247 40.638 144.827 41.178C144.407 41.706 144.197 42.408 144.197 43.284V48H142.631ZM157.211 48.18C156.359 48.18 155.759 47.97 155.411 47.55C155.075 47.118 154.907 46.59 154.907 45.966V40.278H152.999V39H153.611C154.139 39 154.511 38.904 154.727 38.712C154.943 38.508 155.051 38.16 155.051 37.668V36.552H156.491V39H158.741V40.278H156.491V45.75C156.491 46.506 156.869 46.884 157.625 46.884C157.913 46.884 158.213 46.836 158.525 46.74V47.982C158.045 48.114 157.607 48.18 157.211 48.18ZM161.195 37.56C160.907 37.56 160.655 37.458 160.439 37.254C160.235 37.05 160.133 36.804 160.133 36.516C160.133 36.228 160.235 35.988 160.439 35.796C160.655 35.592 160.907 35.49 161.195 35.49C161.471 35.49 161.711 35.592 161.915 35.796C162.119 35.988 162.221 36.228 162.221 36.516C162.221 36.804 162.119 37.05 161.915 37.254C161.711 37.458 161.471 37.56 161.195 37.56ZM160.403 48V39H161.969V48H160.403ZM164.41 48V39H165.832L165.976 40.08H166.102C166.678 39.24 167.488 38.82 168.532 38.82C169.72 38.82 170.536 39.348 170.98 40.404H171.088C171.676 39.348 172.6 38.82 173.86 38.82C174.748 38.82 175.462 39.09 176.002 39.63C176.542 40.17 176.812 40.95 176.812 41.97V48H175.228V42.276C175.228 41.604 175.054 41.094 174.706 40.746C174.358 40.386 173.926 40.206 173.41 40.206C172.81 40.206 172.324 40.422 171.952 40.854C171.58 41.274 171.394 41.826 171.394 42.51V48H169.81V42.402C169.81 41.694 169.636 41.154 169.288 40.782C168.952 40.398 168.52 40.206 167.992 40.206C167.464 40.206 166.996 40.404 166.588 40.8C166.18 41.184 165.976 41.742 165.976 42.474V48H164.41ZM187.168 43.32C187.168 43.404 187.156 43.59 187.132 43.878H180.418C180.466 44.778 180.736 45.504 181.228 46.056C181.732 46.608 182.398 46.884 183.226 46.884C183.814 46.884 184.312 46.758 184.72 46.506C185.14 46.242 185.428 45.864 185.584 45.372H187.114C186.922 46.26 186.478 46.95 185.782 47.442C185.086 47.934 184.234 48.18 183.226 48.18C181.942 48.18 180.892 47.76 180.076 46.92C179.26 46.08 178.852 44.97 178.852 43.59C178.852 42.162 179.26 41.01 180.076 40.134C180.892 39.258 181.918 38.82 183.154 38.82C184.306 38.82 185.26 39.21 186.016 39.99C186.784 40.77 187.168 41.88 187.168 43.32ZM184.936 40.836C184.48 40.356 183.886 40.116 183.154 40.116C182.422 40.116 181.804 40.368 181.3 40.872C180.808 41.364 180.52 41.982 180.436 42.726H185.638C185.626 41.946 185.392 41.316 184.936 40.836Z" fill="#276164"/>
<g opacity="0.24">
<rect x="31.9998" y="201" width="9.18933" height="9.18933" fill="#276164"/>
</g>
<rect x="31.9998" y="198" width="9.18933" height="3.06311" fill="#276164"/>
<g opacity="0.24">
<rect x="42.0234" y="204" width="9.18933" height="6.12622" fill="#276164"/>
</g>
<rect x="42.0234" y="201" width="9.18933" height="3.06311" fill="#276164"/>
<g opacity="0.24">
<rect x="52.0469" y="196" width="9.18933" height="13.784" fill="#276164"/>
</g>
<rect x="52.0469" y="193" width="9.18933" height="3.06311" fill="#276164"/>
<g opacity="0.24">
<rect x="62.0703" y="187" width="9.18933" height="22.9733" fill="#276164"/>
</g>
<rect x="62.0703" y="184" width="9.18933" height="3.06311" fill="#276164"/>
<g opacity="0.24">
<rect x="72.0938" y="184" width="9.18933" height="26.0364" fill="#276164"/>
</g>
<rect x="72.0938" y="182" width="9.18933" height="3.06311" fill="#276164"/>
<g opacity="0.24">
<rect x="82.1172" y="201" width="9.18933" height="9.18933" fill="#276164"/>
</g>
<g opacity="0.24">
<rect x="92.1406" y="176" width="9.18933" height="33.6942" fill="#276164"/>
</g>
<rect x="92.1406" y="173" width="9.18933" height="3.06311" fill="#276164"/>
<g opacity="0.24">
<rect x="102.164" y="152" width="9.18933" height="58.1991" fill="#276164"/>
</g>
<g opacity="0.24">
<rect x="112.188" y="166" width="9.18933" height="44.4151" fill="#276164"/>
</g>
<g opacity="0.24">
<rect x="122.211" y="141" width="9.18933" height="68.9199" fill="#276164"/>
</g>
<g opacity="0.24">
<rect x="132.234" y="179" width="9.18933" height="30.6311" fill="#276164"/>
</g>
<g opacity="0.24">
<rect x="142.258" y="176" width="9.18933" height="33.6942" fill="#276164"/>
</g>
<g opacity="0.24">
<rect x="152.281" y="169" width="9.18933" height="41.352" fill="#276164"/>
</g>
<g opacity="0.24">
<rect x="162.305" y="152" width="9.18933" height="58.1991" fill="#276164"/>
</g>
<g opacity="0.24">
<rect x="172.328" y="173" width="9.18933" height="36.7573" fill="#276164"/>
</g>
<g opacity="0.24">
<rect x="182.352" y="149" width="9.18933" height="61.2622" fill="#276164"/>
</g>
<g opacity="0.24">
<rect x="192.375" y="159" width="9.18933" height="50.5413" fill="#276164"/>
</g>
<g opacity="0.24">
<rect x="202.399" y="146" width="9.18933" height="64.3253" fill="#276164"/>
</g>
<g opacity="0.24">
<rect x="212.422" y="138" width="9.18933" height="71.9831" fill="#276164"/>
</g>
<g opacity="0.24">
<rect x="222.446" y="123" width="9.18933" height="87.2986" fill="#276164"/>
</g>
<g opacity="0.24">
<rect x="232.469" y="127" width="9.18933" height="82.7039" fill="#276164"/>
</g>
<g opacity="0.24">
<rect x="242.492" y="132" width="9.18933" height="78.1093" fill="#276164"/>
</g>
<g opacity="0.24">
<rect x="252.516" y="124" width="9.18933" height="85.767" fill="#276164"/>
</g>
<g opacity="0.24">
<rect x="262.54" y="141" width="9.18933" height="68.9199" fill="#276164"/>
</g>
<rect x="262.54" y="138" width="9.18933" height="3.06311" fill="#276164"/>
<g opacity="0.24">
<rect x="272.563" y="103" width="9.18933" height="107.209" fill="#276164"/>
</g>
<rect x="272.563" y="100" width="9.18933" height="3.06311" fill="#276164"/>
<g opacity="0.24">
<rect x="282.586" y="132" width="9.18933" height="78.1093" fill="#276164"/>
</g>
<rect x="282.586" y="129" width="9.18933" height="3.06311" fill="#276164"/>
<g opacity="0.24">
<rect x="292.61" y="115" width="9.18933" height="94.9564" fill="#276164"/>
</g>
<rect x="292.61" y="112" width="9.18933" height="3.06311" fill="#276164"/>
<g opacity="0.24">
<rect x="302.633" y="99.9998" width="9.18933" height="110.272" fill="#276164"/>
</g>
<rect x="302.633" y="96.9998" width="9.18933" height="3.06311" fill="#276164"/>
<g opacity="0.24">
<rect x="312.657" y="110" width="9.18933" height="99.551" fill="#276164"/>
</g>
<rect x="312.657" y="107" width="9.18933" height="3.06311" fill="#276164"/>
<g opacity="0.24">
<rect x="322.68" y="120" width="9.18933" height="90.3617" fill="#276164"/>
</g>
<g opacity="0.24">
<rect x="332.704" y="87" width="9.18933" height="122.524" fill="#276164"/>
</g>
<rect x="332.704" y="84" width="9.18933" height="3.06311" fill="#276164"/>
<g opacity="0.24">
<rect x="342.727" y="97.0002" width="9.18933" height="113.335" fill="#276164"/>
</g>
<rect x="342.727" y="94" width="9.18933" height="3.06311" fill="#276164"/>
<g opacity="0.24">
<rect x="352.75" y="110" width="9.18933" height="99.551" fill="#276164"/>
</g>
<rect x="352.75" y="107" width="9.18933" height="3.06311" fill="#276164"/>
<g opacity="0.24">
<rect x="362.774" y="103" width="9.18933" height="107.209" fill="#276164"/>
</g>
<rect x="362.774" y="100" width="9.18933" height="3.06311" fill="#276164"/>
<g opacity="0.24">
<rect x="372.798" y="87" width="9.18933" height="122.524" fill="#276164"/>
</g>
<rect x="372.798" y="84" width="9.18933" height="3.06311" fill="#276164"/>
<g opacity="0.24">
<rect x="382.821" y="71.0002" width="9.18933" height="139.371" fill="#276164"/>
</g>
<rect x="382.821" y="68" width="9.18933" height="3.06311" fill="#276164"/>
<rect x="82.1172" y="198" width="9.18933" height="3.06311" fill="#276164"/>
<rect x="102.164" y="151" width="9.18933" height="3.06311" fill="#276164"/>
<rect x="112.188" y="165" width="9.18933" height="3.06311" fill="#276164"/>
<rect x="122.211" y="140" width="9.18933" height="3.06311" fill="#276164"/>
<rect x="132.235" y="177" width="9.18933" height="3.06311" fill="#276164"/>
<rect x="142.258" y="175" width="9.18933" height="3.06311" fill="#276164"/>
<rect x="152" y="167" width="9.18933" height="3.06311" fill="#276164"/>
<path d="M33.64 73.77H39.04V75H32.305V64.5H33.64V73.77ZM47.0358 73.98H47.2308V75H46.6308C45.8908 75 45.4458 74.68 45.2958 74.04C44.7158 74.78 43.8908 75.15 42.8208 75.15C42.0808 75.15 41.4808 74.97 41.0208 74.61C40.5708 74.24 40.3458 73.705 40.3458 73.005C40.3458 72.325 40.5758 71.795 41.0358 71.415C41.5058 71.025 42.1258 70.79 42.8958 70.71L45.1308 70.5V70.08C45.1308 69.56 44.9958 69.155 44.7258 68.865C44.4558 68.575 44.0708 68.43 43.5708 68.43C42.6708 68.43 42.1308 68.905 41.9508 69.855H40.6458C40.7258 69.115 41.0208 68.515 41.5308 68.055C42.0508 67.585 42.7308 67.35 43.5708 67.35C44.4408 67.35 45.1358 67.59 45.6558 68.07C46.1858 68.55 46.4508 69.23 46.4508 70.11V73.365C46.4508 73.775 46.6458 73.98 47.0358 73.98ZM45.1308 72.12V71.46L43.3158 71.64C42.8058 71.69 42.4008 71.825 42.1008 72.045C41.8108 72.265 41.6658 72.57 41.6658 72.96C41.6658 73.35 41.7908 73.64 42.0408 73.83C42.2908 74.01 42.6108 74.1 43.0008 74.1C43.5708 74.1 44.0658 73.94 44.4858 73.62C44.9158 73.29 45.1308 72.79 45.1308 72.12ZM51.2288 75.15C50.2988 75.15 49.5838 74.93 49.0838 74.49C48.5938 74.05 48.3288 73.46 48.2888 72.72H49.5638C49.6538 73.65 50.2088 74.115 51.2288 74.115C51.6288 74.115 51.9588 74.03 52.2188 73.86C52.4888 73.68 52.6238 73.415 52.6238 73.065C52.6238 72.695 52.4838 72.41 52.2038 72.21C51.9338 72.01 51.5588 71.84 51.0788 71.7L50.5688 71.565C50.2888 71.485 50.0538 71.405 49.8638 71.325C49.6738 71.245 49.4638 71.13 49.2338 70.98C49.0038 70.82 48.8288 70.615 48.7088 70.365C48.5888 70.115 48.5288 69.825 48.5288 69.495C48.5288 68.845 48.7738 68.325 49.2638 67.935C49.7638 67.545 50.3638 67.35 51.0638 67.35C51.9038 67.35 52.5538 67.56 53.0138 67.98C53.4738 68.4 53.7188 68.905 53.7488 69.495H52.4738C52.4438 69.165 52.3038 68.9 52.0538 68.7C51.8038 68.49 51.4788 68.385 51.0788 68.385C50.7088 68.385 50.3988 68.475 50.1488 68.655C49.9088 68.835 49.7888 69.095 49.7888 69.435C49.7888 69.605 49.8238 69.755 49.8938 69.885C49.9638 70.005 50.0738 70.11 50.2238 70.2C50.3838 70.29 50.5238 70.36 50.6438 70.41C50.7738 70.46 50.9588 70.52 51.1988 70.59L51.6788 70.74C52.3388 70.92 52.8688 71.185 53.2688 71.535C53.6788 71.875 53.8838 72.375 53.8838 73.035C53.8838 73.735 53.6338 74.265 53.1338 74.625C52.6338 74.975 51.9988 75.15 51.2288 75.15ZM58.0424 75.15C57.3324 75.15 56.8324 74.975 56.5424 74.625C56.2624 74.265 56.1224 73.825 56.1224 73.305V68.565H54.5324V67.5H55.0424C55.4824 67.5 55.7924 67.42 55.9724 67.26C56.1524 67.09 56.2424 66.8 56.2424 66.39V65.46H57.4424V67.5H59.3174V68.565H57.4424V73.125C57.4424 73.755 57.7574 74.07 58.3874 74.07C58.6274 74.07 58.8774 74.03 59.1374 73.95V74.985C58.7374 75.095 58.3724 75.15 58.0424 75.15ZM69.5764 70.05C70.0764 70.21 70.4764 70.49 70.7764 70.89C71.0764 71.29 71.2264 71.78 71.2264 72.36C71.2264 73.17 70.9164 73.84 70.2964 74.37C69.6764 74.89 68.8714 75.15 67.8814 75.15C66.9214 75.15 66.1564 74.905 65.5864 74.415C65.0264 73.915 64.7114 73.225 64.6414 72.345H65.9614C66.0314 72.835 66.2214 73.24 66.5314 73.56C66.8414 73.87 67.2864 74.025 67.8664 74.025C68.4564 74.025 68.9364 73.865 69.3064 73.545C69.6764 73.225 69.8614 72.815 69.8614 72.315C69.8614 71.815 69.6864 71.41 69.3364 71.1C68.9964 70.78 68.5314 70.62 67.9414 70.62H67.0714V69.555H67.8814C68.3914 69.555 68.7964 69.41 69.0964 69.12C69.4064 68.82 69.5614 68.425 69.5614 67.935C69.5614 67.455 69.4064 67.07 69.0964 66.78C68.7864 66.48 68.3814 66.33 67.8814 66.33C67.4214 66.33 67.0264 66.46 66.6964 66.72C66.3664 66.98 66.1564 67.35 66.0664 67.83H64.7614C64.8114 67.05 65.1414 66.425 65.7514 65.955C66.3714 65.475 67.0964 65.235 67.9264 65.235C68.7664 65.235 69.4714 65.48 70.0414 65.97C70.6114 66.46 70.8964 67.1 70.8964 67.89C70.8964 68.83 70.4564 69.525 69.5764 69.975V70.05ZM77.3137 75V67.5H78.4987L78.6187 68.4H78.7237C79.2037 67.7 79.8787 67.35 80.7487 67.35C81.7387 67.35 82.4187 67.79 82.7887 68.67H82.8787C83.3687 67.79 84.1387 67.35 85.1887 67.35C85.9287 67.35 86.5237 67.575 86.9737 68.025C87.4237 68.475 87.6487 69.125 87.6487 69.975V75H86.3287V70.23C86.3287 69.67 86.1837 69.245 85.8937 68.955C85.6037 68.655 85.2437 68.505 84.8137 68.505C84.3137 68.505 83.9087 68.685 83.5987 69.045C83.2887 69.395 83.1337 69.855 83.1337 70.425V75H81.8137V70.335C81.8137 69.745 81.6687 69.295 81.3787 68.985C81.0987 68.665 80.7387 68.505 80.2987 68.505C79.8587 68.505 79.4687 68.67 79.1287 69C78.7887 69.32 78.6187 69.785 78.6187 70.395V75H77.3137ZM93.1134 75.15C92.0334 75.15 91.1334 74.78 90.4134 74.04C89.7034 73.29 89.3484 72.36 89.3484 71.25C89.3484 70.12 89.7034 69.19 90.4134 68.46C91.1234 67.72 92.0234 67.35 93.1134 67.35C94.1934 67.35 95.0934 67.72 95.8134 68.46C96.5334 69.2 96.8934 70.13 96.8934 71.25C96.8934 72.37 96.5334 73.3 95.8134 74.04C95.1034 74.78 94.2034 75.15 93.1134 75.15ZM91.3434 73.2C91.8034 73.73 92.3934 73.995 93.1134 73.995C93.8334 73.995 94.4234 73.73 94.8834 73.2C95.3534 72.66 95.5884 72.01 95.5884 71.25C95.5884 70.48 95.3534 69.83 94.8834 69.3C94.4234 68.77 93.8334 68.505 93.1134 68.505C92.3834 68.505 91.7934 68.77 91.3434 69.3C90.8934 69.83 90.6684 70.48 90.6684 71.25C90.6684 72.01 90.8934 72.66 91.3434 73.2ZM98.6271 75V67.5H99.8121L99.9321 68.4H100.037C100.547 67.7 101.272 67.35 102.212 67.35C103.032 67.35 103.692 67.605 104.192 68.115C104.692 68.625 104.942 69.35 104.942 70.29V75H103.637V70.575C103.637 69.885 103.472 69.37 103.142 69.03C102.822 68.68 102.402 68.505 101.882 68.505C101.332 68.505 100.867 68.695 100.487 69.075C100.117 69.445 99.9321 69.995 99.9321 70.725V75H98.6271ZM109.546 75.15C108.836 75.15 108.336 74.975 108.046 74.625C107.766 74.265 107.626 73.825 107.626 73.305V68.565H106.036V67.5H106.546C106.986 67.5 107.296 67.42 107.476 67.26C107.656 67.09 107.746 66.8 107.746 66.39V65.46H108.946V67.5H110.821V68.565H108.946V73.125C108.946 73.755 109.261 74.07 109.891 74.07C110.131 74.07 110.381 74.03 110.641 73.95V74.985C110.241 75.095 109.876 75.15 109.546 75.15ZM115.791 67.35C116.611 67.35 117.271 67.605 117.771 68.115C118.271 68.625 118.521 69.35 118.521 70.29V75H117.216V70.575C117.216 69.885 117.051 69.37 116.721 69.03C116.401 68.68 115.981 68.505 115.461 68.505C114.911 68.505 114.446 68.695 114.066 69.075C113.696 69.445 113.511 69.995 113.511 70.725V75H112.206V64.35H113.511V68.4H113.616C114.126 67.7 114.851 67.35 115.791 67.35ZM123.123 75.15C122.193 75.15 121.478 74.93 120.978 74.49C120.488 74.05 120.223 73.46 120.183 72.72H121.458C121.548 73.65 122.103 74.115 123.123 74.115C123.523 74.115 123.853 74.03 124.113 73.86C124.383 73.68 124.518 73.415 124.518 73.065C124.518 72.695 124.378 72.41 124.098 72.21C123.828 72.01 123.453 71.84 122.973 71.7L122.463 71.565C122.183 71.485 121.948 71.405 121.758 71.325C121.568 71.245 121.358 71.13 121.128 70.98C120.898 70.82 120.723 70.615 120.603 70.365C120.483 70.115 120.423 69.825 120.423 69.495C120.423 68.845 120.668 68.325 121.158 67.935C121.658 67.545 122.258 67.35 122.958 67.35C123.798 67.35 124.448 67.56 124.908 67.98C125.368 68.4 125.613 68.905 125.643 69.495H124.368C124.338 69.165 124.198 68.9 123.948 68.7C123.698 68.49 123.373 68.385 122.973 68.385C122.603 68.385 122.293 68.475 122.043 68.655C121.803 68.835 121.683 69.095 121.683 69.435C121.683 69.605 121.718 69.755 121.788 69.885C121.858 70.005 121.968 70.11 122.118 70.2C122.278 70.29 122.418 70.36 122.538 70.41C122.668 70.46 122.853 70.52 123.093 70.59L123.573 70.74C124.233 70.92 124.763 71.185 125.163 71.535C125.573 71.875 125.778 72.375 125.778 73.035C125.778 73.735 125.528 74.265 125.028 74.625C124.528 74.975 123.893 75.15 123.123 75.15Z" fill="#9D9D9D"/>
<rect x="162.305" y="151" width="9.18933" height="3.06311" fill="#276164"/>
<rect x="172.328" y="172" width="9.18933" height="3.06311" fill="#276164"/>
<rect x="182.352" y="149" width="9.18933" height="3.06311" fill="#276164"/>
<rect x="192.375" y="157" width="9.18933" height="3.06311" fill="#276164"/>
<rect x="202.399" y="145" width="9.18933" height="3.06311" fill="#276164"/>
<rect x="212.422" y="137" width="9.18933" height="3.06311" fill="#276164"/>
<rect x="222.446" y="122" width="9.18933" height="3.06311" fill="#276164"/>
<rect x="232.469" y="126" width="9.18933" height="3.06311" fill="#276164"/>
<rect x="242.493" y="131" width="9.18933" height="3.06311" fill="#276164"/>
<rect x="252.516" y="121" width="9.18933" height="3.06311" fill="#276164"/>
<rect x="322.68" y="117" width="9.18933" height="3.06311" fill="#276164"/>
<defs>
<filter id="filter0_d" x="0" y="0" width="420" height="241" filterUnits="userSpaceOnUse" color-interpolation-filters="sRGB">
<feFlood flood-opacity="0" result="BackgroundImageFix"/>
<feColorMatrix in="SourceAlpha" type="matrix" values="0 0 0 0 0 0 0 0 0 0 0 0 0 0 0 0 0 0 127 0"/>
<feOffset dy="2"/>
<feGaussianBlur stdDeviation="4"/>
<feColorMatrix type="matrix" values="0 0 0 0 0 0 0 0 0 0 0 0 0 0 0 0 0 0 0.05 0"/>
<feBlend mode="normal" in2="BackgroundImageFix" result="effect1_dropShadow"/>
<feBlend mode="normal" in="SourceGraphic" in2="effect1_dropShadow" result="shape"/>
</filter>
</defs>
</svg>
