<svg width="203" height="203" viewBox="0 0 203 203" fill="none" xmlns="http://www.w3.org/2000/svg">
<g clip-path="url(#clip0_2_63)">
<rect width="202.47" height="202.47" transform="translate(0.530273)" fill="white"/>
<path d="M208.309 55.3572L193.983 75.17C190.931 79.3912 186.522 82.4372 181.494 83.7988L180.731 84.0054C174.194 85.7758 168.786 90.3669 165.977 96.5299L154.99 120.638C152.681 125.705 147.052 128.365 141.671 126.932C137.165 125.731 132.381 127.395 129.591 131.132L122.33 140.859C118.329 146.219 110.994 147.817 105.126 144.609C99.9901 141.801 93.6275 142.642 89.3985 146.689L77.6462 157.934L71.0982 164.718C64.2181 171.846 53.5161 173.703 44.6374 169.308L41.4453 167.728L30.6878 162.083C25.9367 159.591 20.135 160.326 16.1559 163.925L10.2936 169.228C7.29966 171.936 2.57352 171.21 0.530823 167.728" stroke="#226752" stroke-width="1.51663" stroke-linecap="round" stroke-linejoin="round"/>
<g style="mix-blend-mode:multiply">
<path d="M208.309 106.164L194.232 123.84C191.366 127.44 187.475 130.085 183.074 131.428L175.009 133.888C171.977 134.813 169.172 136.361 166.773 138.434L157.963 146.046C153.83 149.617 148.551 151.582 143.09 151.582H140.294C136.308 151.582 132.392 152.629 128.939 154.618L123.242 157.899C118.179 160.816 112.189 161.672 106.512 160.292L103.846 159.644C99.0776 158.484 94.0615 158.898 89.5471 160.823L85.2837 162.641C80.4128 164.718 74.8976 164.677 70.0583 162.527C63.5924 159.655 56.0678 160.598 50.5104 164.977L49.703 165.613C44.772 169.498 38.24 170.696 32.2508 168.815C26.4222 166.983 20.0685 168.067 15.1763 171.727L8.22641 176.926C5.97388 178.611 2.91801 178.741 0.530823 177.252" stroke="#E4C18E" stroke-width="1.51663" stroke-linecap="round" stroke-linejoin="round"/>
</g>
<path d="M88.7061 260.86L88.7061 261.239L89.4644 261.239L89.4644 260.86L88.7061 260.86ZM89.4648 113.618L89.4648 113.239L88.7065 113.239L88.7065 113.618L89.4648 113.618ZM89.4644 260.86L89.4644 260.109L88.7061 260.109L88.7061 260.86L89.4644 260.86ZM89.4644 258.607L89.4644 257.104L88.7061 257.104L88.7061 258.607L89.4644 258.607ZM89.4644 255.602L89.4644 254.099L88.7061 254.099L88.7061 255.602L89.4644 255.602ZM89.4644 252.597L89.4644 251.094L88.7061 251.094L88.7061 252.597L89.4644 252.597ZM89.4645 249.592L89.4645 248.089L88.7061 248.089L88.7061 249.592L89.4645 249.592ZM89.4645 246.587L89.4645 245.084L88.7061 245.084L88.7061 246.587L89.4645 246.587ZM89.4645 243.582L89.4645 242.079L88.7062 242.079L88.7062 243.582L89.4645 243.582ZM89.4645 240.577L89.4645 239.074L88.7062 239.074L88.7062 240.577L89.4645 240.577ZM89.4645 237.572L89.4645 236.069L88.7062 236.069L88.7062 237.572L89.4645 237.572ZM89.4645 234.567L89.4645 233.065L88.7062 233.065L88.7062 234.567L89.4645 234.567ZM89.4645 231.562L89.4645 230.06L88.7062 230.06L88.7062 231.562L89.4645 231.562ZM89.4645 228.557L89.4645 227.055L88.7062 227.055L88.7062 228.557L89.4645 228.557ZM89.4645 225.552L89.4645 224.05L88.7062 224.05L88.7062 225.552L89.4645 225.552ZM89.4645 222.547L89.4645 221.045L88.7062 221.045L88.7062 222.547L89.4645 222.547ZM89.4645 219.542L89.4645 218.04L88.7062 218.04L88.7062 219.542L89.4645 219.542ZM89.4645 216.537L89.4645 215.035L88.7062 215.035L88.7062 216.537L89.4645 216.537ZM89.4645 213.532L89.4645 212.03L88.7062 212.03L88.7062 213.532L89.4645 213.532ZM89.4645 210.527L89.4646 209.025L88.7062 209.025L88.7062 210.527L89.4645 210.527ZM89.4646 207.522L89.4646 206.02L88.7062 206.02L88.7062 207.522L89.4646 207.522ZM89.4646 204.517L89.4646 203.015L88.7063 203.015L88.7063 204.517L89.4646 204.517ZM89.4646 201.513L89.4646 200.01L88.7063 200.01L88.7063 201.513L89.4646 201.513ZM89.4646 198.508L89.4646 197.005L88.7063 197.005L88.7063 198.508L89.4646 198.508ZM89.4646 195.503L89.4646 194L88.7063 194L88.7063 195.503L89.4646 195.503ZM89.4646 192.498L89.4646 190.995L88.7063 190.995L88.7063 192.498L89.4646 192.498ZM89.4646 189.493L89.4646 187.99L88.7063 187.99L88.7063 189.493L89.4646 189.493ZM89.4646 186.488L89.4646 184.985L88.7063 184.985L88.7063 186.488L89.4646 186.488ZM89.4646 183.483L89.4646 181.98L88.7063 181.98L88.7063 183.483L89.4646 183.483ZM89.4646 180.478L89.4646 178.975L88.7063 178.975L88.7063 180.478L89.4646 180.478ZM89.4646 177.473L89.4646 175.97L88.7063 175.97L88.7063 177.473L89.4646 177.473ZM89.4646 174.468L89.4646 172.965L88.7063 172.965L88.7063 174.468L89.4646 174.468ZM89.4646 171.463L89.4647 169.96L88.7063 169.96L88.7063 171.463L89.4646 171.463ZM89.4647 168.458L89.4647 166.955L88.7063 166.955L88.7063 168.458L89.4647 168.458ZM89.4647 165.453L89.4647 163.951L88.7064 163.951L88.7063 165.453L89.4647 165.453ZM89.4647 162.448L89.4647 160.946L88.7064 160.946L88.7064 162.448L89.4647 162.448ZM89.4647 159.443L89.4647 157.941L88.7064 157.941L88.7064 159.443L89.4647 159.443ZM89.4647 156.438L89.4647 154.936L88.7064 154.936L88.7064 156.438L89.4647 156.438ZM89.4647 153.433L89.4647 151.931L88.7064 151.931L88.7064 153.433L89.4647 153.433ZM89.4647 150.428L89.4647 148.926L88.7064 148.926L88.7064 150.428L89.4647 150.428ZM89.4647 147.423L89.4647 145.921L88.7064 145.921L88.7064 147.423L89.4647 147.423ZM89.4647 144.418L89.4647 142.916L88.7064 142.916L88.7064 144.418L89.4647 144.418ZM89.4647 141.413L89.4647 139.911L88.7064 139.911L88.7064 141.413L89.4647 141.413ZM89.4647 138.408L89.4647 136.906L88.7064 136.906L88.7064 138.408L89.4647 138.408ZM89.4647 135.403L89.4647 133.901L88.7064 133.901L88.7064 135.403L89.4647 135.403ZM89.4647 132.398L89.4647 130.896L88.7064 130.896L88.7064 132.398L89.4647 132.398ZM89.4648 129.394L89.4648 127.891L88.7064 127.891L88.7064 129.394L89.4648 129.394ZM89.4648 126.389L89.4648 124.886L88.7065 124.886L88.7064 126.389L89.4648 126.389ZM89.4648 123.384L89.4648 121.881L88.7065 121.881L88.7065 123.384L89.4648 123.384ZM89.4648 120.379L89.4648 118.876L88.7065 118.876L88.7065 120.379L89.4648 120.379ZM89.4648 117.374L89.4648 115.871L88.7065 115.871L88.7065 117.374L89.4648 117.374ZM89.4648 114.369L89.4648 113.618L88.7065 113.618L88.7065 114.369L89.4648 114.369Z" fill="#1D1D1D"/>
<rect x="49.0632" y="75.8318" width="80.2677" height="33.5781" rx="6.06651" fill="#1D1D1D"/>
<path d="M77.7426 82.0074V88.4682H78.4523V85.62H80.4816C81.9011 85.62 82.5654 84.9375 82.5654 83.8091C82.5654 82.6808 81.9011 82.0074 80.4816 82.0074H77.7426ZM78.4523 85.0649V82.5625H80.3724C81.4007 82.5625 81.8193 83.0357 81.8193 83.8091C81.8193 84.5826 81.4007 85.0649 80.3724 85.0649H78.4523Z" fill="white" fill-opacity="0.7"/>
<path d="M83.798 88.4682H84.4805V86.2479C84.4805 85.6291 84.7717 84.4461 85.8728 84.4461C85.9911 84.4461 86.0912 84.4552 86.1731 84.4734V83.8091C85.0174 83.8091 84.5715 84.4188 84.4168 85.1923V83.9183H83.798V88.4682Z" fill="white" fill-opacity="0.7"/>
<path d="M89.1415 88.5774C90.5429 88.5774 91.4255 87.5855 91.4255 86.1842C91.4255 84.801 90.5429 83.8091 89.1415 83.8091C87.731 83.8091 86.8484 84.801 86.8484 86.1842C86.8484 87.5855 87.731 88.5774 89.1415 88.5774ZM87.5581 86.1842C87.5581 85.1195 88.1314 84.346 89.1415 84.346C90.1516 84.346 90.7158 85.1195 90.7158 86.1842C90.7158 87.258 90.1516 88.0314 89.1415 88.0314C88.1314 88.0314 87.5581 87.2489 87.5581 86.1842Z" fill="white" fill-opacity="0.7"/>
<path d="M93.0476 83.1631V83.9183H92.2833V84.4188H93.0476V88.4682H93.7301V84.4188H94.7311V83.9183H93.7301V83.245C93.7301 82.6626 94.0304 82.4624 94.4763 82.4624C94.5764 82.4624 94.7038 82.4715 94.813 82.4897V81.9528C94.6492 81.9255 94.4854 81.8982 94.2943 81.8982C93.5208 81.8982 93.0476 82.2804 93.0476 83.1631Z" fill="white" fill-opacity="0.7"/>
<path d="M96.3013 88.4682H96.9838V83.9183H96.3013V88.4682ZM96.2558 82.79H97.0384V82.0074H96.2558V82.79Z" fill="white" fill-opacity="0.7"/>
<path d="M100.078 88.5774C100.297 88.5774 100.488 88.5501 100.651 88.5228V87.9859C100.542 88.0041 100.415 88.0132 100.297 88.0132C99.8688 88.0132 99.5686 87.8676 99.5686 87.2944V84.4188H100.57V83.9183H99.5686V82.4533H98.8861V83.9183H98.1217V84.4188H98.8861V87.4308C98.8861 88.3135 99.3411 88.5774 100.078 88.5774Z" fill="white" fill-opacity="0.7"/>
<path d="M64.4842 103.258H65.1879V101.875C66.9594 101.766 68.0513 100.856 68.0513 99.3273C68.0513 98.029 67.2748 97.3375 65.8552 96.9735L65.1879 96.8036V93.734C66.1828 93.8067 66.8623 94.2557 67.384 94.8502L68.0028 94.195C67.3476 93.5641 66.4376 93.0545 65.1879 92.9938V91.6107H64.4842V92.9938C62.9433 93.103 61.8392 93.8553 61.8392 95.2991C61.8392 96.5852 62.7128 97.1676 63.8654 97.4588L64.4842 97.6165V101.135C63.1375 101.014 62.3609 100.225 61.7907 99.5699L61.1962 100.201C61.7543 100.856 62.7977 101.766 64.4842 101.875V103.258ZM62.8341 95.2142C62.8341 94.3163 63.5621 93.8431 64.4842 93.7461V96.6337L64.2537 96.5731C63.4529 96.3668 62.8341 96.0514 62.8341 95.2142ZM65.1879 101.135V97.7864L65.3821 97.8349C66.4134 98.1018 67.0564 98.478 67.0564 99.4365C67.0564 100.431 66.3648 101.038 65.1879 101.135Z" fill="white"/>
<path d="M72.71 101.135C71.5574 101.135 70.6474 100.48 70.5018 99.3879L69.5676 99.4971C69.7496 100.917 70.9629 101.887 72.7222 101.887C74.4814 101.887 75.7433 100.953 75.7433 99.4122C75.7433 98.0654 74.8212 97.4103 73.8384 97.2768V97.2525C74.809 97.0463 75.537 96.3426 75.537 95.2506C75.537 93.8553 74.3965 92.9938 72.8071 92.9938C71.1085 92.9938 70.0408 93.9523 69.8224 95.2991L70.8173 95.3962C70.9629 94.4134 71.6908 93.734 72.795 93.734C73.7899 93.734 74.5542 94.3042 74.5542 95.2506C74.5542 96.1606 73.8505 96.9007 72.4188 96.9007H71.8486V97.6529H72.5159C73.9112 97.6529 74.7605 98.2717 74.7605 99.3758C74.7605 100.444 73.9476 101.135 72.71 101.135Z" fill="white"/>
<path d="M77.9371 103.343H78.1191C78.8107 103.343 79.114 103.064 79.114 102.385V100.565H77.9371V101.742H78.4588V102.373C78.4588 102.664 78.3496 102.773 78.0584 102.773H77.9371V103.343Z" fill="white"/>
<path d="M81.157 101.074V101.742H87.1749V101.002H82.5401C84.7605 99.3273 86.9808 97.6893 86.9808 95.4568C86.9808 93.9281 85.9252 92.9817 84.2388 92.9817C82.4431 92.9817 81.3511 94.0858 81.2783 96.0878L82.1519 96.1727C82.1883 94.7046 82.9041 93.734 84.2024 93.734C85.3186 93.734 85.9859 94.4619 85.9859 95.5054C85.9859 97.5437 83.6685 99.2545 81.157 101.074Z" fill="white"/>
<path d="M88.3226 98.757V99.4243H92.6904V101.742H93.6368V99.4243H95.1777V98.6721H93.6368V93.1273H92.4963L88.3226 98.757ZM89.3903 98.6721L92.6904 94.195V98.6721H89.3903Z" fill="white"/>
<path d="M98.3506 101.742H99.297C99.297 98.5022 100.498 96.197 102.391 93.7946V93.1273H96.2637V95.2991H97.1737V93.8674H101.493C99.5275 96.2819 98.3506 98.5386 98.3506 101.742Z" fill="white"/>
<path d="M103.044 101.742H104.221V100.565H103.044V101.742Z" fill="white"/>
<path d="M107.784 101.742H108.731V93.1273H107.954V93.6369C107.954 94.7167 107.384 94.7653 106.304 94.7653H105.491V95.5175H107.784V101.742Z" fill="white"/>
<path d="M113.788 101.887C116.312 101.887 117.198 99.6063 117.198 97.2283C117.198 96.1848 117.028 95.2506 116.628 94.5347C116.094 93.5641 115.123 92.9817 113.898 92.9817C112.053 92.9817 110.852 94.2678 110.852 95.9543C110.852 97.6287 112.102 98.8662 113.776 98.8662C114.88 98.8662 115.815 98.3081 116.264 97.2889C116.251 99.3394 115.645 101.159 113.825 101.159C112.866 101.159 112.175 100.65 111.932 99.8369L111.01 99.9339C111.253 101.123 112.296 101.887 113.788 101.887ZM111.786 95.93C111.786 94.7289 112.612 93.7218 113.922 93.7218C115.22 93.7218 116.057 94.7531 116.057 95.93C116.057 97.1191 115.22 98.1261 113.922 98.1261C112.648 98.1261 111.786 97.1676 111.786 95.93Z" fill="white"/>
<path d="M17.2268 32.3874C17.2268 36.9737 20.0508 40.1798 24.4035 40.1798C27.3761 40.1798 29.7329 38.6935 30.7946 36.1668L29.2233 35.5723C28.4165 37.6319 26.7179 38.8209 24.4035 38.8209C20.9638 38.8209 18.9467 36.1244 18.9467 32.3874C18.9467 28.6292 20.9638 25.9539 24.4035 25.9539C26.7391 25.9539 28.4165 27.1641 29.2233 29.2025L30.7946 28.6292C29.7329 26.1025 27.3973 24.595 24.4035 24.595C20.0508 24.595 17.2268 27.8011 17.2268 32.3874Z" fill="black"/>
<path d="M36.6596 40.1798C38.3582 40.1798 39.7384 39.2456 40.524 37.7381V38.736C40.524 39.6915 41.2459 40.1798 42.2863 40.1798C42.626 40.1798 42.987 40.1161 43.2842 40.01V38.736C43.1144 38.7785 42.9445 38.8209 42.7747 38.8209C42.3075 38.8209 42.0952 38.6086 42.0952 38.0778L42.1164 32.9607C42.1589 30.0306 40.1206 29.0326 38.0397 29.0326C35.7891 29.0326 34.1117 30.158 33.6658 32.2388L35.3007 32.4511C35.6617 31.0073 36.5959 30.2641 38.0185 30.2641C39.4411 30.2641 40.5027 31.0073 40.5027 32.4723C40.5027 33.2367 40.1843 33.3429 39.4836 33.4915L36.9569 33.9799C34.7699 34.4257 33.4747 35.5086 33.4747 37.3134C33.4747 39.2244 34.961 40.1798 36.6596 40.1798ZM35.1309 37.1223C35.1309 35.9333 36.0439 35.2963 37.2117 35.0415L40.5027 34.3621V35.1052C40.5027 37.2285 39.0589 38.9908 37.1904 38.9908C36.0439 38.9908 35.1309 38.3113 35.1309 37.1223Z" fill="black"/>
<path d="M49.8158 40.2011C52.3213 40.2011 54.0199 38.9059 54.0199 36.8251C54.0199 35.2114 52.9158 34.4045 51.0685 33.9586L49.0939 33.4703C48.287 33.2792 47.459 32.897 47.459 31.899C47.459 30.7525 48.5631 30.2217 49.8583 30.2217C51.2384 30.2217 52.2363 30.7949 53.0007 31.5806L53.9774 30.5614C53.022 29.6908 51.7268 29.0326 49.9007 29.0326C47.6288 29.0326 45.824 29.9669 45.824 32.0052C45.824 33.6614 47.0131 34.4257 48.4357 34.7655L50.3679 35.2326C51.4507 35.4874 52.385 35.8696 52.385 36.9524C52.385 38.184 51.4083 38.9483 49.8158 38.9483C47.9049 38.9483 46.8008 37.9292 45.9514 37.0586L45.0597 38.1415C45.824 39.012 47.374 40.2011 49.8158 40.2011Z" fill="black"/>
<path d="M57.1282 39.925H58.7206V34.6168C58.7206 31.8141 60.0583 30.2854 61.9056 30.2854C63.4555 30.2854 64.1775 31.3895 64.1775 33.0669V39.925H65.7699V32.7271C65.7699 30.3491 64.496 29.0539 62.309 29.0539C60.5679 29.0539 59.3789 29.9244 58.7206 31.4319V24.8498H57.1282V39.925Z" fill="black"/>
<path d="M70.1263 27.5463V29.3086H68.3427V30.4765H70.1263V39.925H71.7188V30.4765H74.0544V29.3086H71.7188V27.7374C71.7188 26.3785 72.4194 25.9114 73.4598 25.9114C73.6934 25.9114 73.9907 25.9326 74.2454 25.9751V24.7224C73.8633 24.6587 73.4811 24.595 73.0352 24.595C71.2304 24.595 70.1263 25.4867 70.1263 27.5463Z" fill="black"/>
<path d="M76.7436 39.925H78.3361V24.8498H76.7436V39.925Z" fill="black"/>
<path d="M86.7028 40.1798C89.9726 40.1798 92.0322 37.8655 92.0322 34.5956C92.0322 31.3682 89.9726 29.0539 86.7028 29.0539C83.4117 29.0539 81.3521 31.3682 81.3521 34.5956C81.3521 37.8655 83.4117 40.1798 86.7028 40.1798ZM83.0083 34.5956C83.0083 32.1114 84.3459 30.3066 86.7028 30.3066C89.0596 30.3066 90.3761 32.1114 90.3761 34.5956C90.3761 37.1011 89.0596 38.9059 86.7028 38.9059C84.3459 38.9059 83.0083 37.0798 83.0083 34.5956Z" fill="black"/>
<path d="M96.8837 39.925H98.455L101.088 31.3895H101.13L103.763 39.925H105.334L108.583 29.3086H107.012L104.549 37.8655H104.506L101.873 29.3086H100.345L97.7118 37.8655H97.6693L95.2064 29.3086H93.6351L96.8837 39.925Z" fill="black"/>
</g>
<defs>
<clipPath id="clip0_2_63">
<rect width="202.47" height="202.47" fill="white" transform="translate(0.530273)"/>
</clipPath>
</defs>
</svg>
