<svg width="130" height="25" viewBox="0 0 130 25" fill="none" xmlns="http://www.w3.org/2000/svg">
<g clip-path="url(#clip0_1133_4313)">
<mask id="mask0_1133_4313" style="mask-type:alpha" maskUnits="userSpaceOnUse" x="0" y="0" width="130" height="24">
<path d="M113.774 0.466248C113.549 0.466188 113.334 0.553681 113.175 0.7095C113.015 0.865319 112.926 1.07671 112.926 1.29722V7.12036H128.618L121.472 0.468051L113.774 0.466248ZM129.193 8.88195C129.193 8.77283 129.171 8.66476 129.129 8.56395C129.086 8.46313 129.024 8.37156 128.945 8.29448C128.866 8.2174 128.773 8.15633 128.67 8.11478C128.567 8.07322 128.456 8.052 128.345 8.05233H122.406V23.4369L129.19 16.4288L129.193 8.88195ZM120.606 23.9953C120.831 23.9947 121.046 23.9068 121.205 23.751C121.363 23.5951 121.452 23.384 121.452 23.1638V17.3414H105.76L112.905 23.9937L120.606 23.9953ZM105.187 15.5805C105.187 15.6896 105.209 15.7977 105.251 15.8986C105.294 15.9994 105.356 16.0911 105.435 16.1683C105.514 16.2455 105.607 16.3067 105.71 16.3485C105.813 16.3903 105.923 16.4119 106.035 16.4119H111.974V1.02624L105.188 8.03249L105.187 15.5805Z" fill="#0659A5"/>
<path d="M33.2585 3.27366V10.3782H23.1614V3.27366L19.4852 3.27231V21.1861H23.1614V13.4902H33.2585V21.1861H36.9413V3.27366H33.2585ZM82.1789 3.27366V21.1829L98.313 21.182L96.2685 18.0303H85.8679V13.4902H95.939V10.453H85.8679V6.35273H96.2515L98.2546 3.27366H82.1789ZM5.81722 3.27141C1.99109 3.27141 0.0585938 5.54971 0.0585938 8.86752V15.5552C0.0585938 19.3936 2.54757 21.1865 5.79744 21.1865L17.3326 21.1843L15.1957 17.9106H6.50937C4.66494 17.9106 3.8615 17.2571 3.8615 15.2322V9.16556C3.8615 7.20783 4.53732 6.44403 6.55858 6.44403H15.2863L17.3393 3.27163L5.81722 3.27141ZM66.0419 3.26622C63.8314 3.26622 61.5692 4.56724 61.5692 7.91594V8.77622C61.5692 12.2649 63.7482 13.5982 65.9265 13.6079H73.5781C74.3725 13.6079 75.0185 13.7368 75.0185 15.0543L75.0175 16.5769C74.9978 17.7573 74.3941 18.0303 73.5507 18.0303H63.4856L61.4236 21.1818H73.7862C76.7691 21.1818 78.7928 19.7284 78.7928 16.3679V15.1334C78.7928 11.8853 76.9128 10.3525 73.9963 10.3525H66.6908C65.8803 10.3525 65.3167 10.1345 65.3167 8.95837L65.3157 7.72025C65.3157 6.71862 65.7039 6.35273 66.6474 6.35273L76.2324 6.34912L78.2364 3.26284L66.0419 3.26622ZM47.6266 3.27637L38.9624 21.1843H43.058L44.7454 17.4859H54.1597L55.8418 21.1843H59.9538L51.2697 3.27614L47.6266 3.27637ZM49.4423 6.99343L52.7718 14.4377H46.1338L49.4423 6.99343Z" fill="#010101"/>
</mask>
<g mask="url(#mask0_1133_4313)">
<rect x="-6.01855" y="-37.524" width="140.529" height="98.75" fill="white"/>
</g>
</g>
<defs>
<clipPath id="clip0_1133_4313">
<rect width="129.135" height="23.5481" fill="white" transform="translate(0.0585938 0.456726)"/>
</clipPath>
</defs>
</svg>
