<svg width="26" height="26" viewBox="0 0 26 26" fill="none" xmlns="http://www.w3.org/2000/svg">
<circle cx="13" cy="13" r="13" fill="white"/>
<path d="M19.7098 8.20998C19.6169 8.11625 19.5063 8.04186 19.3844 7.99109C19.2625 7.94032 19.1318 7.91418 18.9998 7.91418C18.8678 7.91418 18.7371 7.94032 18.6152 7.99109C18.4934 8.04186 18.3828 8.11625 18.2898 8.20998L10.8398 15.67L7.70983 12.53C7.61331 12.4367 7.49936 12.3634 7.37451 12.3142C7.24965 12.265 7.11633 12.2409 6.98215 12.2432C6.84797 12.2455 6.71556 12.2743 6.59248 12.3278C6.4694 12.3812 6.35807 12.4585 6.26483 12.555C6.17159 12.6515 6.09828 12.7654 6.04907 12.8903C5.99987 13.0152 5.97574 13.1485 5.97806 13.2827C5.98038 13.4168 6.00911 13.5493 6.0626 13.6723C6.11609 13.7954 6.19331 13.9067 6.28983 14L10.1298 17.84C10.2228 17.9337 10.3334 18.0081 10.4553 18.0589C10.5771 18.1096 10.7078 18.1358 10.8398 18.1358C10.9718 18.1358 11.1025 18.1096 11.2244 18.0589C11.3463 18.0081 11.4569 17.9337 11.5498 17.84L19.7098 9.67998C19.8113 9.58634 19.8923 9.47269 19.9477 9.34619C20.0032 9.21969 20.0318 9.08308 20.0318 8.94498C20.0318 8.80688 20.0032 8.67028 19.9477 8.54378C19.8923 8.41728 19.8113 8.30363 19.7098 8.20998Z" fill="#276164"/>
</svg>
