<svg width="28" height="28" viewBox="0 0 28 28" fill="none" xmlns="http://www.w3.org/2000/svg">
<path d="M14.0001 0.666992C6.64008 0.666992 0.666748 6.64033 0.666748 14.0003C0.666748 21.3603 6.64008 27.3337 14.0001 27.3337C21.3601 27.3337 27.3334 21.3603 27.3334 14.0003C27.3334 6.64033 21.3601 0.666992 14.0001 0.666992ZM10.3867 19.7203L5.60008 14.9337C5.47664 14.8102 5.37872 14.6637 5.31191 14.5024C5.24511 14.3411 5.21072 14.1682 5.21072 13.9937C5.21072 13.8191 5.24511 13.6462 5.31191 13.4849C5.37872 13.3236 5.47664 13.1771 5.60008 13.0537C5.72352 12.9302 5.87007 12.8323 6.03136 12.7655C6.19264 12.6987 6.36551 12.6643 6.54008 12.6643C6.71466 12.6643 6.88752 12.6987 7.04881 12.7655C7.21009 12.8323 7.35664 12.9302 7.48008 13.0537L11.3334 16.8937L20.5067 7.72033C20.7561 7.47102 21.0942 7.33097 21.4467 7.33097C21.7993 7.33097 22.1374 7.47102 22.3867 7.72033C22.6361 7.96963 22.7761 8.30776 22.7761 8.66033C22.7761 9.01289 22.6361 9.35102 22.3867 9.60033L12.2667 19.7203C12.1434 19.8439 11.9969 19.942 11.8356 20.0089C11.6743 20.0758 11.5014 20.1103 11.3267 20.1103C11.1521 20.1103 10.9792 20.0758 10.8179 20.0089C10.6566 19.942 10.5101 19.8439 10.3867 19.7203Z" fill="#276164"/>
</svg>
