<svg width="57" height="37" viewBox="0 0 57 37" fill="none" xmlns="http://www.w3.org/2000/svg">
<mask id="mask0_1133_4310" style="mask-type:alpha" maskUnits="userSpaceOnUse" x="0" y="0" width="57" height="37">
<path fill-rule="evenodd" clip-rule="evenodd" d="M27.0195 13.481H22.4686V36.0406H27.0195V13.481ZM31.1921 13.5182V17.748H35.0235V30.4752C35.0235 32.2311 35.499 33.6415 36.4142 34.705C37.3294 35.806 38.5494 36.3497 40.0868 36.3868C41.6115 36.424 42.966 36.0775 44.1133 35.3602L44.1861 35.3231V35.2487L45.2722 30.9569L45.0037 31.1298C43.7837 31.8846 42.6615 32.2556 41.6362 32.2556C40.2211 32.2556 39.5016 31.4023 39.5016 29.7201V17.7483H44.1497V13.5182H39.5016V6.46836L35.0235 8.905V13.5182H31.1921ZM53.2154 13.481H48.6278V36.0406H53.2154V13.481ZM19.8576 17.031L19.7597 16.9567C17.6612 14.3719 15.038 13.11 11.89 13.11C8.59585 13.11 5.88698 14.1366 3.71506 16.165C1.4092 18.3047 0.25 21.1865 0.25 24.7979C0.25 28.4093 1.4092 31.2668 3.71506 33.4313C5.85029 35.4594 8.59555 36.4615 11.89 36.4615C15.038 36.4615 17.6854 35.1876 19.7597 32.6397L19.8576 32.5653L17.283 29.4114L17.1854 29.51C15.5137 31.1918 13.7204 32.0579 11.7924 32.0579C9.77921 32.0579 8.11976 31.3651 6.80217 29.9926C5.47205 28.6442 4.83786 26.9001 4.83786 24.7976C4.83786 22.6951 5.47205 20.9385 6.80217 19.566C8.11976 18.23 9.77921 17.5375 11.7924 17.5375C13.7201 17.5375 15.5137 18.4033 17.1854 20.0852L17.283 20.1843L19.8576 17.031Z" fill="#36377C"/>
<path fill-rule="evenodd" clip-rule="evenodd" d="M24.7134 9.77073C26.507 7.91559 28.508 6.50555 30.7897 5.50375C32.9861 4.53913 35.3284 4.06892 37.7443 4.06892C40.1483 4.06892 42.4903 4.53883 44.7359 5.50375C46.9684 6.50555 48.9691 7.91559 50.763 9.77073L50.8364 9.83272H56.0585L55.8634 9.52368C53.7893 6.56754 51.1046 4.23009 47.8839 2.52312C44.6625 0.82854 41.3072 0 37.7446 0C34.2187 0 30.8145 0.82854 27.5931 2.52312C24.3718 4.22979 21.6877 6.56724 19.6255 9.52338L19.4182 9.83242H24.677L24.7134 9.77073Z" fill="#CC2131"/>
<path fill-rule="evenodd" clip-rule="evenodd" d="M27.0195 13.481H22.4686V36.0406H27.0195V13.481ZM31.1921 13.5182V17.748H35.0235V30.4752C35.0235 32.2311 35.499 33.6415 36.4142 34.705C37.3294 35.806 38.5494 36.3497 40.0868 36.3868C41.6115 36.424 42.966 36.0775 44.1133 35.3602L44.1861 35.3231V35.2487L45.2722 30.9569L45.0037 31.1298C43.7837 31.8846 42.6615 32.2556 41.6362 32.2556C40.2211 32.2556 39.5016 31.4023 39.5016 29.7201V17.7483H44.1497V13.5182H39.5016V6.46836L35.0235 8.905V13.5182H31.1921ZM53.2154 13.481H48.6278V36.0406H53.2154V13.481ZM19.8576 17.031L19.7597 16.9567C17.6612 14.3719 15.038 13.11 11.89 13.11C8.59585 13.11 5.88698 14.1366 3.71506 16.165C1.4092 18.3047 0.25 21.1865 0.25 24.7979C0.25 28.4093 1.4092 31.2668 3.71506 33.4313C5.85029 35.4594 8.59555 36.4615 11.89 36.4615C15.038 36.4615 17.6854 35.1876 19.7597 32.6397L19.8576 32.5653L17.283 29.4114L17.1854 29.51C15.5137 31.1918 13.7204 32.0579 11.7924 32.0579C9.77921 32.0579 8.11976 31.3651 6.80217 29.9926C5.47205 28.6442 4.83786 26.9001 4.83786 24.7976C4.83786 22.6951 5.47205 20.9385 6.80217 19.566C8.11976 18.23 9.77921 17.5375 11.7924 17.5375C13.7201 17.5375 15.5137 18.4033 17.1854 20.0852L17.283 20.1843L19.8576 17.031Z" fill="#36377C"/>
<path fill-rule="evenodd" clip-rule="evenodd" d="M24.7134 9.77073C26.507 7.91559 28.508 6.50555 30.7897 5.50375C32.9861 4.53913 35.3284 4.06892 37.7443 4.06892C40.1483 4.06892 42.4903 4.53883 44.7359 5.50375C46.9684 6.50555 48.9691 7.91559 50.763 9.77073L50.8364 9.83272H56.0585L55.8634 9.52368C53.7893 6.56754 51.1046 4.23009 47.8839 2.52312C44.6625 0.82854 41.3072 0 37.7446 0C34.2187 0 30.8145 0.82854 27.5931 2.52312C24.3718 4.22979 21.6877 6.56724 19.6255 9.52338L19.4182 9.83242H24.677L24.7134 9.77073Z" fill="#CA3132"/>
</mask>
<g mask="url(#mask0_1133_4310)">
<rect x="-42.2881" y="-31.1442" width="140.529" height="98.75" fill="white"/>
</g>
</svg>
