<svg width="172" height="172" viewBox="0 0 172 172" fill="none" xmlns="http://www.w3.org/2000/svg">
<rect width="172" height="172" fill="white"/>
<path d="M14.8674 33.528H23.1827V32.4277H16.2744V27.251H22.5153V26.1507H16.2744V21.8217H22.8761V20.7214H14.8674V33.528Z" fill="black"/>
<path d="M31.5827 33.528H33.0978L29.8511 29.1089L33.1519 24.5093H31.6548L29.1476 28.1348L26.4961 24.5093H24.9809L28.2457 28.9646L24.8908 33.528H26.4059L28.9492 29.9386L31.5827 33.528Z" fill="black"/>
<path d="M35.2199 36.9551H36.5727V31.7423C37.204 33.0049 38.3223 33.7445 39.8194 33.7445C42.2004 33.7445 43.8779 31.8325 43.8779 29.0006C43.8779 26.1868 42.2004 24.2929 39.8194 24.2929C38.2141 24.2929 37.0417 25.1406 36.4464 26.5475V24.5093H35.2199V36.9551ZM36.5727 29.0006C36.5727 26.9083 37.6549 25.339 39.5128 25.339C41.3707 25.339 42.4709 26.8902 42.4709 29.0006C42.4709 31.129 41.3707 32.6983 39.5128 32.6983C37.6549 32.6983 36.5727 31.111 36.5727 29.0006Z" fill="black"/>
<path d="M47.3234 29.3253H54.5565C54.7729 26.4032 53.0052 24.2748 50.2816 24.2748C47.7022 24.2748 45.9165 26.2229 45.9165 29.0187C45.9165 31.8325 47.7924 33.7445 50.4259 33.7445C52.3018 33.7445 53.7448 32.7885 54.322 31.4718L53.1135 31.0569C52.6806 32.0129 51.7065 32.6622 50.462 32.6622C48.6221 32.6622 47.4317 31.3455 47.3234 29.3253ZM47.3776 28.2791C47.594 26.5295 48.6402 25.3571 50.3177 25.3571C51.905 25.3571 53.0052 26.4393 53.2217 28.2791H47.3776Z" fill="black"/>
<path d="M57.0973 33.528H58.4502V29.0187C58.4502 26.6377 59.5865 25.339 61.1558 25.339C62.4725 25.339 63.0858 26.277 63.0858 27.7019V33.528H64.4386V27.4133C64.4386 25.3931 63.3563 24.2929 61.4985 24.2929C59.8932 24.2929 58.847 25.1587 58.3239 26.6377V24.5093H57.0973V33.528Z" fill="black"/>
<path d="M70.7548 33.7625C72.8832 33.7625 74.3262 32.6622 74.3262 30.8946C74.3262 29.5237 73.3883 28.8383 71.819 28.4595L70.1415 28.0446C69.4561 27.8823 68.7526 27.5576 68.7526 26.7099C68.7526 25.7358 69.6906 25.2849 70.7909 25.2849C71.9633 25.2849 72.8111 25.7719 73.4604 26.4393L74.2901 25.5735C73.4785 24.834 72.3782 24.2748 70.827 24.2748C68.8969 24.2748 67.3638 25.0685 67.3638 26.8001C67.3638 28.207 68.3739 28.8563 69.5824 29.1449L71.2238 29.5418C72.1437 29.7582 72.9373 30.0829 72.9373 31.0028C72.9373 32.049 72.1076 32.6983 70.7548 32.6983C69.1314 32.6983 68.1935 31.8325 67.472 31.093L66.7144 32.0129C67.3638 32.7524 68.6805 33.7625 70.7548 33.7625Z" fill="black"/>
<path d="M77.8145 29.3253H85.0475C85.264 26.4032 83.4963 24.2748 80.7726 24.2748C78.1933 24.2748 76.4076 26.2229 76.4076 29.0187C76.4076 31.8325 78.2835 33.7445 80.9169 33.7445C82.7928 33.7445 84.2358 32.7885 84.813 31.4718L83.6045 31.0569C83.1716 32.0129 82.1976 32.6622 80.953 32.6622C79.1132 32.6622 77.9227 31.3455 77.8145 29.3253ZM77.8686 28.2791C78.0851 26.5295 79.1312 25.3571 80.8087 25.3571C82.396 25.3571 83.4963 26.4393 83.7127 28.2791H77.8686Z" fill="black"/>
<path d="M90.8532 33.7625C92.9816 33.7625 94.4246 32.6622 94.4246 30.8946C94.4246 29.5237 93.4866 28.8383 91.9174 28.4595L90.2399 28.0446C89.5545 27.8823 88.851 27.5576 88.851 26.7099C88.851 25.7358 89.789 25.2849 90.8893 25.2849C92.0617 25.2849 92.9095 25.7719 93.5588 26.4393L94.3885 25.5735C93.5768 24.834 92.4766 24.2748 90.9253 24.2748C88.9953 24.2748 87.4621 25.0685 87.4621 26.8001C87.4621 28.207 88.4722 28.8563 89.6807 29.1449L91.3222 29.5418C92.2421 29.7582 93.0357 30.0829 93.0357 31.0028C93.0357 32.049 92.206 32.6983 90.8532 32.6983C89.2298 32.6983 88.2919 31.8325 87.5704 31.093L86.8128 32.0129C87.4621 32.7524 88.7789 33.7625 90.8532 33.7625Z" fill="black"/>
<path d="M136.029 102.538C136.029 129.94 113.816 152.154 86.4137 152.154C59.0119 152.154 36.7983 129.94 36.7983 102.538C36.7983 75.1367 59.0119 52.9231 86.4137 52.9231C113.816 52.9231 136.029 75.1367 136.029 102.538Z" fill="#C4C4C4"/>
<path d="M136.029 102.538C136.029 114.62 131.621 126.287 123.631 135.35C115.641 144.412 104.619 150.248 92.6321 151.763L86.4137 102.538H136.029Z" fill="#1D1D1D"/>
<path d="M92.63 151.763C81.7057 153.142 70.6329 150.849 61.1555 145.243C51.6781 139.638 44.3346 131.039 40.2817 120.801L86.4137 102.538L92.63 151.763Z" fill="#226752"/>
<path d="M40.2809 120.799C37.0106 112.537 36.019 103.549 37.4098 94.7726C38.8006 85.9966 42.5227 77.7551 48.1871 70.9091L86.4137 102.538L40.2809 120.799Z" fill="#6E7B39"/>
<path d="M48.1925 70.9027C53.1849 64.8709 59.5341 60.1064 66.7207 56.9987C73.9074 53.8909 81.7275 52.5282 89.5418 53.0218L86.4137 102.538L48.1925 70.9027Z" fill="#CBD5CA"/>
<path d="M89.5441 53.022C101.067 53.7504 111.975 58.4746 120.389 66.3807L86.4137 102.538L89.5441 53.022Z" fill="#F7F04F"/>
<path d="M120.399 66.3904C125.873 71.5372 130.107 77.8602 132.781 84.8822L86.4137 102.538L120.399 66.3904Z" fill="#E4C18E"/>
<path d="M132.784 84.8892C134.934 90.5377 136.034 96.5314 136.029 102.575L86.4137 102.538L132.784 84.8892Z" fill="#E4C18E"/>
</svg>
