<svg width="32" height="32" viewBox="0 0 32 32" fill="none" xmlns="http://www.w3.org/2000/svg">
<path d="M16.0001 2.72021C8.66675 2.72021 2.66675 8.70688 2.66675 16.0802C2.66675 22.7469 7.54675 28.2802 13.9201 29.2802V19.9469H10.5334V16.0802H13.9201V13.1335C13.9201 9.78688 15.9067 7.94688 18.9601 7.94688C20.4134 7.94688 21.9334 8.20022 21.9334 8.20022V11.4935H20.2534C18.6001 11.4935 18.0801 12.5202 18.0801 13.5735V16.0802H21.7867L21.1867 19.9469H18.0801V29.2802C21.222 28.784 24.083 27.1809 26.1467 24.7603C28.2103 22.3397 29.3405 19.2611 29.3334 16.0802C29.3334 8.70688 23.3334 2.72021 16.0001 2.72021Z" fill="#276164"/>
</svg>
