<svg width="74" height="37" viewBox="0 0 74 37" fill="none" xmlns="http://www.w3.org/2000/svg">
<g clip-path="url(#clip0_1133_4322)">
<mask id="mask0_1133_4322" style="mask-type:alpha" maskUnits="userSpaceOnUse" x="0" y="0" width="74" height="37">
<path d="M28.4603 8.9888L34.8685 11.6862C28.1652 14.3837 21.61 17.5908 15.4217 21.2377C13.3708 20.1439 11.1489 19.1233 9.01355 18.1761C15.2747 14.6769 21.757 11.5419 28.4603 8.99106V8.9888ZM20.433 6.20567C13.4608 8.38245 6.72476 11.2402 0.324219 14.7366C2.31253 15.4651 4.37605 16.268 6.36322 17.0709C12.5504 13.4984 19.1067 10.4368 25.8817 8.03139C24.1133 7.37508 22.272 6.79094 20.4307 6.20905" fill="#3366CC"/>
<path d="M43.1191 8.75875C37.5951 6.13462 31.923 3.94691 26.0299 2.12456C23.9789 2.70758 21.9051 3.36502 19.9157 4.01908C25.9547 5.76925 31.849 8.02914 37.5199 10.7254C39.2883 10.0691 41.2026 9.34064 43.118 8.75762L43.1191 8.75875ZM52.0318 6.05117C46.4337 3.64582 40.6146 1.6047 34.6474 0C32.7636 0.359311 30.8959 0.797244 29.0494 1.31263C34.9425 2.9895 40.6876 5.17609 46.2127 7.74045C48.1269 7.15744 50.1164 6.57442 52.0318 6.06358V6.05117ZM66.4684 10.8608C52.3257 15.5384 39.1425 22.2459 27.208 30.7024C30.1546 32.5248 33.1012 34.4204 35.9737 36.4615C47.2439 27.6408 59.7663 20.2037 73.2458 14.6633C70.9623 13.2785 68.753 12.0392 66.4696 10.872L66.4684 10.8608ZM56.7468 6.2801C42.0879 10.1436 28.3133 16.3391 15.8638 24.5058C18.6634 25.8906 21.3878 27.3476 24.1133 28.8812C36.2688 20.5702 49.8213 14.0803 64.2591 9.77818C61.7833 8.55226 59.2781 7.38552 56.7456 6.27897" fill="#E2173E"/>
</mask>
<g mask="url(#mask0_1133_4322)">
<rect x="-33.8584" y="-30.9493" width="140.529" height="98.75" fill="white"/>
</g>
</g>
<defs>
<clipPath id="clip0_1133_4322">
<rect width="72.9216" height="36.4615" fill="white" transform="translate(0.324219)"/>
</clipPath>
</defs>
</svg>
