<svg width="474" height="320" viewBox="0 0 474 320" fill="none" xmlns="http://www.w3.org/2000/svg">
<g clip-path="url(#clip0_100_523)">
<rect width="474" height="319.172" rx="20.7591" fill="white"/>
<path d="M29.201 32.8529V42.6789H30.2805V38.3472H33.3667C35.5257 38.3472 36.5359 37.3092 36.5359 35.5931C36.5359 33.877 35.5257 32.8529 33.3667 32.8529H29.201ZM30.2805 37.503V33.6971H33.2006C34.7645 33.6971 35.4011 34.4168 35.4011 35.5931C35.4011 36.7695 34.7645 37.503 33.2006 37.503H30.2805ZM38.4105 42.6789H39.4485V39.3021C39.4485 38.361 39.8913 36.5619 41.5659 36.5619C41.7458 36.5619 41.8981 36.5757 42.0226 36.6034V35.5931C40.265 35.5931 39.5869 36.5204 39.3516 37.6967V35.7592H38.4105V42.6789ZM46.5372 42.845C48.6685 42.845 50.0109 41.3365 50.0109 39.2052C50.0109 37.1016 48.6685 35.5931 46.5372 35.5931C44.3921 35.5931 43.0497 37.1016 43.0497 39.2052C43.0497 41.3365 44.3921 42.845 46.5372 42.845ZM44.1291 39.2052C44.1291 37.586 45.001 36.4096 46.5372 36.4096C48.0734 36.4096 48.9314 37.586 48.9314 39.2052C48.9314 40.8383 48.0734 42.0146 46.5372 42.0146C45.001 42.0146 44.1291 40.8244 44.1291 39.2052ZM53.5158 36.5204H56.5051V42.6789H57.5431V35.7592H53.5158V34.7351C53.5158 33.8493 53.9725 33.5449 54.6507 33.5449C54.8029 33.5449 54.9966 33.5587 55.1627 33.5864V32.7699C54.9136 32.7284 54.6645 32.6868 54.3739 32.6868C53.1975 32.6868 52.4779 33.2681 52.4779 34.6105V35.7592H51.3154V36.5204H52.4779V42.6789H53.5158V36.5204ZM56.4359 34.0431H57.6261V32.8529H56.4359V34.0431ZM62.2377 42.845C62.5698 42.845 62.8605 42.8034 63.1096 42.7619V41.9454C62.9435 41.9731 62.7497 41.9869 62.5698 41.9869C61.9194 41.9869 61.4627 41.7655 61.4627 40.8936V36.5204H62.985V35.7592H61.4627V33.531H60.4247V35.7592H59.2622V36.5204H60.4247V41.1012C60.4247 42.4436 61.1167 42.845 62.2377 42.845ZM71.7965 42.845C72.9729 42.845 74.0246 42.4021 74.8827 41.6686C75.547 42.4575 76.1698 42.845 77.1385 42.845C77.5675 42.845 77.7751 42.7896 78.0519 42.7204L77.955 41.9039C77.7613 41.9592 77.4845 42.0146 77.2077 42.0146C76.5296 42.0146 76.1559 41.724 75.5608 40.9766C76.2805 40.1186 76.7925 39.0391 77.0001 37.8766L75.9483 37.7936C75.8099 38.6931 75.4639 39.5373 74.9657 40.2432L72.6684 37.3507L72.5853 37.2538C74.0108 36.6726 75.4224 36.119 75.4224 34.6659C75.4224 33.5172 74.4952 32.6868 73.042 32.6868C71.4505 32.6868 70.5094 33.6833 70.5094 35.0534C70.5094 35.8422 70.8139 36.4927 71.1876 37.0601C69.8728 37.6413 68.6688 38.4164 68.6688 40.0909C68.6688 41.9316 70.1081 42.845 71.7965 42.845ZM69.6791 40.0356C69.6791 38.8039 70.551 38.1534 71.6304 37.6552L71.6581 37.6967L74.3291 40.9766C73.6371 41.6133 72.7929 42.0146 71.8657 42.0146C70.6617 42.0146 69.6791 41.378 69.6791 40.0356ZM71.5059 35.0949C71.5059 34.1538 72.101 33.5172 73.0559 33.5172C73.9416 33.5172 74.4537 34.0431 74.4537 34.7351C74.4537 35.7453 73.3742 36.1882 72.1425 36.6726C71.755 36.1467 71.5059 35.6761 71.5059 35.0949ZM83.9911 42.6789H89.8175V41.8347H85.0706V32.8529H83.9911V42.6789ZM94.3805 42.845C96.5118 42.845 97.8542 41.3365 97.8542 39.2052C97.8542 37.1016 96.5118 35.5931 94.3805 35.5931C92.2354 35.5931 90.893 37.1016 90.893 39.2052C90.893 41.3365 92.2354 42.845 94.3805 42.845ZM91.9724 39.2052C91.9724 37.586 92.8443 36.4096 94.3805 36.4096C95.9167 36.4096 96.7747 37.586 96.7747 39.2052C96.7747 40.8383 95.9167 42.0146 94.3805 42.0146C92.8443 42.0146 91.9724 40.8244 91.9724 39.2052ZM102.328 42.8588C103.961 42.8588 105.068 42.0146 105.068 40.6583C105.068 39.6065 104.348 39.0806 103.144 38.79L101.857 38.4717C101.331 38.3472 100.792 38.098 100.792 37.4476C100.792 36.7003 101.511 36.3543 102.356 36.3543C103.255 36.3543 103.906 36.7279 104.404 37.24L105.04 36.5757C104.418 36.0083 103.573 35.5793 102.383 35.5793C100.902 35.5793 99.7261 36.1882 99.7261 37.5168C99.7261 38.5963 100.501 39.0945 101.428 39.3159L102.688 39.6204C103.394 39.7865 104.002 40.0356 104.002 40.7414C104.002 41.5441 103.366 42.0423 102.328 42.0423C101.082 42.0423 100.363 41.378 99.8091 40.8106L99.2278 41.5164C99.7261 42.0838 100.736 42.8588 102.328 42.8588ZM109.41 42.8588C111.043 42.8588 112.15 42.0146 112.15 40.6583C112.15 39.6065 111.43 39.0806 110.226 38.79L108.939 38.4717C108.413 38.3472 107.874 38.098 107.874 37.4476C107.874 36.7003 108.593 36.3543 109.437 36.3543C110.337 36.3543 110.987 36.7279 111.486 37.24L112.122 36.5757C111.5 36.0083 110.655 35.5793 109.465 35.5793C107.984 35.5793 106.808 36.1882 106.808 37.5168C106.808 38.5963 107.583 39.0945 108.51 39.3159L109.77 39.6204C110.475 39.7865 111.084 40.0356 111.084 40.7414C111.084 41.5441 110.448 42.0423 109.41 42.0423C108.164 42.0423 107.445 41.378 106.891 40.8106L106.31 41.5164C106.808 42.0838 107.818 42.8588 109.41 42.8588Z" fill="#226752"/>
<path d="M29.7719 118.471H31.2562V104.96H29.7719V118.471ZM35.0017 118.471H36.4289V113.714C36.4289 111.202 37.6277 109.832 39.2833 109.832C40.6724 109.832 41.3194 110.821 41.3194 112.324V118.471H42.7466V112.02C42.7466 109.889 41.6048 108.728 39.6448 108.728C37.9512 108.728 36.8475 109.641 36.2957 111.202V108.956H35.0017V118.471ZM45.3759 113.694C45.3759 116.663 47.2407 118.661 50.019 118.661C52.1693 118.661 53.8058 117.5 54.3576 115.578L53.0637 115.236C52.664 116.663 51.5794 117.538 50.0761 117.538C48.059 117.538 46.8601 115.959 46.8601 113.694C46.8601 111.43 48.059 109.851 50.0761 109.851C51.5794 109.851 52.664 110.726 53.0637 112.153L54.3576 111.811C53.8058 109.889 52.1693 108.728 50.019 108.728C47.2407 108.728 45.3759 110.726 45.3759 113.694ZM61.284 118.699C64.2145 118.699 66.0603 116.625 66.0603 113.694C66.0603 110.802 64.2145 108.728 61.284 108.728C58.3345 108.728 56.4886 110.802 56.4886 113.694C56.4886 116.625 58.3345 118.699 61.284 118.699ZM57.9729 113.694C57.9729 111.468 59.1717 109.851 61.284 109.851C63.3962 109.851 64.576 111.468 64.576 113.694C64.576 115.94 63.3962 117.557 61.284 117.557C59.1717 117.557 57.9729 115.921 57.9729 113.694ZM68.7674 118.471H70.1945V113.714C70.1945 111.202 71.3934 109.832 73.0489 109.832C74.4381 109.832 75.085 110.821 75.085 112.324V118.471H76.5122V113.714C76.5122 111.202 77.7111 109.832 79.3666 109.832C80.7558 109.832 81.4027 110.821 81.4027 112.324V118.471H82.8299V112.02C82.8299 109.889 81.6882 108.728 79.7282 108.728C78.0917 108.728 76.988 109.603 76.4171 111.068C76.1317 109.546 75.047 108.728 73.4105 108.728C71.7169 108.728 70.6132 109.641 70.0613 111.202V108.956H68.7674V118.471ZM86.9441 114.037H94.5748C94.8032 110.954 92.9383 108.709 90.0649 108.709C87.3437 108.709 85.4598 110.764 85.4598 113.714C85.4598 116.682 87.4389 118.699 90.2171 118.699C92.1962 118.699 93.7185 117.691 94.3274 116.301L93.0525 115.864C92.5958 116.872 91.5682 117.557 90.2552 117.557C88.3142 117.557 87.0583 116.168 86.9441 114.037ZM87.0012 112.933C87.2295 111.087 88.3332 109.851 90.103 109.851C91.7775 109.851 92.9383 110.992 93.1667 112.933H87.0012Z" fill="#1D1D1D"/>
<path d="M29.7719 222.266H38.5444V221.106H31.2562V215.644H37.8403V214.484H31.2562V209.917H38.2209V208.756H29.7719V222.266ZM47.4062 222.266H49.0046L45.5794 217.604L49.0617 212.752H47.4823L44.8372 216.577L42.04 212.752H40.4415L43.8858 217.452L40.3464 222.266H41.9448L44.6279 218.48L47.4062 222.266ZM51.2434 225.882H52.6706V220.383C53.3366 221.715 54.5164 222.495 56.0958 222.495C58.6077 222.495 60.3774 220.478 60.3774 217.49C60.3774 214.522 58.6077 212.524 56.0958 212.524C54.4022 212.524 53.1653 213.418 52.5374 214.902V212.752H51.2434V225.882ZM52.6706 217.49C52.6706 215.283 53.8123 213.627 55.7723 213.627C57.7324 213.627 58.8931 215.264 58.8931 217.49C58.8931 219.736 57.7324 221.391 55.7723 221.391C53.8123 221.391 52.6706 219.717 52.6706 217.49ZM64.0124 217.833H71.6431C71.8715 214.75 70.0066 212.505 67.1332 212.505C64.412 212.505 62.5282 214.56 62.5282 217.509C62.5282 220.478 64.5072 222.495 67.2855 222.495C69.2645 222.495 70.7868 221.486 71.3958 220.097L70.1208 219.659C69.6641 220.668 68.6365 221.353 67.3235 221.353C65.3825 221.353 64.1266 219.964 64.0124 217.833ZM64.0695 216.729C64.2979 214.883 65.4016 213.646 67.1713 213.646C68.8459 213.646 70.0066 214.788 70.235 216.729H64.0695ZM74.3237 222.266H75.7509V217.509C75.7509 214.997 76.9498 213.627 78.6053 213.627C79.9944 213.627 80.6414 214.617 80.6414 216.12V222.266H82.0686V215.816C82.0686 213.684 80.9269 212.524 78.9669 212.524C77.2733 212.524 76.1696 213.437 75.6177 214.997V212.752H74.3237V222.266ZM88.7321 222.514C90.9776 222.514 92.4999 221.353 92.4999 219.488C92.4999 218.042 91.5104 217.319 89.8548 216.919L88.0851 216.482C87.362 216.31 86.6199 215.968 86.6199 215.073C86.6199 214.046 87.6094 213.57 88.7702 213.57C90.0071 213.57 90.9014 214.084 91.5865 214.788L92.4618 213.875C91.6055 213.094 90.4447 212.505 88.8082 212.505C86.7721 212.505 85.1546 213.342 85.1546 215.169C85.1546 216.653 86.2203 217.338 87.4952 217.642L89.2269 218.061C90.1974 218.289 91.0346 218.632 91.0346 219.602C91.0346 220.706 90.1593 221.391 88.7321 221.391C87.0195 221.391 86.03 220.478 85.2688 219.698L84.4696 220.668C85.1546 221.448 86.5438 222.514 88.7321 222.514ZM96.18 217.833H103.811C104.039 214.75 102.174 212.505 99.3007 212.505C96.5796 212.505 94.6957 214.56 94.6957 217.509C94.6957 220.478 96.6747 222.495 99.453 222.495C101.432 222.495 102.954 221.486 103.563 220.097L102.288 219.659C101.832 220.668 100.804 221.353 99.491 221.353C97.5501 221.353 96.2941 219.964 96.18 217.833ZM96.237 216.729C96.4654 214.883 97.5691 213.646 99.3388 213.646C101.013 213.646 102.174 214.788 102.403 216.729H96.237ZM109.936 222.514C112.181 222.514 113.703 221.353 113.703 219.488C113.703 218.042 112.714 217.319 111.058 216.919L109.289 216.482C108.565 216.31 107.823 215.968 107.823 215.073C107.823 214.046 108.813 213.57 109.974 213.57C111.21 213.57 112.105 214.084 112.79 214.788L113.665 213.875C112.809 213.094 111.648 212.505 110.012 212.505C107.976 212.505 106.358 213.342 106.358 215.169C106.358 216.653 107.424 217.338 108.699 217.642L110.43 218.061C111.401 218.289 112.238 218.632 112.238 219.602C112.238 220.706 111.363 221.391 109.936 221.391C108.223 221.391 107.233 220.478 106.472 219.698L105.673 220.668C106.358 221.448 107.747 222.514 109.936 222.514Z" fill="#1D1D1D"/>
<path d="M275.924 28.5439H338.201V26.8139H275.924V28.5439ZM344.256 34.5986V42.3833H345.986V34.5986H344.256ZM338.201 48.438H275.924V50.1679H338.201V48.438ZM269.869 42.3833V34.5986H268.139V42.3833H269.869ZM275.924 48.438C272.58 48.438 269.869 45.7272 269.869 42.3833H268.139C268.139 46.6826 271.624 50.1679 275.924 50.1679V48.438ZM344.256 42.3833C344.256 45.7272 341.545 48.438 338.201 48.438V50.1679C342.5 50.1679 345.986 46.6826 345.986 42.3833H344.256ZM338.201 28.5439C341.545 28.5439 344.256 31.2547 344.256 34.5986H345.986C345.986 30.2992 342.5 26.8139 338.201 26.8139V28.5439ZM275.924 26.8139C271.624 26.8139 268.139 30.2992 268.139 34.5986H269.869C269.869 31.2547 272.58 28.5439 275.924 28.5439V26.8139Z" fill="#AEB2B7"/>
<path d="M362.42 28.5439H439.401V26.8139H362.42V28.5439ZM445.456 34.5986V42.3833H447.186V34.5986H445.456ZM439.401 48.438H362.42V50.1679H439.401V48.438ZM356.365 42.3833V34.5986H354.635V42.3833H356.365ZM362.42 48.438C359.076 48.438 356.365 45.7272 356.365 42.3833H354.635C354.635 46.6826 358.12 50.1679 362.42 50.1679V48.438ZM445.456 42.3833C445.456 45.7272 442.745 48.438 439.401 48.438V50.1679C443.701 50.1679 447.186 46.6826 447.186 42.3833H445.456ZM439.401 28.5439C442.745 28.5439 445.456 31.2547 445.456 34.5986H447.186C447.186 30.2992 443.701 26.8139 439.401 26.8139V28.5439ZM362.42 26.8139C358.12 26.8139 354.635 30.2992 354.635 34.5986H356.365C356.365 31.2547 359.076 28.5439 362.42 28.5439V26.8139Z" fill="#AEB2B7"/>
<rect x="27.6787" y="136.664" width="418.642" height="6.91971" rx="3.45985" fill="#F2F2EF"/>
<rect x="27.6787" y="240.46" width="418.642" height="6.91971" rx="3.45985" fill="#F2F2EF"/>
<rect x="27.6787" y="136.664" width="350.31" height="6.91971" rx="3.45985" fill="#226752"/>
<rect x="27.6787" y="240.46" width="68.3321" height="6.91971" rx="3.45985" fill="#656A47"/>
<rect x="28" y="160" width="36" height="4" rx="2" fill="#F2F2EF"/>
<rect x="28" y="257" width="36" height="4" rx="2" fill="#F2F2EF"/>
<rect x="28" y="281" width="24" height="4" rx="2" fill="#F2F2EF"/>
<rect x="28" y="305" width="53" height="4" rx="2" fill="#F2F2EF"/>
<rect x="28" y="172" width="42" height="4" rx="2" fill="#F2F2EF"/>
<rect x="28" y="269" width="45" height="4" rx="2" fill="#F2F2EF"/>
<rect x="28" y="293" width="45" height="4" rx="2" fill="#F2F2EF"/>
<rect x="28" y="317" width="36" height="4" rx="2" fill="#F2F2EF"/>
</g>
<defs>
<clipPath id="clip0_100_523">
<rect width="474" height="319.172" rx="20.7591" fill="white"/>
</clipPath>
</defs>
</svg>
