<svg width="130" height="24" viewBox="0 0 130 24" fill="none" xmlns="http://www.w3.org/2000/svg">
<path d="M113.231 0.118813C112.768 0.118813 112.392 0.494374 112.392 0.957471V6.83944H127.929L120.854 0.119355L113.231 0.118813Z" fill="#117ACA"/>
<path d="M128.498 8.61889C128.498 8.1547 128.125 7.78076 127.659 7.78076H121.778V23.3187L128.495 16.2398L128.498 8.61889Z" fill="#117ACA"/>
<path d="M119.997 23.8812C120.459 23.8812 120.835 23.5051 120.835 23.0409V17.1611H105.297L112.374 23.8801L119.997 23.8812Z" fill="#117ACA"/>
<path d="M104.729 15.3822C104.729 15.8458 105.105 16.2236 105.569 16.2236H111.449V0.684586L104.73 7.76131L104.729 15.3822Z" fill="#117ACA"/>
<path d="M33.5115 2.95524V10.1309H23.5146V2.95524L19.8735 2.952V21.0448H23.5146V13.272H33.5115V21.0448H37.1585V2.95524H33.5115Z" fill="#211E1E"/>
<path d="M81.9492 2.95524V21.0405H97.9232L95.9 17.8566H85.6005V13.272H95.5737V10.2054H85.6005V6.06455H95.8828L97.8648 2.95524H81.9492Z" fill="#211E1E"/>
<path d="M6.33957 2.95091C2.5521 2.95091 0.63916 5.25344 0.63916 8.60377V15.3574C0.63916 19.2345 3.10434 21.0448 6.32065 21.0448L17.7442 21.0437L15.6264 17.7366H7.02638C5.19937 17.7366 4.40341 17.0763 4.40341 15.0315V8.90421C4.40341 6.92753 5.07347 6.15641 7.07501 6.15641H15.7161L17.7496 2.95091H6.33957Z" fill="#211E1E"/>
<path d="M65.9711 2.94659C63.7837 2.94659 61.5417 4.26132 61.5417 7.64298V8.51189C61.5417 12.0373 63.6989 13.3823 65.8571 13.3915H73.4326C74.2194 13.3915 74.8587 13.5222 74.8587 14.8521L74.8576 16.3884C74.8376 17.5831 74.2415 17.8566 73.4056 17.8566H63.4395L61.3979 21.0405H73.6401C76.5922 21.0405 78.5964 19.5717 78.5964 16.1793V14.9326C78.5964 11.6525 76.7343 10.1028 73.8471 10.1028H66.6136C65.8117 10.1028 65.253 9.8839 65.253 8.69616V7.4452C65.253 6.43362 65.6361 6.06455 66.5704 6.06455L76.0615 6.06076L78.0452 2.94227L65.9711 2.94659Z" fill="#211E1E"/>
<path d="M47.7371 2.95524L39.1587 21.0437H43.2131L44.884 17.3081H54.2059L55.8714 21.0437H59.9436L51.3452 2.95524H47.7371ZM49.536 6.71083L52.8323 14.229H46.2608L49.536 6.71083Z" fill="#211E1E"/>
</svg>
