<svg width="612" height="471" viewBox="0 0 612 471" fill="none" xmlns="http://www.w3.org/2000/svg">
<g filter="url(#filter0_b_1151_4273)">
<rect x="336" y="324" width="276" height="107" rx="8" fill="#1D1D1D" fill-opacity="0.6"/>
<rect x="360" y="349.5" width="56" height="56" rx="28" fill="#FAE3C3"/>
<path d="M385 383H387C387.265 383 387.52 382.895 387.707 382.707C387.895 382.52 388 382.265 388 382V380H382V387H390.35C390.777 387 391.198 386.901 391.58 386.71L397 384V380L391.46 381.85C391.157 381.95 390.839 382 390.52 382H388" stroke="#1D1D1D" stroke-width="2" stroke-linecap="round" stroke-linejoin="round"/>
<path d="M382 379H379V388H382V379Z" stroke="#1D1D1D" stroke-width="2" stroke-linecap="round" stroke-linejoin="round"/>
<path d="M391.5 378C394.538 378 397 375.538 397 372.5C397 369.462 394.538 367 391.5 367C388.462 367 386 369.462 386 372.5C386 375.538 388.462 378 391.5 378Z" stroke="#1D1D1D" stroke-width="2" stroke-linecap="round" stroke-linejoin="round"/>
<path d="M438.576 366.192C441.856 366.192 444.016 363.728 444.016 360.32C444.016 356.912 441.856 354.448 438.576 354.448C435.296 354.448 433.152 356.912 433.152 360.32C433.152 363.728 435.296 366.192 438.576 366.192ZM434.448 360.32C434.448 357.536 436.016 355.456 438.576 355.456C441.136 355.456 442.704 357.536 442.704 360.32C442.704 363.104 441.136 365.184 438.576 365.184C436.016 365.184 434.448 363.104 434.448 360.32ZM448.115 366H449.299L451.283 359.568H451.315L453.299 366H454.483L456.931 358H455.747L453.891 364.448H453.859L451.875 358H450.723L448.739 364.448H448.707L446.851 358H445.667L448.115 366ZM458.767 366H459.967V362C459.967 359.888 460.975 358.736 462.367 358.736C463.535 358.736 464.079 359.568 464.079 360.832V366H465.279V360.576C465.279 358.784 464.319 357.808 462.671 357.808C461.247 357.808 460.319 358.576 459.855 359.888V358H458.767V366ZM468.737 362.272H475.153C475.345 359.68 473.777 357.792 471.361 357.792C469.073 357.792 467.489 359.52 467.489 362C467.489 364.496 469.153 366.192 471.489 366.192C473.153 366.192 474.433 365.344 474.945 364.176L473.873 363.808C473.489 364.656 472.625 365.232 471.521 365.232C469.889 365.232 468.833 364.064 468.737 362.272ZM468.785 361.344C468.977 359.792 469.905 358.752 471.393 358.752C472.801 358.752 473.777 359.712 473.969 361.344H468.785ZM477.407 366H478.607V362.096C478.607 361.008 479.119 358.928 481.055 358.928C481.263 358.928 481.439 358.944 481.583 358.976V357.808C479.551 357.808 478.767 358.88 478.495 360.24V358H477.407V366ZM486.272 366.208C488.16 366.208 489.44 365.232 489.44 363.664C489.44 362.448 488.608 361.84 487.216 361.504L485.728 361.136C485.12 360.992 484.496 360.704 484.496 359.952C484.496 359.088 485.328 358.688 486.304 358.688C487.344 358.688 488.096 359.12 488.672 359.712L489.408 358.944C488.688 358.288 487.712 357.792 486.336 357.792C484.624 357.792 483.264 358.496 483.264 360.032C483.264 361.28 484.16 361.856 485.232 362.112L486.688 362.464C487.504 362.656 488.208 362.944 488.208 363.76C488.208 364.688 487.472 365.264 486.272 365.264C484.832 365.264 484 364.496 483.36 363.84L482.688 364.656C483.264 365.312 484.432 366.208 486.272 366.208ZM503.216 366V354.64H502.016V359.568C501.456 358.464 500.464 357.808 499.136 357.808C497.024 357.808 495.536 359.488 495.536 361.984C495.536 364.496 497.024 366.192 499.136 366.192C500.56 366.192 501.6 365.44 502.128 364.176V366H503.216ZM496.784 361.984C496.784 360.112 497.76 358.736 499.408 358.736C501.056 358.736 502.016 360.128 502.016 361.984C502.016 363.856 501.056 365.264 499.408 365.264C497.76 365.264 496.784 363.872 496.784 361.984ZM505.97 366H507.17V362.096C507.17 361.008 507.682 358.928 509.618 358.928C509.826 358.928 510.002 358.944 510.146 358.976V357.808C508.114 357.808 507.33 358.88 507.058 360.24V358H505.97V366ZM513.952 366.192C515.232 366.192 516.272 365.488 516.864 364.352V365.104C516.864 365.824 517.408 366.192 518.192 366.192C518.448 366.192 518.72 366.144 518.944 366.064V365.104C518.816 365.136 518.688 365.168 518.56 365.168C518.208 365.168 518.048 365.008 518.048 364.608L518.064 360.752C518.096 358.544 516.56 357.792 514.992 357.792C513.296 357.792 512.032 358.64 511.696 360.208L512.928 360.368C513.2 359.28 513.904 358.72 514.976 358.72C516.048 358.72 516.848 359.28 516.848 360.384C516.848 360.96 516.608 361.04 516.08 361.152L514.176 361.52C512.528 361.856 511.552 362.672 511.552 364.032C511.552 365.472 512.672 366.192 513.952 366.192ZM512.8 363.888C512.8 362.992 513.488 362.512 514.368 362.32L516.848 361.808V362.368C516.848 363.968 515.76 365.296 514.352 365.296C513.488 365.296 512.8 364.784 512.8 363.888ZM522.021 366H523.205L525.189 359.568H525.221L527.205 366H528.389L530.837 358H529.653L527.797 364.448H527.765L525.781 358H524.629L522.645 364.448H522.613L520.757 358H519.573L522.021 366Z" fill="white"/>
<path d="M438.947 400.75H440.839V398.308C444.139 398.044 446.229 396.372 446.229 393.446C446.229 391.07 444.865 389.662 442.247 389.002L440.839 388.65V384.184C442.467 384.382 443.655 385.152 444.601 386.12L446.229 384.338C444.931 383.172 443.171 382.248 440.839 382.072V379.63H438.947V382.094C436.065 382.38 434.107 383.81 434.107 386.516C434.107 389.002 435.757 390.146 438.023 390.718L438.947 390.96V396.13C436.945 395.822 435.603 394.656 434.481 393.49L432.941 395.272C433.975 396.394 435.933 397.978 438.947 398.286V400.75ZM436.945 386.252C436.945 385.064 437.825 384.448 438.947 384.228V388.166C437.759 387.836 436.945 387.418 436.945 386.252ZM440.839 396.174V391.444C442.445 391.84 443.413 392.368 443.413 393.776C443.413 395.206 442.445 395.976 440.839 396.174ZM454.509 396.218C452.815 396.218 451.451 395.272 451.187 393.534L448.547 393.82C448.877 396.438 451.121 398.33 454.553 398.33C457.897 398.33 460.383 396.592 460.383 393.71C460.383 391.466 458.975 390.256 457.325 389.926V389.882C458.931 389.42 460.053 388.232 460.053 386.384C460.053 383.766 457.897 382.072 454.729 382.072C451.407 382.072 449.383 383.854 449.009 386.428L451.825 386.648C452.023 385.086 453.123 384.162 454.685 384.162C456.181 384.162 457.237 384.998 457.237 386.384C457.237 387.814 456.115 388.936 453.717 388.936H452.793V391.026H454.047C456.313 391.026 457.545 391.95 457.545 393.6C457.545 395.184 456.357 396.218 454.509 396.218ZM463.83 401.608H464.292C466.074 401.608 466.866 400.86 466.866 399.056V394.964H463.83V398H465.106V399.034C465.106 399.782 464.82 400.046 464.072 400.046H463.83V401.608ZM475.863 398.33C480.549 398.33 482.375 394.414 482.375 389.992C482.375 387.99 482.001 386.23 481.209 384.888C480.175 383.128 478.349 382.05 475.995 382.05C472.563 382.05 470.253 384.36 470.253 387.528C470.253 390.608 472.629 392.808 475.643 392.808C477.227 392.808 478.811 392.148 479.713 390.674C479.603 393.996 478.503 396.306 475.973 396.306C474.565 396.306 473.487 395.558 473.135 394.282L470.473 394.546C470.847 396.856 472.937 398.33 475.863 398.33ZM472.871 387.44C472.871 385.636 474.147 384.14 476.083 384.14C478.041 384.14 479.295 385.658 479.295 387.44C479.295 389.222 478.019 390.718 476.083 390.718C474.169 390.718 472.871 389.288 472.871 387.44ZM488.623 398H491.307V382.38H489.085V383.15C489.085 385.174 487.853 385.306 485.675 385.306H484.641V387.396H488.623V398ZM501.105 398.33C505.153 398.33 507.441 394.986 507.441 390.19C507.441 385.394 505.153 382.05 501.105 382.05C497.057 382.05 494.769 385.394 494.769 390.19C494.769 394.986 497.057 398.33 501.105 398.33ZM497.607 390.19C497.607 386.736 498.707 384.162 501.105 384.162C503.481 384.162 504.603 386.736 504.603 390.19C504.603 393.644 503.481 396.218 501.105 396.218C498.707 396.218 497.607 393.644 497.607 390.19ZM510.924 398H513.96V394.964H510.924V398ZM523.815 398.33C527.247 398.33 529.579 396.108 529.579 393.05C529.579 389.992 527.291 387.924 524.299 387.924C522.407 387.924 520.801 388.782 520.009 390.52V390.344C520.009 386.912 521.153 384.074 523.859 384.074C525.333 384.074 526.257 384.91 526.521 386.208L529.205 385.944C528.897 383.524 526.917 382.05 523.991 382.05C519.327 382.05 517.369 386.076 517.369 390.498C517.369 392.412 517.743 394.172 518.535 395.492C519.569 397.274 521.527 398.33 523.815 398.33ZM520.559 393.116C520.559 391.488 521.813 389.97 523.793 389.97C525.751 389.97 526.939 391.4 526.939 393.116C526.939 394.854 525.729 396.262 523.771 396.262C521.813 396.262 520.559 394.766 520.559 393.116ZM538.338 398.33C542.386 398.33 544.674 394.986 544.674 390.19C544.674 385.394 542.386 382.05 538.338 382.05C534.29 382.05 532.002 385.394 532.002 390.19C532.002 394.986 534.29 398.33 538.338 398.33ZM534.84 390.19C534.84 386.736 535.94 384.162 538.338 384.162C540.714 384.162 541.836 386.736 541.836 390.19C541.836 393.644 540.714 396.218 538.338 396.218C535.94 396.218 534.84 393.644 534.84 390.19Z" fill="white"/>
</g>
<path opacity="0.64" d="M122 270.042C122 270.594 122.448 271.042 123 271.042C123.552 271.042 124 270.594 124 270.042H122ZM124 276.125C124 275.573 123.552 275.125 123 275.125C122.448 275.125 122 275.573 122 276.125H124ZM122 282.208C122 282.761 122.448 283.208 123 283.208C123.552 283.208 124 282.761 124 282.208H122ZM124 288.292C124 287.739 123.552 287.292 123 287.292C122.448 287.292 122 287.739 122 288.292H124ZM122 294.375C122 294.927 122.448 295.375 123 295.375C123.552 295.375 124 294.927 124 294.375H122ZM124 300.458C124 299.906 123.552 299.458 123 299.458C122.448 299.458 122 299.906 122 300.458H124ZM122 306.542C122 307.094 122.448 307.542 123 307.542C123.552 307.542 124 307.094 124 306.542H122ZM124 312.625C124 312.073 123.552 311.625 123 311.625C122.448 311.625 122 312.073 122 312.625H124ZM122 318.708C122 319.261 122.448 319.708 123 319.708C123.552 319.708 124 319.261 124 318.708H122ZM124 324.792C124 324.239 123.552 323.792 123 323.792C122.448 323.792 122 324.239 122 324.792H124ZM122 330.875C122 331.427 122.448 331.875 123 331.875C123.552 331.875 124 331.427 124 330.875H122ZM124 336.958C124 336.406 123.552 335.958 123 335.958C122.448 335.958 122 336.406 122 336.958H124ZM122.125 343.219C122.167 343.77 122.648 344.181 123.199 344.138C123.75 344.096 124.161 343.615 124.119 343.064L122.125 343.219ZM125.069 349.109C124.941 348.572 124.401 348.241 123.864 348.369C123.327 348.498 122.996 349.037 123.124 349.575L125.069 349.109ZM125.111 355.695C125.323 356.205 125.908 356.447 126.418 356.235C126.928 356.024 127.171 355.439 126.959 354.928L125.111 355.695ZM129.741 360.379C129.452 359.908 128.837 359.761 128.366 360.05C127.895 360.339 127.748 360.955 128.037 361.426L129.741 360.379ZM131.823 366.628C132.182 367.048 132.813 367.097 133.233 366.738C133.653 366.379 133.702 365.748 133.343 365.328L131.823 366.628ZM137.672 369.657C137.252 369.298 136.621 369.347 136.262 369.767C135.903 370.187 135.952 370.818 136.372 371.177L137.672 369.657ZM141.574 374.963C142.045 375.252 142.661 375.105 142.95 374.634C143.239 374.163 143.092 373.548 142.621 373.259L141.574 374.963ZM148.072 376.041C147.561 375.829 146.976 376.072 146.765 376.582C146.553 377.092 146.795 377.677 147.305 377.889L148.072 376.041ZM153.425 379.876C153.963 380.004 154.502 379.673 154.631 379.136C154.759 378.599 154.428 378.059 153.891 377.931L153.425 379.876ZM159.936 378.881C159.385 378.839 158.904 379.25 158.862 379.801C158.819 380.352 159.23 380.833 159.781 380.875L159.936 378.881ZM166.089 381C166.642 381 167.089 380.552 167.089 380C167.089 379.448 166.642 379 166.089 379V381ZM172.268 379C171.716 379 171.268 379.448 171.268 380C171.268 380.552 171.716 381 172.268 381V379ZM178.446 381C178.999 381 179.446 380.552 179.446 380C179.446 379.448 178.999 379 178.446 379V381ZM184.625 379C184.073 379 183.625 379.448 183.625 380C183.625 380.552 184.073 381 184.625 381V379ZM190.804 381C191.356 381 191.804 380.552 191.804 380C191.804 379.448 191.356 379 190.804 379V381ZM196.982 379C196.43 379 195.982 379.448 195.982 380C195.982 380.552 196.43 381 196.982 381V379ZM203.161 381C203.713 381 204.161 380.552 204.161 380C204.161 379.448 203.713 379 203.161 379V381ZM209.339 379C208.787 379 208.339 379.448 208.339 380C208.339 380.552 208.787 381 209.339 381V379ZM215.518 381C216.07 381 216.518 380.552 216.518 380C216.518 379.448 216.07 379 215.518 379V381ZM221.696 379C221.144 379 220.696 379.448 220.696 380C220.696 380.552 221.144 381 221.696 381V379ZM227.875 381C228.427 381 228.875 380.552 228.875 380C228.875 379.448 228.427 379 227.875 379V381ZM234.054 379C233.501 379 233.054 379.448 233.054 380C233.054 380.552 233.501 381 234.054 381V379ZM240.232 381C240.784 381 241.232 380.552 241.232 380C241.232 379.448 240.784 379 240.232 379V381ZM246.411 379C245.858 379 245.411 379.448 245.411 380C245.411 380.552 245.858 381 246.411 381V379ZM252.589 381C253.142 381 253.589 380.552 253.589 380C253.589 379.448 253.142 379 252.589 379V381ZM258.768 379C258.216 379 257.768 379.448 257.768 380C257.768 380.552 258.216 381 258.768 381V379ZM264.946 381C265.499 381 265.946 380.552 265.946 380C265.946 379.448 265.499 379 264.946 379V381ZM271.125 379C270.573 379 270.125 379.448 270.125 380C270.125 380.552 270.573 381 271.125 381V379ZM277.304 381C277.856 381 278.304 380.552 278.304 380C278.304 379.448 277.856 379 277.304 379V381ZM283.482 379C282.93 379 282.482 379.448 282.482 380C282.482 380.552 282.93 381 283.482 381V379ZM289.661 381C290.213 381 290.661 380.552 290.661 380C290.661 379.448 290.213 379 289.661 379V381ZM295.839 379C295.287 379 294.839 379.448 294.839 380C294.839 380.552 295.287 381 295.839 381V379ZM302.018 381C302.57 381 303.018 380.552 303.018 380C303.018 379.448 302.57 379 302.018 379V381ZM308.196 379C307.644 379 307.196 379.448 307.196 380C307.196 380.552 307.644 381 308.196 381V379ZM314.375 381C314.927 381 315.375 380.552 315.375 380C315.375 379.448 314.927 379 314.375 379V381ZM320.554 379C320.001 379 319.554 379.448 319.554 380C319.554 380.552 320.001 381 320.554 381V379ZM326.732 381C327.284 381 327.732 380.552 327.732 380C327.732 379.448 327.284 379 326.732 379V381ZM332.911 379C332.358 379 331.911 379.448 331.911 380C331.911 380.552 332.358 381 332.911 381V379ZM122 267V270.042H124V267H122ZM122 276.125V282.208H124V276.125H122ZM122 288.292V294.375H124V288.292H122ZM122 300.458V306.542H124V300.458H122ZM122 312.625V318.708H124V312.625H122ZM122 324.792V330.875H124V324.792H122ZM122 336.958V340H124V336.958H122ZM122 340C122 341.083 122.042 342.157 122.125 343.219L124.119 343.064C124.04 342.053 124 341.031 124 340H122ZM123.124 349.575C123.629 351.682 124.296 353.727 125.111 355.695L126.959 354.928C126.183 353.058 125.549 351.114 125.069 349.109L123.124 349.575ZM128.037 361.426C129.164 363.26 130.431 364.999 131.823 366.628L133.343 365.328C132.018 363.779 130.813 362.124 129.741 360.379L128.037 361.426ZM136.372 371.177C138.001 372.569 139.74 373.836 141.574 374.963L142.621 373.259C140.876 372.187 139.221 370.982 137.672 369.657L136.372 371.177ZM147.305 377.889C149.273 378.704 151.318 379.371 153.425 379.876L153.891 377.931C151.886 377.451 149.942 376.817 148.072 376.041L147.305 377.889ZM159.781 380.875C160.843 380.958 161.917 381 163 381V379C161.969 379 160.947 378.96 159.936 378.881L159.781 380.875ZM163 381H166.089V379H163V381ZM172.268 381H178.446V379H172.268V381ZM184.625 381H190.804V379H184.625V381ZM196.982 381H203.161V379H196.982V381ZM209.339 381H215.518V379H209.339V381ZM221.696 381H227.875V379H221.696V381ZM234.054 381H240.232V379H234.054V381ZM246.411 381H252.589V379H246.411V381ZM258.768 381H264.946V379H258.768V381ZM271.125 381H277.304V379H271.125V381ZM283.482 381H289.661V379H283.482V381ZM295.839 381H302.018V379H295.839V381ZM308.196 381H314.375V379H308.196V381ZM320.554 381H326.732V379H320.554V381ZM332.911 381H336V379H332.911V381Z" fill="white"/>
<g filter="url(#filter1_b_1151_4273)">
<rect y="124.542" width="185" height="67.3629" rx="5.96774" fill="#1D1D1D" fill-opacity="0.6"/>
<path d="M13.2465 149.478H18.7488V148.75H14.1775V145.324H18.3071V144.596H14.1775V141.732H18.5459V141.004H13.2465V149.478ZM24.3071 149.478H25.3096L23.1612 146.554L25.3454 143.51H24.3548L22.6958 145.909L20.9412 143.51H19.9387L22.099 146.458L19.879 149.478H20.8816L22.5645 147.103L24.3071 149.478ZM26.7138 151.746H27.609V148.296C28.0267 149.132 28.7667 149.621 29.7574 149.621C31.3329 149.621 32.4429 148.356 32.4429 146.482C32.4429 144.62 31.3329 143.367 29.7574 143.367C28.6951 143.367 27.9193 143.928 27.5254 144.859V143.51H26.7138V151.746ZM27.609 146.482C27.609 145.098 28.3251 144.059 29.5545 144.059C30.7838 144.059 31.5119 145.086 31.5119 146.482C31.5119 147.891 30.7838 148.929 29.5545 148.929C28.3251 148.929 27.609 147.879 27.609 146.482ZM34.7228 146.697H39.5089C39.6522 144.764 38.4825 143.355 36.6802 143.355C34.9735 143.355 33.7918 144.644 33.7918 146.494C33.7918 148.356 35.0331 149.621 36.7757 149.621C38.017 149.621 38.9718 148.989 39.3538 148.117L38.5541 147.843C38.2677 148.475 37.6231 148.905 36.7996 148.905C35.5822 148.905 34.7944 148.034 34.7228 146.697ZM34.7586 146.005C34.9018 144.847 35.5941 144.071 36.7041 144.071C37.7544 144.071 38.4825 144.787 38.6257 146.005H34.7586ZM41.1903 149.478H42.0854V146.494C42.0854 144.919 42.8374 144.059 43.8757 144.059C44.747 144.059 45.1528 144.68 45.1528 145.623V149.478H46.048V145.432C46.048 144.095 45.3319 143.367 44.1025 143.367C43.0403 143.367 42.348 143.94 42.0019 144.919V143.51H41.1903V149.478ZM50.2275 149.633C51.6359 149.633 52.5907 148.905 52.5907 147.735C52.5907 146.828 51.9701 146.375 50.9317 146.124L49.8217 145.85C49.3681 145.742 48.9026 145.527 48.9026 144.966C48.9026 144.322 49.5233 144.024 50.2513 144.024C51.0272 144.024 51.5881 144.346 52.0178 144.787L52.5668 144.214C52.0297 143.725 51.3017 143.355 50.2752 143.355C48.9981 143.355 47.9836 143.88 47.9836 145.026C47.9836 145.957 48.652 146.387 49.4517 146.578L50.5378 146.84C51.1465 146.984 51.6717 147.198 51.6717 147.807C51.6717 148.499 51.1226 148.929 50.2275 148.929C49.1533 148.929 48.5326 148.356 48.0552 147.867L47.5539 148.475C47.9836 148.965 48.8549 149.633 50.2275 149.633ZM54.8989 146.697H59.685C59.8283 144.764 58.6586 143.355 56.8563 143.355C55.1496 143.355 53.9679 144.644 53.9679 146.494C53.9679 148.356 55.2092 149.621 56.9518 149.621C58.1931 149.621 59.1479 148.989 59.5299 148.117L58.7302 147.843C58.4438 148.475 57.7992 148.905 56.9757 148.905C55.7583 148.905 54.9705 148.034 54.8989 146.697ZM54.9347 146.005C55.0779 144.847 55.7702 144.071 56.8802 144.071C57.9305 144.071 58.6586 144.787 58.8018 146.005H54.9347ZM63.5267 149.633C64.9351 149.633 65.8899 148.905 65.8899 147.735C65.8899 146.828 65.2693 146.375 64.2309 146.124L63.1209 145.85C62.6673 145.742 62.2018 145.527 62.2018 144.966C62.2018 144.322 62.8225 144.024 63.5506 144.024C64.3264 144.024 64.8873 144.346 65.317 144.787L65.866 144.214C65.3289 143.725 64.6009 143.355 63.5744 143.355C62.2973 143.355 61.2828 143.88 61.2828 145.026C61.2828 145.957 61.9512 146.387 62.7509 146.578L63.837 146.84C64.4457 146.984 64.9709 147.198 64.9709 147.807C64.9709 148.499 64.4218 148.929 63.5267 148.929C62.4525 148.929 61.8318 148.356 61.3544 147.867L60.8531 148.475C61.2828 148.965 62.1541 149.633 63.5267 149.633Z" fill="white"/>
<path d="M17.2071 176.021H18.6185V174.199C21.0802 174.003 22.6392 172.755 22.6392 170.573C22.6392 168.8 21.6217 167.75 19.6688 167.258L18.6185 166.995V163.663C19.8329 163.811 20.7191 164.386 21.4248 165.108L22.6392 163.778C21.671 162.909 20.3581 162.219 18.6185 162.088V160.266H17.2071V162.104C15.0572 162.318 13.5966 163.384 13.5966 165.403C13.5966 167.258 14.8275 168.111 16.5178 168.538L17.2071 168.718V172.575C15.7137 172.345 14.7126 171.475 13.8756 170.605L12.7268 171.935C13.4981 172.772 14.9587 173.953 17.2071 174.183V176.021ZM15.7137 165.206C15.7137 164.32 16.3701 163.86 17.2071 163.696V166.634C16.3209 166.388 15.7137 166.076 15.7137 165.206ZM18.6185 172.608V169.079C19.8165 169.375 20.5386 169.768 20.5386 170.819C20.5386 171.885 19.8165 172.46 18.6185 172.608ZM27.3716 173.97H29.3738V162.318H27.7162V162.892C27.7162 164.402 26.7972 164.5 25.1725 164.5H24.4011V166.059H27.3716V173.97ZM32.5799 176.661H32.9245C34.2538 176.661 34.8446 176.103 34.8446 174.757V171.705H32.5799V173.97H33.5317V174.741C33.5317 175.299 33.3184 175.496 32.7604 175.496H32.5799V176.661ZM42.1966 174.216C44.7568 174.216 46.4964 172.558 46.4964 170.277C46.4964 167.996 44.7896 166.453 42.5577 166.453C41.1463 166.453 39.9483 167.093 39.3575 168.39V168.259C39.3575 165.698 40.2108 163.581 42.2294 163.581C43.329 163.581 44.0183 164.205 44.2152 165.173L46.2174 164.976C45.9876 163.171 44.5106 162.072 42.3279 162.072C38.8487 162.072 37.3881 165.075 37.3881 168.373C37.3881 169.801 37.6671 171.114 38.2579 172.099C39.0292 173.428 40.4898 174.216 42.1966 174.216ZM39.7677 170.326C39.7677 169.112 40.7032 167.98 42.1802 167.98C43.6408 167.98 44.527 169.046 44.527 170.326C44.527 171.623 43.6244 172.673 42.1638 172.673C40.7032 172.673 39.7677 171.557 39.7677 170.326ZM50.7155 173.97H52.7177C52.7177 169.768 54.2767 166.88 56.6728 163.696V162.318H48.1553V165.666H50.0754V163.893H54.7855C52.2089 167.093 50.7155 169.85 50.7155 173.97ZM62.1977 174.216C64.7251 174.216 66.678 172.706 66.678 170.064C66.678 167.569 64.9713 166.158 62.7065 166.158C61.8531 166.158 61.0818 166.355 60.4581 166.782L60.9669 163.893H65.9888V162.318H59.375L58.2919 168.931L60.0807 169.03C60.5238 167.996 61.41 167.619 62.2798 167.619C63.6091 167.619 64.5774 168.538 64.5774 170.08C64.5774 171.672 63.5599 172.64 62.1813 172.64C61.131 172.64 60.2284 172.066 59.9494 170.95L58.0293 171.459C58.4724 173.1 59.9658 174.216 62.1977 174.216ZM69.1206 173.97H71.3854V171.705H69.1206V173.97ZM75.8682 173.97H77.8704V162.318H76.2129V162.892C76.2129 164.402 75.2938 164.5 73.6691 164.5H72.8978V166.059H75.8682V173.97ZM84.5885 172.64C83.3248 172.64 82.3073 171.935 82.1104 170.638L80.1411 170.852C80.3872 172.805 82.0612 174.216 84.6213 174.216C87.1159 174.216 88.9703 172.919 88.9703 170.77C88.9703 169.096 87.92 168.193 86.6892 167.947V167.914C87.8872 167.569 88.7242 166.683 88.7242 165.305C88.7242 163.352 87.1159 162.088 84.7526 162.088C82.2745 162.088 80.7647 163.417 80.4857 165.337L82.5863 165.502C82.734 164.336 83.5546 163.647 84.7198 163.647C85.8358 163.647 86.6235 164.271 86.6235 165.305C86.6235 166.371 85.7865 167.208 83.9977 167.208H83.3084V168.767H84.2439C85.9342 168.767 86.8533 169.457 86.8533 170.687C86.8533 171.869 85.9671 172.64 84.5885 172.64Z" fill="white"/>
</g>
<g filter="url(#filter2_b_1151_4273)">
<rect y="199.905" width="185" height="67.3629" rx="5.96774" fill="#1D1D1D" fill-opacity="0.6"/>
<path d="M12.4468 217.095H15.3352V224.841H16.2662V217.095H19.1665V216.367H12.4468V217.095ZM20.8493 224.984C21.8041 224.984 22.58 224.459 23.0216 223.611V224.172C23.0216 224.71 23.4274 224.984 24.0122 224.984C24.2032 224.984 24.4061 224.948 24.5732 224.889V224.172C24.4777 224.196 24.3822 224.22 24.2867 224.22C24.0241 224.22 23.9048 224.101 23.9048 223.802L23.9167 220.926C23.9406 219.279 22.7948 218.718 21.6251 218.718C20.36 218.718 19.417 219.35 19.1664 220.52L20.0854 220.64C20.2883 219.828 20.8135 219.41 21.6132 219.41C22.4129 219.41 23.0096 219.828 23.0096 220.651C23.0096 221.081 22.8306 221.141 22.4367 221.224L21.0164 221.499C19.787 221.75 19.059 222.358 19.059 223.373C19.059 224.447 19.8945 224.984 20.8493 224.984ZM19.99 223.265C19.99 222.597 20.5032 222.239 21.1596 222.096L23.0096 221.714V222.131C23.0096 223.325 22.198 224.316 21.1477 224.316C20.5032 224.316 19.99 223.934 19.99 223.265ZM29.7853 224.841H30.7878L28.6394 221.917L30.8236 218.873H29.833L28.174 221.272L26.4194 218.873H25.4169L27.5772 221.821L25.3572 224.841H26.3598L28.0427 222.466L29.7853 224.841ZM38.5014 224.984C40.4588 224.984 41.6763 224.065 41.6763 222.466C41.6763 221.189 40.9124 220.508 39.5159 220.15L37.9405 219.756C37.1527 219.553 36.544 219.243 36.544 218.42C36.544 217.417 37.463 216.951 38.5492 216.951C39.695 216.951 40.4588 217.417 41.0198 218.061L41.6285 217.417C40.9363 216.749 39.9456 216.223 38.573 216.223C36.8424 216.223 35.5653 216.963 35.5653 218.503C35.5653 219.768 36.4246 220.341 37.5585 220.628L39.0505 220.998C40.065 221.26 40.6976 221.63 40.6976 222.573C40.6976 223.647 39.8859 224.256 38.5253 224.256C36.9737 224.256 36.1263 223.409 35.5176 222.704L34.9327 223.325C35.5176 224.017 36.6514 224.984 38.5014 224.984ZM45 224.984C45.9549 224.984 46.7307 224.459 47.1723 223.611V224.172C47.1723 224.71 47.5781 224.984 48.1629 224.984C48.3539 224.984 48.5568 224.948 48.7239 224.889V224.172C48.6284 224.196 48.5329 224.22 48.4374 224.22C48.1749 224.22 48.0555 224.101 48.0555 223.802L48.0674 220.926C48.0913 219.279 46.9455 218.718 45.7758 218.718C44.5107 218.718 43.5678 219.35 43.3171 220.52L44.2361 220.64C44.439 219.828 44.9642 219.41 45.7639 219.41C46.5636 219.41 47.1603 219.828 47.1603 220.651C47.1603 221.081 46.9813 221.141 46.5874 221.224L45.1671 221.499C43.9378 221.75 43.2097 222.358 43.2097 223.373C43.2097 224.447 44.0452 224.984 45 224.984ZM44.1407 223.265C44.1407 222.597 44.6539 222.239 45.3103 222.096L47.1603 221.714V222.131C47.1603 223.325 46.3487 224.316 45.2984 224.316C44.6539 224.316 44.1407 223.934 44.1407 223.265ZM51.3777 224.841H52.3564L54.5406 218.873H53.6096L51.879 223.85H51.8551L50.1244 218.873H49.1935L51.3777 224.841ZM55.9115 224.841H56.8066V218.873H55.9115V224.841ZM55.8518 217.393H56.8782V216.367H55.8518V217.393ZM58.872 224.841H59.7672V221.857C59.7672 220.281 60.5191 219.422 61.5575 219.422C62.4288 219.422 62.8346 220.043 62.8346 220.986V224.841H63.7298V220.795C63.7298 219.458 63.0136 218.73 61.7843 218.73C60.722 218.73 60.0298 219.303 59.6836 220.281V218.873H58.872V224.841ZM68.2554 227.252C69.9263 227.252 71.108 226.44 71.108 224.578V218.873H70.3083V220.246C69.9263 219.303 69.1386 218.73 68.0644 218.73C66.477 218.73 65.3789 219.959 65.3789 221.785C65.3789 223.623 66.477 224.865 68.0644 224.865C69.067 224.865 69.8189 224.363 70.2247 223.516V224.483C70.2247 225.879 69.5086 226.56 68.2554 226.56C67.2528 226.56 66.6321 226.106 66.3457 225.414L65.5102 225.664C65.8563 226.667 66.8709 227.252 68.2554 227.252ZM66.298 221.785C66.298 220.425 67.026 219.41 68.2554 219.41C69.4967 219.41 70.2128 220.425 70.2128 221.785C70.2128 223.158 69.4967 224.184 68.2554 224.184C67.026 224.184 66.298 223.158 66.298 221.785ZM75.2873 224.996C76.6957 224.996 77.6506 224.268 77.6506 223.098C77.6506 222.191 77.0299 221.738 75.9915 221.487L74.8815 221.212C74.428 221.105 73.9625 220.89 73.9625 220.329C73.9625 219.685 74.5831 219.386 75.3112 219.386C76.087 219.386 76.648 219.709 77.0777 220.15L77.6267 219.577C77.0896 219.088 76.3615 218.718 75.3351 218.718C74.058 218.718 73.0435 219.243 73.0435 220.389C73.0435 221.32 73.7118 221.75 74.5115 221.94L75.5977 222.203C76.2064 222.346 76.7315 222.561 76.7315 223.17C76.7315 223.862 76.1825 224.292 75.2873 224.292C74.2131 224.292 73.5925 223.719 73.1151 223.23L72.6138 223.838C73.0435 224.328 73.9147 224.996 75.2873 224.996Z" fill="white"/>
<path d="M17.5914 251.384H19.0028V249.562C21.4645 249.365 23.0236 248.118 23.0236 245.935C23.0236 244.163 22.0061 243.113 20.0531 242.62L19.0028 242.358V239.026C20.2172 239.174 21.1034 239.748 21.8091 240.47L23.0236 239.141C22.0553 238.271 20.7424 237.582 19.0028 237.451V235.629H17.5914V237.467C15.4415 237.681 13.9809 238.747 13.9809 240.766C13.9809 242.62 15.2118 243.474 16.9021 243.9L17.5914 244.081V247.938C16.098 247.708 15.0969 246.838 14.2599 245.968L13.1111 247.298C13.8825 248.134 15.3431 249.316 17.5914 249.546V251.384ZM16.098 240.569C16.098 239.683 16.7544 239.223 17.5914 239.059V241.997C16.7052 241.751 16.098 241.439 16.098 240.569ZM19.0028 247.97V244.442C20.2008 244.737 20.9229 245.131 20.9229 246.182C20.9229 247.248 20.2008 247.823 19.0028 247.97ZM29.2001 248.003C27.9364 248.003 26.9189 247.298 26.722 246.001L24.7526 246.214C24.9988 248.167 26.6728 249.579 29.2329 249.579C31.7274 249.579 33.5819 248.282 33.5819 246.132C33.5819 244.458 32.5316 243.556 31.3007 243.31V243.277C32.4988 242.932 33.3357 242.046 33.3357 240.667C33.3357 238.714 31.7274 237.451 29.3642 237.451C26.8861 237.451 25.3763 238.78 25.0973 240.7L27.1979 240.864C27.3456 239.699 28.1662 239.01 29.3314 239.01C30.4474 239.01 31.2351 239.633 31.2351 240.667C31.2351 241.734 30.3981 242.571 28.6093 242.571H27.92V244.13H28.8555C30.5458 244.13 31.4649 244.819 31.4649 246.05C31.4649 247.232 30.5786 248.003 29.2001 248.003ZM36.1535 252.024H36.4981C37.8274 252.024 38.4182 251.466 38.4182 250.12V247.068H36.1535V249.333H37.1053V250.104C37.1053 250.662 36.892 250.859 36.334 250.859H36.1535V252.024ZM45.1466 248.003C43.8829 248.003 42.8654 247.298 42.6685 246.001L40.6992 246.214C40.9453 248.167 42.6193 249.579 45.1794 249.579C47.674 249.579 49.5284 248.282 49.5284 246.132C49.5284 244.458 48.4781 243.556 47.2473 243.31V243.277C48.4453 242.932 49.2823 242.046 49.2823 240.667C49.2823 238.714 47.674 237.451 45.3107 237.451C42.8326 237.451 41.3228 238.78 41.0438 240.7L43.1444 240.864C43.2921 239.699 44.1127 239.01 45.2779 239.01C46.3939 239.01 47.1816 239.633 47.1816 240.667C47.1816 241.734 46.3446 242.571 44.5558 242.571H43.8665V244.13H44.802C46.4923 244.13 47.4114 244.819 47.4114 246.05C47.4114 247.232 46.5252 248.003 45.1466 248.003ZM55.5464 249.579C58.0737 249.579 60.0267 248.069 60.0267 245.427C60.0267 242.932 58.3199 241.521 56.0551 241.521C55.2017 241.521 54.4304 241.718 53.8068 242.144L54.3155 239.256H59.3374V237.681H52.7236L51.6405 244.294L53.4293 244.393C53.8724 243.359 54.7586 242.981 55.6284 242.981C56.9577 242.981 57.926 243.9 57.926 245.443C57.926 247.035 56.9085 248.003 55.53 248.003C54.4796 248.003 53.577 247.429 53.298 246.313L51.3779 246.822C51.821 248.463 53.3144 249.579 55.5464 249.579ZM64.5371 249.333H66.5392V237.681H64.8817V238.255C64.8817 239.765 63.9627 239.863 62.338 239.863H61.5666V241.422H64.5371V249.333ZM69.7453 249.333H72.0101V247.068H69.7453V249.333ZM78.7221 249.579C82.2177 249.579 83.5798 246.657 83.5798 243.359C83.5798 241.865 83.3008 240.552 82.71 239.551C81.9387 238.238 80.5765 237.434 78.8205 237.434C76.2604 237.434 74.5372 239.158 74.5372 241.521C74.5372 243.818 76.3096 245.459 78.5579 245.459C79.7396 245.459 80.9212 244.967 81.594 243.868C81.512 246.346 80.6914 248.069 78.8041 248.069C77.7538 248.069 76.9496 247.511 76.6871 246.559L74.7013 246.756C74.9803 248.479 76.5394 249.579 78.7221 249.579ZM76.4901 241.455C76.4901 240.109 77.442 238.993 78.8862 238.993C80.3468 238.993 81.2822 240.126 81.2822 241.455C81.2822 242.784 80.3304 243.9 78.8862 243.9C77.4584 243.9 76.4901 242.834 76.4901 241.455ZM89.619 249.579C92.1464 249.579 94.0993 248.069 94.0993 245.427C94.0993 242.932 92.3925 241.521 90.1278 241.521C89.2744 241.521 88.5031 241.718 87.8794 242.144L88.3882 239.256H93.41V237.681H86.7963L85.7131 244.294L87.502 244.393C87.9451 243.359 88.8313 242.981 89.7011 242.981C91.0304 242.981 91.9987 243.9 91.9987 245.443C91.9987 247.035 90.9812 248.003 89.6026 248.003C88.5523 248.003 87.6497 247.429 87.3707 246.313L85.4506 246.822C85.8937 248.463 87.3871 249.579 89.619 249.579Z" fill="white"/>
</g>
<g filter="url(#filter3_b_1151_4273)">
<rect y="49.1797" width="185" height="67.3629" rx="5.96774" fill="#1D1D1D" fill-opacity="0.6"/>
<path d="M18.331 74.1152H19.4171L17.03 70.3794C18.7607 70.3198 19.5723 69.4365 19.5723 68.0043C19.5723 66.5243 18.701 65.641 16.8391 65.641H13.2465V74.1152H14.1775V70.3794H16.0275L18.331 74.1152ZM14.1775 69.6514V66.3691H16.6959C18.0446 66.3691 18.5936 66.9898 18.5936 68.0043C18.5936 69.0188 18.0446 69.6514 16.6959 69.6514H14.1775ZM21.6218 71.3343H26.4079C26.5511 69.4007 25.3814 67.9923 23.5792 67.9923C21.8724 67.9923 20.6908 69.2814 20.6908 71.1314C20.6908 72.9933 21.9321 74.2585 23.6747 74.2585C24.916 74.2585 25.8708 73.6259 26.2527 72.7546L25.453 72.4801C25.1666 73.1127 24.5221 73.5423 23.6985 73.5423C22.4811 73.5423 21.6934 72.671 21.6218 71.3343ZM21.6576 70.642C21.8008 69.4843 22.493 68.7085 23.603 68.7085C24.6534 68.7085 25.3814 69.4246 25.5247 70.642H21.6576ZM30.0824 74.2585C30.3689 74.2585 30.6195 74.2227 30.8344 74.1868V73.4827C30.6911 73.5065 30.524 73.5185 30.3689 73.5185C29.8079 73.5185 29.414 73.3275 29.414 72.5756V68.8039H30.7269V68.1475H29.414V66.2259H28.5189V68.1475H27.5163V68.8039H28.5189V72.7546C28.5189 73.9123 29.1157 74.2585 30.0824 74.2585ZM32.53 74.1152H33.4252V68.1475H32.53V74.1152ZM32.4704 66.6675H33.4968V65.641H32.4704V66.6675ZM35.4906 74.1152H36.3858V71.203C36.3858 70.3914 36.7677 68.8398 38.2119 68.8398C38.3671 68.8398 38.4983 68.8517 38.6058 68.8756V68.0043C37.09 68.0043 36.5051 68.8039 36.3022 69.8185V68.1475H35.4906V74.1152ZM40.4225 71.3343H45.2086C45.3518 69.4007 44.1822 67.9923 42.3799 67.9923C40.6731 67.9923 39.4915 69.2814 39.4915 71.1314C39.4915 72.9933 40.7328 74.2585 42.4754 74.2585C43.7167 74.2585 44.6715 73.6259 45.0534 72.7546L44.2538 72.4801C43.9673 73.1127 43.3228 73.5423 42.4993 73.5423C41.2818 73.5423 40.4941 72.671 40.4225 71.3343ZM40.4583 70.642C40.6015 69.4843 41.2938 68.7085 42.4038 68.7085C43.4541 68.7085 44.1822 69.4246 44.3254 70.642H40.4583ZM46.8899 74.1152H47.7851V71.1314C47.7851 69.5559 48.537 68.6965 49.5754 68.6965C50.4467 68.6965 50.8525 69.3172 50.8525 70.2601V74.1152H51.7477V71.1314C51.7477 69.5559 52.4996 68.6965 53.538 68.6965C54.4093 68.6965 54.8151 69.3172 54.8151 70.2601V74.1152H55.7102V70.0691C55.7102 68.7323 54.9941 68.0043 53.7648 68.0043C52.7383 68.0043 52.0461 68.5533 51.688 69.4723C51.509 68.5175 50.8286 68.0043 49.8022 68.0043C48.7399 68.0043 48.0477 68.5772 47.7015 69.5559V68.1475H46.8899V74.1152ZM58.2907 71.3343H63.0769C63.2201 69.4007 62.0504 67.9923 60.2482 67.9923C58.5414 67.9923 57.3598 69.2814 57.3598 71.1314C57.3598 72.9933 58.6011 74.2585 60.3436 74.2585C61.5849 74.2585 62.5398 73.6259 62.9217 72.7546L62.122 72.4801C61.8356 73.1127 61.1911 73.5423 60.3675 73.5423C59.1501 73.5423 58.3623 72.671 58.2907 71.3343ZM58.3265 70.642C58.4698 69.4843 59.162 68.7085 60.272 68.7085C61.3223 68.7085 62.0504 69.4246 62.1936 70.642H58.3265ZM64.7582 74.1152H65.6533V71.1314C65.6533 69.5559 66.4053 68.6965 67.4437 68.6965C68.315 68.6965 68.7208 69.3172 68.7208 70.2601V74.1152H69.6159V70.0691C69.6159 68.7323 68.8998 68.0043 67.6704 68.0043C66.6082 68.0043 65.9159 68.5772 65.5698 69.5559V68.1475H64.7582V74.1152ZM73.6283 74.2585C73.9147 74.2585 74.1654 74.2227 74.3802 74.1868V73.4827C74.237 73.5065 74.0699 73.5185 73.9147 73.5185C73.3538 73.5185 72.9599 73.3275 72.9599 72.5756V68.8039H74.2728V68.1475H72.9599V66.2259H72.0647V68.1475H71.0622V68.8039H72.0647V72.7546C72.0647 73.9123 72.6615 74.2585 73.6283 74.2585Z" fill="white"/>
<path d="M17.3807 100.658H18.7921V98.8367C21.2537 98.6398 22.8128 97.3925 22.8128 95.2098C22.8128 93.4374 21.7953 92.3871 19.8424 91.8947L18.7921 91.6321V88.3006C20.0065 88.4483 20.8927 89.0227 21.5984 89.7448L22.8128 88.4155C21.8446 87.5457 20.5317 86.8565 18.7921 86.7252V84.9035H17.3807V86.7416C15.2308 86.9549 13.7702 88.0217 13.7702 90.0402C13.7702 91.8947 15.001 92.7481 16.6914 93.1748L17.3807 93.3553V97.212C15.8873 96.9822 14.8862 96.1124 14.0492 95.2426L12.9004 96.5719C13.6717 97.4089 15.1323 98.5905 17.3807 98.8203V100.658ZM15.8873 89.8433C15.8873 88.9571 16.5437 88.4976 17.3807 88.3335V91.2711C16.4945 91.0249 15.8873 90.7131 15.8873 89.8433ZM18.7921 97.2448V93.7164C19.9901 94.0118 20.7122 94.4056 20.7122 95.456C20.7122 96.5227 19.9901 97.0971 18.7921 97.2448ZM28.9237 98.8531C31.4511 98.8531 33.404 97.3433 33.404 94.701C33.404 92.2065 31.6972 90.7952 29.4325 90.7952C28.5791 90.7952 27.8078 90.9921 27.1841 91.4188L27.6929 88.5304H32.7147V86.9549H26.101L25.0178 93.5687L26.8067 93.6671C27.2498 92.6332 28.136 92.2558 29.0058 92.2558C30.3351 92.2558 31.3034 93.1748 31.3034 94.7175C31.3034 96.3094 30.2859 97.2776 28.9073 97.2776C27.857 97.2776 26.9544 96.7032 26.6754 95.5873L24.7553 96.096C25.1984 97.7371 26.6918 98.8531 28.9237 98.8531ZM39.293 98.8531C41.8203 98.8531 43.7732 97.3433 43.7732 94.701C43.7732 92.2065 42.0665 90.7952 39.8017 90.7952C38.9483 90.7952 38.177 90.9921 37.5534 91.4188L38.0621 88.5304H43.084V86.9549H36.4702L35.3871 93.5687L37.1759 93.6671C37.619 92.6332 38.5052 92.2558 39.375 92.2558C40.7043 92.2558 41.6726 93.1748 41.6726 94.7175C41.6726 96.3094 40.6551 97.2776 39.2766 97.2776C38.2262 97.2776 37.3236 96.7032 37.0446 95.5873L35.1245 96.096C35.5676 97.7371 37.061 98.8531 39.293 98.8531ZM49.9084 98.8367C52.3865 98.8367 54.2574 97.5894 54.2574 95.456C54.2574 94.0282 53.404 93.0599 52.0747 92.584C53.1906 92.0752 53.8635 91.1562 53.8635 89.9089C53.8635 88.0052 52.2716 86.7252 49.9084 86.7252C47.5616 86.7252 45.9697 88.0052 45.9697 89.9089C45.9697 91.1562 46.6425 92.0752 47.7421 92.584C46.4292 93.0599 45.5758 94.0282 45.5758 95.456C45.5758 97.5894 47.4467 98.8367 49.9084 98.8367ZM47.578 95.3083C47.578 94.0774 48.5791 93.2733 49.9084 93.2733C51.2705 93.2733 52.2388 94.0774 52.2388 95.3083C52.2388 96.5555 51.2705 97.3433 49.9084 97.3433C48.5791 97.3433 47.578 96.5555 47.578 95.3083ZM47.8734 90.0074C47.8734 89.0227 48.6775 88.2186 49.9084 88.2186C51.1392 88.2186 51.9598 89.0227 51.9598 90.0074C51.9598 90.9921 51.1392 91.8127 49.9084 91.8127C48.6775 91.8127 47.8734 91.0085 47.8734 90.0074ZM56.8255 98.6069H59.0902V96.3422H56.8255V98.6069ZM65.753 98.8531C68.2803 98.8531 70.2332 97.3433 70.2332 94.701C70.2332 92.2065 68.5265 90.7952 66.2617 90.7952C65.4083 90.7952 64.637 90.9921 64.0134 91.4188L64.5221 88.5304H69.544V86.9549H62.9302L61.8471 93.5687L63.6359 93.6671C64.079 92.6332 64.9652 92.2558 65.835 92.2558C67.1643 92.2558 68.1326 93.1748 68.1326 94.7175C68.1326 96.3094 67.1151 97.2776 65.7366 97.2776C64.6862 97.2776 63.7836 96.7032 63.5046 95.5873L61.5845 96.096C62.0276 97.7371 63.521 98.8531 65.753 98.8531ZM76.8115 98.8531C79.3716 98.8531 81.1112 97.1956 81.1112 94.9144C81.1112 92.6332 79.4045 91.0906 77.1725 91.0906C75.7612 91.0906 74.5631 91.7306 73.9723 93.0271V92.8958C73.9723 90.3356 74.8257 88.2186 76.8443 88.2186C77.9439 88.2186 78.6331 88.8422 78.8301 89.8105L80.8322 89.6135C80.6025 87.8083 79.1255 86.7087 76.9428 86.7087C73.4636 86.7087 72.003 89.712 72.003 93.0107C72.003 94.4385 72.282 95.7514 72.8728 96.736C73.6441 98.0654 75.1047 98.8531 76.8115 98.8531ZM74.3826 94.9636C74.3826 93.7492 75.3181 92.6168 76.7951 92.6168C78.2557 92.6168 79.1419 93.6835 79.1419 94.9636C79.1419 96.2601 78.2393 97.3104 76.7787 97.3104C75.3181 97.3104 74.3826 96.1945 74.3826 94.9636Z" fill="white"/>
</g>
<defs>
<filter id="filter0_b_1151_4273" x="320" y="308" width="308" height="139" filterUnits="userSpaceOnUse" color-interpolation-filters="sRGB">
<feFlood flood-opacity="0" result="BackgroundImageFix"/>
<feGaussianBlur in="BackgroundImage" stdDeviation="8"/>
<feComposite in2="SourceAlpha" operator="in" result="effect1_backgroundBlur_1151_4273"/>
<feBlend mode="normal" in="SourceGraphic" in2="effect1_backgroundBlur_1151_4273" result="shape"/>
</filter>
<filter id="filter1_b_1151_4273" x="-11.9355" y="112.607" width="208.871" height="91.2338" filterUnits="userSpaceOnUse" color-interpolation-filters="sRGB">
<feFlood flood-opacity="0" result="BackgroundImageFix"/>
<feGaussianBlur in="BackgroundImage" stdDeviation="5.96774"/>
<feComposite in2="SourceAlpha" operator="in" result="effect1_backgroundBlur_1151_4273"/>
<feBlend mode="normal" in="SourceGraphic" in2="effect1_backgroundBlur_1151_4273" result="shape"/>
</filter>
<filter id="filter2_b_1151_4273" x="-11.9355" y="187.97" width="208.871" height="91.2338" filterUnits="userSpaceOnUse" color-interpolation-filters="sRGB">
<feFlood flood-opacity="0" result="BackgroundImageFix"/>
<feGaussianBlur in="BackgroundImage" stdDeviation="5.96774"/>
<feComposite in2="SourceAlpha" operator="in" result="effect1_backgroundBlur_1151_4273"/>
<feBlend mode="normal" in="SourceGraphic" in2="effect1_backgroundBlur_1151_4273" result="shape"/>
</filter>
<filter id="filter3_b_1151_4273" x="-11.9355" y="37.2442" width="208.871" height="91.2338" filterUnits="userSpaceOnUse" color-interpolation-filters="sRGB">
<feFlood flood-opacity="0" result="BackgroundImageFix"/>
<feGaussianBlur in="BackgroundImage" stdDeviation="5.96774"/>
<feComposite in2="SourceAlpha" operator="in" result="effect1_backgroundBlur_1151_4273"/>
<feBlend mode="normal" in="SourceGraphic" in2="effect1_backgroundBlur_1151_4273" result="shape"/>
</filter>
</defs>
</svg>
