<svg width="32" height="32" viewBox="0 0 32 32" fill="none" xmlns="http://www.w3.org/2000/svg">
<path d="M8.00008 20C8.00008 20.7072 7.71913 21.3855 7.21903 21.8856C6.71894 22.3857 6.04066 22.6667 5.33341 22.6667C4.62617 22.6667 3.94789 22.3857 3.4478 21.8856C2.9477 21.3855 2.66675 20.7072 2.66675 20C2.66675 19.2928 2.9477 18.6145 3.4478 18.1144C3.94789 17.6143 4.62617 17.3333 5.33341 17.3333H8.00008V20ZM9.33342 20C9.33342 19.2928 9.61437 18.6145 10.1145 18.1144C10.6146 17.6143 11.2928 17.3333 12.0001 17.3333C12.7073 17.3333 13.3856 17.6143 13.8857 18.1144C14.3858 18.6145 14.6667 19.2928 14.6667 20V26.6667C14.6667 27.3739 14.3858 28.0522 13.8857 28.5523C13.3856 29.0524 12.7073 29.3333 12.0001 29.3333C11.2928 29.3333 10.6146 29.0524 10.1145 28.5523C9.61437 28.0522 9.33342 27.3739 9.33342 26.6667V20ZM12.0001 9.33333C11.2928 9.33333 10.6146 9.05238 10.1145 8.55229C9.61437 8.05219 9.33342 7.37391 9.33342 6.66667C9.33342 5.95942 9.61437 5.28115 10.1145 4.78105C10.6146 4.28095 11.2928 4 12.0001 4C12.7073 4 13.3856 4.28095 13.8857 4.78105C14.3858 5.28115 14.6667 5.95942 14.6667 6.66667V9.33333H12.0001ZM12.0001 10.6667C12.7073 10.6667 13.3856 10.9476 13.8857 11.4477C14.3858 11.9478 14.6667 12.6261 14.6667 13.3333C14.6667 14.0406 14.3858 14.7189 13.8857 15.219C13.3856 15.719 12.7073 16 12.0001 16H5.33341C4.62617 16 3.94789 15.719 3.4478 15.219C2.9477 14.7189 2.66675 14.0406 2.66675 13.3333C2.66675 12.6261 2.9477 11.9478 3.4478 11.4477C3.94789 10.9476 4.62617 10.6667 5.33341 10.6667H12.0001ZM22.6667 13.3333C22.6667 12.6261 22.9477 11.9478 23.4478 11.4477C23.9479 10.9476 24.6262 10.6667 25.3334 10.6667C26.0407 10.6667 26.7189 10.9476 27.219 11.4477C27.7191 11.9478 28.0001 12.6261 28.0001 13.3333C28.0001 14.0406 27.7191 14.7189 27.219 15.219C26.7189 15.719 26.0407 16 25.3334 16H22.6667V13.3333ZM21.3334 13.3333C21.3334 14.0406 21.0525 14.7189 20.5524 15.219C20.0523 15.719 19.374 16 18.6667 16C17.9595 16 17.2812 15.719 16.7811 15.219C16.281 14.7189 16.0001 14.0406 16.0001 13.3333V6.66667C16.0001 5.95942 16.281 5.28115 16.7811 4.78105C17.2812 4.28095 17.9595 4 18.6667 4C19.374 4 20.0523 4.28095 20.5524 4.78105C21.0525 5.28115 21.3334 5.95942 21.3334 6.66667V13.3333ZM18.6667 24C19.374 24 20.0523 24.281 20.5524 24.781C21.0525 25.2811 21.3334 25.9594 21.3334 26.6667C21.3334 27.3739 21.0525 28.0522 20.5524 28.5523C20.0523 29.0524 19.374 29.3333 18.6667 29.3333C17.9595 29.3333 17.2812 29.0524 16.7811 28.5523C16.281 28.0522 16.0001 27.3739 16.0001 26.6667V24H18.6667ZM18.6667 22.6667C17.9595 22.6667 17.2812 22.3857 16.7811 21.8856C16.281 21.3855 16.0001 20.7072 16.0001 20C16.0001 19.2928 16.281 18.6145 16.7811 18.1144C17.2812 17.6143 17.9595 17.3333 18.6667 17.3333H25.3334C26.0407 17.3333 26.7189 17.6143 27.219 18.1144C27.7191 18.6145 28.0001 19.2928 28.0001 20C28.0001 20.7072 27.7191 21.3855 27.219 21.8856C26.7189 22.3857 26.0407 22.6667 25.3334 22.6667H18.6667Z" fill="#276164"/>
</svg>
