<svg width="50" height="32" viewBox="0 0 50 32" fill="none" xmlns="http://www.w3.org/2000/svg">
<path d="M15.1495 25.6014L15.0601 25.688C13.6567 27.1179 12.0327 27.8733 10.3598 27.8733C6.86606 27.8733 4.3316 25.2523 4.3316 21.637C4.3316 18.0273 6.86606 15.4021 10.3598 15.4021C12.0327 15.4021 13.6567 16.1618 15.0601 17.5973L15.1495 17.6824L17.3963 14.965L17.3362 14.8924C15.4679 12.6847 13.2253 11.6109 10.4688 11.6109C7.70529 11.6109 5.17502 12.5423 3.35412 14.2194C1.37123 16.0375 0.328125 18.6013 0.328125 21.637C0.328125 24.6728 1.37123 27.2422 3.35412 29.0603C5.17502 30.7471 7.70529 31.6715 10.4688 31.6715C13.2253 31.6715 15.4679 30.5963 17.3362 28.3872L17.3963 28.3202L15.1495 25.6014Z" fill="#004685"/>
<path d="M19.6655 31.3009H23.6341V11.9245H19.6655V31.3009Z" fill="#004685"/>
<path d="M39.1823 27.0887C38.1224 27.7338 37.138 28.0592 36.2527 28.0592C34.9694 28.0592 34.3885 27.3805 34.3885 25.8724V15.5908H38.4338V11.9434H34.3885V5.91373L30.4995 7.99716V11.9434H27.1426V15.5908H30.4995V26.5273C30.4995 29.5059 32.2646 31.5446 34.901 31.5977C36.6897 31.6326 37.7678 31.0992 38.4213 30.7082L38.4632 30.6816L39.4169 26.9449L39.1823 27.0887Z" fill="#004685"/>
<path d="M42.4673 31.3009H46.4415V11.9245H42.4673V31.3009Z" fill="#004685"/>
<path d="M48.7564 8.52809C45.1299 3.39214 39.1087 0.32844 32.9827 0.32844C26.8581 0.32844 20.8354 3.39214 17.2159 8.52809L17.0288 8.79201H21.595L21.6453 8.73755C24.7523 5.52863 28.8102 3.8334 32.9827 3.8334C37.1551 3.8334 41.2102 5.52863 44.3242 8.73755L44.3745 8.79201H48.9379L48.7564 8.52809Z" fill="#EE1C25"/>
</svg>
