<svg width="253" height="68" viewBox="0 0 253 68" fill="none" xmlns="http://www.w3.org/2000/svg">
<path d="M0 30.0134C0 13.4375 13.4375 0 30.0134 0H218.916C237.688 0 252.905 15.2176 252.905 33.9894V33.9894C252.905 52.7612 237.688 67.9788 218.916 67.9788H0V30.0134Z" fill="#656A47"/>
<path d="M20.9692 20.0088V28.5326H22.1698V24.4868H26.2276V23.5504H22.1698V20.9452H26.4677V20.0088H20.9692Z" fill="white"/>
<path d="M28.0795 28.5326H29.22V25.7233C29.22 24.895 29.5922 23.4063 31.0328 23.4063C31.2009 23.4063 31.3329 23.4303 31.453 23.4543V22.3498C29.9403 22.3498 29.34 23.0942 29.124 24.1146V22.5059H28.0795V28.5326Z" fill="white"/>
<path d="M32.816 28.5326H33.9565V22.5059H32.816V28.5326ZM32.7559 21.2814H34.0285V20.0088H32.7559V21.2814Z" fill="white"/>
<path d="M36.7512 25.8074H41.4093C41.6134 23.8025 40.4008 22.3378 38.528 22.3378C36.7752 22.3378 35.5387 23.6104 35.5387 25.5192C35.5387 27.4401 36.8352 28.7007 38.612 28.7007C39.9086 28.7007 40.881 28.0404 41.2652 27.14L40.2568 26.8158C39.9806 27.4041 39.3684 27.7763 38.636 27.7763C37.5556 27.7763 36.8472 27.0199 36.7512 25.8074ZM36.7872 24.919C36.9553 23.8985 37.5676 23.2382 38.54 23.2382C39.4644 23.2382 40.1247 23.8385 40.2688 24.919H36.7872Z" fill="white"/>
<path d="M43.0041 28.5326H44.1446V25.5072H44.1566C44.1566 24.0426 44.8169 23.2382 45.7894 23.2382C46.6177 23.2382 46.9899 23.8265 46.9899 24.7389V28.5326H48.1424V24.4748C48.1424 23.0702 47.3621 22.3498 46.1255 22.3498C45.069 22.3498 44.3967 22.8901 44.0486 23.7785V22.5059H43.0041V28.5326Z" fill="white"/>
<path d="M55.6087 28.5326V20.0088H54.4682V23.5384C54.036 22.782 53.3157 22.3498 52.3793 22.3498C50.8066 22.3498 49.6661 23.5984 49.6661 25.5072C49.6661 27.4401 50.8066 28.6887 52.3793 28.6887C53.3877 28.6887 54.1441 28.1844 54.5643 27.308V28.5326H55.6087ZM50.8666 25.5072C50.8666 24.1987 51.5389 23.2382 52.6674 23.2382C53.7959 23.2382 54.4562 24.2107 54.4562 25.5072C54.4562 26.8158 53.7959 27.8003 52.6674 27.8003C51.5389 27.8003 50.8666 26.8278 50.8666 25.5072Z" fill="white"/>
<path d="M57.577 28.5326H58.7175V20.0088H57.577V28.5326Z" fill="white"/>
<path d="M61.1761 30.9697C62.3766 30.9697 62.8329 30.2734 63.265 29.0968L65.6661 22.5059H64.4536L62.8449 27.2H62.8208L61.2121 22.5059H59.9876L61.8604 27.5842C62.0165 28.0404 62.0765 28.3405 62.0765 28.5566C62.0765 29.1329 61.7284 30.0333 60.948 30.0333C60.816 30.0333 60.6839 30.0093 60.5158 29.9732V30.8856C60.7439 30.9457 60.96 30.9697 61.1761 30.9697Z" fill="white"/>
<path d="M70.2155 28.5326H71.356V25.7233C71.356 24.895 71.7282 23.4063 73.1688 23.4063C73.3369 23.4063 73.4689 23.4303 73.589 23.4543V22.3498C72.0763 22.3498 71.4761 23.0942 71.26 24.1146V22.5059H70.2155V28.5326Z" fill="white"/>
<path d="M75.6162 25.8074H80.2743C80.4784 23.8025 79.2658 22.3378 77.393 22.3378C75.6402 22.3378 74.4037 23.6104 74.4037 25.5192C74.4037 27.4401 75.7002 28.7007 77.477 28.7007C78.7736 28.7007 79.7461 28.0404 80.1302 27.14L79.1218 26.8158C78.8457 27.4041 78.2334 27.7763 77.5011 27.7763C76.4206 27.7763 75.7123 27.0199 75.6162 25.8074ZM75.6522 24.919C75.8203 23.8985 76.4326 23.2382 77.405 23.2382C78.3294 23.2382 78.9897 23.8385 79.1338 24.919H75.6522Z" fill="white"/>
<path d="M81.8691 28.5326H83.0096V25.5072H83.0216C83.0216 24.0426 83.6819 23.2382 84.6544 23.2382C85.4827 23.2382 85.8549 23.8265 85.8549 24.7389V28.5326H87.0074V25.5072C87.0074 24.0426 87.6677 23.2382 88.6402 23.2382C89.4685 23.2382 89.8407 23.8265 89.8407 24.7389V28.5326H90.9932V24.4748C90.9932 23.0702 90.2128 22.3498 88.9763 22.3498C87.9438 22.3498 87.2715 22.8781 86.9234 23.7305C86.6833 22.818 85.987 22.3498 84.9905 22.3498C83.934 22.3498 83.2618 22.8901 82.9136 23.7785V22.5059H81.8691V28.5326Z" fill="white"/>
<path d="M92.9014 28.5326H94.0419V22.5059H92.9014V28.5326ZM92.8414 21.2814H94.1139V20.0088H92.8414V21.2814Z" fill="white"/>
<path d="M96.0082 28.5326H97.1488V25.5072H97.1608C97.1608 24.0426 97.8211 23.2382 98.7935 23.2382C99.6219 23.2382 99.994 23.8265 99.994 24.7389V28.5326H101.147V24.4748C101.147 23.0702 100.366 22.3498 99.1296 22.3498C98.0732 22.3498 97.4009 22.8901 97.0527 23.7785V22.5059H96.0082V28.5326Z" fill="white"/>
<path d="M108.613 28.5326V20.0088H107.472V23.5384C107.04 22.782 106.32 22.3498 105.383 22.3498C103.811 22.3498 102.67 23.5984 102.67 25.5072C102.67 27.4401 103.811 28.6887 105.383 28.6887C106.392 28.6887 107.148 28.1844 107.568 27.308V28.5326H108.613ZM103.871 25.5072C103.871 24.1987 104.543 23.2382 105.672 23.2382C106.8 23.2382 107.46 24.2107 107.46 25.5072C107.46 26.8158 106.8 27.8003 105.672 27.8003C104.543 27.8003 103.871 26.8278 103.871 25.5072Z" fill="white"/>
<path d="M111.41 25.8074H116.068C116.272 23.8025 115.059 22.3378 113.186 22.3378C111.434 22.3378 110.197 23.6104 110.197 25.5192C110.197 27.4401 111.494 28.7007 113.27 28.7007C114.567 28.7007 115.539 28.0404 115.924 27.14L114.915 26.8158C114.639 27.4041 114.027 27.7763 113.294 27.7763C112.214 27.7763 111.506 27.0199 111.41 25.8074ZM111.446 24.919C111.614 23.8985 112.226 23.2382 113.198 23.2382C114.123 23.2382 114.783 23.8385 114.927 24.919H111.446Z" fill="white"/>
<path d="M117.662 28.5326H118.803V25.7233C118.803 24.895 119.175 23.4063 120.616 23.4063C120.784 23.4063 120.916 23.4303 121.036 23.4543V22.3498C119.523 22.3498 118.923 23.0942 118.707 24.1146V22.5059H117.662V28.5326Z" fill="white"/>
<path d="M127.831 28.6887C128.131 28.6887 128.419 28.6647 128.659 28.6166V27.7162C128.515 27.7282 128.359 27.7402 128.203 27.7402C127.639 27.7402 127.267 27.5482 127.267 26.8278V23.3463H128.563V22.5059H127.267V20.573H126.114V22.5059H125.106V23.3463H126.114V27.0679C126.114 28.2925 126.726 28.6887 127.831 28.6887Z" fill="white"/>
<path d="M132.897 28.7007C134.793 28.7007 135.982 27.3921 135.982 25.5192C135.982 23.6584 134.793 22.3498 132.897 22.3498C131 22.3498 129.811 23.6584 129.811 25.5192C129.811 27.3921 131 28.7007 132.897 28.7007ZM131.012 25.5192C131.012 24.1987 131.696 23.2502 132.897 23.2502C134.109 23.2502 134.781 24.1987 134.781 25.5192C134.781 26.8398 134.109 27.7763 132.897 27.7763C131.696 27.7763 131.012 26.8278 131.012 25.5192Z" fill="white"/>
<path d="M140.852 30.8136H141.993V27.4881C142.425 28.2565 143.146 28.6887 144.082 28.6887C145.655 28.6887 146.795 27.4401 146.795 25.5072C146.795 23.5984 145.655 22.3498 144.082 22.3498C143.073 22.3498 142.317 22.8541 141.897 23.7305V22.5059H140.852V30.8136ZM142.005 25.5072C142.005 24.2107 142.665 23.2382 143.794 23.2382C144.922 23.2382 145.595 24.1987 145.595 25.5072C145.595 26.8278 144.922 27.8003 143.794 27.8003C142.665 27.8003 142.005 26.8158 142.005 25.5072Z" fill="white"/>
<path d="M148.379 28.5326H149.52V20.0088H148.379V28.5326Z" fill="white"/>
<path d="M152.315 25.8074H156.973C157.177 23.8025 155.964 22.3378 154.091 22.3378C152.339 22.3378 151.102 23.6104 151.102 25.5192C151.102 27.4401 152.399 28.7007 154.175 28.7007C155.472 28.7007 156.444 28.0404 156.829 27.14L155.82 26.8158C155.544 27.4041 154.932 27.7763 154.199 27.7763C153.119 27.7763 152.411 27.0199 152.315 25.8074ZM152.351 24.919C152.519 23.8985 153.131 23.2382 154.103 23.2382C155.028 23.2382 155.688 23.8385 155.832 24.919H152.351Z" fill="white"/>
<path d="M160.02 28.7007C160.932 28.7007 161.689 28.2445 162.169 27.4761V27.8003C162.169 28.3645 162.625 28.7007 163.298 28.7007C163.514 28.7007 163.742 28.6647 163.946 28.5926V27.6682C163.862 27.6922 163.766 27.7042 163.682 27.7042C163.418 27.7042 163.298 27.5842 163.298 27.284L163.322 24.6429C163.346 22.8781 162.085 22.3378 160.884 22.3378C159.564 22.3378 158.531 22.9741 158.291 24.1987L159.468 24.3547C159.648 23.5744 160.152 23.2142 160.872 23.2142C161.605 23.2142 162.145 23.5864 162.145 24.3067C162.145 24.7029 161.965 24.7629 161.581 24.8469L160.212 25.1111C158.916 25.3632 158.195 26.0235 158.195 27.0439C158.195 28.1604 159.06 28.7007 160.02 28.7007ZM159.396 26.8999C159.396 26.2996 159.852 25.9755 160.404 25.8554L162.145 25.4952V25.8074C162.145 26.9119 161.401 27.8483 160.44 27.8483C159.864 27.8483 159.396 27.5121 159.396 26.8999Z" fill="white"/>
<path d="M167.683 28.7007C169.136 28.7007 170.168 27.9803 170.168 26.7438C170.168 25.8194 169.556 25.3392 168.476 25.0751L167.323 24.7869C166.927 24.6909 166.495 24.4988 166.495 24.0066C166.495 23.4303 167.059 23.1782 167.707 23.1782C168.452 23.1782 169.04 23.5023 169.472 23.9465L170.156 23.2262C169.592 22.71 168.8 22.3378 167.731 22.3378C166.399 22.3378 165.318 22.8661 165.318 24.0786C165.318 25.039 165.991 25.4952 166.855 25.6993L167.935 25.9634C168.488 26.0955 168.992 26.2756 168.992 26.8278C168.992 27.4401 168.476 27.8123 167.683 27.8123C166.675 27.8123 166.027 27.272 165.51 26.7558L164.886 27.5362C165.354 28.0404 166.279 28.7007 167.683 28.7007Z" fill="white"/>
<path d="M172.644 25.8074H177.302C177.506 23.8025 176.294 22.3378 174.421 22.3378C172.668 22.3378 171.431 23.6104 171.431 25.5192C171.431 27.4401 172.728 28.7007 174.505 28.7007C175.801 28.7007 176.774 28.0404 177.158 27.14L176.149 26.8158C175.873 27.4041 175.261 27.7763 174.529 27.7763C173.448 27.7763 172.74 27.0199 172.644 25.8074ZM172.68 24.919C172.848 23.8985 173.46 23.2382 174.433 23.2382C175.357 23.2382 176.017 23.8385 176.161 24.919H172.68Z" fill="white"/>
<path d="M184.437 28.7007C185.889 28.7007 186.922 27.9803 186.922 26.7438C186.922 25.8194 186.31 25.3392 185.229 25.0751L184.077 24.7869C183.68 24.6909 183.248 24.4988 183.248 24.0066C183.248 23.4303 183.813 23.1782 184.461 23.1782C185.205 23.1782 185.793 23.5023 186.226 23.9465L186.91 23.2262C186.346 22.71 185.553 22.3378 184.485 22.3378C183.152 22.3378 182.072 22.8661 182.072 24.0786C182.072 25.039 182.744 25.4952 183.608 25.6993L184.689 25.9634C185.241 26.0955 185.745 26.2756 185.745 26.8278C185.745 27.4401 185.229 27.8123 184.437 27.8123C183.428 27.8123 182.78 27.272 182.264 26.7558L181.64 27.5362C182.108 28.0404 183.032 28.7007 184.437 28.7007Z" fill="white"/>
<path d="M188.185 25.5072C188.185 27.4281 189.397 28.6767 191.186 28.6767C192.555 28.6767 193.623 27.9443 193.972 26.6958L192.939 26.4317C192.711 27.272 192.087 27.7643 191.222 27.7643C190.07 27.7643 189.385 26.8518 189.385 25.5072C189.385 24.1626 190.07 23.2502 191.222 23.2502C192.087 23.2502 192.711 23.7545 192.939 24.5948L193.972 24.3187C193.623 23.0702 192.555 22.3498 191.186 22.3498C189.397 22.3498 188.185 23.5984 188.185 25.5072Z" fill="white"/>
<path d="M195.545 28.5326H196.685V25.5072C196.685 24.0426 197.346 23.2382 198.318 23.2382C199.146 23.2382 199.519 23.8265 199.519 24.7389V28.5326H200.671V24.4748C200.671 23.0702 199.891 22.3498 198.654 22.3498C197.706 22.3498 197.058 22.794 196.685 23.5384V20.0088H195.545V28.5326Z" fill="white"/>
<path d="M203.408 25.8074H208.066C208.27 23.8025 207.057 22.3378 205.184 22.3378C203.432 22.3378 202.195 23.6104 202.195 25.5192C202.195 27.4401 203.492 28.7007 205.268 28.7007C206.565 28.7007 207.537 28.0404 207.922 27.14L206.913 26.8158C206.637 27.4041 206.025 27.7763 205.292 27.7763C204.212 27.7763 203.504 27.0199 203.408 25.8074ZM203.444 24.919C203.612 23.8985 204.224 23.2382 205.196 23.2382C206.121 23.2382 206.781 23.8385 206.925 24.919H203.444Z" fill="white"/>
<path d="M215.266 28.5326V20.0088H214.125V23.5384C213.693 22.782 212.973 22.3498 212.036 22.3498C210.464 22.3498 209.323 23.5984 209.323 25.5072C209.323 27.4401 210.464 28.6887 212.036 28.6887C213.045 28.6887 213.801 28.1844 214.221 27.308V28.5326H215.266ZM210.524 25.5072C210.524 24.1987 211.196 23.2382 212.325 23.2382C213.453 23.2382 214.113 24.2107 214.113 25.5072C214.113 26.8158 213.453 27.8003 212.325 27.8003C211.196 27.8003 210.524 26.8278 210.524 25.5072Z" fill="white"/>
<path d="M222.313 22.5059H221.172V25.5313H221.16C221.16 26.9959 220.5 27.8003 219.527 27.8003C218.699 27.8003 218.327 27.212 218.327 26.2996V22.5059H217.174V26.5637C217.174 27.9683 217.955 28.6887 219.191 28.6887C220.248 28.6887 220.92 28.1484 221.268 27.26V28.5326H222.313V22.5059Z" fill="white"/>
<path d="M224.28 28.5326H225.421V20.0088H224.28V28.5326Z" fill="white"/>
<path d="M228.216 25.8074H232.874C233.078 23.8025 231.865 22.3378 229.992 22.3378C228.24 22.3378 227.003 23.6104 227.003 25.5192C227.003 27.4401 228.3 28.7007 230.076 28.7007C231.373 28.7007 232.345 28.0404 232.73 27.14L231.721 26.8158C231.445 27.4041 230.833 27.7763 230.1 27.7763C229.02 27.7763 228.312 27.0199 228.216 25.8074ZM228.252 24.919C228.42 23.8985 229.032 23.2382 230.004 23.2382C230.929 23.2382 231.589 23.8385 231.733 24.919H228.252Z" fill="white"/>
<path d="M21.1973 47.9697C22.3979 47.9697 22.8541 47.2734 23.2863 46.0968L25.6873 39.5059H24.4748L22.8661 44.2H22.8421L21.2333 39.5059H20.0088L21.8816 44.5842C22.0377 45.0404 22.0977 45.3405 22.0977 45.5566C22.0977 46.1329 21.7496 47.0333 20.9692 47.0333C20.8372 47.0333 20.7051 47.0093 20.537 46.9732V47.8856C20.7651 47.9457 20.9812 47.9697 21.1973 47.9697Z" fill="white"/>
<path d="M29.5262 45.7007C31.4231 45.7007 32.6116 44.3921 32.6116 42.5192C32.6116 40.6584 31.4231 39.3498 29.5262 39.3498C27.6294 39.3498 26.4408 40.6584 26.4408 42.5192C26.4408 44.3921 27.6294 45.7007 29.5262 45.7007ZM27.6414 42.5192C27.6414 41.1987 28.3257 40.2502 29.5262 40.2502C30.7388 40.2502 31.4111 41.1987 31.4111 42.5192C31.4111 43.8398 30.7388 44.7763 29.5262 44.7763C28.3257 44.7763 27.6414 43.8278 27.6414 42.5192Z" fill="white"/>
<path d="M39.2894 39.5059H38.1489V42.5313H38.1369C38.1369 43.9959 37.4766 44.8003 36.5042 44.8003C35.6758 44.8003 35.3036 44.212 35.3036 43.2996V39.5059H34.1511V43.5637C34.1511 44.9683 34.9315 45.6887 36.168 45.6887C37.2245 45.6887 37.8968 45.1484 38.2449 44.26V45.5326H39.2894V39.5059Z" fill="white"/>
<path d="M41.2572 45.5326H42.3978V42.7233C42.3978 41.895 42.7699 40.4063 44.2106 40.4063C44.3786 40.4063 44.5107 40.4303 44.6308 40.4543V39.3498C43.1181 39.3498 42.5178 40.0942 42.3017 41.1146V39.5059H41.2572V45.5326Z" fill="white"/>
<path d="M49.2647 45.5326H50.4052V42.5072H50.4172C50.4172 41.0426 51.0775 40.2382 52.05 40.2382C52.8783 40.2382 53.2505 40.8265 53.2505 41.7389V45.5326H54.403V41.4748C54.403 40.0702 53.6227 39.3498 52.3861 39.3498C51.3297 39.3498 50.6574 39.8901 50.3092 40.7785V39.5059H49.2647V45.5326Z" fill="white"/>
<path d="M57.1392 42.8074H61.7973C62.0014 40.8025 60.7888 39.3378 58.916 39.3378C57.1632 39.3378 55.9267 40.6104 55.9267 42.5192C55.9267 44.4401 57.2233 45.7007 59 45.7007C60.2966 45.7007 61.2691 45.0404 61.6532 44.14L60.6448 43.8158C60.3687 44.4041 59.7564 44.7763 59.0241 44.7763C57.9436 44.7763 57.2353 44.0199 57.1392 42.8074ZM57.1752 41.919C57.3433 40.8985 57.9556 40.2382 58.928 40.2382C59.8524 40.2382 60.5127 40.8385 60.6568 41.919H57.1752Z" fill="white"/>
<path d="M67.0217 45.5326H68.3063L66.1453 42.5913L68.3423 39.5059H67.0577L65.533 41.7629L63.8763 39.5059H62.5917L64.7767 42.4712L62.5197 45.5326H63.8042L65.377 43.2876L67.0217 45.5326Z" fill="white"/>
<path d="M72.0716 45.6887C72.3718 45.6887 72.6599 45.6647 72.9 45.6166V44.7162C72.7559 44.7282 72.5999 44.7402 72.4438 44.7402C71.8795 44.7402 71.5074 44.5482 71.5074 43.8278V40.3463H72.804V39.5059H71.5074V37.573H70.3549V39.5059H69.3464V40.3463H70.3549V44.0679C70.3549 45.2925 70.9671 45.6887 72.0716 45.6887Z" fill="white"/>
<path d="M83.3594 47.8136V39.5059H82.3149V40.7304C81.8947 39.8541 81.1384 39.3498 80.1299 39.3498C78.5572 39.3498 77.4167 40.5984 77.4167 42.5072C77.4167 44.4401 78.5572 45.6887 80.1299 45.6887C81.0664 45.6887 81.7867 45.2565 82.2189 44.4881V47.8136H83.3594ZM78.6173 42.5072C78.6173 41.1987 79.2896 40.2382 80.4181 40.2382C81.5466 40.2382 82.2069 41.2107 82.2069 42.5072C82.2069 43.8158 81.5466 44.8003 80.4181 44.8003C79.2896 44.8003 78.6173 43.8278 78.6173 42.5072Z" fill="white"/>
<path d="M90.406 39.5059H89.2655V42.5313H89.2535C89.2535 43.9959 88.5932 44.8003 87.6207 44.8003C86.7924 44.8003 86.4202 44.212 86.4202 43.2996V39.5059H85.2677V43.5637C85.2677 44.9683 86.048 45.6887 87.2846 45.6887C88.341 45.6887 89.0133 45.1484 89.3615 44.26V45.5326H90.406V39.5059Z" fill="white"/>
<path d="M93.8265 45.7007C94.7389 45.7007 95.4952 45.2445 95.9754 44.4761V44.8003C95.9754 45.3645 96.4316 45.7007 97.1039 45.7007C97.32 45.7007 97.5481 45.6647 97.7522 45.5926V44.6682C97.6682 44.6922 97.5721 44.7042 97.4881 44.7042C97.224 44.7042 97.1039 44.5842 97.1039 44.284L97.1279 41.6429C97.1519 39.8781 95.8914 39.3378 94.6908 39.3378C93.3703 39.3378 92.3378 39.9741 92.0977 41.1987L93.2742 41.3547C93.4543 40.5744 93.9585 40.2142 94.6788 40.2142C95.4112 40.2142 95.9514 40.5864 95.9514 41.3067C95.9514 41.7029 95.7713 41.7629 95.3872 41.847L94.0185 42.1111C92.722 42.3632 92.0016 43.0235 92.0016 44.0439C92.0016 45.1604 92.866 45.7007 93.8265 45.7007ZM93.2022 43.8999C93.2022 43.2996 93.6584 42.9755 94.2106 42.8554L95.9514 42.4952V42.8074C95.9514 43.9119 95.2071 44.8483 94.2467 44.8483C93.6704 44.8483 93.2022 44.5121 93.2022 43.8999Z" fill="white"/>
<path d="M99.1737 45.5326H100.314V42.7233C100.314 41.895 100.686 40.4063 102.127 40.4063C102.295 40.4063 102.427 40.4303 102.547 40.4543V39.3498C101.035 39.3498 100.434 40.0942 100.218 41.1146V39.5059H99.1737V45.5326Z" fill="white"/>
<path d="M106.177 45.6887C106.477 45.6887 106.765 45.6647 107.005 45.6166V44.7162C106.861 44.7282 106.705 44.7402 106.549 44.7402C105.985 44.7402 105.612 44.5482 105.612 43.8278V40.3463H106.909V39.5059H105.612V37.573H104.46V39.5059H103.451V40.3463H104.46V44.0679C104.46 45.2925 105.072 45.6887 106.177 45.6887Z" fill="white"/>
<path d="M109.37 42.8074H114.028C114.232 40.8025 113.019 39.3378 111.146 39.3378C109.394 39.3378 108.157 40.6104 108.157 42.5192C108.157 44.4401 109.454 45.7007 111.23 45.7007C112.527 45.7007 113.499 45.0404 113.884 44.14L112.875 43.8158C112.599 44.4041 111.987 44.7763 111.254 44.7763C110.174 44.7763 109.466 44.0199 109.37 42.8074ZM109.406 41.919C109.574 40.8985 110.186 40.2382 111.158 40.2382C112.083 40.2382 112.743 40.8385 112.887 41.919H109.406Z" fill="white"/>
<path d="M115.622 45.5326H116.763V42.7233C116.763 41.895 117.135 40.4063 118.576 40.4063C118.744 40.4063 118.876 40.4303 118.996 40.4543V39.3498C117.483 39.3498 116.883 40.0942 116.667 41.1146V39.5059H115.622V45.5326Z" fill="white"/>
<path d="M120.464 45.5326H121.605V37.0088H120.464V45.5326Z" fill="white"/>
<path d="M124.064 47.9697C125.264 47.9697 125.72 47.2734 126.152 46.0968L128.554 39.5059H127.341L125.732 44.2H125.708L124.1 39.5059H122.875L124.748 44.5842C124.904 45.0404 124.964 45.3405 124.964 45.5566C124.964 46.1329 124.616 47.0333 123.835 47.0333C123.703 47.0333 123.571 47.0093 123.403 46.9732V47.8856C123.631 47.9457 123.847 47.9697 124.064 47.9697Z" fill="white"/>
<path d="M133.547 38.6535V39.5059H132.539V40.3463H133.547V45.5326H134.7V40.3463H135.996V39.5059H134.7V38.7736C134.7 38.0533 135.072 37.8011 135.66 37.8011C135.792 37.8011 135.948 37.8131 136.092 37.8252V36.9248C135.852 36.8767 135.612 36.8527 135.348 36.8527C134.207 36.8527 133.547 37.417 133.547 38.6535Z" fill="white"/>
<path d="M138.05 45.5326H139.191V39.5059H138.05V45.5326ZM137.99 38.2814H139.263V37.0088H137.99V38.2814Z" fill="white"/>
<path d="M141.157 45.5326H142.298V42.5072H142.31C142.31 41.0426 142.97 40.2382 143.943 40.2382C144.771 40.2382 145.143 40.8265 145.143 41.7389V45.5326H146.296V41.4748C146.296 40.0702 145.515 39.3498 144.279 39.3498C143.222 39.3498 142.55 39.8901 142.202 40.7785V39.5059H141.157V45.5326Z" fill="white"/>
<path d="M149.656 45.7007C150.568 45.7007 151.325 45.2445 151.805 44.4761V44.8003C151.805 45.3645 152.261 45.7007 152.934 45.7007C153.15 45.7007 153.378 45.6647 153.582 45.5926V44.6682C153.498 44.6922 153.402 44.7042 153.318 44.7042C153.054 44.7042 152.934 44.5842 152.934 44.284L152.958 41.6429C152.982 39.8781 151.721 39.3378 150.52 39.3378C149.2 39.3378 148.167 39.9741 147.927 41.1987L149.104 41.3547C149.284 40.5744 149.788 40.2142 150.508 40.2142C151.241 40.2142 151.781 40.5864 151.781 41.3067C151.781 41.7029 151.601 41.7629 151.217 41.847L149.848 42.1111C148.552 42.3632 147.831 43.0235 147.831 44.0439C147.831 45.1604 148.696 45.7007 149.656 45.7007ZM149.032 43.8999C149.032 43.2996 149.488 42.9755 150.04 42.8554L151.781 42.4952V42.8074C151.781 43.9119 151.037 44.8483 150.076 44.8483C149.5 44.8483 149.032 44.5121 149.032 43.8999Z" fill="white"/>
<path d="M155.003 45.5326H156.144V42.5072H156.156C156.156 41.0426 156.816 40.2382 157.789 40.2382C158.617 40.2382 158.989 40.8265 158.989 41.7389V45.5326H160.142V41.4748C160.142 40.0702 159.361 39.3498 158.125 39.3498C157.068 39.3498 156.396 39.8901 156.048 40.7785V39.5059H155.003V45.5326Z" fill="white"/>
<path d="M161.665 42.5072C161.665 44.4281 162.878 45.6767 164.667 45.6767C166.035 45.6767 167.104 44.9443 167.452 43.6958L166.419 43.4317C166.191 44.272 165.567 44.7643 164.703 44.7643C163.55 44.7643 162.866 43.8518 162.866 42.5072C162.866 41.1626 163.55 40.2502 164.703 40.2502C165.567 40.2502 166.191 40.7545 166.419 41.5948L167.452 41.3187C167.104 40.0702 166.035 39.3498 164.667 39.3498C162.878 39.3498 161.665 40.5984 161.665 42.5072Z" fill="white"/>
<path d="M169.025 45.5326H170.166V39.5059H169.025V45.5326ZM168.965 38.2814H170.238V37.0088H168.965V38.2814Z" fill="white"/>
<path d="M173.585 45.7007C174.497 45.7007 175.253 45.2445 175.734 44.4761V44.8003C175.734 45.3645 176.19 45.7007 176.862 45.7007C177.078 45.7007 177.306 45.6647 177.51 45.5926V44.6682C177.426 44.6922 177.33 44.7042 177.246 44.7042C176.982 44.7042 176.862 44.5842 176.862 44.284L176.886 41.6429C176.91 39.8781 175.65 39.3378 174.449 39.3378C173.129 39.3378 172.096 39.9741 171.856 41.1987L173.032 41.3547C173.213 40.5744 173.717 40.2142 174.437 40.2142C175.169 40.2142 175.71 40.5864 175.71 41.3067C175.71 41.7029 175.53 41.7629 175.145 41.847L173.777 42.1111C172.48 42.3632 171.76 43.0235 171.76 44.0439C171.76 45.1604 172.624 45.7007 173.585 45.7007ZM172.96 43.8999C172.96 43.2996 173.417 42.9755 173.969 42.8554L175.71 42.4952V42.8074C175.71 43.9119 174.965 44.8483 174.005 44.8483C173.429 44.8483 172.96 44.5121 172.96 43.8999Z" fill="white"/>
<path d="M178.932 45.5326H180.073V37.0088H178.932V45.5326Z" fill="white"/>
<path d="M185.31 45.5326H186.45V42.7233C186.45 41.895 186.823 40.4063 188.263 40.4063C188.431 40.4063 188.563 40.4303 188.683 40.4543V39.3498C187.171 39.3498 186.57 40.0942 186.354 41.1146V39.5059H185.31V45.5326Z" fill="white"/>
<path d="M190.711 42.8074H195.369C195.573 40.8025 194.36 39.3378 192.487 39.3378C190.735 39.3378 189.498 40.6104 189.498 42.5192C189.498 44.4401 190.795 45.7007 192.571 45.7007C193.868 45.7007 194.84 45.0404 195.225 44.14L194.216 43.8158C193.94 44.4041 193.328 44.7763 192.595 44.7763C191.515 44.7763 190.807 44.0199 190.711 42.8074ZM190.747 41.919C190.915 40.8985 191.527 40.2382 192.499 40.2382C193.424 40.2382 194.084 40.8385 194.228 41.919H190.747Z" fill="white"/>
<path d="M198.359 45.5326H199.619L201.828 39.5059H200.628L199.007 44.26H198.983L197.35 39.5059H196.15L198.359 45.5326Z" fill="white"/>
<path d="M203.107 45.5326H204.247V39.5059H203.107V45.5326ZM203.047 38.2814H204.319V37.0088H203.047V38.2814Z" fill="white"/>
<path d="M207.042 42.8074H211.7C211.904 40.8025 210.692 39.3378 208.819 39.3378C207.066 39.3378 205.83 40.6104 205.83 42.5192C205.83 44.4401 207.126 45.7007 208.903 45.7007C210.2 45.7007 211.172 45.0404 211.556 44.14L210.548 43.8158C210.272 44.4041 209.659 44.7763 208.927 44.7763C207.846 44.7763 207.138 44.0199 207.042 42.8074ZM207.078 41.919C207.246 40.8985 207.858 40.2382 208.831 40.2382C209.755 40.2382 210.416 40.8385 210.56 41.919H207.078Z" fill="white"/>
<path d="M214.306 45.5326H215.447L216.827 40.9826H216.851L218.244 45.5326H219.385L221.209 39.5059H220.081L218.808 44.0439H218.784L217.404 39.5059H216.287L214.907 44.0439H214.883L213.61 39.5059H212.481L214.306 45.5326Z" fill="white"/>
<path d="M223.254 43.2036H223.734L224.094 41.1386V37.0088H222.894V41.1386L223.254 43.2036ZM222.846 45.5326H224.142V44.236H222.846V45.5326Z" fill="white"/>
</svg>
