<svg width="267" height="255" viewBox="0 0 267 255" fill="none" xmlns="http://www.w3.org/2000/svg">
<g filter="url(#filter0_d_53_655)">
<rect x="30" y="28" width="207" height="194" rx="8" fill="white"/>
<rect x="93.5" y="52" width="80" height="80" rx="40" fill="#226752"/>
<path d="M118 92.5L129 103.5L150 82.5" stroke="white" stroke-width="3"/>
<path d="M74.2485 167H75.6525V161.168L80.3325 154.22H78.8025L74.9685 160.034H74.9325L71.0985 154.22H69.5685L74.2485 161.132V167ZM84.4459 167.216C87.2179 167.216 88.9639 165.254 88.9639 162.482C88.9639 159.746 87.2179 157.784 84.4459 157.784C81.6559 157.784 79.9099 159.746 79.9099 162.482C79.9099 165.254 81.6559 167.216 84.4459 167.216ZM81.3139 162.482C81.3139 160.376 82.4479 158.846 84.4459 158.846C86.4439 158.846 87.5599 160.376 87.5599 162.482C87.5599 164.606 86.4439 166.136 84.4459 166.136C82.4479 166.136 81.3139 164.588 81.3139 162.482ZM98.7966 158H97.4466V162.5C97.4466 164.876 96.3126 166.172 94.7466 166.172C93.4326 166.172 92.8206 165.236 92.8206 163.814V158H91.4706V164.102C91.4706 166.118 92.5506 167.216 94.4046 167.216C96.0066 167.216 97.0506 166.352 97.5726 164.876V167H98.7966V158ZM101.896 167H103.246V162.608C103.246 161.384 103.822 159.044 106 159.044C106.234 159.044 106.432 159.062 106.594 159.098V157.784C104.308 157.784 103.426 158.99 103.12 160.52V158H101.896V167ZM113.568 167H114.918V162.608C114.918 161.384 115.494 159.044 117.672 159.044C117.906 159.044 118.104 159.062 118.266 159.098V157.784C115.98 157.784 115.098 158.99 114.792 160.52V158H113.568V167ZM121.005 162.806H128.223C128.439 159.89 126.675 157.766 123.957 157.766C121.383 157.766 119.601 159.71 119.601 162.5C119.601 165.308 121.473 167.216 124.101 167.216C125.973 167.216 127.413 166.262 127.989 164.948L126.783 164.534C126.351 165.488 125.379 166.136 124.137 166.136C122.301 166.136 121.113 164.822 121.005 162.806ZM121.059 161.762C121.275 160.016 122.319 158.846 123.993 158.846C125.577 158.846 126.675 159.926 126.891 161.762H121.059ZM133.765 167.216C134.197 167.216 134.575 167.162 134.899 167.108V166.046C134.683 166.082 134.431 166.1 134.197 166.1C133.351 166.1 132.757 165.812 132.757 164.678V158.99H134.737V158H132.757V155.102H131.407V158H129.895V158.99H131.407V164.948C131.407 166.694 132.307 167.216 133.765 167.216ZM144.728 158H143.378V162.5C143.378 164.876 142.244 166.172 140.678 166.172C139.364 166.172 138.752 165.236 138.752 163.814V158H137.402V164.102C137.402 166.118 138.482 167.216 140.336 167.216C141.938 167.216 142.982 166.352 143.504 164.876V167H144.728V158ZM147.827 167H149.177V162.608C149.177 161.384 149.753 159.044 151.931 159.044C152.165 159.044 152.363 159.062 152.525 159.098V157.784C150.239 157.784 149.357 158.99 149.051 160.52V158H147.827V167ZM154.718 167H156.068V162.5C156.068 160.124 157.202 158.828 158.768 158.828C160.082 158.828 160.694 159.764 160.694 161.186V167H162.044V160.898C162.044 158.882 160.964 157.784 159.11 157.784C157.508 157.784 156.464 158.648 155.942 160.124V158H154.718V167ZM169.87 167H171.22V162.5C171.22 160.124 172.354 158.828 173.92 158.828C175.234 158.828 175.846 159.764 175.846 161.186V167H177.196V160.898C177.196 158.882 176.116 157.784 174.262 157.784C172.786 157.784 171.778 158.522 171.22 159.8V154.22H169.87V167ZM182.383 167.216C183.823 167.216 184.993 166.424 185.659 165.146V165.992C185.659 166.802 186.271 167.216 187.153 167.216C187.441 167.216 187.747 167.162 187.999 167.072V165.992C187.855 166.028 187.711 166.064 187.567 166.064C187.171 166.064 186.991 165.884 186.991 165.434L187.009 161.096C187.045 158.612 185.317 157.766 183.553 157.766C181.645 157.766 180.223 158.72 179.845 160.484L181.231 160.664C181.537 159.44 182.329 158.81 183.535 158.81C184.741 158.81 185.641 159.44 185.641 160.682C185.641 161.33 185.371 161.42 184.777 161.546L182.635 161.96C180.781 162.338 179.683 163.256 179.683 164.786C179.683 166.406 180.943 167.216 182.383 167.216ZM181.087 164.624C181.087 163.616 181.861 163.076 182.851 162.86L185.641 162.284V162.914C185.641 164.714 184.417 166.208 182.833 166.208C181.861 166.208 181.087 165.632 181.087 164.624ZM193.536 167.234C195.66 167.234 197.1 166.136 197.1 164.372C197.1 163.004 196.164 162.32 194.598 161.942L192.924 161.528C192.24 161.366 191.538 161.042 191.538 160.196C191.538 159.224 192.474 158.774 193.572 158.774C194.742 158.774 195.588 159.26 196.236 159.926L197.064 159.062C196.254 158.324 195.156 157.766 193.608 157.766C191.682 157.766 190.152 158.558 190.152 160.286C190.152 161.69 191.16 162.338 192.366 162.626L194.004 163.022C194.922 163.238 195.714 163.562 195.714 164.48C195.714 165.524 194.886 166.172 193.536 166.172C191.916 166.172 190.98 165.308 190.26 164.57L189.504 165.488C190.152 166.226 191.466 167.234 193.536 167.234ZM92.9132 192H94.1372V189.948C94.7312 191.37 95.9012 192.216 97.5032 192.216C99.8792 192.216 101.553 190.308 101.553 187.482C101.553 184.674 99.8792 182.784 97.5032 182.784C96.0092 182.784 94.8932 183.522 94.2632 184.764V179.22H92.9132V192ZM94.2632 187.482C94.2632 185.394 95.3432 183.828 97.1972 183.828C99.0512 183.828 100.149 185.376 100.149 187.482C100.149 189.606 99.0512 191.172 97.1972 191.172C95.3432 191.172 94.2632 189.588 94.2632 187.482ZM104.992 187.806H112.21C112.426 184.89 110.662 182.766 107.944 182.766C105.37 182.766 103.588 184.71 103.588 187.5C103.588 190.308 105.46 192.216 108.088 192.216C109.96 192.216 111.4 191.262 111.976 189.948L110.77 189.534C110.338 190.488 109.366 191.136 108.124 191.136C106.288 191.136 105.1 189.822 104.992 187.806ZM105.046 186.762C105.262 185.016 106.306 183.846 107.98 183.846C109.564 183.846 110.662 184.926 110.878 186.762H105.046ZM115.644 187.806H122.862C123.078 184.89 121.314 182.766 118.596 182.766C116.022 182.766 114.24 184.71 114.24 187.5C114.24 190.308 116.112 192.216 118.74 192.216C120.612 192.216 122.052 191.262 122.628 189.948L121.422 189.534C120.99 190.488 120.018 191.136 118.776 191.136C116.94 191.136 115.752 189.822 115.644 187.806ZM115.698 186.762C115.914 185.016 116.958 183.846 118.632 183.846C120.216 183.846 121.314 184.926 121.53 186.762H115.698ZM125.398 192H126.748V187.5C126.748 185.124 127.882 183.828 129.448 183.828C130.762 183.828 131.374 184.764 131.374 186.186V192H132.724V185.898C132.724 183.882 131.644 182.784 129.79 182.784C128.188 182.784 127.144 183.648 126.622 185.124V183H125.398V192ZM142.548 183.99H146.436V192H147.786V183H142.548V181.668C142.548 180.516 143.142 180.12 144.024 180.12C144.222 180.12 144.474 180.138 144.69 180.174V179.112C144.366 179.058 144.042 179.004 143.664 179.004C142.134 179.004 141.198 179.76 141.198 181.506V183H139.686V183.99H141.198V192H142.548V183.99ZM146.346 180.768H147.894V179.22H146.346V180.768ZM150.886 192H152.236V179.22H150.886V192ZM156.197 187.806H163.415C163.631 184.89 161.867 182.766 159.149 182.766C156.575 182.766 154.793 184.71 154.793 187.5C154.793 190.308 156.665 192.216 159.293 192.216C161.165 192.216 162.605 191.262 163.181 189.948L161.975 189.534C161.543 190.488 160.571 191.136 159.329 191.136C157.493 191.136 156.305 189.822 156.197 187.806ZM156.251 186.762C156.467 185.016 157.511 183.846 159.185 183.846C160.769 183.846 161.867 184.926 162.083 186.762H156.251ZM174.085 192V179.22H172.735V184.764C172.105 183.522 170.989 182.784 169.495 182.784C167.119 182.784 165.445 184.674 165.445 187.482C165.445 190.308 167.119 192.216 169.495 192.216C171.097 192.216 172.267 191.37 172.861 189.948V192H174.085ZM166.849 187.482C166.849 185.376 167.947 183.828 169.801 183.828C171.655 183.828 172.735 185.394 172.735 187.482C172.735 189.588 171.655 191.172 169.801 191.172C167.947 191.172 166.849 189.606 166.849 187.482Z" fill="#1D1D1D"/>
</g>
<defs>
<filter id="filter0_d_53_655" x="0.109999" y="0.38494" width="266.78" height="253.78" filterUnits="userSpaceOnUse" color-interpolation-filters="sRGB">
<feFlood flood-opacity="0" result="BackgroundImageFix"/>
<feColorMatrix in="SourceAlpha" type="matrix" values="0 0 0 0 0 0 0 0 0 0 0 0 0 0 0 0 0 0 127 0" result="hardAlpha"/>
<feMorphology radius="7.52" operator="dilate" in="SourceAlpha" result="effect1_dropShadow_53_655"/>
<feOffset dy="2.27494"/>
<feGaussianBlur stdDeviation="11.185"/>
<feColorMatrix type="matrix" values="0 0 0 0 0 0 0 0 0 0 0 0 0 0 0 0 0 0 0.05 0"/>
<feBlend mode="normal" in2="BackgroundImageFix" result="effect1_dropShadow_53_655"/>
<feBlend mode="normal" in="SourceGraphic" in2="effect1_dropShadow_53_655" result="shape"/>
</filter>
</defs>
</svg>
