<svg width="479" height="223" viewBox="0 0 479 223" fill="none" xmlns="http://www.w3.org/2000/svg">
<g filter="url(#filter0_d_51_393)">
<rect x="63" y="107" width="354.538" height="88" rx="7" fill="white"/>
<rect x="83.3076" y="127.308" width="47.3846" height="47.3846" rx="23.6923" fill="#F2F2EF"/>
<g clip-path="url(#clip0_51_393)">
<circle cx="107" cy="148.462" r="1.69231" stroke="black" stroke-width="1.69231"/>
<path d="M102.77 156.077V155.231C102.77 153.829 103.906 152.692 105.308 152.692H106.154" stroke="black" stroke-width="1.69231"/>
<circle cx="112.077" cy="156.077" r="4.23077" stroke="black" stroke-width="1.69231"/>
<rect x="98.5386" y="142.538" width="16.9231" height="1.69231" fill="black"/>
<rect x="98.5386" y="157.769" width="7.61538" height="1.69231" fill="black"/>
<rect x="98.5386" y="159.462" width="15.2308" height="1.69231" transform="rotate(-90 98.5386 159.462)" fill="black"/>
<rect x="113.77" y="150.154" width="5.92308" height="1.69231" transform="rotate(-90 113.77 150.154)" fill="black"/>
<path d="M110.385 155.835L111.638 156.923L113.769 154.385" stroke="black" stroke-width="1.69231"/>
</g>
<path d="M150.727 158.223C153.78 158.223 155.679 156.79 155.679 154.296C155.679 152.304 154.488 151.243 152.31 150.684L149.852 150.07C148.624 149.753 147.674 149.269 147.674 147.985C147.674 146.421 149.108 145.695 150.802 145.695C152.589 145.695 153.78 146.421 154.655 147.426L155.604 146.421C154.525 145.379 152.98 144.56 150.839 144.56C148.14 144.56 146.148 145.714 146.148 148.115C146.148 150.088 147.488 150.982 149.257 151.429L151.584 152.006C153.166 152.415 154.152 152.992 154.152 154.463C154.152 156.138 152.887 157.088 150.764 157.088C148.344 157.088 147.023 155.766 146.073 154.668L145.161 155.636C146.073 156.716 147.842 158.223 150.727 158.223ZM161.756 158.223C162.203 158.223 162.594 158.168 162.929 158.112V157.013C162.706 157.051 162.445 157.069 162.203 157.069C161.328 157.069 160.714 156.771 160.714 155.599V149.716H162.762V148.692H160.714V145.695H159.318V148.692H157.754V149.716H159.318V155.878C159.318 157.684 160.249 158.223 161.756 158.223ZM167.789 158.223C169.278 158.223 170.488 157.404 171.177 156.083V156.958C171.177 157.795 171.81 158.223 172.722 158.223C173.02 158.223 173.336 158.168 173.597 158.074V156.958C173.448 156.995 173.299 157.032 173.15 157.032C172.741 157.032 172.555 156.846 172.555 156.38L172.573 151.894C172.61 149.325 170.823 148.45 168.999 148.45C167.026 148.45 165.555 149.437 165.164 151.261L166.598 151.447C166.914 150.182 167.733 149.53 168.98 149.53C170.228 149.53 171.158 150.182 171.158 151.466C171.158 152.136 170.879 152.229 170.265 152.36L168.05 152.788C166.132 153.179 164.997 154.128 164.997 155.71C164.997 157.386 166.3 158.223 167.789 158.223ZM166.449 155.543C166.449 154.5 167.249 153.942 168.273 153.718L171.158 153.123V153.774C171.158 155.636 169.893 157.181 168.254 157.181C167.249 157.181 166.449 156.585 166.449 155.543ZM178.59 158.223C179.037 158.223 179.428 158.168 179.763 158.112V157.013C179.54 157.051 179.279 157.069 179.037 157.069C178.162 157.069 177.548 156.771 177.548 155.599V149.716H179.595V148.692H177.548V145.695H176.152V148.692H174.588V149.716H176.152V155.878C176.152 157.684 177.082 158.223 178.59 158.223ZM183.101 153.663H190.566C190.789 150.647 188.965 148.45 186.154 148.45C183.492 148.45 181.649 150.461 181.649 153.346C181.649 156.25 183.585 158.223 186.303 158.223C188.239 158.223 189.728 157.237 190.324 155.878L189.076 155.45C188.63 156.436 187.624 157.106 186.34 157.106C184.441 157.106 183.213 155.748 183.101 153.663ZM183.157 152.583C183.38 150.777 184.46 149.567 186.191 149.567C187.829 149.567 188.965 150.684 189.188 152.583H183.157Z" fill="#1D1D1D"/>
<path d="M348.473 157.692H349.638V156.19C351.668 156.027 352.955 154.998 352.955 153.198C352.955 151.735 352.115 150.869 350.504 150.463L349.638 150.246V147.498C350.64 147.62 351.371 148.094 351.953 148.689L352.955 147.593C352.156 146.875 351.073 146.306 349.638 146.198V144.695H348.473V146.212C346.7 146.388 345.495 147.268 345.495 148.933C345.495 150.463 346.51 151.167 347.905 151.519L348.473 151.668V154.849C347.241 154.66 346.416 153.942 345.725 153.225L344.777 154.321C345.414 155.012 346.619 155.986 348.473 156.176V157.692ZM347.241 148.77C347.241 148.039 347.783 147.66 348.473 147.525V149.948C347.742 149.745 347.241 149.488 347.241 148.77ZM349.638 154.876V151.966C350.626 152.209 351.222 152.534 351.222 153.401C351.222 154.281 350.626 154.754 349.638 154.876ZM356.859 156H358.51V146.388H357.143V146.862C357.143 148.107 356.385 148.188 355.044 148.188H354.408V149.474H356.859V156ZM364.052 154.903C363.01 154.903 362.17 154.321 362.008 153.252L360.383 153.428C360.586 155.039 361.967 156.203 364.079 156.203C366.137 156.203 367.667 155.134 367.667 153.36C367.667 151.979 366.801 151.234 365.785 151.031V151.004C366.774 150.72 367.464 149.989 367.464 148.852C367.464 147.241 366.137 146.198 364.188 146.198C362.143 146.198 360.898 147.295 360.668 148.879L362.401 149.014C362.522 148.053 363.199 147.484 364.161 147.484C365.081 147.484 365.731 147.999 365.731 148.852C365.731 149.732 365.041 150.422 363.565 150.422H362.996V151.708H363.768C365.162 151.708 365.921 152.277 365.921 153.292C365.921 154.267 365.19 154.903 364.052 154.903ZM371.251 156H372.902C372.902 152.534 374.188 150.151 376.165 147.525V146.388H369.139V149.15H370.723V147.687H374.608C372.483 150.327 371.251 152.602 371.251 156ZM376.73 156H378.598V154.132H376.73V156ZM384.297 156.19C386.342 156.19 387.885 155.161 387.885 153.401C387.885 152.223 387.181 151.424 386.084 151.031C387.005 150.612 387.56 149.854 387.56 148.825C387.56 147.254 386.247 146.198 384.297 146.198C382.361 146.198 381.048 147.254 381.048 148.825C381.048 149.854 381.603 150.612 382.51 151.031C381.427 151.424 380.723 152.223 380.723 153.401C380.723 155.161 382.267 156.19 384.297 156.19ZM382.375 153.279C382.375 152.263 383.201 151.6 384.297 151.6C385.421 151.6 386.22 152.263 386.22 153.279C386.22 154.308 385.421 154.958 384.297 154.958C383.201 154.958 382.375 154.308 382.375 153.279ZM382.619 148.906C382.619 148.094 383.282 147.43 384.297 147.43C385.313 147.43 385.99 148.094 385.99 148.906C385.99 149.718 385.313 150.395 384.297 150.395C383.282 150.395 382.619 149.732 382.619 148.906ZM392.847 156.203C394.932 156.203 396.543 154.958 396.543 152.778C396.543 150.72 395.135 149.556 393.266 149.556C392.562 149.556 391.926 149.718 391.412 150.07L391.831 147.687H395.974V146.388H390.518L389.625 151.844L391.1 151.925C391.466 151.072 392.197 150.761 392.914 150.761C394.011 150.761 394.81 151.519 394.81 152.791C394.81 154.105 393.97 154.903 392.833 154.903C391.967 154.903 391.222 154.43 390.992 153.509L389.408 153.929C389.773 155.282 391.005 156.203 392.847 156.203Z" fill="#226752"/>
</g>
<g filter="url(#filter1_d_51_393)">
<rect x="30" y="28" width="419" height="104" rx="8" fill="white"/>
<rect x="54" y="52" width="56" height="56" rx="28" fill="#FAE3C3"/>
<rect x="75" y="77" width="2" height="7" fill="#1D1D1D"/>
<rect x="81" y="77" width="2" height="7" fill="#1D1D1D"/>
<rect x="87" y="77" width="2" height="7" fill="#1D1D1D"/>
<circle cx="82" cy="74" r="1" fill="#1D1D1D"/>
<path d="M73.1805 89L73.8471 85H90.1529L90.8195 89H73.1805Z" stroke="#1D1D1D" stroke-width="2"/>
<path d="M73 77V73.7735L82 70.0809L91 73.7735V77H73Z" stroke="#1D1D1D" stroke-width="2"/>
<path d="M128.42 71.88V87.5H130.136V79.844H137.77V78.502H130.136V73.222H138.21V71.88H128.42ZM142.16 82.374H150.982C151.246 78.81 149.09 76.214 145.768 76.214C142.622 76.214 140.444 78.59 140.444 82C140.444 85.432 142.732 87.764 145.944 87.764C148.232 87.764 149.992 86.598 150.696 84.992L149.222 84.486C148.694 85.652 147.506 86.444 145.988 86.444C143.744 86.444 142.292 84.838 142.16 82.374ZM142.226 81.098C142.49 78.964 143.766 77.534 145.812 77.534C147.748 77.534 149.09 78.854 149.354 81.098H142.226ZM164.024 87.5V71.88H162.374V78.656C161.604 77.138 160.24 76.236 158.414 76.236C155.51 76.236 153.464 78.546 153.464 81.978C153.464 85.432 155.51 87.764 158.414 87.764C160.372 87.764 161.802 86.73 162.528 84.992V87.5H164.024ZM155.18 81.978C155.18 79.404 156.522 77.512 158.788 77.512C161.054 77.512 162.374 79.426 162.374 81.978C162.374 84.552 161.054 86.488 158.788 86.488C156.522 86.488 155.18 84.574 155.18 81.978ZM168.844 82.374H177.666C177.93 78.81 175.774 76.214 172.452 76.214C169.306 76.214 167.128 78.59 167.128 82C167.128 85.432 169.416 87.764 172.628 87.764C174.916 87.764 176.676 86.598 177.38 84.992L175.906 84.486C175.378 85.652 174.19 86.444 172.672 86.444C170.428 86.444 168.976 84.838 168.844 82.374ZM168.91 81.098C169.174 78.964 170.45 77.534 172.496 77.534C174.432 77.534 175.774 78.854 176.038 81.098H168.91ZM180.765 87.5H182.415V82.132C182.415 80.636 183.119 77.776 185.781 77.776C186.067 77.776 186.309 77.798 186.507 77.842V76.236C183.713 76.236 182.635 77.71 182.261 79.58V76.5H180.765V87.5ZM191.74 87.764C193.5 87.764 194.93 86.796 195.744 85.234V86.268C195.744 87.258 196.492 87.764 197.57 87.764C197.922 87.764 198.296 87.698 198.604 87.588V86.268C198.428 86.312 198.252 86.356 198.076 86.356C197.592 86.356 197.372 86.136 197.372 85.586L197.394 80.284C197.438 77.248 195.326 76.214 193.17 76.214C190.838 76.214 189.1 77.38 188.638 79.536L190.332 79.756C190.706 78.26 191.674 77.49 193.148 77.49C194.622 77.49 195.722 78.26 195.722 79.778C195.722 80.57 195.392 80.68 194.666 80.834L192.048 81.34C189.782 81.802 188.44 82.924 188.44 84.794C188.44 86.774 189.98 87.764 191.74 87.764ZM190.156 84.596C190.156 83.364 191.102 82.704 192.312 82.44L195.722 81.736V82.506C195.722 84.706 194.226 86.532 192.29 86.532C191.102 86.532 190.156 85.828 190.156 84.596ZM201.326 87.5H202.976V71.88H201.326V87.5Z" fill="#1D1D1D"/>
<path d="M349.284 88H350.66V86.224C353.06 86.032 354.58 84.816 354.58 82.688C354.58 80.96 353.588 79.936 351.684 79.456L350.66 79.2V75.952C351.844 76.096 352.708 76.656 353.396 77.36L354.58 76.064C353.636 75.216 352.356 74.544 350.66 74.416V72.64H349.284V74.432C347.188 74.64 345.764 75.68 345.764 77.648C345.764 79.456 346.964 80.288 348.612 80.704L349.284 80.88V84.64C347.828 84.416 346.852 83.568 346.036 82.72L344.916 84.016C345.668 84.832 347.092 85.984 349.284 86.208V88ZM347.828 77.456C347.828 76.592 348.468 76.144 349.284 75.984V78.848C348.42 78.608 347.828 78.304 347.828 77.456ZM350.66 84.672V81.232C351.828 81.52 352.532 81.904 352.532 82.928C352.532 83.968 351.828 84.528 350.66 84.672ZM359.193 86H361.145V74.64H359.529V75.2C359.529 76.672 358.633 76.768 357.049 76.768H356.297V78.288H359.193V86ZM364.271 88.624H364.607C365.903 88.624 366.479 88.08 366.479 86.768V83.792H364.271V86H365.199V86.752C365.199 87.296 364.991 87.488 364.447 87.488H364.271V88.624ZM368.687 81.856V83.216H374.319V86H376.271V83.216H378.079V81.68H376.271V74.64H373.967L368.687 81.856ZM370.847 81.68L374.319 76.912V81.68H370.847ZM383.68 84.704C382.448 84.704 381.456 84.016 381.264 82.752L379.344 82.96C379.584 84.864 381.216 86.24 383.712 86.24C386.144 86.24 387.952 84.976 387.952 82.88C387.952 81.248 386.928 80.368 385.728 80.128V80.096C386.896 79.76 387.712 78.896 387.712 77.552C387.712 75.648 386.144 74.416 383.84 74.416C381.424 74.416 379.952 75.712 379.68 77.584L381.728 77.744C381.872 76.608 382.672 75.936 383.808 75.936C384.896 75.936 385.664 76.544 385.664 77.552C385.664 78.592 384.848 79.408 383.104 79.408H382.432V80.928H383.344C384.992 80.928 385.888 81.6 385.888 82.8C385.888 83.952 385.024 84.704 383.68 84.704ZM394.459 86.24C397.403 86.24 399.067 83.808 399.067 80.32C399.067 76.832 397.403 74.4 394.459 74.4C391.515 74.4 389.851 76.832 389.851 80.32C389.851 83.808 391.515 86.24 394.459 86.24ZM391.915 80.32C391.915 77.808 392.715 75.936 394.459 75.936C396.187 75.936 397.003 77.808 397.003 80.32C397.003 82.832 396.187 84.704 394.459 84.704C392.715 84.704 391.915 82.832 391.915 80.32ZM401.599 86H403.807V83.792H401.599V86ZM406.223 84.656V86H414.447V84.464H409.071C411.727 82.464 414.271 80.528 414.271 77.776C414.271 75.632 412.767 74.4 410.383 74.4C407.967 74.4 406.431 75.744 406.255 78.496L408.047 78.672C408.143 77.056 408.879 75.936 410.303 75.936C411.487 75.936 412.207 76.736 412.207 77.92C412.207 80.352 409.311 82.448 406.223 84.656ZM418.671 86H420.623C420.623 81.904 422.143 79.088 424.479 75.984V74.64H416.175V77.904H418.047V76.176H422.639C420.127 79.296 418.671 81.984 418.671 86Z" fill="#226752"/>
</g>
<defs>
<filter id="filter0_d_51_393" x="37.7085" y="83.6334" width="405.122" height="138.583" filterUnits="userSpaceOnUse" color-interpolation-filters="sRGB">
<feFlood flood-opacity="0" result="BackgroundImageFix"/>
<feColorMatrix in="SourceAlpha" type="matrix" values="0 0 0 0 0 0 0 0 0 0 0 0 0 0 0 0 0 0 127 0" result="hardAlpha"/>
<feMorphology radius="6.36308" operator="dilate" in="SourceAlpha" result="effect1_dropShadow_51_393"/>
<feOffset dy="1.92495"/>
<feGaussianBlur stdDeviation="9.46423"/>
<feColorMatrix type="matrix" values="0 0 0 0 0 0 0 0 0 0 0 0 0 0 0 0 0 0 0.05 0"/>
<feBlend mode="normal" in2="BackgroundImageFix" result="effect1_dropShadow_51_393"/>
<feBlend mode="normal" in="SourceGraphic" in2="effect1_dropShadow_51_393" result="shape"/>
</filter>
<filter id="filter1_d_51_393" x="0.109999" y="0.38494" width="478.78" height="163.78" filterUnits="userSpaceOnUse" color-interpolation-filters="sRGB">
<feFlood flood-opacity="0" result="BackgroundImageFix"/>
<feColorMatrix in="SourceAlpha" type="matrix" values="0 0 0 0 0 0 0 0 0 0 0 0 0 0 0 0 0 0 127 0" result="hardAlpha"/>
<feMorphology radius="7.52" operator="dilate" in="SourceAlpha" result="effect1_dropShadow_51_393"/>
<feOffset dy="2.27494"/>
<feGaussianBlur stdDeviation="11.185"/>
<feColorMatrix type="matrix" values="0 0 0 0 0 0 0 0 0 0 0 0 0 0 0 0 0 0 0.05 0"/>
<feBlend mode="normal" in2="BackgroundImageFix" result="effect1_dropShadow_51_393"/>
<feBlend mode="normal" in="SourceGraphic" in2="effect1_dropShadow_51_393" result="shape"/>
</filter>
<clipPath id="clip0_51_393">
<rect width="20.3077" height="20.3077" fill="white" transform="translate(96.8467 140.846)"/>
</clipPath>
</defs>
</svg>
