<svg width="397" height="300" viewBox="0 0 397 300" fill="none" xmlns="http://www.w3.org/2000/svg">
<g filter="url(#filter0_d_52_411)">
<rect x="78" y="143" width="298" height="133" rx="8" fill="#FCF8F2"/>
<path d="M108.592 185H109.568L113.216 175.544V185H114.384V173.64H112.768L109.088 183.192H109.056L105.392 173.64H103.76V185H104.928V175.544L108.592 185ZM120.709 185.192C123.173 185.192 124.725 183.448 124.725 180.984C124.725 178.552 123.173 176.808 120.709 176.808C118.229 176.808 116.677 178.552 116.677 180.984C116.677 183.448 118.229 185.192 120.709 185.192ZM117.925 180.984C117.925 179.112 118.933 177.752 120.709 177.752C122.485 177.752 123.477 179.112 123.477 180.984C123.477 182.872 122.485 184.232 120.709 184.232C118.933 184.232 117.925 182.856 117.925 180.984ZM127.001 185H128.201V181C128.201 178.888 129.209 177.736 130.601 177.736C131.769 177.736 132.313 178.568 132.313 179.832V185H133.513V179.576C133.513 177.784 132.553 176.808 130.905 176.808C129.481 176.808 128.553 177.576 128.089 178.888V177H127.001V185ZM138.892 185.192C139.276 185.192 139.612 185.144 139.9 185.096V184.152C139.708 184.184 139.484 184.2 139.276 184.2C138.524 184.2 137.996 183.944 137.996 182.936V177.88H139.756V177H137.996V174.424H136.796V177H135.452V177.88H136.796V183.176C136.796 184.728 137.596 185.192 138.892 185.192ZM142.173 185H143.373V181C143.373 178.888 144.381 177.736 145.773 177.736C146.941 177.736 147.485 178.568 147.485 179.832V185H148.685V179.576C148.685 177.784 147.725 176.808 146.077 176.808C144.765 176.808 143.869 177.464 143.373 178.6V173.64H142.173V185ZM151.392 185H152.592V173.64H151.392V185ZM155.856 188.232C157.312 188.232 157.856 187.304 158.416 185.8L161.616 177H160.352L158.048 183.624H158.016L155.712 177H154.448L156.944 183.784C157.168 184.392 157.232 184.808 157.232 185.08C157.232 185.88 156.736 187.24 155.632 187.24C155.456 187.24 155.28 187.224 155.04 187.16V188.12C155.328 188.2 155.584 188.232 155.856 188.232ZM168.456 181.272H174.872C175.064 178.68 173.496 176.792 171.08 176.792C168.792 176.792 167.208 178.52 167.208 181C167.208 183.496 168.872 185.192 171.208 185.192C172.872 185.192 174.152 184.344 174.664 183.176L173.592 182.808C173.208 183.656 172.344 184.232 171.24 184.232C169.608 184.232 168.552 183.064 168.456 181.272ZM168.504 180.344C168.696 178.792 169.624 177.752 171.112 177.752C172.52 177.752 173.496 178.712 173.688 180.344H168.504ZM181.931 185H183.275L180.395 181.08L183.323 177H181.995L179.771 180.216L177.419 177H176.075L178.971 180.952L175.995 185H177.339L179.595 181.816L181.931 185ZM185.157 188.04H186.357V183.416C186.917 184.536 187.909 185.192 189.237 185.192C191.349 185.192 192.837 183.496 192.837 180.984C192.837 178.488 191.349 176.808 189.237 176.808C187.813 176.808 186.773 177.56 186.245 178.808V177H185.157V188.04ZM186.357 180.984C186.357 179.128 187.317 177.736 188.965 177.736C190.613 177.736 191.589 179.112 191.589 180.984C191.589 182.872 190.613 184.264 188.965 184.264C187.317 184.264 186.357 182.856 186.357 180.984ZM195.894 181.272H202.31C202.502 178.68 200.934 176.792 198.518 176.792C196.23 176.792 194.646 178.52 194.646 181C194.646 183.496 196.31 185.192 198.646 185.192C200.31 185.192 201.59 184.344 202.102 183.176L201.03 182.808C200.646 183.656 199.782 184.232 198.678 184.232C197.046 184.232 195.99 183.064 195.894 181.272ZM195.942 180.344C196.134 178.792 197.062 177.752 198.55 177.752C199.958 177.752 200.934 178.712 201.126 180.344H195.942ZM204.564 185H205.764V181C205.764 178.888 206.772 177.736 208.164 177.736C209.332 177.736 209.876 178.568 209.876 179.832V185H211.076V179.576C211.076 177.784 210.116 176.808 208.468 176.808C207.044 176.808 206.116 177.576 205.652 178.888V177H204.564V185ZM216.678 185.208C218.566 185.208 219.846 184.232 219.846 182.664C219.846 181.448 219.014 180.84 217.622 180.504L216.134 180.136C215.526 179.992 214.902 179.704 214.902 178.952C214.902 178.088 215.734 177.688 216.71 177.688C217.75 177.688 218.502 178.12 219.078 178.712L219.814 177.944C219.094 177.288 218.118 176.792 216.742 176.792C215.03 176.792 213.67 177.496 213.67 179.032C213.67 180.28 214.566 180.856 215.638 181.112L217.094 181.464C217.91 181.656 218.614 181.944 218.614 182.76C218.614 183.688 217.878 184.264 216.678 184.264C215.238 184.264 214.406 183.496 213.766 182.84L213.094 183.656C213.67 184.312 214.838 185.208 216.678 185.208ZM222.941 181.272H229.357C229.549 178.68 227.981 176.792 225.565 176.792C223.277 176.792 221.693 178.52 221.693 181C221.693 183.496 223.357 185.192 225.693 185.192C227.357 185.192 228.637 184.344 229.149 183.176L228.077 182.808C227.693 183.656 226.829 184.232 225.725 184.232C224.093 184.232 223.037 183.064 222.941 181.272ZM222.989 180.344C223.181 178.792 224.109 177.752 225.597 177.752C227.005 177.752 227.981 178.712 228.173 180.344H222.989ZM234.506 185.208C236.394 185.208 237.674 184.232 237.674 182.664C237.674 181.448 236.842 180.84 235.45 180.504L233.962 180.136C233.354 179.992 232.73 179.704 232.73 178.952C232.73 178.088 233.562 177.688 234.538 177.688C235.578 177.688 236.33 178.12 236.906 178.712L237.642 177.944C236.922 177.288 235.946 176.792 234.57 176.792C232.858 176.792 231.498 177.496 231.498 179.032C231.498 180.28 232.394 180.856 233.466 181.112L234.922 181.464C235.738 181.656 236.442 181.944 236.442 182.76C236.442 183.688 235.706 184.264 234.506 184.264C233.066 184.264 232.234 183.496 231.594 182.84L230.922 183.656C231.498 184.312 232.666 185.208 234.506 185.208Z" fill="#1D1D1D"/>
<path d="M314.581 187H315.957V185.224C318.357 185.032 319.877 183.816 319.877 181.688C319.877 179.96 318.885 178.936 316.981 178.456L315.957 178.2V174.952C317.141 175.096 318.005 175.656 318.693 176.36L319.877 175.064C318.933 174.216 317.653 173.544 315.957 173.416V171.64H314.581V173.432C312.485 173.64 311.061 174.68 311.061 176.648C311.061 178.456 312.261 179.288 313.909 179.704L314.581 179.88V183.64C313.125 183.416 312.149 182.568 311.333 181.72L310.213 183.016C310.965 183.832 312.389 184.984 314.581 185.208V187ZM313.125 176.456C313.125 175.592 313.765 175.144 314.581 174.984V177.848C313.717 177.608 313.125 177.304 313.125 176.456ZM315.957 183.672V180.232C317.125 180.52 317.829 180.904 317.829 181.928C317.829 182.968 317.125 183.528 315.957 183.672ZM326.074 185.224C328.49 185.224 330.314 184.008 330.314 181.928C330.314 180.536 329.482 179.592 328.186 179.128C329.274 178.632 329.93 177.736 329.93 176.52C329.93 174.664 328.378 173.416 326.074 173.416C323.786 173.416 322.234 174.664 322.234 176.52C322.234 177.736 322.89 178.632 323.962 179.128C322.682 179.592 321.85 180.536 321.85 181.928C321.85 184.008 323.674 185.224 326.074 185.224ZM323.802 181.784C323.802 180.584 324.778 179.8 326.074 179.8C327.402 179.8 328.346 180.584 328.346 181.784C328.346 183 327.402 183.768 326.074 183.768C324.778 183.768 323.802 183 323.802 181.784ZM324.09 176.616C324.09 175.656 324.874 174.872 326.074 174.872C327.274 174.872 328.074 175.656 328.074 176.616C328.074 177.576 327.274 178.376 326.074 178.376C324.874 178.376 324.09 177.592 324.09 176.616ZM331.89 180.856V182.216H337.522V185H339.474V182.216H341.282V180.68H339.474V173.64H337.17L331.89 180.856ZM334.05 180.68L337.522 175.912V180.68H334.05ZM346.819 185.24C349.283 185.24 351.187 183.768 351.187 181.192C351.187 178.76 349.523 177.384 347.315 177.384C346.483 177.384 345.731 177.576 345.123 177.992L345.619 175.176H350.515V173.64H344.067L343.011 180.088L344.755 180.184C345.187 179.176 346.051 178.808 346.899 178.808C348.195 178.808 349.139 179.704 349.139 181.208C349.139 182.76 348.147 183.704 346.803 183.704C345.779 183.704 344.899 183.144 344.627 182.056L342.755 182.552C343.187 184.152 344.643 185.24 346.819 185.24Z" fill="#226752"/>
<rect x="102" y="236" width="250" height="2" rx="1" fill="#F0E7D5"/>
<rect x="102" y="233" width="130" height="8" rx="4" fill="#656A47"/>
<circle cx="235" cy="236" r="15" fill="white" stroke="#656A47" stroke-width="2"/>
</g>
<g filter="url(#filter1_d_52_411)">
<rect x="30" y="28" width="298" height="133" rx="8" fill="white"/>
<path d="M60.592 70H61.568L65.216 60.544V70H66.384V58.64H64.768L61.088 68.192H61.056L57.392 58.64H55.76V70H56.928V60.544L60.592 70ZM72.7089 70.192C75.1729 70.192 76.7249 68.448 76.7249 65.984C76.7249 63.552 75.1729 61.808 72.7089 61.808C70.2289 61.808 68.6769 63.552 68.6769 65.984C68.6769 68.448 70.2289 70.192 72.7089 70.192ZM69.9249 65.984C69.9249 64.112 70.9329 62.752 72.7089 62.752C74.4849 62.752 75.4769 64.112 75.4769 65.984C75.4769 67.872 74.4849 69.232 72.7089 69.232C70.9329 69.232 69.9249 67.856 69.9249 65.984ZM79.001 70H80.201V66C80.201 63.888 81.209 62.736 82.601 62.736C83.769 62.736 84.313 63.568 84.313 64.832V70H85.513V64.576C85.513 62.784 84.553 61.808 82.905 61.808C81.481 61.808 80.553 62.576 80.089 63.888V62H79.001V70ZM90.8918 70.192C91.2758 70.192 91.6118 70.144 91.8998 70.096V69.152C91.7078 69.184 91.4838 69.2 91.2758 69.2C90.5238 69.2 89.9958 68.944 89.9958 67.936V62.88H91.7558V62H89.9958V59.424H88.7958V62H87.4518V62.88H88.7958V68.176C88.7958 69.728 89.5958 70.192 90.8918 70.192ZM94.1729 70H95.3729V66C95.3729 63.888 96.3809 62.736 97.7729 62.736C98.9409 62.736 99.4849 63.568 99.4849 64.832V70H100.685V64.576C100.685 62.784 99.7249 61.808 98.0769 61.808C96.7649 61.808 95.8689 62.464 95.3729 63.6V58.64H94.1729V70ZM103.392 70H104.592V58.64H103.392V70ZM107.856 73.232C109.312 73.232 109.856 72.304 110.416 70.8L113.616 62H112.352L110.048 68.624H110.016L107.712 62H106.448L108.944 68.784C109.168 69.392 109.232 69.808 109.232 70.08C109.232 70.88 108.736 72.24 107.632 72.24C107.456 72.24 107.28 72.224 107.04 72.16V73.12C107.328 73.2 107.584 73.232 107.856 73.232ZM119.704 70H120.904V62H119.704V70ZM119.624 60.016H121V58.64H119.624V60.016ZM123.673 70H124.873V66C124.873 63.888 125.881 62.736 127.273 62.736C128.441 62.736 128.985 63.568 128.985 64.832V70H130.185V64.576C130.185 62.784 129.225 61.808 127.577 61.808C126.153 61.808 125.225 62.576 124.761 63.888V62H123.673V70ZM132.396 65.984C132.396 68.48 133.964 70.16 136.3 70.16C138.108 70.16 139.484 69.184 139.948 67.568L138.86 67.28C138.524 68.48 137.612 69.216 136.348 69.216C134.652 69.216 133.644 67.888 133.644 65.984C133.644 64.08 134.652 62.752 136.348 62.752C137.612 62.752 138.524 63.488 138.86 64.688L139.948 64.4C139.484 62.784 138.108 61.808 136.3 61.808C133.964 61.808 132.396 63.488 132.396 65.984ZM145.771 70.192C148.235 70.192 149.787 68.448 149.787 65.984C149.787 63.552 148.235 61.808 145.771 61.808C143.291 61.808 141.739 63.552 141.739 65.984C141.739 68.448 143.291 70.192 145.771 70.192ZM142.987 65.984C142.987 64.112 143.995 62.752 145.771 62.752C147.547 62.752 148.539 64.112 148.539 65.984C148.539 67.872 147.547 69.232 145.771 69.232C143.995 69.232 142.987 67.856 142.987 65.984ZM152.064 70H153.264V66C153.264 63.888 154.272 62.736 155.664 62.736C156.832 62.736 157.376 63.568 157.376 64.832V70H158.576V66C158.576 63.888 159.584 62.736 160.976 62.736C162.144 62.736 162.688 63.568 162.688 64.832V70H163.888V64.576C163.888 62.784 162.928 61.808 161.28 61.808C159.904 61.808 158.976 62.544 158.496 63.776C158.256 62.496 157.344 61.808 155.968 61.808C154.544 61.808 153.616 62.576 153.152 63.888V62H152.064V70ZM167.347 66.272H173.763C173.955 63.68 172.387 61.792 169.971 61.792C167.683 61.792 166.099 63.52 166.099 66C166.099 68.496 167.763 70.192 170.099 70.192C171.763 70.192 173.043 69.344 173.555 68.176L172.483 67.808C172.099 68.656 171.235 69.232 170.131 69.232C168.499 69.232 167.443 68.064 167.347 66.272ZM167.395 65.344C167.587 63.792 168.515 62.752 170.003 62.752C171.411 62.752 172.387 63.712 172.579 65.344H167.395Z" fill="#1D1D1D"/>
<path d="M251.643 72H253.019V70.224C255.419 70.032 256.939 68.816 256.939 66.688C256.939 64.96 255.947 63.936 254.043 63.456L253.019 63.2V59.952C254.203 60.096 255.067 60.656 255.755 61.36L256.939 60.064C255.995 59.216 254.715 58.544 253.019 58.416V56.64H251.643V58.432C249.547 58.64 248.123 59.68 248.123 61.648C248.123 63.456 249.323 64.288 250.971 64.704L251.643 64.88V68.64C250.187 68.416 249.211 67.568 248.395 66.72L247.275 68.016C248.027 68.832 249.451 69.984 251.643 70.208V72ZM250.187 61.456C250.187 60.592 250.827 60.144 251.643 59.984V62.848C250.779 62.608 250.187 62.304 250.187 61.456ZM253.019 68.672V65.232C254.187 65.52 254.891 65.904 254.891 66.928C254.891 67.968 254.187 68.528 253.019 68.672ZM261.265 70H263.217C263.217 65.904 264.737 63.088 267.073 59.984V58.64H258.769V61.904H260.641V60.176H265.233C262.721 63.296 261.265 65.984 261.265 70ZM267.74 72.624H268.076C269.372 72.624 269.948 72.08 269.948 70.768V67.792H267.74V70H268.668V70.752C268.668 71.296 268.46 71.488 267.916 71.488H267.74V72.624ZM276.508 68.704C275.276 68.704 274.284 68.016 274.092 66.752L272.172 66.96C272.412 68.864 274.044 70.24 276.54 70.24C278.972 70.24 280.78 68.976 280.78 66.88C280.78 65.248 279.756 64.368 278.556 64.128V64.096C279.724 63.76 280.54 62.896 280.54 61.552C280.54 59.648 278.972 58.416 276.668 58.416C274.252 58.416 272.78 59.712 272.508 61.584L274.556 61.744C274.7 60.608 275.5 59.936 276.636 59.936C277.724 59.936 278.492 60.544 278.492 61.552C278.492 62.592 277.676 63.408 275.932 63.408H275.26V64.928H276.172C277.82 64.928 278.716 65.6 278.716 66.8C278.716 67.952 277.852 68.704 276.508 68.704ZM287.287 70.24C290.231 70.24 291.895 67.808 291.895 64.32C291.895 60.832 290.231 58.4 287.287 58.4C284.343 58.4 282.679 60.832 282.679 64.32C282.679 67.808 284.343 70.24 287.287 70.24ZM284.743 64.32C284.743 61.808 285.543 59.936 287.287 59.936C289.015 59.936 289.831 61.808 289.831 64.32C289.831 66.832 289.015 68.704 287.287 68.704C285.543 68.704 284.743 66.832 284.743 64.32ZM298.427 70.24C301.371 70.24 303.035 67.808 303.035 64.32C303.035 60.832 301.371 58.4 298.427 58.4C295.483 58.4 293.819 60.832 293.819 64.32C293.819 67.808 295.483 70.24 298.427 70.24ZM295.883 64.32C295.883 61.808 296.683 59.936 298.427 59.936C300.155 59.936 300.971 61.808 300.971 64.32C300.971 66.832 300.155 68.704 298.427 68.704C296.683 68.704 295.883 66.832 295.883 64.32Z" fill="#226752"/>
<rect x="54" y="121" width="250" height="2" rx="1" fill="#F0E7D5"/>
<rect x="54" y="118" width="84" height="8" rx="4" fill="#226752"/>
<circle cx="135" cy="121" r="15" fill="white" stroke="#226752" stroke-width="2"/>
</g>
<defs>
<filter id="filter0_d_52_411" x="57.11" y="124.385" width="339.78" height="174.78" filterUnits="userSpaceOnUse" color-interpolation-filters="sRGB">
<feFlood flood-opacity="0" result="BackgroundImageFix"/>
<feColorMatrix in="SourceAlpha" type="matrix" values="0 0 0 0 0 0 0 0 0 0 0 0 0 0 0 0 0 0 127 0" result="hardAlpha"/>
<feMorphology radius="4.52" operator="dilate" in="SourceAlpha" result="effect1_dropShadow_52_411"/>
<feOffset dy="2.27494"/>
<feGaussianBlur stdDeviation="8.185"/>
<feColorMatrix type="matrix" values="0 0 0 0 0 0 0 0 0 0 0 0 0 0 0 0 0 0 0.05 0"/>
<feBlend mode="normal" in2="BackgroundImageFix" result="effect1_dropShadow_52_411"/>
<feBlend mode="normal" in="SourceGraphic" in2="effect1_dropShadow_52_411" result="shape"/>
</filter>
<filter id="filter1_d_52_411" x="0.109999" y="0.38494" width="357.78" height="192.78" filterUnits="userSpaceOnUse" color-interpolation-filters="sRGB">
<feFlood flood-opacity="0" result="BackgroundImageFix"/>
<feColorMatrix in="SourceAlpha" type="matrix" values="0 0 0 0 0 0 0 0 0 0 0 0 0 0 0 0 0 0 127 0" result="hardAlpha"/>
<feMorphology radius="7.52" operator="dilate" in="SourceAlpha" result="effect1_dropShadow_52_411"/>
<feOffset dy="2.27494"/>
<feGaussianBlur stdDeviation="11.185"/>
<feColorMatrix type="matrix" values="0 0 0 0 0 0 0 0 0 0 0 0 0 0 0 0 0 0 0.05 0"/>
<feBlend mode="normal" in2="BackgroundImageFix" result="effect1_dropShadow_52_411"/>
<feBlend mode="normal" in="SourceGraphic" in2="effect1_dropShadow_52_411" result="shape"/>
</filter>
</defs>
</svg>
