<svg width="416" height="237" viewBox="0 0 416 237" fill="none" xmlns="http://www.w3.org/2000/svg">
<g filter="url(#filter0_d)">
<rect x="6" y="4" width="404" height="225" rx="8" fill="white"/>
</g>
<path d="M39.666 42.706C39.666 43.834 39.276 44.698 38.496 45.298C37.728 45.886 36.756 46.18 35.58 46.18C34.26 46.18 33.216 45.85 32.448 45.19C31.692 44.518 31.272 43.588 31.188 42.4H32.79C32.886 43.156 33.174 43.738 33.654 44.146C34.134 44.554 34.776 44.758 35.58 44.758C36.288 44.758 36.87 44.59 37.326 44.254C37.782 43.918 38.01 43.414 38.01 42.742C38.01 42.358 37.932 42.028 37.776 41.752C37.632 41.464 37.41 41.224 37.11 41.032C36.822 40.84 36.558 40.696 36.318 40.6C36.078 40.504 35.766 40.396 35.382 40.276L34.752 40.096C34.332 39.964 33.966 39.826 33.654 39.682C33.354 39.538 33.03 39.34 32.682 39.088C32.334 38.824 32.064 38.494 31.872 38.098C31.68 37.69 31.584 37.228 31.584 36.712C31.584 35.656 31.962 34.81 32.718 34.174C33.474 33.538 34.434 33.22 35.598 33.22C36.774 33.22 37.728 33.556 38.46 34.228C39.204 34.888 39.606 35.74 39.666 36.784H38.046C37.974 36.148 37.728 35.632 37.308 35.236C36.9 34.84 36.33 34.642 35.598 34.642C34.902 34.642 34.326 34.828 33.87 35.2C33.426 35.572 33.204 36.052 33.204 36.64C33.204 36.868 33.234 37.078 33.294 37.27C33.366 37.45 33.474 37.612 33.618 37.756C33.774 37.9 33.912 38.02 34.032 38.116C34.152 38.212 34.338 38.308 34.59 38.404C34.842 38.5 35.022 38.572 35.13 38.62C35.238 38.656 35.43 38.716 35.706 38.8L36.264 38.98C36.576 39.076 36.834 39.166 37.038 39.25C37.254 39.334 37.542 39.484 37.902 39.7C38.274 39.904 38.568 40.126 38.784 40.366C39.012 40.606 39.216 40.936 39.396 41.356C39.576 41.764 39.666 42.214 39.666 42.706ZM49.8055 44.776H50.0395V46H49.3195C48.4315 46 47.8975 45.616 47.7175 44.848C47.0215 45.736 46.0315 46.18 44.7475 46.18C43.8595 46.18 43.1395 45.964 42.5875 45.532C42.0475 45.088 41.7775 44.446 41.7775 43.606C41.7775 42.79 42.0535 42.154 42.6055 41.698C43.1695 41.23 43.9135 40.948 44.8375 40.852L47.5195 40.6V40.096C47.5195 39.472 47.3575 38.986 47.0335 38.638C46.7095 38.29 46.2475 38.116 45.6475 38.116C44.5675 38.116 43.9195 38.686 43.7035 39.826H42.1375C42.2335 38.938 42.5875 38.218 43.1995 37.666C43.8235 37.102 44.6395 36.82 45.6475 36.82C46.6915 36.82 47.5255 37.108 48.1495 37.684C48.7855 38.26 49.1035 39.076 49.1035 40.132V44.038C49.1035 44.53 49.3375 44.776 49.8055 44.776ZM47.5195 42.544V41.752L45.3415 41.968C44.7295 42.028 44.2435 42.19 43.8835 42.454C43.5355 42.718 43.3615 43.084 43.3615 43.552C43.3615 44.02 43.5115 44.368 43.8115 44.596C44.1115 44.812 44.4955 44.92 44.9635 44.92C45.6475 44.92 46.2415 44.728 46.7455 44.344C47.2615 43.948 47.5195 43.348 47.5195 42.544ZM53.8195 46L50.3995 37H52.0375L54.7375 44.362H54.8635L57.5635 37H59.2015L55.7815 46H53.8195ZM68.2383 41.32C68.2383 41.404 68.2263 41.59 68.2023 41.878H61.4883C61.5363 42.778 61.8063 43.504 62.2983 44.056C62.8023 44.608 63.4683 44.884 64.2963 44.884C64.8843 44.884 65.3823 44.758 65.7903 44.506C66.2103 44.242 66.4983 43.864 66.6543 43.372H68.1843C67.9923 44.26 67.5483 44.95 66.8523 45.442C66.1563 45.934 65.3043 46.18 64.2963 46.18C63.0123 46.18 61.9623 45.76 61.1463 44.92C60.3303 44.08 59.9223 42.97 59.9223 41.59C59.9223 40.162 60.3303 39.01 61.1463 38.134C61.9623 37.258 62.9883 36.82 64.2243 36.82C65.3763 36.82 66.3303 37.21 67.0863 37.99C67.8543 38.77 68.2383 39.88 68.2383 41.32ZM66.0063 38.836C65.5503 38.356 64.9563 38.116 64.2243 38.116C63.4923 38.116 62.8743 38.368 62.3703 38.872C61.8783 39.364 61.5903 39.982 61.5063 40.726H66.7083C66.6963 39.946 66.4623 39.316 66.0063 38.836ZM76.9799 33.22H78.5459V46H77.2499L77.1059 44.722H76.9979C76.3019 45.694 75.3359 46.18 74.0999 46.18C72.8879 46.18 71.8919 45.748 71.1119 44.884C70.3439 44.008 69.9599 42.874 69.9599 41.482C69.9599 40.078 70.3439 38.95 71.1119 38.098C71.8919 37.246 72.8879 36.82 74.0999 36.82C75.3719 36.82 76.3319 37.276 76.9799 38.188V33.22ZM74.2979 44.794C75.1019 44.794 75.7499 44.494 76.2419 43.894C76.7339 43.282 76.9799 42.478 76.9799 41.482C76.9799 40.51 76.7339 39.724 76.2419 39.124C75.7499 38.512 75.1019 38.206 74.2979 38.206C73.4819 38.206 72.8159 38.512 72.2999 39.124C71.7839 39.724 71.5259 40.51 71.5259 41.482C71.5259 42.466 71.7839 43.264 72.2999 43.876C72.8159 44.488 73.4819 44.794 74.2979 44.794ZM90.1044 33.4C92.0604 33.4 93.5544 33.97 94.5864 35.11C95.6184 36.238 96.1344 37.768 96.1344 39.7C96.1344 41.608 95.6184 43.138 94.5864 44.29C93.5664 45.43 92.0724 46 90.1044 46H86.2164V33.4H90.1044ZM90.0144 44.524C91.5504 44.524 92.6724 44.086 93.3804 43.21C94.1004 42.322 94.4604 41.14 94.4604 39.664C94.4604 38.2 94.1004 37.036 93.3804 36.172C92.6724 35.308 91.5504 34.876 90.0144 34.876H87.8544V44.524H90.0144ZM102.602 46.18C101.306 46.18 100.226 45.736 99.3624 44.848C98.5104 43.948 98.0844 42.832 98.0844 41.5C98.0844 40.144 98.5104 39.028 99.3624 38.152C100.214 37.264 101.294 36.82 102.602 36.82C103.898 36.82 104.978 37.264 105.842 38.152C106.706 39.04 107.138 40.156 107.138 41.5C107.138 42.844 106.706 43.96 105.842 44.848C104.99 45.736 103.91 46.18 102.602 46.18ZM100.478 43.84C101.03 44.476 101.738 44.794 102.602 44.794C103.466 44.794 104.174 44.476 104.726 43.84C105.29 43.192 105.572 42.412 105.572 41.5C105.572 40.576 105.29 39.796 104.726 39.16C104.174 38.524 103.466 38.206 102.602 38.206C101.726 38.206 101.018 38.524 100.478 39.16C99.9384 39.796 99.6684 40.576 99.6684 41.5C99.6684 42.412 99.9384 43.192 100.478 43.84ZM109.237 46V33.22H110.803V46H109.237ZM113.244 46V33.22H114.81V46H113.244ZM124.934 44.776H125.168V46H124.448C123.56 46 123.026 45.616 122.846 44.848C122.15 45.736 121.16 46.18 119.876 46.18C118.988 46.18 118.268 45.964 117.716 45.532C117.176 45.088 116.906 44.446 116.906 43.606C116.906 42.79 117.182 42.154 117.734 41.698C118.298 41.23 119.042 40.948 119.966 40.852L122.648 40.6V40.096C122.648 39.472 122.486 38.986 122.162 38.638C121.838 38.29 121.376 38.116 120.776 38.116C119.696 38.116 119.048 38.686 118.832 39.826H117.266C117.362 38.938 117.716 38.218 118.328 37.666C118.952 37.102 119.768 36.82 120.776 36.82C121.82 36.82 122.654 37.108 123.278 37.684C123.914 38.26 124.232 39.076 124.232 40.132V44.038C124.232 44.53 124.466 44.776 124.934 44.776ZM122.648 42.544V41.752L120.47 41.968C119.858 42.028 119.372 42.19 119.012 42.454C118.664 42.718 118.49 43.084 118.49 43.552C118.49 44.02 118.64 44.368 118.94 44.596C119.24 44.812 119.624 44.92 120.092 44.92C120.776 44.92 121.37 44.728 121.874 44.344C122.39 43.948 122.648 43.348 122.648 42.544ZM126.885 46V37H128.307L128.451 38.242H128.577C128.841 37.786 129.165 37.438 129.549 37.198C129.933 36.946 130.467 36.82 131.151 36.82H131.673V38.404C131.493 38.38 131.223 38.368 130.863 38.368C130.095 38.368 129.501 38.638 129.081 39.178C128.661 39.706 128.451 40.408 128.451 41.284V46H126.885ZM136.277 46.18C135.161 46.18 134.303 45.916 133.703 45.388C133.115 44.86 132.797 44.152 132.749 43.264H134.279C134.387 44.38 135.053 44.938 136.277 44.938C136.757 44.938 137.153 44.836 137.465 44.632C137.789 44.416 137.951 44.098 137.951 43.678C137.951 43.234 137.783 42.892 137.447 42.652C137.123 42.412 136.673 42.208 136.097 42.04L135.485 41.878C135.149 41.782 134.867 41.686 134.639 41.59C134.411 41.494 134.159 41.356 133.883 41.176C133.607 40.984 133.397 40.738 133.253 40.438C133.109 40.138 133.037 39.79 133.037 39.394C133.037 38.614 133.331 37.99 133.919 37.522C134.519 37.054 135.239 36.82 136.079 36.82C137.087 36.82 137.867 37.072 138.419 37.576C138.971 38.08 139.265 38.686 139.301 39.394H137.771C137.735 38.998 137.567 38.68 137.267 38.44C136.967 38.188 136.577 38.062 136.097 38.062C135.653 38.062 135.281 38.17 134.981 38.386C134.693 38.602 134.549 38.914 134.549 39.322C134.549 39.526 134.591 39.706 134.675 39.862C134.759 40.006 134.891 40.132 135.071 40.24C135.263 40.348 135.431 40.432 135.575 40.492C135.731 40.552 135.953 40.624 136.241 40.708L136.817 40.888C137.609 41.104 138.245 41.422 138.725 41.842C139.217 42.25 139.463 42.85 139.463 43.642C139.463 44.482 139.163 45.118 138.563 45.55C137.963 45.97 137.201 46.18 136.277 46.18ZM150.696 46.18C149.4 46.18 148.32 45.736 147.456 44.848C146.604 43.948 146.178 42.832 146.178 41.5C146.178 40.144 146.604 39.028 147.456 38.152C148.308 37.264 149.388 36.82 150.696 36.82C151.992 36.82 153.072 37.264 153.936 38.152C154.8 39.04 155.232 40.156 155.232 41.5C155.232 42.844 154.8 43.96 153.936 44.848C153.084 45.736 152.004 46.18 150.696 46.18ZM148.572 43.84C149.124 44.476 149.832 44.794 150.696 44.794C151.56 44.794 152.268 44.476 152.82 43.84C153.384 43.192 153.666 42.412 153.666 41.5C153.666 40.576 153.384 39.796 152.82 39.16C152.268 38.524 151.56 38.206 150.696 38.206C149.82 38.206 149.112 38.524 148.572 39.16C148.032 39.796 147.762 40.576 147.762 41.5C147.762 42.412 148.032 43.192 148.572 43.84ZM157.313 46V37H158.735L158.879 38.08H159.005C159.617 37.24 160.487 36.82 161.615 36.82C162.599 36.82 163.391 37.126 163.991 37.738C164.591 38.35 164.891 39.22 164.891 40.348V46H163.325V40.69C163.325 39.862 163.127 39.244 162.731 38.836C162.347 38.416 161.843 38.206 161.219 38.206C160.559 38.206 160.001 38.434 159.545 38.89C159.101 39.334 158.879 39.994 158.879 40.87V46H157.313ZM180.624 33.4V34.876H176.988V46H175.35V34.876H171.714V33.4H180.624ZM188.884 44.776H189.118V46H188.398C187.51 46 186.976 45.616 186.796 44.848C186.1 45.736 185.11 46.18 183.826 46.18C182.938 46.18 182.218 45.964 181.666 45.532C181.126 45.088 180.856 44.446 180.856 43.606C180.856 42.79 181.132 42.154 181.684 41.698C182.248 41.23 182.992 40.948 183.916 40.852L186.598 40.6V40.096C186.598 39.472 186.436 38.986 186.112 38.638C185.788 38.29 185.326 38.116 184.726 38.116C183.646 38.116 182.998 38.686 182.782 39.826H181.216C181.312 38.938 181.666 38.218 182.278 37.666C182.902 37.102 183.718 36.82 184.726 36.82C185.77 36.82 186.604 37.108 187.228 37.684C187.864 38.26 188.182 39.076 188.182 40.132V44.038C188.182 44.53 188.416 44.776 188.884 44.776ZM186.598 42.544V41.752L184.42 41.968C183.808 42.028 183.322 42.19 182.962 42.454C182.614 42.718 182.44 43.084 182.44 43.552C182.44 44.02 182.59 44.368 182.89 44.596C183.19 44.812 183.574 44.92 184.042 44.92C184.726 44.92 185.32 44.728 185.824 44.344C186.34 43.948 186.598 43.348 186.598 42.544ZM190.304 46L193.418 41.338L190.556 37H192.356L194.372 40.096H194.48L196.46 37H198.242L195.434 41.338L198.53 46H196.712L194.48 42.562H194.372L192.104 46H190.304ZM207.633 41.32C207.633 41.404 207.621 41.59 207.597 41.878H200.883C200.931 42.778 201.201 43.504 201.693 44.056C202.197 44.608 202.863 44.884 203.691 44.884C204.279 44.884 204.777 44.758 205.185 44.506C205.605 44.242 205.893 43.864 206.049 43.372H207.579C207.387 44.26 206.943 44.95 206.247 45.442C205.551 45.934 204.699 46.18 203.691 46.18C202.407 46.18 201.357 45.76 200.541 44.92C199.725 44.08 199.317 42.97 199.317 41.59C199.317 40.162 199.725 39.01 200.541 38.134C201.357 37.258 202.383 36.82 203.619 36.82C204.771 36.82 205.725 37.21 206.481 37.99C207.249 38.77 207.633 39.88 207.633 41.32ZM205.401 38.836C204.945 38.356 204.351 38.116 203.619 38.116C202.887 38.116 202.269 38.368 201.765 38.872C201.273 39.364 200.985 39.982 200.901 40.726H206.103C206.091 39.946 205.857 39.316 205.401 38.836ZM212.847 46.18C211.731 46.18 210.873 45.916 210.273 45.388C209.685 44.86 209.367 44.152 209.319 43.264H210.849C210.957 44.38 211.623 44.938 212.847 44.938C213.327 44.938 213.723 44.836 214.035 44.632C214.359 44.416 214.521 44.098 214.521 43.678C214.521 43.234 214.353 42.892 214.017 42.652C213.693 42.412 213.243 42.208 212.667 42.04L212.055 41.878C211.719 41.782 211.437 41.686 211.209 41.59C210.981 41.494 210.729 41.356 210.453 41.176C210.177 40.984 209.967 40.738 209.823 40.438C209.679 40.138 209.607 39.79 209.607 39.394C209.607 38.614 209.901 37.99 210.489 37.522C211.089 37.054 211.809 36.82 212.649 36.82C213.657 36.82 214.437 37.072 214.989 37.576C215.541 38.08 215.835 38.686 215.871 39.394H214.341C214.305 38.998 214.137 38.68 213.837 38.44C213.537 38.188 213.147 38.062 212.667 38.062C212.223 38.062 211.851 38.17 211.551 38.386C211.263 38.602 211.119 38.914 211.119 39.322C211.119 39.526 211.161 39.706 211.245 39.862C211.329 40.006 211.461 40.132 211.641 40.24C211.833 40.348 212.001 40.432 212.145 40.492C212.301 40.552 212.523 40.624 212.811 40.708L213.387 40.888C214.179 41.104 214.815 41.422 215.295 41.842C215.787 42.25 216.033 42.85 216.033 43.642C216.033 44.482 215.733 45.118 215.133 45.55C214.533 45.97 213.771 46.18 212.847 46.18Z" fill="#276164"/>
<g opacity="0.24">
<rect x="29.9999" y="199" width="9.18933" height="9.18933" fill="#276164"/>
</g>
<rect x="29.9999" y="196" width="9.18933" height="3.06311" fill="#276164"/>
<g opacity="0.24">
<rect x="40.0234" y="202" width="9.18933" height="6.12622" fill="#276164"/>
</g>
<rect x="40.0234" y="199" width="9.18933" height="3.06311" fill="#276164"/>
<g opacity="0.24">
<rect x="50.0469" y="194" width="9.18933" height="13.784" fill="#276164"/>
</g>
<rect x="50.0469" y="191" width="9.18933" height="3.06311" fill="#276164"/>
<g opacity="0.24">
<rect x="60.0703" y="185" width="9.18933" height="22.9733" fill="#276164"/>
</g>
<rect x="60.0703" y="182" width="9.18933" height="3.06311" fill="#276164"/>
<g opacity="0.24">
<rect x="70.0938" y="182" width="9.18933" height="26.0364" fill="#276164"/>
</g>
<rect x="70.0938" y="180" width="9.18933" height="3.06311" fill="#276164"/>
<g opacity="0.24">
<rect x="80.1172" y="199" width="9.18933" height="9.18933" fill="#276164"/>
</g>
<g opacity="0.24">
<rect x="90.1406" y="174" width="9.18933" height="33.6942" fill="#276164"/>
</g>
<rect x="90.1406" y="171" width="9.18933" height="3.06311" fill="#276164"/>
<g opacity="0.24">
<rect x="100.164" y="150" width="9.18933" height="58.1991" fill="#276164"/>
</g>
<g opacity="0.24">
<rect x="110.188" y="164" width="9.18933" height="44.4151" fill="#276164"/>
</g>
<g opacity="0.24">
<rect x="120.211" y="139" width="9.18933" height="68.9199" fill="#276164"/>
</g>
<g opacity="0.24">
<rect x="130.234" y="177" width="9.18933" height="30.6311" fill="#276164"/>
</g>
<g opacity="0.24">
<rect x="140.258" y="174" width="9.18933" height="33.6942" fill="#276164"/>
</g>
<g opacity="0.24">
<rect x="150.281" y="167" width="9.18933" height="41.352" fill="#276164"/>
</g>
<g opacity="0.24">
<rect x="160.305" y="150" width="9.18933" height="58.1991" fill="#276164"/>
</g>
<g opacity="0.24">
<rect x="170.328" y="171" width="9.18933" height="36.7573" fill="#276164"/>
</g>
<g opacity="0.24">
<rect x="180.352" y="147" width="9.18933" height="61.2622" fill="#276164"/>
</g>
<g opacity="0.24">
<rect x="190.375" y="157" width="9.18933" height="50.5413" fill="#276164"/>
</g>
<g opacity="0.24">
<rect x="200.399" y="144" width="9.18933" height="64.3253" fill="#276164"/>
</g>
<g opacity="0.24">
<rect x="210.422" y="136" width="9.18933" height="71.9831" fill="#276164"/>
</g>
<g opacity="0.24">
<rect x="220.446" y="121" width="9.18933" height="87.2986" fill="#276164"/>
</g>
<g opacity="0.24">
<rect x="230.469" y="125" width="9.18933" height="82.7039" fill="#276164"/>
</g>
<g opacity="0.24">
<rect x="240.492" y="130" width="9.18933" height="78.1093" fill="#276164"/>
</g>
<g opacity="0.24">
<rect x="250.516" y="122" width="9.18933" height="85.767" fill="#276164"/>
</g>
<g opacity="0.24">
<rect x="260.539" y="139" width="9.18933" height="68.9199" fill="#276164"/>
</g>
<rect x="260.54" y="136" width="9.18933" height="3.06311" fill="#276164"/>
<g opacity="0.24">
<rect x="270.563" y="101" width="9.18933" height="107.209" fill="#276164"/>
</g>
<rect x="270.563" y="98.0002" width="9.18933" height="3.06311" fill="#276164"/>
<g opacity="0.24">
<rect x="280.586" y="130" width="9.18933" height="78.1093" fill="#276164"/>
</g>
<rect x="280.586" y="127" width="9.18933" height="3.06311" fill="#276164"/>
<g opacity="0.24">
<rect x="290.61" y="113" width="9.18933" height="94.9564" fill="#276164"/>
</g>
<rect x="290.61" y="110" width="9.18933" height="3.06311" fill="#276164"/>
<g opacity="0.24">
<rect x="300.633" y="97.9998" width="9.18933" height="110.272" fill="#276164"/>
</g>
<rect x="300.633" y="94.9998" width="9.18933" height="3.06311" fill="#276164"/>
<g opacity="0.24">
<rect x="310.657" y="108" width="9.18933" height="99.551" fill="#276164"/>
</g>
<rect x="310.657" y="105" width="9.18933" height="3.06311" fill="#276164"/>
<g opacity="0.24">
<rect x="320.68" y="118" width="9.18933" height="90.3617" fill="#276164"/>
</g>
<g opacity="0.24">
<rect x="330.704" y="85" width="9.18933" height="122.524" fill="#276164"/>
</g>
<rect x="330.704" y="82" width="9.18933" height="3.06311" fill="#276164"/>
<g opacity="0.24">
<rect x="340.727" y="95.0002" width="9.18933" height="113.335" fill="#276164"/>
</g>
<rect x="340.727" y="92" width="9.18933" height="3.06311" fill="#276164"/>
<g opacity="0.24">
<rect x="350.751" y="108" width="9.18933" height="99.551" fill="#276164"/>
</g>
<rect x="350.751" y="105" width="9.18933" height="3.06311" fill="#276164"/>
<g opacity="0.24">
<rect x="360.774" y="101" width="9.18933" height="107.209" fill="#276164"/>
</g>
<rect x="360.774" y="98.0002" width="9.18933" height="3.06311" fill="#276164"/>
<g opacity="0.24">
<rect x="370.798" y="85" width="9.18933" height="122.524" fill="#276164"/>
</g>
<rect x="370.798" y="82" width="9.18933" height="3.06311" fill="#276164"/>
<g opacity="0.24">
<rect x="380.821" y="69.0002" width="9.18933" height="139.371" fill="#276164"/>
</g>
<rect x="380.821" y="66" width="9.18933" height="3.06311" fill="#276164"/>
<rect x="80.1172" y="196" width="9.18933" height="3.06311" fill="#276164"/>
<rect x="100.164" y="149" width="9.18933" height="3.06311" fill="#276164"/>
<rect x="110.188" y="163" width="9.18933" height="3.06311" fill="#276164"/>
<rect x="120.211" y="138" width="9.18933" height="3.06311" fill="#276164"/>
<rect x="130.235" y="175" width="9.18933" height="3.06311" fill="#276164"/>
<rect x="140.258" y="173" width="9.18933" height="3.06311" fill="#276164"/>
<rect x="150" y="165" width="9.18933" height="3.06311" fill="#276164"/>
<path d="M31.64 71.77H37.04V73H30.305V62.5H31.64V71.77ZM45.0358 71.98H45.2308V73H44.6308C43.8908 73 43.4458 72.68 43.2958 72.04C42.7158 72.78 41.8908 73.15 40.8208 73.15C40.0808 73.15 39.4808 72.97 39.0208 72.61C38.5708 72.24 38.3458 71.705 38.3458 71.005C38.3458 70.325 38.5758 69.795 39.0358 69.415C39.5058 69.025 40.1258 68.79 40.8958 68.71L43.1308 68.5V68.08C43.1308 67.56 42.9958 67.155 42.7258 66.865C42.4558 66.575 42.0708 66.43 41.5708 66.43C40.6708 66.43 40.1308 66.905 39.9508 67.855H38.6458C38.7258 67.115 39.0208 66.515 39.5308 66.055C40.0508 65.585 40.7308 65.35 41.5708 65.35C42.4408 65.35 43.1358 65.59 43.6558 66.07C44.1858 66.55 44.4508 67.23 44.4508 68.11V71.365C44.4508 71.775 44.6458 71.98 45.0358 71.98ZM43.1308 70.12V69.46L41.3158 69.64C40.8058 69.69 40.4008 69.825 40.1008 70.045C39.8108 70.265 39.6658 70.57 39.6658 70.96C39.6658 71.35 39.7908 71.64 40.0408 71.83C40.2908 72.01 40.6108 72.1 41.0008 72.1C41.5708 72.1 42.0658 71.94 42.4858 71.62C42.9158 71.29 43.1308 70.79 43.1308 70.12ZM49.2288 73.15C48.2988 73.15 47.5838 72.93 47.0838 72.49C46.5938 72.05 46.3288 71.46 46.2888 70.72H47.5638C47.6538 71.65 48.2088 72.115 49.2288 72.115C49.6288 72.115 49.9588 72.03 50.2188 71.86C50.4888 71.68 50.6238 71.415 50.6238 71.065C50.6238 70.695 50.4838 70.41 50.2038 70.21C49.9338 70.01 49.5588 69.84 49.0788 69.7L48.5688 69.565C48.2888 69.485 48.0538 69.405 47.8638 69.325C47.6738 69.245 47.4638 69.13 47.2338 68.98C47.0038 68.82 46.8288 68.615 46.7088 68.365C46.5888 68.115 46.5288 67.825 46.5288 67.495C46.5288 66.845 46.7738 66.325 47.2638 65.935C47.7638 65.545 48.3638 65.35 49.0638 65.35C49.9038 65.35 50.5538 65.56 51.0138 65.98C51.4738 66.4 51.7188 66.905 51.7488 67.495H50.4738C50.4438 67.165 50.3038 66.9 50.0538 66.7C49.8038 66.49 49.4788 66.385 49.0788 66.385C48.7088 66.385 48.3988 66.475 48.1488 66.655C47.9088 66.835 47.7888 67.095 47.7888 67.435C47.7888 67.605 47.8238 67.755 47.8938 67.885C47.9638 68.005 48.0738 68.11 48.2238 68.2C48.3838 68.29 48.5238 68.36 48.6438 68.41C48.7738 68.46 48.9588 68.52 49.1988 68.59L49.6788 68.74C50.3388 68.92 50.8688 69.185 51.2688 69.535C51.6788 69.875 51.8838 70.375 51.8838 71.035C51.8838 71.735 51.6338 72.265 51.1338 72.625C50.6338 72.975 49.9988 73.15 49.2288 73.15ZM56.0424 73.15C55.3324 73.15 54.8324 72.975 54.5424 72.625C54.2624 72.265 54.1224 71.825 54.1224 71.305V66.565H52.5324V65.5H53.0424C53.4824 65.5 53.7924 65.42 53.9724 65.26C54.1524 65.09 54.2424 64.8 54.2424 64.39V63.46H55.4424V65.5H57.3174V66.565H55.4424V71.125C55.4424 71.755 55.7574 72.07 56.3874 72.07C56.6274 72.07 56.8774 72.03 57.1374 71.95V72.985C56.7374 73.095 56.3724 73.15 56.0424 73.15ZM67.5764 68.05C68.0764 68.21 68.4764 68.49 68.7764 68.89C69.0764 69.29 69.2264 69.78 69.2264 70.36C69.2264 71.17 68.9164 71.84 68.2964 72.37C67.6764 72.89 66.8714 73.15 65.8814 73.15C64.9214 73.15 64.1564 72.905 63.5864 72.415C63.0264 71.915 62.7114 71.225 62.6414 70.345H63.9614C64.0314 70.835 64.2214 71.24 64.5314 71.56C64.8414 71.87 65.2864 72.025 65.8664 72.025C66.4564 72.025 66.9364 71.865 67.3064 71.545C67.6764 71.225 67.8614 70.815 67.8614 70.315C67.8614 69.815 67.6864 69.41 67.3364 69.1C66.9964 68.78 66.5314 68.62 65.9414 68.62H65.0714V67.555H65.8814C66.3914 67.555 66.7964 67.41 67.0964 67.12C67.4064 66.82 67.5614 66.425 67.5614 65.935C67.5614 65.455 67.4064 65.07 67.0964 64.78C66.7864 64.48 66.3814 64.33 65.8814 64.33C65.4214 64.33 65.0264 64.46 64.6964 64.72C64.3664 64.98 64.1564 65.35 64.0664 65.83H62.7614C62.8114 65.05 63.1414 64.425 63.7514 63.955C64.3714 63.475 65.0964 63.235 65.9264 63.235C66.7664 63.235 67.4714 63.48 68.0414 63.97C68.6114 64.46 68.8964 65.1 68.8964 65.89C68.8964 66.83 68.4564 67.525 67.5764 67.975V68.05ZM75.3137 73V65.5H76.4987L76.6187 66.4H76.7237C77.2037 65.7 77.8787 65.35 78.7487 65.35C79.7387 65.35 80.4187 65.79 80.7887 66.67H80.8787C81.3687 65.79 82.1387 65.35 83.1887 65.35C83.9287 65.35 84.5237 65.575 84.9737 66.025C85.4237 66.475 85.6487 67.125 85.6487 67.975V73H84.3287V68.23C84.3287 67.67 84.1837 67.245 83.8937 66.955C83.6037 66.655 83.2437 66.505 82.8137 66.505C82.3137 66.505 81.9087 66.685 81.5987 67.045C81.2887 67.395 81.1337 67.855 81.1337 68.425V73H79.8137V68.335C79.8137 67.745 79.6687 67.295 79.3787 66.985C79.0987 66.665 78.7387 66.505 78.2987 66.505C77.8587 66.505 77.4687 66.67 77.1287 67C76.7887 67.32 76.6187 67.785 76.6187 68.395V73H75.3137ZM91.1134 73.15C90.0334 73.15 89.1334 72.78 88.4134 72.04C87.7034 71.29 87.3484 70.36 87.3484 69.25C87.3484 68.12 87.7034 67.19 88.4134 66.46C89.1234 65.72 90.0234 65.35 91.1134 65.35C92.1934 65.35 93.0934 65.72 93.8134 66.46C94.5334 67.2 94.8934 68.13 94.8934 69.25C94.8934 70.37 94.5334 71.3 93.8134 72.04C93.1034 72.78 92.2034 73.15 91.1134 73.15ZM89.3434 71.2C89.8034 71.73 90.3934 71.995 91.1134 71.995C91.8334 71.995 92.4234 71.73 92.8834 71.2C93.3534 70.66 93.5884 70.01 93.5884 69.25C93.5884 68.48 93.3534 67.83 92.8834 67.3C92.4234 66.77 91.8334 66.505 91.1134 66.505C90.3834 66.505 89.7934 66.77 89.3434 67.3C88.8934 67.83 88.6684 68.48 88.6684 69.25C88.6684 70.01 88.8934 70.66 89.3434 71.2ZM96.6271 73V65.5H97.8121L97.9321 66.4H98.0371C98.5471 65.7 99.2721 65.35 100.212 65.35C101.032 65.35 101.692 65.605 102.192 66.115C102.692 66.625 102.942 67.35 102.942 68.29V73H101.637V68.575C101.637 67.885 101.472 67.37 101.142 67.03C100.822 66.68 100.402 66.505 99.8821 66.505C99.3321 66.505 98.8671 66.695 98.4871 67.075C98.1171 67.445 97.9321 67.995 97.9321 68.725V73H96.6271ZM107.546 73.15C106.836 73.15 106.336 72.975 106.046 72.625C105.766 72.265 105.626 71.825 105.626 71.305V66.565H104.036V65.5H104.546C104.986 65.5 105.296 65.42 105.476 65.26C105.656 65.09 105.746 64.8 105.746 64.39V63.46H106.946V65.5H108.821V66.565H106.946V71.125C106.946 71.755 107.261 72.07 107.891 72.07C108.131 72.07 108.381 72.03 108.641 71.95V72.985C108.241 73.095 107.876 73.15 107.546 73.15ZM113.791 65.35C114.611 65.35 115.271 65.605 115.771 66.115C116.271 66.625 116.521 67.35 116.521 68.29V73H115.216V68.575C115.216 67.885 115.051 67.37 114.721 67.03C114.401 66.68 113.981 66.505 113.461 66.505C112.911 66.505 112.446 66.695 112.066 67.075C111.696 67.445 111.511 67.995 111.511 68.725V73H110.206V62.35H111.511V66.4H111.616C112.126 65.7 112.851 65.35 113.791 65.35ZM121.123 73.15C120.193 73.15 119.478 72.93 118.978 72.49C118.488 72.05 118.223 71.46 118.183 70.72H119.458C119.548 71.65 120.103 72.115 121.123 72.115C121.523 72.115 121.853 72.03 122.113 71.86C122.383 71.68 122.518 71.415 122.518 71.065C122.518 70.695 122.378 70.41 122.098 70.21C121.828 70.01 121.453 69.84 120.973 69.7L120.463 69.565C120.183 69.485 119.948 69.405 119.758 69.325C119.568 69.245 119.358 69.13 119.128 68.98C118.898 68.82 118.723 68.615 118.603 68.365C118.483 68.115 118.423 67.825 118.423 67.495C118.423 66.845 118.668 66.325 119.158 65.935C119.658 65.545 120.258 65.35 120.958 65.35C121.798 65.35 122.448 65.56 122.908 65.98C123.368 66.4 123.613 66.905 123.643 67.495H122.368C122.338 67.165 122.198 66.9 121.948 66.7C121.698 66.49 121.373 66.385 120.973 66.385C120.603 66.385 120.293 66.475 120.043 66.655C119.803 66.835 119.683 67.095 119.683 67.435C119.683 67.605 119.718 67.755 119.788 67.885C119.858 68.005 119.968 68.11 120.118 68.2C120.278 68.29 120.418 68.36 120.538 68.41C120.668 68.46 120.853 68.52 121.093 68.59L121.573 68.74C122.233 68.92 122.763 69.185 123.163 69.535C123.573 69.875 123.778 70.375 123.778 71.035C123.778 71.735 123.528 72.265 123.028 72.625C122.528 72.975 121.893 73.15 121.123 73.15Z" fill="#9D9D9D"/>
<rect x="160.305" y="149" width="9.18933" height="3.06311" fill="#276164"/>
<rect x="170.328" y="170" width="9.18933" height="3.06311" fill="#276164"/>
<rect x="180.352" y="147" width="9.18933" height="3.06311" fill="#276164"/>
<rect x="190.375" y="155" width="9.18933" height="3.06311" fill="#276164"/>
<rect x="200.399" y="143" width="9.18933" height="3.06311" fill="#276164"/>
<rect x="210.422" y="135" width="9.18933" height="3.06311" fill="#276164"/>
<rect x="220.446" y="120" width="9.18933" height="3.06311" fill="#276164"/>
<rect x="230.469" y="124" width="9.18933" height="3.06311" fill="#276164"/>
<rect x="240.493" y="129" width="9.18933" height="3.06311" fill="#276164"/>
<rect x="250.516" y="119" width="9.18933" height="3.06311" fill="#276164"/>
<rect x="320.68" y="115" width="9.18933" height="3.06311" fill="#276164"/>
<defs>
<filter id="filter0_d" x="0" y="0" width="416" height="237" filterUnits="userSpaceOnUse" color-interpolation-filters="sRGB">
<feFlood flood-opacity="0" result="BackgroundImageFix"/>
<feColorMatrix in="SourceAlpha" type="matrix" values="0 0 0 0 0 0 0 0 0 0 0 0 0 0 0 0 0 0 127 0"/>
<feOffset dy="2"/>
<feGaussianBlur stdDeviation="3"/>
<feColorMatrix type="matrix" values="0 0 0 0 0 0 0 0 0 0 0 0 0 0 0 0 0 0 0.08 0"/>
<feBlend mode="normal" in2="BackgroundImageFix" result="effect1_dropShadow"/>
<feBlend mode="normal" in="SourceGraphic" in2="effect1_dropShadow" result="shape"/>
</filter>
</defs>
</svg>
