<svg width="48" height="40" viewBox="0 0 48 40" fill="none" xmlns="http://www.w3.org/2000/svg">
<path d="M14.914 14.456L20.658 9.03C21.3015 8.59988 22.058 8.3702 22.832 8.37H30.2C30.8736 8.36976 31.5359 8.54366 32.1225 8.87481C32.7091 9.20597 33.2002 9.68313 33.548 10.26L34.248 11.416C34.5914 11.9823 34.7855 12.6266 34.8121 13.2884C34.8387 13.9502 34.6969 14.6079 34.4 15.2L33.766 16.468C33.3824 17.2357 32.7569 17.8558 31.9859 18.2328C31.215 18.6098 30.3414 18.7226 29.5 18.554L23.176 17.29C23.0082 17.2572 22.8355 17.258 22.668 17.2923C22.5005 17.3266 22.3414 17.3938 22.2 17.49C21.6106 17.8796 21.1389 18.4231 20.8361 19.0615C20.5333 19.6999 20.4108 20.409 20.482 21.112C20.5094 21.3896 20.6133 21.6541 20.7821 21.8762C20.9508 22.0983 21.1779 22.2692 21.438 22.37L32.136 26.484C32.9596 26.8006 33.866 26.8295 34.708 26.566L46.126 23" stroke="#276164" stroke-width="3" stroke-linecap="round" stroke-linejoin="round"/>
<path d="M46.124 7.54199L37.4 2.16799C36.7129 1.74858 35.9135 1.55031 35.11 1.59999L21.066 2.42599C20.1891 2.47555 19.3543 2.81861 18.696 3.39999L11.696 9.62999C11.1836 10.0845 10.8 10.666 10.584 11.316L9.23401 15.342" stroke="#276164" stroke-width="3" stroke-linecap="round" stroke-linejoin="round"/>
<path d="M16.874 20.412H12.8C12.1755 20.41 11.5699 20.626 11.0877 21.0227C10.6054 21.4194 10.2767 21.9719 10.1582 22.585C10.0397 23.1982 10.1388 23.8334 10.4385 24.3812C10.7383 24.9291 11.2198 25.3552 11.8 25.586L15.926 27.238C16.5041 27.4706 16.9832 27.8971 17.2812 28.4444C17.5793 28.9916 17.6776 29.6255 17.5593 30.2373C17.4411 30.8491 17.1136 31.4007 16.6332 31.7975C16.1527 32.1943 15.5491 32.4116 14.926 32.412H10.874" stroke="#276164" stroke-width="3" stroke-linecap="round" stroke-linejoin="round"/>
<path d="M13.874 20.412V18.912" stroke="#276164" stroke-width="3" stroke-linecap="round" stroke-linejoin="round"/>
<path d="M13.874 33.912V32.412" stroke="#276164" stroke-width="3" stroke-linecap="round" stroke-linejoin="round"/>
<path d="M16.448 14.688C13.9227 14.1363 11.2867 14.4159 8.9333 15.485C6.57992 16.5542 4.6353 18.3556 3.38959 20.6205C2.14389 22.8854 1.66388 25.4923 2.02119 28.0524C2.37849 30.6124 3.55396 32.9883 5.37219 34.8256C7.19043 36.6629 9.55397 37.863 12.1102 38.2469C14.6664 38.6308 17.2782 38.178 19.5559 36.9559C21.8336 35.7339 23.6552 33.8081 24.7488 31.466C25.8424 29.1238 26.1494 26.4909 25.624 23.96" stroke="#276164" stroke-width="3" stroke-linecap="round" stroke-linejoin="round"/>
</svg>
