<svg width="46" height="46" viewBox="0 0 46 46" fill="none" xmlns="http://www.w3.org/2000/svg">
<path d="M2 23C2 28.5695 4.21249 33.911 8.15076 37.8492C12.089 41.7875 17.4305 44 23 44C28.5695 44 33.911 41.7875 37.8492 37.8492C41.7875 33.911 44 28.5695 44 23C44 17.4305 41.7875 12.089 37.8492 8.15076C33.911 4.21249 28.5695 2 23 2C17.4305 2 12.089 4.21249 8.15076 8.15076C4.21249 12.089 2 17.4305 2 23V23Z" stroke="#276164" stroke-width="3" stroke-linecap="round" stroke-linejoin="round"/>
<path d="M23 23V15.5" stroke="#276164" stroke-width="3" stroke-linecap="round" stroke-linejoin="round"/>
<path d="M23 23L32.374 32.376" stroke="#276164" stroke-width="3" stroke-linecap="round" stroke-linejoin="round"/>
</svg>
