<svg width="380" height="221" viewBox="0 0 380 221" fill="none" xmlns="http://www.w3.org/2000/svg">
<path d="M379.501 111.655V128.592V219.516H260.455V111.655C260.455 111.5 260.526 111.355 260.648 111.26L319.671 65.4324C319.852 65.2923 320.104 65.2923 320.284 65.4324L379.307 111.26C379.429 111.355 379.501 111.5 379.501 111.655Z" fill="#CBD5CA" stroke="black" stroke-linecap="round"/>
<path d="M319.978 65.425L259.955 112.061H380.001L319.978 65.425Z" fill="#226752"/>
<g style="mix-blend-mode:multiply" opacity="0.5">
<rect x="259.955" y="112.061" width="120.045" height="107.955" fill="#CBD5CA"/>
</g>
<g style="mix-blend-mode:overlay">
<path fill-rule="evenodd" clip-rule="evenodd" d="M379.137 175.744C379.137 175.191 378.689 174.744 378.137 174.744H350.435C349.883 174.744 349.435 174.296 349.435 173.744V154.849C349.435 154.297 348.988 153.849 348.435 153.849H320.391C319.839 153.849 319.391 153.402 319.391 152.849V133.962C319.391 133.41 318.943 132.962 318.391 132.962H290.355C289.802 132.962 289.355 132.514 289.355 131.962V113.061C289.355 112.509 288.907 112.061 288.355 112.061H261.234C260.682 112.061 260.234 112.509 260.234 113.061V219.016C260.234 219.568 260.682 220.016 261.234 220.016H319.389C319.39 220.016 319.391 220.015 319.391 220.014C319.391 220.012 319.392 220.012 319.393 220.012H378.137C378.689 220.012 379.137 219.564 379.137 219.012V175.744Z" fill="#CBD5CA"/>
</g>
<path fill-rule="evenodd" clip-rule="evenodd" d="M275.265 15.9273C276.782 15.9582 278.277 16.2819 279.66 16.879H279.656C282.124 17.8905 284.151 19.6867 285.393 21.9633C286.635 24.24 287.016 26.8571 286.472 29.3717C286.338 29.9878 286.152 30.5885 285.915 31.1682C287.187 30.8137 288.52 30.6447 289.858 30.6698C291.505 30.7006 293.127 31.0243 294.629 31.6215H294.625C297.304 32.633 299.504 34.4291 300.852 36.7058C302.2 38.9824 302.614 41.5996 302.023 44.1141C301.432 46.6286 299.873 48.8859 297.609 50.5038C295.346 52.1216 292.517 53.0006 289.602 52.9918H266.934H266.843H238.921C238.886 52.9919 238.85 52.9919 238.815 52.9918H213.768C210.71 53.0025 207.743 52.1229 205.37 50.5022C202.996 48.8814 201.362 46.6196 200.746 44.1007C200.13 41.5818 200.569 38.9611 201.99 36.6838C203.41 34.4064 205.723 32.6128 208.537 31.6074C210.106 31.0161 211.801 30.6967 213.52 30.6683C214.842 30.6465 216.158 30.7972 217.422 31.1133C217.193 30.5464 217.013 29.9596 216.884 29.3582C216.342 26.8393 216.728 24.2187 217.977 21.9413C219.227 19.664 221.262 17.8703 223.737 16.8649C225.117 16.2736 226.608 15.9543 228.12 15.9259C229.633 15.8975 231.135 16.1606 232.539 16.6996C233.254 12.335 235.576 8.3583 239.087 5.48633C242.597 2.61437 247.065 1.03613 251.685 1.03613C256.305 1.03613 260.774 2.61437 264.284 5.48633C267.795 8.3583 270.117 12.335 270.832 16.6996C272.24 16.1592 273.748 15.8965 275.265 15.9273Z" fill="white"/>
<path d="M279.66 16.879V17.379C279.897 17.379 280.101 17.2124 280.149 16.9802C280.197 16.748 280.075 16.514 279.858 16.42L279.66 16.879ZM275.265 15.9273L275.255 16.4272L275.265 15.9273ZM279.656 16.879V16.379C279.417 16.379 279.211 16.548 279.165 16.7824C279.119 17.0168 279.245 17.2511 279.466 17.3417L279.656 16.879ZM285.393 21.9633L285.832 21.7238V21.7238L285.393 21.9633ZM286.472 29.3717L285.983 29.2659V29.2659L286.472 29.3717ZM285.915 31.1682L285.452 30.979C285.38 31.1556 285.414 31.358 285.541 31.5006C285.668 31.6431 285.865 31.701 286.049 31.6498L285.915 31.1682ZM289.858 30.6698L289.868 30.1699L289.858 30.6698ZM294.629 31.6215V32.1215C294.868 32.1215 295.074 31.9511 295.12 31.7156C295.165 31.48 295.036 31.2456 294.813 31.1569L294.629 31.6215ZM294.625 31.6215V31.1215C294.383 31.1215 294.176 31.2941 294.133 31.5317C294.089 31.7693 294.222 32.0039 294.448 32.0892L294.625 31.6215ZM297.609 50.5038L297.9 50.9106L297.609 50.5038ZM289.602 52.9918L289.603 52.4918H289.602V52.9918ZM238.921 52.9918V52.4918L238.919 52.4918L238.921 52.9918ZM238.815 52.9918L238.817 52.4918H238.815V52.9918ZM213.768 52.9918V52.4918L213.766 52.4918L213.768 52.9918ZM205.37 50.5022L205.651 50.0892L205.37 50.5022ZM200.746 44.1007L201.232 43.9819H201.232L200.746 44.1007ZM201.99 36.6838L202.414 36.9484H202.414L201.99 36.6838ZM208.537 31.6074L208.705 32.0783L208.713 32.0753L208.537 31.6074ZM213.52 30.6683L213.528 31.1683L213.52 30.6683ZM217.422 31.1133L217.3 31.5983C217.483 31.644 217.675 31.5835 217.799 31.4417C217.922 31.3 217.956 31.101 217.885 30.9266L217.422 31.1133ZM216.884 29.3582L216.395 29.4634L216.395 29.4634L216.884 29.3582ZM217.977 21.9413L217.539 21.7009L217.977 21.9413ZM223.737 16.8649L223.925 17.3283L223.934 17.3245L223.737 16.8649ZM232.539 16.6996L232.36 17.1664C232.5 17.2203 232.657 17.2082 232.788 17.1333C232.918 17.0585 233.008 16.9289 233.032 16.7805L232.539 16.6996ZM239.087 5.48633L239.403 5.87333L239.087 5.48633ZM264.284 5.48633L264.601 5.09933L264.284 5.48633ZM270.832 16.6996L270.339 16.7805C270.363 16.9289 270.453 17.0585 270.583 17.1333C270.714 17.2082 270.871 17.2203 271.011 17.1664L270.832 16.6996ZM279.858 16.42C278.415 15.797 276.856 15.4596 275.275 15.4274L275.255 16.4272C276.707 16.4567 278.138 16.7668 279.461 17.338L279.858 16.42ZM279.656 17.379H279.66V16.379H279.656V17.379ZM285.832 21.7238C284.533 19.3433 282.417 17.4701 279.845 16.4164L279.466 17.3417C281.832 18.311 283.769 20.0301 284.954 22.2028L285.832 21.7238ZM286.961 29.4775C287.531 26.8446 287.131 24.1049 285.832 21.7238L284.954 22.2028C286.139 24.375 286.502 26.8697 285.983 29.2659L286.961 29.4775ZM286.377 31.3574C286.625 30.751 286.821 30.1224 286.961 29.4775L285.983 29.2659C285.856 29.8532 285.678 30.4261 285.452 30.979L286.377 31.3574ZM289.868 30.1699C288.481 30.1439 287.1 30.3189 285.78 30.6865L286.049 31.6498C287.274 31.3085 288.558 31.1455 289.849 31.1697L289.868 30.1699ZM294.813 31.1569C293.255 30.5371 291.573 30.2018 289.868 30.1699L289.849 31.1697C291.437 31.1994 293 31.5116 294.444 32.0861L294.813 31.1569ZM294.625 32.1215H294.629V31.1215H294.625V32.1215ZM301.282 36.451C299.871 34.0683 297.577 32.2018 294.801 31.1537L294.448 32.0892C297.03 33.0642 299.136 34.7899 300.422 36.9606L301.282 36.451ZM302.51 44.2285C303.131 41.5849 302.695 38.8358 301.282 36.451L300.422 36.9606C301.706 39.1291 302.097 41.6143 301.536 43.9997L302.51 44.2285ZM297.9 50.9106C300.254 49.2281 301.889 46.8705 302.51 44.2285L301.536 43.9997C300.975 46.3867 299.492 48.5438 297.318 50.097L297.9 50.9106ZM289.6 53.4918C292.615 53.5009 295.547 52.5924 297.9 50.9106L297.318 50.097C295.144 51.6509 292.419 52.5003 289.603 52.4918L289.6 53.4918ZM266.934 53.4918H289.602V52.4918H266.934V53.4918ZM266.843 53.4918H266.934V52.4918H266.843V53.4918ZM238.921 53.4918H266.843V52.4918H238.921V53.4918ZM238.813 53.4918C238.85 53.4919 238.886 53.4919 238.923 53.4918L238.919 52.4918C238.885 52.4919 238.851 52.4919 238.817 52.4918L238.813 53.4918ZM213.768 53.4918H238.815V52.4918H213.768V53.4918ZM205.088 50.9151C207.55 52.5966 210.618 53.5029 213.769 53.4918L213.766 52.4918C210.803 52.5022 207.936 51.6492 205.651 50.0892L205.088 50.9151ZM200.261 44.2195C200.909 46.8715 202.624 49.2329 205.088 50.9151L205.651 50.0892C203.368 48.5299 201.815 46.3677 201.232 43.9819L200.261 44.2195ZM201.565 36.4192C200.077 38.8064 199.611 41.5647 200.261 44.2195L201.232 43.9819C200.649 41.5989 201.062 39.1159 202.414 36.9484L201.565 36.4192ZM208.369 31.1365C205.461 32.1753 203.052 34.0353 201.565 36.4192L202.414 36.9484C203.768 34.7776 205.985 33.0503 208.705 32.0782L208.369 31.1365ZM213.511 30.1684C211.736 30.1977 209.985 30.5274 208.361 31.1395L208.713 32.0753C210.227 31.5048 211.865 31.1957 213.528 31.1683L213.511 30.1684ZM217.543 30.6283C216.237 30.3014 214.877 30.1458 213.511 30.1684L213.528 31.1683C214.807 31.1471 216.08 31.2929 217.3 31.5983L217.543 30.6283ZM216.395 29.4634C216.53 30.0929 216.719 30.7069 216.958 31.3L217.885 30.9266C217.668 30.3859 217.496 29.8264 217.372 29.253L216.395 29.4634ZM217.539 21.7009C216.232 24.0827 215.827 26.8259 216.395 29.4634L217.372 29.253C216.856 26.8527 217.224 24.3547 218.416 22.1818L217.539 21.7009ZM223.549 16.4017C220.97 17.449 218.845 19.3196 217.539 21.7009L218.416 22.1818C219.608 20.0084 221.553 18.2916 223.925 17.3282L223.549 16.4017ZM228.111 15.426C226.535 15.4556 224.98 15.7884 223.54 16.4053L223.934 17.3245C225.254 16.7588 226.682 16.453 228.13 16.4258L228.111 15.426ZM232.718 16.2329C231.254 15.6706 229.687 15.3963 228.111 15.426L228.13 16.4258C229.578 16.3986 231.017 16.6506 232.36 17.1664L232.718 16.2329ZM238.77 5.09933C235.168 8.04625 232.781 12.1307 232.045 16.6188L233.032 16.7805C233.727 12.5394 235.984 8.67034 239.403 5.87333L238.77 5.09933ZM251.685 0.536133C246.952 0.536133 242.372 2.15283 238.77 5.09933L239.403 5.87333C242.823 3.07591 247.178 1.53613 251.685 1.53613V0.536133ZM264.601 5.09933C260.999 2.15283 256.419 0.536133 251.685 0.536133V1.53613C256.192 1.53613 260.548 3.07591 263.968 5.87333L264.601 5.09933ZM271.325 16.6188C270.59 12.1307 268.203 8.04625 264.601 5.09933L263.968 5.87333C267.387 8.67034 269.644 12.5394 270.339 16.7805L271.325 16.6188ZM275.275 15.4274C273.694 15.3953 272.122 15.6691 270.653 16.2328L271.011 17.1664C272.359 16.6493 273.802 16.3977 275.255 16.4272L275.275 15.4274Z" fill="#1D1D1D"/>
<path d="M231.22 41.4335C229.773 40.7811 228.208 40.4275 226.62 40.3938C225.032 40.3602 223.454 40.6471 221.98 41.2375C221.231 36.4697 218.8 32.1256 215.125 28.9883C211.45 25.851 206.773 24.127 201.937 24.127C197.101 24.127 192.423 25.851 188.748 28.9883C185.073 32.1256 182.643 36.4697 181.894 41.2375C180.425 40.6487 178.852 40.3612 177.269 40.3922C175.686 40.4233 174.125 40.7721 172.68 41.4181C170.089 42.5163 167.959 44.4757 166.651 46.9634C165.343 49.4512 164.939 52.3139 165.506 55.0655C166.073 57.8171 167.578 60.2879 169.763 62.0584C171.949 63.8288 174.682 64.7898 177.497 64.778H226.373C229.184 64.7876 231.912 63.8275 234.095 62.0602C236.278 60.2929 237.782 57.827 238.352 55.0802C238.921 52.3334 238.522 49.4744 237.222 46.9875C235.922 44.5005 233.8 42.5384 231.216 41.4335H231.22Z" fill="white" stroke="#1D1D1D" stroke-linejoin="round"/>
<path d="M294.827 196.121H273.152C272.629 196.121 272.128 196.329 271.759 196.698C271.389 197.068 271.182 197.569 271.182 198.091V219.169H296.799V198.085C296.797 197.563 296.589 197.064 296.219 196.695C295.85 196.327 295.349 196.121 294.827 196.121Z" fill="#226752"/>
<path d="M291.674 193.558C291.688 192.539 291.5 191.528 291.12 190.583C290.74 189.638 290.177 188.778 289.462 188.053C288.747 187.327 287.894 186.752 286.955 186.358C286.015 185.965 285.007 185.763 283.989 185.763C282.97 185.763 281.962 185.965 281.022 186.358C280.083 186.752 279.231 187.327 278.515 188.053C277.8 188.778 277.237 189.638 276.857 190.583C276.477 191.528 276.289 192.539 276.304 193.558V196.125H291.674V193.558Z" fill="#226752"/>
<path d="M290.435 185.872H277.543C277.233 185.872 276.927 185.804 276.645 185.674C276.364 185.544 276.115 185.354 275.914 185.117C275.714 184.881 275.567 184.603 275.485 184.304C275.403 184.005 275.386 183.692 275.437 183.386L277.228 172.643C277.326 172.044 277.634 171.499 278.097 171.105C278.56 170.712 279.148 170.496 279.756 170.496H288.223C288.829 170.496 289.416 170.712 289.879 171.104C290.341 171.496 290.65 172.039 290.75 172.637L292.541 183.38C292.593 183.686 292.577 184 292.495 184.3C292.414 184.6 292.267 184.878 292.067 185.115C291.866 185.352 291.616 185.543 291.335 185.674C291.053 185.805 290.746 185.872 290.435 185.872Z" fill="white"/>
<path d="M290.435 185.872H277.543C277.233 185.872 276.927 185.804 276.645 185.674C276.364 185.544 276.115 185.354 275.914 185.117C275.714 184.881 275.567 184.603 275.485 184.304C275.403 184.005 275.386 183.692 275.437 183.386L277.228 172.643C277.326 172.044 277.634 171.499 278.097 171.105C278.56 170.712 279.148 170.496 279.756 170.496H288.223C288.829 170.496 289.416 170.712 289.879 171.104C290.341 171.496 290.65 172.039 290.75 172.637L292.541 183.38C292.593 183.686 292.577 184 292.495 184.3C292.414 184.6 292.267 184.878 292.067 185.115C291.866 185.352 291.616 185.543 291.335 185.674C291.053 185.805 290.746 185.872 290.435 185.872V185.872Z" stroke="#1D1D1D" stroke-linecap="round" stroke-linejoin="round"/>
<path d="M294.827 196.121H273.152C272.629 196.121 272.128 196.329 271.759 196.698C271.389 197.068 271.182 197.569 271.182 198.091V219.169H296.799V198.085C296.797 197.563 296.589 197.064 296.219 196.695C295.85 196.327 295.349 196.121 294.827 196.121V196.121Z" stroke="#1D1D1D" stroke-linecap="round" stroke-linejoin="round"/>
<path d="M291.674 193.558C291.688 192.539 291.5 191.528 291.12 190.583C290.74 189.638 290.177 188.778 289.462 188.053C288.747 187.327 287.894 186.752 286.955 186.358C286.015 185.965 285.007 185.763 283.989 185.763C282.97 185.763 281.962 185.965 281.022 186.358C280.083 186.752 279.231 187.327 278.515 188.053C277.8 188.778 277.237 189.638 276.857 190.583C276.477 191.528 276.289 192.539 276.304 193.558V196.125H291.674V193.558Z" stroke="#1D1D1D" stroke-linecap="round" stroke-linejoin="round"/>
<mask id="path-14-inside-1_1230_17545" fill="white">
<path fill-rule="evenodd" clip-rule="evenodd" d="M326.476 219.704C331.51 217.575 335.342 209.964 337.516 199.012C335.832 201.014 333.247 202.923 331.124 203.816C327.31 205.419 319.787 205.928 318.69 203.116C317.592 200.304 323.335 195.237 327.149 193.634C330.463 192.241 336.243 191.815 338.422 193.572C339.183 188.009 339.571 181.797 339.537 175.15C337.878 177.306 335.072 179.432 332.795 180.389C328.981 181.992 321.458 182.5 320.361 179.689C319.263 176.877 325.006 171.81 328.82 170.207C331.835 168.939 336.891 168.472 339.419 169.721C339.246 165.194 338.885 160.504 338.323 155.711C338.144 154.192 337.949 152.689 337.737 151.203C336.121 154.896 332.676 159.034 329.65 161.213C324.759 164.734 314.297 167.935 311.886 164.33C309.475 160.724 316.027 151.676 320.918 148.154C325.091 145.151 332.903 142.677 336.606 144.253C334.334 131.867 330.932 120.992 326.964 112.801C326.196 111.215 326.539 109.239 327.914 108.122C329.622 106.732 332.055 107.324 333.044 109.278C336.272 115.655 339.154 124.048 341.393 133.762C343.996 130.589 352.986 129.623 358.148 130.671C364.018 131.863 372.934 137.283 372.182 141.581C371.43 145.88 361.293 147.431 355.424 146.239C351.382 145.418 345.571 142.527 342.591 139.402C343.761 145.403 344.688 151.816 345.313 158.5C346.07 166.609 346.317 174.417 346.111 181.651C348.52 180.157 354.56 181.315 357.734 183.024C361.387 184.991 366.224 190.366 364.877 193.058C363.531 195.751 356.511 194.742 352.859 192.775C350.469 191.489 347.39 188.645 345.925 186.079C345.085 201.078 342.218 213.178 337.909 219.704H326.476Z"/>
</mask>
<path fill-rule="evenodd" clip-rule="evenodd" d="M326.476 219.704C331.51 217.575 335.342 209.964 337.516 199.012C335.832 201.014 333.247 202.923 331.124 203.816C327.31 205.419 319.787 205.928 318.69 203.116C317.592 200.304 323.335 195.237 327.149 193.634C330.463 192.241 336.243 191.815 338.422 193.572C339.183 188.009 339.571 181.797 339.537 175.15C337.878 177.306 335.072 179.432 332.795 180.389C328.981 181.992 321.458 182.5 320.361 179.689C319.263 176.877 325.006 171.81 328.82 170.207C331.835 168.939 336.891 168.472 339.419 169.721C339.246 165.194 338.885 160.504 338.323 155.711C338.144 154.192 337.949 152.689 337.737 151.203C336.121 154.896 332.676 159.034 329.65 161.213C324.759 164.734 314.297 167.935 311.886 164.33C309.475 160.724 316.027 151.676 320.918 148.154C325.091 145.151 332.903 142.677 336.606 144.253C334.334 131.867 330.932 120.992 326.964 112.801C326.196 111.215 326.539 109.239 327.914 108.122C329.622 106.732 332.055 107.324 333.044 109.278C336.272 115.655 339.154 124.048 341.393 133.762C343.996 130.589 352.986 129.623 358.148 130.671C364.018 131.863 372.934 137.283 372.182 141.581C371.43 145.88 361.293 147.431 355.424 146.239C351.382 145.418 345.571 142.527 342.591 139.402C343.761 145.403 344.688 151.816 345.313 158.5C346.07 166.609 346.317 174.417 346.111 181.651C348.52 180.157 354.56 181.315 357.734 183.024C361.387 184.991 366.224 190.366 364.877 193.058C363.531 195.751 356.511 194.742 352.859 192.775C350.469 191.489 347.39 188.645 345.925 186.079C345.085 201.078 342.218 213.178 337.909 219.704H326.476Z" fill="#CBD5CA"/>
<path d="M326.476 219.704L326.087 218.782L326.476 220.704V219.704ZM337.516 199.012L338.497 199.206L336.751 198.368L337.516 199.012ZM331.124 203.816L331.511 204.738L331.124 203.816ZM318.69 203.116L319.621 202.752L318.69 203.116ZM327.149 193.634L326.761 192.712L327.149 193.634ZM338.422 193.572L337.794 194.35L339.172 195.462L339.412 193.707L338.422 193.572ZM339.537 175.15L340.537 175.145L340.523 172.23L338.745 174.54L339.537 175.15ZM332.795 180.389L333.182 181.31L332.795 180.389ZM320.361 179.689L321.292 179.325L320.361 179.689ZM328.82 170.207L328.433 169.285L328.82 170.207ZM339.419 169.721L338.976 170.618L340.482 171.361L340.418 169.683L339.419 169.721ZM338.323 155.711L339.316 155.595L338.323 155.711ZM337.737 151.203L338.727 151.062L338.23 147.58L336.821 150.802L337.737 151.203ZM329.65 161.213L329.065 160.401L329.65 161.213ZM311.886 164.33L311.055 164.885L311.886 164.33ZM320.918 148.154L321.503 148.966L320.918 148.154ZM336.606 144.253L336.214 145.173L337.925 145.901L337.589 144.072L336.606 144.253ZM326.964 112.801L327.864 112.365L326.964 112.801ZM327.914 108.122L327.283 107.346V107.346L327.914 108.122ZM333.044 109.278L332.152 109.73V109.73L333.044 109.278ZM341.393 133.762L340.418 133.986L340.875 135.969L342.166 134.396L341.393 133.762ZM358.148 130.671L357.949 131.651L358.148 130.671ZM372.182 141.581L371.197 141.409L372.182 141.581ZM355.424 146.239L355.225 147.219L355.424 146.239ZM342.591 139.402L343.314 138.712L340.955 136.238L341.609 139.593L342.591 139.402ZM345.313 158.5L344.317 158.593L345.313 158.5ZM346.111 181.651L345.111 181.623L345.058 183.481L346.638 182.501L346.111 181.651ZM357.734 183.024L358.208 182.144L357.734 183.024ZM364.877 193.058L365.772 193.505L364.877 193.058ZM352.859 192.775L352.385 193.656L352.859 192.775ZM345.925 186.079L346.793 185.583L345.115 182.645L344.926 186.023L345.925 186.079ZM337.909 219.704V220.704H338.447L338.744 220.255L337.909 219.704ZM326.866 220.625C329.686 219.432 332.044 216.766 333.954 213.132C335.872 209.481 337.399 204.74 338.497 199.206L336.535 198.817C335.46 204.236 333.983 208.776 332.184 212.201C330.375 215.643 328.3 217.847 326.087 218.782L326.866 220.625ZM336.751 198.368C335.162 200.257 332.704 202.066 330.736 202.894L331.511 204.738C333.79 203.78 336.502 201.771 338.282 199.655L336.751 198.368ZM330.736 202.894C328.972 203.635 326.276 204.144 323.898 204.121C322.71 204.11 321.668 203.966 320.89 203.693C320.096 203.414 319.743 203.064 319.621 202.752L317.758 203.48C318.185 204.574 319.184 205.214 320.228 205.58C321.289 205.953 322.571 206.109 323.879 206.121C326.49 206.146 329.462 205.599 331.511 204.738L330.736 202.894ZM319.621 202.752C319.496 202.432 319.518 201.906 319.908 201.118C320.288 200.35 320.946 199.488 321.793 198.62C323.49 196.881 325.772 195.298 327.536 194.556L326.761 192.712C324.712 193.573 322.215 195.325 320.362 197.223C319.433 198.174 318.623 199.206 318.116 200.23C317.619 201.233 317.334 202.394 317.758 203.48L319.621 202.752ZM327.536 194.556C329.061 193.915 331.209 193.479 333.24 193.421C334.25 193.392 335.2 193.458 336.006 193.624C336.823 193.792 337.421 194.049 337.794 194.35L339.049 192.793C338.333 192.215 337.391 191.867 336.409 191.665C335.415 191.46 334.304 191.39 333.183 191.422C330.95 191.486 328.551 191.96 326.761 192.712L327.536 194.556ZM339.412 193.707C340.181 188.092 340.571 181.833 340.537 175.145L338.537 175.155C338.57 181.761 338.185 187.926 337.431 193.436L339.412 193.707ZM338.745 174.54C337.191 176.56 334.524 178.577 332.407 179.467L333.182 181.31C335.62 180.286 338.566 178.053 340.33 175.76L338.745 174.54ZM332.407 179.467C330.643 180.208 327.947 180.717 325.569 180.694C324.382 180.683 323.339 180.539 322.562 180.266C321.767 179.987 321.414 179.637 321.292 179.325L319.429 180.052C319.856 181.147 320.855 181.787 321.899 182.153C322.96 182.526 324.242 182.682 325.55 182.694C328.161 182.719 331.133 182.172 333.182 181.31L332.407 179.467ZM321.292 179.325C321.167 179.004 321.189 178.479 321.579 177.69C321.96 176.923 322.617 176.061 323.464 175.193C325.162 173.454 327.443 171.87 329.208 171.129L328.433 169.285C326.384 170.146 323.886 171.898 322.033 173.796C321.105 174.747 320.294 175.779 319.787 176.803C319.29 177.805 319.006 178.967 319.429 180.052L321.292 179.325ZM329.208 171.129C330.592 170.547 332.495 170.132 334.363 170.018C336.258 169.903 337.945 170.108 338.976 170.618L339.862 168.824C338.365 168.085 336.26 167.899 334.241 168.022C332.196 168.147 330.064 168.599 328.433 169.285L329.208 171.129ZM340.418 169.683C340.245 165.129 339.881 160.413 339.316 155.595L337.329 155.828C337.889 160.595 338.248 165.259 338.42 169.759L340.418 169.683ZM339.316 155.595C339.137 154.068 338.94 152.556 338.727 151.062L336.747 151.344C336.958 152.822 337.152 154.317 337.329 155.828L339.316 155.595ZM336.821 150.802C335.279 154.325 331.951 158.323 329.065 160.401L330.234 162.024C333.401 159.744 336.963 155.466 338.653 151.604L336.821 150.802ZM329.065 160.401C326.744 162.073 323.034 163.704 319.619 164.468C317.914 164.85 316.346 165 315.099 164.865C313.835 164.727 313.083 164.32 312.717 163.774L311.055 164.885C311.895 166.142 313.355 166.687 314.883 166.853C316.429 167.021 318.234 166.828 320.056 166.42C323.698 165.604 327.665 163.874 330.234 162.024L329.065 160.401ZM312.717 163.774C312.345 163.216 312.239 162.316 312.563 161.018C312.88 159.744 313.571 158.264 314.515 156.736C316.405 153.676 319.18 150.638 321.503 148.966L320.334 147.343C317.765 149.192 314.819 152.439 312.813 155.685C311.809 157.31 311.008 158.987 310.622 160.534C310.243 162.057 310.222 163.64 311.055 164.885L312.717 163.774ZM321.503 148.966C323.475 147.546 326.357 146.223 329.2 145.451C330.616 145.067 331.996 144.828 333.223 144.774C334.461 144.721 335.478 144.86 336.214 145.173L336.997 143.333C335.882 142.858 334.534 142.715 333.136 142.776C331.726 142.837 330.197 143.109 328.676 143.521C325.644 144.344 322.534 145.759 320.334 147.343L321.503 148.966ZM337.589 144.072C335.306 131.622 331.881 120.657 327.864 112.365L326.064 113.237C329.983 121.327 333.362 132.111 335.622 144.433L337.589 144.072ZM327.864 112.365C327.278 111.155 327.564 109.694 328.544 108.897L327.283 107.346C325.514 108.784 325.113 111.275 326.064 113.237L327.864 112.365ZM328.544 108.897C329.729 107.934 331.434 108.312 332.152 109.73L333.936 108.826C332.676 106.337 329.515 105.531 327.283 107.346L328.544 108.897ZM332.152 109.73C335.333 116.015 338.191 124.326 340.418 133.986L342.367 133.537C340.116 123.771 337.211 115.296 333.936 108.826L332.152 109.73ZM342.166 134.396C342.666 133.787 343.542 133.211 344.758 132.72C345.958 132.236 347.41 131.867 348.967 131.622C352.092 131.129 355.507 131.155 357.949 131.651L358.347 129.691C355.627 129.139 351.967 129.124 348.656 129.646C346.994 129.908 345.388 130.309 344.009 130.866C342.646 131.416 341.422 132.15 340.62 133.127L342.166 134.396ZM357.949 131.651C360.729 132.216 364.298 133.805 367.069 135.776C368.452 136.76 369.587 137.805 370.323 138.818C371.068 139.844 371.319 140.713 371.197 141.409L373.167 141.754C373.421 140.3 372.84 138.88 371.941 137.643C371.034 136.394 369.714 135.204 368.228 134.146C365.261 132.035 361.437 130.319 358.347 129.691L357.949 131.651ZM371.197 141.409C371.077 142.096 370.56 142.793 369.534 143.447C368.516 144.095 367.114 144.621 365.497 144.995C362.258 145.742 358.402 145.823 355.623 145.259L355.225 147.219C358.315 147.846 362.462 147.748 365.947 146.943C367.691 146.541 369.331 145.948 370.609 145.134C371.878 144.325 372.911 143.216 373.167 141.754L371.197 141.409ZM355.623 145.259C353.716 144.872 351.342 143.983 349.072 142.798C346.797 141.611 344.702 140.167 343.314 138.712L341.867 140.092C343.46 141.762 345.76 143.326 348.146 144.571C350.536 145.818 353.089 146.785 355.225 147.219L355.623 145.259ZM341.609 139.593C342.773 145.56 343.695 151.941 344.317 158.593L346.308 158.407C345.681 151.691 344.749 145.245 343.572 139.21L341.609 139.593ZM344.317 158.593C345.071 166.664 345.316 174.43 345.111 181.623L347.11 181.68C347.317 174.403 347.069 166.555 346.308 158.407L344.317 158.593ZM346.638 182.501C347.048 182.246 347.698 182.061 348.575 181.992C349.438 181.924 350.441 181.975 351.494 182.126C353.61 182.43 355.796 183.117 357.26 183.905L358.208 182.144C356.498 181.223 354.077 180.476 351.778 180.147C350.622 179.981 349.466 179.916 348.419 179.998C347.387 180.079 346.378 180.309 345.584 180.801L346.638 182.501ZM357.26 183.905C358.948 184.814 360.967 186.551 362.391 188.383C363.101 189.296 363.627 190.187 363.9 190.963C364.178 191.754 364.147 192.283 363.983 192.611L365.772 193.505C366.281 192.487 366.15 191.335 365.786 190.299C365.417 189.249 364.757 188.168 363.97 187.155C362.399 185.134 360.173 183.202 358.208 182.144L357.26 183.905ZM363.983 192.611C363.823 192.931 363.441 193.249 362.675 193.464C361.919 193.675 360.925 193.743 359.8 193.666C357.547 193.513 355.02 192.803 353.333 191.895L352.385 193.656C354.35 194.714 357.159 195.492 359.665 195.662C360.92 195.747 362.162 195.684 363.215 195.39C364.258 195.097 365.258 194.532 365.772 193.505L363.983 192.611ZM353.333 191.895C351.093 190.689 348.158 187.973 346.793 185.583L345.056 186.575C346.623 189.318 349.844 192.288 352.385 193.656L353.333 191.895ZM344.926 186.023C344.089 200.982 341.231 212.858 337.075 219.152L338.744 220.255C343.205 213.498 346.082 201.173 346.923 186.135L344.926 186.023ZM326.476 220.704H337.909V218.704H326.476V220.704Z" fill="black" mask="url(#path-14-inside-1_1230_17545)"/>
<path d="M300.158 80.84C301.363 83.9671 304.259 86.9827 307.821 88.85C311.38 90.7152 315.526 91.3949 319.221 89.9731C322.915 88.5513 325.534 85.2691 326.921 81.5007C328.309 77.7284 328.432 73.5511 327.227 70.424C326.034 67.3317 323.615 65.4556 320.541 64.7004C317.45 63.9413 313.69 64.3171 309.893 65.7781C306.097 67.2391 303.056 69.48 301.273 72.1143C299.5 74.735 298.965 77.7477 300.158 80.84Z" fill="#F0E7D5" stroke="black"/>
<path d="M324.891 69.1536C323.316 72.1123 322.934 76.2739 323.857 80.1861C324.778 84.094 326.981 87.668 330.477 89.525C333.974 91.3819 338.171 91.207 341.929 89.7845C345.691 88.3604 348.93 85.7161 350.504 82.7573C352.061 79.8314 351.894 76.7764 350.45 73.9609C348.999 71.1309 346.251 68.5397 342.659 66.6316C339.066 64.7235 335.379 63.8971 332.219 64.2781C329.076 64.657 326.448 66.2277 324.891 69.1536Z" fill="#F0E7D5" stroke="black"/>
<path d="M289.094 104.056C292.472 105.596 297.019 105.88 301.148 104.845C305.279 103.81 308.896 101.482 310.532 97.901C312.167 94.3197 311.556 90.065 309.631 86.2694C307.707 82.475 304.512 79.2302 301.134 77.6904C297.785 76.1635 294.485 76.418 291.598 77.9541C288.697 79.4974 286.191 82.3486 284.506 86.038C282.822 89.7274 282.309 93.4873 283.043 96.6875C283.774 99.873 285.744 102.529 289.094 104.056Z" fill="#F0E7D5" stroke="black"/>
<path d="M308.44 99.4326C309.645 102.56 312.541 105.575 316.104 107.442C319.662 109.308 323.808 109.987 327.503 108.566C331.198 107.144 333.816 103.862 335.203 100.093C336.591 96.3209 336.714 92.1436 335.509 89.0166C334.317 85.9242 331.897 84.0482 328.823 83.293C325.732 82.5338 321.972 82.9097 318.176 84.3706C314.379 85.8316 311.338 88.0725 309.556 90.7068C307.782 93.3275 307.248 96.3402 308.44 99.4326Z" fill="#AC590C" stroke="black"/>
<path d="M350.734 80.4765C347.401 80.0994 343.386 81.2717 340.082 83.5652C336.782 85.8562 334.263 89.2148 333.818 93.1453C333.372 97.0759 335.075 100.912 337.779 103.883C340.486 106.856 344.137 108.896 347.47 109.273C350.766 109.646 353.55 108.369 355.641 105.994C357.743 103.606 359.147 100.102 359.604 96.0628C360.062 92.0238 359.478 88.2943 357.964 85.4977C356.457 82.7155 354.03 80.8494 350.734 80.4765Z" fill="#F0E7D5" stroke="black"/>
<path d="M311.665 123.645C314.112 121.353 315.819 117.538 316.211 113.538C316.603 109.542 315.674 105.449 312.966 102.563C310.258 99.6775 306.229 98.4882 302.212 98.6214C298.192 98.7548 294.271 100.212 291.825 102.504C289.405 104.77 288.575 107.715 289.031 110.846C289.489 113.993 291.252 117.332 294.034 120.297C296.817 123.262 300.039 125.235 303.153 125.894C306.25 126.55 309.245 125.912 311.665 123.645Z" fill="#F0E7D5" stroke="black"/>
<path d="M335.291 121.413C335.615 118.078 334.376 114.086 332.028 110.823C329.682 107.563 326.279 105.101 322.338 104.72C318.397 104.338 314.585 106.102 311.656 108.851C308.724 111.603 306.742 115.283 306.419 118.619C306.099 121.917 307.421 124.676 309.832 126.727C312.256 128.788 315.786 130.134 319.836 130.526C323.885 130.918 327.609 130.275 330.383 128.716C333.143 127.166 334.971 124.712 335.291 121.413Z" fill="#F0E7D5" stroke="black"/>
<path d="M352.509 101.588C350.086 98.7978 345.956 96.7607 341.57 96.1614C337.188 95.5626 332.638 96.4095 329.341 99.2687C326.044 102.128 324.565 106.51 324.542 110.928C324.519 115.351 325.957 119.723 328.381 122.512C330.78 125.274 333.996 126.313 337.467 125.943C340.955 125.572 344.706 123.775 348.085 120.844C351.465 117.913 353.773 114.456 354.631 111.058C355.486 107.677 354.909 104.349 352.509 101.588Z" fill="#F0E7D5" stroke="black"/>
<path d="M303.033 193.891C311.831 190.948 321.063 189.511 330.339 189.64C339.615 189.511 348.847 190.948 357.645 193.891C359.127 194.411 360.451 195.304 361.489 196.483V170.027C361.489 161.765 358.207 153.841 352.364 147.999C346.522 142.156 338.598 138.874 330.336 138.874C322.074 138.874 314.15 142.156 308.308 147.999C302.466 153.841 299.184 161.765 299.184 170.027V196.483C300.224 195.303 301.549 194.411 303.033 193.891Z" fill="white"/>
<path d="M303.033 193.891C311.831 190.948 321.063 189.511 330.339 189.64C339.615 189.511 348.847 190.948 357.645 193.891C359.127 194.411 360.451 195.304 361.489 196.483V170.027C361.489 161.765 358.207 153.841 352.364 147.999C346.522 142.156 338.598 138.874 330.336 138.874C322.074 138.874 314.15 142.156 308.308 147.999C302.466 153.841 299.184 161.765 299.184 170.027V196.483C300.224 195.303 301.549 194.411 303.033 193.891V193.891Z" stroke="#1D1D1D" stroke-linecap="round" stroke-linejoin="round"/>
<path d="M289.959 189.637C289.959 192.697 291.175 195.632 293.338 197.796C295.502 199.959 298.437 201.175 301.497 201.175C304.557 201.175 307.491 199.959 309.655 197.796C311.819 195.632 313.034 192.697 313.034 189.637C313.034 186.577 311.819 183.643 309.655 181.479C307.491 179.315 304.557 178.1 301.497 178.1C298.437 178.1 295.502 179.315 293.338 181.479C291.175 183.643 289.959 186.577 289.959 189.637Z" fill="white"/>
<path d="M289.959 189.637C289.959 192.697 291.175 195.632 293.338 197.796C295.502 199.959 298.437 201.175 301.497 201.175C304.557 201.175 307.491 199.959 309.655 197.796C311.819 195.632 313.034 192.697 313.034 189.637C313.034 186.577 311.819 183.643 309.655 181.479C307.491 179.315 304.557 178.1 301.497 178.1C298.437 178.1 295.502 179.315 293.338 181.479C291.175 183.643 289.959 186.577 289.959 189.637V189.637Z" stroke="#1D1D1D" stroke-linecap="round" stroke-linejoin="round"/>
<path d="M347.643 189.637C347.643 192.697 348.858 195.632 351.022 197.796C353.186 199.959 356.12 201.175 359.18 201.175C362.24 201.175 365.175 199.959 367.338 197.796C369.502 195.632 370.718 192.697 370.718 189.637C370.718 186.577 369.502 183.643 367.338 181.479C365.175 179.315 362.24 178.1 359.18 178.1C356.12 178.1 353.186 179.315 351.022 181.479C348.858 183.643 347.643 186.577 347.643 189.637Z" fill="white"/>
<path d="M347.643 189.637C347.643 192.697 348.858 195.632 351.022 197.796C353.186 199.959 356.12 201.175 359.18 201.175C362.24 201.175 365.175 199.959 367.338 197.796C369.502 195.632 370.718 192.697 370.718 189.637C370.718 186.577 369.502 183.643 367.338 181.479C365.175 179.315 362.24 178.1 359.18 178.1C356.12 178.1 353.186 179.315 351.022 181.479C348.858 183.643 347.643 186.577 347.643 189.637V189.637Z" stroke="#1D1D1D" stroke-linecap="round" stroke-linejoin="round"/>
<path d="M303.805 215.022H313.035V219.637H303.805V215.022Z" fill="#226752" stroke="#1D1D1D" stroke-linecap="round" stroke-linejoin="round"/>
<path d="M347.643 215.022H356.873V219.637H347.643V215.022Z" fill="#226752" stroke="#1D1D1D" stroke-linecap="round" stroke-linejoin="round"/>
<path d="M336.106 168.88C336.106 170.021 335.768 171.136 335.134 172.085C334.5 173.034 333.599 173.773 332.545 174.21C331.491 174.646 330.331 174.761 329.212 174.538C328.093 174.315 327.065 173.766 326.258 172.959C325.451 172.152 324.902 171.125 324.679 170.006C324.457 168.887 324.571 167.727 325.007 166.672C325.444 165.618 326.184 164.717 327.132 164.084C328.081 163.45 329.196 163.111 330.337 163.111C331.867 163.111 333.334 163.719 334.416 164.801C335.498 165.883 336.106 167.35 336.106 168.88Z" fill="#226752" stroke="#1D1D1D" stroke-linecap="round" stroke-linejoin="round"/>
<path d="M363.799 202.593C363.802 200.683 363.212 198.819 362.11 197.259C361.008 195.699 359.448 194.521 357.647 193.886C348.848 190.943 339.617 189.506 330.341 189.636C321.064 189.506 311.832 190.943 303.034 193.886C301.232 194.521 299.672 195.699 298.57 197.259C297.468 198.819 296.878 200.683 296.881 202.593V208.096C296.881 209.006 297.06 209.906 297.408 210.746C297.756 211.585 298.266 212.349 298.909 212.991C299.552 213.634 300.315 214.144 301.155 214.492C301.995 214.839 302.895 215.018 303.804 215.018H356.875C357.784 215.018 358.684 214.839 359.524 214.492C360.364 214.144 361.127 213.634 361.77 212.991C362.413 212.349 362.923 211.585 363.271 210.746C363.619 209.906 363.798 209.006 363.798 208.096L363.799 202.593Z" fill="white"/>
<path d="M334.405 164.793L338.402 160.796" stroke="#1D1D1D" stroke-linecap="round" stroke-linejoin="round"/>
<path d="M322.252 160.796L326.249 164.793" stroke="#1D1D1D" stroke-linecap="round" stroke-linejoin="round"/>
<path d="M322.252 176.959L326.249 172.962" stroke="#1D1D1D" stroke-linecap="round" stroke-linejoin="round"/>
<path d="M334.405 172.962L338.402 176.959" stroke="#1D1D1D" stroke-linecap="round" stroke-linejoin="round"/>
<path d="M363.799 202.593C363.802 200.683 363.212 198.819 362.11 197.259C361.008 195.699 359.448 194.521 357.647 193.886C348.848 190.943 339.617 189.506 330.341 189.636C321.064 189.506 311.832 190.943 303.034 193.886C301.232 194.521 299.672 195.699 298.57 197.259C297.468 198.819 296.878 200.683 296.881 202.593V208.096C296.881 209.006 297.06 209.906 297.408 210.746C297.756 211.585 298.266 212.349 298.909 212.991C299.552 213.634 300.315 214.144 301.155 214.492C301.995 214.839 302.895 215.018 303.804 215.018H356.875C357.784 215.018 358.684 214.839 359.524 214.492C360.364 214.144 361.127 213.634 361.77 212.991C362.413 212.349 362.923 211.585 363.271 210.746C363.619 209.906 363.798 209.006 363.798 208.096L363.799 202.593Z" stroke="#1D1D1D" stroke-linecap="round" stroke-linejoin="round"/>
<path d="M252.545 99.4102V118.313V219.38H133.721V99.4102C133.721 99.2649 133.784 99.1268 133.894 99.0319L192.806 48.1213C192.994 47.9591 193.272 47.9591 193.46 48.1213L252.372 99.0319C252.482 99.1268 252.545 99.2649 252.545 99.4102Z" fill="#CBD5CA" stroke="black" stroke-linecap="round"/>
<path d="M193.132 47.5837L133.705 99.0063H252.559L193.132 47.5837Z" fill="#226752"/>
<g style="mix-blend-mode:multiply" opacity="0.5">
<rect x="133.221" y="99.0061" width="119.824" height="120.794" fill="#CBD5CA"/>
</g>
<g style="mix-blend-mode:overlay">
<path fill-rule="evenodd" clip-rule="evenodd" d="M252.181 175.744C252.181 175.192 251.734 174.744 251.181 174.744H223.48C222.928 174.744 222.48 174.296 222.48 173.744V154.85C222.48 154.297 222.032 153.85 221.48 153.85H193.436C192.884 153.85 192.436 153.402 192.436 152.85V133.962C192.436 133.41 191.988 132.962 191.436 132.962H163.399C162.847 132.962 162.399 132.514 162.399 131.962V113.061C162.399 112.509 161.952 112.061 161.399 112.061H134.279C133.727 112.061 133.279 112.509 133.279 113.061V219.016C133.279 219.568 133.727 220.016 134.279 220.016H192.434C192.435 220.016 192.436 220.015 192.436 220.014C192.436 220.013 192.437 220.012 192.438 220.012H251.181C251.734 220.012 252.181 219.564 252.181 219.012V175.744Z" fill="#CBD5CA"/>
</g>
<mask id="path-43-inside-2_1230_17545" fill="white">
<path fill-rule="evenodd" clip-rule="evenodd" d="M241.065 124.606C236.357 131.722 232.685 140.751 231.401 148.193L224.467 171.802V131.331L230.837 116.234H212.706L219.047 131.264V171.773L212.122 148.194C210.836 140.755 207.165 131.732 202.461 124.62C193.845 111.597 185.024 109.915 178.409 114.291C171.795 118.667 169.892 127.443 178.508 140.466C182.964 147.202 189.361 153.755 195.415 157.907L219.047 177.313V219.906H224.467V177.313L248.143 157.871C254.187 153.718 260.569 147.176 265.017 140.453C273.633 127.429 271.73 118.653 265.116 114.278C258.501 109.902 249.68 111.583 241.065 124.606Z"/>
</mask>
<path fill-rule="evenodd" clip-rule="evenodd" d="M241.065 124.606C236.357 131.722 232.685 140.751 231.401 148.193L224.467 171.802V131.331L230.837 116.234H212.706L219.047 131.264V171.773L212.122 148.194C210.836 140.755 207.165 131.732 202.461 124.62C193.845 111.597 185.024 109.915 178.409 114.291C171.795 118.667 169.892 127.443 178.508 140.466C182.964 147.202 189.361 153.755 195.415 157.907L219.047 177.313V219.906H224.467V177.313L248.143 157.871C254.187 153.718 260.569 147.176 265.017 140.453C273.633 127.429 271.73 118.653 265.116 114.278C258.501 109.902 249.68 111.583 241.065 124.606Z" fill="#CBD5CA"/>
<path d="M231.401 148.193L232.36 148.475L232.376 148.42L232.386 148.363L231.401 148.193ZM241.065 124.606L241.899 125.158L241.065 124.606ZM224.467 171.802H223.467L225.427 172.083L224.467 171.802ZM224.467 131.331L223.546 130.942L223.467 131.128V131.331H224.467ZM230.837 116.234L231.758 116.623L232.344 115.234H230.837V116.234ZM212.706 116.234V115.234H211.198L211.784 116.623L212.706 116.234ZM219.047 131.264H220.047V131.062L219.968 130.876L219.047 131.264ZM219.047 171.773L218.088 172.055L220.047 171.773H219.047ZM212.122 148.194L211.137 148.364L211.147 148.42L211.163 148.475L212.122 148.194ZM202.461 124.62L201.627 125.172L202.461 124.62ZM178.409 114.291L178.961 115.125L178.409 114.291ZM178.508 140.466L179.342 139.915L178.508 140.466ZM195.415 157.907L196.05 157.134L196.016 157.106L195.981 157.082L195.415 157.907ZM219.047 177.313H220.047V176.84L219.682 176.54L219.047 177.313ZM219.047 219.906H218.047V220.906H219.047V219.906ZM224.467 219.906V220.906H225.467V219.906H224.467ZM224.467 177.313L223.833 176.54L223.467 176.84V177.313H224.467ZM248.143 157.871L247.577 157.046L247.542 157.071L247.509 157.098L248.143 157.871ZM265.017 140.453L264.183 139.901L265.017 140.453ZM265.116 114.278L264.564 115.112V115.112L265.116 114.278ZM232.386 148.363C233.644 141.072 237.259 132.171 241.899 125.158L240.231 124.055C235.455 131.274 231.725 140.431 230.415 148.023L232.386 148.363ZM225.427 172.083L232.36 148.475L230.441 147.911L223.508 171.52L225.427 172.083ZM223.467 131.331V171.802H225.467V131.331H223.467ZM225.389 131.719L231.758 116.623L229.915 115.845L223.546 130.942L225.389 131.719ZM230.837 115.234H212.706V117.234H230.837V115.234ZM211.784 116.623L218.126 131.653L219.968 130.876L213.627 115.845L211.784 116.623ZM220.047 171.773V131.264H218.047V171.773H220.047ZM211.163 148.475L218.088 172.055L220.007 171.492L213.082 147.912L211.163 148.475ZM201.627 125.172C206.263 132.18 209.877 141.075 211.137 148.364L213.108 148.023C211.796 140.434 208.068 131.283 203.295 124.068L201.627 125.172ZM178.961 115.125C182.025 113.099 185.553 112.486 189.341 113.87C193.175 115.271 197.384 118.758 201.627 125.172L203.295 124.068C198.922 117.459 194.412 113.594 190.028 111.992C185.598 110.373 181.409 111.108 177.858 113.457L178.961 115.125ZM179.342 139.915C175.099 133.501 173.536 128.263 173.746 124.187C173.954 120.16 175.898 117.152 178.961 115.125L177.858 113.457C174.307 115.806 171.992 119.374 171.749 124.084C171.508 128.746 173.301 134.408 177.674 141.018L179.342 139.915ZM195.981 157.082C190.04 153.008 183.732 146.55 179.342 139.915L177.674 141.018C182.197 147.854 188.683 154.502 194.849 158.731L195.981 157.082ZM219.682 176.54L196.05 157.134L194.78 158.68L218.413 178.086L219.682 176.54ZM220.047 219.906V177.313H218.047V219.906H220.047ZM224.467 218.906H219.047V220.906H224.467V218.906ZM223.467 177.313V219.906H225.467V177.313H223.467ZM247.509 157.098L223.833 176.54L225.102 178.085L248.778 158.643L247.509 157.098ZM264.183 139.901C259.801 146.524 253.508 152.971 247.577 157.046L248.71 158.695C254.866 154.464 261.337 147.828 265.851 141.004L264.183 139.901ZM264.564 115.112C267.627 117.138 269.571 120.146 269.779 124.174C269.99 128.25 268.426 133.487 264.183 139.901L265.851 141.004C270.224 134.395 272.017 128.733 271.776 124.071C271.533 119.361 269.218 115.793 265.667 113.444L264.564 115.112ZM241.899 125.158C246.142 118.745 250.35 115.257 254.184 113.857C257.972 112.473 261.501 113.085 264.564 115.112L265.667 113.444C262.117 111.094 257.927 110.36 253.498 111.978C249.113 113.58 244.603 117.445 240.231 124.055L241.899 125.158Z" fill="black" mask="url(#path-43-inside-2_1230_17545)"/>
<mask id="path-45-inside-3_1230_17545" fill="white">
<path fill-rule="evenodd" clip-rule="evenodd" d="M218.707 125.557C211.271 125.411 199.001 114.71 191.407 102.939C182.192 88.6568 183.352 78.2091 189.345 72.3944C195.339 66.5797 203.897 67.5999 213.112 81.8823C216.543 87.2007 219.582 93.6082 221.735 99.8563C223.888 93.6082 226.926 87.2007 230.358 81.8823C239.573 67.5999 248.131 66.5797 254.124 72.3944C260.118 78.2091 261.277 88.6568 252.062 102.939C244.542 114.595 232.436 125.203 224.98 125.55C224.84 125.579 224.694 125.594 224.546 125.594H219.106C218.969 125.594 218.836 125.581 218.707 125.557Z"/>
</mask>
<path fill-rule="evenodd" clip-rule="evenodd" d="M218.707 125.557C211.271 125.411 199.001 114.71 191.407 102.939C182.192 88.6568 183.352 78.2091 189.345 72.3944C195.339 66.5797 203.897 67.5999 213.112 81.8823C216.543 87.2007 219.582 93.6082 221.735 99.8563C223.888 93.6082 226.926 87.2007 230.358 81.8823C239.573 67.5999 248.131 66.5797 254.124 72.3944C260.118 78.2091 261.277 88.6568 252.062 102.939C244.542 114.595 232.436 125.203 224.98 125.55C224.84 125.579 224.694 125.594 224.546 125.594H219.106C218.969 125.594 218.836 125.581 218.707 125.557Z" fill="#FAE3C3"/>
<path d="M218.707 125.557L218.895 124.574L218.812 124.559L218.727 124.557L218.707 125.557ZM191.407 102.939L192.248 102.397L191.407 102.939ZM189.345 72.3944L188.649 71.6767V71.6767L189.345 72.3944ZM213.112 81.8823L212.271 82.4244L213.112 81.8823ZM221.735 99.8563L220.789 100.182L221.735 102.926L222.68 100.182L221.735 99.8563ZM230.358 81.8823L231.198 82.4244L230.358 81.8823ZM254.124 72.3944L254.821 71.6767V71.6767L254.124 72.3944ZM252.062 102.939L251.222 102.397L252.062 102.939ZM224.98 125.55L224.934 124.551L224.854 124.554L224.775 124.571L224.98 125.55ZM218.727 124.557C217.084 124.525 215.081 123.902 212.835 122.73C210.602 121.565 208.194 119.891 205.761 117.842C200.892 113.743 195.992 108.201 192.248 102.397L190.567 103.481C194.417 109.448 199.448 115.142 204.472 119.372C206.985 121.488 209.514 123.253 211.91 124.503C214.293 125.747 216.612 126.516 218.688 126.557L218.727 124.557ZM192.248 102.397C187.705 95.3563 185.78 89.3528 185.673 84.4694C185.566 79.6102 187.254 75.8168 190.041 73.1122L188.649 71.6767C185.443 74.7867 183.555 79.1246 183.673 84.5135C183.791 89.8782 185.895 96.2398 190.567 103.481L192.248 102.397ZM190.041 73.1122C192.823 70.4135 196.086 69.3744 199.711 70.553C203.431 71.762 207.714 75.3608 212.271 82.4244L213.952 81.3402C209.295 74.1215 204.692 70.0689 200.33 68.651C195.874 67.2025 191.861 68.5606 188.649 71.6767L190.041 73.1122ZM212.271 82.4244C215.655 87.6683 218.66 94.0019 220.789 100.182L222.68 99.5306C220.504 93.2145 217.432 86.7331 213.952 81.3402L212.271 82.4244ZM222.68 100.182C224.81 94.0019 227.815 87.6683 231.198 82.4244L229.518 81.3402C226.038 86.7331 222.966 93.2145 220.789 99.5306L222.68 100.182ZM231.198 82.4244C235.756 75.3608 240.039 71.762 243.758 70.553C247.384 69.3744 250.647 70.4135 253.428 73.1122L254.821 71.6767C251.609 68.5606 247.596 67.2025 243.14 68.651C238.778 70.0689 234.175 74.1215 229.518 81.3402L231.198 82.4244ZM253.428 73.1122C256.216 75.8168 257.904 79.6102 257.797 84.4694C257.689 89.3528 255.765 95.3563 251.222 102.397L252.903 103.481C257.575 96.2398 259.678 89.8782 259.796 84.5135C259.915 79.1246 258.026 74.7867 254.821 71.6767L253.428 73.1122ZM251.222 102.397C247.514 108.144 242.672 113.636 237.85 117.723C235.44 119.766 233.052 121.444 230.829 122.627C228.595 123.817 226.591 124.474 224.934 124.551L225.026 126.548C227.097 126.452 229.401 125.653 231.769 124.392C234.149 123.125 236.655 121.358 239.143 119.249C244.119 115.031 249.09 109.39 252.903 103.481L251.222 102.397ZM224.775 124.571C224.702 124.586 224.625 124.594 224.546 124.594V126.594C224.764 126.594 224.977 126.572 225.185 126.528L224.775 124.571ZM224.546 124.594H219.106V126.594H224.546V124.594ZM219.106 124.594C219.033 124.594 218.962 124.587 218.895 124.574L218.52 126.539C218.71 126.575 218.906 126.594 219.106 126.594V124.594Z" fill="black" mask="url(#path-45-inside-3_1230_17545)"/>
<path d="M246.372 93.8734C243.842 102.2 239.575 110.732 235.049 116.734C232.785 119.737 230.473 122.084 228.301 123.461C226.116 124.846 224.165 125.195 222.566 124.415C220.967 123.635 219.704 121.718 218.816 118.834C217.934 115.967 217.461 112.262 217.37 108.111C217.19 99.813 218.54 89.8575 221.07 81.5313C223.6 73.203 226.811 68.1523 230.227 65.6091C233.621 63.0818 237.243 63.0094 240.71 64.7007C244.177 66.392 246.826 69.5229 248.006 74.2818C249.194 79.0706 248.903 85.5451 246.372 93.8734Z" fill="#FAE3C3" stroke="black"/>
<path d="M196.873 93.8734C199.403 102.2 203.67 110.732 208.196 116.734C210.46 119.737 212.772 122.084 214.944 123.461C217.129 124.846 219.08 125.195 220.679 124.415C222.279 123.635 223.541 121.718 224.429 118.834C225.311 115.967 225.784 112.262 225.875 108.111C226.055 99.813 224.705 89.8575 222.175 81.5313C219.645 73.203 216.434 68.1523 213.019 65.6091C209.624 63.0818 206.002 63.0094 202.535 64.7007C199.068 66.392 196.419 69.5229 195.239 74.2818C194.051 79.0706 194.343 85.5451 196.873 93.8734Z" fill="#FAE3C3" stroke="black"/>
<path d="M237.616 84.6121C237.616 93.9123 235.776 104.238 232.807 112.226C231.321 116.221 229.564 119.604 227.634 121.978C225.696 124.362 223.65 125.653 221.588 125.653C219.526 125.653 217.48 124.362 215.542 121.978C213.612 119.604 211.855 116.221 210.369 112.226C207.4 104.238 205.56 93.9123 205.56 84.6121C205.56 75.3109 207.4 68.8714 210.308 64.7708C213.201 60.6917 217.178 58.886 221.588 58.886C225.998 58.886 229.975 60.6917 232.868 64.7708C235.776 68.8714 237.616 75.3109 237.616 84.6121Z" fill="#FAE3C3" stroke="black"/>
<path d="M154.042 193.856C162.84 190.913 172.072 189.476 181.348 189.606C190.624 189.476 199.855 190.913 208.654 193.856C210.136 194.376 211.459 195.269 212.498 196.448V169.992C212.498 161.73 209.215 153.806 203.373 147.964C197.531 142.121 189.607 138.839 181.345 138.839C173.083 138.839 165.159 142.121 159.317 147.964C153.475 153.806 150.192 161.73 150.192 169.992V196.448C151.232 195.268 152.558 194.376 154.042 193.856Z" fill="white"/>
<path d="M154.042 193.856C162.84 190.913 172.072 189.476 181.348 189.606C190.624 189.476 199.855 190.913 208.654 193.856C210.136 194.376 211.459 195.269 212.498 196.448V169.992C212.498 161.73 209.215 153.806 203.373 147.964C197.531 142.121 189.607 138.839 181.345 138.839C173.083 138.839 165.159 142.121 159.317 147.964C153.475 153.806 150.192 161.73 150.192 169.992V196.448C151.232 195.268 152.558 194.376 154.042 193.856V193.856Z" stroke="#1D1D1D" stroke-linecap="round" stroke-linejoin="round"/>
<path d="M140.968 189.603C140.968 192.662 142.183 195.597 144.347 197.761C146.511 199.925 149.445 201.14 152.505 201.14C155.565 201.14 158.5 199.925 160.664 197.761C162.827 195.597 164.043 192.662 164.043 189.603C164.043 186.543 162.827 183.608 160.664 181.444C158.5 179.281 155.565 178.065 152.505 178.065C149.445 178.065 146.511 179.281 144.347 181.444C142.183 183.608 140.968 186.543 140.968 189.603Z" fill="white"/>
<path d="M140.968 189.603C140.968 192.662 142.183 195.597 144.347 197.761C146.511 199.925 149.445 201.14 152.505 201.14C155.565 201.14 158.5 199.925 160.664 197.761C162.827 195.597 164.043 192.662 164.043 189.603C164.043 186.543 162.827 183.608 160.664 181.444C158.5 179.281 155.565 178.065 152.505 178.065C149.445 178.065 146.511 179.281 144.347 181.444C142.183 183.608 140.968 186.543 140.968 189.603V189.603Z" stroke="#1D1D1D" stroke-linecap="round" stroke-linejoin="round"/>
<path d="M198.651 189.603C198.651 192.662 199.867 195.597 202.031 197.761C204.194 199.925 207.129 201.14 210.189 201.14C213.249 201.14 216.184 199.925 218.347 197.761C220.511 195.597 221.727 192.662 221.727 189.603C221.727 186.543 220.511 183.608 218.347 181.444C216.184 179.281 213.249 178.065 210.189 178.065C207.129 178.065 204.194 179.281 202.031 181.444C199.867 183.608 198.651 186.543 198.651 189.603Z" fill="white"/>
<path d="M198.651 189.603C198.651 192.662 199.867 195.597 202.031 197.761C204.194 199.925 207.129 201.14 210.189 201.14C213.249 201.14 216.184 199.925 218.347 197.761C220.511 195.597 221.727 192.662 221.727 189.603C221.727 186.543 220.511 183.608 218.347 181.444C216.184 179.281 213.249 178.065 210.189 178.065C207.129 178.065 204.194 179.281 202.031 181.444C199.867 183.608 198.651 186.543 198.651 189.603V189.603Z" stroke="#1D1D1D" stroke-linecap="round" stroke-linejoin="round"/>
<path d="M154.813 214.987H164.044V219.602H154.813V214.987Z" fill="#226752" stroke="#1D1D1D" stroke-linecap="round" stroke-linejoin="round"/>
<path d="M198.651 214.987H207.882V219.602H198.651V214.987Z" fill="#226752" stroke="#1D1D1D" stroke-linecap="round" stroke-linejoin="round"/>
<path d="M187.115 168.845C187.115 169.986 186.776 171.101 186.143 172.05C185.509 172.999 184.608 173.738 183.554 174.175C182.499 174.611 181.34 174.726 180.221 174.503C179.101 174.281 178.074 173.731 177.267 172.924C176.46 172.118 175.911 171.09 175.688 169.971C175.465 168.852 175.58 167.692 176.016 166.638C176.453 165.583 177.192 164.683 178.141 164.049C179.09 163.415 180.205 163.076 181.346 163.076C182.876 163.076 184.343 163.684 185.425 164.766C186.507 165.848 187.115 167.315 187.115 168.845Z" fill="#226752" stroke="#1D1D1D" stroke-linecap="round" stroke-linejoin="round"/>
<path d="M214.808 202.558C214.811 200.648 214.221 198.784 213.119 197.224C212.017 195.665 210.457 194.486 208.655 193.851C199.857 190.908 190.626 189.471 181.349 189.601C172.073 189.471 162.841 190.908 154.042 193.851C152.241 194.486 150.681 195.665 149.579 197.224C148.477 198.784 147.886 200.648 147.89 202.558V208.062C147.89 208.971 148.069 209.871 148.417 210.711C148.765 211.551 149.275 212.314 149.917 212.956C150.56 213.599 151.324 214.109 152.164 214.457C153.003 214.805 153.904 214.983 154.813 214.983H207.883C208.793 214.983 209.693 214.805 210.533 214.457C211.373 214.109 212.136 213.599 212.779 212.956C213.422 212.314 213.932 211.551 214.28 210.711C214.627 209.871 214.807 208.971 214.807 208.062L214.808 202.558Z" fill="white"/>
<path d="M185.415 164.758L189.412 160.761" stroke="#1D1D1D" stroke-linecap="round" stroke-linejoin="round"/>
<path d="M173.26 160.761L177.257 164.758" stroke="#1D1D1D" stroke-linecap="round" stroke-linejoin="round"/>
<path d="M173.26 176.924L177.257 172.927" stroke="#1D1D1D" stroke-linecap="round" stroke-linejoin="round"/>
<path d="M185.415 172.927L189.412 176.924" stroke="#1D1D1D" stroke-linecap="round" stroke-linejoin="round"/>
<path d="M214.808 202.558C214.811 200.648 214.221 198.784 213.119 197.224C212.017 195.665 210.457 194.486 208.655 193.851C199.857 190.908 190.626 189.471 181.349 189.601C172.073 189.471 162.841 190.908 154.042 193.851C152.241 194.486 150.681 195.665 149.579 197.224C148.477 198.784 147.886 200.648 147.89 202.558V208.061C147.89 208.971 148.069 209.871 148.417 210.711C148.765 211.551 149.275 212.314 149.917 212.956C150.56 213.599 151.324 214.109 152.164 214.457C153.003 214.805 153.904 214.983 154.813 214.983H207.883C208.793 214.983 209.693 214.805 210.533 214.457C211.373 214.109 212.136 213.599 212.779 212.956C213.422 212.314 213.932 211.551 214.28 210.711C214.627 209.871 214.807 208.971 214.807 208.061L214.808 202.558Z" stroke="#1D1D1D" stroke-linecap="round" stroke-linejoin="round"/>
<path d="M81.7443 46.4503C80.5 45.8959 79.1551 45.5954 77.7902 45.5668C76.4252 45.5382 75.0686 45.782 73.8016 46.2837C73.1582 42.232 71.0688 38.5404 67.9101 35.8743C64.7514 33.2083 60.7312 31.7432 56.5743 31.7432C52.4173 31.7432 48.3971 33.2083 45.2384 35.8743C42.0797 38.5404 39.9903 42.232 39.3469 46.2837C38.084 45.7834 36.732 45.5391 35.3713 45.5654C34.0107 45.5918 32.6694 45.8883 31.4274 46.4372C29.2002 47.3705 27.3691 49.0356 26.245 51.1497C25.1209 53.2638 24.7732 55.6965 25.2609 58.0348C25.7486 60.3731 27.0416 62.4729 28.9203 63.9774C30.7991 65.4819 33.1477 66.2985 35.5675 66.2885H77.5777C79.9938 66.2967 82.3387 65.4808 84.215 63.9789C86.0913 62.477 87.3839 60.3816 87.8737 58.0473C88.3636 55.7131 88.0207 53.2835 86.9031 51.1701C85.7854 49.0567 83.9618 47.3893 81.741 46.4503H81.7443Z" fill="white" stroke="#1D1D1D" stroke-linejoin="round"/>
<path d="M119.545 111.655V128.592V219.516H0.5V111.655C0.5 111.5 0.57137 111.355 0.693359 111.26L59.7161 65.4324C59.8965 65.2923 60.1489 65.2923 60.3294 65.4324L119.352 111.26C119.474 111.355 119.545 111.5 119.545 111.655Z" fill="#CBD5CA" stroke="black" stroke-linecap="round"/>
<path d="M60.0224 65.425L0.863281 112.061H119.181L60.0224 65.425Z" fill="#226752"/>
<g style="mix-blend-mode:multiply" opacity="0.5">
<rect y="112.061" width="120.045" height="107.955" fill="#CBD5CA"/>
</g>
<g style="mix-blend-mode:overlay">
<path fill-rule="evenodd" clip-rule="evenodd" d="M119.182 175.744C119.182 175.192 118.734 174.744 118.182 174.744H90.48C89.9277 174.744 89.48 174.296 89.48 173.744V154.85C89.48 154.297 89.0322 153.85 88.48 153.85H60.4358C59.8835 153.85 59.4358 153.402 59.4358 152.85V133.962C59.4358 133.41 58.9881 132.962 58.4358 132.962H30.3992C29.8469 132.962 29.3992 132.514 29.3992 131.962V113.061C29.3992 112.509 28.9515 112.061 28.3992 112.061H1.2793C0.727012 112.061 0.279297 112.509 0.279297 113.061V219.016C0.279297 219.568 0.727012 220.016 1.2793 220.016H59.4337C59.4349 220.016 59.4358 220.015 59.4358 220.014C59.4358 220.013 59.4368 220.012 59.4379 220.012H118.182C118.734 220.012 119.182 219.564 119.182 219.012V175.744Z" fill="#CBD5CA"/>
</g>
<mask id="path-70-inside-4_1230_17545" fill="white">
<path fill-rule="evenodd" clip-rule="evenodd" d="M91.4531 219.812C85.4133 215.423 81.218 203.32 79.7532 187.302C81.3878 189.573 84.1581 191.864 86.4628 192.974C90.4054 194.873 98.3562 195.906 99.7055 193.105C101.055 190.303 95.2919 184.73 91.3493 182.83C87.9175 181.177 81.7952 180.348 79.3767 182.008C78.9527 173.79 79.2034 164.735 80.2324 155.286C80.3431 154.269 80.4617 153.258 80.5878 152.255C82.1087 156.234 86.0807 160.951 89.5389 163.351C94.7407 166.96 105.867 170.241 108.431 166.545C110.995 162.849 104.027 153.576 98.8248 149.967C94.0993 146.688 84.9833 144.026 81.4311 146.337C83.4869 133.456 86.7814 121.997 90.7474 113.137C91.4963 111.464 91.0236 109.435 89.4985 108.418C87.7318 107.241 85.4272 107.979 84.5253 109.901C82.0006 115.281 79.7129 121.795 77.8 129.131C74.6011 126.258 64.9184 126.637 59.6354 128.493C53.6621 130.592 45.1757 137.44 46.667 141.684C48.1583 145.927 59.0626 145.961 65.0358 143.862C68.5339 142.632 73.1317 139.691 76.0419 136.612C74.6645 143.152 73.5791 150.191 72.8655 157.551C72.8011 158.216 72.7401 158.879 72.6826 159.539C70.0035 158.231 63.6826 160.058 60.4805 162.147C56.8153 164.538 52.2431 170.529 53.9418 173.134C55.6405 175.738 62.9668 173.968 66.6321 171.577C68.5087 170.353 70.7346 168.112 72.2322 165.867C70.9112 189.813 74.1907 210.209 80.4266 219.812H91.4531Z"/>
</mask>
<path fill-rule="evenodd" clip-rule="evenodd" d="M91.4531 219.812C85.4133 215.423 81.218 203.32 79.7532 187.302C81.3878 189.573 84.1581 191.864 86.4628 192.974C90.4054 194.873 98.3562 195.906 99.7055 193.105C101.055 190.303 95.2919 184.73 91.3493 182.83C87.9175 181.177 81.7952 180.348 79.3767 182.008C78.9527 173.79 79.2034 164.735 80.2324 155.286C80.3431 154.269 80.4617 153.258 80.5878 152.255C82.1087 156.234 86.0807 160.951 89.5389 163.351C94.7407 166.96 105.867 170.241 108.431 166.545C110.995 162.849 104.027 153.576 98.8248 149.967C94.0993 146.688 84.9833 144.026 81.4311 146.337C83.4869 133.456 86.7814 121.997 90.7474 113.137C91.4963 111.464 91.0236 109.435 89.4985 108.418C87.7318 107.241 85.4272 107.979 84.5253 109.901C82.0006 115.281 79.7129 121.795 77.8 129.131C74.6011 126.258 64.9184 126.637 59.6354 128.493C53.6621 130.592 45.1757 137.44 46.667 141.684C48.1583 145.927 59.0626 145.961 65.0358 143.862C68.5339 142.632 73.1317 139.691 76.0419 136.612C74.6645 143.152 73.5791 150.191 72.8655 157.551C72.8011 158.216 72.7401 158.879 72.6826 159.539C70.0035 158.231 63.6826 160.058 60.4805 162.147C56.8153 164.538 52.2431 170.529 53.9418 173.134C55.6405 175.738 62.9668 173.968 66.6321 171.577C68.5087 170.353 70.7346 168.112 72.2322 165.867C70.9112 189.813 74.1907 210.209 80.4266 219.812H91.4531Z" fill="#CBD5CA"/>
<path d="M79.7532 187.302L78.7574 187.393L78.4236 183.742L80.5649 186.718L79.7532 187.302ZM91.4531 219.812L92.041 219.003L94.5306 220.812H91.4531V219.812ZM86.4628 192.974L86.8968 192.073H86.8968L86.4628 192.974ZM91.3493 182.83L91.7833 181.929L91.3493 182.83ZM79.3767 182.008L79.9427 182.832L78.4701 183.843L78.3781 182.059L79.3767 182.008ZM80.2324 155.286L81.2265 155.394L80.2324 155.286ZM80.5878 152.255L79.5956 152.13L81.5219 151.898L80.5878 152.255ZM89.5389 163.351L90.109 162.529L89.5389 163.351ZM108.431 166.545L107.609 165.975H107.609L108.431 166.545ZM98.8248 149.967L98.2547 150.789H98.2547L98.8248 149.967ZM81.4311 146.337L81.9764 147.175L80.0887 148.403L80.4436 146.179L81.4311 146.337ZM90.7474 113.137L91.6601 113.546V113.546L90.7474 113.137ZM89.4985 108.418L90.0531 107.586L90.0531 107.586L89.4985 108.418ZM84.5253 109.901L85.4306 110.326V110.326L84.5253 109.901ZM77.8 129.131L78.7677 129.384L78.3534 130.972L77.1318 129.875L77.8 129.131ZM59.6354 128.493L59.9669 129.437V129.437L59.6354 128.493ZM46.667 141.684L45.7235 142.015L46.667 141.684ZM65.0358 143.862L64.7043 142.918L65.0358 143.862ZM76.0419 136.612L75.3152 135.925L77.7514 133.348L77.0204 136.818L76.0419 136.612ZM72.8655 157.551L71.8702 157.455L72.8655 157.551ZM72.6826 159.539L73.6789 159.626L73.5525 161.077L72.2439 160.438L72.6826 159.539ZM60.4805 162.147L59.9342 161.309L60.4805 162.147ZM53.9418 173.134L54.7794 172.587V172.587L53.9418 173.134ZM66.6321 171.577L66.0858 170.739L66.6321 171.577ZM72.2322 165.867L71.4003 165.312L73.4324 162.265L73.2307 165.922L72.2322 165.867ZM80.4266 219.812V220.812H79.8837L79.588 220.356L80.4266 219.812ZM80.7491 187.211C81.4763 195.163 82.8785 202.106 84.8295 207.582C86.7903 213.085 89.2616 216.983 92.041 219.003L90.8653 220.621C87.6049 218.252 84.9586 213.904 82.9455 208.253C80.9227 202.576 79.4949 195.459 78.7574 187.393L80.7491 187.211ZM86.0288 193.875C83.573 192.692 80.673 190.292 78.9416 187.886L80.5649 186.718C82.1025 188.854 84.7433 191.035 86.8968 192.073L86.0288 193.875ZM100.606 193.539C100.084 194.623 98.9947 195.2 97.8806 195.499C96.7437 195.804 95.384 195.876 94.0018 195.8C91.2409 195.649 88.1355 194.89 86.0288 193.875L86.8968 192.073C88.7327 192.957 91.574 193.664 94.1114 193.803C95.3784 193.873 96.5059 193.797 97.3624 193.567C98.2419 193.331 98.6522 192.987 98.8046 192.671L100.606 193.539ZM91.7833 181.929C93.89 182.944 96.4192 184.899 98.2586 186.964C99.1794 187.998 99.9702 189.106 100.44 190.185C100.901 191.243 101.129 192.454 100.606 193.539L98.8046 192.671C98.957 192.354 98.9704 191.819 98.6068 190.984C98.2526 190.171 97.6093 189.242 96.7652 188.294C95.0748 186.397 92.7512 184.616 90.9153 183.731L91.7833 181.929ZM78.8108 181.183C79.5958 180.645 80.6051 180.353 81.6521 180.212C82.7125 180.07 83.8896 180.072 85.0739 180.181C87.4326 180.396 89.9412 181.042 91.7833 181.929L90.9153 183.731C89.3256 182.965 87.0571 182.37 84.8921 182.172C83.8146 182.074 82.7932 182.077 81.9182 182.195C81.0298 182.314 80.3669 182.541 79.9427 182.832L78.8108 181.183ZM81.2265 155.394C80.2029 164.794 79.9543 173.795 80.3754 181.956L78.3781 182.059C77.9511 173.785 78.2039 164.677 79.2383 155.178L81.2265 155.394ZM81.58 152.38C81.4546 153.378 81.3367 154.382 81.2265 155.394L79.2383 155.178C79.3496 154.155 79.4688 153.139 79.5956 152.13L81.58 152.38ZM88.9688 164.172C85.3697 161.675 81.2564 156.805 79.6537 152.612L81.5219 151.898C82.9611 155.663 86.7918 160.227 90.109 162.529L88.9688 164.172ZM109.252 167.115C108.368 168.389 106.839 168.939 105.233 169.107C103.604 169.278 101.696 169.082 99.763 168.665C95.9014 167.832 91.6932 166.062 88.9688 164.172L90.109 162.529C92.5864 164.248 96.542 165.924 100.185 166.71C102.005 167.102 103.684 167.259 105.024 167.118C106.388 166.975 107.211 166.549 107.609 165.975L109.252 167.115ZM99.3948 149.146C102.119 151.036 105.25 154.358 107.382 157.684C108.449 159.348 109.301 161.067 109.711 162.653C110.116 164.216 110.136 165.841 109.252 167.115L107.609 165.975C108.007 165.401 108.119 164.482 107.775 163.154C107.437 161.849 106.703 160.331 105.698 158.763C103.687 155.626 100.732 152.508 98.2547 150.789L99.3948 149.146ZM80.8859 145.498C81.9974 144.775 83.4488 144.494 84.9661 144.468C86.5008 144.442 88.2072 144.677 89.9189 145.083C93.3334 145.893 96.9134 147.424 99.3949 149.146L98.2547 150.789C96.0107 149.232 92.6699 147.792 89.457 147.029C87.855 146.649 86.3211 146.446 84.9998 146.468C83.6612 146.491 82.6409 146.743 81.9764 147.175L80.8859 145.498ZM91.6601 113.546C87.7374 122.309 84.4638 133.68 82.4186 146.494L80.4436 146.179C82.51 133.232 85.8253 121.685 89.8347 112.729L91.6601 113.546ZM90.0531 107.586C92.0289 108.903 92.5858 111.478 91.6601 113.546L89.8347 112.729C90.4068 111.451 90.0183 109.967 88.9439 109.251L90.0531 107.586ZM83.62 109.476C84.7606 107.046 87.7371 106.043 90.0531 107.586L88.9439 109.251C87.7265 108.439 86.0938 108.912 85.4306 110.326L83.62 109.476ZM76.8324 128.879C78.7571 121.497 81.0638 114.923 83.62 109.476L85.4306 110.326C82.9374 115.639 80.6687 122.093 78.7677 129.384L76.8324 128.879ZM59.3038 127.55C62.0759 126.576 65.9363 126.006 69.5085 126.039C71.3 126.055 73.0528 126.224 74.5846 126.585C76.0988 126.942 77.4899 127.508 78.4683 128.387L77.1318 129.875C76.5107 129.317 75.4918 128.854 74.1257 128.532C72.7773 128.214 71.1794 128.054 69.49 128.039C66.1004 128.007 62.4779 128.555 59.9669 129.437L59.3038 127.55ZM45.7235 142.015C45.2184 140.578 45.5998 139.046 46.3421 137.656C47.0915 136.253 48.2828 134.848 49.6694 133.553C52.4399 130.966 56.1717 128.651 59.3038 127.55L59.9669 129.437C57.1259 130.435 53.6277 132.593 51.0345 135.015C49.7393 136.225 48.7152 137.458 48.1062 138.599C47.4901 139.752 47.3699 140.667 47.6104 141.352L45.7235 142.015ZM65.3674 144.805C62.2352 145.906 57.8754 146.434 54.0953 146.148C52.2034 146.005 50.3951 145.654 48.9329 145.029C47.4844 144.409 46.2286 143.452 45.7235 142.015L47.6104 141.352C47.851 142.037 48.5175 142.676 49.7197 143.19C50.908 143.699 52.4788 144.02 54.246 144.154C57.7842 144.421 61.8632 143.917 64.7043 142.918L65.3674 144.805ZM76.7686 137.299C73.7516 140.491 69.0193 143.522 65.3674 144.805L64.7043 142.918C68.0485 141.743 72.5117 138.891 75.3152 135.925L76.7686 137.299ZM71.8702 157.455C72.5872 150.059 73.6781 142.983 75.0634 136.406L77.0204 136.818C75.6509 143.32 74.571 150.323 73.8609 157.648L71.8702 157.455ZM71.6864 159.452C71.7442 158.789 71.8055 158.123 71.8702 157.455L73.8609 157.648C73.7967 158.309 73.7361 158.969 73.6789 159.626L71.6864 159.452ZM59.9342 161.309C61.6501 160.19 64.1423 159.172 66.5449 158.597C67.7514 158.308 68.9665 158.123 70.0765 158.101C71.1699 158.08 72.2486 158.215 73.1213 158.641L72.2439 160.438C71.7771 160.21 71.061 160.082 70.1156 160.101C69.1869 160.119 68.1193 160.276 67.0105 160.542C64.7823 161.075 62.513 162.015 61.0269 162.984L59.9342 161.309ZM53.1043 173.68C52.4616 172.695 52.4824 171.502 52.7626 170.407C53.0466 169.297 53.6343 168.126 54.3629 167.013C55.8182 164.789 57.9723 162.589 59.9342 161.309L61.0269 162.984C59.3235 164.095 57.3589 166.087 56.0364 168.108C55.3762 169.117 54.9103 170.081 54.7002 170.902C54.4864 171.738 54.5727 172.27 54.7794 172.587L53.1043 173.68ZM67.1785 172.414C65.2166 173.694 62.3352 174.779 59.7135 175.215C58.4008 175.433 57.0923 175.499 55.9624 175.312C54.8473 175.127 53.7469 174.665 53.1043 173.68L54.7794 172.587C54.9861 172.904 55.4385 173.198 56.2894 173.339C57.1254 173.477 58.1962 173.439 59.3856 173.242C61.768 172.846 64.3823 171.85 66.0858 170.739L67.1785 172.414ZM73.0641 166.422C71.5016 168.764 69.1828 171.107 67.1785 172.414L66.0858 170.739C67.8346 169.598 69.9676 167.459 71.4003 165.312L73.0641 166.422ZM79.588 220.356C76.3574 215.382 73.9502 207.72 72.5072 198.371C71.0607 188.998 70.57 177.842 71.2337 165.812L73.2307 165.922C72.5733 177.838 73.0619 188.853 74.4838 198.066C75.9094 207.302 78.2599 214.639 81.2653 219.267L79.588 220.356ZM91.4531 220.812H80.4266V218.812H91.4531V220.812Z" fill="black" mask="url(#path-70-inside-4_1230_17545)"/>
<path d="M82.4292 79.7764L83.1908 80.7505L81.9662 80.5796C79.2743 80.2041 76.5879 80.1958 74.1419 80.5939C69.0926 81.4157 65.435 83.9081 63.2172 87.3085C60.995 90.7156 60.1938 95.0729 60.9396 99.6549C61.6853 104.237 63.8269 108.115 67.0147 110.642C70.1963 113.164 74.4555 114.367 79.5048 113.546C82.5943 113.043 85.84 111.804 88.8179 110.056L89.6826 109.549L89.5677 110.545C89.2139 113.611 89.3726 116.669 90.0779 119.347C91.3119 124.034 94.1312 127.227 97.7713 128.958C101.422 130.695 105.934 130.977 110.556 129.76C115.177 128.544 118.965 126.075 121.287 122.766C123.603 119.467 124.484 115.3 123.25 110.613C122.554 107.968 121.211 105.262 119.427 102.793L118.822 101.957L119.853 102.001C123.128 102.141 126.376 101.751 129.188 100.822C134.031 99.223 137.227 96.1448 138.853 92.3617C140.484 88.5699 140.553 84.0293 139.056 79.4961C137.559 74.9629 134.799 71.3568 131.232 69.2816C127.672 67.2111 123.271 66.6418 118.428 68.2411C116.32 68.9373 114.194 70.0231 112.187 71.3939L111.361 71.9579L111.405 70.9588C111.545 67.8038 111.16 64.6801 110.243 61.9899C108.679 57.3982 105.681 54.3989 101.996 52.9075C98.3022 51.4121 93.8794 51.4179 89.4651 52.9218C85.0508 54.4256 81.5444 57.1211 79.5315 60.5608C77.524 63.9913 76.9801 68.1974 78.5444 72.7891C79.3576 75.1759 80.7104 77.5783 82.4292 79.7764Z" fill="#F0E7D5" stroke="black"/>
<circle cx="9.02693" cy="9.02693" r="8.52693" transform="matrix(-0.905242 0.424896 0.424896 0.905242 104.744 79.3823)" fill="#AC590C" stroke="black"/>
<path d="M15.1611 193.32C23.9592 190.377 33.1907 188.94 42.4669 189.07C51.7431 188.94 60.9746 190.377 69.7727 193.32C71.2549 193.84 72.5786 194.733 73.6167 195.912V169.456C73.6167 161.194 70.3346 153.27 64.4923 147.428C58.6501 141.586 50.7263 138.303 42.4641 138.303C34.2019 138.303 26.2781 141.586 20.4359 147.428C14.5937 153.27 11.3115 161.194 11.3115 169.456V195.912C12.3515 194.733 13.677 193.84 15.1611 193.32Z" fill="white"/>
<path d="M15.1611 193.32C23.9592 190.377 33.1907 188.94 42.4669 189.07C51.7431 188.94 60.9746 190.377 69.7727 193.32C71.2549 193.84 72.5786 194.733 73.6167 195.912V169.456C73.6167 161.194 70.3346 153.27 64.4923 147.428C58.6501 141.586 50.7263 138.303 42.4641 138.303C34.2019 138.303 26.2781 141.586 20.4359 147.428C14.5937 153.27 11.3115 161.194 11.3115 169.456V195.912C12.3515 194.733 13.677 193.84 15.1611 193.32V193.32Z" stroke="#1D1D1D" stroke-linecap="round" stroke-linejoin="round"/>
<path d="M2.08691 189.067C2.08691 192.127 3.30248 195.061 5.46619 197.225C7.62991 199.389 10.5645 200.604 13.6245 200.604C16.6845 200.604 19.6191 199.389 21.7828 197.225C23.9465 195.061 25.1621 192.127 25.1621 189.067C25.1621 186.007 23.9465 183.072 21.7828 180.908C19.6191 178.745 16.6845 177.529 13.6245 177.529C10.5645 177.529 7.62991 178.745 5.46619 180.908C3.30248 183.072 2.08691 186.007 2.08691 189.067Z" fill="white"/>
<path d="M2.08691 189.067C2.08691 192.127 3.30248 195.061 5.46619 197.225C7.62991 199.389 10.5645 200.604 13.6245 200.604C16.6845 200.604 19.6191 199.389 21.7828 197.225C23.9465 195.061 25.1621 192.127 25.1621 189.067C25.1621 186.007 23.9465 183.072 21.7828 180.908C19.6191 178.745 16.6845 177.529 13.6245 177.529C10.5645 177.529 7.62991 178.745 5.46619 180.908C3.30248 183.072 2.08691 186.007 2.08691 189.067V189.067Z" stroke="#1D1D1D" stroke-linecap="round" stroke-linejoin="round"/>
<path d="M59.7705 189.067C59.7705 192.127 60.9861 195.061 63.1498 197.225C65.3135 199.389 68.2481 200.604 71.3081 200.604C74.368 200.604 77.3027 199.389 79.4664 197.225C81.6301 195.061 82.8457 192.127 82.8457 189.067C82.8457 186.007 81.6301 183.072 79.4664 180.908C77.3027 178.745 74.368 177.529 71.3081 177.529C68.2481 177.529 65.3135 178.745 63.1498 180.908C60.9861 183.072 59.7705 186.007 59.7705 189.067Z" fill="white"/>
<path d="M59.7705 189.067C59.7705 192.127 60.9861 195.061 63.1498 197.225C65.3135 199.389 68.2481 200.604 71.3081 200.604C74.368 200.604 77.3027 199.389 79.4664 197.225C81.6301 195.061 82.8457 192.127 82.8457 189.067C82.8457 186.007 81.6301 183.072 79.4664 180.908C77.3027 178.745 74.368 177.529 71.3081 177.529C68.2481 177.529 65.3135 178.745 63.1498 180.908C60.9861 183.072 59.7705 186.007 59.7705 189.067V189.067Z" stroke="#1D1D1D" stroke-linecap="round" stroke-linejoin="round"/>
<path d="M15.9336 214.451H25.1639V219.066H15.9336V214.451Z" fill="#226752" stroke="#1D1D1D" stroke-linecap="round" stroke-linejoin="round"/>
<path d="M59.7705 214.451H69.0009V219.066H59.7705V214.451Z" fill="#226752" stroke="#1D1D1D" stroke-linecap="round" stroke-linejoin="round"/>
<path d="M48.2349 168.309C48.2349 169.45 47.8965 170.566 47.2626 171.514C46.6288 172.463 45.7278 173.202 44.6737 173.639C43.6196 174.076 42.4597 174.19 41.3406 173.967C40.2216 173.745 39.1937 173.195 38.3869 172.388C37.5801 171.582 37.0307 170.554 36.8081 169.435C36.5855 168.316 36.6998 167.156 37.1364 166.102C37.573 165.048 38.3124 164.147 39.2611 163.513C40.2098 162.879 41.3251 162.541 42.4661 162.541C43.996 162.541 45.4634 163.148 46.5452 164.23C47.6271 165.312 48.2349 166.779 48.2349 168.309Z" fill="#226752" stroke="#1D1D1D" stroke-linecap="round" stroke-linejoin="round"/>
<path d="M75.9271 202.022C75.9304 200.112 75.3401 198.249 74.2379 196.689C73.1357 195.129 71.5759 193.95 69.7744 193.315C60.9764 190.372 51.7448 188.936 42.4686 189.065C33.192 188.935 23.9599 190.372 15.1614 193.315C13.3599 193.95 11.8002 195.129 10.698 196.689C9.59573 198.249 9.00546 200.112 9.0088 202.022V207.526C9.0088 208.435 9.18788 209.335 9.53582 210.175C9.88375 211.015 10.3937 211.778 11.0366 212.421C11.6795 213.063 12.4427 213.573 13.2827 213.921C14.1226 214.269 15.0228 214.448 15.9319 214.447H69.0026C69.9117 214.448 70.8119 214.269 71.6518 213.921C72.4918 213.573 73.255 213.063 73.8979 212.421C74.5407 211.778 75.0507 211.015 75.3987 210.175C75.7466 209.335 75.9257 208.435 75.9257 207.526L75.9271 202.022Z" fill="white"/>
<path d="M46.5332 164.222L50.5302 160.225" stroke="#1D1D1D" stroke-linecap="round" stroke-linejoin="round"/>
<path d="M34.3799 160.225L38.3769 164.222" stroke="#1D1D1D" stroke-linecap="round" stroke-linejoin="round"/>
<path d="M34.3799 176.389L38.3769 172.392" stroke="#1D1D1D" stroke-linecap="round" stroke-linejoin="round"/>
<path d="M46.5332 172.392L50.5302 176.389" stroke="#1D1D1D" stroke-linecap="round" stroke-linejoin="round"/>
<path d="M75.9271 202.022C75.9304 200.112 75.3401 198.249 74.2379 196.689C73.1357 195.129 71.5759 193.95 69.7744 193.315C60.9764 190.372 51.7448 188.936 42.4686 189.065C33.192 188.935 23.9599 190.372 15.1614 193.315C13.3599 193.95 11.8002 195.129 10.698 196.689C9.59573 198.249 9.00546 200.112 9.0088 202.022V207.526C9.0088 208.435 9.18788 209.335 9.53582 210.175C9.88375 211.015 10.3937 211.778 11.0366 212.421C11.6795 213.063 12.4427 213.573 13.2827 213.921C14.1226 214.269 15.0228 214.448 15.9319 214.447H69.0026C69.9117 214.448 70.8119 214.269 71.6518 213.921C72.4918 213.573 73.255 213.063 73.8979 212.421C74.5407 211.778 75.0507 211.015 75.3987 210.175C75.7466 209.335 75.9257 208.435 75.9257 207.526L75.9271 202.022Z" stroke="#1D1D1D" stroke-linecap="round" stroke-linejoin="round"/>
</svg>
