<svg width="46" height="48" viewBox="0 0 46 48" fill="none" xmlns="http://www.w3.org/2000/svg">
<path d="M26 31.5V41.036C26 41.7537 25.8586 42.4644 25.5839 43.1274C25.3092 43.7905 24.9065 44.3929 24.3989 44.9003C23.8913 45.4077 23.2888 45.8102 22.6256 46.0847C21.9624 46.3591 21.2517 46.5003 20.534 46.5H7.466C6.74829 46.5003 6.03756 46.3591 5.3744 46.0847C4.71125 45.8102 4.10867 45.4077 3.60108 44.9003C3.09348 44.3929 2.69083 43.7905 2.41611 43.1274C2.1414 42.4644 2 41.7537 2 41.036V9.966C2 8.51633 2.57588 7.12603 3.60095 6.10095C4.62603 5.07588 6.01633 4.5 7.466 4.5H17" stroke="#276164" stroke-width="3" stroke-linecap="round" stroke-linejoin="round"/>
<path d="M2 37.5H26" stroke="#276164" stroke-width="3" stroke-linecap="round" stroke-linejoin="round"/>
<path d="M36.5 10.5H44V1.5" stroke="#276164" stroke-width="3" stroke-linecap="round" stroke-linejoin="round"/>
<path d="M43.622 10.5C42.9465 7.88204 41.4066 5.56893 39.252 3.93558C37.0974 2.30222 34.4544 1.44435 31.7512 1.50099C29.0481 1.55763 26.4433 2.52547 24.3591 4.24764C22.2748 5.96982 20.8332 8.34539 20.2679 10.9894C19.7026 13.6333 20.0467 16.3907 21.2445 18.8146C22.4423 21.2385 24.4236 23.1869 26.8672 24.344C29.3108 25.501 32.0736 25.799 34.7077 25.1895C37.3419 24.58 39.693 23.0988 41.38 20.986" stroke="#276164" stroke-width="3" stroke-linecap="round" stroke-linejoin="round"/>
</svg>
