<svg width="48" height="48" viewBox="0 0 48 48" fill="none" xmlns="http://www.w3.org/2000/svg">
<path d="M16.492 40.5H4.492C3.69635 40.5 2.93329 40.1839 2.37068 39.6213C1.80807 39.0587 1.492 38.2956 1.492 37.5V4.5C1.492 3.70435 1.80807 2.94129 2.37068 2.37868C2.93329 1.81607 3.69635 1.5 4.492 1.5H34.492C35.2877 1.5 36.0507 1.81607 36.6133 2.37868C37.1759 2.94129 37.492 3.70435 37.492 4.5V18M16.492 10.5H28.492M10.492 19.5H28.492M10.492 28.5H25.492M45.254 29.74L30 45L22.5 46.5L24 39L39.262 23.74C39.6545 23.3467 40.1207 23.0348 40.634 22.8219C41.1472 22.609 41.6974 22.4995 42.253 22.4995C42.8086 22.4995 43.3588 22.609 43.872 22.8219C44.3853 23.0348 44.8515 23.3467 45.244 23.74L45.262 23.756C46.0543 24.5507 46.4986 25.6275 46.4971 26.7497C46.4956 27.8718 46.0484 28.9474 45.254 29.74Z" stroke="#276164" stroke-width="3" stroke-linecap="round" stroke-linejoin="round"/>
</svg>
