<svg width="242" height="165" viewBox="0 0 242 165" fill="none" xmlns="http://www.w3.org/2000/svg">
<g id="Group 985565">
<path id="Polygon 9" d="M236.371 77.6193V96.5268V163.873H19.4883V77.6193C19.4883 77.4562 19.5678 77.3033 19.7015 77.2097L19.4146 76.8002L19.7015 77.2097L127.643 1.61282C127.815 1.49222 128.044 1.49222 128.216 1.61282L236.158 77.2097C236.291 77.3033 236.371 77.4561 236.371 77.6193Z" fill="#CBD5CA" stroke="black" stroke-linecap="round"/>
<g id="Rectangle 1908" style="mix-blend-mode:multiply" opacity="0.5">
<rect x="167.283" y="77.3806" width="69.3216" height="86.4326" fill="#CBD5CA"/>
</g>
<rect id="Rectangle 1909" opacity="0.3" x="20.2627" y="77.5037" width="73.4149" height="85.468" fill="white"/>
<path id="Polygon 10" d="M128.017 1.03882L19.4277 77.3803H236.606L128.017 1.03882Z" fill="#226752"/>
<g id="Rectangle 1906" style="mix-blend-mode:multiply" opacity="0.5">
<rect x="18.9883" y="77.3806" width="217.617" height="86.4326" fill="#CBD5CA"/>
</g>
<g id="Group 985557">
<g id="Union">
<mask id="path-6-inside-1_990_8369" fill="white">
<path fill-rule="evenodd" clip-rule="evenodd" d="M145.031 76.2051C140.691 82.7644 137.306 91.0871 136.121 97.9474L129.727 119.718V82.413L135.603 68.4877H118.885L124.73 82.3415V119.704L118.344 97.9607C117.159 91.1004 113.774 82.7777 109.435 76.2185C101.49 64.2102 93.3569 62.66 87.2581 66.6947C81.1593 70.7294 79.4047 78.8213 87.349 90.8296C91.4567 97.0386 97.3531 103.079 102.933 106.907L124.73 124.806V164.079H129.727V124.799L151.532 106.894C157.112 103.066 163.009 97.0252 167.116 90.8162C175.061 78.8079 173.306 70.7161 167.207 66.6814C161.108 62.6466 152.975 64.1968 145.031 76.2051Z"/>
</mask>
<path fill-rule="evenodd" clip-rule="evenodd" d="M145.031 76.2051C140.691 82.7644 137.306 91.0871 136.121 97.9474L129.727 119.718V82.413L135.603 68.4877H118.885L124.73 82.3415V119.704L118.344 97.9607C117.159 91.1004 113.774 82.7777 109.435 76.2185C101.49 64.2102 93.3569 62.66 87.2581 66.6947C81.1593 70.7294 79.4047 78.8213 87.349 90.8296C91.4567 97.0386 97.3531 103.079 102.933 106.907L124.73 124.806V164.079H129.727V124.799L151.532 106.894C157.112 103.066 163.009 97.0252 167.116 90.8162C175.061 78.8079 173.306 70.7161 167.207 66.6814C161.108 62.6466 152.975 64.1968 145.031 76.2051Z" fill="#CBD5CA"/>
<path d="M136.121 97.9474L137.081 98.2291L137.097 98.1741L137.106 98.1176L136.121 97.9474ZM145.031 76.2051L144.197 75.6534V75.6534L145.031 76.2051ZM129.727 119.718H128.727L130.687 120L129.727 119.718ZM129.727 82.413L128.806 82.0242L128.727 82.2106V82.413H129.727ZM135.603 68.4877L136.524 68.8764L137.11 67.4877H135.603V68.4877ZM118.885 68.4877V67.4877H117.377L117.963 68.8764L118.885 68.4877ZM124.73 82.3415H125.73V82.1391L125.651 81.9527L124.73 82.3415ZM124.73 119.704L123.77 119.985L125.73 119.704H124.73ZM118.344 97.9607L117.359 98.1309L117.369 98.1874L117.385 98.2425L118.344 97.9607ZM109.435 76.2185L108.601 76.7702L109.435 76.2185ZM87.2581 66.6947L87.8098 67.5287L87.2581 66.6947ZM87.349 90.8296L86.515 91.3813L87.349 90.8296ZM102.933 106.907L103.568 106.135L103.535 106.107L103.499 106.083L102.933 106.907ZM124.73 124.806H125.73V124.333L125.364 124.033L124.73 124.806ZM124.73 164.079H123.73V165.079H124.73V164.079ZM129.727 164.079V165.079H130.727V164.079H129.727ZM129.727 124.799L129.093 124.027L128.727 124.327V124.799H129.727ZM151.532 106.894L150.966 106.069L150.931 106.094L150.898 106.121L151.532 106.894ZM167.116 90.8162L166.282 90.2645L167.116 90.8162ZM167.207 66.6814L166.655 67.5154V67.5154L167.207 66.6814ZM137.106 98.1176C138.266 91.4073 141.594 83.2129 145.865 76.7569L144.197 75.6534C139.789 82.3158 136.347 90.7669 135.136 97.7772L137.106 98.1176ZM130.687 120L137.081 98.2291L135.162 97.6656L128.768 119.436L130.687 120ZM128.727 82.413V119.718H130.727V82.413H128.727ZM130.649 82.8017L136.524 68.8764L134.681 68.099L128.806 82.0242L130.649 82.8017ZM135.603 67.4877H118.885V69.4877H135.603V67.4877ZM117.963 68.8764L123.808 82.7302L125.651 81.9527L119.806 68.099L117.963 68.8764ZM125.73 119.704V82.3415H123.73V119.704H125.73ZM117.385 98.2425L123.77 119.985L125.689 119.422L119.304 97.6789L117.385 98.2425ZM108.601 76.7702C112.872 83.2263 116.2 91.4206 117.359 98.1309L119.33 97.7905C118.119 90.7803 114.676 82.3291 110.269 75.6667L108.601 76.7702ZM87.8098 67.5287C90.6154 65.6726 93.8433 65.1127 97.3111 66.3797C100.824 67.6633 104.693 70.8641 108.601 76.7702L110.269 75.6667C106.232 69.5646 102.062 65.9861 97.9975 64.5012C93.8878 62.9997 89.9995 63.682 86.7063 65.8607L87.8098 67.5287ZM88.183 90.2778C84.2757 84.3717 82.8432 79.559 83.0361 75.8236C83.2264 72.1365 85.0043 69.3848 87.8098 67.5287L86.7063 65.8607C83.4132 68.0394 81.2643 71.351 81.0387 75.7205C80.8156 80.0418 82.478 85.2792 86.515 91.3813L88.183 90.2778ZM103.499 106.083C98.0318 102.332 92.2244 96.3866 88.183 90.2778L86.515 91.3813C90.689 97.6906 96.6744 103.826 102.368 107.732L103.499 106.083ZM125.364 124.033L103.568 106.135L102.299 107.68L124.095 125.579L125.364 124.033ZM125.73 164.079V124.806H123.73V164.079H125.73ZM129.727 163.079H124.73V165.079H129.727V163.079ZM128.727 124.799V164.079H130.727V124.799H128.727ZM150.898 106.121L129.093 124.027L130.362 125.572L152.167 107.667L150.898 106.121ZM166.282 90.2645C162.241 96.3732 156.434 102.318 150.966 106.069L152.098 107.719C157.791 103.813 163.776 97.6772 167.95 91.368L166.282 90.2645ZM166.655 67.5154C169.461 69.3715 171.239 72.1231 171.429 75.8103C171.622 79.5456 170.19 84.3583 166.282 90.2645L167.95 91.368C171.987 85.2658 173.65 80.0285 173.427 75.7071C173.201 71.3376 171.052 68.026 167.759 65.8474L166.655 67.5154ZM145.865 76.7569C149.772 70.8507 153.641 67.6499 157.154 66.3664C160.622 65.0994 163.85 65.6593 166.655 67.5154L167.759 65.8474C164.466 63.6687 160.578 62.9863 156.468 64.4878C152.404 65.9727 148.234 69.5512 144.197 75.6534L145.865 76.7569Z" fill="black" mask="url(#path-6-inside-1_990_8369)"/>
</g>
<g id="Union_2">
<mask id="path-8-inside-2_990_8369" fill="white">
<path fill-rule="evenodd" clip-rule="evenodd" d="M124.39 77.0804C117.531 76.9167 106.241 67.0629 99.2492 56.2265C90.7525 43.0573 91.8214 33.4239 97.3477 28.0624C102.874 22.7009 110.765 23.6416 119.262 36.8108C122.426 41.7142 125.227 47.6215 127.212 53.3821C129.197 47.6215 131.999 41.7142 135.163 36.8108C143.659 23.6416 151.55 22.7009 157.077 28.0624C162.603 33.4239 163.672 43.0573 155.175 56.2265C148.249 66.9614 137.105 76.7322 130.228 77.0733C130.091 77.1042 129.948 77.1204 129.801 77.1204H124.785C124.649 77.1204 124.517 77.1067 124.39 77.0804Z"/>
</mask>
<path fill-rule="evenodd" clip-rule="evenodd" d="M124.39 77.0804C117.531 76.9167 106.241 67.0629 99.2492 56.2265C90.7525 43.0573 91.8214 33.4239 97.3477 28.0624C102.874 22.7009 110.765 23.6416 119.262 36.8108C122.426 41.7142 125.227 47.6215 127.212 53.3821C129.197 47.6215 131.999 41.7142 135.163 36.8108C143.659 23.6416 151.55 22.7009 157.077 28.0624C162.603 33.4239 163.672 43.0573 155.175 56.2265C148.249 66.9614 137.105 76.7322 130.228 77.0733C130.091 77.1042 129.948 77.1204 129.801 77.1204H124.785C124.649 77.1204 124.517 77.1067 124.39 77.0804Z" fill="#FAE3C3"/>
<path d="M124.39 77.0804L124.592 76.101L124.504 76.0829L124.414 76.0807L124.39 77.0804ZM99.2492 56.2265L100.089 55.6843L99.2492 56.2265ZM97.3477 28.0624L96.6514 27.3447L97.3477 28.0624ZM119.262 36.8108L118.422 37.3529L119.262 36.8108ZM127.212 53.3821L126.267 53.7079L127.212 56.4514L128.158 53.7079L127.212 53.3821ZM135.163 36.8108L136.003 37.3529L135.163 36.8108ZM157.077 28.0624L157.773 27.3447L157.077 28.0624ZM155.175 56.2265L154.335 55.6843L155.175 56.2265ZM130.228 77.0733L130.179 76.0745L130.093 76.0788L130.01 76.0975L130.228 77.0733ZM124.414 76.0807C122.914 76.0449 121.079 75.4711 119.015 74.3909C116.964 73.3171 114.751 71.7771 112.514 69.8911C108.038 66.1182 103.533 61.0211 100.089 55.6843L98.4089 56.7686C101.957 62.2683 106.593 67.5163 111.225 71.4203C113.541 73.3728 115.874 75.0043 118.087 76.1628C120.288 77.3148 122.437 78.0341 124.366 78.0802L124.414 76.0807ZM100.089 55.6843C95.9059 49.2002 94.1383 43.6785 94.0396 39.1946C93.9413 34.7347 95.4898 31.2582 98.044 28.7802L96.6514 27.3447C93.6793 30.2281 91.9301 34.2491 92.0401 39.2386C92.1494 44.204 94.0958 50.0836 98.4089 56.7686L100.089 55.6843ZM98.044 28.7802C100.592 26.3081 103.571 25.3625 106.882 26.4386C110.286 27.5453 114.223 30.8459 118.422 37.3529L120.102 36.2686C115.804 29.6066 111.547 25.8522 107.5 24.5366C103.359 23.1905 99.6297 24.4552 96.6514 27.3447L98.044 28.7802ZM118.422 37.3529C121.537 42.1818 124.305 48.0152 126.267 53.7079L128.158 53.0563C126.149 47.2278 123.314 41.2465 120.102 36.2686L118.422 37.3529ZM128.158 53.7079C130.12 48.0152 132.887 42.1818 136.003 37.3529L134.322 36.2686C131.111 41.2466 128.275 47.2278 126.267 53.0563L128.158 53.7079ZM136.003 37.3529C140.201 30.8459 144.138 27.5453 147.543 26.4386C150.853 25.3625 153.832 26.3081 156.381 28.7802L157.773 27.3447C154.795 24.4552 151.065 23.1905 146.924 24.5366C142.877 25.8522 138.621 29.6066 134.322 36.2686L136.003 37.3529ZM156.381 28.7802C158.935 31.2582 160.483 34.7347 160.385 39.1946C160.286 43.6785 158.519 49.2002 154.335 55.6843L156.016 56.7686C160.329 50.0836 162.275 44.204 162.385 39.2386C162.494 34.2491 160.745 30.2281 157.773 27.3447L156.381 28.7802ZM154.335 55.6843C150.924 60.9709 146.471 66.0227 142.036 69.785C139.82 71.6656 137.624 73.2096 135.582 74.2995C133.529 75.3955 131.693 75.9994 130.179 76.0745L130.278 78.0721C132.202 77.9766 134.337 77.2313 136.524 76.0638C138.723 74.8903 141.036 73.2567 143.33 71.3101C147.918 67.4181 152.5 62.217 156.016 56.7686L154.335 55.6843ZM130.01 76.0975C129.943 76.1124 129.873 76.1204 129.801 76.1204V78.1204C130.022 78.1204 130.238 78.0959 130.447 78.0491L130.01 76.0975ZM129.801 76.1204H124.785V78.1204H129.801V76.1204ZM124.785 76.1204C124.718 76.1204 124.653 76.1136 124.592 76.101L124.188 78.0599C124.382 78.0997 124.581 78.1204 124.785 78.1204V76.1204Z" fill="black" mask="url(#path-8-inside-2_990_8369)"/>
</g>
<path id="Ellipse 113" d="M149.892 47.854C147.561 55.5273 143.628 63.3908 139.458 68.9215C137.371 71.6885 135.242 73.8491 133.244 75.1161C131.233 76.3912 129.446 76.7062 127.988 75.9949C126.53 75.2836 125.371 73.5318 124.554 70.8771C123.742 68.2394 123.306 64.8277 123.223 61.0025C123.057 53.3565 124.301 44.1813 126.632 36.5081C128.964 28.8327 131.922 24.1838 135.063 21.8448C138.183 19.5216 141.51 19.4557 144.695 21.0095C147.881 22.5633 150.314 25.4386 151.399 29.8131C152.491 34.2175 152.224 40.1787 149.892 47.854Z" fill="#FAE3C3" stroke="black"/>
<path id="Ellipse 114" d="M104.323 47.854C106.655 55.5273 110.588 63.3908 114.758 68.9215C116.844 71.6885 118.973 73.8491 120.971 75.1161C122.982 76.3912 124.769 76.7062 126.227 75.9949C127.686 75.2836 128.844 73.5318 129.661 70.8771C130.473 68.2394 130.909 64.8277 130.992 61.0025C131.159 53.3565 129.915 44.1813 127.583 36.5081C125.251 28.8327 122.294 24.1838 119.152 21.8448C116.032 19.5216 112.705 19.4557 109.52 21.0095C106.335 22.5633 103.902 25.4386 102.817 29.8131C101.724 34.2175 101.991 40.1787 104.323 47.854Z" fill="#FAE3C3" stroke="black"/>
<path id="Ellipse 110" d="M141.818 39.3306C141.818 47.9016 140.122 57.418 137.385 64.7783C136.017 68.4602 134.398 71.575 132.622 73.7597C130.838 75.9535 128.962 77.1335 127.078 77.1335C125.194 77.1335 123.317 75.9535 121.533 73.7597C119.757 71.575 118.139 68.4602 116.77 64.7783C114.034 57.418 112.337 47.9016 112.337 39.3306C112.337 30.7587 114.034 24.8302 116.709 21.0584C119.369 17.3081 123.024 15.6487 127.078 15.6487C131.132 15.6487 134.786 17.3081 137.446 21.0584C140.121 24.8302 141.818 30.7587 141.818 39.3306Z" fill="#FAE3C3" stroke="black"/>
</g>
<g id="Group 985542">
<path id="Vector" d="M137.726 149.574L137.723 149.575C135.825 149.882 134.086 150.379 132.628 151.036V133.801C132.628 128.475 137.223 123.2 145.788 119.239C154.318 115.295 165.922 113.066 178.048 113.066C190.175 113.066 201.779 115.295 210.309 119.239C218.874 123.2 223.468 128.475 223.468 133.801V151.036C222.013 150.379 220.277 149.882 218.382 149.575L218.379 149.574C205.384 147.564 191.75 146.583 178.053 146.671C164.355 146.583 150.721 147.564 137.726 149.574Z" fill="white" stroke="black"/>
<path id="Vector_2" d="M139.094 158.802H146.694L146.061 163.869H139.727L139.094 158.802Z" fill="#226752" stroke="#1D1D1D" stroke-linecap="round" stroke-linejoin="round"/>
<path id="Vector_3" d="M210.033 158.802H217.634L217 163.869H210.667L210.033 158.802Z" fill="#226752" stroke="#1D1D1D" stroke-linecap="round" stroke-linejoin="round"/>
<g id="Group 985538">
<path id="Vector_4" d="M154.444 133.441C154.444 133.974 154.286 134.496 153.99 134.939C153.693 135.383 153.272 135.729 152.779 135.933C152.286 136.137 151.744 136.191 151.22 136.087C150.697 135.982 150.216 135.726 149.839 135.348C149.462 134.971 149.205 134.49 149.101 133.967C148.997 133.444 149.05 132.901 149.254 132.408C149.458 131.915 149.804 131.494 150.248 131.198C150.691 130.901 151.213 130.743 151.747 130.743C152.462 130.743 153.148 131.027 153.654 131.533C154.16 132.039 154.444 132.725 154.444 133.441Z" fill="#226752" stroke="#1D1D1D" stroke-linecap="round" stroke-linejoin="round"/>
<path id="Vector_5" d="M153.647 131.534L155.516 129.665" stroke="#1D1D1D" stroke-linecap="round" stroke-linejoin="round"/>
<path id="Vector_6" d="M147.963 129.665L149.833 131.534" stroke="#1D1D1D" stroke-linecap="round" stroke-linejoin="round"/>
<path id="Vector_7" d="M147.963 137.215L149.833 135.346" stroke="#1D1D1D" stroke-linecap="round" stroke-linejoin="round"/>
<path id="Vector_8" d="M153.647 135.346L155.516 137.215" stroke="#1D1D1D" stroke-linecap="round" stroke-linejoin="round"/>
</g>
<g id="Group 985539">
<path id="Vector_9" d="M206.427 133.441C206.427 133.974 206.269 134.496 205.972 134.939C205.676 135.383 205.254 135.729 204.761 135.933C204.268 136.137 203.726 136.191 203.203 136.087C202.679 135.982 202.199 135.726 201.821 135.348C201.444 134.971 201.187 134.49 201.083 133.967C200.979 133.444 201.032 132.901 201.237 132.408C201.441 131.915 201.787 131.494 202.23 131.198C202.674 130.901 203.195 130.743 203.729 130.743C204.444 130.743 205.131 131.027 205.637 131.533C206.143 132.039 206.427 132.725 206.427 133.441Z" fill="#226752" stroke="#1D1D1D" stroke-linecap="round" stroke-linejoin="round"/>
<path id="Vector_10" d="M205.629 131.534L207.499 129.665" stroke="#1D1D1D" stroke-linecap="round" stroke-linejoin="round"/>
<path id="Vector_11" d="M199.946 129.665L201.815 131.534" stroke="#1D1D1D" stroke-linecap="round" stroke-linejoin="round"/>
<path id="Vector_12" d="M199.946 137.215L201.815 135.346" stroke="#1D1D1D" stroke-linecap="round" stroke-linejoin="round"/>
<path id="Vector_13" d="M205.629 135.346L207.499 137.215" stroke="#1D1D1D" stroke-linecap="round" stroke-linejoin="round"/>
</g>
<g id="Group 985540">
<path id="Vector_14" d="M181.048 129.005C181.048 129.538 180.89 130.06 180.593 130.503C180.297 130.947 179.875 131.293 179.382 131.497C178.89 131.701 178.347 131.755 177.824 131.65C177.3 131.546 176.82 131.289 176.442 130.912C176.065 130.535 175.808 130.054 175.704 129.531C175.6 129.008 175.654 128.465 175.858 127.972C176.062 127.479 176.408 127.058 176.851 126.761C177.295 126.465 177.817 126.307 178.35 126.307C179.066 126.307 179.752 126.591 180.258 127.097C180.764 127.603 181.048 128.289 181.048 129.005Z" fill="#226752" stroke="#1D1D1D" stroke-linecap="round" stroke-linejoin="round"/>
<path id="Vector_15" d="M180.25 127.098L182.12 125.229" stroke="#1D1D1D" stroke-linecap="round" stroke-linejoin="round"/>
<path id="Vector_16" d="M174.567 125.229L176.436 127.098" stroke="#1D1D1D" stroke-linecap="round" stroke-linejoin="round"/>
<path id="Vector_17" d="M174.567 132.778L176.436 130.909" stroke="#1D1D1D" stroke-linecap="round" stroke-linejoin="round"/>
<path id="Vector_18" d="M180.25 130.909L182.12 132.778" stroke="#1D1D1D" stroke-linecap="round" stroke-linejoin="round"/>
</g>
<path id="Vector_19" d="M126.491 148.603C124.743 146.856 123.762 144.486 123.762 142.015C123.762 139.544 124.743 137.174 126.491 135.427C128.238 133.679 130.608 132.698 133.079 132.698C135.55 132.698 137.92 133.679 139.667 135.427C141.415 137.174 142.396 139.544 142.396 142.015C142.396 144.486 141.415 146.856 139.667 148.603C137.92 150.351 135.55 151.332 133.079 151.332C130.608 151.332 128.238 150.351 126.491 148.603Z" fill="white" stroke="black"/>
<path id="Vector_20" d="M215.796 148.603C214.049 146.856 213.067 144.486 213.067 142.015C213.067 139.544 214.049 137.174 215.796 135.427C217.544 133.679 219.914 132.698 222.385 132.698C224.856 132.698 227.226 133.679 228.973 135.427C230.72 137.174 231.702 139.544 231.702 142.015C231.702 144.486 230.72 146.856 228.973 148.603C227.226 150.351 224.856 151.332 222.385 151.332C219.914 151.332 217.544 150.351 215.796 148.603Z" fill="white" stroke="black"/>
<path id="Vector_21" d="M223.968 150.758C223.973 149.423 223.163 148.122 221.65 147.032C220.137 145.942 217.997 145.119 215.524 144.676C203.45 142.62 190.78 141.617 178.049 141.707C165.318 141.617 152.648 142.62 140.572 144.676C138.1 145.119 135.959 145.942 134.447 147.032C132.934 148.122 132.124 149.423 132.128 150.758V154.601C132.128 155.236 132.374 155.865 132.852 156.452C133.329 157.038 134.029 157.571 134.911 158.02C135.794 158.469 136.841 158.825 137.994 159.068C139.147 159.311 140.382 159.436 141.63 159.436H214.465C215.713 159.436 216.948 159.311 218.101 159.068C219.254 158.825 220.301 158.469 221.184 158.02C222.066 157.571 222.766 157.038 223.243 156.452C223.721 155.865 223.967 155.236 223.967 154.601L223.968 150.758Z" fill="white" stroke="#1D1D1D" stroke-linecap="round" stroke-linejoin="round"/>
</g>
<g id="Group 985563">
<path id="Vector_22" d="M109.12 127.05C109.12 138.073 104.157 147.012 98.0331 147.012C91.9088 147.012 86.9424 138.073 86.9424 127.05C86.9424 116.026 98.0331 107.09 98.0331 107.09C98.0331 107.09 109.12 116.033 109.12 127.05Z" fill="#226752" stroke="#1D1D1D" stroke-linecap="round" stroke-linejoin="round"/>
<path id="Vector_23" d="M115.143 164.127H80.9267L76.2649 150.145C76.1462 149.788 76.114 149.407 76.171 149.035C76.228 148.663 76.3726 148.31 76.5929 148.005C76.8131 147.699 77.1028 147.451 77.4379 147.28C77.773 147.108 78.1441 147.019 78.5205 147.019H117.549C117.925 147.019 118.296 147.108 118.631 147.28C118.967 147.451 119.256 147.699 119.476 148.005C119.697 148.31 119.841 148.663 119.898 149.035C119.955 149.407 119.923 149.788 119.804 150.145L115.143 164.127Z" fill="white" stroke="#1D1D1D" stroke-linecap="round" stroke-linejoin="round"/>
<path id="Vector_24" d="M98.0367 147.018L83.6463 113.458C82.8196 111.527 81.5044 111.544 80.7247 113.495L77.9035 120.523C77.0684 122.609 76.6525 124.839 76.6795 127.086C76.7064 129.333 77.1756 131.552 78.0604 133.618C78.9451 135.683 80.2281 137.554 81.836 139.123C83.4438 140.693 85.3451 141.93 87.4313 142.765L98.0367 147.018Z" fill="#226752" stroke="#1D1D1D" stroke-linecap="round" stroke-linejoin="round"/>
<path id="Vector_25" d="M98.0386 147.018L112.409 113.458C113.236 111.527 114.551 111.544 115.334 113.495L118.152 120.523C118.989 122.609 119.408 124.839 119.383 127.086C119.359 129.333 118.892 131.554 118.009 133.621C117.126 135.687 115.844 137.56 114.238 139.131C112.631 140.702 110.73 141.942 108.644 142.778L98.0386 147.018Z" fill="#226752" stroke="#1D1D1D" stroke-linecap="round" stroke-linejoin="round"/>
</g>
<g id="Group">
<path id="Vector_26" d="M59.7665 152.251H31.5069C29.9776 152.251 28.511 151.644 27.4296 150.562C26.3482 149.481 25.7407 148.014 25.7407 146.485C25.7407 144.956 26.3482 143.489 27.4296 142.408C28.511 141.326 29.9776 140.719 31.5069 140.719H59.7665V152.251Z" fill="#CBD5CA"/>
<path id="Vector_27" d="M59.7665 152.251H31.5069C29.9776 152.251 28.511 151.644 27.4296 150.562C26.3482 149.481 25.7407 148.014 25.7407 146.485C25.7407 144.956 26.3482 143.489 27.4296 142.408C28.511 141.326 29.9776 140.719 31.5069 140.719H59.7665V152.251Z" stroke="#1D1D1D" stroke-linecap="round" stroke-linejoin="round"/>
<path id="Vector_28" d="M39.6309 152.254H35.8429C34.3136 152.254 32.8469 151.647 31.7655 150.565C30.6842 149.484 30.0767 148.017 30.0767 146.488C30.0767 144.959 30.6842 143.492 31.7655 142.411C32.8469 141.329 34.3136 140.722 35.8429 140.722H39.6309C38.1016 140.722 36.6349 141.329 35.5536 142.411C34.4722 143.492 33.8647 144.959 33.8647 146.488C33.8647 148.017 34.4722 149.484 35.5536 150.565C36.6349 151.647 38.1016 152.254 39.6309 152.254Z" fill="#226752" stroke="#1D1D1D" stroke-linecap="round" stroke-linejoin="round"/>
<path id="Vector_29" d="M52.9024 143.095C52.0532 143.095 51.2387 143.432 50.6382 144.033C50.0377 144.633 49.7004 145.447 49.7004 146.297C49.7004 147.146 50.0377 147.96 50.6382 148.561C51.2387 149.161 52.0532 149.499 52.9024 149.499H81.162C81.5018 149.499 81.8276 149.634 82.0678 149.874C82.3081 150.114 82.4431 150.44 82.4431 150.78C82.4431 151.12 82.3081 151.445 82.0678 151.686C81.8276 151.926 81.5018 152.061 81.162 152.061H52.9024C51.3731 152.061 49.9065 151.453 48.8251 150.372C47.7437 149.291 47.1362 147.824 47.1362 146.295C47.1362 144.765 47.7437 143.299 48.8251 142.217C49.9065 141.136 51.3731 140.528 52.9024 140.528H81.162C81.5018 140.528 81.8276 140.663 82.0678 140.904C82.3081 141.144 82.4431 141.47 82.4431 141.809C82.4431 142.149 82.3081 142.475 82.0678 142.715C81.8276 142.956 81.5018 143.091 81.162 143.091L52.9024 143.095Z" fill="white"/>
<path id="Vector_30" d="M52.9024 143.095C52.0532 143.095 51.2387 143.432 50.6382 144.033C50.0377 144.633 49.7004 145.447 49.7004 146.297C49.7004 147.146 50.0377 147.96 50.6382 148.561C51.2387 149.161 52.0532 149.499 52.9024 149.499H81.162C81.5018 149.499 81.8276 149.634 82.0678 149.874C82.3081 150.114 82.4431 150.44 82.4431 150.78C82.4431 151.12 82.3081 151.445 82.0678 151.686C81.8276 151.926 81.5018 152.061 81.162 152.061H52.9024C51.3731 152.061 49.9065 151.453 48.8251 150.372C47.7437 149.291 47.1362 147.824 47.1362 146.295C47.1362 144.765 47.7437 143.299 48.8251 142.217C49.9065 141.136 51.3731 140.528 52.9024 140.528H81.162C81.5018 140.528 81.8276 140.663 82.0678 140.904C82.3081 141.144 82.4431 141.47 82.4431 141.809C82.4431 142.149 82.3081 142.475 82.0678 142.715C81.8276 142.956 81.5018 143.091 81.162 143.091L52.9024 143.095Z" stroke="#1D1D1D" stroke-linecap="round" stroke-linejoin="round"/>
<path id="Vector_31" d="M81.1643 149.506V143.098H52.9047C52.0555 143.098 51.241 143.435 50.6405 144.036C50.04 144.636 49.7026 145.451 49.7026 146.3C49.7026 147.149 50.04 147.964 50.6405 148.564C51.241 149.165 52.0555 149.502 52.9047 149.502L81.1643 149.506Z" fill="#E1E1DD" stroke="#1D1D1D" stroke-linecap="round" stroke-linejoin="round"/>
<path id="Vector_32" d="M68.6113 163.618H40.3517C38.8224 163.618 37.3557 163.011 36.2743 161.93C35.193 160.848 34.5854 159.382 34.5854 157.852C34.5854 156.323 35.193 154.856 36.2743 153.775C37.3557 152.694 38.8224 152.086 40.3517 152.086H68.6113V163.618Z" fill="#226752"/>
<path id="Vector_33" d="M68.6113 163.618H40.3517C38.8224 163.618 37.3557 163.011 36.2743 161.93C35.193 160.848 34.5854 159.382 34.5854 157.852C34.5854 156.323 35.193 154.856 36.2743 153.775C37.3557 152.694 38.8224 152.086 40.3517 152.086H68.6113V163.618Z" stroke="#1D1D1D" stroke-linecap="round" stroke-linejoin="round"/>
<path id="Vector_34" d="M48.4737 163.618H44.6847C43.1554 163.618 41.6887 163.011 40.6073 161.93C39.526 160.848 38.9185 159.382 38.9185 157.852C38.9185 156.323 39.526 154.856 40.6073 153.775C41.6887 152.694 43.1554 152.086 44.6847 152.086H48.4737C46.9444 152.086 45.4778 152.694 44.3964 153.775C43.315 154.856 42.7075 156.323 42.7075 157.852C42.7075 159.382 43.315 160.848 44.3964 161.93C45.4778 163.011 46.9444 163.618 48.4737 163.618Z" fill="white" stroke="#1D1D1D" stroke-linecap="round" stroke-linejoin="round"/>
<path id="Vector_35" d="M60.4786 154.623C59.6294 154.623 58.8149 154.96 58.2144 155.561C57.6139 156.161 57.2765 156.976 57.2765 157.825C57.2765 158.674 57.6139 159.489 58.2144 160.089C58.8149 160.69 59.6294 161.027 60.4786 161.027H88.7382C89.0779 161.027 89.4038 161.162 89.644 161.402C89.8843 161.642 90.0192 161.968 90.0192 162.308C90.0192 162.648 89.8843 162.974 89.644 163.214C89.4038 163.454 89.0779 163.589 88.7382 163.589H60.4786C58.9493 163.589 57.4827 162.982 56.4013 161.9C55.3199 160.819 54.7124 159.352 54.7124 157.823C54.7124 156.294 55.3199 154.827 56.4013 153.746C57.4827 152.664 58.9493 152.057 60.4786 152.057H88.7382C89.0779 152.057 89.4038 152.192 89.644 152.432C89.8843 152.672 90.0192 152.998 90.0192 153.338C90.0192 153.677 89.8843 154.003 89.644 154.244C89.4038 154.484 89.0779 154.619 88.7382 154.619L60.4786 154.623Z" fill="#226752"/>
<path id="Vector_36" d="M60.4786 154.623C59.6294 154.623 58.8149 154.96 58.2144 155.561C57.6139 156.161 57.2765 156.976 57.2765 157.825C57.2765 158.674 57.6139 159.489 58.2144 160.089C58.8149 160.69 59.6294 161.027 60.4786 161.027H88.7382C89.0779 161.027 89.4038 161.162 89.644 161.402C89.8843 161.642 90.0192 161.968 90.0192 162.308C90.0192 162.648 89.8843 162.974 89.644 163.214C89.4038 163.454 89.0779 163.589 88.7382 163.589H60.4786C58.9493 163.589 57.4827 162.982 56.4013 161.9C55.3199 160.819 54.7124 159.352 54.7124 157.823C54.7124 156.294 55.3199 154.827 56.4013 153.746C57.4827 152.664 58.9493 152.057 60.4786 152.057H88.7382C89.0779 152.057 89.4038 152.192 89.644 152.432C89.8843 152.672 90.0192 152.998 90.0192 153.338C90.0192 153.677 89.8843 154.003 89.644 154.244C89.4038 154.484 89.0779 154.619 88.7382 154.619L60.4786 154.623Z" stroke="#1D1D1D" stroke-linecap="round" stroke-linejoin="round"/>
<path id="Vector_37" d="M88.7405 161.03V154.626H60.4809C59.6316 154.626 58.8172 154.963 58.2167 155.564C57.6162 156.164 57.2788 156.979 57.2788 157.828C57.2788 158.677 57.6162 159.492 58.2167 160.092C58.8172 160.693 59.6316 161.03 60.4809 161.03H88.7405Z" fill="white" stroke="#1D1D1D" stroke-linecap="round" stroke-linejoin="round"/>
<path id="Vector_38" d="M63.4814 140.535H35.2218C33.6925 140.535 32.2258 139.928 31.1445 138.846C30.0631 137.765 29.4556 136.298 29.4556 134.769C29.4556 133.24 30.0631 131.773 31.1445 130.692C32.2258 129.61 33.6925 129.003 35.2218 129.003H63.4814V140.535Z" fill="#226752"/>
<path id="Vector_39" d="M63.4814 140.535H35.2218C33.6925 140.535 32.2258 139.928 31.1445 138.846C30.0631 137.765 29.4556 136.298 29.4556 134.769C29.4556 133.24 30.0631 131.773 31.1445 130.692C32.2258 129.61 33.6925 129.003 35.2218 129.003H63.4814V140.535Z" stroke="#1D1D1D" stroke-linecap="round" stroke-linejoin="round"/>
<path id="Vector_40" d="M55.7076 131.569C54.8584 131.569 54.0439 131.907 53.4434 132.507C52.8429 133.108 52.5055 133.922 52.5055 134.771C52.5055 135.62 52.8429 136.435 53.4434 137.035C54.0439 137.636 54.8584 137.973 55.7076 137.973H83.9672C84.307 137.973 84.6328 138.108 84.873 138.348C85.1133 138.589 85.2482 138.915 85.2482 139.254C85.2482 139.594 85.1133 139.92 84.873 140.16C84.6328 140.4 84.307 140.535 83.9672 140.535H55.7076C54.1783 140.535 52.7117 139.928 51.6303 138.846C50.5489 137.765 49.9414 136.298 49.9414 134.769C49.9414 133.24 50.5489 131.773 51.6303 130.692C52.7117 129.61 54.1783 129.003 55.7076 129.003H83.9672C84.307 129.003 84.6328 129.138 84.873 129.378C85.1133 129.618 85.2482 129.944 85.2482 130.284C85.2482 130.624 85.1133 130.95 84.873 131.19C84.6328 131.43 84.307 131.565 83.9672 131.565L55.7076 131.569Z" fill="#226752"/>
<path id="Vector_41" d="M55.7076 131.569C54.8584 131.569 54.0439 131.907 53.4434 132.507C52.8429 133.108 52.5055 133.922 52.5055 134.771C52.5055 135.62 52.8429 136.435 53.4434 137.035C54.0439 137.636 54.8584 137.973 55.7076 137.973H83.9672C84.307 137.973 84.6328 138.108 84.873 138.348C85.1133 138.589 85.2482 138.915 85.2482 139.254C85.2482 139.594 85.1133 139.92 84.873 140.16C84.6328 140.4 84.307 140.535 83.9672 140.535H55.7076C54.1783 140.535 52.7117 139.928 51.6303 138.846C50.5489 137.765 49.9414 136.298 49.9414 134.769C49.9414 133.24 50.5489 131.773 51.6303 130.692C52.7117 129.61 54.1783 129.003 55.7076 129.003H83.9672C84.307 129.003 84.6328 129.138 84.873 129.378C85.1133 129.618 85.2482 129.944 85.2482 130.284C85.2482 130.624 85.1133 130.95 84.873 131.19C84.6328 131.43 84.307 131.565 83.9672 131.565L55.7076 131.569Z" stroke="#1D1D1D" stroke-linecap="round" stroke-linejoin="round"/>
<path id="Vector_42" d="M83.9695 137.971V131.566H55.7099C54.8606 131.566 54.0462 131.904 53.4457 132.504C52.8452 133.105 52.5078 133.919 52.5078 134.768C52.5078 135.618 52.8452 136.432 53.4457 137.033C54.0462 137.633 54.8606 137.971 55.7099 137.971H83.9695Z" fill="white" stroke="#1D1D1D" stroke-linecap="round" stroke-linejoin="round"/>
<path id="Vector_43" d="M43.3482 140.535H39.5592C38.0299 140.535 36.5632 139.928 35.4819 138.846C34.4005 137.765 33.793 136.298 33.793 134.769C33.793 133.24 34.4005 131.773 35.4819 130.692C36.5632 129.61 38.0299 129.003 39.5592 129.003H43.3482C41.8189 129.003 40.3523 129.61 39.2709 130.692C38.1895 131.773 37.582 133.24 37.582 134.769C37.582 136.298 38.1895 137.765 39.2709 138.846C40.3523 139.928 41.8189 140.535 43.3482 140.535Z" fill="white" stroke="#1D1D1D" stroke-linecap="round" stroke-linejoin="round"/>
</g>
<g id="Union_3">
<path fill-rule="evenodd" clip-rule="evenodd" d="M223.482 32.63C224.465 32.65 225.434 32.8598 226.331 33.247H226.329C227.929 33.9027 229.243 35.0671 230.048 36.543C230.853 38.0189 231.1 39.7156 230.747 41.3457C230.661 41.7451 230.54 42.1344 230.386 42.5101C231.212 42.2801 232.076 42.1704 232.944 42.1867C234.011 42.2067 235.063 42.4165 236.036 42.8037H236.034C237.771 43.4594 239.197 44.6238 240.071 46.0997C240.945 47.5756 241.213 49.2723 240.83 50.9024C240.447 52.5325 239.436 53.9959 237.969 55.0447C236.501 56.0935 234.667 56.6633 232.778 56.6576H218.081H218.022H199.922H199.853H183.615C181.633 56.6646 179.709 56.0943 178.17 55.0437C176.632 53.993 175.573 52.5266 175.173 50.8937C174.774 49.2607 175.059 47.5618 175.979 46.0855C176.9 44.6091 178.4 43.4463 180.224 42.7945C181.241 42.4112 182.34 42.2042 183.454 42.1858C184.311 42.1716 185.164 42.2692 185.983 42.4741C185.835 42.1068 185.718 41.7266 185.634 41.337C185.283 39.7041 185.534 38.0051 186.343 36.5288C187.153 35.0524 188.473 33.8896 190.077 33.2378C190.972 32.8545 191.939 32.6475 192.919 32.6291C193.899 32.6106 194.874 32.7812 195.783 33.1307C196.247 30.3012 197.752 27.7231 200.028 25.8613C202.304 23.9995 205.201 22.9763 208.196 22.9763C211.191 22.9763 214.087 23.9995 216.363 25.8613C218.639 27.7231 220.145 30.3012 220.608 33.1307C221.521 32.7803 222.499 32.61 223.482 32.63Z" fill="white"/>
<path d="M226.331 33.247V33.747C226.568 33.747 226.773 33.5804 226.821 33.3482C226.869 33.1159 226.747 32.8819 226.529 32.7879L226.331 33.247ZM223.482 32.63L223.472 33.1299L223.482 32.63ZM226.329 33.247V32.747C226.09 32.747 225.884 32.916 225.838 33.1503C225.792 33.3847 225.918 33.619 226.139 33.7096L226.329 33.247ZM230.048 36.543L230.487 36.3036V36.3036L230.048 36.543ZM230.747 41.3457L231.236 41.4515L230.747 41.3457ZM230.386 42.5101L229.923 42.321C229.851 42.4976 229.886 42.7 230.013 42.8426C230.139 42.9851 230.336 43.043 230.52 42.9918L230.386 42.5101ZM232.944 42.1867L232.953 41.6868L232.944 42.1867ZM236.036 42.8037V43.3037C236.276 43.3037 236.482 43.1333 236.527 42.8978C236.573 42.6622 236.444 42.4277 236.221 42.3391L236.036 42.8037ZM236.034 42.8037V42.3037C235.792 42.3037 235.585 42.4763 235.542 42.7139C235.499 42.9515 235.631 43.1861 235.857 43.2714L236.034 42.8037ZM240.071 46.0997L239.641 46.3545V46.3545L240.071 46.0997ZM240.83 50.9024L240.343 50.788V50.788L240.83 50.9024ZM237.969 55.0447L237.678 54.6379L237.969 55.0447ZM232.778 56.6576L232.779 56.1576H232.778V56.6576ZM183.615 56.6576V56.1576L183.613 56.1576L183.615 56.6576ZM178.17 55.0437L177.888 55.4566H177.888L178.17 55.0437ZM175.173 50.8937L174.687 51.0125L175.173 50.8937ZM175.979 46.0855L175.555 45.8209L175.979 46.0855ZM180.224 42.7945L180.392 43.2655L180.4 43.2624L180.224 42.7945ZM183.454 42.1858L183.462 42.6857H183.462L183.454 42.1858ZM185.983 42.4741L185.862 42.9591C186.044 43.0048 186.236 42.9443 186.36 42.8025C186.483 42.6608 186.517 42.4618 186.447 42.2875L185.983 42.4741ZM185.634 41.337L186.123 41.2318L185.634 41.337ZM190.077 33.2378L190.266 33.7012L190.274 33.6974L190.077 33.2378ZM192.919 32.6291L192.928 33.129L192.919 32.6291ZM195.783 33.1307L195.604 33.5974C195.745 33.6514 195.902 33.6392 196.032 33.5644C196.163 33.4895 196.253 33.3599 196.277 33.2115L195.783 33.1307ZM200.028 25.8613L200.345 26.2483L200.028 25.8613ZM216.363 25.8613L216.047 26.2483V26.2483L216.363 25.8613ZM220.608 33.1307L220.115 33.2115C220.139 33.3599 220.229 33.4895 220.359 33.5643C220.49 33.6392 220.647 33.6514 220.787 33.5975L220.608 33.1307ZM226.529 32.7879C225.573 32.375 224.54 32.1514 223.492 32.1301L223.472 33.1299C224.391 33.1486 225.296 33.3447 226.133 33.706L226.529 32.7879ZM226.329 33.747H226.331V32.747H226.329V33.747ZM230.487 36.3036C229.625 34.7238 228.221 33.4823 226.518 32.7843L226.139 33.7096C227.636 34.3232 228.86 35.4105 229.609 36.7825L230.487 36.3036ZM231.236 41.4515C231.615 39.703 231.349 37.8839 230.487 36.3036L229.609 36.7825C230.357 38.1539 230.586 39.7282 230.259 41.2399L231.236 41.4515ZM230.849 42.6993C231.013 42.2969 231.143 41.8797 231.236 41.4515L230.259 41.2399C230.178 41.6105 230.066 41.972 229.923 42.321L230.849 42.6993ZM232.953 41.6868C232.037 41.6696 231.124 41.7853 230.252 42.0285L230.52 42.9918C231.299 42.7749 232.114 42.6713 232.935 42.6866L232.953 41.6868ZM236.221 42.3391C235.191 41.9293 234.08 41.7079 232.953 41.6868L232.935 42.6866C233.943 42.7055 234.935 42.9038 235.852 43.2682L236.221 42.3391ZM236.034 43.3037H236.036V42.3037H236.034V43.3037ZM240.501 45.8449C239.564 44.263 238.044 43.0282 236.21 42.3359L235.857 43.2714C237.497 43.8906 238.829 44.9846 239.641 46.3545L240.501 45.8449ZM241.317 51.0168C241.73 49.2576 241.439 47.429 240.501 45.8449L239.641 46.3545C240.451 47.7223 240.696 49.287 240.343 50.788L241.317 51.0168ZM238.259 55.4515C239.817 54.3381 240.904 52.7744 241.317 51.0168L240.343 50.788C239.99 52.2906 239.055 53.6537 237.678 54.6379L238.259 55.4515ZM232.776 57.1576C234.765 57.1636 236.703 56.5643 238.259 55.4515L237.678 54.6379C236.3 55.6228 234.569 56.163 232.779 56.1576L232.776 57.1576ZM218.081 57.1576H232.778V56.1576H218.081V57.1576ZM218.022 57.1576H218.081V56.1576H218.022V57.1576ZM199.922 57.1576H218.022V56.1576H199.922V57.1576ZM199.853 57.1576H199.922V56.1576H199.853V57.1576ZM183.615 57.1576H199.853V56.1576H183.615V57.1576ZM177.888 55.4566C179.516 56.5681 181.54 57.1649 183.616 57.1576L183.613 56.1576C181.725 56.1643 179.902 55.6206 178.452 54.6307L177.888 55.4566ZM174.687 51.0125C175.119 52.7786 176.26 54.3445 177.888 55.4566L178.452 54.6307C177.003 53.6415 176.026 52.2747 175.659 50.7749L174.687 51.0125ZM175.555 45.8209C174.566 47.4071 174.255 49.2437 174.687 51.0125L175.659 50.7749C175.293 49.2778 175.551 47.7166 176.403 46.35L175.555 45.8209ZM180.056 42.3237C178.138 43.0088 176.542 44.238 175.555 45.8209L176.403 46.35C177.258 44.9802 178.661 43.8838 180.392 43.2654L180.056 42.3237ZM183.446 41.6858C182.275 41.7052 181.12 41.9226 180.047 42.3267L180.4 43.2624C181.362 42.8999 182.404 42.7032 183.462 42.6857L183.446 41.6858ZM186.104 41.989C185.243 41.7735 184.346 41.6709 183.446 41.6858L183.462 42.6857C184.276 42.6722 185.086 42.765 185.862 42.9591L186.104 41.989ZM185.146 41.4422C185.235 41.8599 185.361 42.2673 185.519 42.6607L186.447 42.2875C186.31 41.9463 186.201 41.5934 186.123 41.2318L185.146 41.4422ZM185.905 36.2883C185.038 37.8691 184.769 39.6906 185.146 41.4422L186.123 41.2318C185.797 39.7175 186.029 38.1412 186.782 36.7693L185.905 36.2883ZM189.889 32.7746C188.181 33.4683 186.772 34.708 185.905 36.2883L186.782 36.7693C187.535 35.3968 188.764 34.3109 190.266 33.7011L189.889 32.7746ZM192.91 32.1291C191.865 32.1488 190.835 32.3693 189.881 32.7782L190.274 33.6974C191.109 33.3397 192.012 33.1462 192.928 33.129L192.91 32.1291ZM195.963 32.6639C194.992 32.2912 193.954 32.1095 192.91 32.1291L192.928 33.129C193.845 33.1118 194.755 33.2712 195.604 33.5974L195.963 32.6639ZM199.712 25.4743C197.344 27.4111 195.774 30.0968 195.29 33.0498L196.277 33.2115C196.72 30.5055 198.161 28.0352 200.345 26.2483L199.712 25.4743ZM208.196 22.4763C205.088 22.4763 202.079 23.5379 199.712 25.4743L200.345 26.2483C202.53 24.461 205.314 23.4763 208.196 23.4763V22.4763ZM216.68 25.4743C214.313 23.5379 211.304 22.4763 208.196 22.4763V23.4763C211.078 23.4763 213.862 24.461 216.047 26.2483L216.68 25.4743ZM221.102 33.0498C220.618 30.0968 219.047 27.4111 216.68 25.4743L216.047 26.2483C218.231 28.0352 219.671 30.5055 220.115 33.2115L221.102 33.0498ZM223.492 32.1301C222.444 32.1088 221.403 32.2902 220.429 32.6639L220.787 33.5975C221.639 33.2704 222.553 33.1112 223.472 33.1299L223.492 32.1301Z" fill="#1D1D1D"/>
</g>
<path id="Vector_44" d="M197.527 42.9C196.661 42.5128 195.725 42.3029 194.775 42.2829C193.825 42.2629 192.881 42.4332 191.999 42.7837C191.551 39.9535 190.097 37.3748 187.899 35.5124C185.701 33.6501 182.903 32.6267 180.01 32.6267C177.118 32.6267 174.32 33.6501 172.122 35.5124C169.923 37.3748 168.469 39.9535 168.022 42.7837C167.143 42.4342 166.202 42.2635 165.255 42.2819C164.308 42.3004 163.375 42.5075 162.51 42.8909C160.96 43.5428 159.686 44.7059 158.904 46.1827C158.122 47.6594 157.88 49.3588 158.219 50.9922C158.558 52.6255 159.458 54.0922 160.766 55.1432C162.073 56.1941 163.708 56.7646 165.392 56.7576H194.627C196.309 56.7633 197.94 56.1933 199.246 55.1443C200.552 54.0952 201.451 52.6314 201.792 51.0009C202.133 49.3703 201.895 47.6732 201.117 46.1969C200.339 44.7207 199.07 43.5559 197.524 42.9H197.527Z" fill="white" stroke="#1D1D1D" stroke-linejoin="round"/>
<path id="Vector_45" d="M53.8729 74.9695C52.7126 74.4485 51.4584 74.1661 50.1856 74.1392C48.9128 74.1123 47.6476 74.3415 46.4661 74.813C45.8661 71.005 43.9177 67.5355 40.9721 65.0298C38.0265 62.5242 34.2776 61.1472 30.4011 61.1472C26.5247 61.1472 22.7757 62.5242 19.8301 65.0298C16.8845 67.5355 14.9361 71.005 14.3361 74.813C13.1584 74.3427 11.8976 74.1131 10.6288 74.1379C9.35993 74.1627 8.1091 74.4413 6.95093 74.9572C4.874 75.8344 3.16643 77.3993 2.11821 79.3862C1.06999 81.3731 0.745732 83.6595 1.2005 85.8571C1.65527 88.0547 2.86101 90.0281 4.613 91.4421C6.36499 92.8561 8.55521 93.6236 10.8117 93.6142H49.9874C52.2406 93.6219 54.4272 92.8551 56.1769 91.4436C57.9267 90.032 59.132 88.0626 59.5888 85.8688C60.0456 83.675 59.7258 81.3916 58.6836 79.4053C57.6414 77.4191 55.9408 75.852 53.8698 74.9695H53.8729Z" fill="white" stroke="#1D1D1D" stroke-linejoin="round"/>
</g>
</svg>
