<svg width="431" height="392" viewBox="0 0 431 392" fill="none" xmlns="http://www.w3.org/2000/svg">
<g opacity="0.2">
<circle cx="4" cy="4" r="4" fill="#226752"/>
<circle cx="36" cy="4" r="4" fill="#226752"/>
<circle cx="68" cy="4" r="4" fill="#226752"/>
<circle cx="100" cy="4" r="4" fill="#226752"/>
<circle cx="132" cy="4" r="4" fill="#226752"/>
<circle cx="164" cy="4" r="4" fill="#226752"/>
<circle cx="196" cy="4" r="4" fill="#226752"/>
<circle cx="228" cy="4" r="4" fill="#226752"/>
<circle cx="260" cy="4" r="4" fill="#226752"/>
<circle cx="292" cy="4" r="4" fill="#226752"/>
<circle cx="324" cy="4" r="4" fill="#226752"/>
<circle cx="356" cy="4" r="4" fill="#226752"/>
<circle cx="388" cy="4" r="4" fill="#226752"/>
<circle cx="420" cy="4" r="4" fill="#226752"/>
<circle cx="4" cy="36" r="4" fill="#226752"/>
<circle cx="36" cy="36" r="4" fill="#226752"/>
<circle cx="68" cy="36" r="4" fill="#226752"/>
<circle cx="100" cy="36" r="4" fill="#226752"/>
<circle cx="132" cy="36" r="4" fill="#226752"/>
<circle cx="164" cy="36" r="4" fill="#226752"/>
<circle cx="196" cy="36" r="4" fill="#226752"/>
<circle cx="228" cy="36" r="4" fill="#226752"/>
<circle cx="260" cy="36" r="4" fill="#226752"/>
<circle cx="292" cy="36" r="4" fill="#226752"/>
<circle cx="324" cy="36" r="4" fill="#226752"/>
<circle cx="356" cy="36" r="4" fill="#226752"/>
<circle cx="388" cy="36" r="4" fill="#226752"/>
<circle cx="420" cy="36" r="4" fill="#226752"/>
<circle cx="4" cy="68" r="4" fill="#226752"/>
<circle cx="36" cy="68" r="4" fill="#226752"/>
<circle cx="68" cy="68" r="4" fill="#226752"/>
<circle cx="100" cy="68" r="4" fill="#226752"/>
<circle cx="132" cy="68" r="4" fill="#226752"/>
<circle cx="164" cy="68" r="4" fill="#226752"/>
<circle cx="196" cy="68" r="4" fill="#226752"/>
<circle cx="228" cy="68" r="4" fill="#226752"/>
<circle cx="260" cy="68" r="4" fill="#226752"/>
<circle cx="292" cy="68" r="4" fill="#226752"/>
<circle cx="324" cy="68" r="4" fill="#226752"/>
<circle cx="356" cy="68" r="4" fill="#226752"/>
<circle cx="388" cy="68" r="4" fill="#226752"/>
<circle cx="420" cy="68" r="4" fill="#226752"/>
<circle cx="4" cy="100" r="4" fill="#226752"/>
<circle cx="36" cy="100" r="4" fill="#226752"/>
<circle cx="68" cy="100" r="4" fill="#226752"/>
<circle cx="100" cy="100" r="4" fill="#226752"/>
<circle cx="132" cy="100" r="4" fill="#226752"/>
<circle cx="164" cy="100" r="4" fill="#226752"/>
<circle cx="196" cy="100" r="4" fill="#226752"/>
<circle cx="228" cy="100" r="4" fill="#226752"/>
<circle cx="260" cy="100" r="4" fill="#226752"/>
<circle cx="292" cy="100" r="4" fill="#226752"/>
<circle cx="324" cy="100" r="4" fill="#226752"/>
<circle cx="356" cy="100" r="4" fill="#226752"/>
<circle cx="388" cy="100" r="4" fill="#226752"/>
<circle cx="420" cy="100" r="4" fill="#226752"/>
<circle cx="4" cy="132" r="4" fill="#226752"/>
<circle cx="36" cy="132" r="4" fill="#226752"/>
<circle cx="68" cy="132" r="4" fill="#226752"/>
<circle cx="100" cy="132" r="4" fill="#226752"/>
<circle cx="132" cy="132" r="4" fill="#226752"/>
<circle cx="164" cy="132" r="4" fill="#226752"/>
<circle cx="196" cy="132" r="4" fill="#226752"/>
<circle cx="228" cy="132" r="4" fill="#226752"/>
<circle cx="260" cy="132" r="4" fill="#226752"/>
<circle cx="292" cy="132" r="4" fill="#226752"/>
<circle cx="324" cy="132" r="4" fill="#226752"/>
<circle cx="356" cy="132" r="4" fill="#226752"/>
<circle cx="388" cy="132" r="4" fill="#226752"/>
<circle cx="420" cy="132" r="4" fill="#226752"/>
<circle cx="4" cy="164" r="4" fill="#226752"/>
<circle cx="36" cy="164" r="4" fill="#226752"/>
<circle cx="68" cy="164" r="4" fill="#226752"/>
<circle cx="100" cy="164" r="4" fill="#226752"/>
<circle cx="132" cy="164" r="4" fill="#226752"/>
<circle cx="164" cy="164" r="4" fill="#226752"/>
<circle cx="196" cy="164" r="4" fill="#226752"/>
<circle cx="228" cy="164" r="4" fill="#226752"/>
<circle cx="260" cy="164" r="4" fill="#226752"/>
<circle cx="292" cy="164" r="4" fill="#226752"/>
<circle cx="324" cy="164" r="4" fill="#226752"/>
<circle cx="356" cy="164" r="4" fill="#226752"/>
<circle cx="388" cy="164" r="4" fill="#226752"/>
<circle cx="420" cy="164" r="4" fill="#226752"/>
<circle cx="4" cy="196" r="4" fill="#226752"/>
<circle cx="36" cy="196" r="4" fill="#226752"/>
<circle cx="68" cy="196" r="4" fill="#226752"/>
<circle cx="100" cy="196" r="4" fill="#226752"/>
<circle cx="132" cy="196" r="4" fill="#226752"/>
<circle cx="164" cy="196" r="4" fill="#226752"/>
<circle cx="196" cy="196" r="4" fill="#226752"/>
<circle cx="228" cy="196" r="4" fill="#226752"/>
<circle cx="260" cy="196" r="4" fill="#226752"/>
<circle cx="292" cy="196" r="4" fill="#226752"/>
<circle cx="324" cy="196" r="4" fill="#226752"/>
<circle cx="356" cy="196" r="4" fill="#226752"/>
<circle cx="388" cy="196" r="4" fill="#226752"/>
<circle cx="420" cy="196" r="4" fill="#226752"/>
<circle cx="4" cy="228" r="4" fill="#226752"/>
<circle cx="36" cy="228" r="4" fill="#226752"/>
<circle cx="68" cy="228" r="4" fill="#226752"/>
<circle cx="100" cy="228" r="4" fill="#226752"/>
<circle cx="132" cy="228" r="4" fill="#226752"/>
<circle cx="164" cy="228" r="4" fill="#226752"/>
<circle cx="196" cy="228" r="4" fill="#226752"/>
<circle cx="228" cy="228" r="4" fill="#226752"/>
<circle cx="260" cy="228" r="4" fill="#226752"/>
<circle cx="292" cy="228" r="4" fill="#226752"/>
<circle cx="324" cy="228" r="4" fill="#226752"/>
<circle cx="356" cy="228" r="4" fill="#226752"/>
<circle cx="388" cy="228" r="4" fill="#226752"/>
<circle cx="420" cy="228" r="4" fill="#226752"/>
<circle cx="4" cy="260" r="4" fill="#226752"/>
<circle cx="36" cy="260" r="4" fill="#226752"/>
<circle cx="68" cy="260" r="4" fill="#226752"/>
<circle cx="100" cy="260" r="4" fill="#226752"/>
<circle cx="132" cy="260" r="4" fill="#226752"/>
<circle cx="164" cy="260" r="4" fill="#226752"/>
<circle cx="196" cy="260" r="4" fill="#226752"/>
<circle cx="228" cy="260" r="4" fill="#226752"/>
<circle cx="260" cy="260" r="4" fill="#226752"/>
<circle cx="292" cy="260" r="4" fill="#226752"/>
<circle cx="324" cy="260" r="4" fill="#226752"/>
<circle cx="356" cy="260" r="4" fill="#226752"/>
<circle cx="388" cy="260" r="4" fill="#226752"/>
<circle cx="420" cy="260" r="4" fill="#226752"/>
<circle cx="4" cy="292" r="4" fill="#226752"/>
<circle cx="36" cy="292" r="4" fill="#226752"/>
<circle cx="68" cy="292" r="4" fill="#226752"/>
<circle cx="100" cy="292" r="4" fill="#226752"/>
<circle cx="132" cy="292" r="4" fill="#226752"/>
<circle cx="164" cy="292" r="4" fill="#226752"/>
<circle cx="196" cy="292" r="4" fill="#226752"/>
<circle cx="228" cy="292" r="4" fill="#226752"/>
<circle cx="260" cy="292" r="4" fill="#226752"/>
<circle cx="292" cy="292" r="4" fill="#226752"/>
<circle cx="324" cy="292" r="4" fill="#226752"/>
<circle cx="356" cy="292" r="4" fill="#226752"/>
<circle cx="388" cy="292" r="4" fill="#226752"/>
<circle cx="420" cy="292" r="4" fill="#226752"/>
<circle cx="4" cy="324" r="4" fill="#226752"/>
<circle cx="36" cy="324" r="4" fill="#226752"/>
<circle cx="68" cy="324" r="4" fill="#226752"/>
<circle cx="100" cy="324" r="4" fill="#226752"/>
<circle cx="132" cy="324" r="4" fill="#226752"/>
<circle cx="164" cy="324" r="4" fill="#226752"/>
<circle cx="196" cy="324" r="4" fill="#226752"/>
<circle cx="228" cy="324" r="4" fill="#226752"/>
<circle cx="260" cy="324" r="4" fill="#226752"/>
<circle cx="292" cy="324" r="4" fill="#226752"/>
<circle cx="324" cy="324" r="4" fill="#226752"/>
<circle cx="356" cy="324" r="4" fill="#226752"/>
<circle cx="388" cy="324" r="4" fill="#226752"/>
<circle cx="420" cy="324" r="4" fill="#226752"/>
<circle cx="4" cy="356" r="4" fill="#226752"/>
<circle cx="36" cy="356" r="4" fill="#226752"/>
<circle cx="68" cy="356" r="4" fill="#226752"/>
<circle cx="100" cy="356" r="4" fill="#226752"/>
<circle cx="132" cy="356" r="4" fill="#226752"/>
<circle cx="164" cy="356" r="4" fill="#226752"/>
<circle cx="196" cy="356" r="4" fill="#226752"/>
<circle cx="228" cy="356" r="4" fill="#226752"/>
<circle cx="260" cy="356" r="4" fill="#226752"/>
<circle cx="292" cy="356" r="4" fill="#226752"/>
<circle cx="324" cy="356" r="4" fill="#226752"/>
<circle cx="356" cy="356" r="4" fill="#226752"/>
<circle cx="388" cy="356" r="4" fill="#226752"/>
<circle cx="420" cy="356" r="4" fill="#226752"/>
<circle cx="4" cy="388" r="4" fill="#226752"/>
<circle cx="36" cy="388" r="4" fill="#226752"/>
<circle cx="68" cy="388" r="4" fill="#226752"/>
<circle cx="100" cy="388" r="4" fill="#226752"/>
<circle cx="132" cy="388" r="4" fill="#226752"/>
<circle cx="164" cy="388" r="4" fill="#226752"/>
<circle cx="196" cy="388" r="4" fill="#226752"/>
<circle cx="228" cy="388" r="4" fill="#226752"/>
<circle cx="260" cy="388" r="4" fill="#226752"/>
<circle cx="292" cy="388" r="4" fill="#226752"/>
<circle cx="324" cy="388" r="4" fill="#226752"/>
<circle cx="356" cy="388" r="4" fill="#226752"/>
<circle cx="388" cy="388" r="4" fill="#226752"/>
<circle cx="420" cy="388" r="4" fill="#226752"/>
</g>
<circle cx="265.5" cy="206.5" r="165.5" fill="#CBD5CA"/>
</svg>
