<svg width="48" height="48" viewBox="0 0 48 48" fill="none" xmlns="http://www.w3.org/2000/svg">
<path d="M12.428 18.688C12.8608 19.2573 13.4246 19.7136 14.0716 20.0183C14.7186 20.323 15.4295 20.467 16.144 20.438C18.422 20.438 20.27 19.052 20.27 17.344C20.27 15.636 18.422 14.252 16.144 14.252C13.866 14.252 12.02 12.866 12.02 11.156C12.02 9.44599 13.868 8.06199 16.144 8.06199C16.8585 8.03303 17.5695 8.17701 18.2164 8.48168C18.8634 8.78636 19.4272 9.24272 19.86 9.81199" stroke="#276164" stroke-width="3" stroke-linecap="round" stroke-linejoin="round"/>
<path d="M16.144 20.438V22.5" stroke="#276164" stroke-width="3" stroke-linecap="round" stroke-linejoin="round"/>
<path d="M16.144 6V8.062" stroke="#276164" stroke-width="3" stroke-linecap="round" stroke-linejoin="round"/>
<path d="M46.5 41.972L43.52 37.5V27C43.52 23 35.92 18.722 33.02 16.5" stroke="#276164" stroke-width="3" stroke-linecap="round" stroke-linejoin="round"/>
<path d="M36.88 29.588L29.584 23.74C29.0952 23.2512 28.4323 22.9766 27.741 22.9766C27.0498 22.9766 26.3868 23.2512 25.898 23.74C25.4092 24.2288 25.1346 24.8918 25.1346 25.583C25.1346 26.2743 25.4092 26.9372 25.898 27.426L32.964 35.4V40.4C32.964 42.762 36.34 46.49 36.34 46.49" stroke="#276164" stroke-width="3" stroke-linecap="round" stroke-linejoin="round"/>
<path d="M27.02 46.5H4.26802C3.53902 46.4995 2.84006 46.2095 2.32477 45.6938C1.80948 45.1782 1.52002 44.479 1.52002 43.75V4.25C1.52002 3.521 1.80948 2.82183 2.32477 2.30616C2.84006 1.7905 3.53902 1.50053 4.26802 1.5H30.268C30.9975 1.5 31.6972 1.78967 32.2133 2.30533C32.7293 2.821 33.0195 3.52047 33.02 4.25V26.494" stroke="#276164" stroke-width="3" stroke-linecap="round" stroke-linejoin="round"/>
<path d="M21.02 28.5H9.02002C8.6222 28.5 8.24066 28.658 7.95936 28.9393C7.67805 29.2206 7.52002 29.6022 7.52002 30V39C7.52002 39.3978 7.67805 39.7794 7.95936 40.0607C8.24066 40.342 8.6222 40.5 9.02002 40.5H27.02" stroke="#276164" stroke-width="3" stroke-linecap="round" stroke-linejoin="round"/>
<path d="M7.52002 34.5H24.02" stroke="#276164" stroke-width="3" stroke-linecap="round" stroke-linejoin="round"/>
<path d="M16.52 28.5V40.5" stroke="#276164" stroke-width="3" stroke-linecap="round" stroke-linejoin="round"/>
</svg>
