<svg width="48" height="48" viewBox="0 0 48 48" fill="none" xmlns="http://www.w3.org/2000/svg">
<path d="M19.5 46.5H45" stroke="#276164" stroke-width="3" stroke-linecap="round" stroke-linejoin="round"/>
<path d="M22.5 31.5V46.5" stroke="#276164" stroke-width="3" stroke-linecap="round" stroke-linejoin="round"/>
<path d="M28.5 31.5V46.5" stroke="#276164" stroke-width="3" stroke-linecap="round" stroke-linejoin="round"/>
<path d="M36 31.5V46.5" stroke="#276164" stroke-width="3" stroke-linecap="round" stroke-linejoin="round"/>
<path d="M42 31.5V46.5" stroke="#276164" stroke-width="3" stroke-linecap="round" stroke-linejoin="round"/>
<path d="M46.5 31.5H18L31.15 22.858C31.4694 22.6249 31.8546 22.4993 32.25 22.4993C32.6454 22.4993 33.0306 22.6249 33.35 22.858L46.5 31.5Z" stroke="#276164" stroke-width="3" stroke-linecap="round" stroke-linejoin="round"/>
<path d="M11.474 42.694C8.29713 40.5663 5.71474 37.6642 3.97044 34.2617C2.22615 30.8592 1.37747 27.0684 1.50449 23.247C1.6315 19.4255 2.73002 15.6994 4.69639 12.4203C6.66276 9.14108 9.43215 6.41694 12.7433 4.50485C16.0544 2.59277 19.7981 1.55579 23.6211 1.49174C27.4441 1.4277 31.2204 2.33871 34.5938 4.13882C37.9671 5.93893 40.8261 8.56878 42.9012 11.7803C44.9763 14.9917 46.199 18.6789 46.454 22.494" stroke="#276164" stroke-width="3" stroke-linecap="round" stroke-linejoin="round"/>
<path d="M13.6879 26.986C13.3953 23.0291 13.5509 19.0518 14.1519 15.13C14.6895 10.5408 16.1983 6.11868 18.5779 2.15796" stroke="#276164" stroke-width="3" stroke-linecap="round" stroke-linejoin="round"/>
<path d="M1.54993 22.5H13.4999" stroke="#276164" stroke-width="3" stroke-linecap="round" stroke-linejoin="round"/>
<path d="M4.96399 12H43.036" stroke="#276164" stroke-width="3" stroke-linecap="round" stroke-linejoin="round"/>
<path d="M3.37195 33H11.9999" stroke="#276164" stroke-width="3" stroke-linecap="round" stroke-linejoin="round"/>
<path d="M29.422 2.15796C32.0214 6.5515 33.6016 11.4724 34.046 16.558" stroke="#276164" stroke-width="3" stroke-linecap="round" stroke-linejoin="round"/>
</svg>
