<svg width="48" height="48" viewBox="0 0 48 48" fill="none" xmlns="http://www.w3.org/2000/svg">
<path d="M30 46.506H18L19.5 37.506H28.5L30 46.506Z" stroke="#276164" stroke-width="3" stroke-linecap="round" stroke-linejoin="round"/>
<path d="M13.5 46.506H34.5" stroke="#276164" stroke-width="3" stroke-linecap="round" stroke-linejoin="round"/>
<path d="M1.5 1.50598H46.5V37.506H1.5V1.50598Z" stroke="#276164" stroke-width="3" stroke-linecap="round" stroke-linejoin="round"/>
<path d="M37.4999 10.506H33.4339C32.8099 10.5053 32.2051 10.722 31.7236 11.1189C31.2421 11.5158 30.9139 12.0682 30.7956 12.6809C30.6772 13.2935 30.776 13.9283 31.075 14.4761C31.374 15.0238 31.8546 15.4502 32.4339 15.682L36.5619 17.332C37.14 17.5646 37.6192 17.9911 37.9172 18.5383C38.2152 19.0856 38.3136 19.7195 38.1953 20.3313C38.0771 20.9431 37.7496 21.4947 37.2691 21.8915C36.7886 22.2883 36.1851 22.5055 35.5619 22.506H31.4999" stroke="#276164" stroke-width="3" stroke-linecap="round" stroke-linejoin="round"/>
<path d="M34.5 10.506V9.00598" stroke="#276164" stroke-width="3" stroke-linecap="round" stroke-linejoin="round"/>
<path d="M34.5 24.006V22.506" stroke="#276164" stroke-width="3" stroke-linecap="round" stroke-linejoin="round"/>
<path d="M1.5 22.506L9.44 14.568C9.57913 14.4287 9.74436 14.3181 9.92625 14.2427C10.1081 14.1673 10.3031 14.1285 10.5 14.1285C10.6969 14.1285 10.8919 14.1673 11.0738 14.2427C11.2556 14.3181 11.4209 14.4287 11.56 14.568L15.44 18.446C15.5791 18.5853 15.7444 18.6958 15.9262 18.7713C16.1081 18.8467 16.3031 18.8855 16.5 18.8855C16.6969 18.8855 16.8919 18.8467 17.0738 18.7713C17.2556 18.6958 17.4209 18.5853 17.56 18.446L25.5 10.506" stroke="#276164" stroke-width="3" stroke-linecap="round" stroke-linejoin="round"/>
<path d="M1.5 31.506H46.5" stroke="#276164" stroke-width="3" stroke-linecap="round" stroke-linejoin="round"/>
</svg>
