<svg width="90" height="27" viewBox="0 0 90 27" fill="none" xmlns="http://www.w3.org/2000/svg">
<path d="M2.70708 2.35258L0 1.99808V0.612317L5.25302 0H5.31747L6.02647 0.483408V7.9601L5.89756 10.6994C6.58507 10.0763 7.5304 9.48552 8.73355 8.92691C9.93669 8.36831 11.1506 8.08901 12.3752 8.08901C13.7288 8.08901 14.7815 8.34682 15.5335 8.86246C16.2854 9.37809 16.8118 10.173 17.1126 11.2473C17.4134 12.3 17.5638 13.7288 17.5638 15.5335V24.5248L19.8197 24.8149V26.394H12.1174V24.8149L14.2122 24.5248V15.5012C14.2122 14.2336 14.1262 13.2453 13.9543 12.5364C13.7825 11.8059 13.4602 11.2687 12.9875 10.925C12.5149 10.5598 11.8059 10.3771 10.8605 10.3771C10.0871 10.3771 9.25992 10.5705 8.37905 10.9572C7.49818 11.3439 6.72473 11.7951 6.0587 12.3108V24.5248L8.28237 24.8149V26.394H0.773451V24.8149L2.70708 24.5571V2.35258Z" fill="#276164"/>
<path d="M30.1381 26.7485C27.5385 26.7485 25.5512 25.8999 24.1761 24.2026C22.8226 22.5053 22.1458 20.2386 22.1458 17.4026C22.1458 15.5335 22.5003 13.8899 23.2093 12.4719C23.9183 11.0539 24.9066 9.95818 26.1742 9.18473C27.4633 8.41128 28.9243 8.02455 30.5571 8.02455C32.5552 8.02455 34.1021 8.58316 35.1978 9.70036C36.315 10.7961 36.9058 12.3752 36.9703 14.4377C36.9703 15.7483 36.8951 16.7474 36.7447 17.4349H25.6586C25.7015 19.5619 26.1957 21.2806 27.141 22.5912C28.0864 23.8803 29.4291 24.5248 31.1694 24.5248C32.0288 24.5248 32.9204 24.3744 33.8443 24.0737C34.7896 23.7514 35.5201 23.3754 36.0357 22.9457L36.648 24.3637C36.025 25.0082 35.1011 25.5668 33.8765 26.0395C32.6519 26.5122 31.4057 26.7485 30.1381 26.7485ZM33.4253 15.7268C33.4898 15.2757 33.522 14.8137 33.522 14.3411C33.5005 12.9446 33.1997 11.8488 32.6196 11.0539C32.061 10.2375 31.1694 9.82927 29.9448 9.82927C28.6987 9.82927 27.6996 10.2805 26.9477 11.1828C26.2172 12.0852 25.7982 13.5998 25.6908 15.7268H33.4253Z" fill="#276164"/>
<path d="M39.7401 21.5599C39.7401 19.5404 40.7498 18.0579 42.7694 17.1126C44.789 16.1458 47.3457 15.6302 50.4395 15.5657V14.6633C50.4395 13.6536 50.332 12.8586 50.1172 12.2785C49.9023 11.6984 49.5264 11.2795 48.9892 11.0217C48.4736 10.7424 47.7324 10.6027 46.7656 10.6027C45.6698 10.6027 44.6816 10.7639 43.8007 11.0861C42.9413 11.3869 42.0819 11.7629 41.2225 12.2141L40.4168 10.5383C40.6961 10.3019 41.2118 9.99041 41.9637 9.60368C42.7157 9.21696 43.5858 8.8732 44.5741 8.57241C45.5624 8.27163 46.5507 8.12123 47.539 8.12123C49.0644 8.12123 50.2676 8.33608 51.1485 8.76578C52.0508 9.17399 52.6954 9.84002 53.0821 10.7639C53.4688 11.6877 53.6622 12.9231 53.6622 14.47V24.8149H55.5636V26.2329C55.1339 26.3403 54.586 26.4477 53.92 26.5551C53.2755 26.6626 52.7061 26.7163 52.212 26.7163C51.6104 26.7163 51.2022 26.6196 50.9873 26.4262C50.7725 26.2544 50.6651 25.8569 50.6651 25.2338V24.1703C50.0205 24.8149 49.2256 25.4057 48.2802 25.9428C47.3564 26.4799 46.3037 26.7485 45.122 26.7485C43.5751 26.7485 42.286 26.3081 41.2547 25.4272C40.245 24.5248 39.7401 23.2358 39.7401 21.5599ZM46.5078 24.5571C47.0664 24.5571 47.7109 24.3852 48.4414 24.0414C49.1719 23.6977 49.8379 23.2895 50.4395 22.8168V17.2737C48.0976 17.2737 46.3251 17.639 45.122 18.3695C43.9403 19.0785 43.3495 20.013 43.3495 21.1732C43.3495 22.3334 43.6288 23.1928 44.1874 23.7514C44.7675 24.2885 45.5409 24.5571 46.5078 24.5571Z" fill="#276164"/>
<path d="M57.8693 24.8149L60.2864 24.6215V10.9894L57.966 10.4094V8.6691L62.4134 8.08901H62.4778L63.1868 8.6691V9.24918L63.0901 11.7629H63.1868C63.4016 11.3977 63.7884 10.925 64.347 10.3449C64.9056 9.76482 65.6253 9.23844 66.5062 8.76578C67.3871 8.27163 68.3431 8.02455 69.3744 8.02455C69.8041 8.02455 70.1586 8.07826 70.4379 8.18569V11.7951C70.2875 11.6877 70.0404 11.591 69.6967 11.5051C69.3744 11.3977 69.0092 11.3439 68.601 11.3439C66.8177 11.3439 65.1634 11.8918 63.638 12.9875V24.5893L67.7308 24.8471V26.394H57.8693V24.8149Z" fill="#276164"/>
<path d="M79.5262 26.7485C78.2371 26.7485 77.0555 26.4262 75.9812 25.7817C74.907 25.1372 74.0476 24.1489 73.403 22.8168C72.78 21.4847 72.4685 19.8412 72.4685 17.8861C72.4685 16.0598 72.8444 14.3948 73.5964 12.8908C74.3484 11.3869 75.4226 10.2053 76.8191 9.34586C78.2371 8.46499 79.9022 8.02455 81.8143 8.02455C82.91 8.02455 83.9091 8.14272 84.8114 8.37905V2.35258L81.5243 1.96586V0.580088L87.3252 0H87.4218L88.1308 0.515635V24.7504H90V26.2329C89.3125 26.3833 88.7109 26.5014 88.1953 26.5874C87.7011 26.6733 87.1748 26.7163 86.6162 26.7163C86.0576 26.7163 85.6601 26.6196 85.4238 26.4262C85.1874 26.2329 85.0693 25.8247 85.0693 25.2016V24.1703C84.4677 24.9008 83.6727 25.5131 82.6844 26.0073C81.7176 26.5014 80.6649 26.7485 79.5262 26.7485ZM80.8153 24.4604C81.6532 24.4604 82.4374 24.2778 83.1679 23.9125C83.8983 23.5258 84.4462 23.0854 84.8114 22.5912V10.7961C84.6396 10.5383 84.2313 10.3127 83.5868 10.1193C82.9638 9.90447 82.2977 9.79704 81.5887 9.79704C79.9129 9.79704 78.5701 10.4416 77.5603 11.7307C76.572 12.9983 76.0779 14.9641 76.0779 17.6282C76.0779 19.9486 76.5183 21.6674 77.3992 22.7846C78.2801 23.9018 79.4188 24.4604 80.8153 24.4604Z" fill="#276164"/>
</svg>
