<svg width="317" height="53" viewBox="0 0 317 53" fill="none" xmlns="http://www.w3.org/2000/svg">
<rect width="316.969" height="52.1045" rx="8.68408" fill="white"/>
<path d="M19.6368 32.0522V20.9998H23.3713C24.2348 20.9998 24.9435 21.1473 25.4976 21.4423C26.0517 21.7337 26.4618 22.1349 26.728 22.6458C26.9943 23.1567 27.1274 23.7377 27.1274 24.3889C27.1274 25.0401 26.9943 25.6176 26.728 26.1213C26.4618 26.6249 26.0535 27.0207 25.503 27.3085C24.9525 27.5928 24.2492 27.7349 23.3929 27.7349H20.3707V26.526H23.3497C23.9397 26.526 24.4147 26.4397 24.7744 26.267C25.1378 26.0943 25.4005 25.8496 25.5624 25.533C25.7279 25.2128 25.8106 24.8314 25.8106 24.3889C25.8106 23.9464 25.7279 23.5596 25.5624 23.2286C25.3969 22.8976 25.1324 22.6422 24.769 22.4623C24.4057 22.2788 23.9254 22.1871 23.3281 22.1871H20.9751V32.0522H19.6368ZM24.8392 27.0873L27.5591 32.0522H26.0049L23.3281 27.0873H24.8392ZM32.5713 32.2249C31.7726 32.2249 31.0836 32.0486 30.5044 31.6961C29.9287 31.3399 29.4844 30.8434 29.1714 30.2066C28.862 29.5662 28.7073 28.8214 28.7073 27.9723C28.7073 27.1232 28.862 26.3749 29.1714 25.7273C29.4844 25.0761 29.9198 24.5688 30.4774 24.2054C31.0387 23.8384 31.6935 23.655 32.4418 23.655C32.8736 23.655 33.2999 23.7269 33.7208 23.8708C34.1418 24.0147 34.5249 24.2486 34.8703 24.5724C35.2157 24.8926 35.491 25.3171 35.696 25.846C35.9011 26.3749 36.0036 27.0261 36.0036 27.7996V28.3393H29.6139V27.2384H34.7084C34.7084 26.7707 34.6149 26.3533 34.4278 25.9863C34.2443 25.6194 33.9817 25.3297 33.6399 25.1175C33.3017 24.9052 32.9023 24.7991 32.4418 24.7991C31.9345 24.7991 31.4956 24.925 31.125 25.1768C30.758 25.4251 30.4756 25.7489 30.2777 26.1482C30.0799 26.5476 29.9809 26.9757 29.9809 27.4327V28.1666C29.9809 28.7926 30.0889 29.3233 30.3047 29.7586C30.5242 30.1904 30.8282 30.5196 31.2168 30.7462C31.6053 30.9693 32.0569 31.0808 32.5713 31.0808C32.9059 31.0808 33.2082 31.0341 33.478 30.9405C33.7514 30.8434 33.9871 30.6995 34.185 30.5088C34.3828 30.3145 34.5357 30.0735 34.6437 29.7856L35.8741 30.131C35.7446 30.5484 35.5269 30.9153 35.2211 31.2319C34.9153 31.545 34.5375 31.7896 34.0878 31.9659C33.6381 32.1386 33.1326 32.2249 32.5713 32.2249ZM39.2147 27.0657V32.0522H37.9411V23.7629H39.1715V25.0581H39.2795C39.4737 24.6372 39.7688 24.299 40.1645 24.0435C40.5603 23.7845 41.0712 23.655 41.6972 23.655C42.2584 23.655 42.7495 23.7701 43.1705 24.0003C43.5914 24.227 43.9188 24.5724 44.1527 25.0365C44.3865 25.497 44.5035 26.0799 44.5035 26.7851V32.0522H43.2299V26.8714C43.2299 26.2202 43.0608 25.7129 42.7226 25.3495C42.3844 24.9825 41.9202 24.7991 41.3302 24.7991C40.9237 24.7991 40.5603 24.8872 40.2401 25.0635C39.9235 25.2398 39.6734 25.497 39.4899 25.8352C39.3064 26.1734 39.2147 26.5836 39.2147 27.0657ZM50.4358 23.7629V24.8422H46.14V23.7629H50.4358ZM47.3921 21.7769H48.6657V29.6777C48.6657 30.0375 48.7179 30.3073 48.8222 30.4872C48.9301 30.6635 49.0668 30.7822 49.2323 30.8434C49.4014 30.9009 49.5795 30.9297 49.7666 30.9297C49.9069 30.9297 50.0221 30.9225 50.112 30.9081C50.202 30.8902 50.2739 30.8758 50.3279 30.865L50.5869 32.0091C50.5006 32.0415 50.38 32.0738 50.2253 32.1062C50.0706 32.1422 49.8746 32.1602 49.6371 32.1602C49.2773 32.1602 48.9247 32.0828 48.5793 31.9281C48.2376 31.7734 47.9533 31.5378 47.7267 31.2212C47.5036 30.9045 47.3921 30.5052 47.3921 30.0231V21.7769ZM59.0652 32.2465C58.5399 32.2465 58.0632 32.1476 57.635 31.9497C57.2069 31.7482 56.8669 31.4586 56.6151 31.0808C56.3632 30.6995 56.2373 30.2389 56.2373 29.6993C56.2373 29.2244 56.3308 28.8394 56.5179 28.5444C56.705 28.2458 56.955 28.0119 57.2681 27.8428C57.5811 27.6737 57.9265 27.5478 58.3042 27.465C58.6856 27.3787 59.0688 27.3103 59.4537 27.26C59.9574 27.1952 60.3658 27.1466 60.6788 27.1143C60.9954 27.0783 61.2256 27.0189 61.3696 26.9362C61.5171 26.8534 61.5908 26.7095 61.5908 26.5044V26.4612C61.5908 25.9288 61.4451 25.515 61.1537 25.22C60.8659 24.925 60.4287 24.7775 59.8423 24.7775C59.2343 24.7775 58.7575 24.9106 58.4122 25.1768C58.0668 25.4431 57.8239 25.7273 57.6836 26.0295L56.4747 25.5978C56.6906 25.0941 56.9784 24.7019 57.3382 24.4213C57.7016 24.1371 58.0974 23.9392 58.5255 23.8277C58.9572 23.7125 59.3818 23.655 59.7991 23.655C60.0654 23.655 60.3712 23.6873 60.7166 23.7521C61.0655 23.8133 61.4019 23.941 61.7257 24.1353C62.0531 24.3295 62.3248 24.6228 62.5406 25.0149C62.7565 25.4071 62.8644 25.9324 62.8644 26.5908V32.0522H61.5908V30.9297H61.5261C61.4397 31.1096 61.2958 31.3021 61.0943 31.5072C60.8928 31.7123 60.6248 31.8867 60.2902 32.0307C59.9556 32.1746 59.5473 32.2465 59.0652 32.2465ZM59.2594 31.1024C59.7631 31.1024 60.1877 31.0035 60.5331 30.8056C60.8821 30.6077 61.1447 30.3523 61.321 30.0393C61.5009 29.7263 61.5908 29.3971 61.5908 29.0517V27.886C61.5369 27.9507 61.4181 28.0101 61.2346 28.0641C61.0547 28.1144 60.8461 28.1594 60.6086 28.199C60.3748 28.235 60.1463 28.2674 59.9232 28.2961C59.7038 28.3213 59.5257 28.3429 59.389 28.3609C59.058 28.4041 58.7486 28.4742 58.4607 28.5714C58.1765 28.6649 57.9462 28.807 57.7699 28.9977C57.5973 29.1848 57.5109 29.4402 57.5109 29.764C57.5109 30.2066 57.6746 30.5412 58.002 30.7678C58.333 30.9909 58.7522 31.1024 59.2594 31.1024ZM66.4627 27.0657V32.0522H65.1891V23.7629H66.4195V25.0581H66.5275C66.7217 24.6372 67.0168 24.299 67.4125 24.0435C67.8083 23.7845 68.3192 23.655 68.9452 23.655C69.5065 23.655 69.9976 23.7701 70.4185 24.0003C70.8394 24.227 71.1668 24.5724 71.4007 25.0365C71.6346 25.497 71.7515 26.0799 71.7515 26.7851V32.0522H70.4779V26.8714C70.4779 26.2202 70.3088 25.7129 69.9706 25.3495C69.6324 24.9825 69.1683 24.7991 68.5782 24.7991C68.1717 24.7991 67.8083 24.8872 67.4881 25.0635C67.1715 25.2398 66.9214 25.497 66.7379 25.8352C66.5545 26.1734 66.4627 26.5836 66.4627 27.0657ZM77.2089 32.2249C76.5181 32.2249 75.9083 32.0504 75.3794 31.7015C74.8506 31.3489 74.4368 30.8524 74.1382 30.212C73.8396 29.568 73.6903 28.807 73.6903 27.9292C73.6903 27.0585 73.8396 26.3029 74.1382 25.6625C74.4368 25.0221 74.8524 24.5274 75.3848 24.1784C75.9173 23.8295 76.5325 23.655 77.2305 23.655C77.7702 23.655 78.1965 23.7449 78.5095 23.9248C78.8261 24.1011 79.0672 24.3026 79.2327 24.5292C79.4018 24.7523 79.5331 24.9358 79.6266 25.0797H79.7346V20.9998H81.0082V32.0522H79.7778V30.7786H79.6266C79.5331 30.9297 79.4 31.1204 79.2273 31.3507C79.0546 31.5773 78.8081 31.7806 78.4879 31.9605C78.1677 32.1368 77.7414 32.2249 77.2089 32.2249ZM77.3816 31.0808C77.8925 31.0808 78.3242 30.9477 78.6768 30.6815C79.0294 30.4116 79.2974 30.0393 79.4809 29.5644C79.6644 29.0859 79.7562 28.5336 79.7562 27.9076C79.7562 27.2887 79.6662 26.7473 79.4863 26.2832C79.3064 25.8154 79.0402 25.4521 78.6876 25.193C78.335 24.9304 77.8997 24.7991 77.3816 24.7991C76.8419 24.7991 76.3922 24.9376 76.0324 25.2146C75.6762 25.488 75.4082 25.8604 75.2283 26.3317C75.052 26.7994 74.9639 27.3247 74.9639 27.9076C74.9639 28.4976 75.0538 29.0337 75.2337 29.5158C75.4172 29.9943 75.687 30.3757 76.0432 30.6599C76.403 30.9405 76.8491 31.0808 77.3816 31.0808ZM87.9646 32.0522V20.9998H89.303V30.865H94.4406V32.0522H87.9646ZM99.8158 32.2249C99.017 32.2249 98.3281 32.0486 97.7488 31.6961C97.1732 31.3399 96.7288 30.8434 96.4158 30.2066C96.1064 29.5662 95.9517 28.8214 95.9517 27.9723C95.9517 27.1232 96.1064 26.3749 96.4158 25.7273C96.7288 25.0761 97.1642 24.5688 97.7218 24.2054C98.2831 23.8384 98.9379 23.655 99.6862 23.655C100.118 23.655 100.544 23.7269 100.965 23.8708C101.386 24.0147 101.769 24.2486 102.115 24.5724C102.46 24.8926 102.735 25.3171 102.94 25.846C103.146 26.3749 103.248 27.0261 103.248 27.7996V28.3393H96.8584V27.2384H101.953C101.953 26.7707 101.859 26.3533 101.672 25.9863C101.489 25.6194 101.226 25.3297 100.884 25.1175C100.546 24.9052 100.147 24.7991 99.6862 24.7991C99.1789 24.7991 98.74 24.925 98.3694 25.1768C98.0025 25.4251 97.72 25.7489 97.5221 26.1482C97.3243 26.5476 97.2253 26.9757 97.2253 27.4327V28.1666C97.2253 28.7926 97.3333 29.3233 97.5491 29.7586C97.7686 30.1904 98.0726 30.5196 98.4612 30.7462C98.8497 30.9693 99.3013 31.0808 99.8158 31.0808C100.15 31.0808 100.453 31.0341 100.722 30.9405C100.996 30.8434 101.231 30.6995 101.429 30.5088C101.627 30.3145 101.78 30.0735 101.888 29.7856L103.119 30.131C102.989 30.5484 102.771 30.9153 102.466 31.2319C102.16 31.545 101.782 31.7896 101.332 31.9659C100.883 32.1386 100.377 32.2249 99.8158 32.2249ZM107.625 32.2465C107.1 32.2465 106.623 32.1476 106.195 31.9497C105.767 31.7482 105.427 31.4586 105.175 31.0808C104.923 30.6995 104.797 30.2389 104.797 29.6993C104.797 29.2244 104.89 28.8394 105.078 28.5444C105.265 28.2458 105.515 28.0119 105.828 27.8428C106.141 27.6737 106.486 27.5478 106.864 27.465C107.245 27.3787 107.628 27.3103 108.013 27.26C108.517 27.1952 108.925 27.1466 109.238 27.1143C109.555 27.0783 109.785 27.0189 109.929 26.9362C110.077 26.8534 110.15 26.7095 110.15 26.5044V26.4612C110.15 25.9288 110.005 25.515 109.713 25.22C109.426 24.925 108.988 24.7775 108.402 24.7775C107.794 24.7775 107.317 24.9106 106.972 25.1768C106.626 25.4431 106.384 25.7273 106.243 26.0295L105.034 25.5978C105.25 25.0941 105.538 24.7019 105.898 24.4213C106.261 24.1371 106.657 23.9392 107.085 23.8277C107.517 23.7125 107.941 23.655 108.359 23.655C108.625 23.655 108.931 23.6873 109.276 23.7521C109.625 23.8133 109.962 23.941 110.285 24.1353C110.613 24.3295 110.884 24.6228 111.1 25.0149C111.316 25.4071 111.424 25.9324 111.424 26.5908V32.0522H110.15V30.9297H110.086C109.999 31.1096 109.855 31.3021 109.654 31.5072C109.452 31.7123 109.184 31.8867 108.85 32.0307C108.515 32.1746 108.107 32.2465 107.625 32.2465ZM107.819 31.1024C108.323 31.1024 108.747 31.0035 109.093 30.8056C109.442 30.6077 109.704 30.3523 109.881 30.0393C110.061 29.7263 110.15 29.3971 110.15 29.0517V27.886C110.096 27.9507 109.978 28.0101 109.794 28.0641C109.614 28.1144 109.406 28.1594 109.168 28.199C108.934 28.235 108.706 28.2674 108.483 28.2961C108.263 28.3213 108.085 28.3429 107.949 28.3609C107.618 28.4041 107.308 28.4742 107.02 28.5714C106.736 28.6649 106.506 28.807 106.33 28.9977C106.157 29.1848 106.071 29.4402 106.071 29.764C106.071 30.2066 106.234 30.5412 106.562 30.7678C106.893 30.9909 107.312 31.1024 107.819 31.1024ZM119.62 25.6194L118.476 25.9432C118.404 25.7525 118.298 25.5672 118.158 25.3873C118.021 25.2038 117.834 25.0527 117.597 24.934C117.359 24.8153 117.055 24.7559 116.685 24.7559C116.177 24.7559 115.755 24.8728 115.416 25.1067C115.082 25.3369 114.914 25.6302 114.914 25.9863C114.914 26.3029 115.03 26.553 115.26 26.7365C115.49 26.92 115.85 27.0729 116.339 27.1952L117.57 27.4974C118.311 27.6773 118.863 27.9525 119.226 28.3231C119.59 28.6901 119.771 29.1632 119.771 29.7425C119.771 30.2174 119.635 30.6419 119.361 31.0161C119.091 31.3902 118.714 31.6853 118.228 31.9011C117.742 32.117 117.177 32.2249 116.533 32.2249C115.688 32.2249 114.988 32.0415 114.434 31.6745C113.88 31.3075 113.529 30.7714 113.382 30.0663L114.591 29.764C114.706 30.2102 114.923 30.5448 115.244 30.7678C115.567 30.9909 115.99 31.1024 116.512 31.1024C117.105 31.1024 117.577 30.9765 117.926 30.7247C118.278 30.4692 118.455 30.1634 118.455 29.8072C118.455 29.5194 118.354 29.2783 118.152 29.0841C117.951 28.8862 117.642 28.7387 117.224 28.6415L115.843 28.3177C115.084 28.1378 114.526 27.859 114.17 27.4812C113.817 27.0999 113.641 26.6232 113.641 26.0511C113.641 25.5834 113.772 25.1696 114.035 24.8099C114.301 24.4501 114.663 24.1676 115.119 23.9626C115.58 23.7575 116.102 23.655 116.685 23.655C117.505 23.655 118.149 23.8348 118.617 24.1946C119.088 24.5544 119.422 25.0293 119.62 25.6194ZM125.164 32.2249C124.365 32.2249 123.676 32.0486 123.097 31.6961C122.522 31.3399 122.077 30.8434 121.764 30.2066C121.455 29.5662 121.3 28.8214 121.3 27.9723C121.3 27.1232 121.455 26.3749 121.764 25.7273C122.077 25.0761 122.513 24.5688 123.07 24.2054C123.631 23.8384 124.286 23.655 125.035 23.655C125.466 23.655 125.893 23.7269 126.314 23.8708C126.735 24.0147 127.118 24.2486 127.463 24.5724C127.809 24.8926 128.084 25.3171 128.289 25.846C128.494 26.3749 128.596 27.0261 128.596 27.7996V28.3393H122.207V27.2384H127.301C127.301 26.7707 127.208 26.3533 127.021 25.9863C126.837 25.6194 126.574 25.3297 126.233 25.1175C125.894 24.9052 125.495 24.7991 125.035 24.7991C124.527 24.7991 124.088 24.925 123.718 25.1768C123.351 25.4251 123.068 25.7489 122.871 26.1482C122.673 26.5476 122.574 26.9757 122.574 27.4327V28.1666C122.574 28.7926 122.682 29.3233 122.898 29.7586C123.117 30.1904 123.421 30.5196 123.81 30.7462C124.198 30.9693 124.65 31.0808 125.164 31.0808C125.499 31.0808 125.801 31.0341 126.071 30.9405C126.344 30.8434 126.58 30.6995 126.778 30.5088C126.976 30.3145 127.129 30.0735 127.236 29.7856L128.467 30.131C128.337 30.5484 128.12 30.9153 127.814 31.2319C127.508 31.545 127.13 31.7896 126.681 31.9659C126.231 32.1386 125.725 32.2249 125.164 32.2249Z" fill="black"/>
<path d="M200.598 25.9324V27.1196H195.762V25.9324H200.598ZM206.077 33.4338V19.6182H206.962V33.4338H206.077ZM209.056 23.7629C208.991 23.216 208.728 22.7915 208.268 22.4893C207.807 22.1871 207.242 22.0359 206.573 22.0359C206.084 22.0359 205.656 22.1151 205.289 22.2734C204.925 22.4317 204.641 22.6494 204.436 22.9264C204.234 23.2034 204.134 23.5182 204.134 23.8708C204.134 24.1658 204.204 24.4195 204.344 24.6318C204.488 24.8404 204.672 25.0149 204.895 25.1552C205.118 25.292 205.352 25.4053 205.596 25.4952C205.841 25.5816 206.066 25.6517 206.271 25.7057L207.393 26.0079C207.681 26.0835 208.001 26.1878 208.354 26.3209C208.71 26.4541 209.05 26.6357 209.374 26.866C209.701 27.0927 209.971 27.3841 210.183 27.7403C210.396 28.0965 210.502 28.5336 210.502 29.0517C210.502 29.6489 210.345 30.1886 210.032 30.6707C209.723 31.1528 209.27 31.536 208.672 31.8202C208.079 32.1044 207.357 32.2465 206.508 32.2465C205.717 32.2465 205.031 32.1188 204.452 31.8634C203.876 31.6079 203.423 31.2517 203.092 30.7948C202.765 30.3379 202.579 29.8072 202.536 29.2028H203.918C203.954 29.6201 204.094 29.9655 204.339 30.2389C204.587 30.5088 204.9 30.7103 205.278 30.8434C205.659 30.9729 206.069 31.0377 206.508 31.0377C207.019 31.0377 207.478 30.9549 207.884 30.7894C208.291 30.6203 208.613 30.3865 208.85 30.0878C209.088 29.7856 209.207 29.433 209.207 29.0301C209.207 28.6631 209.104 28.3645 208.899 28.1342C208.694 27.904 208.424 27.7169 208.089 27.573C207.755 27.4291 207.393 27.3031 207.005 27.1952L205.645 26.8066C204.781 26.5584 204.098 26.204 203.594 25.7435C203.09 25.283 202.838 24.6803 202.838 23.9356C202.838 23.3168 203.006 22.7771 203.34 22.3166C203.679 21.8525 204.132 21.4927 204.7 21.2372C205.272 20.9782 205.911 20.8487 206.616 20.8487C207.329 20.8487 207.962 20.9764 208.516 21.2318C209.07 21.4837 209.509 21.8291 209.833 22.268C210.16 22.7069 210.333 23.2052 210.351 23.7629H209.056ZM212.853 32.0522L217.797 22.2734V22.1871H212.098V20.9998H219.178V22.2518L214.257 32.0522H212.853ZM224.56 20.8487C225.014 20.8523 225.467 20.9386 225.92 21.1077C226.374 21.2768 226.787 21.5574 227.161 21.9496C227.536 22.3382 227.836 22.8688 228.063 23.5416C228.289 24.2144 228.403 25.0581 228.403 26.0727C228.403 27.0549 228.309 27.9274 228.122 28.6901C227.939 29.4492 227.672 30.0896 227.323 30.6113C226.978 31.133 226.557 31.5288 226.061 31.7986C225.568 32.0684 225.01 32.2034 224.388 32.2034C223.769 32.2034 223.216 32.081 222.731 31.8364C222.249 31.5881 221.853 31.2445 221.544 30.8056C221.238 30.3631 221.042 29.8504 220.955 29.2675H222.272C222.391 29.7748 222.626 30.194 222.979 30.525C223.335 30.8524 223.805 31.0161 224.388 31.0161C225.24 31.0161 225.913 30.6437 226.406 29.899C226.902 29.1542 227.151 28.1019 227.151 26.7419H227.064C226.863 27.0441 226.624 27.3049 226.347 27.5244C226.07 27.7439 225.762 27.913 225.424 28.0317C225.086 28.1504 224.726 28.2098 224.344 28.2098C223.711 28.2098 223.13 28.0533 222.601 27.7403C222.076 27.4237 221.655 26.9901 221.338 26.4397C221.025 25.8856 220.869 25.2524 220.869 24.54C220.869 23.8636 221.02 23.2448 221.322 22.6835C221.628 22.1187 222.056 21.669 222.607 21.3344C223.161 20.9998 223.812 20.8379 224.56 20.8487ZM224.56 22.0359C224.107 22.0359 223.699 22.1493 223.335 22.3759C222.975 22.599 222.689 22.9012 222.477 23.2826C222.268 23.6604 222.164 24.0795 222.164 24.54C222.164 25.0005 222.265 25.4197 222.466 25.7975C222.671 26.1716 222.95 26.4702 223.303 26.6933C223.659 26.9128 224.064 27.0225 224.517 27.0225C224.859 27.0225 225.177 26.9559 225.472 26.8228C225.767 26.6861 226.025 26.5008 226.244 26.267C226.467 26.0295 226.642 25.7615 226.768 25.4629C226.893 25.1606 226.956 24.8458 226.956 24.5184C226.956 24.0867 226.852 23.6819 226.643 23.3042C226.438 22.9264 226.154 22.6206 225.791 22.3867C225.431 22.1529 225.021 22.0359 224.56 22.0359ZM234.044 20.8487C234.497 20.8523 234.95 20.9386 235.404 21.1077C235.857 21.2768 236.271 21.5574 236.645 21.9496C237.019 22.3382 237.319 22.8688 237.546 23.5416C237.773 24.2144 237.886 25.0581 237.886 26.0727C237.886 27.0549 237.793 27.9274 237.605 28.6901C237.422 29.4492 237.156 30.0896 236.807 30.6113C236.461 31.133 236.04 31.5288 235.544 31.7986C235.051 32.0684 234.493 32.2034 233.871 32.2034C233.252 32.2034 232.7 32.081 232.214 31.8364C231.732 31.5881 231.336 31.2445 231.027 30.8056C230.721 30.3631 230.525 29.8504 230.439 29.2675H231.755C231.874 29.7748 232.11 30.194 232.462 30.525C232.819 30.8524 233.288 31.0161 233.871 31.0161C234.724 31.0161 235.396 30.6437 235.889 29.899C236.386 29.1542 236.634 28.1019 236.634 26.7419H236.548C236.346 27.0441 236.107 27.3049 235.83 27.5244C235.553 27.7439 235.245 27.913 234.907 28.0317C234.569 28.1504 234.209 28.2098 233.828 28.2098C233.195 28.2098 232.614 28.0533 232.085 27.7403C231.559 27.4237 231.138 26.9901 230.822 26.4397C230.509 25.8856 230.352 25.2524 230.352 24.54C230.352 23.8636 230.503 23.2448 230.806 22.6835C231.111 22.1187 231.54 21.669 232.09 21.3344C232.644 20.9998 233.295 20.8379 234.044 20.8487ZM234.044 22.0359C233.59 22.0359 233.182 22.1493 232.819 22.3759C232.459 22.599 232.173 22.9012 231.961 23.2826C231.752 23.6604 231.648 24.0795 231.648 24.54C231.648 25.0005 231.748 25.4197 231.95 25.7975C232.155 26.1716 232.434 26.4702 232.786 26.6933C233.142 26.9128 233.547 27.0225 234 27.0225C234.342 27.0225 234.661 26.9559 234.956 26.8228C235.251 26.6861 235.508 26.5008 235.727 26.267C235.95 26.0295 236.125 25.7615 236.251 25.4629C236.377 25.1606 236.44 24.8458 236.44 24.5184C236.44 24.0867 236.335 23.6819 236.127 23.3042C235.922 22.9264 235.637 22.6206 235.274 22.3867C234.914 22.1529 234.504 22.0359 234.044 22.0359Z" fill="black"/>
<rect x="264.917" y="8.68408" width="43.3682" height="34.7363" rx="4.34204" fill="#F3F6FF"/>
<path d="M277.82 31.1818C277.398 31.1756 276.981 31.0985 276.571 30.9505C276.164 30.8025 275.794 30.5557 275.461 30.2104C275.128 29.865 274.861 29.4009 274.661 28.818C274.463 28.2352 274.365 27.5074 274.365 26.6346C274.365 25.8082 274.447 25.0742 274.61 24.4328C274.777 23.7914 275.016 23.2501 275.327 22.8092C275.638 22.3651 276.015 22.0274 276.456 21.7961C276.897 21.5648 277.392 21.4492 277.941 21.4492C278.505 21.4492 279.006 21.5602 279.444 21.7822C279.882 22.0043 280.236 22.3111 280.508 22.7028C280.782 23.0944 280.957 23.54 281.031 24.0396H279.62C279.524 23.6449 279.334 23.3226 279.051 23.0728C278.767 22.823 278.397 22.6981 277.941 22.6981C277.247 22.6981 276.705 23.0003 276.317 23.6048C275.931 24.2092 275.737 25.0496 275.734 26.1258H275.803C275.967 25.8575 276.167 25.6293 276.405 25.4412C276.645 25.25 276.914 25.1035 277.21 25.0018C277.509 24.8969 277.823 24.8445 278.153 24.8445C278.702 24.8445 279.199 24.9786 279.643 25.2469C280.09 25.5121 280.446 25.8791 280.711 26.3479C280.977 26.8166 281.109 27.3532 281.109 27.9576C281.109 28.562 280.972 29.1094 280.697 29.5998C280.426 30.0901 280.044 30.4787 279.55 30.7654C279.057 31.0492 278.48 31.1879 277.82 31.1818ZM277.816 29.9791C278.18 29.9791 278.505 29.8896 278.792 29.7108C279.078 29.5319 279.305 29.2914 279.472 28.9892C279.638 28.6869 279.721 28.3493 279.721 27.9761C279.721 27.6122 279.64 27.2807 279.476 26.9816C279.316 26.6824 279.094 26.445 278.81 26.2692C278.53 26.0934 278.209 26.0055 277.848 26.0055C277.574 26.0055 277.319 26.058 277.085 26.1628C276.853 26.2677 276.65 26.4126 276.474 26.5976C276.298 26.7827 276.16 26.9955 276.058 27.236C275.959 27.4735 275.91 27.7248 275.91 27.99C275.91 28.3446 275.992 28.6731 276.155 28.9753C276.322 29.2775 276.548 29.5211 276.835 29.7062C277.125 29.8881 277.452 29.9791 277.816 29.9791ZM286.388 21.5787V31.0522H284.954V23.0127H284.899L282.632 24.4929V23.1237L284.996 21.5787H286.388ZM293.896 29.276V28.7764C293.896 28.4186 293.97 28.0918 294.118 27.7957C294.269 27.4966 294.488 27.2576 294.775 27.0787C295.065 26.8968 295.415 26.8058 295.825 26.8058C296.244 26.8058 296.596 26.8952 296.88 27.0741C297.163 27.253 297.378 27.492 297.523 27.7911C297.671 28.0902 297.745 28.4186 297.745 28.7764V29.276C297.745 29.6337 297.671 29.9621 297.523 30.2612C297.374 30.5573 297.157 30.7963 296.87 30.9782C296.587 31.1571 296.238 31.2465 295.825 31.2465C295.409 31.2465 295.057 31.1571 294.77 30.9782C294.483 30.7963 294.266 30.5573 294.118 30.2612C293.97 29.9621 293.896 29.6337 293.896 29.276ZM294.974 28.7764V29.276C294.974 29.5412 295.037 29.7817 295.163 29.9976C295.29 30.2134 295.51 30.3214 295.825 30.3214C296.136 30.3214 296.354 30.2134 296.477 29.9976C296.6 29.7817 296.662 29.5412 296.662 29.276V28.7764C296.662 28.5112 296.602 28.2706 296.482 28.0548C296.365 27.8389 296.146 27.731 295.825 27.731C295.516 27.731 295.298 27.8389 295.168 28.0548C295.038 28.2706 294.974 28.5112 294.974 28.7764ZM289.131 23.8546V23.355C289.131 22.9973 289.205 22.6688 289.353 22.3697C289.505 22.0706 289.723 21.8316 290.01 21.6527C290.3 21.4738 290.65 21.3844 291.06 21.3844C291.48 21.3844 291.831 21.4738 292.115 21.6527C292.399 21.8316 292.613 22.0706 292.758 22.3697C292.903 22.6688 292.975 22.9973 292.975 23.355V23.8546C292.975 24.2123 292.901 24.5407 292.753 24.8399C292.608 25.1359 292.393 25.3749 292.106 25.5568C291.822 25.7357 291.474 25.8251 291.06 25.8251C290.641 25.8251 290.288 25.7357 290.001 25.5568C289.717 25.3749 289.501 25.1359 289.353 24.8399C289.205 24.5407 289.131 24.2123 289.131 23.8546ZM290.214 23.355V23.8546C290.214 24.1198 290.275 24.3603 290.399 24.5762C290.525 24.7921 290.746 24.9 291.06 24.9C291.369 24.9 291.585 24.7921 291.708 24.5762C291.834 24.3603 291.898 24.1198 291.898 23.8546V23.355C291.898 23.0898 291.837 22.8492 291.717 22.6334C291.597 22.4175 291.378 22.3096 291.06 22.3096C290.752 22.3096 290.533 22.4175 290.403 22.6334C290.277 22.8492 290.214 23.0898 290.214 23.355ZM289.571 31.0522L296.084 21.5787H297.189L290.676 31.0522H289.571Z" fill="#4D6CA3"/>
</svg>
