<svg width="529" height="324" viewBox="0 0 529 324" fill="none" xmlns="http://www.w3.org/2000/svg">
<rect width="528.644" height="323.482" rx="26.0523" fill="white"/>
<path d="M35.8265 40.6839H38.2766L41.5578 48.6926H41.6873L44.9685 40.6839H47.4186V51.7363H45.4974V44.1432H45.3948L42.3403 51.7039H40.9048L37.8502 44.127H37.7477V51.7363H35.8265V40.6839ZM53.1283 51.8982C52.3188 51.8982 51.6173 51.7201 51.0236 51.364C50.43 51.0078 49.9695 50.5095 49.6421 49.8691C49.3183 49.2287 49.1563 48.4803 49.1563 47.624C49.1563 46.7678 49.3183 46.0176 49.6421 45.3736C49.9695 44.7296 50.43 44.2295 51.0236 43.8733C51.6173 43.5171 52.3188 43.339 53.1283 43.339C53.9378 43.339 54.6394 43.5171 55.2331 43.8733C55.8267 44.2295 56.2854 44.7296 56.6092 45.3736C56.9366 46.0176 57.1003 46.7678 57.1003 47.624C57.1003 48.4803 56.9366 49.2287 56.6092 49.8691C56.2854 50.5095 55.8267 51.0078 55.2331 51.364C54.6394 51.7201 53.9378 51.8982 53.1283 51.8982ZM53.1391 50.3332C53.5781 50.3332 53.945 50.2127 54.2401 49.9716C54.5351 49.727 54.7545 49.3996 54.8985 48.9894C55.046 48.5793 55.1197 48.1223 55.1197 47.6186C55.1197 47.1113 55.046 46.6526 54.8985 46.2425C54.7545 45.8287 54.5351 45.4995 54.2401 45.2549C53.945 45.0102 53.5781 44.8879 53.1391 44.8879C52.6894 44.8879 52.3152 45.0102 52.0166 45.2549C51.7216 45.4995 51.5003 45.8287 51.3528 46.2425C51.2089 46.6526 51.1369 47.1113 51.1369 47.6186C51.1369 48.1223 51.2089 48.5793 51.3528 48.9894C51.5003 49.3996 51.7216 49.727 52.0166 49.9716C52.3152 50.2127 52.6894 50.3332 53.1391 50.3332ZM60.7121 46.8793V51.7363H58.7585V43.447H60.6257V44.8555H60.7229C60.9135 44.3914 61.2176 44.0226 61.6349 43.7492C62.0558 43.4758 62.5757 43.339 63.1946 43.339C63.7666 43.339 64.2649 43.4614 64.6894 43.706C65.1176 43.9507 65.4486 44.3051 65.6824 44.7692C65.9199 45.2333 66.0368 45.7963 66.0332 46.4583V51.7363H64.0796V46.7606C64.0796 46.2065 63.9357 45.773 63.6479 45.4599C63.3637 45.1469 62.9697 44.9904 62.466 44.9904C62.1242 44.9904 61.8202 45.066 61.554 45.2171C61.2913 45.3646 61.0844 45.5787 60.9333 45.8593C60.7858 46.1399 60.7121 46.4799 60.7121 46.8793ZM72.1585 43.447V44.9581H67.3932V43.447H72.1585ZM68.5697 41.461H70.5233V49.243C70.5233 49.5057 70.5629 49.7072 70.642 49.8475C70.7248 49.9842 70.8327 50.0777 70.9658 50.1281C71.0989 50.1785 71.2465 50.2037 71.4084 50.2037C71.5307 50.2037 71.6422 50.1947 71.7429 50.1767C71.8473 50.1587 71.9264 50.1425 71.9804 50.1281L72.3096 51.6554C72.2053 51.6914 72.056 51.7309 71.8617 51.7741C71.671 51.8173 71.4371 51.8425 71.1601 51.8497C70.6708 51.8641 70.2301 51.7903 69.8379 51.6284C69.4457 51.4629 69.1345 51.2075 68.9043 50.8621C68.6776 50.5167 68.5661 50.0849 68.5697 49.5668V41.461ZM75.9241 46.8793V51.7363H73.9704V40.6839H75.8809V44.8555H75.978C76.1723 44.3878 76.4727 44.019 76.8793 43.7492C77.2894 43.4758 77.8111 43.339 78.4443 43.339C79.02 43.339 79.5219 43.4596 79.95 43.7006C80.3781 43.9417 80.7091 44.2943 80.943 44.7584C81.1805 45.2225 81.2992 45.7891 81.2992 46.4583V51.7363H79.3456V46.7606C79.3456 46.2029 79.2017 45.7694 78.9138 45.4599C78.6296 45.1469 78.2303 44.9904 77.7158 44.9904C77.3704 44.9904 77.061 45.066 76.7875 45.2171C76.5177 45.3646 76.3054 45.5787 76.1507 45.8593C75.9996 46.1399 75.9241 46.4799 75.9241 46.8793ZM85.2442 40.6839V51.7363H83.2906V40.6839H85.2442ZM88.4674 54.8448C88.2011 54.8448 87.9547 54.8232 87.728 54.7801C87.505 54.7405 87.3269 54.6937 87.1937 54.6398L87.6471 53.1179C87.9313 53.2006 88.1849 53.2402 88.408 53.2366C88.6311 53.233 88.8272 53.1629 88.9962 53.0261C89.1689 52.893 89.3147 52.67 89.4334 52.357L89.6007 51.909L86.5947 43.447H88.667L90.5775 49.7072H90.6638L92.5797 43.447H94.6574L91.3384 52.7401C91.1837 53.179 90.9786 53.555 90.7232 53.868C90.4678 54.1846 90.1547 54.4257 89.7842 54.5912C89.4172 54.7603 88.9783 54.8448 88.4674 54.8448ZM109.326 44.413H107.307C107.25 44.082 107.144 43.7888 106.989 43.5333C106.834 43.2743 106.642 43.0548 106.411 42.8749C106.181 42.695 105.919 42.5601 105.624 42.4702C105.332 42.3766 105.017 42.3299 104.679 42.3299C104.078 42.3299 103.546 42.481 103.082 42.7832C102.618 43.0818 102.254 43.5207 101.992 44.1C101.729 44.6756 101.598 45.379 101.598 46.2101C101.598 47.0556 101.729 47.7679 101.992 48.3472C102.258 48.9228 102.621 49.3582 103.082 49.6532C103.546 49.9446 104.076 50.0903 104.674 50.0903C105.005 50.0903 105.314 50.0472 105.602 49.9608C105.893 49.8709 106.154 49.7395 106.384 49.5668C106.618 49.3942 106.814 49.1819 106.973 48.93C107.135 48.6782 107.246 48.3904 107.307 48.0666L109.326 48.0774C109.25 48.6026 109.086 49.0955 108.835 49.5561C108.586 50.0166 108.261 50.4231 107.858 50.7757C107.455 51.1247 106.983 51.3981 106.444 51.596C105.904 51.7903 105.305 51.8874 104.647 51.8874C103.675 51.8874 102.808 51.6626 102.046 51.2128C101.283 50.7631 100.682 50.1137 100.243 49.2646C99.8041 48.4155 99.5846 47.3974 99.5846 46.2101C99.5846 45.0192 99.8059 44.001 100.248 43.1556C100.691 42.3065 101.294 41.6571 102.056 41.2073C102.819 40.7576 103.683 40.5327 104.647 40.5327C105.262 40.5327 105.834 40.6191 106.363 40.7918C106.892 40.9645 107.363 41.2181 107.777 41.5527C108.191 41.8837 108.531 42.2903 108.797 42.7724C109.067 43.2509 109.243 43.7978 109.326 44.413ZM113.458 51.9036C112.933 51.9036 112.46 51.8101 112.039 51.623C111.622 51.4323 111.291 51.1517 111.046 50.7811C110.805 50.4105 110.684 49.9536 110.684 49.4103C110.684 48.9426 110.771 48.5559 110.943 48.2501C111.116 47.9442 111.352 47.6996 111.65 47.5161C111.949 47.3326 112.285 47.1941 112.659 47.1006C113.037 47.0034 113.428 46.9333 113.831 46.8901C114.316 46.8397 114.71 46.7947 115.012 46.7552C115.315 46.712 115.534 46.6472 115.671 46.5609C115.811 46.4709 115.881 46.3324 115.881 46.1453V46.113C115.881 45.7064 115.761 45.3916 115.52 45.1685C115.279 44.9455 114.932 44.8339 114.478 44.8339C114 44.8339 113.62 44.9383 113.339 45.1469C113.062 45.3556 112.875 45.6021 112.778 45.8863L110.954 45.6272C111.098 45.1236 111.335 44.7026 111.666 44.3644C111.997 44.0226 112.402 43.7672 112.881 43.5981C113.359 43.4254 113.888 43.339 114.467 43.339C114.867 43.339 115.264 43.3858 115.66 43.4794C116.056 43.5729 116.417 43.7276 116.745 43.9435C117.072 44.1557 117.335 44.4454 117.533 44.8123C117.734 45.1793 117.835 45.638 117.835 46.1885V51.7363H115.957V50.5976H115.892C115.773 50.8279 115.606 51.0437 115.39 51.2452C115.178 51.4431 114.91 51.6032 114.586 51.7255C114.266 51.8443 113.89 51.9036 113.458 51.9036ZM113.965 50.4681C114.358 50.4681 114.698 50.3907 114.985 50.236C115.273 50.0777 115.495 49.8691 115.649 49.61C115.808 49.351 115.887 49.0686 115.887 48.7627V47.7859C115.826 47.8363 115.721 47.8831 115.574 47.9262C115.43 47.9694 115.268 48.0072 115.088 48.0396C114.908 48.072 114.73 48.1007 114.554 48.1259C114.377 48.1511 114.225 48.1727 114.095 48.1907C113.804 48.2303 113.543 48.295 113.312 48.385C113.082 48.4749 112.901 48.6008 112.767 48.7627C112.634 48.921 112.568 49.1261 112.568 49.378C112.568 49.7377 112.699 50.0094 112.962 50.1929C113.224 50.3764 113.559 50.4681 113.965 50.4681ZM126.351 45.638L124.57 45.8323C124.52 45.6524 124.432 45.4833 124.306 45.325C124.183 45.1667 124.018 45.039 123.809 44.9419C123.6 44.8447 123.345 44.7962 123.043 44.7962C122.636 44.7962 122.294 44.8843 122.017 45.0606C121.744 45.2369 121.609 45.4653 121.613 45.746C121.609 45.987 121.697 46.1831 121.877 46.3342C122.061 46.4853 122.363 46.6094 122.784 46.7066L124.198 47.0088C124.982 47.1779 125.565 47.4459 125.946 47.8129C126.331 48.1799 126.525 48.6602 126.529 49.2538C126.525 49.7755 126.373 50.236 126.07 50.6354C125.772 51.0312 125.356 51.3406 124.824 51.5636C124.291 51.7867 123.68 51.8982 122.989 51.8982C121.974 51.8982 121.158 51.686 120.539 51.2614C119.92 50.8333 119.551 50.2378 119.432 49.4751L121.337 49.2916C121.424 49.6658 121.607 49.9482 121.888 50.1389C122.169 50.3296 122.534 50.4249 122.983 50.4249C123.448 50.4249 123.82 50.3296 124.101 50.1389C124.385 49.9482 124.527 49.7126 124.527 49.4319C124.527 49.1945 124.435 48.9984 124.252 48.8437C124.072 48.689 123.791 48.5703 123.41 48.4875L121.996 48.1907C121.201 48.0252 120.612 47.7464 120.231 47.3542C119.85 46.9584 119.661 46.4583 119.664 45.8539C119.661 45.343 119.799 44.9005 120.08 44.5263C120.364 44.1485 120.758 43.8571 121.262 43.652C121.769 43.4434 122.354 43.339 123.016 43.339C123.987 43.339 124.752 43.5459 125.309 43.9597C125.871 44.3734 126.218 44.9329 126.351 45.638ZM130.094 46.8793V51.7363H128.14V40.6839H130.05V44.8555H130.148C130.342 44.3878 130.642 44.019 131.049 43.7492C131.459 43.4758 131.981 43.339 132.614 43.339C133.189 43.339 133.691 43.4596 134.12 43.7006C134.548 43.9417 134.879 44.2943 135.113 44.7584C135.35 45.2225 135.469 45.7891 135.469 46.4583V51.7363H133.515V46.7606C133.515 46.2029 133.371 45.7694 133.083 45.4599C132.799 45.1469 132.4 44.9904 131.885 44.9904C131.54 44.9904 131.23 45.066 130.957 45.2171C130.687 45.3646 130.475 45.5787 130.32 45.8593C130.169 46.1399 130.094 46.4799 130.094 46.8793ZM147.323 43.7222C147.272 43.2509 147.06 42.8839 146.686 42.6213C146.315 42.3586 145.833 42.2273 145.239 42.2273C144.822 42.2273 144.464 42.2903 144.166 42.4162C143.867 42.5421 143.638 42.713 143.48 42.9289C143.322 43.1448 143.241 43.3912 143.237 43.6682C143.237 43.8985 143.289 44.0982 143.394 44.2673C143.502 44.4364 143.647 44.5803 143.831 44.699C144.014 44.8141 144.218 44.9113 144.441 44.9904C144.664 45.0696 144.889 45.1361 145.115 45.1901L146.151 45.4492C146.569 45.5463 146.97 45.6776 147.355 45.8431C147.744 46.0086 148.091 46.2173 148.397 46.4691C148.706 46.721 148.951 47.025 149.13 47.3812C149.31 47.7374 149.4 48.1547 149.4 48.6332C149.4 49.2808 149.235 49.8511 148.904 50.344C148.573 50.8333 148.094 51.2164 147.468 51.4935C146.846 51.7669 146.092 51.9036 145.207 51.9036C144.347 51.9036 143.601 51.7705 142.967 51.5043C142.338 51.238 141.845 50.8495 141.489 50.3386C141.136 49.8277 140.945 49.2053 140.917 48.4713H142.886C142.915 48.8563 143.034 49.1765 143.243 49.4319C143.451 49.6874 143.723 49.8781 144.058 50.004C144.396 50.1299 144.774 50.1929 145.191 50.1929C145.626 50.1929 146.008 50.1281 146.335 49.9986C146.666 49.8655 146.925 49.682 147.112 49.4481C147.299 49.2107 147.395 48.9336 147.398 48.617C147.395 48.3292 147.31 48.0917 147.144 47.9047C146.979 47.714 146.747 47.5557 146.448 47.4297C146.153 47.3002 145.808 47.1851 145.412 47.0844L144.155 46.7606C143.244 46.5267 142.525 46.1723 141.996 45.6974C141.471 45.2189 141.208 44.5839 141.208 43.7924C141.208 43.1412 141.384 42.5709 141.737 42.0816C142.093 41.5923 142.577 41.2127 143.189 40.9429C143.8 40.6695 144.493 40.5327 145.266 40.5327C146.051 40.5327 146.738 40.6695 147.328 40.9429C147.922 41.2127 148.388 41.5887 148.726 42.0708C149.064 42.5493 149.238 43.0998 149.249 43.7222H147.323ZM156.382 48.2501V43.447H158.336V51.7363H156.442V50.263H156.355C156.168 50.7271 155.861 51.1067 155.433 51.4017C155.008 51.6968 154.484 51.8443 153.862 51.8443C153.319 51.8443 152.838 51.7237 152.421 51.4827C152.007 51.238 151.684 50.8836 151.45 50.4195C151.216 49.9518 151.099 49.387 151.099 48.725V43.447H153.053V48.4227C153.053 48.948 153.196 49.3654 153.484 49.6748C153.772 49.9842 154.15 50.1389 154.618 50.1389C154.905 50.1389 155.184 50.0687 155.454 49.9284C155.724 49.7881 155.945 49.5794 156.118 49.3024C156.294 49.0218 156.382 48.671 156.382 48.2501ZM160.345 51.7363V43.447H162.212V44.8555H162.309C162.482 44.3806 162.768 44.01 163.167 43.7438C163.567 43.474 164.043 43.339 164.597 43.339C165.159 43.339 165.632 43.4758 166.017 43.7492C166.405 44.019 166.679 44.3878 166.837 44.8555H166.923C167.107 44.395 167.416 44.028 167.852 43.7546C168.291 43.4776 168.811 43.339 169.411 43.339C170.174 43.339 170.796 43.5801 171.279 44.0622C171.761 44.5443 172.002 45.2477 172.002 46.1723V51.7363H170.043V46.4745C170.043 45.96 169.906 45.5841 169.633 45.3466C169.359 45.1056 169.025 44.985 168.629 44.985C168.158 44.985 167.789 45.1325 167.522 45.4276C167.26 45.719 167.129 46.0986 167.129 46.5663V51.7363H165.213V46.3936C165.213 45.9654 165.083 45.6236 164.824 45.3682C164.569 45.1128 164.234 44.985 163.82 44.985C163.54 44.985 163.284 45.057 163.054 45.2009C162.824 45.3412 162.64 45.5409 162.504 45.7999C162.367 46.0554 162.298 46.354 162.298 46.6958V51.7363H160.345ZM173.984 51.7363V43.447H175.851V44.8555H175.948C176.121 44.3806 176.407 44.01 176.806 43.7438C177.206 43.474 177.682 43.339 178.236 43.339C178.798 43.339 179.271 43.4758 179.656 43.7492C180.044 44.019 180.318 44.3878 180.476 44.8555H180.562C180.746 44.395 181.055 44.028 181.491 43.7546C181.929 43.4776 182.449 43.339 183.05 43.339C183.813 43.339 184.435 43.5801 184.917 44.0622C185.4 44.5443 185.641 45.2477 185.641 46.1723V51.7363H183.682V46.4745C183.682 45.96 183.545 45.5841 183.271 45.3466C182.998 45.1056 182.663 44.985 182.268 44.985C181.796 44.985 181.428 45.1325 181.161 45.4276C180.899 45.719 180.767 46.0986 180.767 46.5663V51.7363H178.852V46.3936C178.852 45.9654 178.722 45.6236 178.463 45.3682C178.208 45.1128 177.873 44.985 177.459 44.985C177.179 44.985 176.923 45.057 176.693 45.2009C176.463 45.3412 176.279 45.5409 176.142 45.7999C176.006 46.0554 175.937 46.354 175.937 46.6958V51.7363H173.984ZM190.008 51.9036C189.483 51.9036 189.01 51.8101 188.589 51.623C188.171 51.4323 187.84 51.1517 187.596 50.7811C187.355 50.4105 187.234 49.9536 187.234 49.4103C187.234 48.9426 187.32 48.5559 187.493 48.2501C187.666 47.9442 187.901 47.6996 188.2 47.5161C188.499 47.3326 188.835 47.1941 189.209 47.1006C189.587 47.0034 189.977 46.9333 190.38 46.8901C190.866 46.8397 191.26 46.7947 191.562 46.7552C191.864 46.712 192.084 46.6472 192.221 46.5609C192.361 46.4709 192.431 46.3324 192.431 46.1453V46.113C192.431 45.7064 192.311 45.3916 192.069 45.1685C191.828 44.9455 191.481 44.8339 191.028 44.8339C190.549 44.8339 190.17 44.9383 189.889 45.1469C189.612 45.3556 189.425 45.6021 189.328 45.8863L187.504 45.6272C187.648 45.1236 187.885 44.7026 188.216 44.3644C188.547 44.0226 188.952 43.7672 189.43 43.5981C189.909 43.4254 190.438 43.339 191.017 43.339C191.416 43.339 191.814 43.3858 192.21 43.4794C192.606 43.5729 192.967 43.7276 193.295 43.9435C193.622 44.1557 193.885 44.4454 194.082 44.8123C194.284 45.1793 194.385 45.638 194.385 46.1885V51.7363H192.507V50.5976H192.442C192.323 50.8279 192.156 51.0437 191.94 51.2452C191.728 51.4431 191.46 51.6032 191.136 51.7255C190.816 51.8443 190.44 51.9036 190.008 51.9036ZM190.515 50.4681C190.907 50.4681 191.247 50.3907 191.535 50.236C191.823 50.0777 192.044 49.8691 192.199 49.61C192.357 49.351 192.436 49.0686 192.436 48.7627V47.7859C192.375 47.8363 192.271 47.8831 192.123 47.9262C191.98 47.9694 191.818 48.0072 191.638 48.0396C191.458 48.072 191.28 48.1007 191.103 48.1259C190.927 48.1511 190.774 48.1727 190.645 48.1907C190.353 48.2303 190.092 48.295 189.862 48.385C189.632 48.4749 189.45 48.6008 189.317 48.7627C189.184 48.921 189.117 49.1261 189.117 49.378C189.117 49.7377 189.249 50.0094 189.511 50.1929C189.774 50.3764 190.109 50.4681 190.515 50.4681ZM196.349 51.7363V43.447H198.243V44.8285H198.33C198.481 44.35 198.74 43.9812 199.107 43.7222C199.477 43.4596 199.9 43.3282 200.375 43.3282C200.483 43.3282 200.603 43.3336 200.737 43.3444C200.873 43.3516 200.987 43.3642 201.077 43.3822V45.1793C200.994 45.1505 200.863 45.1254 200.683 45.1038C200.506 45.0786 200.335 45.066 200.17 45.066C199.814 45.066 199.494 45.1433 199.209 45.298C198.929 45.4492 198.707 45.6596 198.546 45.9295C198.384 46.1993 198.303 46.5105 198.303 46.8631V51.7363H196.349ZM203.841 54.8448C203.575 54.8448 203.328 54.8232 203.102 54.7801C202.879 54.7405 202.701 54.6937 202.567 54.6398L203.021 53.1179C203.305 53.2006 203.559 53.2402 203.782 53.2366C204.005 53.233 204.201 53.1629 204.37 53.0261C204.543 52.893 204.688 52.67 204.807 52.357L204.974 51.909L201.968 43.447H204.041L205.951 49.7072H206.037L207.953 43.447H210.031L206.712 52.7401C206.557 53.179 206.352 53.555 206.097 53.868C205.841 54.1846 205.528 54.4257 205.158 54.5912C204.791 54.7603 204.352 54.8448 203.841 54.8448Z" fill="#1D1D1D"/>
<path d="M456.523 41.6607H457.893L461.112 49.5245H461.223L464.443 41.6607H465.812V51.1343H464.739V43.9366H464.646L461.686 51.1343H460.65L457.689 43.9366H457.597V51.1343H456.523V41.6607ZM470.055 51.3008C469.605 51.3008 469.196 51.216 468.829 51.0464C468.462 50.8737 468.171 50.6254 467.955 50.3016C467.739 49.9748 467.631 49.58 467.631 49.1174C467.631 48.7104 467.711 48.3804 467.872 48.1275C468.032 47.8716 468.246 47.6711 468.514 47.5262C468.783 47.3812 469.079 47.2733 469.403 47.2024C469.73 47.1284 470.058 47.0698 470.388 47.0266C470.82 46.9711 471.17 46.9295 471.438 46.9017C471.709 46.8709 471.907 46.82 472.03 46.7491C472.157 46.6781 472.22 46.5548 472.22 46.379V46.342C472.22 45.8856 472.095 45.5309 471.845 45.2781C471.598 45.0252 471.224 44.8988 470.721 44.8988C470.2 44.8988 469.791 45.0129 469.495 45.2411C469.199 45.4693 468.991 45.7129 468.871 45.9719L467.835 45.6019C468.02 45.1701 468.266 44.834 468.575 44.5935C468.886 44.3498 469.225 44.1802 469.592 44.0846C469.962 43.9859 470.326 43.9366 470.684 43.9366C470.912 43.9366 471.174 43.9644 471.47 44.0199C471.769 44.0723 472.058 44.1818 472.335 44.3483C472.616 44.5148 472.849 44.7662 473.034 45.1023C473.219 45.4384 473.311 45.8887 473.311 46.453V51.1343H472.22V50.1721H472.164C472.09 50.3263 471.967 50.4913 471.794 50.6671C471.621 50.8429 471.392 50.9924 471.105 51.1158C470.818 51.2391 470.468 51.3008 470.055 51.3008ZM470.221 50.3201C470.653 50.3201 471.017 50.2353 471.313 50.0657C471.612 49.8961 471.837 49.6772 471.988 49.4089C472.143 49.1406 472.22 48.8584 472.22 48.5624V47.5632C472.173 47.6187 472.072 47.6696 471.914 47.7158C471.76 47.759 471.581 47.7976 471.378 47.8315C471.177 47.8623 470.982 47.8901 470.79 47.9148C470.602 47.9363 470.45 47.9548 470.332 47.9703C470.049 48.0073 469.783 48.0674 469.537 48.1507C469.293 48.2308 469.096 48.3527 468.945 48.5161C468.797 48.6765 468.723 48.8954 468.723 49.173C468.723 49.5523 468.863 49.8391 469.144 50.0333C469.427 50.2245 469.787 50.3201 470.221 50.3201ZM475.304 51.1343V44.0291H476.359V45.1023H476.433C476.562 44.7507 476.797 44.4655 477.136 44.2465C477.475 44.0276 477.857 43.9181 478.283 43.9181C478.363 43.9181 478.463 43.9196 478.584 43.9227C478.704 43.9258 478.795 43.9304 478.857 43.9366V45.0468C478.82 45.0375 478.735 45.0237 478.602 45.0052C478.473 44.9836 478.335 44.9728 478.19 44.9728C477.845 44.9728 477.537 45.0452 477.265 45.1902C476.997 45.332 476.784 45.5294 476.627 45.7823C476.473 46.0321 476.396 46.3173 476.396 46.638V51.1343H475.304ZM482.821 51.2823C482.155 51.2823 481.581 51.125 481.1 50.8105C480.619 50.4959 480.249 50.0626 479.99 49.5106C479.731 48.9586 479.601 48.328 479.601 47.6187C479.601 46.8971 479.734 46.2603 479.999 45.7083C480.267 45.1532 480.641 44.7199 481.119 44.4084C481.6 44.0939 482.161 43.9366 482.802 43.9366C483.302 43.9366 483.752 44.0291 484.153 44.2141C484.554 44.3992 484.882 44.6582 485.138 44.9913C485.394 45.3243 485.553 45.7129 485.615 46.157H484.523C484.44 45.8332 484.255 45.5464 483.968 45.2966C483.684 45.0437 483.302 44.9173 482.821 44.9173C482.395 44.9173 482.022 45.0283 481.701 45.2503C481.384 45.4693 481.135 45.7792 480.957 46.1801C480.781 46.5779 480.693 47.0451 480.693 47.5817C480.693 48.1306 480.779 48.6086 480.952 49.0157C481.128 49.4227 481.374 49.7388 481.692 49.964C482.013 50.1891 482.389 50.3016 482.821 50.3016C483.105 50.3016 483.362 50.2523 483.593 50.1536C483.825 50.0549 484.02 49.9131 484.181 49.728C484.341 49.543 484.455 49.321 484.523 49.0619H485.615C485.553 49.4813 485.4 49.8591 485.157 50.1952C484.916 50.5283 484.597 50.7935 484.199 50.9909C483.805 51.1852 483.345 51.2823 482.821 51.2823ZM488.302 46.8601V51.1343H487.211V41.6607H488.302V45.1393H488.395C488.561 44.7723 488.811 44.4809 489.144 44.265C489.48 44.0461 489.927 43.9366 490.486 43.9366C490.97 43.9366 491.394 44.0337 491.758 44.228C492.122 44.4192 492.404 44.7137 492.604 45.1115C492.808 45.5063 492.91 46.0089 492.91 46.6195V51.1343H491.818V46.6936C491.818 46.1292 491.671 45.6928 491.378 45.3845C491.089 45.073 490.686 44.9173 490.171 44.9173C489.813 44.9173 489.493 44.9928 489.209 45.1439C488.928 45.295 488.706 45.5155 488.543 45.8054C488.382 46.0953 488.302 46.4468 488.302 46.8601Z" fill="#1D1D1D"/>
<rect x="34.7363" y="66.2161" width="459.171" height="1.08551" fill="#D9D9D9"/>
<path d="M36.3546 101.67V90.6172H40.0892C40.9562 90.6172 41.665 90.7737 42.2155 91.0867C42.7695 91.3961 43.1797 91.8153 43.4459 92.3442C43.7122 92.873 43.8453 93.4631 43.8453 94.1143C43.8453 94.7655 43.7122 95.3573 43.4459 95.8898C43.1833 96.4223 42.7767 96.8468 42.2263 97.1634C41.6758 97.4764 40.9706 97.6329 40.1107 97.6329H37.434V96.4457H40.0676C40.6612 96.4457 41.1379 96.3431 41.4977 96.138C41.8575 95.933 42.1183 95.6559 42.2802 95.307C42.4457 94.9544 42.5285 94.5568 42.5285 94.1143C42.5285 93.6717 42.4457 93.276 42.2802 92.927C42.1183 92.578 41.8557 92.3046 41.4923 92.1067C41.1289 91.9052 40.6468 91.8045 40.046 91.8045H37.693V101.67H36.3546ZM45.8286 101.67V93.3803H47.059V94.6324H47.1454C47.2965 94.2222 47.5699 93.8894 47.9657 93.634C48.3614 93.3785 48.8076 93.2508 49.3041 93.2508C49.3976 93.2508 49.5145 93.2526 49.6548 93.2562C49.7952 93.2598 49.9013 93.2652 49.9732 93.2724V94.5676C49.9301 94.5568 49.8311 94.5406 49.6764 94.519C49.5253 94.4938 49.3652 94.4813 49.1961 94.4813C48.7932 94.4813 48.4334 94.5658 48.1168 94.7349C47.8038 94.9004 47.5555 95.1307 47.372 95.4257C47.1921 95.7171 47.1022 96.0499 47.1022 96.4241V101.67H45.8286ZM54.5982 101.842C53.8499 101.842 53.1933 101.664 52.6284 101.308C52.0672 100.952 51.6282 100.454 51.3116 99.8132C50.9986 99.1728 50.8421 98.4245 50.8421 97.5682C50.8421 96.7047 50.9986 95.951 51.3116 95.307C51.6282 94.6629 52.0672 94.1628 52.6284 93.8067C53.1933 93.4505 53.8499 93.2724 54.5982 93.2724C55.3466 93.2724 56.0014 93.4505 56.5626 93.8067C57.1275 94.1628 57.5664 94.6629 57.8794 95.307C58.196 95.951 58.3543 96.7047 58.3543 97.5682C58.3543 98.4245 58.196 99.1728 57.8794 99.8132C57.5664 100.454 57.1275 100.952 56.5626 101.308C56.0014 101.664 55.3466 101.842 54.5982 101.842ZM54.5982 100.698C55.1667 100.698 55.6344 100.553 56.0014 100.261C56.3684 99.9697 56.64 99.5865 56.8163 99.1116C56.9926 98.6367 57.0807 98.1222 57.0807 97.5682C57.0807 97.0141 56.9926 96.4978 56.8163 96.0193C56.64 95.5408 56.3684 95.154 56.0014 94.859C55.6344 94.564 55.1667 94.4165 54.5982 94.4165C54.0298 94.4165 53.5621 94.564 53.1951 94.859C52.8281 95.154 52.5565 95.5408 52.3802 96.0193C52.2039 96.4978 52.1157 97.0141 52.1157 97.5682C52.1157 98.1222 52.2039 98.6367 52.3802 99.1116C52.5565 99.5865 52.8281 99.9697 53.1951 100.261C53.5621 100.553 54.0298 100.698 54.5982 100.698ZM63.9899 93.3803V94.4597H59.5214V93.3803H63.9899ZM60.8598 101.67V92.2362C60.8598 91.7613 60.9713 91.3655 61.1944 91.0489C61.4174 90.7323 61.7071 90.4949 62.0632 90.3366C62.4194 90.1783 62.7954 90.0991 63.1911 90.0991C63.5042 90.0991 63.7596 90.1243 63.9575 90.1747C64.1554 90.225 64.3029 90.2718 64.4 90.315L64.033 91.4159C63.9683 91.3943 63.8783 91.3673 63.7632 91.335C63.6517 91.3026 63.5042 91.2864 63.3207 91.2864C62.8997 91.2864 62.5957 91.3925 62.4086 91.6048C62.2251 91.8171 62.1334 92.1283 62.1334 92.5384V101.67H60.8598ZM65.7748 101.67V93.3803H67.0484V101.67H65.7748ZM66.4224 91.9988C66.1742 91.9988 65.9601 91.9142 65.7802 91.7451C65.6039 91.576 65.5158 91.3727 65.5158 91.1353C65.5158 90.8978 65.6039 90.6946 65.7802 90.5255C65.9601 90.3564 66.1742 90.2718 66.4224 90.2718C66.6707 90.2718 66.883 90.3564 67.0592 90.5255C67.2391 90.6946 67.3291 90.8978 67.3291 91.1353C67.3291 91.3727 67.2391 91.576 67.0592 91.7451C66.883 91.9142 66.6707 91.9988 66.4224 91.9988ZM72.9862 93.3803V94.4597H68.6904V93.3803H72.9862ZM69.9424 91.3943H71.2161V99.2951C71.2161 99.6549 71.2682 99.9247 71.3726 100.105C71.4805 100.281 71.6172 100.4 71.7827 100.461C71.9518 100.518 72.1299 100.547 72.317 100.547C72.4573 100.547 72.5724 100.54 72.6624 100.526C72.7523 100.508 72.8243 100.493 72.8782 100.482L73.1373 101.627C73.0509 101.659 72.9304 101.691 72.7757 101.724C72.621 101.76 72.4249 101.778 72.1875 101.778C71.8277 101.778 71.4751 101.7 71.1297 101.546C70.7879 101.391 70.5037 101.155 70.277 100.839C70.054 100.522 69.9424 100.123 69.9424 99.6405V91.3943Z" fill="black"/>
<path d="M41.8486 133.985V114.249H43.113V133.985H41.8486ZM45.8036 120.37C45.7214 119.64 45.3822 119.075 44.786 118.674C44.1897 118.268 43.4393 118.065 42.5348 118.065C41.8871 118.065 41.3269 118.168 40.8541 118.373C40.3812 118.574 40.0137 118.851 39.7516 119.206C39.4946 119.556 39.3661 119.954 39.3661 120.401C39.3661 120.776 39.4535 121.1 39.6282 121.372C39.8081 121.645 40.042 121.874 40.3298 122.059C40.6228 122.239 40.9363 122.39 41.2704 122.514C41.6045 122.632 41.9257 122.729 42.2341 122.806L43.776 123.207C44.2797 123.331 44.7962 123.498 45.3256 123.708C45.855 123.919 46.3459 124.197 46.7982 124.541C47.2505 124.885 47.6154 125.312 47.8929 125.821C48.1756 126.33 48.3169 126.939 48.3169 127.648C48.3169 128.542 48.0857 129.336 47.6231 130.03C47.1656 130.724 46.5001 131.272 45.6263 131.672C44.7577 132.073 43.7066 132.274 42.4731 132.274C41.2909 132.274 40.2681 132.086 39.4047 131.711C38.5412 131.336 37.8653 130.804 37.377 130.115C36.8888 129.421 36.6189 128.599 36.5675 127.648H38.9575C39.0038 128.219 39.1888 128.694 39.5126 129.074C39.8415 129.45 40.2604 129.73 40.7693 129.915C41.2832 130.095 41.846 130.185 42.4577 130.185C43.131 130.185 43.7297 130.079 44.254 129.868C44.7834 129.653 45.1997 129.354 45.5029 128.974C45.8062 128.589 45.9578 128.139 45.9578 127.625C45.9578 127.157 45.8242 126.774 45.5569 126.476C45.2948 126.178 44.9376 125.931 44.4853 125.736C44.0381 125.541 43.5319 125.369 42.9665 125.22L41.1008 124.711C39.8364 124.366 38.8341 123.86 38.094 123.192C37.359 122.524 36.9916 121.64 36.9916 120.54C36.9916 119.63 37.2383 118.836 37.7317 118.158C38.2251 117.479 38.8933 116.952 39.7362 116.577C40.5791 116.197 41.5299 116.007 42.5887 116.007C43.6578 116.007 44.6009 116.194 45.4181 116.569C46.2405 116.945 46.8881 117.461 47.361 118.119C47.8338 118.772 48.0805 119.522 48.1011 120.37H45.8036ZM50.6163 128.928V127L57.4393 116.222H58.9581V119.06H57.9944L53.1142 126.785V126.908H62.466V128.928H50.6163ZM58.1023 132.012V128.342L58.1178 127.463V116.222H60.3767V132.012H58.1023ZM67.589 129.853L67.4734 130.693C67.3963 131.31 67.2652 131.953 67.0802 132.621C66.9003 133.294 66.7127 133.919 66.5174 134.494C66.3272 135.07 66.1704 135.527 66.0471 135.867H64.4126C64.4795 135.548 64.572 135.116 64.6902 134.571C64.8084 134.032 64.9241 133.428 65.0371 132.76C65.1502 132.091 65.235 131.41 65.2915 130.717L65.3686 129.853H67.589ZM70.8135 132.012V130.285L76.1563 124.749C76.7268 124.148 77.1971 123.621 77.5671 123.169C77.9423 122.711 78.2225 122.277 78.4075 121.866C78.5925 121.455 78.685 121.018 78.685 120.555C78.685 120.031 78.5617 119.579 78.315 119.198C78.0683 118.813 77.7316 118.517 77.305 118.312C76.8784 118.101 76.3979 117.996 75.8633 117.996C75.2979 117.996 74.8045 118.111 74.3831 118.343C73.9616 118.574 73.6378 118.9 73.4117 119.322C73.1855 119.743 73.0724 120.237 73.0724 120.802H70.7981C70.7981 119.841 71.0191 119 71.4611 118.281C71.9032 117.561 72.5096 117.004 73.2806 116.608C74.0516 116.207 74.9279 116.007 75.9096 116.007C76.9015 116.007 77.7753 116.204 78.5308 116.6C79.2915 116.991 79.8852 117.525 80.3118 118.204C80.7384 118.877 80.9517 119.638 80.9517 120.486C80.9517 121.072 80.8411 121.645 80.6201 122.205C80.4043 122.765 80.0265 123.39 79.4868 124.079C78.9472 124.762 78.1968 125.592 77.2356 126.569L74.0978 129.853V129.969H81.2061V132.012H70.8135ZM83.4573 128.928V127L90.2803 116.222H91.799V119.06H90.8353L85.9552 126.785V126.908H95.3069V128.928H83.4573ZM90.9433 132.012V128.342L90.9587 127.463V116.222H93.2176V132.012H90.9433ZM103.205 132.228C102.239 132.228 101.371 132.043 100.6 131.672C99.8337 131.297 99.2221 130.783 98.7647 130.131C98.3072 129.478 98.0631 128.733 98.0323 127.895H100.345C100.402 128.573 100.702 129.131 101.247 129.568C101.792 130.005 102.445 130.223 103.205 130.223C103.812 130.223 104.349 130.084 104.817 129.807C105.29 129.524 105.66 129.136 105.927 128.643C106.199 128.149 106.335 127.586 106.335 126.954C106.335 126.312 106.197 125.739 105.919 125.235C105.642 124.731 105.259 124.336 104.77 124.048C104.287 123.76 103.732 123.613 103.105 123.608C102.627 123.608 102.147 123.69 101.663 123.855C101.18 124.019 100.79 124.235 100.492 124.503L98.3098 124.179L99.1964 116.222H107.877V118.266H101.178L100.677 122.683H100.769C101.078 122.385 101.486 122.136 101.995 121.935C102.509 121.735 103.059 121.635 103.645 121.635C104.606 121.635 105.462 121.863 106.212 122.321C106.968 122.778 107.561 123.403 107.993 124.194C108.43 124.981 108.646 125.885 108.641 126.908C108.646 127.931 108.415 128.843 107.947 129.645C107.484 130.447 106.842 131.079 106.019 131.541C105.202 131.999 104.264 132.228 103.205 132.228ZM112.434 132.158C112.012 132.158 111.65 132.009 111.347 131.711C111.043 131.408 110.892 131.043 110.892 130.616C110.892 130.195 111.043 129.835 111.347 129.537C111.65 129.234 112.012 129.082 112.434 129.082C112.855 129.082 113.218 129.234 113.521 129.537C113.824 129.835 113.976 130.195 113.976 130.616C113.976 130.899 113.904 131.159 113.76 131.395C113.621 131.626 113.436 131.811 113.205 131.95C112.973 132.089 112.716 132.158 112.434 132.158ZM121.99 132.228C121.024 132.228 120.155 132.043 119.384 131.672C118.618 131.297 118.007 130.783 117.549 130.131C117.092 129.478 116.848 128.733 116.817 127.895H119.13C119.186 128.573 119.487 129.131 120.032 129.568C120.576 130.005 121.229 130.223 121.99 130.223C122.596 130.223 123.133 130.084 123.601 129.807C124.074 129.524 124.444 129.136 124.711 128.643C124.984 128.149 125.12 127.586 125.12 126.954C125.12 126.312 124.981 125.739 124.704 125.235C124.426 124.731 124.043 124.336 123.555 124.048C123.072 123.76 122.517 123.613 121.89 123.608C121.412 123.608 120.931 123.69 120.448 123.855C119.965 124.019 119.574 124.235 119.276 124.503L117.094 124.179L117.981 116.222H126.662V118.266H119.962L119.461 122.683H119.554C119.862 122.385 120.271 122.136 120.779 121.935C121.293 121.735 121.843 121.635 122.429 121.635C123.39 121.635 124.246 121.863 124.997 122.321C125.752 122.778 126.346 123.403 126.777 124.194C127.214 124.981 127.43 125.885 127.425 126.908C127.43 127.931 127.199 128.843 126.731 129.645C126.269 130.447 125.626 131.079 124.804 131.541C123.987 131.999 123.049 132.228 121.99 132.228ZM135.738 132.274C134.52 132.269 133.479 131.947 132.616 131.31C131.752 130.673 131.092 129.745 130.634 128.527C130.177 127.309 129.948 125.841 129.948 124.125C129.948 122.413 130.177 120.951 130.634 119.738C131.097 118.525 131.76 117.6 132.623 116.963C133.492 116.325 134.53 116.007 135.738 116.007C136.946 116.007 137.981 116.328 138.845 116.97C139.708 117.608 140.369 118.533 140.826 119.746C141.289 120.954 141.52 122.413 141.52 124.125C141.52 125.847 141.291 127.317 140.834 128.535C140.377 129.748 139.716 130.675 138.853 131.318C137.989 131.955 136.951 132.274 135.738 132.274ZM135.738 130.215C136.807 130.215 137.642 129.694 138.244 128.65C138.85 127.607 139.153 126.098 139.153 124.125C139.153 122.814 139.015 121.707 138.737 120.802C138.465 119.892 138.071 119.204 137.557 118.736C137.049 118.263 136.442 118.027 135.738 118.027C134.674 118.027 133.839 118.551 133.232 119.599C132.626 120.648 132.32 122.156 132.315 124.125C132.315 125.441 132.451 126.553 132.723 127.463C133.001 128.368 133.394 129.054 133.903 129.522C134.412 129.984 135.024 130.215 135.738 130.215Z" fill="black"/>
<rect x="34.7363" y="154.38" width="388.613" height="54.2755" rx="4.34204" fill="#226752"/>
<rect x="34.7363" y="212.998" width="105.295" height="54.2755" rx="4.34204" fill="#A8A8A2"/>
<rect x="177.188" y="289.128" width="13.0261" height="13.0261" fill="#226752"/>
<path d="M197.711 290.589V301.641H196.373V290.589H197.711ZM201.496 296.655V301.641H200.222V293.352H201.453V294.647H201.56C201.755 294.226 202.05 293.888 202.446 293.633C202.841 293.374 203.352 293.244 203.978 293.244C204.539 293.244 205.031 293.359 205.451 293.589C205.872 293.816 206.2 294.162 206.434 294.626C206.668 295.086 206.784 295.669 206.784 296.374V301.641H205.511V296.461C205.511 295.809 205.342 295.302 205.004 294.939C204.665 294.572 204.201 294.388 203.611 294.388C203.205 294.388 202.841 294.476 202.521 294.653C202.204 294.829 201.954 295.086 201.771 295.424C201.587 295.763 201.496 296.173 201.496 296.655ZM212.479 301.814C211.702 301.814 211.033 301.631 210.472 301.264C209.911 300.897 209.479 300.391 209.177 299.747C208.874 299.103 208.723 298.367 208.723 297.54C208.723 296.698 208.878 295.955 209.187 295.311C209.5 294.663 209.936 294.158 210.493 293.795C211.055 293.428 211.709 293.244 212.458 293.244C213.041 293.244 213.566 293.352 214.034 293.568C214.501 293.784 214.884 294.086 215.183 294.475C215.482 294.863 215.667 295.316 215.739 295.834H214.465C214.368 295.457 214.152 295.122 213.818 294.831C213.487 294.536 213.041 294.388 212.479 294.388C211.983 294.388 211.548 294.518 211.173 294.777C210.803 295.032 210.513 295.394 210.304 295.861C210.099 296.326 209.997 296.871 209.997 297.497C209.997 298.137 210.098 298.695 210.299 299.17C210.504 299.645 210.792 300.013 211.163 300.276C211.537 300.539 211.976 300.67 212.479 300.67C212.81 300.67 213.111 300.612 213.381 300.497C213.65 300.382 213.879 300.217 214.066 300.001C214.253 299.785 214.386 299.526 214.465 299.224H215.739C215.667 299.713 215.489 300.154 215.205 300.546C214.924 300.934 214.552 301.244 214.088 301.474C213.627 301.701 213.091 301.814 212.479 301.814ZM220.968 301.814C220.22 301.814 219.563 301.636 218.999 301.28C218.437 300.924 217.998 300.425 217.682 299.785C217.369 299.144 217.212 298.396 217.212 297.54C217.212 296.676 217.369 295.923 217.682 295.279C217.998 294.635 218.437 294.135 218.999 293.778C219.563 293.422 220.22 293.244 220.968 293.244C221.717 293.244 222.372 293.422 222.933 293.778C223.498 294.135 223.937 294.635 224.25 295.279C224.566 295.923 224.724 296.676 224.724 297.54C224.724 298.396 224.566 299.144 224.25 299.785C223.937 300.425 223.498 300.924 222.933 301.28C222.372 301.636 221.717 301.814 220.968 301.814ZM220.968 300.67C221.537 300.67 222.005 300.524 222.372 300.233C222.738 299.941 223.01 299.558 223.186 299.083C223.363 298.608 223.451 298.094 223.451 297.54C223.451 296.986 223.363 296.47 223.186 295.991C223.01 295.512 222.738 295.126 222.372 294.831C222.005 294.536 221.537 294.388 220.968 294.388C220.4 294.388 219.932 294.536 219.565 294.831C219.198 295.126 218.927 295.512 218.75 295.991C218.574 296.47 218.486 296.986 218.486 297.54C218.486 298.094 218.574 298.608 218.75 299.083C218.927 299.558 219.198 299.941 219.565 300.233C219.932 300.524 220.4 300.67 220.968 300.67ZM226.669 301.641V293.352H227.899V294.647H228.007C228.18 294.205 228.459 293.861 228.844 293.616C229.228 293.368 229.691 293.244 230.23 293.244C230.777 293.244 231.232 293.368 231.596 293.616C231.963 293.861 232.249 294.205 232.454 294.647H232.54C232.753 294.219 233.071 293.879 233.496 293.627C233.92 293.372 234.429 293.244 235.023 293.244C235.764 293.244 236.37 293.476 236.841 293.94C237.313 294.401 237.548 295.119 237.548 296.094V301.641H236.275V296.094C236.275 295.482 236.108 295.045 235.773 294.782C235.438 294.519 235.044 294.388 234.591 294.388C234.008 294.388 233.557 294.564 233.236 294.917C232.916 295.266 232.756 295.709 232.756 296.245V301.641H231.461V295.964C231.461 295.493 231.308 295.113 231.002 294.825C230.696 294.534 230.302 294.388 229.82 294.388C229.489 294.388 229.18 294.476 228.892 294.653C228.608 294.829 228.378 295.074 228.201 295.387C228.029 295.696 227.942 296.054 227.942 296.461V301.641H226.669ZM243.353 301.814C242.554 301.814 241.865 301.638 241.286 301.285C240.71 300.929 240.266 300.432 239.953 299.796C239.643 299.155 239.489 298.411 239.489 297.561C239.489 296.712 239.643 295.964 239.953 295.316C240.266 294.665 240.701 294.158 241.259 293.795C241.82 293.428 242.475 293.244 243.223 293.244C243.655 293.244 244.081 293.316 244.502 293.46C244.923 293.604 245.306 293.838 245.652 294.162C245.997 294.482 246.272 294.906 246.477 295.435C246.682 295.964 246.785 296.615 246.785 297.389V297.928H240.395V296.827H245.49C245.49 296.36 245.396 295.942 245.209 295.575C245.026 295.208 244.763 294.919 244.421 294.707C244.083 294.494 243.684 294.388 243.223 294.388C242.716 294.388 242.277 294.514 241.906 294.766C241.539 295.014 241.257 295.338 241.059 295.737C240.861 296.137 240.762 296.565 240.762 297.022V297.756C240.762 298.382 240.87 298.912 241.086 299.348C241.305 299.779 241.609 300.109 241.998 300.335C242.387 300.558 242.838 300.67 243.353 300.67C243.687 300.67 243.989 300.623 244.259 300.53C244.533 300.432 244.768 300.289 244.966 300.098C245.164 299.904 245.317 299.663 245.425 299.375L246.655 299.72C246.526 300.137 246.308 300.504 246.002 300.821C245.697 301.134 245.319 301.379 244.869 301.555C244.419 301.728 243.914 301.814 243.353 301.814Z" fill="black"/>
<rect x="264.925" y="289.128" width="13.0261" height="13.0261" fill="#A8A8A2"/>
<path d="M284.621 301.641V290.589H291.291V291.776H285.959V295.511H290.946V296.698H285.959V300.454H291.378V301.641H284.621ZM294.481 293.352L296.467 296.741L298.453 293.352H299.921L297.244 297.497L299.921 301.641H298.453L296.467 298.425L294.481 301.641H293.013L295.646 297.497L293.013 293.352H294.481ZM301.738 304.75V293.352H302.968V294.669H303.119C303.213 294.525 303.343 294.341 303.508 294.118C303.677 293.892 303.918 293.69 304.231 293.514C304.548 293.334 304.976 293.244 305.516 293.244C306.214 293.244 306.829 293.419 307.361 293.768C307.894 294.117 308.309 294.611 308.608 295.252C308.907 295.892 309.056 296.648 309.056 297.518C309.056 298.396 308.907 299.157 308.608 299.801C308.309 300.441 307.896 300.938 307.367 301.291C306.838 301.64 306.228 301.814 305.537 301.814C305.005 301.814 304.578 301.726 304.258 301.55C303.938 301.37 303.692 301.166 303.519 300.94C303.346 300.71 303.213 300.519 303.119 300.368H303.012V304.75H301.738ZM302.99 297.497C302.99 298.123 303.082 298.675 303.265 299.153C303.449 299.628 303.717 300.001 304.069 300.271C304.422 300.537 304.854 300.67 305.364 300.67C305.897 300.67 306.341 300.53 306.697 300.249C307.057 299.965 307.327 299.583 307.507 299.105C307.69 298.623 307.782 298.087 307.782 297.497C307.782 296.914 307.692 296.389 307.512 295.921C307.336 295.45 307.068 295.077 306.708 294.804C306.352 294.527 305.904 294.388 305.364 294.388C304.846 294.388 304.411 294.519 304.058 294.782C303.706 295.041 303.44 295.405 303.26 295.872C303.08 296.336 302.99 296.878 302.99 297.497ZM314.474 301.814C313.675 301.814 312.986 301.638 312.407 301.285C311.832 300.929 311.387 300.432 311.074 299.796C310.765 299.155 310.61 298.411 310.61 297.561C310.61 296.712 310.765 295.964 311.074 295.316C311.387 294.665 311.823 294.158 312.38 293.795C312.941 293.428 313.596 293.244 314.345 293.244C314.776 293.244 315.203 293.316 315.624 293.46C316.045 293.604 316.428 293.838 316.773 294.162C317.119 294.482 317.394 294.906 317.599 295.435C317.804 295.964 317.906 296.615 317.906 297.389V297.928H311.517V296.827H316.611C316.611 296.36 316.518 295.942 316.331 295.575C316.147 295.208 315.884 294.919 315.543 294.707C315.205 294.494 314.805 294.388 314.345 294.388C313.837 294.388 313.398 294.514 313.028 294.766C312.661 295.014 312.378 295.338 312.181 295.737C311.983 296.137 311.884 296.565 311.884 297.022V297.756C311.884 298.382 311.992 298.912 312.208 299.348C312.427 299.779 312.731 300.109 313.12 300.335C313.508 300.558 313.96 300.67 314.474 300.67C314.809 300.67 315.111 300.623 315.381 300.53C315.654 300.432 315.89 300.289 316.088 300.098C316.286 299.904 316.439 299.663 316.546 299.375L317.777 299.72C317.647 300.137 317.43 300.504 317.124 300.821C316.818 301.134 316.44 301.379 315.991 301.555C315.541 301.728 315.035 301.814 314.474 301.814ZM321.118 296.655V301.641H319.844V293.352H321.074V294.647H321.182C321.377 294.226 321.672 293.888 322.067 293.633C322.463 293.374 322.974 293.244 323.6 293.244C324.161 293.244 324.652 293.359 325.073 293.589C325.494 293.816 325.822 294.162 326.055 294.626C326.289 295.086 326.406 295.669 326.406 296.374V301.641H325.133V296.461C325.133 295.809 324.964 295.302 324.625 294.939C324.287 294.572 323.823 294.388 323.233 294.388C322.826 294.388 322.463 294.476 322.143 294.653C321.826 294.829 321.576 295.086 321.393 295.424C321.209 295.763 321.118 296.173 321.118 296.655ZM334.605 295.208L333.461 295.532C333.389 295.342 333.283 295.156 333.143 294.976C333.006 294.793 332.819 294.642 332.581 294.523C332.344 294.404 332.04 294.345 331.669 294.345C331.162 294.345 330.739 294.462 330.401 294.696C330.067 294.926 329.899 295.219 329.899 295.575C329.899 295.892 330.014 296.142 330.245 296.326C330.475 296.509 330.835 296.662 331.324 296.784L332.554 297.087C333.296 297.266 333.848 297.542 334.211 297.912C334.575 298.279 334.756 298.752 334.756 299.332C334.756 299.806 334.62 300.231 334.346 300.605C334.076 300.979 333.699 301.274 333.213 301.49C332.727 301.706 332.162 301.814 331.518 301.814C330.673 301.814 329.973 301.631 329.419 301.264C328.865 300.897 328.514 300.361 328.367 299.655L329.576 299.353C329.691 299.799 329.908 300.134 330.229 300.357C330.552 300.58 330.975 300.692 331.497 300.692C332.09 300.692 332.562 300.566 332.911 300.314C333.263 300.058 333.44 299.753 333.44 299.396C333.44 299.108 333.339 298.867 333.137 298.673C332.936 298.475 332.626 298.328 332.209 298.231L330.828 297.907C330.068 297.727 329.511 297.448 329.155 297.07C328.802 296.689 328.626 296.212 328.626 295.64C328.626 295.172 328.757 294.759 329.02 294.399C329.286 294.039 329.647 293.757 330.104 293.552C330.565 293.347 331.087 293.244 331.669 293.244C332.49 293.244 333.134 293.424 333.601 293.784C334.073 294.144 334.407 294.618 334.605 295.208ZM340.149 301.814C339.35 301.814 338.661 301.638 338.082 301.285C337.506 300.929 337.062 300.432 336.749 299.796C336.44 299.155 336.285 298.411 336.285 297.561C336.285 296.712 336.44 295.964 336.749 295.316C337.062 294.665 337.497 294.158 338.055 293.795C338.616 293.428 339.271 293.244 340.019 293.244C340.451 293.244 340.878 293.316 341.299 293.46C341.719 293.604 342.103 293.838 342.448 294.162C342.793 294.482 343.069 294.906 343.274 295.435C343.479 295.964 343.581 296.615 343.581 297.389V297.928H337.192V296.827H342.286C342.286 296.36 342.193 295.942 342.005 295.575C341.822 295.208 341.559 294.919 341.218 294.707C340.879 294.494 340.48 294.388 340.019 294.388C339.512 294.388 339.073 294.514 338.703 294.766C338.336 295.014 338.053 295.338 337.855 295.737C337.658 296.137 337.559 296.565 337.559 297.022V297.756C337.559 298.382 337.667 298.912 337.882 299.348C338.102 299.779 338.406 300.109 338.794 300.335C339.183 300.558 339.635 300.67 340.149 300.67C340.484 300.67 340.786 300.623 341.056 300.53C341.329 300.432 341.565 300.289 341.763 300.098C341.961 299.904 342.113 299.663 342.221 299.375L343.452 299.72C343.322 300.137 343.105 300.504 342.799 300.821C342.493 301.134 342.115 301.379 341.665 301.555C341.216 301.728 340.71 301.814 340.149 301.814ZM351.39 295.208L350.246 295.532C350.174 295.342 350.068 295.156 349.928 294.976C349.791 294.793 349.604 294.642 349.367 294.523C349.129 294.404 348.825 294.345 348.455 294.345C347.947 294.345 347.525 294.462 347.186 294.696C346.852 294.926 346.684 295.219 346.684 295.575C346.684 295.892 346.8 296.142 347.03 296.326C347.26 296.509 347.62 296.662 348.109 296.784L349.34 297.087C350.081 297.266 350.633 297.542 350.996 297.912C351.36 298.279 351.541 298.752 351.541 299.332C351.541 299.806 351.405 300.231 351.131 300.605C350.861 300.979 350.484 301.274 349.998 301.49C349.512 301.706 348.947 301.814 348.303 301.814C347.458 301.814 346.758 301.631 346.204 301.264C345.65 300.897 345.299 300.361 345.152 299.655L346.361 299.353C346.476 299.799 346.693 300.134 347.014 300.357C347.337 300.58 347.76 300.692 348.282 300.692C348.876 300.692 349.347 300.566 349.696 300.314C350.048 300.058 350.225 299.753 350.225 299.396C350.225 299.108 350.124 298.867 349.922 298.673C349.721 298.475 349.412 298.328 348.994 298.231L347.613 297.907C346.854 297.727 346.296 297.448 345.94 297.07C345.587 296.689 345.411 296.212 345.411 295.64C345.411 295.172 345.542 294.759 345.805 294.399C346.071 294.039 346.433 293.757 346.89 293.552C347.35 293.347 347.872 293.244 348.455 293.244C349.275 293.244 349.919 293.424 350.387 293.784C350.858 294.144 351.192 294.618 351.39 295.208Z" fill="black"/>
</svg>
