<svg width="315" height="53" viewBox="0 0 315 53" fill="none" xmlns="http://www.w3.org/2000/svg">
<rect width="314.798" height="52.1045" rx="8.68408" fill="white"/>
<path d="M28.219 24.4537H26.8806C26.8014 24.0687 26.6629 23.7305 26.465 23.4391C26.2707 23.1477 26.0333 22.903 25.7527 22.7051C25.4756 22.5037 25.168 22.3526 24.8298 22.2518C24.4916 22.1511 24.139 22.1007 23.7721 22.1007C23.1029 22.1007 22.4966 22.2698 21.9534 22.608C21.4137 22.9462 20.9838 23.4445 20.6636 24.1029C20.3469 24.7613 20.1886 25.569 20.1886 26.526C20.1886 27.483 20.3469 28.2907 20.6636 28.9491C20.9838 29.6075 21.4137 30.1058 21.9534 30.444C22.4966 30.7822 23.1029 30.9513 23.7721 30.9513C24.139 30.9513 24.4916 30.9009 24.8298 30.8002C25.168 30.6995 25.4756 30.5502 25.7527 30.3523C26.0333 30.1508 26.2707 29.9044 26.465 29.6129C26.6629 29.3179 26.8014 28.9797 26.8806 28.5983H28.219C28.1182 29.1632 27.9347 29.6687 27.6685 30.1148C27.4023 30.561 27.0713 30.9405 26.6755 31.2535C26.2797 31.5629 25.8354 31.7986 25.3425 31.9605C24.8532 32.1224 24.3297 32.2034 23.7721 32.2034C22.8294 32.2034 21.9911 31.9731 21.2572 31.5126C20.5232 31.0521 19.9458 30.3973 19.5248 29.5482C19.1039 28.6991 18.8934 27.6917 18.8934 26.526C18.8934 25.3603 19.1039 24.3529 19.5248 23.5039C19.9458 22.6548 20.5232 22 21.2572 21.5394C21.9911 21.0789 22.8294 20.8487 23.7721 20.8487C24.3297 20.8487 24.8532 20.9296 25.3425 21.0915C25.8354 21.2534 26.2797 21.4909 26.6755 21.8039C27.0713 22.1133 27.4023 22.4911 27.6685 22.9372C27.9347 23.3797 28.1182 23.8852 28.219 24.4537ZM33.5765 32.2249C32.8282 32.2249 32.1716 32.0468 31.6067 31.6907C31.0455 31.3345 30.6066 30.8362 30.2899 30.1958C29.9769 29.5554 29.8204 28.807 29.8204 27.9507C29.8204 27.0873 29.9769 26.3335 30.2899 25.6895C30.6066 25.0455 31.0455 24.5454 31.6067 24.1892C32.1716 23.833 32.8282 23.655 33.5765 23.655C34.3249 23.655 34.9797 23.833 35.541 24.1892C36.1058 24.5454 36.5447 25.0455 36.8577 25.6895C37.1744 26.3335 37.3327 27.0873 37.3327 27.9507C37.3327 28.807 37.1744 29.5554 36.8577 30.1958C36.5447 30.8362 36.1058 31.3345 35.541 31.6907C34.9797 32.0468 34.3249 32.2249 33.5765 32.2249ZM33.5765 31.0808C34.145 31.0808 34.6127 30.9351 34.9797 30.6437C35.3467 30.3523 35.6183 29.9691 35.7946 29.4942C35.9709 29.0193 36.059 28.5048 36.059 27.9507C36.059 27.3967 35.9709 26.8804 35.7946 26.4019C35.6183 25.9234 35.3467 25.5366 34.9797 25.2416C34.6127 24.9466 34.145 24.7991 33.5765 24.7991C33.0081 24.7991 32.5404 24.9466 32.1734 25.2416C31.8064 25.5366 31.5348 25.9234 31.3585 26.4019C31.1822 26.8804 31.0941 27.3967 31.0941 27.9507C31.0941 28.5048 31.1822 29.0193 31.3585 29.4942C31.5348 29.9691 31.8064 30.3523 32.1734 30.6437C32.5404 30.9351 33.0081 31.0808 33.5765 31.0808ZM40.5505 27.0657V32.0522H39.2768V23.7629H40.5073V25.0581H40.6152C40.8095 24.6372 41.1045 24.299 41.5003 24.0435C41.896 23.7845 42.4069 23.655 43.0329 23.655C43.5942 23.655 44.0853 23.7701 44.5062 24.0003C44.9272 24.227 45.2546 24.5724 45.4884 25.0365C45.7223 25.497 45.8392 26.0799 45.8392 26.7851V32.0522H44.5656V26.8714C44.5656 26.2202 44.3965 25.7129 44.0583 25.3495C43.7201 24.9825 43.256 24.7991 42.666 24.7991C42.2594 24.7991 41.896 24.8872 41.5758 25.0635C41.2592 25.2398 41.0092 25.497 40.8257 25.8352C40.6422 26.1734 40.5505 26.5836 40.5505 27.0657ZM51.7716 23.7629V24.8422H47.4758V23.7629H51.7716ZM48.7278 21.7769H50.0014V29.6777C50.0014 30.0375 50.0536 30.3073 50.158 30.4872C50.2659 30.6635 50.4026 30.7822 50.5681 30.8434C50.7372 30.9009 50.9153 30.9297 51.1024 30.9297C51.2427 30.9297 51.3578 30.9225 51.4478 30.9081C51.5377 30.8902 51.6097 30.8758 51.6636 30.865L51.9227 32.0091C51.8363 32.0415 51.7158 32.0738 51.5611 32.1062C51.4064 32.1422 51.2103 32.1602 50.9729 32.1602C50.6131 32.1602 50.2605 32.0828 49.9151 31.9281C49.5733 31.7734 49.2891 31.5378 49.0624 31.2212C48.8394 30.9045 48.7278 30.5052 48.7278 30.0231V21.7769ZM53.6874 32.0522V23.7629H54.961V32.0522H53.6874ZM54.335 22.3813C54.0868 22.3813 53.8727 22.2968 53.6928 22.1277C53.5165 21.9586 53.4284 21.7553 53.4284 21.5179C53.4284 21.2804 53.5165 21.0771 53.6928 20.908C53.8727 20.7389 54.0868 20.6544 54.335 20.6544C54.5833 20.6544 54.7955 20.7389 54.9718 20.908C55.1517 21.0771 55.2417 21.2804 55.2417 21.5179C55.2417 21.7553 55.1517 21.9586 54.9718 22.1277C54.7955 22.2968 54.5833 22.3813 54.335 22.3813ZM58.5674 27.0657V32.0522H57.2938V23.7629H58.5242V25.0581H58.6321C58.8264 24.6372 59.1214 24.299 59.5172 24.0435C59.913 23.7845 60.4239 23.655 61.0499 23.655C61.6111 23.655 62.1022 23.7701 62.5232 24.0003C62.9441 24.227 63.2715 24.5724 63.5054 25.0365C63.7392 25.497 63.8562 26.0799 63.8562 26.7851V32.0522H62.5825V26.8714C62.5825 26.2202 62.4134 25.7129 62.0752 25.3495C61.7371 24.9825 61.2729 24.7991 60.6829 24.7991C60.2763 24.7991 59.913 24.8872 59.5928 25.0635C59.2762 25.2398 59.0261 25.497 58.8426 25.8352C58.6591 26.1734 58.5674 26.5836 58.5674 27.0657ZM71.4075 28.6631V23.7629H72.6811V32.0522H71.4075V30.6491H71.3212C71.1269 31.07 70.8247 31.428 70.4145 31.723C70.0044 32.0145 69.4863 32.1602 68.8603 32.1602C68.3422 32.1602 67.8817 32.0468 67.4787 31.8202C67.0758 31.5899 66.7591 31.2445 66.5289 30.784C66.2986 30.3199 66.1835 29.7353 66.1835 29.0301V23.7629H67.4571V28.9437C67.4571 29.5482 67.6262 30.0303 67.9644 30.3901C68.3062 30.7498 68.7415 30.9297 69.2704 30.9297C69.587 30.9297 69.909 30.8488 70.2364 30.6869C70.5674 30.525 70.8445 30.2767 71.0675 29.9421C71.2942 29.6075 71.4075 29.1812 71.4075 28.6631ZM75.0139 32.0522V23.7629H76.2875V32.0522H75.0139ZM75.6615 22.3813C75.4132 22.3813 75.1992 22.2968 75.0193 22.1277C74.843 21.9586 74.7548 21.7553 74.7548 21.5179C74.7548 21.2804 74.843 21.0771 75.0193 20.908C75.1992 20.7389 75.4132 20.6544 75.6615 20.6544C75.9097 20.6544 76.122 20.7389 76.2983 20.908C76.4782 21.0771 76.5681 21.2804 76.5681 21.5179C76.5681 21.7553 76.4782 21.9586 76.2983 22.1277C76.122 22.2968 75.9097 22.3813 75.6615 22.3813ZM79.8939 27.0657V32.0522H78.6202V23.7629H79.8507V25.0581H79.9586C80.1529 24.6372 80.4479 24.299 80.8437 24.0435C81.2394 23.7845 81.7503 23.655 82.3763 23.655C82.9376 23.655 83.4287 23.7701 83.8496 24.0003C84.2706 24.227 84.598 24.5724 84.8318 25.0365C85.0657 25.497 85.1826 26.0799 85.1826 26.7851V32.0522H83.909V26.8714C83.909 26.2202 83.7399 25.7129 83.4017 25.3495C83.0635 24.9825 82.5994 24.7991 82.0094 24.7991C81.6028 24.7991 81.2394 24.8872 80.9192 25.0635C80.6026 25.2398 80.3526 25.497 80.1691 25.8352C79.9856 26.1734 79.8939 26.5836 79.8939 27.0657ZM90.8559 35.3334C90.2407 35.3334 89.7118 35.2543 89.2693 35.096C88.8268 34.9413 88.458 34.7362 88.163 34.4808C87.8715 34.2289 87.6395 33.9591 87.4668 33.6713L88.4814 32.9589C88.5965 33.11 88.7422 33.2827 88.9185 33.477C89.0948 33.6749 89.3358 33.8458 89.6417 33.9897C89.9511 34.1372 90.3558 34.2109 90.8559 34.2109C91.5251 34.2109 92.0774 34.049 92.5127 33.7252C92.948 33.4014 93.1657 32.8941 93.1657 32.2034V30.5196H93.0578C92.9642 30.6707 92.8311 30.8578 92.6584 31.0808C92.4893 31.3003 92.2447 31.4964 91.9245 31.6691C91.6079 31.8382 91.1797 31.9227 90.6401 31.9227C89.9709 31.9227 89.37 31.7644 88.8376 31.4478C88.3087 31.1312 87.8895 30.6707 87.5801 30.0663C87.2743 29.4618 87.1214 28.7279 87.1214 27.8644C87.1214 27.0153 87.2707 26.276 87.5693 25.6463C87.8679 25.0131 88.2835 24.5238 88.816 24.1784C89.3484 23.8295 89.9637 23.655 90.6616 23.655C91.2013 23.655 91.6295 23.7449 91.9461 23.9248C92.2663 24.1011 92.5109 24.3026 92.68 24.5292C92.8527 24.7523 92.9858 24.9358 93.0794 25.0797H93.2089V23.7629H94.4393V32.2897C94.4393 33.0021 94.2774 33.5813 93.9536 34.0274C93.6334 34.4772 93.2017 34.8064 92.6584 35.015C92.1188 35.2273 91.5179 35.3334 90.8559 35.3334ZM90.8127 30.7786C91.3236 30.7786 91.7554 30.6617 92.108 30.4278C92.4605 30.194 92.7286 29.8576 92.9121 29.4186C93.0956 28.9797 93.1873 28.4544 93.1873 27.8428C93.1873 27.2456 93.0974 26.7185 92.9175 26.2616C92.7376 25.8046 92.4713 25.4467 92.1188 25.1876C91.7662 24.9286 91.3308 24.7991 90.8127 24.7991C90.2731 24.7991 89.8234 24.9358 89.4636 25.2092C89.1074 25.4826 88.8393 25.8496 88.6595 26.3101C88.4832 26.7707 88.395 27.2816 88.395 27.8428C88.395 28.4185 88.485 28.9275 88.6649 29.3701C88.8483 29.809 89.1182 30.1544 89.4744 30.4062C89.8341 30.6545 90.2803 30.7786 90.8127 30.7786ZM101.218 32.0522V20.9998H107.888V22.1871H102.556V25.9216H107.543V27.1089H102.556V30.865H107.974V32.0522H101.218ZM113.258 32.2249C112.567 32.2249 111.957 32.0504 111.428 31.7015C110.899 31.3489 110.486 30.8524 110.187 30.212C109.888 29.568 109.739 28.807 109.739 27.9292C109.739 27.0585 109.888 26.3029 110.187 25.6625C110.486 25.0221 110.901 24.5274 111.434 24.1784C111.966 23.8295 112.581 23.655 113.279 23.655C113.819 23.655 114.245 23.7449 114.558 23.9248C114.875 24.1011 115.116 24.3026 115.281 24.5292C115.451 24.7523 115.582 24.9358 115.675 25.0797H115.783V20.9998H117.057V32.0522H115.827V30.7786H115.675C115.582 30.9297 115.449 31.1204 115.276 31.3507C115.103 31.5773 114.857 31.7806 114.537 31.9605C114.217 32.1368 113.79 32.2249 113.258 32.2249ZM113.43 31.0808C113.941 31.0808 114.373 30.9477 114.726 30.6815C115.078 30.4116 115.346 30.0393 115.53 29.5644C115.713 29.0859 115.805 28.5336 115.805 27.9076C115.805 27.2887 115.715 26.7473 115.535 26.2832C115.355 25.8154 115.089 25.4521 114.736 25.193C114.384 24.9304 113.948 24.7991 113.43 24.7991C112.891 24.7991 112.441 24.9376 112.081 25.2146C111.725 25.488 111.457 25.8604 111.277 26.3317C111.101 26.7994 111.013 27.3247 111.013 27.9076C111.013 28.4976 111.103 29.0337 111.282 29.5158C111.466 29.9943 111.736 30.3757 112.092 30.6599C112.452 30.9405 112.898 31.0808 113.43 31.0808ZM124.79 28.6631V23.7629H126.064V32.0522H124.79V30.6491H124.704C124.51 31.07 124.208 31.428 123.797 31.723C123.387 32.0145 122.869 32.1602 122.243 32.1602C121.725 32.1602 121.265 32.0468 120.862 31.8202C120.459 31.5899 120.142 31.2445 119.912 30.784C119.682 30.3199 119.566 29.7353 119.566 29.0301V23.7629H120.84V28.9437C120.84 29.5482 121.009 30.0303 121.347 30.3901C121.689 30.7498 122.124 30.9297 122.653 30.9297C122.97 30.9297 123.292 30.8488 123.619 30.6869C123.95 30.525 124.227 30.2767 124.45 29.9421C124.677 29.6075 124.79 29.1812 124.79 28.6631ZM131.764 32.2249C130.987 32.2249 130.318 32.0415 129.757 31.6745C129.196 31.3075 128.764 30.802 128.462 30.158C128.159 29.514 128.008 28.7782 128.008 27.9507C128.008 27.1089 128.163 26.3659 128.472 25.7219C128.785 25.0743 129.221 24.5688 129.778 24.2054C130.34 23.8384 130.994 23.655 131.743 23.655C132.326 23.655 132.851 23.7629 133.319 23.9788C133.786 24.1946 134.17 24.4968 134.468 24.8854C134.767 25.274 134.952 25.7273 135.024 26.2454H133.75C133.653 25.8676 133.437 25.533 133.103 25.2416C132.772 24.9466 132.326 24.7991 131.764 24.7991C131.268 24.7991 130.833 24.9286 130.458 25.1876C130.088 25.4431 129.798 25.8046 129.589 26.2724C129.384 26.7365 129.282 27.2816 129.282 27.9076C129.282 28.548 129.383 29.1056 129.584 29.5806C129.789 30.0555 130.077 30.4242 130.448 30.6869C130.822 30.9495 131.261 31.0808 131.764 31.0808C132.095 31.0808 132.396 31.0233 132.666 30.9081C132.935 30.793 133.164 30.6275 133.351 30.4116C133.538 30.1958 133.671 29.9367 133.75 29.6345H135.024C134.952 30.1238 134.774 30.5646 134.49 30.9567C134.209 31.3453 133.837 31.6547 133.373 31.8849C132.912 32.1116 132.376 32.2249 131.764 32.2249ZM139.325 32.2465C138.8 32.2465 138.323 32.1476 137.895 31.9497C137.467 31.7482 137.127 31.4586 136.875 31.0808C136.623 30.6995 136.497 30.2389 136.497 29.6993C136.497 29.2244 136.591 28.8394 136.778 28.5444C136.965 28.2458 137.215 28.0119 137.528 27.8428C137.841 27.6737 138.186 27.5478 138.564 27.465C138.946 27.3787 139.329 27.3103 139.714 27.26C140.217 27.1952 140.626 27.1466 140.939 27.1143C141.255 27.0783 141.486 27.0189 141.63 26.9362C141.777 26.8534 141.851 26.7095 141.851 26.5044V26.4612C141.851 25.9288 141.705 25.515 141.414 25.22C141.126 24.925 140.689 24.7775 140.102 24.7775C139.494 24.7775 139.018 24.9106 138.672 25.1768C138.327 25.4431 138.084 25.7273 137.944 26.0295L136.735 25.5978C136.951 25.0941 137.238 24.7019 137.598 24.4213C137.962 24.1371 138.357 23.9392 138.785 23.8277C139.217 23.7125 139.642 23.655 140.059 23.655C140.325 23.655 140.631 23.6873 140.977 23.7521C141.326 23.8133 141.662 23.941 141.986 24.1353C142.313 24.3295 142.585 24.6228 142.801 25.0149C143.017 25.4071 143.124 25.9324 143.124 26.5908V32.0522H141.851V30.9297H141.786C141.7 31.1096 141.556 31.3021 141.354 31.5072C141.153 31.7123 140.885 31.8867 140.55 32.0307C140.216 32.1746 139.807 32.2465 139.325 32.2465ZM139.519 31.1024C140.023 31.1024 140.448 31.0035 140.793 30.8056C141.142 30.6077 141.405 30.3523 141.581 30.0393C141.761 29.7263 141.851 29.3971 141.851 29.0517V27.886C141.797 27.9507 141.678 28.0101 141.495 28.0641C141.315 28.1144 141.106 28.1594 140.869 28.199C140.635 28.235 140.406 28.2674 140.183 28.2961C139.964 28.3213 139.786 28.3429 139.649 28.3609C139.318 28.4041 139.009 28.4742 138.721 28.5714C138.437 28.6649 138.206 28.807 138.03 28.9977C137.857 29.1848 137.771 29.4402 137.771 29.764C137.771 30.2066 137.935 30.5412 138.262 30.7678C138.593 30.9909 139.012 31.1024 139.519 31.1024ZM149.054 23.7629V24.8422H144.758V23.7629H149.054ZM146.01 21.7769H147.284V29.6777C147.284 30.0375 147.336 30.3073 147.44 30.4872C147.548 30.6635 147.685 30.7822 147.851 30.8434C148.02 30.9009 148.198 30.9297 148.385 30.9297C148.525 30.9297 148.64 30.9225 148.73 30.9081C148.82 30.8902 148.892 30.8758 148.946 30.865L149.205 32.0091C149.119 32.0415 148.998 32.0738 148.844 32.1062C148.689 32.1422 148.493 32.1602 148.255 32.1602C147.896 32.1602 147.543 32.0828 147.198 31.9281C146.856 31.7734 146.572 31.5378 146.345 31.2212C146.122 30.9045 146.01 30.5052 146.01 30.0231V21.7769ZM150.97 32.0522V23.7629H152.244V32.0522H150.97ZM151.618 22.3813C151.369 22.3813 151.155 22.2968 150.975 22.1277C150.799 21.9586 150.711 21.7553 150.711 21.5179C150.711 21.2804 150.799 21.0771 150.975 20.908C151.155 20.7389 151.369 20.6544 151.618 20.6544C151.866 20.6544 152.078 20.7389 152.254 20.908C152.434 21.0771 152.524 21.2804 152.524 21.5179C152.524 21.7553 152.434 21.9586 152.254 22.1277C152.078 22.2968 151.866 22.3813 151.618 22.3813ZM157.944 32.2249C157.195 32.2249 156.539 32.0468 155.974 31.6907C155.413 31.3345 154.974 30.8362 154.657 30.1958C154.344 29.5554 154.188 28.807 154.188 27.9507C154.188 27.0873 154.344 26.3335 154.657 25.6895C154.974 25.0455 155.413 24.5454 155.974 24.1892C156.539 23.833 157.195 23.655 157.944 23.655C158.692 23.655 159.347 23.833 159.908 24.1892C160.473 24.5454 160.912 25.0455 161.225 25.6895C161.542 26.3335 161.7 27.0873 161.7 27.9507C161.7 28.807 161.542 29.5554 161.225 30.1958C160.912 30.8362 160.473 31.3345 159.908 31.6907C159.347 32.0468 158.692 32.2249 157.944 32.2249ZM157.944 31.0808C158.512 31.0808 158.98 30.9351 159.347 30.6437C159.714 30.3523 159.986 29.9691 160.162 29.4942C160.338 29.0193 160.426 28.5048 160.426 27.9507C160.426 27.3967 160.338 26.8804 160.162 26.4019C159.986 25.9234 159.714 25.5366 159.347 25.2416C158.98 24.9466 158.512 24.7991 157.944 24.7991C157.375 24.7991 156.908 24.9466 156.541 25.2416C156.174 25.5366 155.902 25.9234 155.726 26.4019C155.549 26.8804 155.461 27.3967 155.461 27.9507C155.461 28.5048 155.549 29.0193 155.726 29.4942C155.902 29.9691 156.174 30.3523 156.541 30.6437C156.908 30.9351 157.375 31.0808 157.944 31.0808ZM164.918 27.0657V32.0522H163.644V23.7629H164.875V25.0581H164.982C165.177 24.6372 165.472 24.299 165.868 24.0435C166.263 23.7845 166.774 23.655 167.4 23.655C167.961 23.655 168.453 23.7701 168.874 24.0003C169.294 24.227 169.622 24.5724 169.856 25.0365C170.09 25.497 170.207 26.0799 170.207 26.7851V32.0522H168.933V26.8714C168.933 26.2202 168.764 25.7129 168.426 25.3495C168.087 24.9825 167.623 24.7991 167.033 24.7991C166.627 24.7991 166.263 24.8872 165.943 25.0635C165.627 25.2398 165.376 25.497 165.193 25.8352C165.009 26.1734 164.918 26.5836 164.918 27.0657Z" fill="black"/>
<path d="M202.118 25.9324V27.1196H197.283V25.9324H202.118ZM207.597 33.4338V19.6182H208.483V33.4338H207.597ZM210.576 23.7629C210.512 23.216 210.249 22.7915 209.789 22.4893C209.328 22.1871 208.763 22.0359 208.094 22.0359C207.605 22.0359 207.177 22.1151 206.81 22.2734C206.446 22.4317 206.162 22.6494 205.957 22.9264C205.755 23.2034 205.655 23.5182 205.655 23.8708C205.655 24.1658 205.725 24.4195 205.865 24.6318C206.009 24.8404 206.193 25.0149 206.416 25.1552C206.639 25.292 206.873 25.4053 207.117 25.4952C207.362 25.5816 207.587 25.6517 207.792 25.7057L208.914 26.0079C209.202 26.0835 209.522 26.1878 209.875 26.3209C210.231 26.4541 210.571 26.6357 210.895 26.866C211.222 27.0927 211.492 27.3841 211.704 27.7403C211.917 28.0965 212.023 28.5336 212.023 29.0517C212.023 29.6489 211.866 30.1886 211.553 30.6707C211.244 31.1528 210.791 31.536 210.193 31.8202C209.6 32.1044 208.878 32.2465 208.029 32.2465C207.238 32.2465 206.552 32.1188 205.973 31.8634C205.397 31.6079 204.944 31.2517 204.613 30.7948C204.286 30.3379 204.1 29.8072 204.057 29.2028H205.439C205.475 29.6201 205.615 29.9655 205.86 30.2389C206.108 30.5088 206.421 30.7103 206.799 30.8434C207.18 30.9729 207.59 31.0377 208.029 31.0377C208.54 31.0377 208.999 30.9549 209.405 30.7894C209.812 30.6203 210.134 30.3865 210.371 30.0878C210.609 29.7856 210.728 29.433 210.728 29.0301C210.728 28.6631 210.625 28.3645 210.42 28.1342C210.215 27.904 209.945 27.7169 209.61 27.573C209.276 27.4291 208.914 27.3031 208.526 27.1952L207.166 26.8066C206.302 26.5584 205.619 26.204 205.115 25.7435C204.611 25.283 204.359 24.6803 204.359 23.9356C204.359 23.3168 204.527 22.7771 204.861 22.3166C205.2 21.8525 205.653 21.4927 206.221 21.2372C206.793 20.9782 207.432 20.8487 208.137 20.8487C208.85 20.8487 209.483 20.9764 210.037 21.2318C210.591 21.4837 211.03 21.8291 211.354 22.268C211.681 22.7069 211.854 23.2052 211.872 23.7629H210.576ZM217.915 20.9998V32.0522H216.576V22.4029H216.512L213.813 24.1946V22.8347L216.576 20.9998H217.915ZM224.547 32.2034C223.914 32.2034 223.344 32.0774 222.836 31.8256C222.329 31.5737 221.923 31.2283 221.617 30.7894C221.311 30.3505 221.144 29.8504 221.115 29.2891H222.41C222.46 29.7892 222.687 30.203 223.09 30.5304C223.497 30.8542 223.982 31.0161 224.547 31.0161C225.001 31.0161 225.403 30.9099 225.756 30.6977C226.112 30.4854 226.391 30.194 226.593 29.8234C226.798 29.4492 226.9 29.0265 226.9 28.5552C226.9 28.0731 226.794 27.6431 226.582 27.2654C226.373 26.884 226.085 26.5836 225.718 26.3641C225.351 26.1446 224.932 26.0331 224.461 26.0295C224.123 26.0259 223.775 26.0781 223.419 26.186C223.063 26.2904 222.77 26.4253 222.54 26.5908L221.288 26.4397L221.957 20.9998H227.699V22.1871H223.079L222.691 25.4467H222.756C222.982 25.2668 223.266 25.1175 223.608 24.9987C223.95 24.88 224.306 24.8206 224.677 24.8206C225.353 24.8206 225.956 24.9825 226.485 25.3064C227.017 25.6266 227.434 26.0655 227.737 26.6232C228.042 27.1808 228.195 27.8176 228.195 28.5336C228.195 29.2388 228.037 29.8684 227.72 30.4224C227.407 30.9729 226.976 31.4082 226.425 31.7284C225.875 32.0451 225.249 32.2034 224.547 32.2034ZM233.944 32.2034C233.131 32.2034 232.439 31.9821 231.867 31.5396C231.294 31.0934 230.857 30.4476 230.555 29.6021C230.253 28.7531 230.102 27.7277 230.102 26.526C230.102 25.3315 230.253 24.3116 230.555 23.4661C230.861 22.617 231.3 21.9694 231.872 21.5233C232.448 21.0735 233.138 20.8487 233.944 20.8487C234.75 20.8487 235.439 21.0735 236.011 21.5233C236.587 21.9694 237.026 22.617 237.328 23.4661C237.634 24.3116 237.787 25.3315 237.787 26.526C237.787 27.7277 237.636 28.7531 237.333 29.6021C237.031 30.4476 236.594 31.0934 236.022 31.5396C235.45 31.9821 234.757 32.2034 233.944 32.2034ZM233.944 31.0161C234.75 31.0161 235.376 30.6275 235.822 29.8504C236.268 29.0733 236.491 27.9651 236.491 26.526C236.491 25.569 236.389 24.7541 236.184 24.0813C235.982 23.4085 235.691 22.8958 235.31 22.5432C234.932 22.1906 234.477 22.0144 233.944 22.0144C233.146 22.0144 232.521 22.4083 232.072 23.1962C231.622 23.9806 231.397 25.0905 231.397 26.526C231.397 27.483 231.498 28.2961 231.699 28.9653C231.901 29.6345 232.19 30.1436 232.568 30.4926C232.949 30.8416 233.408 31.0161 233.944 31.0161Z" fill="black"/>
<rect x="264.746" y="8.68408" width="41.3682" height="34.7363" rx="4.34204" fill="#F3F6FF"/>
<path d="M277.936 21.5787V31.0522H276.502V23.0127H276.447L274.18 24.4929V23.1237L276.544 21.5787H277.936ZM284.093 21.5787V31.0522H282.659V23.0127H282.604L280.337 24.4929V23.1237L282.701 21.5787H284.093ZM291.601 29.276V28.7764C291.601 28.4186 291.675 28.0918 291.823 27.7957C291.974 27.4966 292.193 27.2576 292.48 27.0787C292.769 26.8968 293.119 26.8058 293.53 26.8058C293.949 26.8058 294.301 26.8952 294.584 27.0741C294.868 27.253 295.082 27.492 295.227 27.7911C295.375 28.0902 295.449 28.4186 295.449 28.7764V29.276C295.449 29.6337 295.375 29.9621 295.227 30.2612C295.079 30.5573 294.862 30.7963 294.575 30.9782C294.291 31.1571 293.943 31.2465 293.53 31.2465C293.113 31.2465 292.762 31.1571 292.475 30.9782C292.188 30.7963 291.971 30.5573 291.823 30.2612C291.675 29.9621 291.601 29.6337 291.601 29.276ZM292.678 28.7764V29.276C292.678 29.5412 292.742 29.7817 292.868 29.9976C292.995 30.2134 293.215 30.3214 293.53 30.3214C293.841 30.3214 294.058 30.2134 294.182 29.9976C294.305 29.7817 294.367 29.5412 294.367 29.276V28.7764C294.367 28.5112 294.307 28.2706 294.186 28.0548C294.069 27.8389 293.85 27.731 293.53 27.731C293.221 27.731 293.002 27.8389 292.873 28.0548C292.743 28.2706 292.678 28.5112 292.678 28.7764ZM286.836 23.8546V23.355C286.836 22.9973 286.91 22.6688 287.058 22.3697C287.209 22.0706 287.428 21.8316 287.715 21.6527C288.005 21.4738 288.355 21.3844 288.765 21.3844C289.184 21.3844 289.536 21.4738 289.82 21.6527C290.103 21.8316 290.318 22.0706 290.463 22.3697C290.608 22.6688 290.68 22.9973 290.68 23.355V23.8546C290.68 24.2123 290.606 24.5407 290.458 24.8399C290.313 25.1359 290.097 25.3749 289.81 25.5568C289.527 25.7357 289.178 25.8251 288.765 25.8251C288.346 25.8251 287.993 25.7357 287.706 25.5568C287.422 25.3749 287.206 25.1359 287.058 24.8399C286.91 24.5407 286.836 24.2123 286.836 23.8546ZM287.919 23.355V23.8546C287.919 24.1198 287.98 24.3603 288.104 24.5762C288.23 24.7921 288.45 24.9 288.765 24.9C289.073 24.9 289.289 24.7921 289.413 24.5762C289.539 24.3603 289.602 24.1198 289.602 23.8546V23.355C289.602 23.0898 289.542 22.8492 289.422 22.6334C289.302 22.4175 289.083 22.3096 288.765 22.3096C288.457 22.3096 288.238 22.4175 288.108 22.6334C287.982 22.8492 287.919 23.0898 287.919 23.355ZM287.276 31.0522L293.789 21.5787H294.894L288.381 31.0522H287.276Z" fill="#4D6CA3"/>
</svg>
