<svg width="44" height="44" viewBox="0 0 44 44" fill="none" xmlns="http://www.w3.org/2000/svg">
<rect width="44" height="44" rx="22" fill="#F4F7F7"/>
<path d="M24.6135 14.9466C24.7371 15.07 24.8352 15.2165 24.9021 15.3778C24.969 15.5391 25.0034 15.712 25.0034 15.8866C25.0034 16.0612 24.969 16.2341 24.9021 16.3954C24.8352 16.5567 24.7371 16.7033 24.6135 16.8266L19.4402 21.9999L24.6135 27.1733C24.7369 27.2967 24.8349 27.4433 24.9017 27.6046C24.9685 27.7658 25.0029 27.9387 25.0029 28.1133C25.0029 28.2879 24.9685 28.4607 24.9017 28.622C24.8349 28.7833 24.7369 28.9298 24.6135 29.0533C24.49 29.1767 24.3435 29.2746 24.1822 29.3414C24.0209 29.4083 23.8481 29.4426 23.6735 29.4426C23.4989 29.4426 23.3261 29.4083 23.1648 29.3414C23.0035 29.2746 22.8569 29.1767 22.7335 29.0533L16.6135 22.9333C16.4899 22.8099 16.3918 22.6634 16.3249 22.5021C16.258 22.3408 16.2236 22.1679 16.2236 21.9933C16.2236 21.8187 16.258 21.6457 16.3249 21.4844C16.3918 21.3232 16.4899 21.1766 16.6135 21.0533L22.7335 14.9333C23.2402 14.4266 24.0935 14.4266 24.6135 14.9466Z" fill="#9EB8B9"/>
</svg>
