<svg width="32" height="32" viewBox="0 0 32 32" fill="none" xmlns="http://www.w3.org/2000/svg">
<path d="M6.67208 9.3331H6.63342C6.22401 9.35869 5.81373 9.29948 5.42827 9.15917C5.0428 9.01887 4.69045 8.80049 4.39329 8.51772C4.09612 8.23495 3.86053 7.89387 3.70128 7.51584C3.54202 7.13781 3.46253 6.73097 3.46777 6.3208C3.47302 5.91063 3.56289 5.50595 3.73176 5.13212C3.90063 4.75829 4.14486 4.42334 4.44917 4.14826C4.75347 3.87318 5.11128 3.66389 5.50021 3.53349C5.88914 3.40309 6.3008 3.35439 6.70942 3.39044C7.11883 3.36184 7.52974 3.41811 7.91639 3.55574C8.30303 3.69336 8.65709 3.90937 8.95635 4.19022C9.25562 4.47107 9.49365 4.81071 9.65551 5.18786C9.81738 5.565 9.89961 5.97151 9.89703 6.38191C9.89445 6.79232 9.80713 7.19776 9.64053 7.57284C9.47394 7.94792 9.23166 8.28454 8.92889 8.56161C8.62612 8.83868 8.26938 9.05022 7.88104 9.18298C7.49269 9.31574 7.08111 9.36685 6.67208 9.3331Z" fill="#276164"/>
<path d="M4.02393 13.3335H9.35726V29.3335H4.02393V13.3335Z" fill="#276164"/>
<path d="M23.3574 13.3335C22.4588 13.3359 21.5722 13.5414 20.7642 13.9346C19.9561 14.3278 19.2473 14.8985 18.6908 15.6042V13.3335H13.3574V29.3335H18.6908V22.0002C18.6908 21.2929 18.9717 20.6146 19.4718 20.1145C19.9719 19.6144 20.6502 19.3335 21.3574 19.3335C22.0647 19.3335 22.7429 19.6144 23.243 20.1145C23.7431 20.6146 24.0241 21.2929 24.0241 22.0002V29.3335H29.3574V19.3335C29.3574 17.7422 28.7253 16.2161 27.6001 15.0909C26.4748 13.9656 24.9487 13.3335 23.3574 13.3335Z" fill="#276164"/>
</svg>
