<svg width="263" height="182" viewBox="0 0 263 182" fill="none" xmlns="http://www.w3.org/2000/svg">
<path d="M227.039 163.391C227.039 164.908 184.725 166.133 132.528 166.133C80.3319 166.133 33.1705 164.908 33.1705 163.391C33.1705 161.875 80.3319 160.649 132.528 160.649C184.725 160.649 227.039 161.878 227.039 163.391Z" fill="#7A9FA0" fill-opacity="0.4"/>
<mask id="path-2-inside-1_1254_6325" fill="white">
<path fill-rule="evenodd" clip-rule="evenodd" d="M113.2 160.129C114.057 156.536 113.815 151.596 112.574 145.809C111.97 147.811 110.68 150.028 109.405 151.354C107.113 153.742 101.748 156.5 100.05 154.781C98.3516 153.061 100.963 147.515 103.256 145.128C105.246 143.056 109.351 140.913 111.51 141.508C110.305 137.178 108.62 132.489 106.488 127.614C105.952 129.724 104.566 132.174 103.198 133.598C100.905 135.986 95.5404 138.744 93.8422 137.025C92.144 135.305 94.7553 129.759 97.0483 127.372C98.8601 125.486 102.424 123.541 104.677 123.656C103.114 120.382 101.361 117.047 99.4266 113.701C98.8145 112.642 98.1947 111.6 97.5682 110.575C97.5532 113.803 96.3352 117.938 94.803 120.499C92.3272 124.639 85.6582 130.308 82.7433 128.421C79.8283 126.534 81.7712 117.805 84.247 113.666C86.3592 110.135 91.3142 105.839 94.5341 105.826C88.934 97.4349 82.983 90.5148 77.4675 85.7487C76.4022 84.8282 76.0287 83.2699 76.6828 82.0139C77.4967 80.4511 79.472 80.1144 80.8173 81.2365C85.2135 84.9032 89.9952 90.1632 94.7236 96.5988C95.6227 93.4395 101.926 89.8757 106.053 89.0098C110.743 88.0259 119.012 89.1844 119.823 92.5835C120.633 95.9827 113.679 100.335 108.99 101.319C105.757 101.997 100.565 101.712 97.3853 100.355C100.15 104.398 102.867 108.822 105.448 113.541C106.333 115.161 107.181 116.776 107.99 118.38C109.942 117.147 114.352 117.174 116.908 117.957C120.082 118.93 124.718 122.393 124.084 124.719C123.449 127.044 117.784 127.35 114.61 126.378C113.506 126.039 112.18 125.386 110.947 124.579C117.484 139.112 120.603 152.264 119.542 160.129L113.2 160.129Z"/>
</mask>
<path fill-rule="evenodd" clip-rule="evenodd" d="M113.2 160.129C114.057 156.536 113.815 151.596 112.574 145.809C111.97 147.811 110.68 150.028 109.405 151.354C107.113 153.742 101.748 156.5 100.05 154.781C98.3516 153.061 100.963 147.515 103.256 145.128C105.246 143.056 109.351 140.913 111.51 141.508C110.305 137.178 108.62 132.489 106.488 127.614C105.952 129.724 104.566 132.174 103.198 133.598C100.905 135.986 95.5404 138.744 93.8422 137.025C92.144 135.305 94.7553 129.759 97.0483 127.372C98.8601 125.486 102.424 123.541 104.677 123.656C103.114 120.382 101.361 117.047 99.4266 113.701C98.8145 112.642 98.1947 111.6 97.5682 110.575C97.5532 113.803 96.3352 117.938 94.803 120.499C92.3272 124.639 85.6582 130.308 82.7433 128.421C79.8283 126.534 81.7712 117.805 84.247 113.666C86.3592 110.135 91.3142 105.839 94.5341 105.826C88.934 97.4349 82.983 90.5148 77.4675 85.7487C76.4022 84.8282 76.0287 83.2699 76.6828 82.0139C77.4967 80.4511 79.472 80.1144 80.8173 81.2365C85.2135 84.9032 89.9952 90.1632 94.7236 96.5988C95.6227 93.4395 101.926 89.8757 106.053 89.0098C110.743 88.0259 119.012 89.1844 119.823 92.5835C120.633 95.9827 113.679 100.335 108.99 101.319C105.757 101.997 100.565 101.712 97.3853 100.355C100.15 104.398 102.867 108.822 105.448 113.541C106.333 115.161 107.181 116.776 107.99 118.38C109.942 117.147 114.352 117.174 116.908 117.957C120.082 118.93 124.718 122.393 124.084 124.719C123.449 127.044 117.784 127.35 114.61 126.378C113.506 126.039 112.18 125.386 110.947 124.579C117.484 139.112 120.603 152.264 119.542 160.129L113.2 160.129Z" fill="#CBD5CA"/>
<path d="M113.2 160.129L112.519 159.967L112.314 160.829L113.2 160.829L113.2 160.129ZM112.574 145.809L113.258 145.662L111.903 145.607L112.574 145.809ZM109.405 151.354L108.901 150.869L109.405 151.354ZM100.05 154.781L99.5517 155.273L100.05 154.781ZM103.256 145.128L102.751 144.643L102.751 144.643L103.256 145.128ZM111.51 141.508L111.324 142.183L112.515 142.511L112.184 141.32L111.51 141.508ZM106.488 127.614L107.129 127.334L106.311 125.464L105.809 127.442L106.488 127.614ZM103.198 133.598L103.703 134.083L103.198 133.598ZM93.8422 137.025L94.3402 136.533L93.8422 137.025ZM97.0483 127.372L96.5434 126.887L96.5434 126.887L97.0483 127.372ZM104.677 123.656L104.641 124.355L105.815 124.415L105.309 123.354L104.677 123.656ZM99.4266 113.701L98.8206 114.051L99.4266 113.701ZM97.5682 110.575L98.1655 110.21L96.8797 108.107L96.8683 110.572L97.5682 110.575ZM94.803 120.499L94.2023 120.14L94.803 120.499ZM82.7433 128.421L82.3629 129.009L82.3629 129.009L82.7433 128.421ZM84.247 113.666L84.8478 114.025L84.8478 114.025L84.247 113.666ZM94.5341 105.826L94.5371 106.526L95.8392 106.52L95.1163 105.437L94.5341 105.826ZM77.4675 85.7487L77.0099 86.2784L77.4675 85.7487ZM76.6828 82.0139L76.0619 81.6906L76.0619 81.6906L76.6828 82.0139ZM80.8173 81.2365L81.2657 80.699L81.2657 80.699L80.8173 81.2365ZM94.7236 96.5988L94.1595 97.0133L95.0057 98.165L95.3968 96.7904L94.7236 96.5988ZM106.053 89.0098L106.197 89.6949L106.053 89.0098ZM108.99 101.319L108.846 100.634L108.99 101.319ZM97.3853 100.355L97.6599 99.7115L95.4535 98.7704L96.8074 100.75L97.3853 100.355ZM105.448 113.541L104.833 113.877L105.448 113.541ZM107.99 118.38L107.365 118.696L107.712 119.384L108.364 118.972L107.99 118.38ZM116.908 117.957L117.113 117.288L117.113 117.288L116.908 117.957ZM124.084 124.719L123.409 124.534L124.084 124.719ZM114.61 126.378L114.815 125.708L114.815 125.708L114.61 126.378ZM110.947 124.579L111.33 123.993L109.326 122.683L110.308 124.866L110.947 124.579ZM119.542 160.129L119.542 160.829L120.154 160.829L120.236 160.223L119.542 160.129ZM113.881 160.292C114.773 156.551 114.509 151.492 113.258 145.662L111.889 145.956C113.121 151.7 113.341 156.521 112.519 159.967L113.881 160.292ZM111.903 145.607C111.329 147.511 110.093 149.628 108.901 150.869L109.91 151.839C111.266 150.428 112.61 148.112 113.244 146.011L111.903 145.607ZM108.901 150.869C107.829 151.985 105.998 153.221 104.233 153.962C103.352 154.332 102.53 154.561 101.857 154.608C101.172 154.656 100.766 154.509 100.548 154.289L99.5517 155.273C100.183 155.911 101.084 156.065 101.954 156.005C102.837 155.943 103.817 155.656 104.776 155.253C106.691 154.448 108.689 153.111 109.91 151.839L108.901 150.869ZM100.548 154.289C100.325 154.063 100.173 153.635 100.211 152.919C100.248 152.22 100.461 151.367 100.81 150.455C101.509 148.628 102.689 146.729 103.761 145.613L102.751 144.643C101.53 145.915 100.257 147.982 99.5024 149.955C99.1242 150.943 98.8599 151.947 98.8128 152.846C98.7666 153.729 98.9256 154.639 99.5517 155.273L100.548 154.289ZM103.761 145.613C104.686 144.649 106.135 143.643 107.615 142.952C108.352 142.608 109.078 142.352 109.732 142.216C110.394 142.079 110.932 142.075 111.324 142.183L111.696 140.833C111.008 140.643 110.224 140.684 109.447 140.846C108.661 141.009 107.831 141.307 107.024 141.683C105.415 142.433 103.816 143.534 102.751 144.643L103.761 145.613ZM112.184 141.32C110.97 136.955 109.273 132.235 107.129 127.334L105.847 127.895C107.967 132.743 109.641 137.401 110.835 141.695L112.184 141.32ZM105.809 127.442C105.304 129.435 103.977 131.777 102.693 133.113L103.703 134.083C105.155 132.571 106.601 130.013 107.166 127.786L105.809 127.442ZM102.693 133.113C101.622 134.229 99.7906 135.465 98.0259 136.206C97.1447 136.576 96.3221 136.805 95.6494 136.852C94.9644 136.9 94.5583 136.754 94.3402 136.533L93.3442 137.517C93.9752 138.155 94.8764 138.309 95.7466 138.249C96.629 138.187 97.6093 137.9 98.5681 137.497C100.483 136.692 102.481 135.355 103.703 134.083L102.693 133.113ZM94.3402 136.533C94.1173 136.307 93.9659 135.879 94.0033 135.163C94.0399 134.464 94.2533 133.611 94.6023 132.699C95.3016 130.872 96.4814 128.973 97.5531 127.857L96.5434 126.887C95.3222 128.159 94.0499 130.226 93.2948 132.199C92.9166 133.187 92.6523 134.192 92.6052 135.09C92.559 135.973 92.718 136.883 93.3442 137.517L94.3402 136.533ZM97.5531 127.857C98.394 126.981 99.6696 126.067 101.013 125.388C102.373 124.7 103.696 124.307 104.641 124.355L104.713 122.957C103.404 122.89 101.819 123.411 100.381 124.139C98.9264 124.874 97.5143 125.876 96.5434 126.887L97.5531 127.857ZM105.309 123.354C103.738 120.063 101.976 116.712 100.033 113.351L98.8206 114.051C100.745 117.382 102.49 120.7 104.045 123.957L105.309 123.354ZM100.033 113.351C99.4177 112.287 98.7949 111.239 98.1655 110.21L96.971 110.94C97.5944 111.96 98.2113 112.997 98.8206 114.051L100.033 113.351ZM96.8683 110.572C96.8538 113.67 95.6722 117.683 94.2023 120.14L95.4038 120.859C96.9982 118.193 98.2526 113.935 98.2682 110.578L96.8683 110.572ZM94.2023 120.14C93.0193 122.118 90.8019 124.503 88.5267 126.154C87.3899 126.978 86.276 127.593 85.3031 127.892C84.318 128.196 83.6013 128.143 83.1237 127.833L82.3629 129.009C83.3427 129.643 84.5527 129.589 85.7153 129.23C86.89 128.868 88.1446 128.161 89.3489 127.287C91.7559 125.54 94.111 123.02 95.4038 120.859L94.2023 120.14ZM83.1237 127.833C82.638 127.519 82.267 126.856 82.091 125.788C81.9179 124.737 81.9566 123.418 82.1662 121.99C82.5859 119.13 83.6644 116.004 84.8478 114.025L83.6463 113.307C82.3538 115.467 81.223 118.775 80.781 121.786C80.5598 123.294 80.5045 124.77 80.7096 126.015C80.9118 127.243 81.3911 128.379 82.3629 129.009L83.1237 127.833ZM84.8478 114.025C85.8535 112.344 87.5597 110.448 89.4112 108.974C90.3342 108.239 91.2776 107.622 92.1702 107.19C93.0702 106.754 93.8764 106.528 94.5371 106.526L94.5311 105.126C93.5819 105.13 92.5612 105.446 91.5605 105.93C90.5525 106.417 89.5214 107.097 88.5392 107.879C86.5801 109.439 84.7528 111.457 83.6463 113.307L84.8478 114.025ZM95.1163 105.437C89.4909 97.0083 83.4999 90.0363 77.9252 85.2191L77.0099 86.2784C82.4661 90.9932 88.3771 97.8614 93.9519 106.214L95.1163 105.437ZM77.9252 85.2191C77.0812 84.4897 76.8137 83.278 77.3036 82.3373L76.0619 81.6906C75.2437 83.2617 75.7232 85.1666 77.0099 86.2784L77.9252 85.2191ZM77.3036 82.3373C77.8993 81.1935 79.3467 80.9215 80.369 81.7741L81.2657 80.699C79.5973 79.3074 77.0941 79.7087 76.0619 81.6906L77.3036 82.3373ZM80.369 81.7741C84.7094 85.3943 89.4535 90.6082 94.1595 97.0133L95.2877 96.1844C90.5368 89.7182 85.7176 84.4121 81.2657 80.699L80.369 81.7741ZM95.3968 96.7904C95.5759 96.1613 96.0482 95.446 96.7909 94.6937C97.5254 93.9498 98.4811 93.2132 99.552 92.5359C101.7 91.1771 104.231 90.1074 106.197 89.6949L105.909 88.3247C103.749 88.7781 101.064 89.9232 98.8036 91.3527C97.6704 92.0694 96.6238 92.8703 95.7946 93.7102C94.9736 94.5417 94.3208 95.4567 94.0503 96.4072L95.3968 96.7904ZM106.197 89.6949C108.433 89.2256 111.573 89.2636 114.245 89.8374C115.58 90.1239 116.756 90.5356 117.631 91.0548C118.515 91.5793 119.001 92.1578 119.142 92.746L120.503 92.4211C120.238 91.3097 119.387 90.4688 118.346 89.8508C117.295 89.2275 115.96 88.7737 114.539 88.4686C111.702 87.8594 108.362 87.81 105.909 88.3247L106.197 89.6949ZM119.142 92.746C119.281 93.3282 119.107 94.0335 118.552 94.8513C118.001 95.6635 117.129 96.5022 116.054 97.2932C113.902 98.8767 111.082 100.165 108.846 100.634L109.134 102.004C111.587 101.489 114.589 100.109 116.884 98.4208C118.032 97.5758 119.039 96.6275 119.711 95.6369C120.379 94.6519 120.77 93.5385 120.503 92.4211L119.142 92.746ZM108.846 100.634C107.31 100.956 105.272 101.055 103.22 100.902C101.164 100.749 99.1541 100.349 97.6599 99.7115L97.1106 100.999C98.796 101.718 100.972 102.139 103.116 102.298C105.262 102.458 107.437 102.36 109.134 102.004L108.846 100.634ZM96.8074 100.75C99.5584 104.774 102.264 109.178 104.833 113.877L106.062 113.206C103.47 108.467 100.741 104.023 97.9631 99.9603L96.8074 100.75ZM104.833 113.877C105.715 115.49 106.559 117.098 107.365 118.696L108.615 118.065C107.802 116.453 106.951 114.832 106.062 113.206L104.833 113.877ZM108.364 118.972C109.177 118.459 110.612 118.161 112.243 118.112C113.851 118.065 115.514 118.262 116.703 118.627L117.113 117.288C115.747 116.869 113.926 116.662 112.202 116.713C110.502 116.764 108.755 117.069 107.616 117.789L108.364 118.972ZM116.703 118.627C118.184 119.081 120.053 120.137 121.466 121.36C122.171 121.97 122.731 122.595 123.074 123.175C123.423 123.764 123.496 124.213 123.409 124.534L124.759 124.903C124.989 124.061 124.72 123.206 124.279 122.461C123.832 121.707 123.154 120.969 122.382 120.301C120.842 118.968 118.805 117.807 117.113 117.288L116.703 118.627ZM123.409 124.534C123.323 124.849 123.045 125.177 122.465 125.472C121.891 125.763 121.11 125.974 120.209 126.091C118.404 126.325 116.296 126.162 114.815 125.708L114.405 127.047C116.098 127.566 118.409 127.736 120.389 127.479C121.381 127.35 122.333 127.109 123.099 126.72C123.86 126.333 124.528 125.751 124.759 124.903L123.409 124.534ZM114.815 125.708C113.79 125.394 112.524 124.774 111.33 123.993L110.564 125.165C111.836 125.997 113.222 126.685 114.405 127.047L114.815 125.708ZM110.308 124.866C113.563 132.101 115.961 138.981 117.413 145.018C118.868 151.068 119.362 156.226 118.848 160.036L120.236 160.223C120.783 156.168 120.248 150.817 118.774 144.691C117.298 138.553 114.868 131.591 111.585 124.292L110.308 124.866ZM113.2 160.829L119.542 160.829L119.542 159.429L113.2 159.429L113.2 160.829Z" fill="black" mask="url(#path-2-inside-1_1254_6325)"/>
<path d="M49.5766 65.1632C51.1638 67.3449 54.0374 69.0847 57.1862 69.7951C60.3321 70.5047 63.6925 70.1741 66.2689 68.2998C68.8454 66.4256 70.1945 63.3303 70.4879 60.1187C70.7816 56.9041 70.011 53.6344 68.4239 51.4527C66.8521 49.292 64.5778 48.3346 62.0309 48.3861C59.4725 48.4378 56.6348 49.5104 53.9966 51.4296C51.3584 53.3488 49.4642 55.7184 48.6273 58.1366C47.7942 60.5439 48.0048 63.0025 49.5766 65.1632Z" fill="#FBF3EA" stroke="black" stroke-width="0.7"/>
<path d="M66.268 50.98C65.66 53.6085 66.2287 56.9193 67.7555 59.7633C69.2809 62.6047 71.7326 64.9265 74.8366 65.6445C77.9407 66.3626 81.163 65.3535 83.7812 63.4706C86.4019 61.586 88.3668 58.8614 88.9749 56.2328C89.5771 53.6297 88.8101 51.2844 87.1022 49.3942C85.3867 47.4955 82.717 46.0548 79.5385 45.3195C76.36 44.5842 73.3289 44.7061 70.9538 45.6585C68.5893 46.6066 66.8702 48.3768 66.268 50.98Z" fill="#FBF3EA" stroke="black" stroke-width="0.7"/>
<path d="M45.0032 85.2876C47.6637 85.7354 50.934 84.9673 53.6804 83.2711C56.4242 81.5765 58.5933 78.9888 59.1221 75.8469C59.6509 72.705 58.4486 69.5498 56.4107 67.0503C54.3709 64.5486 51.5323 62.7522 48.8717 62.3043C46.2369 61.8608 43.9423 62.7685 42.159 64.5876C40.3676 66.4149 39.0912 69.167 38.5497 72.3841C38.0082 75.6013 38.3133 78.6195 39.4078 80.9326C40.4973 83.2353 42.3683 84.8441 45.0032 85.2876Z" fill="#FBF3EA" stroke="black" stroke-width="0.7"/>
<path d="M59.8249 77.8392C61.412 80.0209 64.2857 81.7608 67.4345 82.4711C70.5804 83.1807 73.9407 82.8501 76.5172 80.9759C79.0937 79.1016 80.4428 76.0063 80.7362 72.7947C81.0299 69.5802 80.2593 66.3104 78.6722 64.1287C77.1004 61.968 74.8261 61.0106 72.2792 61.0621C69.7208 61.1138 66.8831 62.1865 64.2449 64.1056C61.6067 66.0248 59.7125 68.3944 58.8756 70.8126C58.0425 73.22 58.2531 75.6785 59.8249 77.8392Z" fill="#AC590C" stroke="black" stroke-width="0.7"/>
<path d="M88.624 54.3579C85.9558 54.7571 83.0848 56.5014 80.9998 58.9656C78.9166 61.4274 77.6569 64.5602 78.1283 67.7112C78.5998 70.8622 80.7212 73.4891 83.4337 75.2334C86.1487 76.9794 89.4045 77.8071 92.0727 77.4079C94.7152 77.0125 96.6152 75.4381 97.7466 73.1557C98.8831 70.8629 99.2432 67.8508 98.7605 64.6243C98.2777 61.3977 97.0517 58.6229 95.294 56.7632C93.5441 54.9118 91.2665 53.9625 88.624 54.3579Z" fill="#FBF3EA" stroke="black" stroke-width="0.7"/>
<path d="M67.4074 95.9045C68.8321 93.6133 69.3635 90.2963 68.8375 87.1116C68.3119 83.9297 66.7418 80.9404 64.0362 79.258C61.3306 77.5755 57.9551 77.4895 54.869 78.4255C51.78 79.3623 49.0401 81.306 47.6154 83.5971C46.2045 85.8661 46.1727 88.3335 47.1782 90.674C48.1883 93.0252 50.2494 95.2511 53.0198 96.9739C55.7903 98.6967 58.6983 99.5606 61.2537 99.4267C63.7977 99.2933 65.9965 98.1734 67.4074 95.9045Z" fill="#FBF3EA" stroke="black" stroke-width="0.7"/>
<path d="M85.2148 89.2599C84.7725 86.5985 82.9819 83.7562 80.4844 81.7112C77.9892 79.6681 74.8364 78.4593 71.6935 78.9816C68.5505 79.5039 65.9583 81.6676 64.258 84.408C62.5562 87.1508 61.7813 90.4195 62.2236 93.081C62.6616 95.7167 64.2666 97.5911 66.567 98.6853C68.8778 99.7846 71.8954 100.096 75.1137 99.5611C78.332 99.0262 81.0866 97.7555 82.9177 95.9679C84.7405 94.1884 85.6528 91.8957 85.2148 89.2599Z" fill="#FBF3EA" stroke="black" stroke-width="0.7"/>
<path d="M94.3999 70.3314C91.9376 68.6661 88.3114 67.9425 84.7882 68.3865C81.2679 68.8301 77.9114 70.4306 75.9443 73.3391C73.9772 76.2476 73.7413 79.9587 74.6401 83.3911C75.5397 86.8264 77.5612 89.9225 80.0235 91.5878C82.4643 93.2386 85.1823 93.3775 87.8021 92.3691C90.4327 91.3565 92.9671 89.1832 94.9769 86.2115C96.9868 83.2398 98.0604 80.0785 98.0208 77.2601C97.9814 74.4532 96.8407 71.9822 94.3999 70.3314Z" fill="#FBF3EA" stroke="black" stroke-width="0.7"/>
<mask id="path-12-inside-2_1254_6325" fill="white">
<path fill-rule="evenodd" clip-rule="evenodd" d="M159.684 160.13C156.679 155.728 156.763 146.583 159.622 135.463C160.175 137.383 161.49 139.591 162.774 140.892C164.969 143.115 170.068 145.716 171.647 144.156C173.226 142.597 170.688 137.466 168.493 135.244C166.581 133.308 162.66 131.28 160.637 131.819C162.323 126.193 164.664 120.165 167.622 114.058C167.942 113.399 168.265 112.745 168.592 112.099C168.656 115.14 170.197 119.272 171.949 121.718C174.581 125.392 181.274 130.267 183.885 128.398C186.496 126.528 184.035 118.621 181.403 114.946C179.01 111.606 173.513 107.625 170.572 108.335C175.045 100.164 180.011 93.2463 184.804 88.2395C185.709 87.2946 185.878 85.8169 185.096 84.7678C184.191 83.5525 182.465 83.496 181.398 84.5718C178.409 87.5843 175.308 91.4161 172.262 95.8909C170.801 93.1913 164.199 91.1231 160.201 91.104C155.681 91.0825 148.332 93.6507 148.317 96.8619C148.302 100.073 155.626 102.711 160.145 102.733C162.793 102.745 166.591 101.87 169.286 100.498C166.792 104.564 164.374 109.036 162.129 113.812C161.926 114.245 161.725 114.677 161.527 115.109C160.041 113.586 155.351 113.298 152.696 113.934C149.658 114.663 145.146 117.595 145.664 119.753C146.181 121.912 151.532 122.479 154.57 121.751C156.127 121.377 158.162 120.404 159.708 119.253C152.255 136.99 149.784 153.106 153.191 160.13L159.684 160.13Z"/>
</mask>
<path fill-rule="evenodd" clip-rule="evenodd" d="M159.684 160.13C156.679 155.728 156.763 146.583 159.622 135.463C160.175 137.383 161.49 139.591 162.774 140.892C164.969 143.115 170.068 145.716 171.647 144.156C173.226 142.597 170.688 137.466 168.493 135.244C166.581 133.308 162.66 131.28 160.637 131.819C162.323 126.193 164.664 120.165 167.622 114.058C167.942 113.399 168.265 112.745 168.592 112.099C168.656 115.14 170.197 119.272 171.949 121.718C174.581 125.392 181.274 130.267 183.885 128.398C186.496 126.528 184.035 118.621 181.403 114.946C179.01 111.606 173.513 107.625 170.572 108.335C175.045 100.164 180.011 93.2463 184.804 88.2395C185.709 87.2946 185.878 85.8169 185.096 84.7678C184.191 83.5525 182.465 83.496 181.398 84.5718C178.409 87.5843 175.308 91.4161 172.262 95.8909C170.801 93.1913 164.199 91.1231 160.201 91.104C155.681 91.0825 148.332 93.6507 148.317 96.8619C148.302 100.073 155.626 102.711 160.145 102.733C162.793 102.745 166.591 101.87 169.286 100.498C166.792 104.564 164.374 109.036 162.129 113.812C161.926 114.245 161.725 114.677 161.527 115.109C160.041 113.586 155.351 113.298 152.696 113.934C149.658 114.663 145.146 117.595 145.664 119.753C146.181 121.912 151.532 122.479 154.57 121.751C156.127 121.377 158.162 120.404 159.708 119.253C152.255 136.99 149.784 153.106 153.191 160.13L159.684 160.13Z" fill="#CBD5CA"/>
<path d="M159.622 135.463L158.944 135.288L159.583 132.801L160.294 135.269L159.622 135.463ZM159.684 160.13L160.262 159.736L161.01 160.83L159.684 160.83L159.684 160.13ZM162.774 140.892L163.272 140.4L162.774 140.892ZM171.647 144.156L172.139 144.654L171.647 144.156ZM168.493 135.244L167.995 135.736L167.995 135.736L168.493 135.244ZM160.637 131.819L160.817 132.496L159.607 132.818L159.966 131.619L160.637 131.819ZM167.622 114.058L168.252 114.363L168.252 114.363L167.622 114.058ZM168.592 112.099L167.967 111.783L169.291 112.084L168.592 112.099ZM171.949 121.718L171.38 122.125L171.949 121.718ZM181.403 114.946L181.972 114.539L181.403 114.946ZM170.572 108.335L170.736 109.015L169.198 109.386L169.958 107.998L170.572 108.335ZM184.804 88.2395L184.299 87.7554L184.299 87.7554L184.804 88.2395ZM185.096 84.7678L184.535 85.186L185.096 84.7678ZM181.398 84.5718L180.901 84.0788L180.901 84.0788L181.398 84.5718ZM172.262 95.8909L172.84 96.2848L172.193 97.2352L171.646 96.224L172.262 95.8909ZM160.201 91.104L160.204 90.4041L160.201 91.104ZM148.317 96.8619L149.017 96.8652L149.017 96.8652L148.317 96.8619ZM160.145 102.733L160.149 102.033L160.145 102.733ZM169.286 100.498L168.968 99.8742L171.181 98.7476L169.883 100.864L169.286 100.498ZM162.129 113.812L162.763 114.11L162.763 114.11L162.129 113.812ZM161.527 115.109L162.164 115.401L161.739 116.329L161.026 115.598L161.527 115.109ZM152.696 113.934L152.533 113.254L152.696 113.934ZM145.664 119.753L146.345 119.59L146.345 119.59L145.664 119.753ZM154.57 121.751L154.733 122.431L154.57 121.751ZM159.708 119.253L159.29 118.691L161.347 117.159L160.353 119.524L159.708 119.253ZM153.191 160.13L153.191 160.83L152.753 160.83L152.561 160.436L153.191 160.13ZM160.3 135.637C158.88 141.159 158.157 146.165 158.154 150.316C158.151 154.488 158.877 157.706 160.262 159.736L159.106 160.525C157.486 158.152 156.751 154.596 156.754 150.315C156.757 146.014 157.505 140.887 158.944 135.288L160.3 135.637ZM162.276 141.384C160.909 139.999 159.535 137.689 158.949 135.657L160.294 135.269C160.815 137.078 162.07 139.183 163.272 140.4L162.276 141.384ZM172.139 144.654C171.532 145.254 170.666 145.381 169.847 145.315C169.011 145.247 168.081 144.97 167.171 144.588C165.352 143.824 163.448 142.57 162.276 141.384L163.272 140.4C164.296 141.436 166.038 142.594 167.713 143.297C168.549 143.648 169.326 143.868 169.959 143.919C170.609 143.972 170.972 143.839 171.155 143.658L172.139 144.654ZM168.991 134.752C170.163 135.938 171.393 137.858 172.134 139.686C172.505 140.601 172.77 141.534 172.827 142.371C172.883 143.191 172.746 144.055 172.139 144.654L171.155 143.658C171.338 143.478 171.475 143.116 171.431 142.466C171.387 141.832 171.177 141.052 170.837 140.212C170.155 138.529 169.019 136.772 167.995 135.736L168.991 134.752ZM160.457 131.143C161.111 130.969 161.857 131.014 162.594 131.17C163.34 131.328 164.131 131.612 164.901 131.968C166.435 132.678 167.966 133.714 168.991 134.752L167.995 135.736C167.108 134.837 165.723 133.891 164.313 133.239C163.611 132.914 162.922 132.67 162.304 132.54C161.677 132.407 161.175 132.401 160.817 132.496L160.457 131.143ZM168.252 114.363C165.309 120.438 162.982 126.432 161.307 132.02L159.966 131.619C161.664 125.954 164.018 119.891 166.992 113.753L168.252 114.363ZM169.216 112.414C168.892 113.057 168.57 113.707 168.252 114.363L166.992 113.753C167.313 113.09 167.638 112.433 167.967 111.783L169.216 112.414ZM171.38 122.125C169.558 119.582 167.96 115.315 167.892 112.114L169.291 112.084C169.353 114.964 170.836 118.962 172.518 121.31L171.38 122.125ZM184.293 128.967C183.397 129.608 182.242 129.611 181.123 129.34C179.989 129.064 178.754 128.475 177.556 127.732C175.16 126.246 172.757 124.048 171.38 122.125L172.518 121.31C173.772 123.062 176.032 125.139 178.294 126.542C179.424 127.243 180.517 127.752 181.454 127.979C182.407 128.211 183.067 128.122 183.477 127.828L184.293 128.967ZM181.972 114.539C183.349 116.462 184.656 119.445 185.292 122.191C185.61 123.565 185.77 124.923 185.666 126.086C185.563 127.233 185.188 128.325 184.293 128.967L183.477 127.828C183.888 127.535 184.184 126.938 184.271 125.961C184.358 125.001 184.228 123.802 183.928 122.507C183.328 119.913 182.088 117.106 180.834 115.354L181.972 114.539ZM170.407 107.654C171.325 107.433 172.366 107.59 173.392 107.935C174.429 108.285 175.52 108.851 176.574 109.534C178.676 110.898 180.717 112.786 181.972 114.539L180.834 115.354C179.696 113.766 177.792 111.993 175.812 110.709C174.825 110.068 173.84 109.564 172.945 109.262C172.038 108.956 171.289 108.882 170.736 109.015L170.407 107.654ZM185.31 88.7236C180.568 93.6768 175.636 100.541 171.186 108.671L169.958 107.998C174.454 99.7861 179.454 92.8158 184.299 87.7554L185.31 88.7236ZM185.658 84.3496C186.666 85.7027 186.424 87.5599 185.31 88.7236L184.299 87.7554C184.994 87.0293 185.09 85.931 184.535 85.186L185.658 84.3496ZM180.901 84.0788C182.245 82.7238 184.476 82.7638 185.658 84.3496L184.535 85.186C183.906 84.3413 182.685 84.2682 181.895 85.0648L180.901 84.0788ZM171.683 95.4969C174.748 90.995 177.876 87.1281 180.901 84.0788L181.895 85.0648C178.943 88.0404 175.868 91.8372 172.84 96.2848L171.683 95.4969ZM160.204 90.4041C162.3 90.414 165.031 90.9563 167.424 91.8352C168.624 92.2759 169.761 92.8094 170.703 93.419C171.635 94.0218 172.432 94.7349 172.877 95.5577L171.646 96.224C171.361 95.697 170.785 95.1393 169.943 94.5944C169.111 94.0564 168.074 93.5655 166.941 93.1493C164.668 92.3145 162.099 91.8131 160.197 91.804L160.204 90.4041ZM147.617 96.8586C147.622 95.7765 148.243 94.8414 149.074 94.0864C149.913 93.3242 151.049 92.6661 152.292 92.1283C154.774 91.0538 157.836 90.3928 160.204 90.4041L160.197 91.804C158.046 91.7938 155.174 92.4061 152.848 93.4131C151.686 93.9161 150.7 94.5007 150.015 95.1226C149.323 95.7516 149.019 96.3417 149.017 96.8652L147.617 96.8586ZM160.142 103.433C157.774 103.421 154.718 102.731 152.246 101.633C151.009 101.084 149.879 100.415 149.047 99.6445C148.224 98.8816 147.612 97.9406 147.617 96.8586L149.017 96.8652C149.014 97.3887 149.312 97.9818 149.999 98.6173C150.677 99.2457 151.658 99.8397 152.815 100.354C155.131 101.383 157.997 102.023 160.149 102.033L160.142 103.433ZM169.604 101.122C166.811 102.544 162.904 103.446 160.142 103.433L160.149 102.033C162.682 102.045 166.37 101.197 168.968 99.8742L169.604 101.122ZM161.496 113.514C163.751 108.715 166.181 104.22 168.689 100.132L169.883 100.864C167.403 104.907 164.997 109.356 162.763 114.11L161.496 113.514ZM160.891 114.818C161.09 114.384 161.291 113.949 161.496 113.514L162.763 114.11C162.56 114.541 162.36 114.971 162.164 115.401L160.891 114.818ZM152.533 113.254C153.954 112.913 155.873 112.826 157.625 113.016C158.505 113.111 159.366 113.279 160.116 113.53C160.855 113.778 161.546 114.126 162.028 114.621L161.026 115.598C160.765 115.331 160.312 115.072 159.671 114.857C159.041 114.646 158.285 114.496 157.474 114.408C155.847 114.232 154.093 114.319 152.859 114.615L152.533 113.254ZM144.983 119.916C144.789 119.105 145.087 118.312 145.537 117.644C145.993 116.968 146.667 116.323 147.424 115.75C148.934 114.604 150.909 113.643 152.533 113.254L152.859 114.615C151.445 114.954 149.645 115.823 148.27 116.865C147.583 117.386 147.037 117.924 146.698 118.427C146.352 118.939 146.28 119.322 146.345 119.59L144.983 119.916ZM154.733 122.431C153.109 122.821 150.914 122.859 149.048 122.523C148.114 122.355 147.22 122.086 146.507 121.69C145.803 121.299 145.178 120.728 144.983 119.916L146.345 119.59C146.409 119.858 146.647 120.166 147.186 120.466C147.717 120.761 148.448 120.993 149.296 121.146C150.994 121.451 152.993 121.409 154.407 121.07L154.733 122.431ZM160.126 119.814C158.515 121.014 156.394 122.033 154.733 122.431L154.407 121.07C155.859 120.722 157.81 119.793 159.29 118.691L160.126 119.814ZM152.561 160.436C150.759 156.721 150.557 150.753 151.685 143.6C152.819 136.409 155.319 127.891 159.063 118.981L160.353 119.524C156.644 128.352 154.181 136.761 153.068 143.818C151.949 150.914 152.216 156.516 153.821 159.825L152.561 160.436ZM159.684 160.83L153.191 160.83L153.191 159.43L159.684 159.43L159.684 160.83Z" fill="black" mask="url(#path-12-inside-2_1254_6325)"/>
<path d="M184.671 64.146L185.042 64.928L184.232 64.6238C182.415 63.9417 180.544 63.5163 178.777 63.4117C175.129 63.1957 172.19 64.3615 170.113 66.3854C168.032 68.4133 166.793 71.3253 166.597 74.635C166.401 77.9447 167.287 80.9826 169.115 83.2419C170.939 85.4969 173.72 87.0014 177.367 87.2174C179.599 87.3496 182.054 86.9931 184.402 86.2403L185.071 86.026L184.84 86.6888C184.114 88.7699 183.747 90.9259 183.82 92.9029C183.948 96.3625 185.415 99.0285 187.682 100.804C189.955 102.585 193.056 103.487 196.467 103.361C199.877 103.235 202.903 102.106 205.039 100.162C207.169 98.2238 208.434 95.4567 208.306 91.9971C208.234 90.0447 207.72 87.9498 206.863 85.9505L206.578 85.2865L207.276 85.4746C209.535 86.0837 211.86 86.3191 213.965 86.1111C217.59 85.753 220.299 84.1067 222.024 81.7237C223.752 79.3353 224.51 76.1813 224.175 72.7883C223.84 69.3953 222.479 66.4506 220.317 64.4467C218.159 62.4472 215.18 61.3629 211.555 61.7211C209.977 61.877 208.325 62.3015 206.713 62.9433L206.062 63.2021L206.246 62.5265C206.836 60.3498 207.055 58.1128 206.837 56.0947C206.464 52.6499 204.842 50.0906 202.507 48.4752C200.165 46.8556 197.082 46.1689 193.771 46.5275C190.459 46.886 187.594 48.2169 185.654 50.3001C183.718 52.3779 182.682 55.225 183.055 58.6698C183.249 60.4603 183.817 62.3458 184.671 64.146Z" fill="#FBF3EA" stroke="black" stroke-width="0.7"/>
<circle cx="6.44425" cy="6.44425" r="6.09425" transform="matrix(-0.976254 0.216631 0.216631 0.976254 200.284 67.3484)" fill="#AC590C" stroke="black" stroke-width="0.7"/>
<mask id="path-16-inside-3_1254_6325" fill="white">
<path fill-rule="evenodd" clip-rule="evenodd" d="M149.315 79.2608C145.322 85.2962 142.207 92.954 141.115 99.267L135.229 119.309V84.9821L140.637 72.1655H125.25L130.63 84.9157V119.3L124.751 99.2823C123.659 92.9694 120.544 85.3122 116.552 79.277C109.24 68.225 101.754 66.7983 96.1413 70.5117C90.5283 74.2251 88.9134 81.6725 96.225 92.7245C100.005 98.4388 105.432 103.998 110.567 107.521L130.63 123.996V160.137H135.229V123.986L155.3 107.505C160.435 103.981 165.861 98.4222 169.641 92.7083C176.953 81.6563 175.338 74.2089 169.725 70.4955C164.112 66.7821 156.626 68.2088 149.315 79.2608Z"/>
</mask>
<path fill-rule="evenodd" clip-rule="evenodd" d="M149.315 79.2608C145.322 85.2962 142.207 92.954 141.115 99.267L135.229 119.309V84.9821L140.637 72.1655H125.25L130.63 84.9157V119.3L124.751 99.2823C123.659 92.9694 120.544 85.3122 116.552 79.277C109.24 68.225 101.754 66.7983 96.1413 70.5117C90.5283 74.2251 88.9134 81.6725 96.225 92.7245C100.005 98.4388 105.432 103.998 110.567 107.521L130.63 123.996V160.137H135.229V123.986L155.3 107.505C160.435 103.981 165.861 98.4222 169.641 92.7083C176.953 81.6563 175.338 74.2089 169.725 70.4955C164.112 66.7821 156.626 68.2088 149.315 79.2608Z" fill="#CBD5CA"/>
<path d="M141.115 99.267L141.787 99.4643L141.798 99.4258L141.805 99.3863L141.115 99.267ZM149.315 79.2608L148.731 78.8746L149.315 79.2608ZM135.229 119.309H134.529L135.901 119.506L135.229 119.309ZM135.229 84.9821L134.585 84.71L134.529 84.8405V84.9821H135.229ZM140.637 72.1655L141.282 72.4376L141.692 71.4655H140.637V72.1655ZM125.25 72.1655V71.4655H124.195L124.605 72.4376L125.25 72.1655ZM130.63 84.9157H131.33V84.7741L131.275 84.6436L130.63 84.9157ZM130.63 119.3L129.958 119.497L131.33 119.3H130.63ZM124.751 99.2823L124.061 99.4016L124.068 99.4411L124.079 99.4796L124.751 99.2823ZM116.552 79.277L117.136 78.8908H117.136L116.552 79.277ZM96.1413 70.5117L96.5276 71.0955L96.1413 70.5117ZM96.225 92.7245L96.8088 92.3383L96.225 92.7245ZM110.567 107.521L111.012 106.98L110.988 106.961L110.963 106.944L110.567 107.521ZM130.63 123.996H131.33V123.665L131.074 123.455L130.63 123.996ZM130.63 160.137H129.93V160.837H130.63V160.137ZM135.229 160.137V160.837H135.929V160.137H135.229ZM135.229 123.986L134.785 123.445L134.529 123.655V123.986H135.229ZM155.3 107.505L154.904 106.927L154.879 106.944L154.856 106.964L155.3 107.505ZM169.641 92.7083L170.225 93.0945L169.641 92.7083ZM169.725 70.4955L169.339 71.0793V71.0793L169.725 70.4955ZM141.805 99.3863C142.878 93.1781 145.953 85.6102 149.898 79.647L148.731 78.8746C144.69 84.9822 141.535 92.7298 140.426 99.1478L141.805 99.3863ZM135.901 119.506L141.787 99.4643L140.444 99.0698L134.558 119.111L135.901 119.506ZM134.529 84.9821V119.309H135.929V84.9821H134.529ZM135.874 85.2542L141.282 72.4376L139.992 71.8934L134.585 84.71L135.874 85.2542ZM140.637 71.4655H125.25V72.8655H140.637V71.4655ZM124.605 72.4376L129.985 85.1878L131.275 84.6436L125.895 71.8934L124.605 72.4376ZM131.33 119.3V84.9157H129.93V119.3H131.33ZM124.079 99.4796L129.958 119.497L131.301 119.103L125.423 99.0851L124.079 99.4796ZM115.968 79.6633C119.913 85.6262 122.988 93.1936 124.061 99.4016L125.441 99.1631C124.331 92.7453 121.176 84.9981 117.136 78.8908L115.968 79.6633ZM96.5276 71.0955C99.1635 69.3517 102.207 68.8229 105.469 70.0148C108.764 71.2184 112.358 74.2059 115.968 79.6633L117.136 78.8908C113.434 73.2962 109.63 70.0443 105.95 68.6999C102.238 67.3438 98.7323 67.9583 95.7551 69.9279L96.5276 71.0955ZM96.8088 92.3383C93.1984 86.8809 91.8547 82.4047 92.0355 78.9023C92.2145 75.4336 93.8917 72.8393 96.5276 71.0955L95.7551 69.9279C92.7779 71.8975 90.8411 74.8837 90.6373 78.8301C90.4353 82.7427 91.94 87.5162 95.6412 93.1108L96.8088 92.3383ZM110.963 106.944C105.907 103.475 100.543 97.9824 96.8088 92.3383L95.6412 93.1108C99.4679 98.8952 104.957 104.521 110.171 108.099L110.963 106.944ZM131.074 123.455L111.012 106.98L110.123 108.062L130.186 124.537L131.074 123.455ZM131.33 160.137V123.996H129.93V160.137H131.33ZM135.229 159.437H130.63V160.837H135.229V159.437ZM134.529 123.986V160.137H135.929V123.986H134.529ZM154.856 106.964L134.785 123.445L135.674 124.527L155.744 108.046L154.856 106.964ZM169.058 92.3221C165.324 97.9658 159.96 103.458 154.904 106.927L155.696 108.082C160.91 104.504 166.399 98.8786 170.225 93.0945L169.058 92.3221ZM169.339 71.0793C171.975 72.8231 173.652 75.4173 173.831 78.886C174.012 82.3885 172.668 86.8647 169.058 92.3221L170.225 93.0945C173.926 87.4999 175.431 82.7265 175.229 78.8138C175.025 74.8675 173.088 71.8813 170.111 69.9117L169.339 71.0793ZM149.898 79.647C153.509 74.1897 157.103 71.2021 160.397 69.9986C163.659 68.8067 166.703 69.3355 169.339 71.0793L170.111 69.9117C167.134 67.9421 163.628 67.3276 159.917 68.6836C156.237 70.0281 152.432 73.28 148.731 78.8746L149.898 79.647Z" fill="black" mask="url(#path-16-inside-3_1254_6325)"/>
<mask id="path-18-inside-4_1254_6325" fill="white">
<path fill-rule="evenodd" clip-rule="evenodd" d="M130.342 80.0804C124.031 79.9507 113.623 70.8719 107.181 60.8867C99.3606 48.7664 100.344 39.9002 105.431 34.9656C110.517 30.0311 117.78 30.8969 125.6 43.0173C128.511 47.5297 131.089 52.966 132.916 58.2673C134.743 52.966 137.321 47.5297 140.233 43.0173C148.053 30.8969 155.316 30.0311 160.402 34.9656C165.488 39.9002 166.472 48.7664 158.652 60.8867C152.269 70.78 141.993 79.7835 135.666 80.0746C135.547 80.0995 135.424 80.1125 135.297 80.1125H130.681C130.565 80.1125 130.451 80.1015 130.342 80.0804Z"/>
</mask>
<path fill-rule="evenodd" clip-rule="evenodd" d="M130.342 80.0804C124.031 79.9507 113.623 70.8719 107.181 60.8867C99.3606 48.7664 100.344 39.9002 105.431 34.9656C110.517 30.0311 117.78 30.8969 125.6 43.0173C128.511 47.5297 131.089 52.966 132.916 58.2673C134.743 52.966 137.321 47.5297 140.233 43.0173C148.053 30.8969 155.316 30.0311 160.402 34.9656C165.488 39.9002 166.472 48.7664 158.652 60.8867C152.269 70.78 141.993 79.7835 135.666 80.0746C135.547 80.0995 135.424 80.1125 135.297 80.1125H130.681C130.565 80.1125 130.451 80.1015 130.342 80.0804Z" fill="#FAE3C3"/>
<path d="M130.342 80.0804L130.473 79.3929L130.415 79.3818L130.356 79.3806L130.342 80.0804ZM107.181 60.8867L107.769 60.5072L107.181 60.8867ZM105.431 34.9656L105.918 35.4681L105.431 34.9656ZM125.6 43.0173L125.011 43.3968L125.6 43.0173ZM132.916 58.2673L132.254 58.4954L132.916 60.4156L133.578 58.4954L132.916 58.2673ZM140.233 43.0173L140.821 43.3968L140.233 43.0173ZM160.402 34.9656L160.889 34.4632V34.4632L160.402 34.9656ZM158.652 60.8867L159.24 61.2662V61.2662L158.652 60.8867ZM135.666 80.0746L135.634 79.3753L135.578 79.3779L135.523 79.3894L135.666 80.0746ZM130.356 79.3806C128.929 79.3512 127.206 78.8106 125.29 77.8103C123.383 76.8146 121.332 75.3877 119.261 73.644C115.12 70.1558 110.953 65.4428 107.769 60.5072L106.592 61.2662C109.85 66.3159 114.109 71.1348 118.359 74.7148C120.485 76.5051 122.622 77.9963 124.642 79.0514C126.654 80.1019 128.598 80.7447 130.327 80.7803L130.356 79.3806ZM107.769 60.5072C103.904 54.5173 102.258 49.396 102.166 45.2161C102.074 41.053 103.521 37.7934 105.918 35.4681L104.943 34.4632C102.254 37.0724 100.666 40.7131 100.766 45.2469C100.865 49.7638 102.637 55.1358 106.592 61.2662L107.769 60.5072ZM105.918 35.4681C108.311 33.1469 111.135 32.2414 114.273 33.2616C117.478 34.3032 121.136 37.3909 125.011 43.3968L126.188 42.6378C122.243 36.5234 118.36 33.118 114.706 31.9302C110.987 30.721 107.637 31.8499 104.943 34.4632L105.918 35.4681ZM125.011 43.3968C127.889 47.8571 130.444 53.2416 132.254 58.4954L133.578 58.0392C131.735 52.6903 129.133 47.2024 126.188 42.6378L125.011 43.3968ZM133.578 58.4954C135.389 53.2416 137.943 47.8571 140.821 43.3968L139.645 42.6378C136.7 47.2024 134.098 52.6903 132.254 58.0392L133.578 58.4954ZM140.821 43.3968C144.696 37.3909 148.355 34.3032 151.559 33.2616C154.697 32.2414 157.522 33.1469 159.914 35.4681L160.889 34.4632C158.195 31.8499 154.846 30.721 151.126 31.9302C147.472 33.118 143.59 36.5234 139.645 42.6378L140.821 43.3968ZM159.914 35.4681C162.311 37.7934 163.759 41.053 163.667 45.2161C163.575 49.396 161.928 54.5173 158.064 60.5072L159.24 61.2662C163.195 55.1358 164.967 49.7638 165.066 45.2469C165.166 40.7131 163.579 37.0724 160.889 34.4632L159.914 35.4681ZM158.064 60.5072C154.909 65.3972 150.789 70.0691 146.685 73.5475C144.634 75.2863 142.598 76.7168 140.7 77.727C138.794 78.7416 137.071 79.3092 135.634 79.3753L135.698 80.7738C137.425 80.6944 139.358 80.0274 141.358 78.9628C143.366 77.8939 145.484 76.4006 147.59 74.6155C151.802 71.0461 156.012 66.2696 159.24 61.2662L158.064 60.5072ZM135.523 79.3894C135.451 79.4045 135.375 79.4125 135.297 79.4125V80.8125C135.472 80.8125 135.643 80.7944 135.809 80.7598L135.523 79.3894ZM135.297 79.4125H130.681V80.8125H135.297V79.4125ZM130.681 79.4125C130.609 79.4125 130.54 79.4057 130.473 79.3929L130.21 80.7679C130.363 80.7973 130.52 80.8125 130.681 80.8125V79.4125Z" fill="black" mask="url(#path-18-inside-4_1254_6325)"/>
<path d="M153.886 53.221C151.737 60.2944 148.112 67.5427 144.267 72.6429C142.343 75.1941 140.376 77.1921 138.524 78.3661C136.664 79.5458 134.984 79.8551 133.596 79.1779C132.207 78.5007 131.125 76.8442 130.369 74.388C129.617 71.9438 129.215 68.7903 129.138 65.2633C128.985 58.2125 130.132 49.7554 132.281 42.682C134.431 35.6072 137.161 31.3056 140.075 29.136C142.974 26.9776 146.072 26.9144 149.036 28.3606C152.001 29.8068 154.266 32.4858 155.274 36.5501C156.287 40.6353 156.036 46.1462 153.886 53.221Z" fill="#FAE3C3" stroke="black" stroke-width="0.7"/>
<path d="M111.75 53.221C113.899 60.2944 117.524 67.5427 121.37 72.6429C123.293 75.1941 125.261 77.1921 127.112 78.3661C128.973 79.5458 130.653 79.8551 132.041 79.1779C133.429 78.5007 134.512 76.8442 135.268 74.388C136.02 71.9438 136.422 68.7903 136.498 65.2633C136.652 58.2125 135.505 49.7554 133.356 42.682C131.206 35.6072 128.476 31.3056 125.562 29.136C122.663 26.9776 119.565 26.9144 116.6 28.3606C113.635 29.8068 111.371 32.4858 110.362 36.5501C109.349 40.6353 109.6 46.1462 111.75 53.221Z" fill="#FAE3C3" stroke="black" stroke-width="0.7"/>
<path d="M146.465 45.3257C146.465 53.2265 144.902 61.9981 142.379 68.7852C141.117 72.1799 139.622 75.0589 137.977 77.0824C136.326 79.1123 134.571 80.2281 132.788 80.2281C131.006 80.2281 129.25 79.1123 127.6 77.0824C125.955 75.0589 124.46 72.1799 123.198 68.7852C120.675 61.9981 119.112 53.2265 119.112 45.3257C119.112 37.4242 120.675 31.9421 123.156 28.4449C125.625 24.9628 129.023 23.4196 132.788 23.4196C136.554 23.4196 139.951 24.9628 142.421 28.4449C144.901 31.9421 146.465 37.4242 146.465 45.3257Z" fill="#FAE3C3" stroke="black" stroke-width="0.7"/>
<path d="M69.3143 130.006H191.187L225.427 159.136H35.0735L69.3143 130.006Z" fill="#CBD5CA" stroke="black"/>
<path d="M69.3143 130.006H191.187L225.427 159.136H35.0735L69.3143 130.006Z" fill="white"/>
<path d="M225.427 159.136L191.187 130.006H69.3143L35.0735 159.136M225.427 159.136H35.0735M225.427 159.136V162.214H35.0735V159.136" stroke="black"/>
<rect x="35.1062" y="159.036" width="190.321" height="3.22577" fill="#226752" stroke="black"/>
<rect x="35.1062" y="159.036" width="190.321" height="3.54835" fill="#CBD5CA" stroke="black"/>
<path d="M80.1804 140.372H152.352" stroke="black"/>
<path d="M59.4327 145.555L165.886 146.592" stroke="black"/>
<path d="M52.2144 152.816H109.952" stroke="black"/>
<path d="M143.331 152.816H201.068" stroke="black"/>
<path d="M152.353 134.15H188.439" stroke="black"/>
<path d="M72.0607 134.15H108.147" stroke="black"/>
<path d="M200.166 145.558L191.144 139.338H163.629L171.748 145.558H200.166Z" fill="white" stroke="black"/>
<path d="M173.149 143.863L170.124 141.256H170.552L173.577 143.863H173.149ZM172.472 142.038C172.321 141.935 172.101 141.854 171.812 141.797C171.523 141.74 171.217 141.712 170.893 141.712C170.657 141.712 170.467 141.727 170.324 141.757C170.183 141.787 170.093 141.828 170.054 141.88C170.017 141.932 170.038 141.992 170.115 142.058C170.179 142.114 170.269 142.162 170.383 142.202C170.499 142.241 170.626 142.274 170.764 142.301C170.902 142.326 171.04 142.348 171.178 142.365C171.315 142.381 171.439 142.394 171.551 142.404L172.16 142.461C172.316 142.476 172.493 142.495 172.693 142.52C172.895 142.546 173.099 142.58 173.306 142.623C173.514 142.666 173.708 142.721 173.889 142.788C174.07 142.856 174.217 142.938 174.33 143.036C174.461 143.148 174.503 143.25 174.457 143.341C174.413 143.432 174.278 143.505 174.051 143.558C173.826 143.612 173.508 143.639 173.097 143.639C172.715 143.639 172.355 143.615 172.019 143.566C171.684 143.518 171.387 143.451 171.127 143.365C170.868 143.279 170.663 143.178 170.509 143.064H171.178C171.287 143.143 171.43 143.208 171.608 143.26C171.788 143.311 171.983 143.349 172.195 143.374C172.408 143.398 172.62 143.411 172.833 143.411C173.08 143.411 173.284 143.395 173.444 143.364C173.604 143.332 173.709 143.288 173.758 143.231C173.807 143.174 173.787 143.108 173.699 143.032C173.618 142.962 173.503 142.906 173.354 142.863C173.204 142.819 173.033 142.784 172.839 142.757C172.646 142.73 172.443 142.706 172.232 142.685L171.489 142.612C171.017 142.565 170.608 142.498 170.264 142.412C169.919 142.325 169.665 142.211 169.502 142.07C169.367 141.954 169.33 141.852 169.391 141.765C169.453 141.677 169.593 141.609 169.812 141.561C170.032 141.512 170.313 141.488 170.654 141.488C170.999 141.488 171.333 141.512 171.657 141.56C171.98 141.608 172.268 141.673 172.521 141.756C172.776 141.838 172.968 141.933 173.099 142.038H172.472Z" fill="black"/>
<path d="M177.662 143.631C177.356 143.631 177.052 143.607 176.751 143.559C176.451 143.512 176.179 143.447 175.935 143.364C175.69 143.281 175.5 143.187 175.363 143.081H175.99C176.124 143.175 176.324 143.253 176.591 143.315C176.858 143.376 177.129 143.406 177.402 143.406C177.621 143.406 177.793 143.386 177.917 143.346C178.043 143.306 178.114 143.251 178.13 143.181C178.148 143.111 178.105 143.031 178.002 142.942C177.896 142.851 177.75 142.77 177.565 142.699C177.381 142.627 177.176 142.57 176.95 142.529C176.724 142.487 176.497 142.466 176.268 142.465C176.104 142.465 175.947 142.475 175.799 142.495C175.649 142.515 175.537 142.54 175.462 142.571L174.823 142.543L173.956 141.516H176.734L176.994 141.74H174.759L175.284 142.355H175.316C175.386 142.322 175.491 142.293 175.63 142.271C175.77 142.249 175.929 142.237 176.108 142.237C176.435 142.237 176.762 142.268 177.089 142.329C177.417 142.389 177.715 142.472 177.983 142.578C178.253 142.683 178.467 142.803 178.623 142.938C178.778 143.071 178.839 143.19 178.807 143.294C178.776 143.398 178.663 143.481 178.467 143.541C178.27 143.601 178.001 143.631 177.662 143.631Z" fill="black"/>
<path d="M180.829 143.317L180.915 143.427C180.975 143.504 181.026 143.587 181.067 143.675C181.11 143.764 181.145 143.847 181.171 143.925C181.197 144.003 181.216 144.065 181.228 144.111H180.758C180.73 144.068 180.693 144.01 180.647 143.939C180.601 143.868 180.545 143.788 180.479 143.7C180.416 143.612 180.343 143.523 180.261 143.431L180.16 143.317H180.829Z" fill="black"/>
<path d="M182.291 143.602L182.078 143.419L182.969 142.665C183.073 142.577 183.155 142.5 183.213 142.435C183.271 142.369 183.299 142.307 183.296 142.25C183.294 142.191 183.257 142.13 183.183 142.066C183.097 141.993 182.979 141.929 182.826 141.876C182.675 141.822 182.505 141.781 182.316 141.752C182.127 141.722 181.936 141.708 181.743 141.708C181.538 141.708 181.378 141.724 181.263 141.758C181.15 141.79 181.085 141.836 181.07 141.895C181.057 141.954 181.096 142.023 181.189 142.103H180.572C180.431 141.981 180.378 141.873 180.416 141.781C180.453 141.689 180.566 141.617 180.755 141.565C180.946 141.514 181.197 141.488 181.509 141.488C181.822 141.488 182.13 141.514 182.432 141.565C182.733 141.617 183.004 141.686 183.243 141.774C183.482 141.862 183.664 141.959 183.788 142.066C183.877 142.143 183.929 142.218 183.942 142.291C183.957 142.364 183.929 142.445 183.859 142.535C183.79 142.624 183.677 142.732 183.519 142.861L182.9 143.362L182.919 143.378H185.404L185.664 143.602H182.291Z" fill="black"/>
<path d="M188.447 143.631C188.14 143.631 187.837 143.607 187.536 143.559C187.236 143.512 186.963 143.447 186.719 143.364C186.475 143.281 186.285 143.187 186.148 143.081H186.775C186.908 143.175 187.109 143.253 187.375 143.315C187.643 143.376 187.913 143.406 188.187 143.406C188.406 143.406 188.578 143.386 188.702 143.346C188.828 143.306 188.899 143.251 188.915 143.181C188.932 143.111 188.889 143.031 188.786 142.942C188.681 142.851 188.535 142.77 188.35 142.699C188.165 142.627 187.96 142.57 187.735 142.529C187.509 142.487 187.282 142.466 187.053 142.465C186.889 142.465 186.732 142.475 186.583 142.495C186.434 142.515 186.322 142.54 186.246 142.571L185.608 142.543L184.74 141.516H187.518L187.778 141.74H185.543L186.069 142.355H186.1C186.171 142.322 186.276 142.293 186.415 142.271C186.554 142.249 186.714 142.237 186.893 142.237C187.22 142.237 187.547 142.268 187.874 142.329C188.202 142.389 188.5 142.472 188.768 142.578C189.038 142.683 189.251 142.803 189.408 142.938C189.563 143.071 189.624 143.19 189.592 143.294C189.561 143.398 189.447 143.481 189.251 143.541C189.054 143.601 188.786 143.631 188.447 143.631Z" fill="black"/>
<path d="M191.216 143.602L191.003 143.419L191.894 142.665C191.998 142.577 192.08 142.5 192.138 142.435C192.196 142.369 192.224 142.307 192.221 142.25C192.219 142.191 192.182 142.13 192.108 142.066C192.023 141.993 191.904 141.929 191.751 141.876C191.6 141.822 191.43 141.781 191.241 141.752C191.052 141.722 190.861 141.708 190.668 141.708C190.463 141.708 190.303 141.724 190.188 141.758C190.075 141.79 190.01 141.836 189.995 141.895C189.982 141.954 190.021 142.023 190.114 142.103H189.497C189.356 141.981 189.303 141.873 189.341 141.781C189.378 141.689 189.491 141.617 189.68 141.565C189.871 141.514 190.122 141.488 190.434 141.488C190.747 141.488 191.055 141.514 191.357 141.565C191.658 141.617 191.929 141.686 192.168 141.774C192.407 141.862 192.589 141.959 192.713 142.066C192.802 142.143 192.854 142.218 192.867 142.291C192.882 142.364 192.854 142.445 192.784 142.535C192.715 142.624 192.602 142.732 192.444 142.861L191.825 143.362L191.844 143.378H194.329L194.589 143.602H191.216Z" fill="black"/>
<path d="M62.7958 141.426L66.4199 138.218L68.3828 138.189C68.8386 138.182 69.1598 138.222 69.3465 138.308C69.5362 138.394 69.6144 138.512 69.5809 138.664C69.5474 138.815 69.4239 138.985 69.2104 139.174C68.9968 139.364 68.7328 139.536 68.4183 139.693C68.1056 139.85 67.7527 139.976 67.3596 140.072C66.9676 140.167 66.5457 140.218 66.0937 140.225L64.6868 140.246L65.0761 139.901L66.4603 139.881C66.7723 139.876 67.0565 139.843 67.3129 139.78C67.5692 139.718 67.7972 139.636 67.9967 139.533C68.1993 139.429 68.3731 139.313 68.5182 139.185C68.6633 139.056 68.7496 138.942 68.7771 138.842C68.8064 138.742 68.758 138.665 68.6319 138.61C68.507 138.554 68.2866 138.529 67.9708 138.534L66.7341 138.552L63.4993 141.416L62.7958 141.426Z" fill="black"/>
<path d="M67.5116 141.356L66.7741 141.367L72.5313 138.127L73.2574 138.116L71.7664 141.293L71.0289 141.304L72.3437 138.629L72.2983 138.63L67.5116 141.356ZM69.1996 140.099L72.1723 140.055L71.7829 140.399L68.8102 140.444L69.1996 140.099Z" fill="black"/>
<path d="M75.2033 138.087L76.0089 138.075L75.9283 139.549L75.9964 139.548L79.2993 138.026L80.1048 138.014L75.8752 139.932L74.3817 141.254L73.6782 141.265L75.1718 139.942L75.2033 138.087Z" fill="black"/>
</svg>
