<svg width="82" height="82" viewBox="0 0 82 82" fill="none" xmlns="http://www.w3.org/2000/svg">
<circle cx="41" cy="41" r="41" fill="#276164"/>
<path d="M54.9961 41C54.9974 41.343 54.91 41.6804 54.7423 41.9795C54.5746 42.2786 54.3323 42.5292 54.0391 42.707L36.0429 53.7052C35.7397 53.8905 35.3927 53.9917 35.0375 53.9984C34.6823 54.0051 34.3316 53.9171 34.0217 53.7433C33.7118 53.5695 33.4538 53.3164 33.2742 53.0098C33.0947 52.7032 33 52.3543 33 51.999V30.001C33 29.6457 33.0946 29.2968 33.2742 28.9902C33.4538 28.6836 33.7118 28.4304 34.0218 28.2567C34.3317 28.0829 34.6823 27.9949 35.0376 28.0016C35.3928 28.0083 35.7399 28.1096 36.043 28.2949L54.0391 39.293C54.3323 39.4708 54.5746 39.7215 54.7423 40.0206C54.91 40.3197 54.9974 40.6571 54.9961 41Z" fill="white"/>
</svg>
