<svg width="112" height="31" viewBox="0 0 112 31" fill="none" xmlns="http://www.w3.org/2000/svg">
<g clip-path="url(#clip0_1133_4304)">
<mask id="mask0_1133_4304" style="mask-type:alpha" maskUnits="userSpaceOnUse" x="0" y="0" width="112" height="31">
<path fill-rule="evenodd" clip-rule="evenodd" d="M15.3347 0.0384878C13.3197 0.034162 11.3237 0.423253 9.46122 1.18342C7.59875 1.94359 5.90653 3.05986 4.4817 4.46816C3.05687 5.87646 1.9275 7.54905 1.15841 9.38991C0.389316 11.2308 -0.00434048 13.2036 3.60958e-05 15.1953C3.60958e-05 23.5925 6.84013 30.4231 15.3347 30.4231C23.8299 30.4231 30.7418 23.5925 30.7418 15.1953C30.7418 6.79923 23.8299 0.0384878 15.3347 0.0384878ZM7.05502 6.72704C7.05502 4.02322 9.21533 0.394065 13.3905 7.4388C13.9579 8.43996 14.534 9.43633 15.1186 10.4278C14.6864 10.4988 14.3267 10.7834 13.9663 11.3531L12.0945 14.6261L8.78315 20.1763C8.78315 20.1763 7.41537 22.382 7.12745 24.6604C6.98319 23.3783 7.05502 6.72704 7.05502 6.72704ZM12.0227 26.3673C9.64691 27.7204 5.39932 27.7204 9.50265 20.6041C10.2228 19.3948 11.2308 17.6151 11.2308 17.6151C11.5187 17.9707 11.9509 18.1837 12.5986 18.1837H22.9661C22.9661 18.1837 25.5574 18.2547 27.6453 17.4015C26.7097 18.1127 12.0227 26.3673 12.0227 26.3673ZM22.9661 17.3305H19.5099C19.6535 16.9738 19.5823 16.4762 19.2944 15.9064L17.3502 12.7044L14.1106 7.08262C14.1106 7.08262 12.8865 4.80597 11.0865 3.45346C12.2388 3.88063 26.7816 12.2773 26.7816 12.2773C29.158 13.7014 31.2459 17.2595 22.9661 17.3305Z" fill="#4B77AE"/>
<path fill-rule="evenodd" clip-rule="evenodd" d="M46.0047 7.15422C46.0047 5.01956 46.2208 4.73498 49.8925 4.73498C53.924 4.73498 56.3717 6.51406 56.3717 10.0722C56.3717 14.6977 52.1959 15.3379 47.9483 15.3379H46.0047V7.15422ZM42.1168 27.3637H46.0047V16.6898H48.092C53.5637 16.6898 60.8354 16.2632 60.8354 10.0722C60.8354 3.81024 53.9959 3.31208 48.5242 3.31208H37.5813V3.95223C41.4686 4.3794 42.1168 4.94857 42.1168 7.15422V27.3637ZM65.0111 7.58139C65.0111 4.66398 64.3629 4.4504 60.4756 3.95223V3.31208H69.546L83.7296 22.8808H83.8015V3.31208H86.1773V27.3637H82.7216L67.4588 6.44307H67.3869V27.3637H65.0111V7.58139ZM111.663 26.7241C109.504 27.2927 107.416 27.7204 103.168 27.7204C94.6731 27.7204 90.0657 21.814 90.0657 14.5551C90.0657 8.07956 92.8007 2.9565 102.088 2.9565C108.929 2.9565 111.376 5.80291 111.663 8.22275H107.272C107.057 7.08382 106.264 4.59359 101.801 4.59359C96.977 4.59359 94.4576 8.15175 94.4576 13.631C94.4576 18.683 95.7529 26.155 105.688 26.155C108.352 26.155 111.16 25.3722 111.663 25.2296V26.7241Z" fill="#888A8D"/>
<path fill-rule="evenodd" clip-rule="evenodd" d="M27.1419 28.573C27.0695 28.573 26.8534 28.431 26.6379 28.431C26.4218 28.431 26.2775 28.502 26.2775 28.644C26.2775 28.9298 26.5655 28.9298 26.9252 29.1427C27.0695 29.2847 27.2131 29.4273 27.2131 29.7125C27.2131 29.9971 26.997 30.2811 26.4936 30.2811C26.2057 30.2811 26.0621 30.2101 25.9896 30.2101V29.8545C25.9896 29.9255 26.2775 30.0675 26.4936 30.0675C26.7816 30.0675 26.9252 29.9965 26.9252 29.7119C26.9252 29.5687 26.7097 29.4977 26.4936 29.3551C26.2775 29.2125 25.9896 29.0706 25.9896 28.7866C25.9896 28.4298 26.2057 28.2168 26.6379 28.2168C26.8534 28.2168 26.9977 28.2878 27.1419 28.2878V28.573ZM27.7178 28.289H28.0057V28.7156C28.0775 28.5026 28.2942 28.218 28.5815 28.218C28.9419 28.218 29.0855 28.5026 29.0855 28.7156C29.1574 28.5736 29.301 28.218 29.6614 28.218C30.0211 28.218 30.1654 28.431 30.1654 28.7878V30.2107H29.8775V28.9304C29.8775 28.7884 29.8775 28.5026 29.5889 28.5026C29.2292 28.5026 29.0855 29.0013 29.0855 29.3569V30.2113H28.7976V28.931C28.7976 28.7168 28.7976 28.5032 28.5097 28.5032C28.1499 28.5032 28.0057 29.0019 28.0057 29.3575V30.2119H27.7178V28.289Z" fill="#717478"/>
</mask>
<g mask="url(#mask0_1133_4304)">
<rect x="-3.88281" y="-25.9151" width="119.705" height="82.2917" fill="white"/>
</g>
</g>
<defs>
<clipPath id="clip0_1133_4304">
<rect width="111.663" height="30.3846" fill="white" transform="translate(0 0.0384521)"/>
</clipPath>
</defs>
</svg>
