<svg width="44" height="44" viewBox="0 0 44 44" fill="none" xmlns="http://www.w3.org/2000/svg">
<rect width="44" height="44" rx="22" fill="#F4F7F7"/>
<path d="M19.3865 14.9466C19.2629 15.07 19.1648 15.2165 19.0979 15.3778C19.031 15.5391 18.9966 15.712 18.9966 15.8866C18.9966 16.0612 19.031 16.2341 19.0979 16.3954C19.1648 16.5567 19.2629 16.7033 19.3865 16.8266L24.5598 21.9999L19.3865 27.1733C19.2631 27.2967 19.1651 27.4433 19.0983 27.6046C19.0315 27.7658 18.9971 27.9387 18.9971 28.1133C18.9971 28.2879 19.0315 28.4607 19.0983 28.622C19.1651 28.7833 19.2631 28.9298 19.3865 29.0533C19.51 29.1767 19.6565 29.2746 19.8178 29.3414C19.9791 29.4083 20.1519 29.4426 20.3265 29.4426C20.5011 29.4426 20.6739 29.4083 20.8352 29.3414C20.9965 29.2746 21.1431 29.1767 21.2665 29.0533L27.3865 22.9333C27.5101 22.8099 27.6082 22.6634 27.6751 22.5021C27.742 22.3408 27.7764 22.1679 27.7764 21.9933C27.7764 21.8187 27.742 21.6457 27.6751 21.4844C27.6082 21.3232 27.5101 21.1766 27.3865 21.0533L21.2665 14.9333C20.7598 14.4266 19.9065 14.4266 19.3865 14.9466Z" fill="#276164"/>
</svg>
