<svg width="300" height="274" viewBox="0 0 300 274" fill="none" xmlns="http://www.w3.org/2000/svg">
<mask id="path-1-inside-1_1230_17307" fill="white">
<path fill-rule="evenodd" clip-rule="evenodd" d="M54.3855 273.036C47.0753 267.732 41.9979 253.087 40.2264 233.703C42.2031 236.45 45.5549 239.222 48.3431 240.565C53.1115 242.862 62.7276 244.111 64.3596 240.723C65.9916 237.335 59.0215 230.594 54.2531 228.297C50.1019 226.297 42.6958 225.294 39.7716 227.303C39.2591 217.366 39.5625 206.416 40.8068 194.99C40.9408 193.759 41.0843 192.536 41.2369 191.322C43.0764 196.134 47.8803 201.84 52.0627 204.742C58.3541 209.107 71.8102 213.075 74.9115 208.606C78.0128 204.136 69.585 192.92 63.2936 188.555C57.5784 184.59 46.5533 181.37 42.2569 184.164C44.7435 168.585 48.7283 154.726 53.5254 144.011C54.4309 141.988 53.8594 139.534 52.0153 138.305C49.8792 136.881 47.0926 137.774 46.002 140.097C42.9481 146.605 40.1809 154.484 37.867 163.357C34.0019 159.879 22.2857 160.337 15.894 162.583C8.66971 165.121 -1.59424 173.403 0.209404 178.535C2.01305 183.668 15.2013 183.708 22.4256 181.17C26.6586 179.682 32.2231 176.122 35.7426 172.396C34.0757 180.308 32.7622 188.826 31.8988 197.731C31.8209 198.535 31.7472 199.336 31.6776 200.135C28.4391 198.55 20.7907 200.76 16.9167 203.287C12.4838 206.178 6.95396 213.425 9.00848 216.575C11.063 219.724 19.9238 217.584 24.3568 214.692C26.6279 213.21 29.3219 210.498 31.1332 207.781C29.5342 236.75 33.502 261.424 41.0466 273.036H54.3855Z"/>
</mask>
<path fill-rule="evenodd" clip-rule="evenodd" d="M54.3855 273.036C47.0753 267.732 41.9979 253.087 40.2264 233.703C42.2031 236.45 45.5549 239.222 48.3431 240.565C53.1115 242.862 62.7276 244.111 64.3596 240.723C65.9916 237.335 59.0215 230.594 54.2531 228.297C50.1019 226.297 42.6958 225.294 39.7716 227.303C39.2591 217.366 39.5625 206.416 40.8068 194.99C40.9408 193.759 41.0843 192.536 41.2369 191.322C43.0764 196.134 47.8803 201.84 52.0627 204.742C58.3541 209.107 71.8102 213.075 74.9115 208.606C78.0128 204.136 69.585 192.92 63.2936 188.555C57.5784 184.59 46.5533 181.37 42.2569 184.164C44.7435 168.585 48.7283 154.726 53.5254 144.011C54.4309 141.988 53.8594 139.534 52.0153 138.305C49.8792 136.881 47.0926 137.774 46.002 140.097C42.9481 146.605 40.1809 154.484 37.867 163.357C34.0019 159.879 22.2857 160.337 15.894 162.583C8.66971 165.121 -1.59424 173.403 0.209404 178.535C2.01305 183.668 15.2013 183.708 22.4256 181.17C26.6586 179.682 32.2231 176.122 35.7426 172.396C34.0757 180.308 32.7622 188.826 31.8988 197.731C31.8209 198.535 31.7472 199.336 31.6776 200.135C28.4391 198.55 20.7907 200.76 16.9167 203.287C12.4838 206.178 6.95396 213.425 9.00848 216.575C11.063 219.724 19.9238 217.584 24.3568 214.692C26.6279 213.21 29.3219 210.498 31.1332 207.781C29.5342 236.75 33.502 261.424 41.0466 273.036H54.3855Z" fill="#CBD5CA"/>
<path d="M40.2264 233.703L39.2306 233.794L38.8969 230.142L41.0382 233.119L40.2264 233.703ZM54.3855 273.036L54.9728 272.227L57.4666 274.036H54.3855V273.036ZM48.3431 240.565L47.9091 241.466H47.9091L48.3431 240.565ZM64.3596 240.723L63.4586 240.289L64.3596 240.723ZM54.2531 228.297L53.8191 229.198L54.2531 228.297ZM39.7716 227.303L40.338 228.127L38.865 229.14L38.773 227.355L39.7716 227.303ZM40.8068 194.99L39.8127 194.882L40.8068 194.99ZM41.2369 191.322L40.2447 191.198L42.1709 190.965L41.2369 191.322ZM52.0627 204.742L52.6328 203.92L52.0627 204.742ZM74.9115 208.606L74.0899 208.035L74.9115 208.606ZM63.2936 188.555L62.7235 189.377H62.7235L63.2936 188.555ZM42.2569 184.164L42.8022 185.002L40.9145 186.23L41.2694 184.007L42.2569 184.164ZM53.5254 144.011L52.6127 143.602V143.602L53.5254 144.011ZM52.0153 138.305L51.4607 139.137V139.137L52.0153 138.305ZM46.002 140.097L45.0967 139.673V139.673L46.002 140.097ZM37.867 163.357L38.8347 163.61L38.4199 165.2L37.1981 164.101L37.867 163.357ZM15.894 162.583L16.2256 163.526V163.526L15.894 162.583ZM0.209404 178.535L-0.734039 178.867L0.209404 178.535ZM22.4256 181.17L22.0941 180.226L22.4256 181.17ZM35.7426 172.396L35.0157 171.709L37.4528 169.129L36.7211 172.602L35.7426 172.396ZM31.8988 197.731L30.9035 197.634L31.8988 197.731ZM31.6776 200.135L32.6739 200.221L32.5474 201.674L31.2381 201.033L31.6776 200.135ZM16.9167 203.287L17.4631 204.124L16.9167 203.287ZM9.00848 216.575L9.84602 216.028V216.028L9.00848 216.575ZM24.3568 214.692L23.8104 213.854L24.3568 214.692ZM31.1332 207.781L30.3011 207.226L32.3336 204.177L32.1317 207.836L31.1332 207.781ZM41.0466 273.036V274.036H40.5038L40.2081 273.581L41.0466 273.036ZM41.2223 233.612C42.1028 243.247 43.8023 251.668 46.1709 258.314C48.5493 264.988 51.5586 269.75 54.9728 272.227L53.7983 273.846C49.9023 271.019 46.7177 265.806 44.287 258.985C41.8465 252.137 40.1215 243.543 39.2306 233.794L41.2223 233.612ZM47.9091 241.466C44.9697 240.05 41.4883 237.169 39.4147 234.287L41.0382 233.119C42.9179 235.731 46.1401 238.394 48.7771 239.664L47.9091 241.466ZM65.2605 241.157C64.6675 242.388 63.4209 243.062 62.0982 243.417C60.7524 243.778 59.1323 243.866 57.4727 243.774C54.1568 243.592 50.4287 242.68 47.9091 241.466L48.7771 239.664C51.0259 240.747 54.49 241.608 57.5823 241.777C59.1267 241.862 60.5146 241.771 61.5799 241.485C62.6681 241.193 63.2356 240.752 63.4586 240.289L65.2605 241.157ZM54.6871 227.396C57.2067 228.61 60.2441 230.956 62.4531 233.436C63.5588 234.677 64.4998 235.999 65.0563 237.276C65.6032 238.532 65.8534 239.926 65.2605 241.157L63.4586 240.289C63.6817 239.826 63.6726 239.108 63.2227 238.075C62.7822 237.064 61.9887 235.921 60.9598 234.766C58.8997 232.454 56.0679 230.281 53.8191 229.198L54.6871 227.396ZM39.2053 226.479C40.1168 225.853 41.3014 225.506 42.5511 225.339C43.8142 225.169 45.2217 225.171 46.6431 225.301C49.4759 225.559 52.4853 226.335 54.6871 227.396L53.8191 229.198C51.8697 228.259 49.1004 227.533 46.4614 227.293C45.1468 227.173 43.8951 227.176 42.8174 227.321C41.7263 227.467 40.8885 227.749 40.338 228.127L39.2053 226.479ZM41.8009 195.098C40.5621 206.475 40.2607 217.371 40.7703 227.252L38.773 227.355C38.2576 217.361 38.563 206.358 39.8127 194.882L41.8009 195.098ZM42.2291 191.447C42.0771 192.656 41.9343 193.873 41.8009 195.098L39.8127 194.882C39.9473 193.645 40.0914 192.417 40.2447 191.198L42.2291 191.447ZM51.4927 205.563C47.1692 202.564 42.224 196.705 40.3028 191.679L42.1709 190.965C43.9288 195.564 48.5914 201.116 52.6328 203.92L51.4927 205.563ZM75.7331 209.176C74.7149 210.643 72.9387 211.295 71.022 211.496C69.0817 211.699 66.7979 211.466 64.4725 210.964C59.825 209.962 54.7619 207.832 51.4927 205.563L52.6328 203.92C55.655 206.017 60.4656 208.054 64.8943 209.009C67.107 209.487 69.1619 209.68 70.8135 209.507C72.4886 209.331 73.5575 208.803 74.0899 208.035L75.7331 209.176ZM63.8636 187.734C67.1328 190.002 70.9005 193.999 73.4666 198.001C74.7506 200.004 75.7688 202.062 76.2574 203.95C76.7401 205.816 76.7514 207.708 75.7331 209.176L74.0899 208.035C74.6223 207.268 74.7431 206.082 74.3212 204.451C73.9052 202.844 73.0047 200.986 71.783 199.081C69.3377 195.267 65.7457 191.474 62.7235 189.377L63.8636 187.734ZM41.7117 183.326C43.0093 182.482 44.7195 182.145 46.5359 182.114C48.3696 182.083 50.4154 182.363 52.4742 182.852C56.5827 183.827 60.8873 185.668 63.8636 187.734L62.7235 189.377C59.9847 187.476 55.9192 185.725 52.0122 184.798C50.0632 184.335 48.19 184.086 46.5696 184.114C44.9318 184.141 43.6528 184.449 42.8022 185.002L41.7117 183.326ZM54.4381 144.419C49.6843 155.038 45.7204 168.809 43.2444 184.322L41.2694 184.007C43.7666 168.361 47.7723 154.414 52.6127 143.602L54.4381 144.419ZM52.5699 137.473C54.8647 139.002 55.5204 142.002 54.4381 144.419L52.6127 143.602C53.3414 141.974 52.8541 140.066 51.4607 139.137L52.5699 137.473ZM45.0967 139.673C46.426 136.84 49.8845 135.683 52.5699 137.473L51.4607 139.137C49.8739 138.08 47.7592 138.707 46.9073 140.522L45.0967 139.673ZM36.8994 163.105C39.2251 154.186 42.0114 146.247 45.0967 139.673L46.9073 140.522C43.8849 146.962 41.1367 154.781 38.8347 163.61L36.8994 163.105ZM15.5625 161.639C18.8889 160.47 23.5349 159.783 27.8374 159.823C29.994 159.843 32.0982 160.047 33.9317 160.48C35.7476 160.908 37.391 161.584 38.536 162.614L37.1981 164.101C36.4105 163.392 35.14 162.82 33.4723 162.426C31.8222 162.037 29.8732 161.842 27.8186 161.823C23.6988 161.784 19.2908 162.449 16.2256 163.526L15.5625 161.639ZM-0.734039 178.867C-1.31722 177.207 -0.883347 175.419 0.00125122 173.763C0.892921 172.094 2.31622 170.413 3.98368 168.855C7.3159 165.743 11.8048 162.96 15.5625 161.639L16.2256 163.526C12.759 164.744 8.50371 167.371 5.34879 170.317C3.77267 171.789 2.51665 173.299 1.76534 174.706C1.00696 176.125 0.834213 177.297 1.15285 178.204L-0.734039 178.867ZM22.7572 182.113C18.9994 183.434 13.7559 184.07 9.20943 183.726C6.93433 183.555 4.77213 183.133 3.03228 182.389C1.30623 181.65 -0.150848 180.527 -0.734039 178.867L1.15285 178.204C1.47148 179.111 2.3393 179.917 3.81908 180.55C5.28506 181.177 7.20963 181.57 9.36008 181.732C13.6647 182.057 18.6275 181.444 22.0941 180.226L22.7572 182.113ZM36.4696 173.083C32.8432 176.922 27.1441 180.572 22.7572 182.113L22.0941 180.226C26.1732 178.793 31.603 175.322 35.0157 171.709L36.4696 173.083ZM30.9035 197.634C31.7703 188.694 33.0893 180.139 34.7641 172.19L36.7211 172.602C35.0621 180.476 33.7541 188.958 32.8941 197.827L30.9035 197.634ZM30.6814 200.048C30.7512 199.246 30.8253 198.441 30.9035 197.634L32.8941 197.827C32.8166 198.628 32.7431 199.426 32.6739 200.221L30.6814 200.048ZM16.3704 202.449C18.4223 201.111 21.4143 199.887 24.3028 199.196C25.7523 198.849 27.2068 198.629 28.5305 198.603C29.8376 198.578 31.1044 198.741 32.1172 199.236L31.2381 201.033C30.6316 200.736 29.7279 200.581 28.5691 200.603C27.4268 200.625 26.1198 200.818 24.7682 201.141C22.0543 201.791 19.2852 202.936 17.4631 204.124L16.3704 202.449ZM8.17093 217.121C7.43931 216 7.45325 214.626 7.78522 213.329C8.12093 212.017 8.81894 210.622 9.69304 209.286C11.4392 206.618 14.0247 203.979 16.3704 202.449L17.4631 204.124C15.3758 205.486 12.9799 207.916 11.3666 210.382C10.5609 211.613 9.98463 212.801 9.72279 213.824C9.45723 214.862 9.55038 215.575 9.84602 216.028L8.17093 217.121ZM24.9031 215.529C22.5574 217.06 19.1004 218.362 15.9546 218.885C14.3799 219.147 12.8223 219.224 11.4865 219.002C10.1655 218.784 8.90254 218.243 8.17093 217.121L9.84602 216.028C10.1417 216.482 10.7568 216.854 11.8135 217.029C12.8554 217.202 14.1753 217.154 15.6268 216.912C18.5332 216.429 21.7231 215.216 23.8104 213.854L24.9031 215.529ZM31.9653 208.335C30.0891 211.15 27.302 213.965 24.9031 215.529L23.8104 213.854C25.9538 212.456 28.5548 209.846 30.3011 207.226L31.9653 208.335ZM40.2081 273.581C36.3231 267.601 33.4166 258.367 31.6728 247.07C29.9253 235.749 29.3321 222.267 30.1347 207.725L32.1317 207.836C31.3354 222.263 31.9265 235.603 33.6493 246.765C35.3758 257.949 38.2255 266.859 41.8852 272.491L40.2081 273.581ZM54.3855 274.036H41.0466V272.036H54.3855V274.036Z" fill="black" mask="url(#path-1-inside-1_1230_17307)"/>
<path d="M43.376 103.734L44.1376 104.708L42.913 104.537C39.6485 104.082 36.3888 104.072 33.4186 104.555C27.2848 105.553 22.8344 108.583 20.1349 112.722C17.431 116.868 16.4591 122.165 17.3645 127.729C18.27 133.292 20.8715 138.008 24.7505 141.082C28.6232 144.151 33.8047 145.614 39.9385 144.615C43.6897 144.005 47.6274 142.501 51.2384 140.382L52.1031 139.874L51.9882 140.87C51.5591 144.589 51.7511 148.301 52.608 151.555C54.1082 157.253 57.5381 161.139 61.9691 163.247C66.4106 165.36 71.8944 165.701 77.503 164.224C83.1117 162.747 87.7163 159.75 90.5415 155.724C93.36 151.707 94.4312 146.636 92.931 140.938C92.0848 137.724 90.4544 134.441 88.2902 131.446L87.6857 130.609L88.7169 130.654C92.6874 130.824 96.629 130.351 100.044 129.223C105.928 127.28 109.817 123.537 111.797 118.932C113.781 114.319 113.863 108.801 112.046 103.298C110.228 97.795 106.876 93.4109 102.535 90.8862C98.2029 88.3662 92.8488 87.6757 86.965 89.6188C84.4045 90.4643 81.8242 91.7823 79.3897 93.445L78.5639 94.009L78.6082 93.0099C78.778 89.1831 78.311 85.3919 77.1977 82.124C75.2963 76.5429 71.6485 72.8917 67.1633 71.076C62.6682 69.2564 57.2927 69.2657 51.9344 71.0912C46.576 72.9167 42.3129 76.191 39.8636 80.3764C37.4197 84.5527 36.7596 89.6715 38.661 95.2526C39.6488 98.1521 41.2912 101.068 43.376 103.734Z" fill="#F0E7D5" stroke="black"/>
<circle cx="10.9176" cy="10.9176" r="10.4176" transform="matrix(-0.905242 0.424896 0.424896 0.905242 70.4473 103.188)" fill="#AC590C" stroke="black"/>
<path d="M246.637 64.6575V80.4687V272.404H64.4805V64.6575C64.4805 64.4944 64.56 64.3416 64.6936 64.248L64.4068 63.8384L64.6936 64.248L155.272 0.811313C155.444 0.690708 155.673 0.690708 155.846 0.811309L246.424 64.248C246.558 64.3416 246.637 64.4944 246.637 64.6575Z" fill="#CBD5CA" stroke="black" stroke-linecap="round"/>
<path d="M155.209 0.532715L63.9805 64.4245H246.437L155.209 0.532715Z" fill="#226752"/>
<rect x="65.5771" y="133.639" width="179.962" height="69.2162" fill="#CBD5CA"/>
<g style="mix-blend-mode:multiply" opacity="0.5">
<rect x="63.9805" y="202.855" width="182.092" height="69.2162" fill="#CBD5CA"/>
</g>
<g style="mix-blend-mode:multiply" opacity="0.5">
<rect x="64.5117" y="64.4233" width="182.092" height="69.2162" fill="#CBD5CA"/>
</g>
<g style="mix-blend-mode:multiply" opacity="0.5">
<rect x="64.5117" y="64.4233" width="91.0459" height="69.2162" fill="#CBD5CA"/>
</g>
<g style="mix-blend-mode:overlay">
<path fill-rule="evenodd" clip-rule="evenodd" d="M111.949 133.637C112.501 133.637 112.949 134.085 112.949 134.637V144.831H133.477C134.03 144.831 134.477 145.278 134.477 145.831V156.031H155.002C155.554 156.031 156.002 156.479 156.002 157.031V167.225H176.532C177.084 167.225 177.532 167.673 177.532 168.225V178.422H198.058C198.611 178.422 199.058 178.87 199.058 179.422V190.069H219.514C220.066 190.069 220.514 190.517 220.514 191.069V201.603C220.514 202.155 220.066 202.603 219.514 202.603H198.446C198.327 202.653 198.196 202.681 198.058 202.681H155.069L155.045 202.682C155.031 202.683 155.016 202.683 155.002 202.683H65.5112C64.9589 202.683 64.5112 202.236 64.5112 201.683V201.616C64.5111 201.612 64.5111 201.607 64.5111 201.603V191.069C64.5111 191.065 64.5111 191.061 64.5112 191.056V157.031C64.5112 157.012 64.5117 156.993 64.5128 156.973V134.637C64.5128 134.085 64.9605 133.637 65.5128 133.637H111.949Z" fill="#CBD5CA"/>
</g>
<g style="mix-blend-mode:multiply" opacity="0.5">
<rect x="155.558" y="202.855" width="91.0459" height="69.2162" fill="#CBD5CA"/>
</g>
<path d="M142.367 121.101C146.577 119.693 150.995 119.005 155.434 119.067C159.873 119.005 164.291 119.693 168.501 121.101C169.21 121.35 169.844 121.777 170.341 122.342V109.681C170.341 105.727 168.77 101.935 165.974 99.1394C163.178 96.3436 159.386 94.7729 155.433 94.7729C151.479 94.7729 147.687 96.3436 144.891 99.1394C142.095 101.935 140.524 105.727 140.524 109.681V122.342C141.022 121.777 141.656 121.35 142.367 121.101Z" fill="white"/>
<path d="M142.367 121.101C146.577 119.693 150.995 119.005 155.434 119.067C159.873 119.005 164.291 119.693 168.501 121.101C169.21 121.35 169.844 121.777 170.341 122.342V109.681C170.341 105.727 168.77 101.935 165.974 99.1394C163.178 96.3436 159.386 94.7729 155.433 94.7729C151.479 94.7729 147.687 96.3436 144.891 99.1394C142.095 101.935 140.524 105.727 140.524 109.681V122.342C141.022 121.777 141.656 121.35 142.367 121.101V121.101Z" stroke="#1D1D1D" stroke-linecap="round" stroke-linejoin="round"/>
<path d="M136.11 119.066C136.11 120.53 136.692 121.934 137.728 122.97C138.763 124.005 140.167 124.587 141.632 124.587C143.096 124.587 144.5 124.005 145.536 122.97C146.571 121.934 147.153 120.53 147.153 119.066C147.153 117.601 146.571 116.197 145.536 115.161C144.5 114.126 143.096 113.544 141.632 113.544C140.167 113.544 138.763 114.126 137.728 115.161C136.692 116.197 136.11 117.601 136.11 119.066Z" fill="white"/>
<path d="M136.11 119.066C136.11 120.53 136.692 121.934 137.728 122.97C138.763 124.005 140.167 124.587 141.632 124.587C143.096 124.587 144.5 124.005 145.536 122.97C146.571 121.934 147.153 120.53 147.153 119.066C147.153 117.601 146.571 116.197 145.536 115.161C144.5 114.126 143.096 113.544 141.632 113.544C140.167 113.544 138.763 114.126 137.728 115.161C136.692 116.197 136.11 117.601 136.11 119.066V119.066Z" stroke="#1D1D1D" stroke-linecap="round" stroke-linejoin="round"/>
<path d="M163.716 119.066C163.716 120.53 164.298 121.934 165.333 122.97C166.368 124.005 167.773 124.587 169.237 124.587C170.701 124.587 172.106 124.005 173.141 122.97C174.177 121.934 174.758 120.53 174.758 119.066C174.758 117.601 174.177 116.197 173.141 115.161C172.106 114.126 170.701 113.544 169.237 113.544C167.773 113.544 166.368 114.126 165.333 115.161C164.298 116.197 163.716 117.601 163.716 119.066Z" fill="white"/>
<path d="M163.716 119.066C163.716 120.53 164.298 121.934 165.333 122.97C166.368 124.005 167.773 124.587 169.237 124.587C170.701 124.587 172.106 124.005 173.141 122.97C174.177 121.934 174.758 120.53 174.758 119.066C174.758 117.601 174.177 116.197 173.141 115.161C172.106 114.126 170.701 113.544 169.237 113.544C167.773 113.544 166.368 114.126 165.333 115.161C164.298 116.197 163.716 117.601 163.716 119.066V119.066Z" stroke="#1D1D1D" stroke-linecap="round" stroke-linejoin="round"/>
<path d="M142.735 131.214H147.153V133.422H142.735V131.214Z" fill="#226752" stroke="#1D1D1D" stroke-linecap="round" stroke-linejoin="round"/>
<path d="M163.716 131.214H168.133V133.422H163.716V131.214Z" fill="#226752" stroke="#1D1D1D" stroke-linecap="round" stroke-linejoin="round"/>
<path d="M158.195 109.13C158.195 109.676 158.033 110.21 157.73 110.664C157.427 111.118 156.995 111.472 156.491 111.681C155.987 111.89 155.431 111.944 154.896 111.838C154.36 111.731 153.868 111.468 153.482 111.082C153.096 110.696 152.833 110.204 152.727 109.669C152.62 109.133 152.675 108.578 152.884 108.074C153.093 107.569 153.447 107.138 153.901 106.835C154.355 106.532 154.888 106.37 155.434 106.37C156.167 106.37 156.869 106.66 157.387 107.178C157.904 107.696 158.195 108.398 158.195 109.13Z" fill="#226752" stroke="#1D1D1D" stroke-linecap="round" stroke-linejoin="round"/>
<path d="M171.446 125.268C171.447 124.354 171.165 123.462 170.637 122.716C170.11 121.969 169.363 121.405 168.501 121.101C164.291 119.693 159.873 119.005 155.434 119.067C150.995 119.005 146.577 119.693 142.366 121.101C141.504 121.405 140.758 121.969 140.23 122.716C139.703 123.462 139.42 124.354 139.422 125.268V127.902C139.422 128.337 139.508 128.768 139.674 129.169C139.841 129.571 140.085 129.937 140.392 130.244C140.7 130.552 141.065 130.796 141.467 130.962C141.869 131.129 142.3 131.214 142.735 131.214H168.132C168.567 131.214 168.998 131.129 169.4 130.962C169.802 130.796 170.167 130.552 170.475 130.244C170.782 129.937 171.026 129.571 171.193 129.169C171.359 128.768 171.445 128.337 171.445 127.902L171.446 125.268Z" fill="white"/>
<path d="M157.379 107.178L159.292 105.265" stroke="#1D1D1D" stroke-linecap="round" stroke-linejoin="round"/>
<path d="M151.562 105.265L153.475 107.178" stroke="#1D1D1D" stroke-linecap="round" stroke-linejoin="round"/>
<path d="M151.562 112.996L153.475 111.083" stroke="#1D1D1D" stroke-linecap="round" stroke-linejoin="round"/>
<path d="M157.379 111.083L159.292 112.996" stroke="#1D1D1D" stroke-linecap="round" stroke-linejoin="round"/>
<path d="M185.166 123.485H175.823C175.598 123.485 175.382 123.575 175.222 123.734C175.063 123.893 174.974 124.109 174.974 124.335V133.421H186.016V124.332C186.016 124.107 185.926 123.892 185.766 123.733C185.607 123.574 185.391 123.485 185.166 123.485Z" fill="#226752"/>
<path d="M183.807 122.38C183.814 121.941 183.733 121.505 183.569 121.098C183.405 120.691 183.162 120.32 182.854 120.007C182.546 119.695 182.178 119.446 181.773 119.277C181.368 119.108 180.934 119.02 180.495 119.02C180.056 119.02 179.621 119.108 179.216 119.277C178.811 119.446 178.444 119.695 178.135 120.007C177.827 120.32 177.584 120.691 177.421 121.098C177.257 121.505 177.176 121.941 177.182 122.38V123.487H183.807V122.38Z" fill="#226752"/>
<path d="M183.273 119.068H177.716C177.583 119.068 177.451 119.038 177.329 118.982C177.208 118.926 177.1 118.844 177.014 118.742C176.928 118.64 176.865 118.521 176.829 118.392C176.793 118.263 176.786 118.128 176.808 117.996L177.58 113.365C177.623 113.107 177.756 112.872 177.955 112.702C178.155 112.533 178.408 112.439 178.67 112.439H182.32C182.581 112.44 182.834 112.532 183.034 112.701C183.233 112.87 183.366 113.105 183.409 113.363L184.181 117.993C184.204 118.125 184.197 118.261 184.162 118.39C184.126 118.519 184.063 118.639 183.977 118.741C183.89 118.844 183.783 118.926 183.661 118.982C183.54 119.038 183.407 119.068 183.273 119.068Z" fill="white"/>
<path d="M183.273 119.068H177.716C177.583 119.068 177.451 119.038 177.329 118.982C177.208 118.926 177.1 118.844 177.014 118.742C176.928 118.64 176.865 118.521 176.829 118.392C176.793 118.263 176.786 118.128 176.808 117.996L177.58 113.365C177.623 113.107 177.756 112.872 177.955 112.702C178.155 112.533 178.408 112.439 178.67 112.439H182.32C182.581 112.44 182.834 112.532 183.034 112.701C183.233 112.87 183.366 113.105 183.409 113.363L184.181 117.993C184.204 118.125 184.197 118.261 184.162 118.39C184.126 118.519 184.063 118.639 183.977 118.741C183.89 118.844 183.783 118.926 183.661 118.982C183.54 119.038 183.407 119.068 183.273 119.068V119.068Z" stroke="#1D1D1D" stroke-linecap="round" stroke-linejoin="round"/>
<path d="M171.446 125.268C171.447 124.354 171.165 123.462 170.637 122.716C170.11 121.969 169.363 121.405 168.501 121.101C164.291 119.693 159.873 119.005 155.434 119.067C150.995 119.005 146.577 119.693 142.366 121.101C141.504 121.405 140.758 121.969 140.23 122.716C139.703 123.462 139.42 124.354 139.422 125.268V127.902C139.422 128.337 139.508 128.768 139.674 129.169C139.841 129.571 140.085 129.937 140.392 130.244C140.7 130.552 141.065 130.796 141.467 130.962C141.869 131.129 142.3 131.214 142.735 131.214H168.132C168.567 131.214 168.998 131.129 169.4 130.962C169.802 130.796 170.167 130.552 170.475 130.244C170.782 129.937 171.026 129.571 171.193 129.169C171.359 128.768 171.445 128.337 171.445 127.902L171.446 125.268Z" stroke="#1D1D1D" stroke-linecap="round" stroke-linejoin="round"/>
<path d="M185.166 123.485H175.823C175.598 123.485 175.382 123.575 175.222 123.734C175.063 123.893 174.974 124.109 174.974 124.335V133.421H186.016V124.332C186.016 124.107 185.926 123.892 185.766 123.733C185.607 123.574 185.391 123.485 185.166 123.485V123.485Z" stroke="#1D1D1D" stroke-linecap="round" stroke-linejoin="round"/>
<path d="M183.807 122.38C183.814 121.941 183.733 121.505 183.569 121.098C183.405 120.691 183.162 120.32 182.854 120.007C182.546 119.695 182.178 119.446 181.773 119.277C181.368 119.108 180.934 119.02 180.495 119.02C180.056 119.02 179.621 119.108 179.216 119.277C178.811 119.446 178.444 119.695 178.135 120.007C177.827 120.32 177.584 120.691 177.421 121.098C177.257 121.505 177.176 121.941 177.182 122.38V123.487H183.807V122.38Z" stroke="#1D1D1D" stroke-linecap="round" stroke-linejoin="round"/>
<mask id="path-34-inside-2_1230_17307" fill="white">
<path fill-rule="evenodd" clip-rule="evenodd" d="M242.713 273.036C249.015 270.366 253.812 260.835 256.533 247.123C254.424 249.631 251.186 252.023 248.526 253.141C243.75 255.148 234.329 255.785 232.955 252.265C231.58 248.744 238.773 242.398 243.549 240.39C247.699 238.645 254.939 238.112 257.666 240.313C258.621 233.346 259.106 225.564 259.063 217.238C256.986 219.939 253.469 222.603 250.617 223.802C245.841 225.81 236.42 226.447 235.045 222.926C233.671 219.405 240.863 213.059 245.639 211.052C249.416 209.464 255.75 208.879 258.915 210.445C258.699 204.777 258.247 198.903 257.542 192.902C257.319 190.997 257.074 189.112 256.808 187.248C254.786 191.875 250.469 197.06 246.677 199.79C240.552 204.2 227.452 208.209 224.432 203.694C221.413 199.178 229.618 187.848 235.743 183.438C240.97 179.675 250.757 176.576 255.393 178.553C252.547 163.041 248.287 149.422 243.317 139.164C242.355 137.178 242.785 134.704 244.506 133.305C246.645 131.565 249.692 132.306 250.93 134.752C254.973 142.738 258.582 153.247 261.386 165.41C264.644 161.436 275.905 160.226 282.37 161.539C289.72 163.031 300.887 169.818 299.944 175.201C299.002 180.584 286.308 182.526 278.958 181.033C273.895 180.005 266.617 176.384 262.886 172.47C264.351 179.987 265.514 188.022 266.296 196.396C267.244 206.549 267.553 216.323 267.296 225.381C270.315 223.513 277.874 224.963 281.849 227.103C286.423 229.565 292.48 236.296 290.794 239.668C289.108 243.04 280.317 241.776 275.743 239.314C272.752 237.703 268.899 234.145 267.063 230.933C266.012 249.712 262.423 264.863 257.028 273.036H242.713Z"/>
</mask>
<path fill-rule="evenodd" clip-rule="evenodd" d="M242.713 273.036C249.015 270.366 253.812 260.835 256.533 247.123C254.424 249.631 251.186 252.023 248.526 253.141C243.75 255.148 234.329 255.785 232.955 252.265C231.58 248.744 238.773 242.398 243.549 240.39C247.699 238.645 254.939 238.112 257.666 240.313C258.621 233.346 259.106 225.564 259.063 217.238C256.986 219.939 253.469 222.603 250.617 223.802C245.841 225.81 236.42 226.447 235.045 222.926C233.671 219.405 240.863 213.059 245.639 211.052C249.416 209.464 255.75 208.879 258.915 210.445C258.699 204.777 258.247 198.903 257.542 192.902C257.319 190.997 257.074 189.112 256.808 187.248C254.786 191.875 250.469 197.06 246.677 199.79C240.552 204.2 227.452 208.209 224.432 203.694C221.413 199.178 229.618 187.848 235.743 183.438C240.97 179.675 250.757 176.576 255.393 178.553C252.547 163.041 248.287 149.422 243.317 139.164C242.355 137.178 242.785 134.704 244.506 133.305C246.645 131.565 249.692 132.306 250.93 134.752C254.973 142.738 258.582 153.247 261.386 165.41C264.644 161.436 275.905 160.226 282.37 161.539C289.72 163.031 300.887 169.818 299.944 175.201C299.002 180.584 286.308 182.526 278.958 181.033C273.895 180.005 266.617 176.384 262.886 172.47C264.351 179.987 265.514 188.022 266.296 196.396C267.244 206.549 267.553 216.323 267.296 225.381C270.315 223.513 277.874 224.963 281.849 227.103C286.423 229.565 292.48 236.296 290.794 239.668C289.108 243.04 280.317 241.776 275.743 239.314C272.752 237.703 268.899 234.145 267.063 230.933C266.012 249.712 262.423 264.863 257.028 273.036H242.713Z" fill="#CBD5CA"/>
<path d="M242.713 273.036L242.323 272.115L242.713 274.036V273.036ZM256.533 247.123L257.514 247.317L255.768 246.479L256.533 247.123ZM248.526 253.141L248.139 252.219L248.526 253.141ZM232.955 252.265L233.886 251.901L232.955 252.265ZM243.549 240.39L243.161 239.468L243.549 240.39ZM257.666 240.313L257.038 241.091L258.417 242.204L258.657 240.449L257.666 240.313ZM259.063 217.238L260.063 217.233L260.049 214.316L258.271 216.628L259.063 217.238ZM250.617 223.802L251.004 224.724L250.617 223.802ZM235.045 222.926L235.977 222.562L235.045 222.926ZM245.639 211.052L245.251 210.13L245.639 211.052ZM258.915 210.445L258.472 211.341L259.979 212.087L259.915 210.407L258.915 210.445ZM257.542 192.902L256.549 193.018L257.542 192.902ZM256.808 187.248L257.798 187.107L257.301 183.623L255.892 186.848L256.808 187.248ZM246.677 199.79L247.262 200.602H247.262L246.677 199.79ZM224.432 203.694L223.601 204.249H223.601L224.432 203.694ZM235.743 183.438L235.159 182.626L235.743 183.438ZM255.393 178.553L255 179.473L256.712 180.203L256.376 178.373L255.393 178.553ZM243.317 139.164L242.417 139.6V139.6L243.317 139.164ZM244.506 133.305L245.137 134.08V134.08L244.506 133.305ZM250.93 134.752L250.038 135.204L250.93 134.752ZM261.386 165.41L260.412 165.635L260.869 167.619L262.159 166.044L261.386 165.41ZM282.37 161.539L282.171 162.519L282.37 161.539ZM299.944 175.201L300.929 175.373L299.944 175.201ZM278.958 181.033L279.157 180.053L278.958 181.033ZM262.886 172.47L263.609 171.78L261.25 169.304L261.904 172.661L262.886 172.47ZM266.296 196.396L265.3 196.489L266.296 196.396ZM267.296 225.381L266.296 225.353L266.243 227.208L267.822 226.231L267.296 225.381ZM281.849 227.103L282.323 226.222V226.222L281.849 227.103ZM290.794 239.668L289.899 239.221L290.794 239.668ZM275.743 239.314L275.269 240.194V240.194L275.743 239.314ZM267.063 230.933L267.931 230.437L266.253 227.502L266.064 230.877L267.063 230.933ZM257.028 273.036V274.036H257.566L257.863 273.586L257.028 273.036ZM243.104 273.956C246.558 272.493 249.474 269.212 251.851 264.685C254.238 260.142 256.142 254.231 257.514 247.317L255.552 246.928C254.203 253.727 252.349 259.438 250.081 263.755C247.804 268.09 245.171 270.909 242.323 272.115L243.104 273.956ZM255.768 246.479C253.754 248.874 250.643 251.166 248.139 252.219L248.914 254.063C251.729 252.879 255.094 250.388 257.299 247.766L255.768 246.479ZM248.139 252.219C245.893 253.163 242.482 253.805 239.475 253.776C237.973 253.761 236.637 253.58 235.627 253.226C234.601 252.865 234.077 252.39 233.886 251.901L232.023 252.628C232.52 253.9 233.689 254.665 234.965 255.113C236.258 255.566 237.833 255.76 239.455 255.776C242.696 255.807 246.383 255.126 248.914 254.063L248.139 252.219ZM233.886 251.901C233.692 251.403 233.752 250.664 234.255 249.65C234.747 248.656 235.59 247.555 236.661 246.458C238.806 244.261 241.69 242.256 243.936 241.312L243.161 239.468C240.631 240.532 237.531 242.704 235.23 245.061C234.077 246.242 233.081 247.513 232.463 248.762C231.854 249.991 231.531 251.366 232.023 252.628L233.886 251.901ZM243.936 241.312C245.879 240.495 248.601 239.945 251.17 239.871C252.449 239.835 253.659 239.918 254.692 240.131C255.737 240.346 256.528 240.68 257.038 241.091L258.295 239.535C257.441 238.846 256.305 238.421 255.096 238.172C253.874 237.92 252.503 237.833 251.113 237.872C248.342 237.951 245.369 238.54 243.161 239.468L243.936 241.312ZM258.657 240.449C259.619 233.429 260.106 225.599 260.063 217.233L258.063 217.243C258.105 225.528 257.623 233.263 256.676 240.177L258.657 240.449ZM258.271 216.628C256.299 219.192 252.921 221.748 250.229 222.88L251.004 224.724C254.017 223.457 257.674 220.686 259.856 217.847L258.271 216.628ZM250.229 222.88C247.984 223.824 244.572 224.466 241.565 224.437C240.063 224.423 238.727 224.241 237.718 223.887C236.692 223.527 236.168 223.051 235.977 222.562L234.114 223.29C234.61 224.561 235.779 225.326 237.055 225.774C238.348 226.228 239.924 226.422 241.546 226.437C244.786 226.468 248.473 225.788 251.004 224.724L250.229 222.88ZM235.977 222.562C235.782 222.064 235.843 221.325 236.345 220.311C236.837 219.318 237.68 218.217 238.751 217.12C240.897 214.922 243.78 212.917 246.026 211.973L245.251 210.13C242.721 211.193 239.621 213.365 237.32 215.723C236.168 216.903 235.172 218.174 234.553 219.423C233.944 220.652 233.621 222.027 234.114 223.29L235.977 222.562ZM246.026 211.973C247.791 211.232 250.205 210.707 252.567 210.564C254.957 210.419 257.123 210.674 258.472 211.341L259.359 209.549C257.543 208.65 254.959 208.415 252.446 208.568C249.906 208.722 247.263 209.284 245.251 210.13L246.026 211.973ZM259.915 210.407C259.697 204.712 259.243 198.812 258.536 192.785L256.549 193.018C257.251 198.994 257.701 204.841 257.916 210.483L259.915 210.407ZM258.536 192.785C258.311 190.872 258.065 188.979 257.798 187.107L255.818 187.39C256.082 189.245 256.327 191.122 256.549 193.018L258.536 192.785ZM255.892 186.848C253.944 191.304 249.744 196.35 246.093 198.979L247.262 200.602C251.194 197.771 255.628 192.445 257.724 187.649L255.892 186.848ZM246.093 198.979C243.155 201.094 238.477 203.149 234.172 204.113C232.021 204.595 230.027 204.789 228.429 204.615C226.812 204.439 225.781 203.911 225.264 203.138L223.601 204.249C224.593 205.734 226.332 206.398 228.212 206.603C230.111 206.81 232.341 206.572 234.609 206.065C239.14 205.05 244.075 202.896 247.262 200.602L246.093 198.979ZM225.264 203.138C224.739 202.353 224.622 201.14 225.035 199.486C225.441 197.856 226.32 195.977 227.509 194.052C229.891 190.197 233.388 186.365 236.328 184.249L235.159 182.626C231.973 184.92 228.305 188.959 225.808 193C224.558 195.023 223.569 197.099 223.094 199.002C222.626 200.88 222.616 202.776 223.601 204.249L225.264 203.138ZM236.328 184.249C238.827 182.45 242.466 180.78 246.051 179.808C247.839 179.324 249.585 179.02 251.145 178.953C252.716 178.885 254.031 179.06 255 179.473L255.785 177.634C254.436 177.059 252.79 176.88 251.059 176.954C249.316 177.03 247.42 177.365 245.528 177.878C241.754 178.901 237.886 180.663 235.159 182.626L236.328 184.249ZM256.376 178.373C253.519 162.797 249.236 149.087 244.217 138.728L242.417 139.6C247.338 149.757 251.575 163.286 254.409 178.734L256.376 178.373ZM244.217 138.728C243.437 137.118 243.81 135.159 245.137 134.08L243.875 132.529C241.76 134.249 241.273 137.238 242.417 139.6L244.217 138.728ZM245.137 134.08C246.753 132.767 249.071 133.294 250.038 135.204L251.822 134.301C250.313 131.319 246.538 130.364 243.875 132.529L245.137 134.08ZM250.038 135.204C254.034 143.097 257.619 153.525 260.412 165.635L262.36 165.186C259.544 152.97 255.912 142.379 251.822 134.301L250.038 135.204ZM262.159 166.044C262.823 165.235 263.963 164.494 265.504 163.871C267.03 163.256 268.868 162.789 270.831 162.48C274.769 161.859 279.077 161.89 282.171 162.519L282.569 160.559C279.198 159.874 274.644 159.854 270.52 160.504C268.453 160.83 266.46 161.329 264.756 162.017C263.067 162.698 261.578 163.599 260.613 164.776L262.159 166.044ZM282.171 162.519C285.691 163.233 290.193 165.239 293.687 167.726C295.432 168.967 296.877 170.294 297.82 171.593C298.773 172.904 299.128 174.062 298.959 175.029L300.929 175.373C301.231 173.649 300.544 171.94 299.438 170.417C298.324 168.883 296.694 167.411 294.847 166.096C291.156 163.47 286.399 161.336 282.569 160.559L282.171 162.519ZM298.959 175.029C298.791 175.987 298.08 176.912 296.764 177.75C295.456 178.583 293.671 179.25 291.629 179.721C287.542 180.665 282.676 180.768 279.157 180.053L278.759 182.013C282.589 182.791 287.746 182.67 292.079 181.67C294.247 181.17 296.271 180.435 297.838 179.437C299.397 178.444 300.626 177.107 300.929 175.373L298.959 175.029ZM279.157 180.053C276.74 179.563 273.744 178.439 270.885 176.947C268.022 175.453 265.373 173.629 263.609 171.78L262.162 173.16C264.13 175.224 266.985 177.168 269.96 178.72C272.938 180.275 276.113 181.476 278.759 182.013L279.157 180.053ZM261.904 172.661C263.363 180.145 264.521 188.147 265.3 196.489L267.292 196.303C266.506 187.897 265.339 179.829 263.867 172.278L261.904 172.661ZM265.3 196.489C266.245 206.603 266.552 216.337 266.296 225.353L268.295 225.41C268.554 216.309 268.244 206.494 267.292 196.303L265.3 196.489ZM267.822 226.231C268.385 225.883 269.244 225.645 270.363 225.558C271.466 225.472 272.742 225.538 274.072 225.729C276.745 226.112 279.511 226.98 281.375 227.983L282.323 226.222C280.212 225.086 277.212 224.158 274.356 223.749C272.923 223.543 271.494 223.463 270.207 223.564C268.935 223.663 267.716 223.945 266.77 224.531L267.822 226.231ZM281.375 227.983C283.523 229.14 286.078 231.341 287.879 233.658C288.779 234.814 289.453 235.953 289.807 236.96C290.167 237.981 290.148 238.722 289.899 239.221L291.688 240.115C292.282 238.927 292.139 237.562 291.694 236.296C291.244 235.016 290.434 233.686 289.458 232.43C287.509 229.924 284.748 227.528 282.323 226.222L281.375 227.983ZM289.899 239.221C289.655 239.71 289.098 240.14 288.104 240.418C287.12 240.694 285.844 240.778 284.419 240.681C281.565 240.487 278.365 239.59 276.217 238.433L275.269 240.194C277.695 241.5 281.177 242.466 284.284 242.676C285.839 242.782 287.363 242.703 288.644 242.344C289.916 241.988 291.09 241.312 291.688 240.115L289.899 239.221ZM276.217 238.433C273.376 236.904 269.667 233.473 267.931 230.437L266.194 231.429C268.132 234.818 272.127 238.503 275.269 240.194L276.217 238.433ZM266.064 230.877C265.016 249.617 261.436 264.543 256.194 272.485L257.863 273.586C263.41 265.183 267.008 249.807 268.061 230.989L266.064 230.877ZM242.713 274.036H257.028V272.036H242.713V274.036Z" fill="black" mask="url(#path-34-inside-2_1230_17307)"/>
<path d="M209.626 99.1702C211.149 103.12 214.8 106.918 219.283 109.267C223.761 111.615 228.991 112.477 233.661 110.68C238.332 108.883 241.632 104.738 243.377 99.9958C245.124 95.2494 245.282 89.986 243.76 86.0358C242.25 82.1202 239.185 79.7454 235.299 78.791C231.398 77.8327 226.663 78.3091 221.89 80.1454C217.118 81.9817 213.287 84.8017 211.037 88.1271C208.796 91.4389 208.117 95.2547 209.626 99.1702Z" fill="#FAE3C3" stroke="black"/>
<path d="M240.603 84.435C238.615 88.1727 238.136 93.4166 239.297 98.339C240.457 103.257 243.232 107.769 247.651 110.116C252.07 112.464 257.366 112.238 262.096 110.448C266.829 108.656 270.912 105.327 272.901 101.589C274.872 97.8843 274.659 94.0146 272.835 90.4568C271.003 86.8843 267.54 83.6229 263.024 81.2246C258.509 78.8263 253.866 77.7826 249.877 78.2634C245.905 78.7424 242.575 80.7302 240.603 84.435Z" fill="#FAE3C3" stroke="black"/>
<path d="M195.836 128.316C200.097 130.258 205.82 130.613 211.015 129.312C216.21 128.01 220.78 125.077 222.849 120.546C224.919 116.014 224.141 110.644 221.72 105.87C219.299 101.098 215.279 97.0113 211.019 95.0693C206.787 93.1402 202.614 93.4617 198.965 95.403C195.303 97.3514 192.148 100.946 190.029 105.585C187.91 110.225 187.261 114.962 188.188 119.002C189.112 123.028 191.604 126.387 195.836 128.316Z" fill="#FAE3C3" stroke="black"/>
<path d="M219.996 122.453C221.519 126.404 225.17 130.201 229.653 132.55C234.131 134.898 239.361 135.76 244.031 133.963C248.702 132.166 252.002 128.021 253.747 123.279C255.494 118.533 255.653 113.269 254.13 109.319C252.62 105.403 249.555 103.029 245.669 102.074C241.768 101.116 237.033 101.592 232.261 103.429C227.488 105.265 223.657 108.085 221.407 111.41C219.166 114.722 218.487 118.538 219.996 122.453Z" fill="#AC590C" stroke="black"/>
<path d="M273.091 98.5496C268.881 98.0732 263.823 99.5535 259.666 102.439C255.513 105.322 252.331 109.558 251.768 114.526C251.204 119.494 253.358 124.333 256.761 128.071C260.167 131.812 264.765 134.385 268.976 134.861C273.149 135.334 276.674 133.715 279.316 130.713C281.97 127.699 283.735 123.284 284.311 118.208C284.886 113.131 284.154 108.433 282.242 104.903C280.338 101.387 277.265 99.0217 273.091 98.5496Z" fill="#FAE3C3" stroke="black"/>
<path d="M224.238 152.823C227.328 149.928 229.477 145.12 229.97 140.087C230.463 135.058 229.296 129.892 225.873 126.244C222.449 122.597 217.365 121.1 212.31 121.268C207.251 121.436 202.31 123.269 199.219 126.164C196.155 129.034 195.106 132.765 195.682 136.721C196.261 140.693 198.483 144.897 201.981 148.624C205.479 152.352 209.535 154.838 213.465 155.671C217.38 156.5 221.174 155.693 224.238 152.823Z" fill="#FAE3C3" stroke="black"/>
<path d="M253.866 149.955C254.275 145.742 252.712 140.713 249.756 136.607C246.804 132.505 242.514 129.394 237.532 128.912C232.551 128.43 227.743 130.659 224.057 134.119C220.367 137.582 217.867 142.217 217.459 146.431C217.054 150.607 218.73 154.101 221.777 156.693C224.836 159.295 229.284 160.987 234.374 161.48C239.464 161.973 244.154 161.165 247.656 159.198C251.144 157.239 253.461 154.131 253.866 149.955Z" fill="#FAE3C3" stroke="black"/>
<path d="M275.398 125.029C272.339 121.508 267.137 118.946 261.62 118.192C256.108 117.439 250.37 118.502 246.206 122.113C242.043 125.724 240.182 131.25 240.153 136.808C240.125 142.371 241.932 147.877 244.992 151.399C248.026 154.892 252.097 156.204 256.48 155.737C260.879 155.269 265.599 153.004 269.845 149.322C274.091 145.639 277 141.289 278.083 137.003C279.161 132.733 278.433 128.523 275.398 125.029Z" fill="#FAE3C3" stroke="black"/>
<path d="M135.839 174.155H140.884V177.038H135.839V174.155Z" fill="white"/>
<path d="M144.49 179.199C144.49 178.626 144.262 178.076 143.856 177.67C143.451 177.265 142.901 177.037 142.327 177.037H134.396C133.822 177.037 133.272 177.265 132.867 177.67C132.461 178.076 132.233 178.626 132.233 179.199H144.49Z" fill="white" stroke="#1D1D1D" stroke-linecap="round" stroke-linejoin="round"/>
<path d="M135.839 174.155H140.884V177.038H135.839V174.155Z" stroke="#1D1D1D" stroke-linecap="round" stroke-linejoin="round"/>
<path d="M153.858 171.995C153.858 172.568 153.63 173.118 153.225 173.524C152.819 173.929 152.269 174.157 151.696 174.157H125.027C124.453 174.157 123.903 173.929 123.498 173.524C123.092 173.118 122.864 172.568 122.864 171.995V170.553H153.858V171.995Z" fill="white" stroke="#1D1D1D" stroke-linecap="round" stroke-linejoin="round"/>
<path d="M138.359 171.572C138.204 171.572 138.052 171.618 137.923 171.704C137.795 171.79 137.694 171.912 137.635 172.056C137.575 172.199 137.56 172.356 137.59 172.508C137.621 172.661 137.695 172.8 137.805 172.91C137.915 173.019 138.054 173.094 138.207 173.124C138.359 173.154 138.516 173.139 138.659 173.079C138.803 173.02 138.925 172.919 139.011 172.79C139.097 172.661 139.143 172.51 139.143 172.355C139.143 172.147 139.06 171.948 138.913 171.801C138.766 171.654 138.567 171.572 138.359 171.572Z" fill="#1D1D1D"/>
<path d="M122.864 154.694C122.864 153.929 123.168 153.196 123.709 152.655C124.249 152.115 124.983 151.811 125.747 151.811H150.975C151.74 151.811 152.473 152.115 153.014 152.655C153.554 153.196 153.858 153.929 153.858 154.694V170.551H122.864V154.694Z" fill="#CBD5CA"/>
<path d="M122.864 154.694C122.864 153.929 123.168 153.196 123.709 152.655C124.249 152.115 124.983 151.811 125.747 151.811H150.975C151.74 151.811 152.473 152.115 153.014 152.655C153.554 153.196 153.858 153.929 153.858 154.694V170.551H122.864V154.694Z" stroke="#1D1D1D" stroke-linecap="round" stroke-linejoin="round"/>
<path d="M122.108 171.086C122.108 173.499 121.022 175.456 119.681 175.456C118.341 175.456 117.254 173.499 117.254 171.086C117.254 168.673 119.681 166.718 119.681 166.718C119.681 166.718 122.108 168.675 122.108 171.086Z" fill="#226752" stroke="#1D1D1D" stroke-linecap="round" stroke-linejoin="round"/>
<path d="M123.426 179.202H115.937L114.916 176.141C114.89 176.063 114.883 175.98 114.896 175.899C114.908 175.817 114.94 175.74 114.988 175.673C115.036 175.606 115.1 175.552 115.173 175.514C115.246 175.477 115.328 175.457 115.41 175.457H123.952C124.035 175.457 124.116 175.477 124.189 175.514C124.263 175.552 124.326 175.606 124.374 175.673C124.423 175.74 124.454 175.817 124.467 175.899C124.479 175.98 124.472 176.063 124.446 176.141L123.426 179.202Z" fill="white" stroke="#1D1D1D" stroke-linecap="round" stroke-linejoin="round"/>
<path d="M119.682 175.457L116.532 168.112C116.351 167.689 116.063 167.693 115.893 168.12L115.275 169.658C115.092 170.114 115.001 170.603 115.007 171.094C115.013 171.586 115.116 172.072 115.309 172.524C115.503 172.976 115.784 173.385 116.136 173.729C116.488 174.073 116.904 174.343 117.36 174.526L119.682 175.457Z" fill="#226752" stroke="#1D1D1D" stroke-linecap="round" stroke-linejoin="round"/>
<path d="M119.682 175.457L122.827 168.112C123.008 167.689 123.296 167.693 123.467 168.12L124.084 169.658C124.267 170.114 124.359 170.602 124.354 171.094C124.348 171.586 124.246 172.072 124.053 172.525C123.859 172.977 123.579 173.387 123.227 173.731C122.876 174.075 122.46 174.346 122.003 174.529L119.682 175.457Z" fill="#226752" stroke="#1D1D1D" stroke-linecap="round" stroke-linejoin="round"/>
<path d="M128.741 182.614H115.028V202.958H127.701C127.977 202.958 128.241 202.848 128.436 202.653C128.631 202.458 128.741 202.194 128.741 201.918V182.614Z" fill="white" stroke="#1D1D1D" stroke-linecap="round" stroke-linejoin="round"/>
<path d="M128.74 188.853H115.028" stroke="#1D1D1D" stroke-linecap="round" stroke-linejoin="round"/>
<path d="M121.142 185.733H122.628" stroke="#1D1D1D" stroke-linecap="round" stroke-linejoin="round"/>
<path d="M126.336 192.437V194.863" stroke="#1D1D1D" stroke-linecap="round" stroke-linejoin="round"/>
<path d="M162.375 202.955C163.099 202.955 163.793 202.668 164.305 202.156C164.817 201.644 165.104 200.95 165.104 200.226V181.932C165.104 181.208 164.817 180.514 164.305 180.002C163.793 179.49 163.099 179.203 162.375 179.203H114.347C113.989 179.203 113.634 179.273 113.303 179.41C112.971 179.548 112.67 179.749 112.417 180.002C112.163 180.255 111.962 180.556 111.825 180.888C111.688 181.219 111.617 181.574 111.617 181.932V200.874C111.617 201.147 111.671 201.418 111.775 201.67C111.88 201.923 112.033 202.152 112.226 202.346C112.419 202.539 112.649 202.692 112.901 202.797C113.154 202.901 113.424 202.955 113.698 202.955H115.029V183.976C115.029 183.614 115.173 183.267 115.429 183.011C115.685 182.755 116.032 182.611 116.394 182.611H160.328C160.689 182.611 161.037 182.755 161.293 183.011C161.548 183.267 161.692 183.614 161.692 183.976V202.273C161.692 202.362 161.71 202.451 161.744 202.534C161.779 202.616 161.829 202.692 161.892 202.755C161.956 202.818 162.031 202.869 162.114 202.903C162.197 202.937 162.285 202.955 162.375 202.954V202.955Z" fill="#226752" stroke="#1D1D1D" stroke-linecap="round" stroke-linejoin="round"/>
<path d="M157.715 190.559H143.043C142.767 190.559 142.503 190.449 142.308 190.254C142.113 190.059 142.003 189.794 142.003 189.518V184.693H158.755V189.518C158.755 189.794 158.645 190.059 158.45 190.254C158.255 190.449 157.99 190.559 157.715 190.559Z" fill="white" stroke="#1D1D1D" stroke-linecap="round" stroke-linejoin="round"/>
<path d="M142.003 184.694V182.614" stroke="#1D1D1D" stroke-linecap="round" stroke-linejoin="round"/>
<path d="M158.753 184.694V182.614" stroke="#1D1D1D" stroke-linecap="round" stroke-linejoin="round"/>
<path d="M149.193 187.626H151.56" stroke="#1D1D1D" stroke-linecap="round" stroke-linejoin="round"/>
<path d="M152.649 168.207L154.763 167.676L156.781 175.707L154.668 176.238L152.649 168.207Z" fill="#CBD5CA" stroke="#1D1D1D" stroke-linecap="round" stroke-linejoin="round"/>
<path d="M154.762 167.674L152.65 168.205L152.335 166.954C152.306 166.84 152.3 166.723 152.317 166.607C152.334 166.492 152.374 166.381 152.433 166.281C152.493 166.18 152.572 166.093 152.666 166.023C152.76 165.954 152.866 165.903 152.979 165.875L153.369 165.777C153.482 165.748 153.6 165.742 153.715 165.759C153.831 165.776 153.942 165.816 154.042 165.876C154.142 165.936 154.23 166.015 154.299 166.109C154.369 166.203 154.419 166.309 154.448 166.423L154.762 167.674Z" fill="white" stroke="#1D1D1D" stroke-linecap="round" stroke-linejoin="round"/>
<path d="M156.018 174.522L157.768 168.631L160.553 169.459L158.803 175.349L156.018 174.522Z" fill="#CBD5CA" stroke="#1D1D1D" stroke-linecap="round" stroke-linejoin="round"/>
<path d="M160.554 169.46L157.771 168.632L157.981 167.923C158.089 167.563 158.335 167.261 158.666 167.082C158.997 166.904 159.386 166.864 159.746 166.971L159.811 166.99C160.171 167.098 160.473 167.345 160.652 167.675C160.83 168.005 160.87 168.393 160.764 168.753L160.554 169.46Z" fill="white" stroke="#1D1D1D" stroke-linecap="round" stroke-linejoin="round"/>
<path d="M160.344 177.119C160.344 177.393 160.29 177.663 160.186 177.916C160.081 178.168 159.928 178.397 159.735 178.59C159.542 178.784 159.312 178.937 159.06 179.041C158.808 179.146 158.537 179.2 158.264 179.2H154.96C154.409 179.2 153.88 178.98 153.489 178.59C153.099 178.2 152.88 177.671 152.88 177.119V173.091C152.88 172.869 152.969 172.657 153.125 172.5C153.282 172.344 153.494 172.255 153.716 172.255H159.508C159.729 172.255 159.941 172.344 160.098 172.5C160.255 172.657 160.343 172.869 160.343 173.091L160.344 177.119Z" fill="white"/>
<path d="M160.344 177.119C160.344 177.393 160.29 177.663 160.186 177.916C160.081 178.168 159.928 178.397 159.735 178.59C159.542 178.784 159.312 178.937 159.06 179.041C158.808 179.146 158.537 179.2 158.264 179.2H154.96C154.409 179.2 153.88 178.98 153.489 178.59C153.099 178.2 152.88 177.671 152.88 177.119V173.091C152.88 172.869 152.969 172.657 153.125 172.5C153.282 172.344 153.494 172.255 153.716 172.255H159.508C159.729 172.255 159.941 172.344 160.098 172.5C160.255 172.657 160.343 172.869 160.343 173.091L160.344 177.119Z" fill="#E1E1DD" stroke="#1D1D1D" stroke-linecap="round" stroke-linejoin="round"/>
<path d="M155.368 172.255H157.856V179.199H155.368V172.255Z" stroke="#1D1D1D" stroke-linecap="round" stroke-linejoin="round"/>
<path d="M84.1145 259.976L84.1109 259.977C82.5589 260.229 81.1306 260.631 79.9209 261.162V246.796C79.9209 242.368 83.7444 237.954 90.9368 234.628C98.0943 231.318 107.837 229.445 118.022 229.445C128.207 229.445 137.95 231.318 145.108 234.628C152.3 237.954 156.124 242.368 156.124 246.796V261.162C154.916 260.631 153.49 260.229 151.941 259.977L151.937 259.977C141.009 258.286 129.544 257.461 118.026 257.535C106.507 257.461 95.0426 258.286 84.1145 259.976Z" fill="white" stroke="black"/>
<path d="M85.2764 267.812H91.6656L91.1331 272.071H85.8088L85.2764 267.812Z" fill="#226752" stroke="#1D1D1D" stroke-linecap="round" stroke-linejoin="round"/>
<path d="M144.909 267.812H151.298L150.766 272.071H145.442L144.909 267.812Z" fill="#226752" stroke="#1D1D1D" stroke-linecap="round" stroke-linejoin="round"/>
<path d="M98.1811 246.499C98.1811 246.948 98.0481 247.386 97.7989 247.759C97.5497 248.132 97.1955 248.423 96.7811 248.594C96.3668 248.766 95.9108 248.811 95.4709 248.723C95.031 248.636 94.6269 248.42 94.3097 248.103C93.9926 247.785 93.7766 247.381 93.6891 246.941C93.6016 246.502 93.6465 246.046 93.8181 245.631C93.9898 245.217 94.2804 244.863 94.6534 244.613C95.0263 244.364 95.4648 244.231 95.9133 244.231C96.5148 244.231 97.0916 244.47 97.5169 244.895C97.9422 245.321 98.1811 245.898 98.1811 246.499Z" fill="#226752" stroke="#1D1D1D" stroke-linecap="round" stroke-linejoin="round"/>
<path d="M97.5117 244.896L99.083 243.324" stroke="#1D1D1D" stroke-linecap="round" stroke-linejoin="round"/>
<path d="M92.7334 243.324L94.3047 244.896" stroke="#1D1D1D" stroke-linecap="round" stroke-linejoin="round"/>
<path d="M92.7334 249.67L94.3047 248.099" stroke="#1D1D1D" stroke-linecap="round" stroke-linejoin="round"/>
<path d="M97.5117 248.099L99.083 249.67" stroke="#1D1D1D" stroke-linecap="round" stroke-linejoin="round"/>
<path d="M141.879 246.499C141.879 246.948 141.746 247.386 141.497 247.759C141.248 248.132 140.894 248.423 140.479 248.594C140.065 248.766 139.609 248.811 139.169 248.723C138.729 248.636 138.325 248.42 138.008 248.103C137.691 247.785 137.475 247.381 137.387 246.941C137.3 246.502 137.345 246.046 137.516 245.631C137.688 245.217 137.979 244.863 138.352 244.613C138.725 244.364 139.163 244.231 139.612 244.231C140.213 244.231 140.79 244.47 141.215 244.895C141.64 245.321 141.879 245.898 141.879 246.499Z" fill="#226752" stroke="#1D1D1D" stroke-linecap="round" stroke-linejoin="round"/>
<path d="M141.21 244.896L142.781 243.324" stroke="#1D1D1D" stroke-linecap="round" stroke-linejoin="round"/>
<path d="M136.432 243.324L138.003 244.896" stroke="#1D1D1D" stroke-linecap="round" stroke-linejoin="round"/>
<path d="M136.432 249.67L138.003 248.099" stroke="#1D1D1D" stroke-linecap="round" stroke-linejoin="round"/>
<path d="M141.21 248.099L142.781 249.67" stroke="#1D1D1D" stroke-linecap="round" stroke-linejoin="round"/>
<path d="M120.543 242.766C120.543 243.214 120.41 243.653 120.161 244.026C119.912 244.399 119.558 244.689 119.143 244.861C118.729 245.033 118.273 245.078 117.833 244.99C117.393 244.903 116.989 244.687 116.672 244.369C116.355 244.052 116.139 243.648 116.051 243.208C115.964 242.768 116.009 242.312 116.18 241.898C116.352 241.484 116.643 241.129 117.016 240.88C117.389 240.631 117.827 240.498 118.276 240.498C118.877 240.498 119.454 240.737 119.879 241.162C120.304 241.588 120.543 242.164 120.543 242.766Z" fill="#226752" stroke="#1D1D1D" stroke-linecap="round" stroke-linejoin="round"/>
<path d="M119.874 241.163L121.445 239.591" stroke="#1D1D1D" stroke-linecap="round" stroke-linejoin="round"/>
<path d="M115.096 239.591L116.667 241.163" stroke="#1D1D1D" stroke-linecap="round" stroke-linejoin="round"/>
<path d="M115.096 245.937L116.667 244.366" stroke="#1D1D1D" stroke-linecap="round" stroke-linejoin="round"/>
<path d="M119.874 244.366L121.445 245.937" stroke="#1D1D1D" stroke-linecap="round" stroke-linejoin="round"/>
<path d="M74.7385 259.184C73.2846 257.73 72.4678 255.759 72.4678 253.702C72.4678 251.646 73.2846 249.674 74.7385 248.22C76.1924 246.767 78.1643 245.95 80.2205 245.95C82.2766 245.95 84.2485 246.767 85.7025 248.22C87.1564 249.674 87.9732 251.646 87.9732 253.702C87.9732 255.759 87.1564 257.73 85.7025 259.184C84.2485 260.638 82.2766 261.455 80.2205 261.455C78.1643 261.455 76.1924 260.638 74.7385 259.184Z" fill="white" stroke="black"/>
<path d="M149.811 259.184C148.357 257.73 147.54 255.759 147.54 253.702C147.54 251.646 148.357 249.674 149.811 248.22C151.265 246.767 153.237 245.95 155.293 245.95C157.349 245.95 159.321 246.767 160.775 248.22C162.229 249.674 163.045 251.646 163.045 253.702C163.045 255.759 162.229 257.73 160.775 259.184C159.321 260.638 157.349 261.455 155.293 261.455C153.237 261.455 151.265 260.638 149.811 259.184Z" fill="white" stroke="black"/>
<path d="M156.624 261.05C156.627 259.929 155.946 258.834 154.675 257.918C153.403 257.003 151.604 256.31 149.525 255.938C139.375 254.21 128.725 253.366 118.023 253.442C107.321 253.366 96.6698 254.21 86.5191 255.938C84.4408 256.31 82.6413 257.003 81.3697 257.918C80.098 258.834 79.4171 259.929 79.4209 261.05V264.281C79.4209 264.815 79.6275 265.344 80.0289 265.837C80.4303 266.33 81.0187 266.778 81.7604 267.156C82.5021 267.533 83.3826 267.832 84.3516 268.036C85.3206 268.241 86.3592 268.346 87.408 268.346H148.635C149.684 268.346 150.722 268.241 151.691 268.036C152.66 267.832 153.541 267.533 154.282 267.156C155.024 266.778 155.613 266.33 156.014 265.837C156.415 265.344 156.622 264.815 156.622 264.281L156.624 261.05Z" fill="white" stroke="#1D1D1D" stroke-linecap="round" stroke-linejoin="round"/>
<path d="M185.229 262.327H161.473C160.188 262.327 158.955 261.817 158.046 260.908C157.137 259.999 156.626 258.766 156.626 257.48C156.626 256.195 157.137 254.962 158.046 254.053C158.955 253.144 160.188 252.633 161.473 252.633H185.229V262.327Z" fill="#CBD5CA"/>
<path d="M185.229 262.327H161.473C160.188 262.327 158.955 261.817 158.046 260.908C157.137 259.999 156.626 258.766 156.626 257.48C156.626 256.195 157.137 254.962 158.046 254.053C158.955 253.144 160.188 252.633 161.473 252.633H185.229V262.327Z" stroke="#1D1D1D" stroke-linecap="round" stroke-linejoin="round"/>
<path d="M168.302 262.331H165.118C163.832 262.331 162.599 261.82 161.69 260.911C160.781 260.002 160.271 258.769 160.271 257.484C160.271 256.198 160.781 254.965 161.69 254.056C162.599 253.147 163.832 252.637 165.118 252.637H168.302C167.016 252.637 165.784 253.147 164.875 254.056C163.965 254.965 163.455 256.198 163.455 257.484C163.455 258.769 163.965 260.002 164.875 260.911C165.784 261.82 167.016 262.331 168.302 262.331Z" fill="#226752" stroke="#1D1D1D" stroke-linecap="round" stroke-linejoin="round"/>
<path d="M179.459 254.632C178.745 254.632 178.06 254.915 177.555 255.42C177.05 255.925 176.767 256.61 176.767 257.324C176.767 258.037 177.05 258.722 177.555 259.227C178.06 259.732 178.745 260.015 179.459 260.015H203.214C203.5 260.015 203.774 260.129 203.976 260.331C204.178 260.533 204.291 260.807 204.291 261.092C204.291 261.378 204.178 261.652 203.976 261.854C203.774 262.056 203.5 262.169 203.214 262.169H179.459C178.173 262.169 176.94 261.658 176.031 260.749C175.122 259.84 174.611 258.607 174.611 257.322C174.611 256.036 175.122 254.803 176.031 253.894C176.94 252.985 178.173 252.475 179.459 252.475H203.214C203.5 252.475 203.774 252.588 203.976 252.79C204.178 252.992 204.291 253.266 204.291 253.551C204.291 253.837 204.178 254.111 203.976 254.313C203.774 254.515 203.5 254.628 203.214 254.628L179.459 254.632Z" fill="white"/>
<path d="M179.459 254.632C178.745 254.632 178.06 254.915 177.555 255.42C177.05 255.925 176.767 256.61 176.767 257.324C176.767 258.037 177.05 258.722 177.555 259.227C178.06 259.732 178.745 260.015 179.459 260.015H203.214C203.5 260.015 203.774 260.129 203.976 260.331C204.178 260.533 204.291 260.807 204.291 261.092C204.291 261.378 204.178 261.652 203.976 261.854C203.774 262.056 203.5 262.169 203.214 262.169H179.459C178.173 262.169 176.94 261.658 176.031 260.749C175.122 259.84 174.611 258.607 174.611 257.322C174.611 256.036 175.122 254.803 176.031 253.894C176.94 252.985 178.173 252.475 179.459 252.475H203.214C203.5 252.475 203.774 252.588 203.976 252.79C204.178 252.992 204.291 253.266 204.291 253.551C204.291 253.837 204.178 254.111 203.976 254.313C203.774 254.515 203.5 254.628 203.214 254.628L179.459 254.632Z" stroke="#1D1D1D" stroke-linecap="round" stroke-linejoin="round"/>
<path d="M203.215 260.02V254.634H179.459C178.745 254.634 178.061 254.917 177.556 255.422C177.051 255.927 176.768 256.611 176.768 257.325C176.768 258.039 177.051 258.724 177.556 259.229C178.061 259.733 178.745 260.017 179.459 260.017L203.215 260.02Z" fill="#E1E1DD" stroke="#1D1D1D" stroke-linecap="round" stroke-linejoin="round"/>
<path d="M192.664 271.884H168.909C167.623 271.884 166.39 271.373 165.481 270.464C164.572 269.555 164.062 268.322 164.062 267.037C164.062 265.751 164.572 264.518 165.481 263.609C166.39 262.7 167.623 262.189 168.909 262.189H192.664V271.884Z" fill="#226752"/>
<path d="M192.664 271.884H168.909C167.623 271.884 166.39 271.373 165.481 270.464C164.572 269.555 164.062 268.322 164.062 267.037C164.062 265.751 164.572 264.518 165.481 263.609C166.39 262.7 167.623 262.189 168.909 262.189H192.664V271.884Z" stroke="#1D1D1D" stroke-linecap="round" stroke-linejoin="round"/>
<path d="M175.735 271.884H172.549C171.264 271.884 170.031 271.373 169.122 270.464C168.213 269.555 167.702 268.322 167.702 267.037C167.702 265.751 168.213 264.518 169.122 263.609C170.031 262.7 171.264 262.189 172.549 262.189H175.735C174.449 262.189 173.216 262.7 172.307 263.609C171.398 264.518 170.887 265.751 170.887 267.037C170.887 268.322 171.398 269.555 172.307 270.464C173.216 271.373 174.449 271.884 175.735 271.884Z" fill="white" stroke="#1D1D1D" stroke-linecap="round" stroke-linejoin="round"/>
<path d="M185.826 264.321C185.112 264.321 184.427 264.605 183.922 265.11C183.418 265.614 183.134 266.299 183.134 267.013C183.134 267.727 183.418 268.412 183.922 268.916C184.427 269.421 185.112 269.705 185.826 269.705H209.581C209.867 269.705 210.141 269.818 210.343 270.02C210.545 270.222 210.658 270.496 210.658 270.782C210.658 271.067 210.545 271.341 210.343 271.543C210.141 271.745 209.867 271.858 209.581 271.858H185.826C184.54 271.858 183.307 271.348 182.398 270.439C181.489 269.53 180.979 268.297 180.979 267.011C180.979 265.726 181.489 264.493 182.398 263.584C183.307 262.675 184.54 262.164 185.826 262.164H209.581C209.867 262.164 210.141 262.278 210.343 262.479C210.545 262.681 210.658 262.955 210.658 263.241C210.658 263.527 210.545 263.8 210.343 264.002C210.141 264.204 209.867 264.318 209.581 264.318L185.826 264.321Z" fill="#226752"/>
<path d="M185.826 264.321C185.112 264.321 184.427 264.605 183.922 265.11C183.418 265.614 183.134 266.299 183.134 267.013C183.134 267.727 183.418 268.412 183.922 268.916C184.427 269.421 185.112 269.705 185.826 269.705H209.581C209.867 269.705 210.141 269.818 210.343 270.02C210.545 270.222 210.658 270.496 210.658 270.782C210.658 271.067 210.545 271.341 210.343 271.543C210.141 271.745 209.867 271.858 209.581 271.858H185.826C184.54 271.858 183.307 271.348 182.398 270.439C181.489 269.53 180.979 268.297 180.979 267.011C180.979 265.726 181.489 264.493 182.398 263.584C183.307 262.675 184.54 262.164 185.826 262.164H209.581C209.867 262.164 210.141 262.278 210.343 262.479C210.545 262.681 210.658 262.955 210.658 263.241C210.658 263.527 210.545 263.8 210.343 264.002C210.141 264.204 209.867 264.318 209.581 264.318L185.826 264.321Z" stroke="#1D1D1D" stroke-linecap="round" stroke-linejoin="round"/>
<path d="M209.586 269.706V264.323H185.83C185.117 264.323 184.432 264.607 183.927 265.111C183.422 265.616 183.139 266.301 183.139 267.015C183.139 267.729 183.422 268.413 183.927 268.918C184.432 269.423 185.117 269.706 185.83 269.706H209.586Z" fill="white" stroke="#1D1D1D" stroke-linecap="round" stroke-linejoin="round"/>
<path d="M188.352 252.48H164.596C163.311 252.48 162.078 251.969 161.169 251.06C160.26 250.151 159.749 248.918 159.749 247.632C159.749 246.347 160.26 245.114 161.169 244.205C162.078 243.296 163.311 242.785 164.596 242.785H188.352V252.48Z" fill="#226752"/>
<path d="M188.352 252.48H164.596C163.311 252.48 162.078 251.969 161.169 251.06C160.26 250.151 159.749 248.918 159.749 247.632C159.749 246.347 160.26 245.114 161.169 244.205C162.078 243.296 163.311 242.785 164.596 242.785H188.352V252.48Z" stroke="#1D1D1D" stroke-linecap="round" stroke-linejoin="round"/>
<path d="M181.818 244.942C181.104 244.942 180.419 245.226 179.915 245.731C179.41 246.236 179.126 246.92 179.126 247.634C179.126 248.348 179.41 249.033 179.915 249.537C180.419 250.042 181.104 250.326 181.818 250.326H205.573C205.859 250.326 206.133 250.439 206.335 250.641C206.537 250.843 206.65 251.117 206.65 251.403C206.65 251.688 206.537 251.962 206.335 252.164C206.133 252.366 205.859 252.48 205.573 252.48H181.818C180.532 252.48 179.299 251.969 178.39 251.06C177.481 250.151 176.971 248.918 176.971 247.632C176.971 246.347 177.481 245.114 178.39 244.205C179.299 243.296 180.532 242.785 181.818 242.785H205.573C205.859 242.785 206.133 242.899 206.335 243.101C206.537 243.303 206.65 243.576 206.65 243.862C206.65 244.148 206.537 244.422 206.335 244.623C206.133 244.825 205.859 244.939 205.573 244.939L181.818 244.942Z" fill="#226752"/>
<path d="M181.818 244.942C181.104 244.942 180.419 245.226 179.915 245.731C179.41 246.236 179.126 246.92 179.126 247.634C179.126 248.348 179.41 249.033 179.915 249.537C180.419 250.042 181.104 250.326 181.818 250.326H205.573C205.859 250.326 206.133 250.439 206.335 250.641C206.537 250.843 206.65 251.117 206.65 251.403C206.65 251.688 206.537 251.962 206.335 252.164C206.133 252.366 205.859 252.48 205.573 252.48H181.818C180.532 252.48 179.299 251.969 178.39 251.06C177.481 250.151 176.971 248.918 176.971 247.632C176.971 246.347 177.481 245.114 178.39 244.205C179.299 243.296 180.532 242.785 181.818 242.785H205.573C205.859 242.785 206.133 242.899 206.335 243.101C206.537 243.303 206.65 243.576 206.65 243.862C206.65 244.148 206.537 244.422 206.335 244.623C206.133 244.825 205.859 244.939 205.573 244.939L181.818 244.942Z" stroke="#1D1D1D" stroke-linecap="round" stroke-linejoin="round"/>
<path d="M205.574 250.324V244.94H181.819C181.105 244.94 180.42 245.224 179.915 245.729C179.411 246.234 179.127 246.918 179.127 247.632C179.127 248.346 179.411 249.031 179.915 249.535C180.42 250.04 181.105 250.324 181.819 250.324H205.574Z" fill="white" stroke="#1D1D1D" stroke-linecap="round" stroke-linejoin="round"/>
<path d="M171.428 252.48H168.243C166.957 252.48 165.724 251.969 164.815 251.06C163.906 250.151 163.396 248.918 163.396 247.632C163.396 246.347 163.906 245.114 164.815 244.205C165.724 243.296 166.957 242.785 168.243 242.785H171.428C170.142 242.785 168.909 243.296 168 244.205C167.091 245.114 166.581 246.347 166.581 247.632C166.581 248.918 167.091 250.151 168 251.06C168.909 251.969 170.142 252.48 171.428 252.48Z" fill="white" stroke="#1D1D1D" stroke-linecap="round" stroke-linejoin="round"/>
<path d="M83.6916 216.376C82.819 215.977 81.8758 215.76 80.9186 215.74C79.9614 215.719 79.01 215.895 78.1215 216.256C77.6702 213.339 76.205 210.681 73.9898 208.762C71.7747 206.843 68.9554 205.788 66.0402 205.788C63.1249 205.788 60.3056 206.843 58.0905 208.762C55.8753 210.681 54.41 213.339 53.9588 216.256C53.0732 215.896 52.125 215.72 51.1708 215.739C50.2166 215.758 49.2759 215.971 48.405 216.366C46.843 217.038 45.5589 218.237 44.7706 219.759C43.9823 221.281 43.7385 223.032 44.0805 224.716C44.4225 226.399 45.3292 227.911 46.6468 228.994C47.9643 230.077 49.6114 230.665 51.3084 230.658H80.7696C82.464 230.663 84.1084 230.076 85.4243 228.995C86.7401 227.914 87.6466 226.405 87.9901 224.725C88.3337 223.044 88.0932 221.295 87.3094 219.774C86.5256 218.252 85.2467 217.052 83.6893 216.376H83.6916Z" fill="white" stroke="#1D1D1D" stroke-linejoin="round"/>
<path d="M100.447 76.8315H131.867V127.399C131.867 130.721 129.172 133.415 125.847 133.415H104.27C104.268 133.457 104.265 133.499 104.264 133.541C103.763 144.207 102.762 157.706 97.4248 161.206H66.958C71.97 157.334 74.265 147.506 74.7159 133.811C75.0221 124.511 77.2036 119.701 80.6444 118.376H100.447V76.8315Z" fill="white"/>
<path d="M79.5713 128.627L80.0003 125.46H83.1611L82.7321 128.627H79.5713Z" fill="#F0E7D5" stroke="black"/>
<path d="M85.5566 127.022H98.7267" stroke="black" stroke-linecap="round"/>
<path d="M84.9912 137.737H98.1612" stroke="black" stroke-linecap="round"/>
<path d="M83.4854 148.639H96.6554" stroke="black" stroke-linecap="round"/>
<path d="M80.85 126.343L81.6409 127.516L84.1839 125.803" stroke="#226752" stroke-linecap="round"/>
<path d="M78.8194 139.342L79.2483 136.175H82.4091L81.9802 139.342H78.8194Z" fill="#F0E7D5" stroke="black"/>
<path d="M80.098 137.058L80.8889 138.231L83.4319 136.518" stroke="#226752" stroke-linecap="round"/>
<path d="M77.502 150.057L77.9309 146.89H81.0917L80.6628 150.057H77.502Z" fill="#F0E7D5" stroke="black"/>
<path d="M78.7796 147.773L79.5706 148.945L82.1136 147.233" stroke="#226752" stroke-linecap="round"/>
<path d="M131.926 76.9978V126.494C131.954 128.828 130.758 133.494 125.754 133.494C119.5 133.494 118.322 127.902 118.165 126.494C117.998 124.994 116.33 118.328 111.91 118.328C106.99 118.328 104.821 122.828 104.321 133.494C103.821 144.16 102.82 157.659 97.4824 161.159" stroke="black"/>
<rect x="106.808" y="83.166" width="3.16991" height="3.16638" fill="#F0E7D5" stroke="black"/>
<path d="M112.863 84.7278H126.033" stroke="black" stroke-linecap="round"/>
<rect x="106.808" y="93.9998" width="3.16991" height="3.16638" fill="#F0E7D5" stroke="black"/>
<path d="M112.863 95.4429H126.033" stroke="black" stroke-linecap="round"/>
<rect x="106.808" y="104.83" width="3.16991" height="3.16638" fill="#F0E7D5" stroke="black"/>
<path d="M112.863 106.345H126.033" stroke="black" stroke-linecap="round"/>
<path d="M107.391 84.1673L108.391 85.1672L110.56 83.0007" stroke="#226752" stroke-linecap="round"/>
<path d="M107.391 94.9974L108.391 95.9973L110.56 93.8308" stroke="#226752" stroke-linecap="round"/>
<path d="M107.391 105.831L108.391 106.831L110.56 104.665" stroke="#226752" stroke-linecap="round"/>
<path d="M100.4 76.8311V118.373" stroke="black"/>
<path d="M104.323 133.41C104.831 122.804 107.001 118.328 111.909 118.328C116.329 118.328 117.997 124.994 118.163 126.494C118.309 127.8 119.333 132.71 124.479 133.41H104.323Z" fill="#CBD5CA" stroke="black"/>
<path d="M111.576 118.328H80.71" stroke="black"/>
<path fill-rule="evenodd" clip-rule="evenodd" d="M247.073 24.5672C248.223 24.5905 249.357 24.836 250.405 25.2888H250.403C252.274 26.0559 253.811 27.4179 254.753 29.1443C255.695 30.8706 255.984 32.8553 255.571 34.762C255.47 35.2292 255.328 35.6847 255.149 36.1242C256.114 35.8554 257.124 35.7273 258.139 35.7463C259.388 35.7697 260.618 36.0152 261.756 36.468H261.753C263.785 37.235 265.453 38.5971 266.476 40.3234C267.498 42.0498 267.812 44.0344 267.364 45.9412C266.915 47.848 265.733 49.5597 264.017 50.7865C262.3 52.0133 260.155 52.6798 257.945 52.6731H240.756H240.687H219.513H219.433H200.439C198.121 52.6813 195.871 52.0142 194.071 50.7852C192.271 49.5563 191.033 47.8411 190.565 45.931C190.098 44.0209 190.431 42.0337 191.508 40.3068C192.585 38.5798 194.339 37.2197 196.473 36.4573C197.663 36.0089 198.948 35.7668 200.251 35.7452C201.254 35.7286 202.252 35.8429 203.21 36.0826C203.037 35.6528 202.9 35.2079 202.802 34.7518C202.391 32.8417 202.684 30.8545 203.632 29.1276C204.579 27.4007 206.122 26.0405 207.999 25.2782C209.046 24.8298 210.176 24.5876 211.323 24.5661C212.47 24.5445 213.609 24.7441 214.674 25.1528C215.216 21.8431 216.977 18.8276 219.639 16.6497C222.301 14.4719 225.689 13.2751 229.193 13.2751C232.696 13.2751 236.084 14.4719 238.746 16.6497C241.408 18.8276 243.169 21.8431 243.712 25.1528C244.779 24.743 245.923 24.5438 247.073 24.5672Z" fill="white"/>
<path d="M250.405 25.2888V25.7888C250.643 25.7888 250.847 25.6223 250.895 25.39C250.943 25.1578 250.821 24.9238 250.604 24.8298L250.405 25.2888ZM250.403 25.2888V24.7888C250.164 24.7888 249.958 24.9578 249.912 25.1922C249.866 25.4266 249.992 25.6609 250.213 25.7515L250.403 25.2888ZM254.753 29.1443L255.192 28.9048V28.9048L254.753 29.1443ZM255.571 34.762L256.06 34.8678V34.8678L255.571 34.762ZM255.149 36.1242L254.686 35.935C254.614 36.1117 254.648 36.314 254.775 36.4566C254.902 36.5992 255.099 36.6571 255.283 36.6059L255.149 36.1242ZM258.139 35.7463L258.13 36.2462L258.139 35.7463ZM261.756 36.468V36.968C261.996 36.968 262.202 36.7977 262.247 36.5621C262.293 36.3265 262.164 36.0921 261.941 36.0034L261.756 36.468ZM261.753 36.468V35.968C261.512 35.968 261.305 36.1406 261.261 36.3782C261.218 36.6158 261.351 36.8505 261.577 36.9358L261.753 36.468ZM266.476 40.3234L266.045 40.5782V40.5782L266.476 40.3234ZM267.364 45.9412L267.85 46.0556L267.364 45.9412ZM257.945 52.6731L257.946 52.1731H257.945V52.6731ZM200.439 52.6731V52.1731L200.438 52.1731L200.439 52.6731ZM194.071 50.7852L194.353 50.3723L194.071 50.7852ZM190.565 45.931L190.08 46.0498L190.565 45.931ZM191.508 40.3068L191.932 40.5713H191.932L191.508 40.3068ZM196.473 36.4573L196.641 36.9282L196.649 36.9252L196.473 36.4573ZM200.251 35.7452L200.26 36.2451L200.251 35.7452ZM203.21 36.0826L203.089 36.5677C203.271 36.6133 203.464 36.5528 203.587 36.4111C203.711 36.2694 203.744 36.0703 203.674 35.896L203.21 36.0826ZM202.802 34.7518L202.313 34.857L202.802 34.7518ZM203.632 29.1276L204.07 29.3681L203.632 29.1276ZM207.999 25.2782L208.187 25.7415L208.196 25.7378L207.999 25.2782ZM211.323 24.5661L211.314 24.0661L211.323 24.5661ZM214.674 25.1528L214.494 25.6196C214.635 25.6735 214.792 25.6613 214.923 25.5865C215.053 25.5117 215.143 25.3821 215.167 25.2336L214.674 25.1528ZM219.639 16.6497L219.322 16.2627V16.2627L219.639 16.6497ZM238.746 16.6497L239.063 16.2627L238.746 16.6497ZM243.712 25.1528L243.218 25.2336C243.242 25.382 243.332 25.5116 243.463 25.5865C243.593 25.6613 243.75 25.6735 243.891 25.6196L243.712 25.1528ZM250.604 24.8298C249.495 24.3511 248.298 24.0919 247.083 24.0673L247.063 25.0671C248.149 25.0891 249.219 25.3209 250.207 25.7479L250.604 24.8298ZM250.403 25.7888H250.405V24.7888H250.403V25.7888ZM255.192 28.9048C254.194 27.0745 252.567 25.6354 250.592 24.8262L250.213 25.7515C251.982 26.4763 253.429 27.7613 254.314 29.3837L255.192 28.9048ZM256.06 34.8678C256.498 32.8427 256.191 30.7356 255.192 28.9048L254.314 29.3837C255.199 31.0057 255.47 32.8678 255.083 34.6562L256.06 34.8678ZM255.611 36.3134C255.802 35.8472 255.953 35.3638 256.06 34.8678L255.083 34.6562C254.988 35.0946 254.855 35.5222 254.686 35.935L255.611 36.3134ZM258.148 35.2464C257.085 35.2265 256.027 35.3606 255.015 35.6425L255.283 36.6059C256.201 36.3502 257.163 36.2281 258.13 36.2462L258.148 35.2464ZM261.941 36.0034C260.746 35.5279 259.456 35.2709 258.148 35.2464L258.13 36.2462C259.319 36.2685 260.49 36.5024 261.571 36.9326L261.941 36.0034ZM261.753 36.968H261.756V35.968H261.753V36.968ZM266.906 40.0686C265.821 38.2363 264.058 36.8038 261.93 36.0002L261.577 36.9358C263.511 37.6662 265.086 38.9579 266.045 40.5782L266.906 40.0686ZM267.85 46.0556C268.329 44.0197 267.992 41.9031 266.906 40.0686L266.045 40.5782C267.004 42.1965 267.295 44.0491 266.877 45.8268L267.85 46.0556ZM264.307 51.1933C266.114 49.9019 267.372 48.0899 267.85 46.0556L266.877 45.8268C266.459 47.6061 265.352 49.2175 263.726 50.3797L264.307 51.1933ZM257.943 53.1731C260.253 53.1801 262.501 52.484 264.307 51.1933L263.726 50.3797C262.099 51.5426 260.057 52.1795 257.946 52.1731L257.943 53.1731ZM240.756 53.1731H257.945V52.1731H240.756V53.1731ZM240.687 53.1731H240.756V52.1731H240.687V53.1731ZM219.513 53.1731H240.687V52.1731H219.513V53.1731ZM219.433 53.1731H219.513V52.1731H219.433V53.1731ZM200.439 53.1731H219.433V52.1731H200.439V53.1731ZM193.789 51.1982C195.678 52.4879 198.029 53.1816 200.441 53.1731L200.438 52.1731C198.214 52.181 196.064 51.5405 194.353 50.3723L193.789 51.1982ZM190.08 46.0498C190.579 48.093 191.899 49.9077 193.789 51.1982L194.353 50.3723C192.643 49.2048 191.486 47.5892 191.051 45.8122L190.08 46.0498ZM191.084 40.0422C189.939 41.8789 189.579 44.0038 190.08 46.0498L191.051 45.8122C190.617 44.038 190.924 42.1884 191.932 40.5713L191.084 40.0422ZM196.305 35.9865C194.078 36.7822 192.227 38.2087 191.084 40.0422L191.932 40.5713C192.943 38.951 194.601 37.6572 196.641 36.9282L196.305 35.9865ZM200.243 35.2453C198.884 35.2677 197.542 35.5203 196.297 35.9894L196.649 36.9252C197.784 36.4976 199.012 36.2658 200.26 36.2451L200.243 35.2453ZM203.332 35.5976C202.331 35.3472 201.289 35.228 200.243 35.2453L200.26 36.2451C201.219 36.2293 202.174 36.3387 203.089 36.5677L203.332 35.5976ZM202.313 34.857C202.418 35.3411 202.563 35.8133 202.746 36.2693L203.674 35.896C203.512 35.4923 203.383 35.0746 203.291 34.6467L202.313 34.857ZM203.193 28.8871C202.189 30.7185 201.877 32.8283 202.313 34.857L203.291 34.6467C202.906 32.8552 203.18 30.9905 204.07 29.3681L203.193 28.8871ZM207.811 24.8149C205.831 25.6192 204.198 27.0563 203.193 28.8871L204.07 29.3681C204.96 27.7451 206.414 26.4619 208.187 25.7414L207.811 24.8149ZM211.314 24.0661C210.103 24.0889 208.909 24.3446 207.802 24.8186L208.196 25.7378C209.183 25.315 210.25 25.0863 211.333 25.066L211.314 24.0661ZM214.853 24.686C213.728 24.2541 212.525 24.0434 211.314 24.0661L211.333 25.066C212.415 25.0456 213.491 25.2341 214.494 25.6196L214.853 24.686ZM219.322 16.2627C216.569 18.5155 214.743 21.6388 214.18 25.072L215.167 25.2336C215.689 22.0475 217.385 19.1396 219.956 17.0367L219.322 16.2627ZM229.193 12.7751C225.576 12.7751 222.076 14.0104 219.322 16.2627L219.956 17.0367C222.527 14.9335 225.802 13.7751 229.193 13.7751V12.7751ZM239.063 16.2627C236.31 14.0104 232.809 12.7751 229.193 12.7751V13.7751C232.583 13.7751 235.859 14.9335 238.43 17.0367L239.063 16.2627ZM244.205 25.072C243.642 21.6388 241.817 18.5155 239.063 16.2627L238.43 17.0367C241 19.1396 242.696 22.0475 243.218 25.2336L244.205 25.072ZM247.083 24.0673C245.869 24.0426 244.661 24.2529 243.532 24.686L243.891 25.6196C244.898 25.2331 245.977 25.045 247.063 25.0671L247.083 24.0673Z" fill="#1D1D1D"/>
<path d="M80.2856 100.453C79.4675 100.084 78.5833 99.8834 77.6859 99.8643C76.7885 99.8453 75.8966 100.008 75.0636 100.342C74.6406 97.6414 73.2669 95.1806 71.1902 93.4034C69.1135 91.6263 66.4704 90.6497 63.7373 90.6497C61.0043 90.6497 58.3612 91.6263 56.2845 93.4034C54.2078 95.1806 52.8341 97.6414 52.4111 100.342C51.5808 100.009 50.6919 99.8459 49.7973 99.8634C48.9028 99.881 48.0209 100.079 47.2043 100.445C45.7401 101.067 44.5362 102.177 43.7972 103.586C43.0581 104.995 42.8295 106.617 43.1501 108.175C43.4708 109.734 44.3208 111.134 45.556 112.137C46.7912 113.14 48.3354 113.684 49.9263 113.677H77.5462C79.1347 113.683 80.6764 113.139 81.91 112.138C83.1436 111.137 83.9934 109.74 84.3154 108.184C84.6375 106.628 84.4121 105.008 83.6773 103.599C82.9425 102.191 81.7435 101.079 80.2834 100.453H80.2856Z" fill="white" stroke="#1D1D1D" stroke-linejoin="round"/>
<path d="M215.583 33.4641C214.383 32.932 213.086 32.6435 211.77 32.6161C210.454 32.5886 209.146 32.8227 207.924 33.3043C207.303 29.4151 205.289 25.8715 202.243 23.3124C199.197 20.7532 195.32 19.3469 191.312 19.3469C187.304 19.3469 183.427 20.7532 180.381 23.3124C177.335 25.8715 175.321 29.4151 174.7 33.3043C173.482 32.824 172.179 32.5895 170.867 32.6148C169.555 32.6401 168.261 32.9247 167.064 33.4516C164.916 34.3474 163.15 35.9457 162.066 37.975C160.983 40.0043 160.647 42.3395 161.117 44.584C161.588 46.8285 162.835 48.844 164.646 50.2882C166.458 51.7324 168.723 52.5162 171.056 52.5066H211.565C213.895 52.5145 216.156 51.7313 217.965 50.2896C219.775 48.848 221.021 46.8366 221.493 44.596C221.966 42.3553 221.635 40.0232 220.557 37.9946C219.48 35.9659 217.721 34.3654 215.58 33.4641H215.583Z" fill="white" stroke="#1D1D1D" stroke-linejoin="round"/>
</svg>
