<svg width="666" height="438" viewBox="0 0 666 438" fill="none" xmlns="http://www.w3.org/2000/svg">
<path d="M0 8C0 3.58172 3.58172 0 8 0H658C662.418 0 666 3.58172 666 8V430C666 434.418 662.418 438 658 438H8C3.58172 438 0 434.418 0 430V8Z" fill="white"/>
<rect x="24.5" y="96.5" width="613" height="304" rx="7.5" fill="#F2F2EF" fill-opacity="0.4"/>
<path d="M56.3807 131.364H58.375L61.4148 136.653H61.5398L64.5795 131.364H66.5739L62.3523 138.432V143H60.6023V138.432L56.3807 131.364ZM70.3338 143.176C69.5156 143.176 68.8016 142.989 68.1918 142.614C67.5819 142.239 67.1084 141.714 66.7713 141.04C66.4342 140.366 66.2656 139.578 66.2656 138.676C66.2656 137.771 66.4342 136.979 66.7713 136.301C67.1084 135.623 67.5819 135.097 68.1918 134.722C68.8016 134.347 69.5156 134.159 70.3338 134.159C71.152 134.159 71.866 134.347 72.4759 134.722C73.0857 135.097 73.5592 135.623 73.8963 136.301C74.2334 136.979 74.402 137.771 74.402 138.676C74.402 139.578 74.2334 140.366 73.8963 141.04C73.5592 141.714 73.0857 142.239 72.4759 142.614C71.866 142.989 71.152 143.176 70.3338 143.176ZM70.3395 141.75C70.8698 141.75 71.3092 141.61 71.6577 141.33C72.0062 141.049 72.2637 140.676 72.4304 140.21C72.6009 139.744 72.6861 139.231 72.6861 138.67C72.6861 138.114 72.6009 137.602 72.4304 137.136C72.2637 136.667 72.0062 136.29 71.6577 136.006C71.3092 135.722 70.8698 135.58 70.3395 135.58C69.8054 135.58 69.3622 135.722 69.0099 136.006C68.6615 136.29 68.402 136.667 68.2315 137.136C68.0649 137.602 67.9815 138.114 67.9815 138.67C67.9815 139.231 68.0649 139.744 68.2315 140.21C68.402 140.676 68.6615 141.049 69.0099 141.33C69.3622 141.61 69.8054 141.75 70.3395 141.75ZM81.8267 139.381V134.273H83.5312V143H81.8608V141.489H81.7699C81.5691 141.955 81.2472 142.343 80.804 142.653C80.3646 142.96 79.8172 143.114 79.1619 143.114C78.6013 143.114 78.1051 142.991 77.6733 142.744C77.2453 142.494 76.9081 142.125 76.6619 141.636C76.4195 141.148 76.2983 140.544 76.2983 139.824V134.273H77.9972V139.619C77.9972 140.214 78.1619 140.687 78.4915 141.04C78.821 141.392 79.2491 141.568 79.7756 141.568C80.0938 141.568 80.41 141.489 80.7244 141.33C81.0426 141.17 81.3059 140.93 81.5142 140.608C81.7263 140.286 81.8305 139.877 81.8267 139.381ZM85.8139 143V134.273H87.456V135.659H87.5469C87.706 135.189 87.9863 134.82 88.3878 134.551C88.7931 134.278 89.2514 134.142 89.7628 134.142C89.8688 134.142 89.9938 134.146 90.1378 134.153C90.2855 134.161 90.401 134.17 90.4844 134.182V135.807C90.4162 135.788 90.295 135.767 90.1207 135.744C89.9465 135.718 89.7723 135.705 89.598 135.705C89.1965 135.705 88.8385 135.79 88.5241 135.96C88.2135 136.127 87.9673 136.36 87.7855 136.659C87.6037 136.955 87.5128 137.292 87.5128 137.67V143H85.8139ZM105.99 135.148H104.217C104.149 134.769 104.022 134.436 103.837 134.148C103.651 133.86 103.424 133.616 103.155 133.415C102.886 133.214 102.585 133.062 102.251 132.96C101.922 132.858 101.571 132.807 101.2 132.807C100.53 132.807 99.9295 132.975 99.3991 133.312C98.8726 133.65 98.456 134.144 98.1491 134.795C97.8461 135.447 97.6946 136.242 97.6946 137.182C97.6946 138.129 97.8461 138.928 98.1491 139.58C98.456 140.231 98.8745 140.723 99.4048 141.057C99.9351 141.39 100.532 141.557 101.195 141.557C101.562 141.557 101.911 141.508 102.24 141.409C102.573 141.307 102.875 141.157 103.143 140.96C103.412 140.763 103.64 140.523 103.825 140.239C104.015 139.951 104.145 139.621 104.217 139.25L105.99 139.256C105.895 139.828 105.712 140.354 105.439 140.835C105.17 141.312 104.823 141.725 104.399 142.074C103.979 142.419 103.498 142.686 102.956 142.875C102.414 143.064 101.823 143.159 101.183 143.159C100.176 143.159 99.2779 142.92 98.4901 142.443C97.7022 141.962 97.081 141.275 96.6264 140.381C96.1757 139.487 95.9503 138.42 95.9503 137.182C95.9503 135.939 96.1776 134.873 96.6321 133.983C97.0866 133.089 97.7079 132.403 98.4957 131.926C99.2836 131.445 100.179 131.205 101.183 131.205C101.801 131.205 102.376 131.294 102.911 131.472C103.448 131.646 103.931 131.903 104.359 132.244C104.787 132.581 105.142 132.994 105.422 133.483C105.702 133.968 105.892 134.523 105.99 135.148ZM113.483 139.381V134.273H115.188V143H113.517V141.489H113.426C113.225 141.955 112.903 142.343 112.46 142.653C112.021 142.96 111.473 143.114 110.818 143.114C110.258 143.114 109.761 142.991 109.33 142.744C108.902 142.494 108.564 142.125 108.318 141.636C108.076 141.148 107.955 140.544 107.955 139.824V134.273H109.653V139.619C109.653 140.214 109.818 140.687 110.148 141.04C110.477 141.392 110.905 141.568 111.432 141.568C111.75 141.568 112.066 141.489 112.381 141.33C112.699 141.17 112.962 140.93 113.17 140.608C113.383 140.286 113.487 139.877 113.483 139.381ZM117.47 143V134.273H119.112V135.659H119.203C119.362 135.189 119.643 134.82 120.044 134.551C120.449 134.278 120.908 134.142 121.419 134.142C121.525 134.142 121.65 134.146 121.794 134.153C121.942 134.161 122.057 134.17 122.141 134.182V135.807C122.072 135.788 121.951 135.767 121.777 135.744C121.603 135.718 121.429 135.705 121.254 135.705C120.853 135.705 120.495 135.79 120.18 135.96C119.87 136.127 119.624 136.36 119.442 136.659C119.26 136.955 119.169 137.292 119.169 137.67V143H117.47ZM123.611 143V134.273H125.253V135.659H125.344C125.503 135.189 125.783 134.82 126.185 134.551C126.59 134.278 127.048 134.142 127.56 134.142C127.666 134.142 127.791 134.146 127.935 134.153C128.082 134.161 128.198 134.17 128.281 134.182V135.807C128.213 135.788 128.092 135.767 127.918 135.744C127.743 135.718 127.569 135.705 127.395 135.705C126.993 135.705 126.635 135.79 126.321 135.96C126.01 136.127 125.764 136.36 125.582 136.659C125.401 136.955 125.31 137.292 125.31 137.67V143H123.611ZM133.2 143.176C132.34 143.176 131.6 142.992 130.979 142.625C130.361 142.254 129.884 141.733 129.547 141.062C129.214 140.388 129.047 139.598 129.047 138.693C129.047 137.799 129.214 137.011 129.547 136.33C129.884 135.648 130.354 135.116 130.956 134.733C131.562 134.35 132.27 134.159 133.081 134.159C133.573 134.159 134.051 134.241 134.513 134.403C134.975 134.566 135.39 134.822 135.757 135.17C136.125 135.519 136.414 135.972 136.626 136.528C136.839 137.081 136.945 137.754 136.945 138.545V139.148H130.007V137.875H135.28C135.28 137.428 135.189 137.032 135.007 136.688C134.825 136.339 134.57 136.064 134.24 135.864C133.914 135.663 133.532 135.562 133.092 135.562C132.615 135.562 132.198 135.68 131.842 135.915C131.49 136.146 131.217 136.449 131.024 136.824C130.835 137.195 130.74 137.598 130.74 138.034V139.028C130.74 139.612 130.842 140.108 131.047 140.517C131.255 140.926 131.545 141.239 131.916 141.455C132.287 141.667 132.721 141.773 133.217 141.773C133.539 141.773 133.833 141.727 134.098 141.636C134.363 141.542 134.592 141.402 134.786 141.216C134.979 141.03 135.126 140.801 135.229 140.528L136.837 140.818C136.708 141.292 136.477 141.706 136.143 142.062C135.814 142.415 135.399 142.689 134.899 142.886C134.403 143.08 133.837 143.176 133.2 143.176ZM140.528 137.818V143H138.83V134.273H140.46V135.693H140.568C140.769 135.231 141.083 134.86 141.511 134.58C141.943 134.299 142.487 134.159 143.142 134.159C143.737 134.159 144.258 134.284 144.705 134.534C145.152 134.78 145.498 135.148 145.744 135.636C145.991 136.125 146.114 136.729 146.114 137.449V143H144.415V137.653C144.415 137.021 144.25 136.527 143.92 136.17C143.591 135.811 143.138 135.631 142.562 135.631C142.169 135.631 141.818 135.716 141.511 135.886C141.208 136.057 140.968 136.307 140.79 136.636C140.616 136.962 140.528 137.356 140.528 137.818ZM152.466 134.273V135.636H147.699V134.273H152.466ZM148.977 132.182H150.676V140.438C150.676 140.767 150.725 141.015 150.824 141.182C150.922 141.345 151.049 141.456 151.205 141.517C151.364 141.574 151.536 141.602 151.722 141.602C151.858 141.602 151.977 141.593 152.08 141.574C152.182 141.555 152.261 141.54 152.318 141.528L152.625 142.932C152.527 142.97 152.386 143.008 152.205 143.045C152.023 143.087 151.795 143.11 151.523 143.114C151.076 143.121 150.659 143.042 150.273 142.875C149.886 142.708 149.574 142.451 149.335 142.102C149.097 141.754 148.977 141.316 148.977 140.79V132.182ZM159.699 143H157.835L162.023 131.364H164.051L168.239 143H166.375L163.085 133.477H162.994L159.699 143ZM160.011 138.443H166.057V139.92H160.011V138.443ZM171.482 131.364V143H169.783V131.364H171.482ZM175.466 131.364V143H173.767V131.364H175.466ZM181.428 143.176C180.609 143.176 179.895 142.989 179.286 142.614C178.676 142.239 178.202 141.714 177.865 141.04C177.528 140.366 177.359 139.578 177.359 138.676C177.359 137.771 177.528 136.979 177.865 136.301C178.202 135.623 178.676 135.097 179.286 134.722C179.895 134.347 180.609 134.159 181.428 134.159C182.246 134.159 182.96 134.347 183.57 134.722C184.179 135.097 184.653 135.623 184.99 136.301C185.327 136.979 185.496 137.771 185.496 138.676C185.496 139.578 185.327 140.366 184.99 141.04C184.653 141.714 184.179 142.239 183.57 142.614C182.96 142.989 182.246 143.176 181.428 143.176ZM181.433 141.75C181.964 141.75 182.403 141.61 182.751 141.33C183.1 141.049 183.357 140.676 183.524 140.21C183.695 139.744 183.78 139.231 183.78 138.67C183.78 138.114 183.695 137.602 183.524 137.136C183.357 136.667 183.1 136.29 182.751 136.006C182.403 135.722 181.964 135.58 181.433 135.58C180.899 135.58 180.456 135.722 180.104 136.006C179.755 136.29 179.496 136.667 179.325 137.136C179.159 137.602 179.075 138.114 179.075 138.67C179.075 139.231 179.159 139.744 179.325 140.21C179.496 140.676 179.755 141.049 180.104 141.33C180.456 141.61 180.899 141.75 181.433 141.75ZM191.068 143.176C190.223 143.176 189.496 142.985 188.886 142.602C188.28 142.216 187.814 141.684 187.489 141.006C187.163 140.328 187 139.551 187 138.676C187 137.79 187.167 137.008 187.5 136.33C187.833 135.648 188.303 135.116 188.909 134.733C189.515 134.35 190.229 134.159 191.051 134.159C191.714 134.159 192.305 134.282 192.824 134.528C193.343 134.771 193.761 135.112 194.08 135.551C194.402 135.991 194.593 136.504 194.653 137.091H193C192.909 136.682 192.701 136.33 192.375 136.034C192.053 135.739 191.621 135.591 191.08 135.591C190.606 135.591 190.191 135.716 189.835 135.966C189.483 136.212 189.208 136.564 189.011 137.023C188.814 137.477 188.716 138.015 188.716 138.636C188.716 139.273 188.813 139.822 189.006 140.284C189.199 140.746 189.472 141.104 189.824 141.358C190.18 141.612 190.598 141.739 191.08 141.739C191.402 141.739 191.693 141.68 191.955 141.562C192.22 141.441 192.441 141.269 192.619 141.045C192.801 140.822 192.928 140.553 193 140.239H194.653C194.593 140.803 194.409 141.307 194.102 141.75C193.795 142.193 193.384 142.542 192.869 142.795C192.358 143.049 191.758 143.176 191.068 143.176ZM199.01 143.193C198.457 143.193 197.957 143.091 197.51 142.886C197.063 142.678 196.709 142.377 196.447 141.983C196.19 141.589 196.061 141.106 196.061 140.534C196.061 140.042 196.156 139.636 196.345 139.318C196.535 139 196.79 138.748 197.112 138.562C197.434 138.377 197.794 138.237 198.192 138.142C198.589 138.047 198.995 137.975 199.408 137.926C199.93 137.866 200.355 137.816 200.68 137.778C201.006 137.737 201.243 137.67 201.391 137.58C201.538 137.489 201.612 137.341 201.612 137.136V137.097C201.612 136.6 201.472 136.216 201.192 135.943C200.915 135.67 200.502 135.534 199.953 135.534C199.381 135.534 198.93 135.661 198.601 135.915C198.275 136.165 198.05 136.443 197.925 136.75L196.328 136.386C196.518 135.856 196.794 135.428 197.158 135.102C197.525 134.773 197.947 134.534 198.425 134.386C198.902 134.235 199.404 134.159 199.93 134.159C200.279 134.159 200.648 134.201 201.038 134.284C201.432 134.364 201.8 134.511 202.141 134.727C202.485 134.943 202.768 135.252 202.987 135.653C203.207 136.051 203.317 136.568 203.317 137.205V143H201.658V141.807H201.589C201.48 142.027 201.315 142.242 201.095 142.455C200.875 142.667 200.593 142.843 200.249 142.983C199.904 143.123 199.491 143.193 199.01 143.193ZM199.379 141.83C199.849 141.83 200.25 141.737 200.584 141.551C200.921 141.366 201.177 141.123 201.351 140.824C201.529 140.521 201.618 140.197 201.618 139.852V138.727C201.557 138.788 201.44 138.845 201.266 138.898C201.095 138.947 200.9 138.991 200.68 139.028C200.461 139.062 200.247 139.095 200.038 139.125C199.83 139.152 199.656 139.174 199.516 139.193C199.186 139.235 198.885 139.305 198.612 139.403C198.343 139.502 198.127 139.644 197.964 139.83C197.805 140.011 197.726 140.254 197.726 140.557C197.726 140.977 197.881 141.295 198.192 141.511C198.502 141.723 198.898 141.83 199.379 141.83ZM209.653 134.273V135.636H204.886V134.273H209.653ZM206.165 132.182H207.864V140.438C207.864 140.767 207.913 141.015 208.011 141.182C208.11 141.345 208.237 141.456 208.392 141.517C208.551 141.574 208.723 141.602 208.909 141.602C209.045 141.602 209.165 141.593 209.267 141.574C209.369 141.555 209.449 141.54 209.506 141.528L209.812 142.932C209.714 142.97 209.574 143.008 209.392 143.045C209.21 143.087 208.983 143.11 208.71 143.114C208.263 143.121 207.847 143.042 207.46 142.875C207.074 142.708 206.761 142.451 206.523 142.102C206.284 141.754 206.165 141.316 206.165 140.79V132.182ZM211.533 143V134.273H213.232V143H211.533ZM212.391 132.926C212.095 132.926 211.841 132.828 211.629 132.631C211.421 132.43 211.317 132.191 211.317 131.915C211.317 131.634 211.421 131.396 211.629 131.199C211.841 130.998 212.095 130.898 212.391 130.898C212.686 130.898 212.938 130.998 213.146 131.199C213.358 131.396 213.464 131.634 213.464 131.915C213.464 132.191 213.358 132.43 213.146 132.631C212.938 132.828 212.686 132.926 212.391 132.926ZM219.193 143.176C218.375 143.176 217.661 142.989 217.051 142.614C216.441 142.239 215.968 141.714 215.631 141.04C215.294 140.366 215.125 139.578 215.125 138.676C215.125 137.771 215.294 136.979 215.631 136.301C215.968 135.623 216.441 135.097 217.051 134.722C217.661 134.347 218.375 134.159 219.193 134.159C220.011 134.159 220.725 134.347 221.335 134.722C221.945 135.097 222.419 135.623 222.756 136.301C223.093 136.979 223.261 137.771 223.261 138.676C223.261 139.578 223.093 140.366 222.756 141.04C222.419 141.714 221.945 142.239 221.335 142.614C220.725 142.989 220.011 143.176 219.193 143.176ZM219.199 141.75C219.729 141.75 220.169 141.61 220.517 141.33C220.866 141.049 221.123 140.676 221.29 140.21C221.46 139.744 221.545 139.231 221.545 138.67C221.545 138.114 221.46 137.602 221.29 137.136C221.123 136.667 220.866 136.29 220.517 136.006C220.169 135.722 219.729 135.58 219.199 135.58C218.665 135.58 218.222 135.722 217.869 136.006C217.521 136.29 217.261 136.667 217.091 137.136C216.924 137.602 216.841 138.114 216.841 138.67C216.841 139.231 216.924 139.744 217.091 140.21C217.261 140.676 217.521 141.049 217.869 141.33C218.222 141.61 218.665 141.75 219.199 141.75ZM226.857 137.818V143H225.158V134.273H226.788V135.693H226.896C227.097 135.231 227.411 134.86 227.839 134.58C228.271 134.299 228.815 134.159 229.47 134.159C230.065 134.159 230.586 134.284 231.033 134.534C231.48 134.78 231.826 135.148 232.072 135.636C232.319 136.125 232.442 136.729 232.442 137.449V143H230.743V137.653C230.743 137.021 230.578 136.527 230.249 136.17C229.919 135.811 229.466 135.631 228.891 135.631C228.497 135.631 228.146 135.716 227.839 135.886C227.536 136.057 227.296 136.307 227.118 136.636C226.944 136.962 226.857 137.356 226.857 137.818ZM246.966 135.04C246.856 134.695 246.708 134.386 246.523 134.114C246.341 133.837 246.123 133.602 245.869 133.409C245.616 133.212 245.326 133.062 245 132.96C244.678 132.858 244.324 132.807 243.938 132.807C243.282 132.807 242.691 132.975 242.165 133.312C241.638 133.65 241.222 134.144 240.915 134.795C240.612 135.443 240.46 136.237 240.46 137.176C240.46 138.119 240.614 138.917 240.92 139.568C241.227 140.22 241.648 140.714 242.182 141.051C242.716 141.388 243.324 141.557 244.006 141.557C244.638 141.557 245.189 141.428 245.659 141.17C246.133 140.913 246.498 140.549 246.756 140.08C247.017 139.606 247.148 139.049 247.148 138.409L247.602 138.494H244.273V137.045H248.847V138.369C248.847 139.347 248.638 140.195 248.222 140.915C247.809 141.631 247.237 142.184 246.506 142.574C245.778 142.964 244.945 143.159 244.006 143.159C242.953 143.159 242.028 142.917 241.233 142.432C240.441 141.947 239.824 141.259 239.381 140.369C238.938 139.475 238.716 138.415 238.716 137.188C238.716 136.259 238.845 135.426 239.102 134.688C239.36 133.949 239.722 133.322 240.188 132.807C240.657 132.288 241.208 131.892 241.841 131.619C242.477 131.343 243.172 131.205 243.926 131.205C244.555 131.205 245.14 131.297 245.682 131.483C246.227 131.669 246.712 131.932 247.136 132.273C247.564 132.614 247.919 133.019 248.199 133.489C248.479 133.955 248.669 134.472 248.767 135.04H246.966ZM256.467 139.381V134.273H258.172V143H256.501V141.489H256.411C256.21 141.955 255.888 142.343 255.445 142.653C255.005 142.96 254.458 143.114 253.803 143.114C253.242 143.114 252.746 142.991 252.314 142.744C251.886 142.494 251.549 142.125 251.303 141.636C251.06 141.148 250.939 140.544 250.939 139.824V134.273H252.638V139.619C252.638 140.214 252.803 140.687 253.132 141.04C253.462 141.392 253.89 141.568 254.416 141.568C254.734 141.568 255.051 141.489 255.365 141.33C255.683 141.17 255.946 140.93 256.155 140.608C256.367 140.286 256.471 139.877 256.467 139.381ZM260.455 143V134.273H262.153V143H260.455ZM261.312 132.926C261.017 132.926 260.763 132.828 260.551 132.631C260.343 132.43 260.239 132.191 260.239 131.915C260.239 131.634 260.343 131.396 260.551 131.199C260.763 130.998 261.017 130.898 261.312 130.898C261.608 130.898 261.86 130.998 262.068 131.199C262.28 131.396 262.386 131.634 262.386 131.915C262.386 132.191 262.28 132.43 262.068 132.631C261.86 132.828 261.608 132.926 261.312 132.926ZM267.706 143.17C267.001 143.17 266.373 142.991 265.82 142.631C265.27 142.267 264.839 141.75 264.524 141.08C264.214 140.405 264.058 139.597 264.058 138.653C264.058 137.71 264.215 136.903 264.53 136.233C264.848 135.562 265.284 135.049 265.837 134.693C266.39 134.337 267.017 134.159 267.717 134.159C268.259 134.159 268.695 134.25 269.024 134.432C269.357 134.61 269.615 134.818 269.797 135.057C269.982 135.295 270.126 135.506 270.229 135.688H270.331V131.364H272.03V143H270.371V141.642H270.229C270.126 141.828 269.979 142.04 269.786 142.278C269.596 142.517 269.335 142.725 269.001 142.903C268.668 143.081 268.236 143.17 267.706 143.17ZM268.081 141.722C268.57 141.722 268.982 141.593 269.32 141.335C269.661 141.074 269.918 140.712 270.092 140.25C270.27 139.788 270.359 139.25 270.359 138.636C270.359 138.03 270.272 137.5 270.098 137.045C269.924 136.591 269.668 136.237 269.331 135.983C268.994 135.729 268.577 135.602 268.081 135.602C267.57 135.602 267.143 135.735 266.803 136C266.462 136.265 266.204 136.627 266.03 137.085C265.859 137.544 265.774 138.061 265.774 138.636C265.774 139.22 265.861 139.744 266.036 140.21C266.21 140.676 266.467 141.045 266.808 141.318C267.153 141.587 267.577 141.722 268.081 141.722ZM278.216 143.176C277.356 143.176 276.616 142.992 275.994 142.625C275.377 142.254 274.9 141.733 274.562 141.062C274.229 140.388 274.062 139.598 274.062 138.693C274.062 137.799 274.229 137.011 274.562 136.33C274.9 135.648 275.369 135.116 275.972 134.733C276.578 134.35 277.286 134.159 278.097 134.159C278.589 134.159 279.066 134.241 279.528 134.403C279.991 134.566 280.405 134.822 280.773 135.17C281.14 135.519 281.43 135.972 281.642 136.528C281.854 137.081 281.96 137.754 281.96 138.545V139.148H275.023V137.875H280.295C280.295 137.428 280.205 137.032 280.023 136.688C279.841 136.339 279.585 136.064 279.256 135.864C278.93 135.663 278.547 135.562 278.108 135.562C277.631 135.562 277.214 135.68 276.858 135.915C276.506 136.146 276.233 136.449 276.04 136.824C275.85 137.195 275.756 137.598 275.756 138.034V139.028C275.756 139.612 275.858 140.108 276.062 140.517C276.271 140.926 276.561 141.239 276.932 141.455C277.303 141.667 277.737 141.773 278.233 141.773C278.555 141.773 278.848 141.727 279.114 141.636C279.379 141.542 279.608 141.402 279.801 141.216C279.994 141.03 280.142 140.801 280.244 140.528L281.852 140.818C281.723 141.292 281.492 141.706 281.159 142.062C280.83 142.415 280.415 142.689 279.915 142.886C279.419 143.08 278.852 143.176 278.216 143.176ZM284.964 143.108C284.654 143.108 284.387 142.998 284.163 142.778C283.94 142.555 283.828 142.286 283.828 141.972C283.828 141.661 283.94 141.396 284.163 141.176C284.387 140.953 284.654 140.841 284.964 140.841C285.275 140.841 285.542 140.953 285.766 141.176C285.989 141.396 286.101 141.661 286.101 141.972C286.101 142.18 286.048 142.371 285.942 142.545C285.839 142.716 285.703 142.852 285.533 142.955C285.362 143.057 285.173 143.108 284.964 143.108ZM284.964 136.756C284.654 136.756 284.387 136.644 284.163 136.42C283.94 136.197 283.828 135.93 283.828 135.619C283.828 135.309 283.94 135.044 284.163 134.824C284.387 134.6 284.654 134.489 284.964 134.489C285.275 134.489 285.542 134.6 285.766 134.824C285.989 135.044 286.101 135.309 286.101 135.619C286.101 135.828 286.048 136.019 285.942 136.193C285.839 136.364 285.703 136.5 285.533 136.602C285.362 136.705 285.173 136.756 284.964 136.756Z" fill="#1D1D1D"/>
<path d="M576.762 144V133.818H582.907V134.912H577.995V138.352H582.589V139.446H577.995V142.906H582.987V144H576.762ZM587.854 144.159C587.218 144.159 586.656 143.998 586.169 143.677C585.681 143.352 585.3 142.895 585.025 142.305C584.75 141.711 584.612 141.01 584.612 140.202C584.612 139.4 584.75 138.704 585.025 138.114C585.3 137.524 585.683 137.068 586.173 136.746C586.664 136.425 587.231 136.264 587.874 136.264C588.371 136.264 588.764 136.347 589.052 136.513C589.344 136.675 589.566 136.861 589.718 137.07C589.874 137.275 589.995 137.444 590.081 137.577H590.181V133.818H591.354V144H590.22V142.827H590.081C589.995 142.966 589.872 143.142 589.713 143.354C589.554 143.562 589.327 143.75 589.032 143.915C588.737 144.078 588.344 144.159 587.854 144.159ZM588.013 143.105C588.484 143.105 588.881 142.982 589.206 142.737C589.531 142.489 589.778 142.146 589.947 141.708C590.116 141.267 590.2 140.759 590.2 140.182C590.2 139.612 590.118 139.113 589.952 138.685C589.786 138.254 589.541 137.92 589.216 137.681C588.891 137.439 588.49 137.318 588.013 137.318C587.516 137.318 587.102 137.446 586.77 137.701C586.442 137.953 586.195 138.296 586.029 138.73C585.867 139.161 585.786 139.645 585.786 140.182C585.786 140.725 585.869 141.219 586.034 141.663C586.203 142.104 586.452 142.455 586.78 142.717C587.111 142.976 587.522 143.105 588.013 143.105ZM593.666 144V136.364H594.839V144H593.666ZM594.262 135.091C594.034 135.091 593.836 135.013 593.671 134.857C593.508 134.701 593.427 134.514 593.427 134.295C593.427 134.077 593.508 133.889 593.671 133.734C593.836 133.578 594.034 133.5 594.262 133.5C594.491 133.5 594.686 133.578 594.849 133.734C595.015 133.889 595.097 134.077 595.097 134.295C595.097 134.514 595.015 134.701 594.849 134.857C594.686 135.013 594.491 135.091 594.262 135.091ZM600.309 136.364V137.358H596.352V136.364H600.309ZM597.505 134.534H598.678V141.812C598.678 142.144 598.726 142.393 598.822 142.558C598.922 142.721 599.048 142.83 599.2 142.886C599.356 142.939 599.52 142.966 599.692 142.966C599.822 142.966 599.928 142.959 600.011 142.946C600.094 142.929 600.16 142.916 600.21 142.906L600.448 143.96C600.369 143.99 600.258 144.02 600.115 144.05C599.973 144.083 599.792 144.099 599.573 144.099C599.242 144.099 598.917 144.028 598.599 143.886C598.284 143.743 598.022 143.526 597.813 143.234C597.608 142.943 597.505 142.575 597.505 142.131V134.534Z" fill="#226752"/>
<path d="M517.455 189.139C516.799 189.139 516.214 189.027 515.7 188.801C515.19 188.576 514.784 188.263 514.482 187.862C514.184 187.457 514.022 186.988 513.995 186.455H515.248C515.274 186.783 515.387 187.066 515.586 187.305C515.785 187.54 516.045 187.722 516.366 187.852C516.688 187.981 517.044 188.045 517.435 188.045C517.873 188.045 518.261 187.969 518.599 187.817C518.937 187.664 519.202 187.452 519.394 187.18C519.586 186.909 519.683 186.594 519.683 186.236C519.683 185.861 519.59 185.531 519.404 185.246C519.219 184.958 518.947 184.733 518.589 184.57C518.231 184.408 517.793 184.327 517.276 184.327H516.461V183.233H517.276C517.681 183.233 518.035 183.16 518.34 183.014C518.648 182.868 518.889 182.663 519.061 182.398C519.237 182.133 519.325 181.821 519.325 181.463C519.325 181.118 519.248 180.818 519.096 180.563C518.943 180.308 518.728 180.109 518.45 179.967C518.174 179.824 517.85 179.753 517.475 179.753C517.124 179.753 516.792 179.817 516.481 179.947C516.173 180.073 515.921 180.257 515.725 180.499C515.53 180.737 515.424 181.026 515.407 181.364H514.214C514.234 180.83 514.394 180.363 514.696 179.962C514.998 179.557 515.392 179.242 515.879 179.017C516.37 178.792 516.908 178.679 517.495 178.679C518.125 178.679 518.665 178.807 519.116 179.062C519.567 179.314 519.913 179.647 520.155 180.061C520.397 180.475 520.518 180.923 520.518 181.403C520.518 181.977 520.367 182.466 520.065 182.87C519.767 183.274 519.361 183.554 518.847 183.71V183.79C519.49 183.896 519.992 184.169 520.354 184.61C520.715 185.048 520.896 185.589 520.896 186.236C520.896 186.789 520.745 187.286 520.443 187.727C520.145 188.165 519.737 188.509 519.22 188.761C518.703 189.013 518.115 189.139 517.455 189.139ZM526.25 189.139C525.501 189.139 524.863 188.935 524.336 188.528C523.809 188.117 523.406 187.522 523.128 186.743C522.849 185.961 522.71 185.016 522.71 183.909C522.71 182.809 522.849 181.869 523.128 181.09C523.41 180.308 523.814 179.711 524.341 179.3C524.871 178.886 525.508 178.679 526.25 178.679C526.992 178.679 527.627 178.886 528.154 179.3C528.684 179.711 529.089 180.308 529.367 181.09C529.649 181.869 529.79 182.809 529.79 183.909C529.79 185.016 529.651 185.961 529.372 186.743C529.094 187.522 528.691 188.117 528.164 188.528C527.637 188.935 526.999 189.139 526.25 189.139ZM526.25 188.045C526.992 188.045 527.569 187.687 527.98 186.972C528.391 186.256 528.597 185.235 528.597 183.909C528.597 183.027 528.502 182.277 528.313 181.657C528.128 181.037 527.859 180.565 527.508 180.24C527.16 179.915 526.741 179.753 526.25 179.753C525.514 179.753 524.939 180.116 524.525 180.842C524.111 181.564 523.903 182.587 523.903 183.909C523.903 184.791 523.996 185.54 524.182 186.156C524.367 186.773 524.634 187.242 524.982 187.563C525.334 187.885 525.756 188.045 526.25 188.045ZM536.869 187.091V186.554C536.869 186.183 536.946 185.843 537.098 185.535C537.254 185.223 537.479 184.975 537.774 184.789C538.072 184.6 538.434 184.506 538.858 184.506C539.289 184.506 539.65 184.6 539.942 184.789C540.233 184.975 540.454 185.223 540.603 185.535C540.752 185.843 540.827 186.183 540.827 186.554V187.091C540.827 187.462 540.75 187.804 540.598 188.115C540.449 188.423 540.227 188.672 539.932 188.861C539.64 189.046 539.282 189.139 538.858 189.139C538.427 189.139 538.064 189.046 537.769 188.861C537.474 188.672 537.25 188.423 537.098 188.115C536.946 187.804 536.869 187.462 536.869 187.091ZM537.884 186.554V187.091C537.884 187.399 537.956 187.676 538.102 187.921C538.248 188.163 538.5 188.284 538.858 188.284C539.206 188.284 539.451 188.163 539.594 187.921C539.74 187.676 539.812 187.399 539.812 187.091V186.554C539.812 186.246 539.743 185.971 539.604 185.729C539.464 185.483 539.216 185.361 538.858 185.361C538.51 185.361 538.26 185.483 538.107 185.729C537.958 185.971 537.884 186.246 537.884 186.554ZM531.798 181.264V180.727C531.798 180.356 531.875 180.016 532.027 179.708C532.183 179.397 532.408 179.148 532.703 178.962C533.001 178.773 533.363 178.679 533.787 178.679C534.218 178.679 534.579 178.773 534.871 178.962C535.162 179.148 535.383 179.397 535.532 179.708C535.681 180.016 535.756 180.356 535.756 180.727V181.264C535.756 181.635 535.679 181.977 535.527 182.288C535.378 182.597 535.156 182.845 534.861 183.034C534.569 183.22 534.211 183.312 533.787 183.312C533.356 183.312 532.993 183.22 532.698 183.034C532.403 182.845 532.179 182.597 532.027 182.288C531.875 181.977 531.798 181.635 531.798 181.264ZM532.812 180.727V181.264C532.812 181.572 532.885 181.849 533.031 182.094C533.177 182.336 533.429 182.457 533.787 182.457C534.135 182.457 534.38 182.336 534.523 182.094C534.669 181.849 534.741 181.572 534.741 181.264V180.727C534.741 180.419 534.672 180.144 534.533 179.902C534.393 179.657 534.145 179.534 533.787 179.534C533.439 179.534 533.189 179.657 533.036 179.902C532.887 180.144 532.812 180.419 532.812 180.727ZM532.176 189L539.176 178.818H540.31L533.31 189H532.176Z" fill="black"/>
<path d="M526.343 297.139C525.76 297.139 525.235 297.023 524.767 296.791C524.3 296.559 523.925 296.241 523.644 295.837C523.362 295.432 523.208 294.972 523.181 294.455H524.374C524.421 294.915 524.63 295.296 525.001 295.598C525.375 295.896 525.823 296.045 526.343 296.045C526.761 296.045 527.132 295.948 527.457 295.752C527.785 295.557 528.042 295.288 528.227 294.947C528.416 294.602 528.511 294.213 528.511 293.778C528.511 293.334 528.413 292.938 528.218 292.59C528.025 292.239 527.76 291.962 527.422 291.76C527.084 291.558 526.698 291.455 526.264 291.452C525.952 291.448 525.632 291.496 525.304 291.596C524.976 291.692 524.706 291.816 524.494 291.969L523.34 291.83L523.957 286.818H529.247V287.912H524.991L524.633 290.915H524.693C524.901 290.749 525.163 290.612 525.478 290.502C525.793 290.393 526.121 290.338 526.463 290.338C527.086 290.338 527.641 290.487 528.128 290.786C528.619 291.08 529.003 291.485 529.281 291.999C529.563 292.512 529.704 293.099 529.704 293.759C529.704 294.408 529.558 294.988 529.267 295.499C528.978 296.006 528.58 296.407 528.073 296.702C527.566 296.993 526.99 297.139 526.343 297.139ZM536.869 295.091V294.554C536.869 294.183 536.946 293.843 537.098 293.535C537.254 293.223 537.479 292.975 537.774 292.789C538.072 292.6 538.434 292.506 538.858 292.506C539.289 292.506 539.65 292.6 539.942 292.789C540.233 292.975 540.454 293.223 540.603 293.535C540.752 293.843 540.827 294.183 540.827 294.554V295.091C540.827 295.462 540.75 295.804 540.598 296.115C540.449 296.423 540.227 296.672 539.932 296.861C539.64 297.046 539.282 297.139 538.858 297.139C538.427 297.139 538.064 297.046 537.769 296.861C537.474 296.672 537.25 296.423 537.098 296.115C536.946 295.804 536.869 295.462 536.869 295.091ZM537.884 294.554V295.091C537.884 295.399 537.956 295.676 538.102 295.921C538.248 296.163 538.5 296.284 538.858 296.284C539.206 296.284 539.451 296.163 539.594 295.921C539.74 295.676 539.812 295.399 539.812 295.091V294.554C539.812 294.246 539.743 293.971 539.604 293.729C539.464 293.483 539.216 293.361 538.858 293.361C538.51 293.361 538.26 293.483 538.107 293.729C537.958 293.971 537.884 294.246 537.884 294.554ZM531.798 289.264V288.727C531.798 288.356 531.875 288.016 532.027 287.708C532.183 287.397 532.408 287.148 532.703 286.962C533.001 286.773 533.363 286.679 533.787 286.679C534.218 286.679 534.579 286.773 534.871 286.962C535.162 287.148 535.383 287.397 535.532 287.708C535.681 288.016 535.756 288.356 535.756 288.727V289.264C535.756 289.635 535.679 289.977 535.527 290.288C535.378 290.597 535.156 290.845 534.861 291.034C534.569 291.22 534.211 291.312 533.787 291.312C533.356 291.312 532.993 291.22 532.698 291.034C532.403 290.845 532.179 290.597 532.027 290.288C531.875 289.977 531.798 289.635 531.798 289.264ZM532.812 288.727V289.264C532.812 289.572 532.885 289.849 533.031 290.094C533.177 290.336 533.429 290.457 533.787 290.457C534.135 290.457 534.38 290.336 534.523 290.094C534.669 289.849 534.741 289.572 534.741 289.264V288.727C534.741 288.419 534.672 288.144 534.533 287.902C534.393 287.657 534.145 287.534 533.787 287.534C533.439 287.534 533.189 287.657 533.036 287.902C532.887 288.144 532.812 288.419 532.812 288.727ZM532.176 297L539.176 286.818H540.31L533.31 297H532.176Z" fill="black"/>
<path d="M517.593 243.139C517.01 243.139 516.485 243.023 516.017 242.791C515.55 242.559 515.175 242.241 514.894 241.837C514.612 241.432 514.458 240.972 514.431 240.455H515.624C515.671 240.915 515.88 241.296 516.251 241.598C516.625 241.896 517.073 242.045 517.593 242.045C518.011 242.045 518.382 241.948 518.707 241.752C519.035 241.557 519.292 241.288 519.477 240.947C519.666 240.602 519.761 240.213 519.761 239.778C519.761 239.334 519.663 238.938 519.468 238.59C519.275 238.239 519.01 237.962 518.672 237.76C518.334 237.558 517.948 237.455 517.514 237.452C517.202 237.448 516.882 237.496 516.554 237.596C516.226 237.692 515.956 237.816 515.744 237.969L514.59 237.83L515.207 232.818H520.497V233.912H516.241L515.883 236.915H515.943C516.151 236.749 516.413 236.612 516.728 236.502C517.043 236.393 517.371 236.338 517.713 236.338C518.336 236.338 518.891 236.487 519.378 236.786C519.869 237.08 520.253 237.485 520.531 237.999C520.813 238.512 520.954 239.099 520.954 239.759C520.954 240.408 520.808 240.988 520.517 241.499C520.228 242.006 519.83 242.407 519.323 242.702C518.816 242.993 518.24 243.139 517.593 243.139ZM526.25 243.139C525.501 243.139 524.863 242.935 524.336 242.528C523.809 242.117 523.406 241.522 523.128 240.743C522.849 239.961 522.71 239.016 522.71 237.909C522.71 236.809 522.849 235.869 523.128 235.09C523.41 234.308 523.814 233.711 524.341 233.3C524.871 232.886 525.508 232.679 526.25 232.679C526.992 232.679 527.627 232.886 528.154 233.3C528.684 233.711 529.089 234.308 529.367 235.09C529.649 235.869 529.79 236.809 529.79 237.909C529.79 239.016 529.651 239.961 529.372 240.743C529.094 241.522 528.691 242.117 528.164 242.528C527.637 242.935 526.999 243.139 526.25 243.139ZM526.25 242.045C526.992 242.045 527.569 241.687 527.98 240.972C528.391 240.256 528.597 239.235 528.597 237.909C528.597 237.027 528.502 236.277 528.313 235.657C528.128 235.037 527.859 234.565 527.508 234.24C527.16 233.915 526.741 233.753 526.25 233.753C525.514 233.753 524.939 234.116 524.525 234.842C524.111 235.564 523.903 236.587 523.903 237.909C523.903 238.791 523.996 239.54 524.182 240.156C524.367 240.773 524.634 241.242 524.982 241.563C525.334 241.885 525.756 242.045 526.25 242.045ZM536.869 241.091V240.554C536.869 240.183 536.946 239.843 537.098 239.535C537.254 239.223 537.479 238.975 537.774 238.789C538.072 238.6 538.434 238.506 538.858 238.506C539.289 238.506 539.65 238.6 539.942 238.789C540.233 238.975 540.454 239.223 540.603 239.535C540.752 239.843 540.827 240.183 540.827 240.554V241.091C540.827 241.462 540.75 241.804 540.598 242.115C540.449 242.423 540.227 242.672 539.932 242.861C539.64 243.046 539.282 243.139 538.858 243.139C538.427 243.139 538.064 243.046 537.769 242.861C537.474 242.672 537.25 242.423 537.098 242.115C536.946 241.804 536.869 241.462 536.869 241.091ZM537.884 240.554V241.091C537.884 241.399 537.956 241.676 538.102 241.921C538.248 242.163 538.5 242.284 538.858 242.284C539.206 242.284 539.451 242.163 539.594 241.921C539.74 241.676 539.812 241.399 539.812 241.091V240.554C539.812 240.246 539.743 239.971 539.604 239.729C539.464 239.483 539.216 239.361 538.858 239.361C538.51 239.361 538.26 239.483 538.107 239.729C537.958 239.971 537.884 240.246 537.884 240.554ZM531.798 235.264V234.727C531.798 234.356 531.875 234.016 532.027 233.708C532.183 233.397 532.408 233.148 532.703 232.962C533.001 232.773 533.363 232.679 533.787 232.679C534.218 232.679 534.579 232.773 534.871 232.962C535.162 233.148 535.383 233.397 535.532 233.708C535.681 234.016 535.756 234.356 535.756 234.727V235.264C535.756 235.635 535.679 235.977 535.527 236.288C535.378 236.597 535.156 236.845 534.861 237.034C534.569 237.22 534.211 237.312 533.787 237.312C533.356 237.312 532.993 237.22 532.698 237.034C532.403 236.845 532.179 236.597 532.027 236.288C531.875 235.977 531.798 235.635 531.798 235.264ZM532.812 234.727V235.264C532.812 235.572 532.885 235.849 533.031 236.094C533.177 236.336 533.429 236.457 533.787 236.457C534.135 236.457 534.38 236.336 534.523 236.094C534.669 235.849 534.741 235.572 534.741 235.264V234.727C534.741 234.419 534.672 234.144 534.533 233.902C534.393 233.657 534.145 233.534 533.787 233.534C533.439 233.534 533.189 233.657 533.036 233.902C532.887 234.144 532.812 234.419 532.812 234.727ZM532.176 243L539.176 232.818H540.31L533.31 243H532.176Z" fill="black"/>
<path d="M520.233 340.818V351H519V342.111H518.941L516.455 343.761V342.509L519 340.818H520.233ZM526.343 351.139C525.76 351.139 525.235 351.023 524.767 350.791C524.3 350.559 523.925 350.241 523.644 349.837C523.362 349.432 523.208 348.972 523.181 348.455H524.374C524.421 348.915 524.63 349.296 525.001 349.598C525.375 349.896 525.823 350.045 526.343 350.045C526.761 350.045 527.132 349.948 527.457 349.752C527.785 349.557 528.042 349.288 528.227 348.947C528.416 348.602 528.511 348.213 528.511 347.778C528.511 347.334 528.413 346.938 528.218 346.59C528.025 346.239 527.76 345.962 527.422 345.76C527.084 345.558 526.698 345.455 526.264 345.452C525.952 345.448 525.632 345.496 525.304 345.596C524.976 345.692 524.706 345.816 524.494 345.969L523.34 345.83L523.957 340.818H529.247V341.912H524.991L524.633 344.915H524.693C524.901 344.749 525.163 344.612 525.478 344.502C525.793 344.393 526.121 344.338 526.463 344.338C527.086 344.338 527.641 344.487 528.128 344.786C528.619 345.08 529.003 345.485 529.281 345.999C529.563 346.512 529.704 347.099 529.704 347.759C529.704 348.408 529.558 348.988 529.267 349.499C528.978 350.006 528.58 350.407 528.073 350.702C527.566 350.993 526.99 351.139 526.343 351.139ZM536.869 349.091V348.554C536.869 348.183 536.946 347.843 537.098 347.535C537.254 347.223 537.479 346.975 537.774 346.789C538.072 346.6 538.434 346.506 538.858 346.506C539.289 346.506 539.65 346.6 539.942 346.789C540.233 346.975 540.454 347.223 540.603 347.535C540.752 347.843 540.827 348.183 540.827 348.554V349.091C540.827 349.462 540.75 349.804 540.598 350.115C540.449 350.423 540.227 350.672 539.932 350.861C539.64 351.046 539.282 351.139 538.858 351.139C538.427 351.139 538.064 351.046 537.769 350.861C537.474 350.672 537.25 350.423 537.098 350.115C536.946 349.804 536.869 349.462 536.869 349.091ZM537.884 348.554V349.091C537.884 349.399 537.956 349.676 538.102 349.921C538.248 350.163 538.5 350.284 538.858 350.284C539.206 350.284 539.451 350.163 539.594 349.921C539.74 349.676 539.812 349.399 539.812 349.091V348.554C539.812 348.246 539.743 347.971 539.604 347.729C539.464 347.483 539.216 347.361 538.858 347.361C538.51 347.361 538.26 347.483 538.107 347.729C537.958 347.971 537.884 348.246 537.884 348.554ZM531.798 343.264V342.727C531.798 342.356 531.875 342.016 532.027 341.708C532.183 341.397 532.408 341.148 532.703 340.962C533.001 340.773 533.363 340.679 533.787 340.679C534.218 340.679 534.579 340.773 534.871 340.962C535.162 341.148 535.383 341.397 535.532 341.708C535.681 342.016 535.756 342.356 535.756 342.727V343.264C535.756 343.635 535.679 343.977 535.527 344.288C535.378 344.597 535.156 344.845 534.861 345.034C534.569 345.22 534.211 345.312 533.787 345.312C533.356 345.312 532.993 345.22 532.698 345.034C532.403 344.845 532.179 344.597 532.027 344.288C531.875 343.977 531.798 343.635 531.798 343.264ZM532.812 342.727V343.264C532.812 343.572 532.885 343.849 533.031 344.094C533.177 344.336 533.429 344.457 533.787 344.457C534.135 344.457 534.38 344.336 534.523 344.094C534.669 343.849 534.741 343.572 534.741 343.264V342.727C534.741 342.419 534.672 342.144 534.533 341.902C534.393 341.657 534.145 341.534 533.787 341.534C533.439 341.534 533.189 341.657 533.036 341.902C532.887 342.144 532.812 342.419 532.812 342.727ZM532.176 351L539.176 340.818H540.31L533.31 351H532.176Z" fill="black"/>
<path d="M73.6527 179.912V178.818H81.2891V179.912H78.0874V189H76.8544V179.912H73.6527ZM84.2409 189.179C83.757 189.179 83.3179 189.088 82.9235 188.906C82.5291 188.72 82.2158 188.453 81.9838 188.105C81.7518 187.754 81.6358 187.33 81.6358 186.832C81.6358 186.395 81.722 186.04 81.8944 185.768C82.0667 185.493 82.2971 185.278 82.5854 185.122C82.8738 184.966 83.1919 184.85 83.54 184.774C83.8913 184.695 84.2443 184.632 84.5989 184.585C85.0629 184.526 85.4391 184.481 85.7275 184.451C86.0191 184.418 86.2312 184.363 86.3638 184.287C86.4997 184.211 86.5676 184.078 86.5676 183.889V183.849C86.5676 183.359 86.4334 182.978 86.165 182.706C85.8998 182.434 85.4971 182.298 84.9569 182.298C84.3967 182.298 83.9576 182.421 83.6394 182.666C83.3212 182.911 83.0975 183.173 82.9682 183.452L81.8546 183.054C82.0534 182.59 82.3186 182.229 82.65 181.97C82.9848 181.708 83.3494 181.526 83.7438 181.423C84.1415 181.317 84.5326 181.264 84.9171 181.264C85.1623 181.264 85.4441 181.294 85.7623 181.354C86.0837 181.41 86.3936 181.528 86.6919 181.707C86.9935 181.886 87.2438 182.156 87.4426 182.517C87.6415 182.878 87.7409 183.362 87.7409 183.969V189H86.5676V187.966H86.508C86.4284 188.132 86.2959 188.309 86.1103 188.498C85.9247 188.687 85.6777 188.848 85.3695 188.98C85.0613 189.113 84.6851 189.179 84.2409 189.179ZM84.4199 188.125C84.8839 188.125 85.275 188.034 85.5932 187.852C85.9147 187.669 86.1567 187.434 86.3191 187.146C86.4848 186.857 86.5676 186.554 86.5676 186.236V185.162C86.5179 185.222 86.4086 185.276 86.2395 185.326C86.0738 185.372 85.8816 185.414 85.6628 185.45C85.4474 185.483 85.2369 185.513 85.0314 185.54C84.8292 185.563 84.6652 185.583 84.5392 185.599C84.2343 185.639 83.9493 185.704 83.6841 185.793C83.4223 185.879 83.2102 186.01 83.0478 186.186C82.8887 186.358 82.8091 186.594 82.8091 186.892C82.8091 187.3 82.9599 187.608 83.2615 187.817C83.5665 188.022 83.9526 188.125 84.4199 188.125ZM90.7575 181.364L92.587 184.486L94.4165 181.364H95.7688L93.3029 185.182L95.7688 189H94.4165L92.587 186.037L90.7575 189H89.4052L91.8313 185.182L89.4052 181.364H90.7575ZM107.108 181.364C107.048 180.86 106.806 180.469 106.382 180.19C105.958 179.912 105.437 179.773 104.821 179.773C104.37 179.773 103.976 179.846 103.638 179.991C103.303 180.137 103.041 180.338 102.852 180.593C102.666 180.848 102.574 181.138 102.574 181.463C102.574 181.735 102.638 181.969 102.768 182.164C102.9 182.356 103.069 182.517 103.275 182.646C103.48 182.772 103.696 182.877 103.921 182.96C104.146 183.039 104.354 183.104 104.542 183.153L105.577 183.432C105.842 183.501 106.137 183.598 106.461 183.72C106.79 183.843 107.103 184.01 107.401 184.222C107.703 184.431 107.951 184.7 108.147 185.028C108.342 185.356 108.44 185.759 108.44 186.236C108.44 186.786 108.296 187.283 108.008 187.727C107.723 188.171 107.305 188.524 106.755 188.786C106.208 189.048 105.543 189.179 104.761 189.179C104.032 189.179 103.401 189.061 102.867 188.826C102.337 188.591 101.919 188.263 101.614 187.842C101.313 187.421 101.142 186.932 101.102 186.375H102.375C102.408 186.759 102.537 187.078 102.763 187.33C102.991 187.578 103.28 187.764 103.628 187.886C103.979 188.006 104.357 188.065 104.761 188.065C105.232 188.065 105.654 187.989 106.029 187.837C106.403 187.681 106.7 187.465 106.919 187.19C107.138 186.912 107.247 186.587 107.247 186.216C107.247 185.878 107.153 185.603 106.964 185.391C106.775 185.179 106.526 185.006 106.218 184.874C105.91 184.741 105.577 184.625 105.219 184.526L103.966 184.168C103.17 183.939 102.541 183.612 102.077 183.188C101.613 182.764 101.381 182.209 101.381 181.523C101.381 180.953 101.535 180.455 101.843 180.031C102.154 179.604 102.572 179.272 103.096 179.037C103.623 178.798 104.211 178.679 104.861 178.679C105.517 178.679 106.1 178.797 106.611 179.032C107.121 179.264 107.525 179.582 107.824 179.987C108.125 180.391 108.284 180.85 108.301 181.364H107.108ZM112.555 189.179C112.071 189.179 111.632 189.088 111.238 188.906C110.844 188.72 110.53 188.453 110.298 188.105C110.066 187.754 109.95 187.33 109.95 186.832C109.95 186.395 110.036 186.04 110.209 185.768C110.381 185.493 110.612 185.278 110.9 185.122C111.188 184.966 111.506 184.85 111.854 184.774C112.206 184.695 112.559 184.632 112.913 184.585C113.377 184.526 113.754 184.481 114.042 184.451C114.334 184.418 114.546 184.363 114.678 184.287C114.814 184.211 114.882 184.078 114.882 183.889V183.849C114.882 183.359 114.748 182.978 114.479 182.706C114.214 182.434 113.812 182.298 113.271 182.298C112.711 182.298 112.272 182.421 111.954 182.666C111.636 182.911 111.412 183.173 111.283 183.452L110.169 183.054C110.368 182.59 110.633 182.229 110.964 181.97C111.299 181.708 111.664 181.526 112.058 181.423C112.456 181.317 112.847 181.264 113.232 181.264C113.477 181.264 113.759 181.294 114.077 181.354C114.398 181.41 114.708 181.528 115.006 181.707C115.308 181.886 115.558 182.156 115.757 182.517C115.956 182.878 116.055 183.362 116.055 183.969V189H114.882V187.966H114.822C114.743 188.132 114.61 188.309 114.425 188.498C114.239 188.687 113.992 188.848 113.684 188.98C113.376 189.113 113 189.179 112.555 189.179ZM112.734 188.125C113.198 188.125 113.589 188.034 113.908 187.852C114.229 187.669 114.471 187.434 114.634 187.146C114.799 186.857 114.882 186.554 114.882 186.236V185.162C114.832 185.222 114.723 185.276 114.554 185.326C114.388 185.372 114.196 185.414 113.977 185.45C113.762 185.483 113.551 185.513 113.346 185.54C113.144 185.563 112.98 185.583 112.854 185.599C112.549 185.639 112.264 185.704 111.999 185.793C111.737 185.879 111.525 186.01 111.362 186.186C111.203 186.358 111.124 186.594 111.124 186.892C111.124 187.3 111.274 187.608 111.576 187.817C111.881 188.022 112.267 188.125 112.734 188.125ZM124.168 181.364L121.344 189H120.151L117.327 181.364H118.6L120.708 187.449H120.787L122.895 181.364H124.168ZM125.716 189V181.364H126.89V189H125.716ZM126.313 180.091C126.084 180.091 125.887 180.013 125.721 179.857C125.559 179.701 125.478 179.514 125.478 179.295C125.478 179.077 125.559 178.889 125.721 178.734C125.887 178.578 126.084 178.5 126.313 178.5C126.542 178.5 126.737 178.578 126.9 178.734C127.065 178.889 127.148 179.077 127.148 179.295C127.148 179.514 127.065 179.701 126.9 179.857C126.737 180.013 126.542 180.091 126.313 180.091ZM130.212 184.406V189H129.039V181.364H130.172V182.557H130.272C130.451 182.169 130.722 181.857 131.087 181.622C131.452 181.384 131.922 181.264 132.499 181.264C133.016 181.264 133.468 181.37 133.856 181.582C134.244 181.791 134.546 182.109 134.761 182.537C134.976 182.961 135.084 183.498 135.084 184.148V189H133.911V184.227C133.911 183.627 133.755 183.16 133.444 182.825C133.132 182.487 132.704 182.318 132.161 182.318C131.786 182.318 131.452 182.399 131.157 182.562C130.865 182.724 130.635 182.961 130.466 183.273C130.297 183.584 130.212 183.962 130.212 184.406ZM140.311 192.023C139.744 192.023 139.257 191.95 138.849 191.804C138.441 191.661 138.102 191.473 137.83 191.237C137.561 191.005 137.347 190.757 137.188 190.491L138.123 189.835C138.229 189.974 138.363 190.134 138.526 190.312C138.688 190.495 138.91 190.652 139.192 190.785C139.477 190.921 139.85 190.989 140.311 190.989C140.927 190.989 141.436 190.839 141.837 190.541C142.238 190.243 142.438 189.776 142.438 189.139V187.588H142.339C142.253 187.727 142.13 187.9 141.971 188.105C141.815 188.307 141.59 188.488 141.295 188.647C141.003 188.803 140.609 188.881 140.112 188.881C139.495 188.881 138.942 188.735 138.451 188.443C137.964 188.152 137.578 187.727 137.293 187.17C137.011 186.614 136.87 185.937 136.87 185.142C136.87 184.36 137.008 183.679 137.283 183.099C137.558 182.515 137.941 182.065 138.431 181.746C138.922 181.425 139.489 181.264 140.132 181.264C140.629 181.264 141.023 181.347 141.315 181.513C141.61 181.675 141.835 181.861 141.991 182.07C142.15 182.275 142.273 182.444 142.359 182.577H142.478V181.364H143.612V189.219C143.612 189.875 143.463 190.409 143.164 190.82C142.869 191.234 142.472 191.537 141.971 191.729C141.474 191.925 140.92 192.023 140.311 192.023ZM140.271 187.827C140.741 187.827 141.139 187.719 141.464 187.504C141.789 187.288 142.036 186.978 142.205 186.574C142.374 186.17 142.458 185.686 142.458 185.122C142.458 184.572 142.375 184.086 142.21 183.665C142.044 183.245 141.799 182.915 141.474 182.676C141.149 182.437 140.748 182.318 140.271 182.318C139.774 182.318 139.359 182.444 139.028 182.696C138.7 182.948 138.453 183.286 138.287 183.71C138.125 184.134 138.044 184.605 138.044 185.122C138.044 185.652 138.126 186.121 138.292 186.529C138.461 186.933 138.71 187.252 139.038 187.484C139.369 187.712 139.78 187.827 140.271 187.827ZM151.169 183.074L150.115 183.372C150.048 183.196 149.95 183.026 149.821 182.86C149.695 182.691 149.523 182.552 149.304 182.442C149.085 182.333 148.805 182.278 148.464 182.278C147.997 182.278 147.607 182.386 147.296 182.602C146.987 182.814 146.833 183.084 146.833 183.412C146.833 183.704 146.939 183.934 147.151 184.103C147.364 184.272 147.695 184.413 148.146 184.526L149.279 184.804C149.962 184.97 150.471 185.223 150.806 185.565C151.14 185.903 151.308 186.339 151.308 186.872C151.308 187.31 151.182 187.701 150.93 188.045C150.681 188.39 150.333 188.662 149.886 188.861C149.438 189.06 148.918 189.159 148.325 189.159C147.546 189.159 146.901 188.99 146.391 188.652C145.88 188.314 145.557 187.82 145.421 187.17L146.535 186.892C146.641 187.303 146.842 187.611 147.137 187.817C147.435 188.022 147.824 188.125 148.305 188.125C148.852 188.125 149.286 188.009 149.607 187.777C149.932 187.542 150.095 187.26 150.095 186.932C150.095 186.667 150.002 186.445 149.816 186.266C149.631 186.083 149.346 185.947 148.961 185.858L147.688 185.56C146.989 185.394 146.475 185.137 146.147 184.789C145.822 184.438 145.66 183.999 145.66 183.472C145.66 183.041 145.781 182.66 146.023 182.328C146.268 181.997 146.601 181.737 147.022 181.548C147.446 181.359 147.927 181.264 148.464 181.264C149.22 181.264 149.813 181.43 150.244 181.761C150.678 182.093 150.986 182.53 151.169 183.074Z" fill="black"/>
<path d="M74.0865 297V286.818H77.5268C78.3223 286.818 78.9752 286.954 79.4856 287.226C79.996 287.494 80.3739 287.864 80.6191 288.335C80.8644 288.805 80.987 289.34 80.987 289.94C80.987 290.54 80.8644 291.072 80.6191 291.536C80.3739 292 79.9977 292.365 79.4906 292.63C78.9835 292.892 78.3355 293.023 77.5467 293.023H74.7626V291.909H77.5069C78.0505 291.909 78.488 291.83 78.8194 291.67C79.1542 291.511 79.3961 291.286 79.5453 290.994C79.6977 290.699 79.774 290.348 79.774 289.94C79.774 289.533 79.6977 289.176 79.5453 288.871C79.3928 288.567 79.1492 288.331 78.8145 288.165C78.4797 287.996 78.0372 287.912 77.487 287.912H75.3194V297H74.0865ZM78.8791 292.426L81.3848 297H79.9529L77.487 292.426H78.8791ZM86.0021 297.159C85.2663 297.159 84.6316 296.997 84.098 296.672C83.5677 296.344 83.1584 295.886 82.87 295.3C82.585 294.71 82.4425 294.024 82.4425 293.241C82.4425 292.459 82.585 291.77 82.87 291.173C83.1584 290.573 83.5594 290.106 84.0732 289.771C84.5902 289.433 85.1934 289.264 85.8828 289.264C86.2805 289.264 86.6733 289.33 87.0611 289.463C87.4489 289.596 87.8018 289.811 88.12 290.109C88.4382 290.404 88.6918 290.795 88.8807 291.283C89.0696 291.77 89.1641 292.37 89.1641 293.082V293.58H83.2777V292.565H87.9709C87.9709 292.134 87.8847 291.75 87.7124 291.412C87.5433 291.074 87.3014 290.807 86.9865 290.612C86.675 290.416 86.3071 290.318 85.8828 290.318C85.4155 290.318 85.0111 290.434 84.6697 290.666C84.3317 290.895 84.0715 291.193 83.8892 291.561C83.7069 291.929 83.6158 292.323 83.6158 292.744V293.42C83.6158 293.997 83.7152 294.486 83.9141 294.887C84.1162 295.285 84.3963 295.588 84.7543 295.797C85.1122 296.002 85.5282 296.105 86.0021 296.105C86.3104 296.105 86.5888 296.062 86.8374 295.976C87.0893 295.886 87.3063 295.754 87.4886 295.578C87.6709 295.399 87.8118 295.177 87.9112 294.912L89.0447 295.23C88.9254 295.615 88.7249 295.953 88.4432 296.244C88.1615 296.533 87.8134 296.758 87.3991 296.92C86.9848 297.08 86.5192 297.159 86.0021 297.159ZM94.2699 289.364V290.358H90.3125V289.364H94.2699ZM91.4659 287.534H92.6392V294.812C92.6392 295.144 92.6873 295.393 92.7834 295.558C92.8828 295.721 93.0088 295.83 93.1612 295.886C93.317 295.939 93.4811 295.966 93.6534 295.966C93.7827 295.966 93.8887 295.959 93.9716 295.946C94.0545 295.929 94.1207 295.916 94.1705 295.906L94.4091 296.96C94.3295 296.99 94.2185 297.02 94.076 297.05C93.9335 297.083 93.7528 297.099 93.5341 297.099C93.2027 297.099 92.8778 297.028 92.5597 296.886C92.2448 296.743 91.983 296.526 91.7741 296.234C91.5687 295.943 91.4659 295.575 91.4659 295.131V287.534ZM96.0348 297V289.364H97.2081V297H96.0348ZM96.6314 288.091C96.4027 288.091 96.2055 288.013 96.0398 287.857C95.8774 287.701 95.7962 287.514 95.7962 287.295C95.7962 287.077 95.8774 286.889 96.0398 286.734C96.2055 286.578 96.4027 286.5 96.6314 286.5C96.8601 286.5 97.0556 286.578 97.218 286.734C97.3838 286.889 97.4666 287.077 97.4666 287.295C97.4666 287.514 97.3838 287.701 97.218 287.857C97.0556 288.013 96.8601 288.091 96.6314 288.091ZM99.3571 297V289.364H100.491V290.517H100.57C100.709 290.139 100.961 289.833 101.326 289.597C101.69 289.362 102.101 289.244 102.559 289.244C102.645 289.244 102.753 289.246 102.882 289.249C103.011 289.253 103.109 289.258 103.175 289.264V290.457C103.135 290.447 103.044 290.433 102.902 290.413C102.763 290.389 102.615 290.378 102.459 290.378C102.088 290.378 101.757 290.456 101.465 290.612C101.177 290.764 100.948 290.976 100.779 291.248C100.613 291.516 100.53 291.823 100.53 292.168V297H99.3571ZM107.535 297.159C106.8 297.159 106.165 296.997 105.631 296.672C105.101 296.344 104.692 295.886 104.403 295.3C104.118 294.71 103.976 294.024 103.976 293.241C103.976 292.459 104.118 291.77 104.403 291.173C104.692 290.573 105.093 290.106 105.606 289.771C106.123 289.433 106.727 289.264 107.416 289.264C107.814 289.264 108.206 289.33 108.594 289.463C108.982 289.596 109.335 289.811 109.653 290.109C109.971 290.404 110.225 290.795 110.414 291.283C110.603 291.77 110.697 292.37 110.697 293.082V293.58H104.811V292.565H109.504C109.504 292.134 109.418 291.75 109.246 291.412C109.077 291.074 108.835 290.807 108.52 290.612C108.208 290.416 107.84 290.318 107.416 290.318C106.949 290.318 106.544 290.434 106.203 290.666C105.865 290.895 105.605 291.193 105.422 291.561C105.24 291.929 105.149 292.323 105.149 292.744V293.42C105.149 293.997 105.248 294.486 105.447 294.887C105.649 295.285 105.93 295.588 106.287 295.797C106.645 296.002 107.061 296.105 107.535 296.105C107.844 296.105 108.122 296.062 108.371 295.976C108.622 295.886 108.84 295.754 109.022 295.578C109.204 295.399 109.345 295.177 109.444 294.912L110.578 295.23C110.459 295.615 110.258 295.953 109.976 296.244C109.695 296.533 109.347 296.758 108.932 296.92C108.518 297.08 108.052 297.159 107.535 297.159ZM112.482 297V289.364H113.616V290.557H113.715C113.874 290.149 114.131 289.833 114.486 289.607C114.84 289.379 115.266 289.264 115.763 289.264C116.267 289.264 116.686 289.379 117.021 289.607C117.359 289.833 117.623 290.149 117.812 290.557H117.891C118.087 290.162 118.38 289.849 118.771 289.617C119.162 289.382 119.631 289.264 120.178 289.264C120.861 289.264 121.419 289.478 121.854 289.906C122.288 290.33 122.505 290.991 122.505 291.889V297H121.331V291.889C121.331 291.326 121.177 290.923 120.869 290.681C120.561 290.439 120.198 290.318 119.78 290.318C119.243 290.318 118.827 290.481 118.532 290.805C118.238 291.127 118.09 291.535 118.09 292.028V297H116.897V291.77C116.897 291.336 116.756 290.986 116.474 290.721C116.193 290.452 115.83 290.318 115.385 290.318C115.081 290.318 114.796 290.399 114.53 290.562C114.269 290.724 114.056 290.95 113.894 291.238C113.735 291.523 113.655 291.853 113.655 292.227V297H112.482ZM127.852 297.159C127.116 297.159 126.481 296.997 125.948 296.672C125.417 296.344 125.008 295.886 124.72 295.3C124.435 294.71 124.292 294.024 124.292 293.241C124.292 292.459 124.435 291.77 124.72 291.173C125.008 290.573 125.409 290.106 125.923 289.771C126.44 289.433 127.043 289.264 127.732 289.264C128.13 289.264 128.523 289.33 128.911 289.463C129.298 289.596 129.651 289.811 129.97 290.109C130.288 290.404 130.541 290.795 130.73 291.283C130.919 291.77 131.014 292.37 131.014 293.082V293.58H125.127V292.565H129.82C129.82 292.134 129.734 291.75 129.562 291.412C129.393 291.074 129.151 290.807 128.836 290.612C128.525 290.416 128.157 290.318 127.732 290.318C127.265 290.318 126.861 290.434 126.519 290.666C126.181 290.895 125.921 291.193 125.739 291.561C125.557 291.929 125.465 292.323 125.465 292.744V293.42C125.465 293.997 125.565 294.486 125.764 294.887C125.966 295.285 126.246 295.588 126.604 295.797C126.962 296.002 127.378 296.105 127.852 296.105C128.16 296.105 128.438 296.062 128.687 295.976C128.939 295.886 129.156 295.754 129.338 295.578C129.521 295.399 129.661 295.177 129.761 294.912L130.894 295.23C130.775 295.615 130.575 295.953 130.293 296.244C130.011 296.533 129.663 296.758 129.249 296.92C128.834 297.08 128.369 297.159 127.852 297.159ZM133.972 292.406V297H132.798V289.364H133.932V290.557H134.031C134.21 290.169 134.482 289.857 134.847 289.622C135.211 289.384 135.682 289.264 136.259 289.264C136.776 289.264 137.228 289.37 137.616 289.582C138.004 289.791 138.305 290.109 138.521 290.537C138.736 290.961 138.844 291.498 138.844 292.148V297H137.671V292.227C137.671 291.627 137.515 291.16 137.203 290.825C136.892 290.487 136.464 290.318 135.921 290.318C135.546 290.318 135.211 290.399 134.916 290.562C134.625 290.724 134.394 290.961 134.225 291.273C134.056 291.584 133.972 291.962 133.972 292.406ZM144.309 289.364V290.358H140.352V289.364H144.309ZM141.505 287.534H142.678V294.812C142.678 295.144 142.726 295.393 142.822 295.558C142.922 295.721 143.048 295.83 143.2 295.886C143.356 295.939 143.52 295.966 143.692 295.966C143.822 295.966 143.928 295.959 144.011 295.946C144.094 295.929 144.16 295.916 144.21 295.906L144.448 296.96C144.369 296.99 144.258 297.02 144.115 297.05C143.973 297.083 143.792 297.099 143.573 297.099C143.242 297.099 142.917 297.028 142.599 296.886C142.284 296.743 142.022 296.526 141.813 296.234C141.608 295.943 141.505 295.575 141.505 295.131V287.534Z" fill="black"/>
<path d="M82.818 237.909C82.818 238.983 82.6241 239.911 82.2363 240.693C81.8485 241.475 81.3166 242.079 80.6404 242.503C79.9643 242.927 79.1921 243.139 78.3237 243.139C77.4553 243.139 76.6831 242.927 76.0069 242.503C75.3308 242.079 74.7988 241.475 74.411 240.693C74.0233 239.911 73.8294 238.983 73.8294 237.909C73.8294 236.835 74.0233 235.907 74.411 235.125C74.7988 234.343 75.3308 233.74 76.0069 233.315C76.6831 232.891 77.4553 232.679 78.3237 232.679C79.1921 232.679 79.9643 232.891 80.6404 233.315C81.3166 233.74 81.8485 234.343 82.2363 235.125C82.6241 235.907 82.818 236.835 82.818 237.909ZM81.6248 237.909C81.6248 237.027 81.4773 236.283 81.1824 235.677C80.8907 235.07 80.4946 234.611 79.9941 234.3C79.497 233.988 78.9402 233.832 78.3237 233.832C77.7072 233.832 77.1487 233.988 76.6483 234.3C76.1511 234.611 75.755 235.07 75.46 235.677C75.1684 236.283 75.0225 237.027 75.0225 237.909C75.0225 238.791 75.1684 239.535 75.46 240.141C75.755 240.748 76.1511 241.207 76.6483 241.518C77.1487 241.83 77.7072 241.986 78.3237 241.986C78.9402 241.986 79.497 241.83 79.9941 241.518C80.4946 241.207 80.8907 240.748 81.1824 240.141C81.4773 239.535 81.6248 238.791 81.6248 237.909ZM86.4622 243L84.1355 235.364H85.3684L87.019 241.21H87.0985L88.7292 235.364H89.9821L91.5929 241.19H91.6724L93.323 235.364H94.5559L92.2292 243H91.0758L89.4054 237.134H89.286L87.6156 243H86.4622ZM97.2804 238.406V243H96.1071V235.364H97.2406V236.557H97.34C97.519 236.169 97.7908 235.857 98.1554 235.622C98.5199 235.384 98.9906 235.264 99.5673 235.264C100.084 235.264 100.537 235.37 100.925 235.582C101.312 235.791 101.614 236.109 101.829 236.537C102.045 236.961 102.153 237.498 102.153 238.148V243H100.979V238.227C100.979 237.627 100.823 237.16 100.512 236.825C100.2 236.487 99.7728 236.318 99.2292 236.318C98.8547 236.318 98.5199 236.399 98.225 236.562C97.9333 236.724 97.7029 236.961 97.5339 237.273C97.3649 237.584 97.2804 237.962 97.2804 238.406ZM107.498 243.159C106.762 243.159 106.128 242.997 105.594 242.672C105.064 242.344 104.654 241.886 104.366 241.3C104.081 240.71 103.939 240.024 103.939 239.241C103.939 238.459 104.081 237.77 104.366 237.173C104.654 236.573 105.056 236.106 105.569 235.771C106.086 235.433 106.69 235.264 107.379 235.264C107.777 235.264 108.169 235.33 108.557 235.463C108.945 235.596 109.298 235.811 109.616 236.109C109.934 236.404 110.188 236.795 110.377 237.283C110.566 237.77 110.66 238.37 110.66 239.082V239.58H104.774V238.565H109.467C109.467 238.134 109.381 237.75 109.208 237.412C109.039 237.074 108.797 236.807 108.483 236.612C108.171 236.416 107.803 236.318 107.379 236.318C106.912 236.318 106.507 236.434 106.166 236.666C105.828 236.895 105.568 237.193 105.385 237.561C105.203 237.929 105.112 238.323 105.112 238.744V239.42C105.112 239.997 105.211 240.486 105.41 240.887C105.612 241.285 105.892 241.588 106.25 241.797C106.608 242.002 107.024 242.105 107.498 242.105C107.806 242.105 108.085 242.062 108.333 241.976C108.585 241.886 108.802 241.754 108.985 241.578C109.167 241.399 109.308 241.177 109.407 240.912L110.541 241.23C110.422 241.615 110.221 241.953 109.939 242.244C109.658 242.533 109.31 242.758 108.895 242.92C108.481 243.08 108.015 243.159 107.498 243.159ZM112.445 243V235.364H113.578V236.517H113.658C113.797 236.139 114.049 235.833 114.414 235.597C114.778 235.362 115.189 235.244 115.647 235.244C115.733 235.244 115.841 235.246 115.97 235.249C116.099 235.253 116.197 235.258 116.263 235.264V236.457C116.223 236.447 116.132 236.433 115.99 236.413C115.85 236.389 115.703 236.378 115.547 236.378C115.176 236.378 114.845 236.456 114.553 236.612C114.265 236.764 114.036 236.976 113.867 237.248C113.701 237.516 113.618 237.823 113.618 238.168V243H112.445ZM123.063 237.074L122.009 237.372C121.943 237.196 121.845 237.026 121.716 236.86C121.59 236.691 121.417 236.552 121.199 236.442C120.98 236.333 120.7 236.278 120.358 236.278C119.891 236.278 119.502 236.386 119.19 236.602C118.882 236.814 118.728 237.084 118.728 237.412C118.728 237.704 118.834 237.934 119.046 238.103C119.258 238.272 119.59 238.413 120.04 238.526L121.174 238.804C121.857 238.97 122.365 239.223 122.7 239.565C123.035 239.903 123.202 240.339 123.202 240.872C123.202 241.31 123.076 241.701 122.824 242.045C122.576 242.39 122.228 242.662 121.78 242.861C121.333 243.06 120.813 243.159 120.219 243.159C119.44 243.159 118.796 242.99 118.285 242.652C117.775 242.314 117.452 241.82 117.316 241.17L118.43 240.892C118.536 241.303 118.736 241.611 119.031 241.817C119.329 242.022 119.719 242.125 120.199 242.125C120.746 242.125 121.18 242.009 121.502 241.777C121.827 241.542 121.989 241.26 121.989 240.932C121.989 240.667 121.896 240.445 121.711 240.266C121.525 240.083 121.24 239.947 120.856 239.858L119.583 239.56C118.884 239.394 118.37 239.137 118.042 238.789C117.717 238.438 117.555 237.999 117.555 237.472C117.555 237.041 117.675 236.66 117.917 236.328C118.163 235.997 118.496 235.737 118.917 235.548C119.341 235.359 119.822 235.264 120.358 235.264C121.114 235.264 121.707 235.43 122.138 235.761C122.573 236.093 122.881 236.53 123.063 237.074ZM131.789 243.159C131.153 243.159 130.591 242.998 130.104 242.677C129.617 242.352 129.236 241.895 128.961 241.305C128.685 240.711 128.548 240.01 128.548 239.202C128.548 238.4 128.685 237.704 128.961 237.114C129.236 236.524 129.618 236.068 130.109 235.746C130.6 235.425 131.166 235.264 131.809 235.264C132.306 235.264 132.699 235.347 132.988 235.513C133.279 235.675 133.501 235.861 133.654 236.07C133.81 236.275 133.931 236.444 134.017 236.577H134.116V232.818H135.289V243H134.156V241.827H134.017C133.931 241.966 133.808 242.142 133.649 242.354C133.49 242.562 133.263 242.75 132.968 242.915C132.673 243.078 132.28 243.159 131.789 243.159ZM131.949 242.105C132.419 242.105 132.817 241.982 133.142 241.737C133.467 241.489 133.713 241.146 133.882 240.708C134.051 240.267 134.136 239.759 134.136 239.182C134.136 238.612 134.053 238.113 133.887 237.685C133.722 237.254 133.476 236.92 133.152 236.681C132.827 236.439 132.426 236.318 131.949 236.318C131.451 236.318 131.037 236.446 130.706 236.701C130.377 236.953 130.131 237.296 129.965 237.73C129.802 238.161 129.721 238.645 129.721 239.182C129.721 239.725 129.804 240.219 129.97 240.663C130.139 241.104 130.387 241.455 130.716 241.717C131.047 241.976 131.458 242.105 131.949 242.105ZM137.601 243V235.364H138.735V236.517H138.814C138.953 236.139 139.205 235.833 139.57 235.597C139.935 235.362 140.346 235.244 140.803 235.244C140.889 235.244 140.997 235.246 141.126 235.249C141.255 235.253 141.353 235.258 141.419 235.264V236.457C141.38 236.447 141.288 236.433 141.146 236.413C141.007 236.389 140.859 236.378 140.703 236.378C140.332 236.378 140.001 236.456 139.709 236.612C139.421 236.764 139.192 236.976 139.023 237.248C138.857 237.516 138.775 237.823 138.775 238.168V243H137.601ZM145.057 243.179C144.573 243.179 144.134 243.088 143.74 242.906C143.345 242.72 143.032 242.453 142.8 242.105C142.568 241.754 142.452 241.33 142.452 240.832C142.452 240.395 142.538 240.04 142.711 239.768C142.883 239.493 143.113 239.278 143.402 239.122C143.69 238.966 144.008 238.85 144.356 238.774C144.708 238.695 145.061 238.632 145.415 238.585C145.879 238.526 146.256 238.481 146.544 238.451C146.836 238.418 147.048 238.363 147.18 238.287C147.316 238.211 147.384 238.078 147.384 237.889V237.849C147.384 237.359 147.25 236.978 146.981 236.706C146.716 236.434 146.314 236.298 145.773 236.298C145.213 236.298 144.774 236.421 144.456 236.666C144.138 236.911 143.914 237.173 143.785 237.452L142.671 237.054C142.87 236.59 143.135 236.229 143.466 235.97C143.801 235.708 144.166 235.526 144.56 235.423C144.958 235.317 145.349 235.264 145.733 235.264C145.979 235.264 146.26 235.294 146.579 235.354C146.9 235.41 147.21 235.528 147.508 235.707C147.81 235.886 148.06 236.156 148.259 236.517C148.458 236.878 148.557 237.362 148.557 237.969V243H147.384V241.966H147.324C147.245 242.132 147.112 242.309 146.927 242.498C146.741 242.687 146.494 242.848 146.186 242.98C145.878 243.113 145.501 243.179 145.057 243.179ZM145.236 242.125C145.7 242.125 146.091 242.034 146.41 241.852C146.731 241.669 146.973 241.434 147.135 241.146C147.301 240.857 147.384 240.554 147.384 240.236V239.162C147.334 239.222 147.225 239.276 147.056 239.326C146.89 239.372 146.698 239.414 146.479 239.45C146.264 239.483 146.053 239.513 145.848 239.54C145.646 239.563 145.482 239.583 145.356 239.599C145.051 239.639 144.766 239.704 144.501 239.793C144.239 239.879 144.027 240.01 143.864 240.186C143.705 240.358 143.626 240.594 143.626 240.892C143.626 241.3 143.776 241.608 144.078 241.817C144.383 242.022 144.769 242.125 145.236 242.125ZM152.429 243L150.102 235.364H151.335L152.986 241.21H153.065L154.696 235.364H155.949L157.56 241.19H157.639L159.29 235.364H160.523L158.196 243H157.043L155.372 237.134H155.253L153.582 243H152.429Z" fill="black"/>
<path d="M74.229 351V340.818H77.6694C78.4648 340.818 79.1178 340.954 79.6282 341.226C80.1386 341.494 80.5165 341.864 80.7617 342.335C81.007 342.805 81.1296 343.34 81.1296 343.94C81.1296 344.54 81.007 345.072 80.7617 345.536C80.5165 346 80.1403 346.365 79.6332 346.63C79.1261 346.892 78.4781 347.023 77.6893 347.023H74.9052V345.909H77.6495C78.1931 345.909 78.6306 345.83 78.962 345.67C79.2968 345.511 79.5387 345.286 79.6879 344.994C79.8403 344.699 79.9165 344.348 79.9165 343.94C79.9165 343.533 79.8403 343.176 79.6879 342.871C79.5354 342.567 79.2918 342.331 78.957 342.165C78.6223 341.996 78.1798 341.912 77.6296 341.912H75.462V351H74.229ZM79.0217 346.426L81.5273 351H80.0955L77.6296 346.426H79.0217ZM85.2722 351.179C84.7883 351.179 84.3491 351.088 83.9547 350.906C83.5603 350.72 83.2471 350.453 83.0151 350.105C82.7831 349.754 82.6671 349.33 82.6671 348.832C82.6671 348.395 82.7533 348.04 82.9256 347.768C83.098 347.493 83.3283 347.278 83.6167 347.122C83.905 346.966 84.2232 346.85 84.5712 346.774C84.9225 346.695 85.2755 346.632 85.6301 346.585C86.0942 346.526 86.4703 346.481 86.7587 346.451C87.0504 346.418 87.2625 346.363 87.3951 346.287C87.531 346.211 87.5989 346.078 87.5989 345.889V345.849C87.5989 345.359 87.4647 344.978 87.1962 344.706C86.931 344.434 86.5284 344.298 85.9881 344.298C85.428 344.298 84.9888 344.421 84.6706 344.666C84.3525 344.911 84.1287 345.173 83.9995 345.452L82.8858 345.054C83.0847 344.59 83.3498 344.229 83.6813 343.97C84.016 343.708 84.3806 343.526 84.775 343.423C85.1728 343.317 85.5639 343.264 85.9483 343.264C86.1936 343.264 86.4753 343.294 86.7935 343.354C87.115 343.41 87.4249 343.528 87.7232 343.707C88.0248 343.886 88.275 344.156 88.4739 344.517C88.6728 344.878 88.7722 345.362 88.7722 345.969V351H87.5989V349.966H87.5392C87.4597 350.132 87.3271 350.309 87.1415 350.498C86.9559 350.687 86.709 350.848 86.4007 350.98C86.0925 351.113 85.7163 351.179 85.2722 351.179ZM85.4512 350.125C85.9152 350.125 86.3063 350.034 86.6245 349.852C86.946 349.669 87.1879 349.434 87.3503 349.146C87.516 348.857 87.5989 348.554 87.5989 348.236V347.162C87.5492 347.222 87.4398 347.276 87.2708 347.326C87.1051 347.372 86.9128 347.414 86.6941 347.45C86.4786 347.483 86.2682 347.513 86.0627 347.54C85.8605 347.563 85.6964 347.583 85.5705 347.599C85.2656 347.639 84.9805 347.704 84.7154 347.793C84.4535 347.879 84.2414 348.01 84.079 348.186C83.9199 348.358 83.8404 348.594 83.8404 348.892C83.8404 349.3 83.9912 349.608 84.2928 349.817C84.5977 350.022 84.9838 350.125 85.4512 350.125ZM90.9137 351V343.364H92.087V351H90.9137ZM91.5103 342.091C91.2816 342.091 91.0844 342.013 90.9187 341.857C90.7563 341.701 90.6751 341.514 90.6751 341.295C90.6751 341.077 90.7563 340.889 90.9187 340.734C91.0844 340.578 91.2816 340.5 91.5103 340.5C91.739 340.5 91.9345 340.578 92.0969 340.734C92.2627 340.889 92.3455 341.077 92.3455 341.295C92.3455 341.514 92.2627 341.701 92.0969 341.857C91.9345 342.013 91.739 342.091 91.5103 342.091ZM95.4093 346.406V351H94.236V343.364H95.3695V344.557H95.4689C95.6479 344.169 95.9197 343.857 96.2843 343.622C96.6489 343.384 97.1195 343.264 97.6962 343.264C98.2132 343.264 98.6657 343.37 99.0534 343.582C99.4412 343.791 99.7428 344.109 99.9583 344.537C100.174 344.961 100.281 345.498 100.281 346.148V351H99.1081V346.227C99.1081 345.627 98.9524 345.16 98.6408 344.825C98.3292 344.487 97.9017 344.318 97.3581 344.318C96.9836 344.318 96.6489 344.399 96.3539 344.562C96.0622 344.724 95.8319 344.961 95.6628 345.273C95.4938 345.584 95.4093 345.962 95.4093 346.406ZM102.908 353.864C102.709 353.864 102.531 353.847 102.376 353.814C102.22 353.784 102.112 353.754 102.053 353.724L102.351 352.69C102.636 352.763 102.888 352.79 103.107 352.77C103.325 352.75 103.519 352.652 103.688 352.477C103.861 352.304 104.018 352.024 104.161 351.636L104.379 351.04L101.555 343.364H102.828L104.936 349.449H105.016L107.124 343.364H108.396L105.155 352.114C105.009 352.508 104.828 352.835 104.613 353.093C104.397 353.355 104.147 353.549 103.862 353.675C103.58 353.801 103.262 353.864 102.908 353.864ZM116.766 351.159C116.13 351.159 115.568 350.998 115.081 350.677C114.593 350.352 114.212 349.895 113.937 349.305C113.662 348.711 113.525 348.01 113.525 347.202C113.525 346.4 113.662 345.704 113.937 345.114C114.212 344.524 114.595 344.068 115.086 343.746C115.576 343.425 116.143 343.264 116.786 343.264C117.283 343.264 117.676 343.347 117.964 343.513C118.256 343.675 118.478 343.861 118.63 344.07C118.786 344.275 118.907 344.444 118.993 344.577H119.093V340.818H120.266V351H119.132V349.827H118.993C118.907 349.966 118.784 350.142 118.625 350.354C118.466 350.562 118.239 350.75 117.944 350.915C117.649 351.078 117.257 351.159 116.766 351.159ZM116.925 350.105C117.396 350.105 117.793 349.982 118.118 349.737C118.443 349.489 118.69 349.146 118.859 348.708C119.028 348.267 119.113 347.759 119.113 347.182C119.113 346.612 119.03 346.113 118.864 345.685C118.698 345.254 118.453 344.92 118.128 344.681C117.803 344.439 117.402 344.318 116.925 344.318C116.428 344.318 116.014 344.446 115.682 344.701C115.354 344.953 115.107 345.296 114.941 345.73C114.779 346.161 114.698 346.645 114.698 347.182C114.698 347.725 114.781 348.219 114.946 348.663C115.115 349.104 115.364 349.455 115.692 349.717C116.024 349.976 116.435 350.105 116.925 350.105ZM124.825 351.179C124.341 351.179 123.902 351.088 123.507 350.906C123.113 350.72 122.8 350.453 122.568 350.105C122.336 349.754 122.22 349.33 122.22 348.832C122.22 348.395 122.306 348.04 122.478 347.768C122.651 347.493 122.881 347.278 123.169 347.122C123.458 346.966 123.776 346.85 124.124 346.774C124.475 346.695 124.828 346.632 125.183 346.585C125.647 346.526 126.023 346.481 126.311 346.451C126.603 346.418 126.815 346.363 126.948 346.287C127.084 346.211 127.152 346.078 127.152 345.889V345.849C127.152 345.359 127.017 344.978 126.749 344.706C126.484 344.434 126.081 344.298 125.541 344.298C124.981 344.298 124.542 344.421 124.223 344.666C123.905 344.911 123.681 345.173 123.552 345.452L122.439 345.054C122.637 344.59 122.903 344.229 123.234 343.97C123.569 343.708 123.933 343.526 124.328 343.423C124.725 343.317 125.117 343.264 125.501 343.264C125.746 343.264 126.028 343.294 126.346 343.354C126.668 343.41 126.978 343.528 127.276 343.707C127.578 343.886 127.828 344.156 128.027 344.517C128.225 344.878 128.325 345.362 128.325 345.969V351H127.152V349.966H127.092C127.012 350.132 126.88 350.309 126.694 350.498C126.509 350.687 126.262 350.848 125.953 350.98C125.645 351.113 125.269 351.179 124.825 351.179ZM125.004 350.125C125.468 350.125 125.859 350.034 126.177 349.852C126.499 349.669 126.741 349.434 126.903 349.146C127.069 348.857 127.152 348.554 127.152 348.236V347.162C127.102 347.222 126.993 347.276 126.824 347.326C126.658 347.372 126.466 347.414 126.247 347.45C126.031 347.483 125.821 347.513 125.615 347.54C125.413 347.563 125.249 347.583 125.123 347.599C124.818 347.639 124.533 347.704 124.268 347.793C124.006 347.879 123.794 348.01 123.632 348.186C123.473 348.358 123.393 348.594 123.393 348.892C123.393 349.3 123.544 349.608 123.846 349.817C124.15 350.022 124.537 350.125 125.004 350.125ZM130.949 353.864C130.75 353.864 130.573 353.847 130.417 353.814C130.261 353.784 130.153 353.754 130.094 353.724L130.392 352.69C130.677 352.763 130.929 352.79 131.148 352.77C131.366 352.75 131.56 352.652 131.729 352.477C131.902 352.304 132.059 352.024 132.202 351.636L132.42 351.04L129.596 343.364H130.869L132.977 349.449H133.057L135.165 343.364H136.437L133.196 352.114C133.05 352.508 132.869 352.835 132.654 353.093C132.439 353.355 132.188 353.549 131.903 353.675C131.622 353.801 131.303 353.864 130.949 353.864ZM145.125 351.159C144.389 351.159 143.755 350.997 143.221 350.672C142.691 350.344 142.281 349.886 141.993 349.3C141.708 348.71 141.566 348.024 141.566 347.241C141.566 346.459 141.708 345.77 141.993 345.173C142.281 344.573 142.682 344.106 143.196 343.771C143.713 343.433 144.316 343.264 145.006 343.264C145.404 343.264 145.796 343.33 146.184 343.463C146.572 343.596 146.925 343.811 147.243 344.109C147.561 344.404 147.815 344.795 148.004 345.283C148.193 345.77 148.287 346.37 148.287 347.082V347.58H142.401V346.565H147.094C147.094 346.134 147.008 345.75 146.835 345.412C146.666 345.074 146.424 344.807 146.11 344.612C145.798 344.416 145.43 344.318 145.006 344.318C144.539 344.318 144.134 344.434 143.793 344.666C143.455 344.895 143.195 345.193 143.012 345.561C142.83 345.929 142.739 346.323 142.739 346.744V347.42C142.739 347.997 142.838 348.486 143.037 348.887C143.239 349.285 143.519 349.588 143.877 349.797C144.235 350.002 144.651 350.105 145.125 350.105C145.433 350.105 145.712 350.062 145.96 349.976C146.212 349.886 146.429 349.754 146.612 349.578C146.794 349.399 146.935 349.177 147.034 348.912L148.168 349.23C148.048 349.615 147.848 349.953 147.566 350.244C147.285 350.533 146.936 350.758 146.522 350.92C146.108 351.08 145.642 351.159 145.125 351.159ZM150.742 343.364L152.571 346.486L154.401 343.364H155.753L153.287 347.182L155.753 351H154.401L152.571 348.037L150.742 351H149.39L151.816 347.182L149.39 343.364H150.742ZM157.427 353.864V343.364H158.561V344.577H158.7C158.786 344.444 158.906 344.275 159.058 344.07C159.214 343.861 159.436 343.675 159.724 343.513C160.016 343.347 160.41 343.264 160.907 343.264C161.55 343.264 162.117 343.425 162.608 343.746C163.098 344.068 163.481 344.524 163.756 345.114C164.031 345.704 164.169 346.4 164.169 347.202C164.169 348.01 164.031 348.711 163.756 349.305C163.481 349.895 163.1 350.352 162.613 350.677C162.126 350.998 161.564 351.159 160.927 351.159C160.437 351.159 160.044 351.078 159.749 350.915C159.454 350.75 159.227 350.562 159.068 350.354C158.909 350.142 158.786 349.966 158.7 349.827H158.601V353.864H157.427ZM158.581 347.182C158.581 347.759 158.665 348.267 158.834 348.708C159.003 349.146 159.25 349.489 159.575 349.737C159.9 349.982 160.298 350.105 160.768 350.105C161.259 350.105 161.668 349.976 161.996 349.717C162.328 349.455 162.576 349.104 162.742 348.663C162.911 348.219 162.996 347.725 162.996 347.182C162.996 346.645 162.913 346.161 162.747 345.73C162.585 345.296 162.338 344.953 162.006 344.701C161.678 344.446 161.265 344.318 160.768 344.318C160.291 344.318 159.89 344.439 159.565 344.681C159.24 344.92 158.995 345.254 158.829 345.685C158.664 346.113 158.581 346.612 158.581 347.182ZM169.16 351.159C168.425 351.159 167.79 350.997 167.256 350.672C166.726 350.344 166.317 349.886 166.028 349.3C165.743 348.71 165.601 348.024 165.601 347.241C165.601 346.459 165.743 345.77 166.028 345.173C166.317 344.573 166.718 344.106 167.231 343.771C167.748 343.433 168.352 343.264 169.041 343.264C169.439 343.264 169.831 343.33 170.219 343.463C170.607 343.596 170.96 343.811 171.278 344.109C171.596 344.404 171.85 344.795 172.039 345.283C172.228 345.77 172.322 346.37 172.322 347.082V347.58H166.436V346.565H171.129C171.129 346.134 171.043 345.75 170.871 345.412C170.702 345.074 170.46 344.807 170.145 344.612C169.833 344.416 169.465 344.318 169.041 344.318C168.574 344.318 168.169 344.434 167.828 344.666C167.49 344.895 167.23 345.193 167.047 345.561C166.865 345.929 166.774 346.323 166.774 346.744V347.42C166.774 347.997 166.873 348.486 167.072 348.887C167.274 349.285 167.555 349.588 167.912 349.797C168.27 350.002 168.686 350.105 169.16 350.105C169.469 350.105 169.747 350.062 169.996 349.976C170.247 349.886 170.465 349.754 170.647 349.578C170.829 349.399 170.97 349.177 171.069 348.912L172.203 349.23C172.084 349.615 171.883 349.953 171.601 350.244C171.32 350.533 170.972 350.758 170.557 350.92C170.143 351.08 169.677 351.159 169.16 351.159ZM175.28 346.406V351H174.107V343.364H175.241V344.557H175.34C175.519 344.169 175.791 343.857 176.155 343.622C176.52 343.384 176.991 343.264 177.567 343.264C178.084 343.264 178.537 343.37 178.925 343.582C179.312 343.791 179.614 344.109 179.829 344.537C180.045 344.961 180.153 345.498 180.153 346.148V351H178.979V346.227C178.979 345.627 178.823 345.16 178.512 344.825C178.2 344.487 177.773 344.318 177.229 344.318C176.855 344.318 176.52 344.399 176.225 344.562C175.933 344.724 175.703 344.961 175.534 345.273C175.365 345.584 175.28 345.962 175.28 346.406ZM187.706 345.074L186.652 345.372C186.585 345.196 186.488 345.026 186.358 344.86C186.232 344.691 186.06 344.552 185.841 344.442C185.623 344.333 185.342 344.278 185.001 344.278C184.534 344.278 184.144 344.386 183.833 344.602C183.525 344.814 183.37 345.084 183.37 345.412C183.37 345.704 183.476 345.934 183.689 346.103C183.901 346.272 184.232 346.413 184.683 346.526L185.816 346.804C186.499 346.97 187.008 347.223 187.343 347.565C187.677 347.903 187.845 348.339 187.845 348.872C187.845 349.31 187.719 349.701 187.467 350.045C187.218 350.39 186.87 350.662 186.423 350.861C185.975 351.06 185.455 351.159 184.862 351.159C184.083 351.159 183.438 350.99 182.928 350.652C182.417 350.314 182.094 349.82 181.958 349.17L183.072 348.892C183.178 349.303 183.379 349.611 183.674 349.817C183.972 350.022 184.361 350.125 184.842 350.125C185.389 350.125 185.823 350.009 186.145 349.777C186.469 349.542 186.632 349.26 186.632 348.932C186.632 348.667 186.539 348.445 186.353 348.266C186.168 348.083 185.883 347.947 185.498 347.858L184.225 347.56C183.526 347.394 183.012 347.137 182.684 346.789C182.359 346.438 182.197 345.999 182.197 345.472C182.197 345.041 182.318 344.66 182.56 344.328C182.805 343.997 183.138 343.737 183.559 343.548C183.984 343.359 184.464 343.264 185.001 343.264C185.757 343.264 186.35 343.43 186.781 343.761C187.215 344.093 187.523 344.53 187.706 345.074ZM192.813 351.159C192.077 351.159 191.442 350.997 190.909 350.672C190.378 350.344 189.969 349.886 189.681 349.3C189.396 348.71 189.253 348.024 189.253 347.241C189.253 346.459 189.396 345.77 189.681 345.173C189.969 344.573 190.37 344.106 190.884 343.771C191.401 343.433 192.004 343.264 192.693 343.264C193.091 343.264 193.484 343.33 193.872 343.463C194.259 343.596 194.612 343.811 194.931 344.109C195.249 344.404 195.502 344.795 195.691 345.283C195.88 345.77 195.975 346.37 195.975 347.082V347.58H190.088V346.565H194.781C194.781 346.134 194.695 345.75 194.523 345.412C194.354 345.074 194.112 344.807 193.797 344.612C193.485 344.416 193.118 344.318 192.693 344.318C192.226 344.318 191.822 344.434 191.48 344.666C191.142 344.895 190.882 345.193 190.7 345.561C190.517 345.929 190.426 346.323 190.426 346.744V347.42C190.426 347.997 190.526 348.486 190.725 348.887C190.927 349.285 191.207 349.588 191.565 349.797C191.923 350.002 192.339 350.105 192.813 350.105C193.121 350.105 193.399 350.062 193.648 349.976C193.9 349.886 194.117 349.754 194.299 349.578C194.481 349.399 194.622 349.177 194.722 348.912L195.855 349.23C195.736 349.615 195.535 349.953 195.254 350.244C194.972 350.533 194.624 350.758 194.21 350.92C193.795 351.08 193.33 351.159 192.813 351.159ZM203.169 345.074L202.115 345.372C202.048 345.196 201.95 345.026 201.821 344.86C201.695 344.691 201.523 344.552 201.304 344.442C201.085 344.333 200.805 344.278 200.464 344.278C199.997 344.278 199.607 344.386 199.296 344.602C198.987 344.814 198.833 345.084 198.833 345.412C198.833 345.704 198.939 345.934 199.151 346.103C199.364 346.272 199.695 346.413 200.146 346.526L201.279 346.804C201.962 346.97 202.471 347.223 202.806 347.565C203.14 347.903 203.308 348.339 203.308 348.872C203.308 349.31 203.182 349.701 202.93 350.045C202.681 350.39 202.333 350.662 201.886 350.861C201.438 351.06 200.918 351.159 200.325 351.159C199.546 351.159 198.901 350.99 198.391 350.652C197.88 350.314 197.557 349.82 197.421 349.17L198.535 348.892C198.641 349.303 198.842 349.611 199.137 349.817C199.435 350.022 199.824 350.125 200.305 350.125C200.852 350.125 201.286 350.009 201.607 349.777C201.932 349.542 202.095 349.26 202.095 348.932C202.095 348.667 202.002 348.445 201.816 348.266C201.631 348.083 201.346 347.947 200.961 347.858L199.688 347.56C198.989 347.394 198.475 347.137 198.147 346.789C197.822 346.438 197.66 345.999 197.66 345.472C197.66 345.041 197.781 344.66 198.023 344.328C198.268 343.997 198.601 343.737 199.022 343.548C199.446 343.359 199.927 343.264 200.464 343.264C201.22 343.264 201.813 343.43 202.244 343.761C202.678 344.093 202.986 344.53 203.169 345.074Z" fill="black"/>
<rect x="56" y="210" width="550" height="1" fill="#E1E1DD"/>
<rect x="56" y="318" width="550" height="1" fill="#E1E1DD"/>
<rect x="56" y="264" width="550" height="1" fill="#E1E1DD"/>
<rect x="56" y="372" width="550" height="1" fill="#E1E1DD"/>
<rect x="24.5" y="96.5" width="613" height="304" rx="7.5" stroke="#E1E1DD"/>
<path d="M26.8267 59H24.4972L29.7315 44.4545H32.267L37.5014 59H35.1719L31.0597 47.0966H30.946L26.8267 59ZM27.2173 53.304H34.7741V55.1506H27.2173V53.304ZM41.555 44.4545V59H39.4315V44.4545H41.555ZM46.5355 44.4545V59H44.4119V44.4545H46.5355ZM53.9876 59.2202C52.9648 59.2202 52.0723 58.9858 51.31 58.517C50.5477 58.0483 49.9558 57.3925 49.5344 56.5497C49.113 55.7069 48.9023 54.7221 48.9023 53.5952C48.9023 52.4635 49.113 51.474 49.5344 50.6264C49.9558 49.7789 50.5477 49.1207 51.31 48.652C52.0723 48.1832 52.9648 47.9489 53.9876 47.9489C55.0103 47.9489 55.9028 48.1832 56.6651 48.652C57.4274 49.1207 58.0193 49.7789 58.4407 50.6264C58.8621 51.474 59.0728 52.4635 59.0728 53.5952C59.0728 54.7221 58.8621 55.7069 58.4407 56.5497C58.0193 57.3925 57.4274 58.0483 56.6651 58.517C55.9028 58.9858 55.0103 59.2202 53.9876 59.2202ZM53.9947 57.4375C54.6576 57.4375 55.2068 57.2623 55.6424 56.9119C56.078 56.5616 56.4 56.0952 56.6083 55.5128C56.8214 54.9304 56.9279 54.2888 56.9279 53.5881C56.9279 52.892 56.8214 52.2528 56.6083 51.6705C56.4 51.0833 56.078 50.6122 55.6424 50.2571C55.2068 49.902 54.6576 49.7244 53.9947 49.7244C53.3271 49.7244 52.7731 49.902 52.3327 50.2571C51.8971 50.6122 51.5728 51.0833 51.3597 51.6705C51.1514 52.2528 51.0472 52.892 51.0472 53.5881C51.0472 54.2888 51.1514 54.9304 51.3597 55.5128C51.5728 56.0952 51.8971 56.5616 52.3327 56.9119C52.7731 57.2623 53.3271 57.4375 53.9947 57.4375ZM66.0384 59.2202C64.9825 59.2202 64.0734 58.9811 63.3111 58.5028C62.5535 58.0199 61.9711 57.3546 61.5639 56.5071C61.1567 55.6596 60.9531 54.6889 60.9531 53.5952C60.9531 52.4872 61.1615 51.5095 61.5781 50.6619C61.9948 49.8097 62.5819 49.1444 63.3395 48.6662C64.0971 48.188 64.9896 47.9489 66.017 47.9489C66.8456 47.9489 67.5843 48.1027 68.233 48.4105C68.8816 48.7135 69.4048 49.1397 69.8026 49.6889C70.205 50.2382 70.4441 50.8797 70.5199 51.6136H68.4531C68.3395 51.1023 68.0791 50.6619 67.6719 50.2926C67.2694 49.9233 66.7296 49.7386 66.0526 49.7386C65.4607 49.7386 64.9422 49.8949 64.4972 50.2074C64.0568 50.5152 63.7135 50.9555 63.4673 51.5284C63.2211 52.0966 63.098 52.7689 63.098 53.5455C63.098 54.3409 63.2188 55.0275 63.4602 55.6051C63.7017 56.1828 64.0426 56.6302 64.483 56.9474C64.928 57.2647 65.4512 57.4233 66.0526 57.4233C66.455 57.4233 66.8196 57.3499 67.1463 57.2031C67.4777 57.0516 67.7547 56.8362 67.9773 56.5568C68.2045 56.2775 68.3632 55.9413 68.4531 55.5483H70.5199C70.4441 56.2538 70.2145 56.8835 69.831 57.4375C69.4474 57.9915 68.9337 58.4271 68.2898 58.7443C67.6506 59.0616 66.9001 59.2202 66.0384 59.2202ZM75.9656 59.2415C75.2743 59.2415 74.6493 59.1136 74.0906 58.858C73.5318 58.5975 73.0891 58.2211 72.7624 57.7287C72.4405 57.2363 72.2795 56.6326 72.2795 55.9176C72.2795 55.3021 72.3978 54.7955 72.6346 54.3977C72.8713 54 73.1909 53.6851 73.5934 53.4531C73.9959 53.2211 74.4457 53.0459 74.9428 52.9276C75.44 52.8092 75.9466 52.7192 76.4627 52.6577C77.1161 52.5819 77.6464 52.5204 78.0536 52.473C78.4608 52.4209 78.7567 52.3381 78.9414 52.2244C79.1261 52.1108 79.2184 51.9261 79.2184 51.6705V51.6207C79.2184 51.0005 79.0432 50.5199 78.6928 50.179C78.3472 49.8381 77.8311 49.6676 77.1445 49.6676C76.4296 49.6676 75.8661 49.8262 75.4542 50.1435C75.047 50.456 74.7653 50.804 74.609 51.1875L72.6133 50.733C72.85 50.0701 73.1957 49.535 73.6502 49.1278C74.1095 48.7159 74.6374 48.4176 75.234 48.233C75.8306 48.0436 76.458 47.9489 77.1161 47.9489C77.5517 47.9489 78.0134 48.0009 78.5011 48.1051C78.9935 48.2045 79.4528 48.3892 79.8789 48.6591C80.3098 48.929 80.6625 49.3149 80.9371 49.8168C81.2118 50.3139 81.3491 50.9602 81.3491 51.7557V59H79.2752V57.5085H79.19C79.0527 57.7831 78.8467 58.053 78.5721 58.3182C78.2975 58.5833 77.9447 58.8035 77.5138 58.9787C77.083 59.1539 76.5669 59.2415 75.9656 59.2415ZM76.4272 57.5369C77.0143 57.5369 77.5162 57.4209 77.9329 57.1889C78.3543 56.9569 78.6739 56.6539 78.8917 56.2798C79.1142 55.901 79.2255 55.4962 79.2255 55.0653V53.6591C79.1497 53.7348 79.003 53.8059 78.7852 53.8722C78.5721 53.9337 78.3282 53.9882 78.0536 54.0355C77.779 54.0781 77.5115 54.1184 77.2511 54.1562C76.9906 54.1894 76.7728 54.2178 76.5977 54.2415C76.1857 54.2936 75.8093 54.3812 75.4684 54.5043C75.1322 54.6274 74.8623 54.8049 74.6587 55.0369C74.4599 55.2642 74.3604 55.5672 74.3604 55.946C74.3604 56.4716 74.5546 56.8693 74.9428 57.1392C75.3311 57.4044 75.8259 57.5369 76.4272 57.5369ZM89.2699 48.0909V49.7955H83.3111V48.0909H89.2699ZM84.9091 45.4773H87.0327V55.7969C87.0327 56.2088 87.0942 56.5189 87.2173 56.7273C87.3404 56.9309 87.4991 57.0705 87.6932 57.1463C87.892 57.2173 88.1075 57.2528 88.3395 57.2528C88.5099 57.2528 88.6591 57.241 88.7869 57.2173C88.9148 57.1937 89.0142 57.1747 89.0852 57.1605L89.4688 58.9148C89.3456 58.9621 89.1705 59.0095 88.9432 59.0568C88.7159 59.1089 88.4318 59.1373 88.0909 59.142C87.5322 59.1515 87.0114 59.0521 86.5284 58.8438C86.0455 58.6354 85.6548 58.3134 85.3565 57.8778C85.0582 57.4422 84.9091 56.8954 84.9091 56.2372V45.4773ZM91.619 59V48.0909H93.7425V59H91.619ZM92.6914 46.4077C92.3221 46.4077 92.0049 46.2846 91.7397 46.0384C91.4793 45.7874 91.3491 45.4891 91.3491 45.1435C91.3491 44.7931 91.4793 44.4948 91.7397 44.2486C92.0049 43.9976 92.3221 43.8722 92.6914 43.8722C93.0607 43.8722 93.3756 43.9976 93.636 44.2486C93.9012 44.4948 94.0337 44.7931 94.0337 45.1435C94.0337 45.4891 93.9012 45.7874 93.636 46.0384C93.3756 46.2846 93.0607 46.4077 92.6914 46.4077ZM101.195 59.2202C100.172 59.2202 99.2794 58.9858 98.517 58.517C97.7547 58.0483 97.1629 57.3925 96.7415 56.5497C96.3201 55.7069 96.1094 54.7221 96.1094 53.5952C96.1094 52.4635 96.3201 51.474 96.7415 50.6264C97.1629 49.7789 97.7547 49.1207 98.517 48.652C99.2794 48.1832 100.172 47.9489 101.195 47.9489C102.217 47.9489 103.11 48.1832 103.872 48.652C104.634 49.1207 105.226 49.7789 105.648 50.6264C106.069 51.474 106.28 52.4635 106.28 53.5952C106.28 54.7221 106.069 55.7069 105.648 56.5497C105.226 57.3925 104.634 58.0483 103.872 58.517C103.11 58.9858 102.217 59.2202 101.195 59.2202ZM101.202 57.4375C101.865 57.4375 102.414 57.2623 102.849 56.9119C103.285 56.5616 103.607 56.0952 103.815 55.5128C104.028 54.9304 104.135 54.2888 104.135 53.5881C104.135 52.892 104.028 52.2528 103.815 51.6705C103.607 51.0833 103.285 50.6122 102.849 50.2571C102.414 49.902 101.865 49.7244 101.202 49.7244C100.534 49.7244 99.9801 49.902 99.5398 50.2571C99.1042 50.6122 98.7798 51.0833 98.5668 51.6705C98.3584 52.2528 98.2543 52.892 98.2543 53.5881C98.2543 54.2888 98.3584 54.9304 98.5668 55.5128C98.7798 56.0952 99.1042 56.5616 99.5398 56.9119C99.9801 57.2623 100.534 57.4375 101.202 57.4375ZM110.774 52.5227V59H108.65V48.0909H110.689V49.8665H110.824C111.074 49.2888 111.467 48.8248 112.002 48.4744C112.542 48.1241 113.222 47.9489 114.041 47.9489C114.784 47.9489 115.435 48.1051 115.994 48.4176C116.553 48.7254 116.986 49.1847 117.294 49.7955C117.601 50.4062 117.755 51.1615 117.755 52.0611V59H115.632V52.3168C115.632 51.526 115.426 50.9081 115.014 50.4631C114.602 50.0133 114.036 49.7884 113.316 49.7884C112.824 49.7884 112.386 49.8949 112.002 50.108C111.624 50.321 111.323 50.6335 111.1 51.0455C110.883 51.4527 110.774 51.9451 110.774 52.5227ZM135.911 49.0497C135.773 48.6188 135.589 48.233 135.357 47.892C135.129 47.5464 134.857 47.2528 134.54 47.0114C134.223 46.7652 133.86 46.5781 133.453 46.4503C133.051 46.3224 132.608 46.2585 132.125 46.2585C131.306 46.2585 130.567 46.4692 129.909 46.8906C129.251 47.312 128.73 47.9299 128.347 48.7443C127.968 49.554 127.778 50.5459 127.778 51.7202C127.778 52.8991 127.97 53.8958 128.354 54.7102C128.737 55.5246 129.263 56.1425 129.93 56.5639C130.598 56.9853 131.358 57.196 132.21 57.196C133.001 57.196 133.69 57.035 134.277 56.7131C134.869 56.3911 135.326 55.9366 135.648 55.3494C135.974 54.7576 136.138 54.0616 136.138 53.2614L136.706 53.3679H132.544V51.5568H138.261V53.2116C138.261 54.4332 138.001 55.4938 137.48 56.3935C136.964 57.2884 136.249 57.9796 135.335 58.4673C134.426 58.955 133.384 59.1989 132.21 59.1989C130.894 59.1989 129.739 58.8958 128.744 58.2898C127.755 57.6837 126.983 56.8243 126.429 55.7116C125.875 54.5942 125.598 53.2685 125.598 51.7344C125.598 50.5743 125.759 49.5327 126.081 48.6094C126.403 47.6861 126.855 46.9025 127.438 46.2585C128.025 45.6098 128.714 45.1151 129.504 44.7741C130.3 44.4285 131.169 44.2557 132.111 44.2557C132.897 44.2557 133.628 44.3717 134.305 44.6037C134.987 44.8357 135.593 45.1648 136.124 45.5909C136.659 46.017 137.101 46.5237 137.452 47.1108C137.802 47.6932 138.039 48.3395 138.162 49.0497H135.911ZM147.787 54.4759V48.0909H149.918V59H147.83V57.1108H147.716C147.465 57.6932 147.063 58.1785 146.509 58.5668C145.96 58.9503 145.275 59.142 144.456 59.142C143.756 59.142 143.135 58.9882 142.596 58.6804C142.06 58.3679 141.639 57.9062 141.331 57.2955C141.028 56.6847 140.877 55.9295 140.877 55.0298V48.0909H143V54.7741C143 55.5175 143.206 56.1094 143.618 56.5497C144.03 56.9901 144.565 57.2102 145.223 57.2102C145.621 57.2102 146.016 57.1108 146.409 56.9119C146.807 56.7131 147.136 56.4124 147.397 56.0099C147.662 55.6075 147.792 55.0961 147.787 54.4759ZM152.771 59V48.0909H154.895V59H152.771ZM153.844 46.4077C153.474 46.4077 153.157 46.2846 152.892 46.0384C152.632 45.7874 152.501 45.4891 152.501 45.1435C152.501 44.7931 152.632 44.4948 152.892 44.2486C153.157 43.9976 153.474 43.8722 153.844 43.8722C154.213 43.8722 154.528 43.9976 154.788 44.2486C155.054 44.4948 155.186 44.7931 155.186 45.1435C155.186 45.4891 155.054 45.7874 154.788 46.0384C154.528 46.2846 154.213 46.4077 153.844 46.4077ZM161.836 59.2131C160.955 59.2131 160.169 58.9882 159.478 58.5384C158.791 58.0838 158.251 57.4375 157.858 56.5994C157.47 55.7566 157.276 54.7457 157.276 53.5668C157.276 52.3878 157.472 51.3793 157.865 50.5412C158.263 49.7031 158.808 49.0616 159.499 48.6165C160.19 48.1714 160.974 47.9489 161.85 47.9489C162.527 47.9489 163.071 48.0625 163.483 48.2898C163.9 48.5123 164.222 48.7727 164.449 49.071C164.681 49.3693 164.861 49.6321 164.989 49.8594H165.117V44.4545H167.24V59H165.167V57.3026H164.989C164.861 57.5346 164.676 57.7997 164.435 58.098C164.198 58.3963 163.872 58.6567 163.455 58.8793C163.038 59.1018 162.498 59.2131 161.836 59.2131ZM162.304 57.402C162.915 57.402 163.431 57.241 163.853 56.919C164.279 56.5923 164.601 56.1402 164.819 55.5625C165.041 54.9848 165.152 54.3125 165.152 53.5455C165.152 52.7879 165.043 52.125 164.826 51.5568C164.608 50.9886 164.288 50.5459 163.867 50.2287C163.445 49.9115 162.925 49.7528 162.304 49.7528C161.665 49.7528 161.132 49.9186 160.706 50.25C160.28 50.5814 159.958 51.0336 159.74 51.6065C159.527 52.1795 159.421 52.8258 159.421 53.5455C159.421 54.2746 159.53 54.9304 159.748 55.5128C159.965 56.0952 160.287 56.5568 160.713 56.8977C161.144 57.2339 161.675 57.402 162.304 57.402ZM174.973 59.2202C173.898 59.2202 172.973 58.9905 172.196 58.5312C171.424 58.0672 170.828 57.4162 170.406 56.5781C169.99 55.7353 169.781 54.7481 169.781 53.6165C169.781 52.4991 169.99 51.5142 170.406 50.6619C170.828 49.8097 171.415 49.1444 172.168 48.6662C172.925 48.188 173.811 47.9489 174.824 47.9489C175.439 47.9489 176.036 48.0507 176.614 48.2543C177.191 48.4579 177.71 48.7775 178.169 49.2131C178.628 49.6487 178.991 50.2145 179.256 50.9105C179.521 51.6018 179.653 52.4422 179.653 53.4318V54.1847H170.982V52.5938H177.572C177.572 52.035 177.459 51.5402 177.232 51.1094C177.004 50.6738 176.685 50.3305 176.273 50.0795C175.866 49.8286 175.387 49.7031 174.838 49.7031C174.241 49.7031 173.721 49.8499 173.276 50.1435C172.835 50.4323 172.494 50.8111 172.253 51.2798C172.016 51.7438 171.898 52.2481 171.898 52.7926V54.0355C171.898 54.7647 172.026 55.3849 172.281 55.8963C172.542 56.4077 172.904 56.7983 173.368 57.0682C173.832 57.3333 174.374 57.4659 174.994 57.4659C175.397 57.4659 175.764 57.4091 176.095 57.2955C176.427 57.1771 176.713 57.0019 176.955 56.7699C177.196 56.5379 177.381 56.2514 177.509 55.9105L179.518 56.2727C179.357 56.8646 179.069 57.383 178.652 57.8281C178.24 58.2685 177.722 58.6117 177.097 58.858C176.476 59.0994 175.768 59.2202 174.973 59.2202Z" fill="#1D1D1D"/>
</svg>
