<svg width="107" height="28" viewBox="0 0 107 28" fill="none" xmlns="http://www.w3.org/2000/svg">
<mask id="mask0_1133_4307" style="mask-type:alpha" maskUnits="userSpaceOnUse" x="0" y="0" width="107" height="28">
<path fill-rule="evenodd" clip-rule="evenodd" d="M0.701043 21.5773L0.683594 0.9375H35.4141V21.5773L18.0575 27.524L0.701043 21.5773ZM12.7239 20.9277H18.0303V6.40625H12.5296V14.0723C12.5296 16.3942 11.2796 16.8706 10.3357 16.8706C8.72388 16.8706 8.52939 15.6957 8.52939 14.0163V6.40625H3.02876V16.3673C3.02876 19.6973 5.39019 21.2919 7.97358 21.2919C10.1687 21.2919 11.6404 20.5376 12.6685 19.0808H12.7239V20.9277ZM27.6442 9.53874C28.0062 9.79228 28.2547 10.1557 28.2835 10.6307L33.2833 10.6309C33.1448 6.91005 29.3951 6.0421 26.2827 6.0421C23.3941 6.0421 19.4767 6.99418 19.4767 10.6586C19.4767 13.15 21.1715 14.4931 25.3663 15.2198C27.9222 15.668 28.3938 15.919 28.3938 16.7593C28.3938 17.5982 27.2554 17.8782 26.5333 17.8782C25.866 17.8782 25.3381 17.71 25.0603 17.459C24.6441 17.0944 24.421 16.6752 24.3936 16.1711H19.1433C19.2261 19.9204 22.949 21.2917 26.3388 21.2917C29.8388 21.2917 33.6727 20.2009 33.6727 16.1711C33.6727 13.7925 32.0607 12.7026 30.2283 12.1138C29.2582 11.7882 28.2184 11.6038 27.3184 11.4441C26.5164 11.3019 25.8254 11.1793 25.3935 10.9941C25.0883 10.854 24.7542 10.6584 24.7542 10.2391C24.7542 9.28847 25.6434 9.12023 26.4216 9.12023C26.8667 9.12023 27.3108 9.25942 27.6442 9.53874Z" fill="#D73749"/>
<path d="M37.3696 0.949216H42.8702V8.00012H42.9256C43.7598 6.76873 45.2316 6.04209 46.8704 6.04209C51.7045 6.04209 53.0104 10.1829 53.0104 13.5968C53.0104 17.2336 51.0377 21.2916 46.9533 21.2916C44.2591 21.2916 43.426 20.2561 42.7313 19.3322H42.6759V20.9275H37.3696V0.949216ZM45.093 10.0718C43.1203 10.0718 42.6759 11.9457 42.6759 13.6535C42.6759 15.3887 43.1203 17.2626 45.093 17.2626C47.0656 17.2626 47.51 15.3887 47.51 13.6535C47.51 11.9457 47.0656 10.0718 45.093 10.0718ZM68.3464 17.6823C68.3464 18.7736 68.4025 20.0056 69.0144 20.9282H63.4014C63.2632 20.5373 63.1804 19.9485 63.2069 19.5576H63.1522C61.9838 20.9001 60.2903 21.2916 58.5119 21.2916C55.7336 21.2916 53.4287 19.9487 53.4287 16.8985C53.4287 12.3103 58.7618 12.4779 61.5681 11.9462C62.3184 11.8063 63.068 11.5828 63.068 10.6583C63.068 9.67931 62.1506 9.31587 61.2628 9.31587C59.5672 9.31587 59.2346 10.1824 59.2066 10.7982H54.0941C54.2618 6.71343 58.095 6.04185 61.5127 6.04185C68.4023 6.04185 68.3462 8.92361 68.3462 11.7222L68.3464 17.6823ZM63.0682 14.4087C62.4014 14.7445 61.6518 14.9402 60.9024 15.1077C59.6799 15.3882 59.0398 15.6952 59.0398 16.6749C59.0398 17.3465 59.7627 18.0178 60.7626 18.0178C62.0131 18.0178 62.9847 17.2621 63.068 15.751L63.0682 14.4087ZM70.3177 6.40576H75.6241V8.25273H75.6787C76.7075 6.79732 78.1786 6.04162 80.373 6.04162C82.9571 6.04162 85.3199 7.63621 85.3199 10.9662V20.9273H79.8179V13.3175C79.8179 11.6381 79.6241 10.4627 78.0141 10.4627C77.0674 10.4627 75.8176 10.9391 75.8176 13.261V20.9275H70.3177V6.40576ZM87.2656 0.949451H92.7655V10.6035L96.2669 6.40553H102.49L97.3504 11.89L103.296 20.9277H96.6824L93.7382 15.668L92.7655 16.7305V20.9277H87.2656V0.949451ZM105.739 18.9502C105.948 19.1616 106.052 19.4165 106.052 19.7146C106.052 20.0148 105.948 20.2718 105.739 20.4844C105.532 20.6957 105.278 20.8019 104.981 20.8019C104.684 20.8019 104.43 20.6955 104.223 20.4844C104.016 20.2718 103.914 20.0148 103.914 19.7146C103.914 19.4165 104.016 19.1616 104.224 18.9502C104.434 18.7389 104.686 18.6327 104.981 18.6327C105.278 18.6327 105.531 18.7391 105.739 18.9502ZM105.863 18.8291C105.62 18.5861 105.326 18.4638 104.981 18.4638C104.638 18.4638 104.347 18.5863 104.104 18.8291C103.861 19.0747 103.74 19.3694 103.74 19.7146C103.74 20.0631 103.86 20.36 104.101 20.6048C104.342 20.8511 104.637 20.9737 104.981 20.9737C105.326 20.9737 105.62 20.8511 105.864 20.6048C106.107 20.3592 106.229 20.0626 106.229 19.7146C106.229 19.3687 106.107 19.0742 105.863 18.8291ZM105.166 19.6567C105.115 19.6762 105.039 19.6877 104.937 19.6877H104.72V19.1893H104.926C105.058 19.1893 105.156 19.2054 105.217 19.2396C105.277 19.2738 105.307 19.3413 105.307 19.4409C105.307 19.5471 105.259 19.619 105.166 19.6567ZM104.479 20.4003H104.72V19.8566H104.91C105.037 19.8566 105.128 19.8714 105.178 19.9011C105.264 19.9529 105.306 20.0579 105.306 20.2168V20.3271L105.312 20.3703C105.313 20.3771 105.315 20.3817 105.315 20.3864L105.318 20.4005H105.544L105.536 20.3836C105.528 20.3601 105.524 20.3357 105.523 20.311C105.521 20.277 105.52 20.2429 105.52 20.2088V20.1078C105.52 20.0385 105.495 19.9672 105.445 19.8939C105.395 19.8219 105.317 19.7767 105.21 19.7601C105.295 19.746 105.361 19.7238 105.409 19.6935C105.498 19.6356 105.542 19.5443 105.542 19.4217C105.542 19.2481 105.472 19.1316 105.331 19.0733C105.252 19.0402 105.128 19.0236 104.957 19.0236H104.479L104.479 20.4003Z" fill="#18488A"/>
</mask>
<g mask="url(#mask0_1133_4307)">
<rect x="-16.8076" y="-35.524" width="140.529" height="98.75" fill="white"/>
</g>
</svg>
