<svg width="60" height="60" viewBox="0 0 60 60" fill="none" xmlns="http://www.w3.org/2000/svg">
<path d="M52.5 18.5625C53.3438 19.125 54 20.0625 54 21.0938C54 22.6875 52.6875 24 51 24H8.90625C7.21875 24 6 22.6875 6 21.0938C6 20.0625 6.5625 19.125 7.40625 18.5625L29.25 6.28125C29.7188 6 30.1875 6 30.6562 6.28125L52.5 18.5625ZM50.7188 21L30 9.28125L9.1875 21H25.2188C24.8438 20.3438 24.75 19.5938 24.75 18.75C24.75 15.9375 27.0938 13.5 30 13.5C32.8125 13.5 35.25 15.9375 35.25 18.75C35.25 19.5938 35.0625 20.3438 34.6875 21H50.7188ZM30 21C31.2188 21 32.25 20.0625 32.25 18.75C32.25 17.5312 31.2188 16.5 30 16.5C28.6875 16.5 27.75 17.5312 27.75 18.75C27.75 20.0625 28.6875 21 30 21ZM12 27H15V39H22.5V27H25.5V39H34.5V27H37.5V39H45V27H48V39C48.75 39 49.5 39.75 49.5 40.5C49.5 41.3438 48.75 42 48 42H12C11.1562 42 10.5 41.3438 10.5 40.5C10.5 39.75 11.1562 39 12 39V27ZM50.25 45C51 45 51.75 45.75 51.75 46.5C51.75 47.3438 51 48 50.25 48H9.75C8.90625 48 8.25 47.3438 8.25 46.5C8.25 45.75 8.90625 45 9.75 45H50.25ZM52.5 51C53.25 51 54 51.75 54 52.5C54 53.3438 53.25 54 52.5 54H7.5C6.65625 54 6 53.3438 6 52.5C6 51.75 6.65625 51 7.5 51H52.5Z" fill="#226752"/>
</svg>
