<svg width="60" height="60" viewBox="0 0 60 60" fill="none" xmlns="http://www.w3.org/2000/svg">
<path d="M51 9H9C5.625 9 3 11.7188 3 15V45C3 48.375 5.625 51 9 51H51C54.2812 51 57 48.375 57 45V15C57 11.7188 54.2812 9 51 9ZM51 12C52.5938 12 54 13.4062 54 15V24H45V21.0938L46.5 21C47.25 21 48 20.3438 48 19.5C48 18.75 47.25 18.0938 46.5 18.0938L45 18V12H51ZM42 12V18H40.5C39.6562 18 39 18.75 39 19.5C39 20.25 39.6562 21 40.5 21H41.9062L42 24H30V21.0938L31.5 21C32.25 21 33 20.3438 33 19.5C33 18.75 32.25 18.0938 31.5 18.0938L30 18V12H42ZM27 12V18H25.5C24.6562 18 24 18.75 24 19.5C24 20.3438 24.6562 21 25.5 21H26.9062L27 24H18V21.0938L19.5 21C20.25 21 21 20.3438 21 19.5C21 18.75 20.25 18 19.5 18H18V12H27ZM6 15C6 13.4062 7.3125 12 9 12H15V18H13.5C12.6562 18 12 18.75 12 19.5C12 20.3438 12.6562 21 13.5 21H14.9062L15 24H6V15ZM9 48C7.3125 48 6 46.6875 6 45V27H15V33H13.5C12.6562 33 12 33.75 12 34.5C12 35.3438 12.6562 36 13.5 36H14.9062V39H13.5C12.6562 39 12 39.75 12 40.5C12 41.3438 12.6562 42 13.5 42H15V48H9ZM18 48V42H19.5C20.25 42 21 41.3438 21 40.5C21 39.75 20.25 39 19.5 39H18V36H19.5C20.25 36 21 35.3438 21 34.5C21 33.75 20.25 33 19.5 33H18V27H27V33H25.5C24.6562 33 24 33.75 24 34.5C24 35.3438 24.6562 36 25.5 36H26.9062V39H25.5C24.6562 39 24 39.75 24 40.5C24 41.3438 24.6562 42 25.5 42H27V48H18ZM30 48V42H31.5C32.25 42 33 41.3438 33 40.5C33 39.75 32.25 39 31.5 39H30V36H31.5C32.25 36 33 35.3438 33 34.5C33 33.75 32.25 33.0938 31.5 33.0938L30 33V27H42V39H40.5C39.6562 39 39 39.75 39 40.5C39 41.3438 39.6562 42 40.5 42H42V48H30ZM54 45C54 46.6875 52.5938 48 51 48H45V42H46.5C47.25 42 48 41.3438 48 40.5C48 39.75 47.25 39 46.5 39H45V27H54V45Z" fill="#226752"/>
</svg>
