<svg width="60" height="60" viewBox="0 0 60 60" fill="none" xmlns="http://www.w3.org/2000/svg">
<path d="M34.3125 28.5938C33.5625 28.6875 33 29.5312 33.0938 30.2812C34.0312 35.4375 34.9688 43.0312 34.125 50.0625C34.125 50.7188 33.6562 51 33.2812 51H27.75C27.5625 51 27.375 50.9062 27.2812 50.7188C27 50.4375 26.9062 49.9688 27 49.5C27.8438 45.6562 29.25 37.875 29.0625 30C29.0625 29.1562 28.4062 28.5938 27.5625 28.5C26.7188 28.5938 26.0625 29.25 26.1562 30.0938C26.25 37.6875 24.8438 45.0938 24.0938 48.8438C23.8125 50.1562 24.0938 51.5625 24.9375 52.5938C25.5938 53.5312 26.7188 54 27.75 54H33.2812C35.25 54 36.9375 52.5 37.125 50.4375C37.9688 42.9375 37.0312 35.0625 36.0938 29.8125C35.9062 28.9688 35.1562 28.4062 34.3125 28.5938ZM41.3438 11.5312C38.3438 11.5312 35.4375 12.1875 32.9062 13.5C30.4688 9 24.8438 6 18.5625 6C10.5938 6 4.125 10.2188 3 16.125C2.8125 16.9688 3.09375 17.7188 3.5625 18.375C4.21875 19.125 5.0625 19.5 6.09375 19.5H12.1875C10.9688 21.0938 10.125 22.7812 9.5625 24.6562C7.6875 30.8438 9.84375 36.8438 10.5938 37.875C11.0625 38.5312 11.8125 39 12.6562 39C12.75 39.0938 12.8438 39.0938 12.9375 39.0938C13.7812 39.0938 14.625 38.7188 15.1875 38.1562L27.9375 25.5H53.9062C54.8438 25.5 55.6875 25.125 56.3438 24.375C56.8125 23.8125 57.0938 22.9688 56.9062 22.125C55.6875 16.0312 49.0312 11.5312 41.3438 11.5312ZM46.5 22.5V19.5C46.5 18.75 45.75 18 45 18C44.1562 18 43.5 18.75 43.5 19.5V22.5H27.2812C26.8125 22.5 26.4375 22.6875 26.1562 22.9688L13.0312 36.0938C12.6562 35.625 10.6875 30.375 12.4688 25.125C13.7812 21.1875 16.7812 18.2812 21.4688 16.4062C22.2188 16.125 22.5938 15.2812 22.2188 14.5312C22.125 13.875 21.5625 13.5 20.9062 13.5C20.7188 13.5 20.5312 13.5938 20.3438 13.6875C18.375 14.4375 16.6875 15.375 15.1875 16.5938C15.0938 16.5938 15 16.5 14.9062 16.5L5.90625 16.6875C6.84375 12.2812 12.0938 9 18.5625 9C24.2812 9 29.3438 11.9062 30.8438 16.125C30.9375 16.5 31.3125 16.875 31.7812 17.0625C32.1562 17.1562 32.625 17.0625 33 16.875C35.4375 15.2812 38.3438 14.5312 41.3438 14.5312C47.625 14.5312 53.0625 18 53.8125 22.5H46.5Z" fill="#226752"/>
</svg>
