<svg width="60" height="60" viewBox="0 0 60 60" fill="none" xmlns="http://www.w3.org/2000/svg">
<path d="M45 9H15C11.625 9 9 11.7188 9 15V45C9 48.375 11.625 51 15 51H45C48.2812 51 51 48.375 51 45V15C51 11.7188 48.2812 9 45 9ZM48 45C48 46.6875 46.5938 48 45 48H15C13.3125 48 12 46.6875 12 45V15C12 13.4062 13.3125 12 15 12H45C46.5938 12 48 13.4062 48 15V45ZM30.375 28.5938C25.5938 27.2812 23.5312 26.5312 24 23.9062C24.0938 23.3438 24.4688 22.5 25.4062 21.9375C26.625 21.0938 29.3438 20.4375 34.9688 21.8438C35.8125 22.0312 36.5625 21.5625 36.75 20.7188C36.9375 19.9688 36.4688 19.125 35.7188 18.9375C30.2812 17.625 26.3438 17.8125 23.7188 19.4062C22.3125 20.3438 21.375 21.75 21.0938 23.3438C20.0625 28.9688 25.5938 30.375 29.5312 31.5C34.3125 32.8125 36.375 33.6562 35.9062 36.1875C35.7188 37.2188 35.25 37.875 34.4062 38.3438C32.25 39.5625 27.75 39.1875 22.9688 37.3125C22.2188 37.0312 21.375 37.4062 21.0938 38.25C20.7188 39 21.1875 39.8438 21.9375 40.125C23.3438 40.6875 27.2812 42 31.0312 42C32.7188 42 34.5 41.7188 35.9062 40.9688C37.5 40.0312 38.5312 38.625 38.8125 36.75C39.8438 31.125 34.4062 29.7188 30.375 28.5938Z" fill="#226752"/>
</svg>
