<svg width="60" height="60" viewBox="0 0 60 60" fill="none" xmlns="http://www.w3.org/2000/svg">
<g clip-path="url(#clip0_1951_2054)">
<path d="M26.922 27H36.534C35.373 27.8531 34.329 28.8656 33.42 30H25.482C24.69 30 24.042 29.325 24.042 28.5V7.65938C24.042 6.75938 24.708 6 25.581 6C36.021 6 44.7239 13.7531 46.677 24.0375C46.3349 24.0187 45.993 24 45.642 24C45.003 24 44.3639 24.0375 43.743 24.1125C41.97 15.9 35.193 9.66563 26.922 9.04688V27ZM24.042 33H31.53C31.062 33.9469 30.684 34.95 30.396 36H21.162C19.569 36 18.282 34.6594 18.282 33V12.525C10.029 14.55 3.88195 22.2844 3.88195 31.5C3.88195 42.2719 12.261 51 22.602 51C25.941 51 29.073 50.0906 31.782 48.4969C32.25 49.3781 32.799 50.2125 33.411 50.9812C30.234 52.9031 26.544 54 22.602 54C10.677 54 1.00195 43.9219 1.00195 31.5C1.00195 20.6719 8.33695 11.6344 18.12 9.4875C19.749 9.13125 21.162 10.5187 21.162 12.2531V30V33H24.042ZM45.642 51C48.3153 51 50.8792 49.8938 52.7696 47.9246C54.66 45.9555 55.722 43.2848 55.722 40.5C55.722 37.7152 54.66 35.0445 52.7696 33.0754C50.8792 31.1062 48.3153 30 45.642 30C42.9686 30 40.4047 31.1062 38.5143 33.0754C36.624 35.0445 35.562 37.7152 35.562 40.5C35.562 43.2848 36.624 45.9555 38.5143 47.9246C40.4047 49.8938 42.9686 51 45.642 51ZM45.642 27C49.0792 27 52.3756 28.4223 54.8061 30.9541C57.2365 33.4858 58.602 36.9196 58.602 40.5C58.602 44.0804 57.2365 47.5142 54.8061 50.0459C52.3756 52.5777 49.0792 54 45.642 54C42.2047 54 38.9083 52.5777 36.4778 50.0459C34.0474 47.5142 32.682 44.0804 32.682 40.5C32.682 36.9196 34.0474 33.4858 36.4778 30.9541C38.9083 28.4223 42.2047 27 45.642 27ZM43.554 37.4437C43.518 37.5094 43.4729 37.5938 43.482 37.7812V37.7906C43.482 37.8281 43.4819 37.9688 43.914 38.2125C44.4179 38.4938 45.129 38.7 46.065 38.9812H46.083C46.92 39.225 47.982 39.5437 48.828 40.0594C49.746 40.6219 50.628 41.5688 50.673 43.0875C50.718 44.7938 49.8 45.9375 48.72 46.5469C48.198 46.8375 47.631 47.025 47.073 47.1281V48.1406V49.6406H44.202V48.1406V47.0719C43.428 46.9125 42.699 46.6688 42.069 46.4531C41.916 46.3969 41.763 46.35 41.6189 46.3031L40.242 45.8625L41.097 42.9938L42.4739 43.4437C42.6539 43.5 42.825 43.5563 42.996 43.6125C44.022 43.95 44.832 44.2219 45.687 44.25C46.29 44.2687 46.929 44.1469 47.352 43.9125C47.5499 43.8 47.658 43.6875 47.712 43.6031C47.757 43.5281 47.811 43.4062 47.802 43.1813C47.802 43.05 47.784 42.9 47.3789 42.6562C46.902 42.3656 46.218 42.15 45.291 41.8781L45.129 41.8313C44.3279 41.5969 43.347 41.3062 42.555 40.8656C41.664 40.3687 40.701 39.4875 40.611 37.9875C40.503 36.225 41.511 35.0906 42.573 34.5C43.0859 34.2094 43.653 34.0219 44.193 33.9094V33V31.5H47.073V33V33.8812C47.6399 33.9656 48.18 34.0969 48.6839 34.2281L50.0789 34.5938L49.3859 37.5094L47.9909 37.1438C47.1539 36.9281 46.353 36.7688 45.615 36.7594C45.057 36.75 44.391 36.8813 43.9319 37.1344C43.716 37.2563 43.6079 37.3687 43.554 37.4531V37.4437Z" fill="#226752"/>
</g>
<defs>
<clipPath id="clip0_1951_2054">
<rect width="57.6" height="48" fill="white" transform="translate(1 6)"/>
</clipPath>
</defs>
</svg>
