<svg width="60" height="60" viewBox="0 0 60 60" fill="none" xmlns="http://www.w3.org/2000/svg">
<path d="M46.5 27C39 27 33 33.0938 33 40.5C33 48 39 54 46.5 54C53.9062 54 60 48 60 40.5C60 33.0938 53.9062 27 46.5 27ZM46.5 51C40.6875 51 36 46.3125 36 40.5C36 34.7812 40.6875 30 46.5 30C52.2188 30 57 34.7812 57 40.5C57 46.3125 52.2188 51 46.5 51ZM51 39H48V34.5C48 33.75 47.25 33 46.5 33C45.6562 33 45 33.75 45 34.5V40.5C45 41.3438 45.6562 42 46.5 42H51C51.75 42 52.5 41.3438 52.5 40.5C52.5 39.75 51.75 39 51 39ZM31.5 48H6C4.3125 48 3 46.6875 3 45V33H16.5V39C16.5 39.8438 17.1562 40.5 18 40.5H28.5C29.25 40.5 30 39.8438 30 39C30 38.25 29.25 37.5 28.5 37.5H19.5V33H31.5C32.25 33 33 32.3438 33 31.5C33 30.75 32.25 30 31.5 30H3V21C3 19.4062 4.3125 18 6 18H42C43.5938 18 45 19.4062 45 21V22.5C45 23.3438 45.6562 24 46.5 24C47.25 24 48 23.3438 48 22.5V21C48 17.7188 45.2812 15 42 15H36V10.5C36 8.0625 33.9375 6 31.5 6H16.5C13.9688 6 12 8.0625 12 10.5V15H6C2.625 15 0 17.7188 0 21V45C0 48.375 2.625 51 6 51H31.5C32.25 51 33 50.3438 33 49.5C33 48.75 32.25 48 31.5 48ZM15 10.5C15 9.75 15.6562 9 16.5 9H31.5C32.25 9 33 9.75 33 10.5V15H15V10.5Z" fill="#226752"/>
</svg>
