<svg width="60" height="60" viewBox="0 0 60 60" fill="none" xmlns="http://www.w3.org/2000/svg">
<path d="M46.2188 17.8125L36.1875 7.78125C35.0625 6.65625 33.5625 6 31.9688 6H18C14.625 6 12 8.71875 12 12V48C12 51.375 14.625 54 18 54H42C45.2812 54 48 51.375 48 48V22.0312C48 20.4375 47.3438 18.9375 46.2188 17.8125ZM33 9.28125C33.375 9.375 33.75 9.5625 34.125 9.9375L44.0625 19.875C44.4375 20.25 44.625 20.625 44.7188 21H34.5C33.6562 21 33 20.3438 33 19.5V9.28125ZM45 48C45 49.6875 43.5938 51 42 51H18C16.3125 51 15 49.6875 15 48V12C15 10.4062 16.3125 9 18 9H30V19.5C30 22.0312 31.9688 24 34.5 24H45V48ZM19.5 15H25.5C26.25 15 27 14.3438 27 13.5C27 12.75 26.25 12 25.5 12H19.5C18.6562 12 18 12.75 18 13.5C18 14.3438 18.6562 15 19.5 15ZM27 19.5C27 18.75 26.25 18 25.5 18H19.5C18.6562 18 18 18.75 18 19.5C18 20.3438 18.6562 21 19.5 21H25.5C26.25 21 27 20.3438 27 19.5ZM30.9375 33.0938C31.5 33.1875 32.25 33.375 32.9062 33.6562C33.6562 33.8438 34.5 33.375 34.7812 32.625C34.9688 31.875 34.5938 31.0312 33.75 30.75C32.8125 30.4688 32.0625 30.2812 31.4062 30.1875C31.4062 30.0938 31.5 30.0938 31.5 30V28.5C31.5 27.75 30.75 27 30 27C29.1562 27 28.5 27.75 28.5 28.5V30C28.5 30.0938 28.5 30.0938 28.5 30.0938C26.0625 30.4688 24.375 31.6875 24 33.6562C23.3438 37.4062 27.0938 38.3438 28.9688 38.8125L29.625 39C32.625 39.75 33.0938 40.125 32.9062 40.875C32.7188 41.8125 31.0312 42.2812 28.9688 42C28.2188 41.8125 27.1875 41.5312 26.3438 41.25L25.875 41.1562C25.125 40.875 24.2812 41.3438 24 42.0938C23.8125 42.8438 24.1875 43.6875 25.0312 43.9688L25.5 44.1562C26.4375 44.4375 27.4688 44.7188 28.5 44.9062V45V46.5C28.5 47.3438 29.1562 48 30 48C30.75 48 31.5 47.3438 31.5 46.5V45C31.5 45 31.4062 45 31.4062 44.9062C33.8438 44.625 35.5312 43.4062 35.9062 41.4375C36.5625 37.6875 32.8125 36.75 30.2812 36.0938L29.7188 35.9062C26.8125 35.1562 26.9062 34.6875 27 34.2188C27.1875 33.2812 28.875 32.8125 30.9375 33.0938Z" fill="#226752"/>
</svg>
