<svg width="60" height="60" viewBox="0 0 60 60" fill="none" xmlns="http://www.w3.org/2000/svg">
<path d="M51 40.5V10.5C51 8.0625 48.9375 6 46.5 6H16.5C12.2812 6 9 9.375 9 13.5V48C9 51.375 11.625 54 15 54H49.5C50.25 54 51 53.3438 51 52.5C51 51.75 50.25 51 49.5 51H48V44.8125C49.6875 44.1562 51 42.4688 51 40.5ZM39 9V25.4062L33.8438 21.375C33.6562 21.1875 33.2812 21 33 21C32.625 21 32.25 21.1875 32.0625 21.375L27 25.4062V9H39ZM45 51H15C13.3125 51 12 49.6875 12 48C12 46.4062 13.3125 45 15 45H45V51ZM46.5 42H15C13.875 42 12.8438 42.375 12 42.8438V13.5C12 11.0625 13.9688 9 16.5 9H24V28.5C24 29.1562 24.2812 29.625 24.8438 29.9062C25.3125 30.1875 25.9688 30.0938 26.4375 29.7188L33 24.4688L39.4688 29.7188C39.75 29.9062 40.125 30 40.5 30C40.6875 30 40.875 30 41.0625 29.9062C41.625 29.625 42 29.1562 42 28.5V9H46.5C47.25 9 48 9.75 48 10.5V40.5C48 41.3438 47.25 42 46.5 42Z" fill="#226752"/>
</svg>
