<svg width="60" height="60" viewBox="0 0 60 60" fill="none" xmlns="http://www.w3.org/2000/svg">
<path d="M60 43.5C60 44.3438 59.25 45 58.5 45H54C52.0312 45 50.3438 43.7812 49.6875 42H46.7812C46.5938 42.4688 46.4062 42.8438 46.125 43.2188L45.2812 44.3438C43.9688 45.9375 41.7188 46.3125 39.9375 45.4688L37.9688 47.8125C36.2812 49.7812 33.2812 50.1562 31.2188 48.4688L30.6562 48C29.625 48.8438 28.3125 49.4062 26.9062 49.5C26.625 49.5 26.3438 49.5 26.1562 49.5C24.4688 49.5 22.875 48.9375 21.5625 47.9062L13.9688 42H10.2188C9.5625 43.7812 7.875 45 6 45H3C2.15625 45 1.5 44.3438 1.5 43.5C1.5 42.75 2.15625 42 3 42H6C6.75 42 7.5 41.3438 7.5 40.5V21H1.5C0.65625 21 0 20.3438 0 19.5C0 18.75 0.65625 18 1.5 18H12.1875C15.375 14.9062 19.4062 12.8438 23.7188 12.2812C24.5625 12.0938 25.3125 12.75 25.4062 13.5C25.5938 14.3438 25.0312 15.0938 24.1875 15.1875C20.3438 15.75 16.6875 17.7188 13.9688 20.5312L13.5 21H10.5V39H15L23.4375 45.5625C24.375 46.3125 25.4062 46.5938 26.5312 46.5C27.6562 46.4062 28.6875 45.8438 29.3438 45L30.375 43.9688L31.5938 44.8125L33.1875 46.125C33.8438 46.7812 35.0625 46.6875 35.625 45.8438L39.375 41.25L41.0625 42.6562C41.625 43.125 42.4688 43.0312 42.9375 42.375L43.7812 41.3438C44.25 40.7812 44.1562 39.9375 43.5938 39.4688L33.4688 31.2188C32.8125 30.6562 32.7188 29.7188 33.1875 29.0625C33.75 28.5 34.6875 28.3125 35.3438 28.875L45.4688 37.125C46.125 37.6875 46.5 38.3438 46.7812 39H49.5V21H46.4062L45.9375 20.625C42.5625 17.0625 37.875 15 33.2812 15H32.5312C32.1562 15 31.875 15.1875 31.5938 15.375L22.875 23.625C21.9375 24.4688 22.0312 25.875 22.7812 26.625C22.9688 26.8125 23.5312 27.2812 24.2812 27.2812C24.75 27.2812 25.2188 27.0938 25.5938 26.7188L25.6875 26.8125C26.4375 25.9688 28.3125 24.1875 32.8125 20.0625C33.375 19.5 34.3125 19.5938 34.875 20.1562C35.4375 20.8125 35.4375 21.75 34.7812 22.3125L27.6562 28.9688C26.7188 29.8125 25.5938 30.2812 24.375 30.2812C24.2812 30.2812 24.1875 30.2812 24.0938 30.2812C22.5 30.1875 21.1875 29.3438 20.5312 28.5938C18.6562 26.5312 18.75 23.5312 20.7188 21.5625V21.4688L29.5312 13.2188C30.375 12.4688 31.4062 12 32.5312 12H33.2812C38.5312 12 43.6875 14.25 47.625 18H58.5C59.25 18 60 18.75 60 19.5C60 20.3438 59.25 21 58.5 21H52.5V40.5C52.5 41.3438 53.1562 42.0938 53.9062 42.0938L58.5 42C59.25 42 60 42.75 60 43.5Z" fill="#226752"/>
</svg>
