<svg width="60" height="60" viewBox="0 0 60 60" fill="none" xmlns="http://www.w3.org/2000/svg">
<path d="M28.7812 29.5312C29.4375 30.1875 30.4688 30.1875 31.125 29.5312L41.25 18.8438C44.25 15.75 44.0625 10.5938 40.7812 7.6875C37.4062 4.78125 33.0938 6.09375 30.9375 8.4375L29.9062 9.46875L28.875 8.4375C26.7188 6.1875 22.4062 4.78125 19.0312 7.6875C15.75 10.5938 15.5625 15.75 18.5625 18.8438L28.7812 29.5312ZM21 9.9375C22.9688 8.25 25.5 9.1875 26.8125 10.5L29.9062 13.7812L33.0938 10.5C34.4062 9.1875 36.9375 8.25 38.9062 9.9375C41.1562 11.9062 40.7812 15.0938 39.1875 16.6875L29.9062 26.4375L20.625 16.6875C19.125 15.0938 18.75 11.9062 21 9.9375ZM55.3125 37.3125C54.375 36.4688 53.25 36.0938 52.0312 36.0938C50.8125 36.0938 49.6875 36.4688 48.75 37.2188L43.0312 41.8125C42.8438 42 42.5625 42 42.375 42H38.4375C38.9062 41.1562 39.0938 40.125 38.9062 39C38.5312 36.375 36.0938 34.5 33.4688 34.5H19.9688C18 34.5 16.2188 35.1562 14.5312 36.375L10.9688 39H4.5C3.65625 39 3 39.75 3 40.5C3 41.3438 3.65625 42 4.40625 42L11.9062 42.0938L16.2188 38.7188C17.3438 37.9688 18.5625 37.5 19.875 37.5H33.6562C34.875 37.5 35.9062 38.5312 35.9062 39.75C35.9062 41.0625 34.875 42 33.6562 42H25.4062C24.5625 42 23.9062 42.75 23.9062 43.5C23.9062 44.3438 24.5625 45 25.4062 45H42.2812C43.125 45 44.0625 44.7188 44.7188 44.1562L50.5312 39.5625C50.9062 39.2812 51.4688 39.0938 51.9375 39.0938C52.4062 39.0938 52.875 39.1875 53.1562 39.5625C54.1875 40.4062 54.0938 41.8125 53.1562 42.6562L43.6875 50.1562C42.9375 50.7188 42.0938 51.0938 41.1562 51.0938H4.5C3.65625 51.0938 3 51.75 3 52.5938C3 53.3438 3.65625 54 4.40625 54H41.1562C42.75 54 44.25 53.5312 45.5625 52.5L55.0312 44.9062C56.1562 44.0625 56.8125 42.6562 56.8125 41.1562C57 39.75 56.3438 38.3438 55.3125 37.3125Z" fill="#226752"/>
</svg>
