<svg width="60" height="60" viewBox="0 0 60 60" fill="none" xmlns="http://www.w3.org/2000/svg">
<path d="M34.125 31.875L32.25 28.125C31.7812 27.1875 30.8438 26.8125 30 26.8125C29.0625 26.8125 28.125 27.2812 27.6562 28.125L25.7812 31.875L21.6562 32.4375C20.7188 32.625 19.875 33.2812 19.5938 34.2188C19.3125 35.1562 19.5 36.1875 20.25 36.8438L23.25 39.75L22.5 43.875C22.2188 45.5625 23.625 46.875 25.0312 46.875C25.5 46.875 25.875 46.7812 26.25 46.5938L30 44.625L33.6562 46.5938C34.0312 46.7812 34.4062 46.875 34.7812 46.875C36.2812 46.875 37.6875 45.5625 37.4062 43.875L36.6562 39.75L39.6562 36.8438C40.4062 36.1875 40.5938 35.1562 40.3125 34.2188C40.0312 33.2812 39.1875 32.625 38.25 32.4375L34.125 31.875ZM33.4688 38.7188L34.3125 43.5938L29.9062 41.25L25.5938 43.5938L26.4375 38.7188L22.9688 35.3438L27.75 34.5938L29.9062 30.1875L32.1562 34.5938L36.9375 35.3438L33.4688 38.7188ZM30 21C20.8125 21 13.5 28.4062 13.5 37.5C13.5 46.6875 20.8125 54 30 54C39.0938 54 46.5 46.6875 46.5 37.5C46.5 28.4062 39.0938 21 30 21ZM30 51C22.5 51 16.5 45 16.5 37.5C16.5 30.0938 22.5 24 30 24C37.4062 24 43.5 30.0938 43.5 37.5C43.5 45 37.4062 51 30 51ZM16.5 24C16.7812 24 17.0625 24 17.25 23.8125C18 23.3438 18.1875 22.4062 17.7188 21.75L9.09375 9L18.375 8.90625L24.375 18.9375C24.8438 19.6875 25.7812 19.875 26.4375 19.5C27.1875 19.0312 27.375 18.0938 27 17.4375L21 7.40625C20.4375 6.5625 19.5 6 18.5625 6H8.71875C7.6875 6 6.75 6.65625 6.28125 7.59375C5.8125 8.4375 5.90625 9.5625 6.46875 10.4062L15.1875 23.3438C15.4688 23.8125 15.9375 24 16.5 24ZM53.625 7.59375C53.1562 6.65625 52.2188 6 51.1875 6H41.3438C40.4062 6 39.4688 6.5625 38.9062 7.40625L32.9062 17.4375C32.5312 18.0938 32.7188 19.0312 33.4688 19.5C34.125 19.875 35.0625 19.6875 35.5312 18.9375L41.3438 9H50.8125L42.1875 21.6562C41.7188 22.4062 41.9062 23.3438 42.6562 23.8125C42.8438 24 43.125 24 43.5 24C43.9688 24 44.4375 23.8125 44.7188 23.3438L53.4375 10.5C54.0938 9.5625 54.0938 8.4375 53.625 7.59375Z" fill="#226752"/>
</svg>
