<svg width="61" height="60" viewBox="0 0 61 60" fill="none" xmlns="http://www.w3.org/2000/svg">
<path d="M40.75 31.125L37.0938 32.3438C36.1562 29.7188 33.7188 27.75 30.7188 27.75C27.0625 27.75 23.9688 30.8438 23.9688 34.5C23.9688 35.0625 24.0625 35.5312 24.25 36.0938L12.3438 39.75C11.9688 38.7188 9.4375 32.4375 8.96875 31.3125L35.2188 17.8125C35.9688 17.4375 36.1562 16.5938 35.875 15.8438C35.5 15.0938 34.6562 14.8125 33.9062 15.1875L7.75 28.5938C6.34375 29.25 5.6875 30.9375 6.25 32.3438C6.71875 33.5625 9.25 39.8438 9.625 40.875C10.0938 42 11.2188 42.6562 12.3438 42.6562C12.625 42.6562 13 42.5625 13.2812 42.4688L25.6562 38.8125C25.8438 39 25.9375 39.1875 26.125 39.375L21.9062 52.0312C21.625 52.875 22.0938 53.7188 22.8438 54C23.0312 54 23.2188 54 23.3125 54C23.9688 54 24.5312 53.625 24.7188 53.0625L28.75 40.9688C29.4062 41.1562 30.1562 41.25 30.8125 41.25C31.5625 41.25 32.2188 41.1562 32.875 40.9688L36.9062 53.0625C37.0938 53.625 37.75 54 38.3125 54C38.5 54 38.6875 54 38.7812 54C39.625 53.7188 40 52.875 39.7188 52.0312L35.5 39.375C36.625 38.3438 37.2812 36.9375 37.4688 35.4375L41.7812 33.9375C42.5312 33.75 43 32.9062 42.7188 32.0625C42.4375 31.3125 41.5938 30.8438 40.75 31.125ZM30.8125 38.25C28.75 38.25 27.0625 36.5625 27.0625 34.5C27.0625 32.4375 28.75 30.75 30.8125 30.75C32.875 30.75 34.5625 32.4375 34.5625 34.5C34.5625 36.5625 32.875 38.25 30.8125 38.25ZM3.8125 36.2812C3.53125 35.5312 2.59375 35.1562 1.84375 35.4375C1.09375 35.8125 0.71875 36.6562 1.09375 37.4062L2.78125 41.5312C2.96875 42.0938 3.53125 42.4688 4.1875 42.4688C4.375 42.4688 4.5625 42.375 4.75 42.375C5.5 42 5.875 41.1562 5.5 40.4062L3.8125 36.2812ZM60.7188 25.0312L53.5938 7.78125C53.0312 6.46875 51.3438 5.625 49.8438 6.28125L40.0938 10.3125C39.0625 10.6875 38.3125 11.8125 38.3125 12.9375C38.3125 13.3125 38.4062 13.6875 38.5938 13.9688L45.7188 31.3125C46.0938 32.3438 47.2188 33 48.3438 33C48.625 33 49.0938 32.9062 49.375 32.8125L59.2188 28.7812C60.25 28.3125 61 27.1875 61 26.1562C61 25.7812 60.9062 25.4062 60.7188 25.0312ZM48.4375 30.0938L41.125 12.9375L50.6875 8.8125L57.8125 25.9688L48.4375 30.0938Z" fill="#226752"/>
</svg>
