<svg width="62" height="60" viewBox="0 0 62 60" fill="none" xmlns="http://www.w3.org/2000/svg">
<path d="M20.5 27C19.375 27 18.625 27.8438 18.625 28.875C18.625 30 19.375 30.75 20.5 30.75C21.5312 30.75 22.375 30 22.375 28.875C22.375 27.8438 21.5312 27 20.5 27ZM22 13.5H18.625C16.2812 13.5 14.5 15.375 14.5 17.7188C14.5 18.5625 15.1562 19.2188 16 19.2188C16.75 19.2188 17.5 18.5625 17.5 17.7188C17.5 17.0625 17.9688 16.5 18.625 16.5H22C22.8438 16.5 23.5 17.1562 23.5 18C23.5 18.5625 23.125 19.0312 22.6562 19.3125L19.75 20.8125C19.2812 21 19 21.5625 19 22.125V24C19 24.8438 19.6562 25.5 20.5 25.5C21.25 25.5 22 24.8438 22 24V23.0625L23.9688 21.9375C25.4688 21.1875 26.5 19.6875 26.5 18C26.5 15.5625 24.4375 13.5 22 13.5ZM40 22.5C40 13.4062 31.1875 6 20.5 6C9.71875 6 1 13.4062 1 22.5C1 26.4375 2.59375 30 5.21875 32.8125C3.8125 35.8125 1.5625 38.25 1.5625 38.25C0.90625 38.9062 0.8125 39.8438 1.09375 40.6875C1.46875 41.5312 2.3125 42 3.15625 42C8.21875 42 12.3438 40.125 14.9688 38.3438C16.75 38.8125 18.5312 39 20.5 39C31.1875 39 40 31.6875 40 22.5ZM20.5 36C18.9062 36 17.2188 35.8125 15.7188 35.4375L14.4062 35.1562L13.375 35.9062C11.4062 37.125 8.5 38.625 4.9375 39C5.78125 37.7812 7 36.0938 7.9375 34.125L8.78125 32.25L7.375 30.75C5.125 28.4062 4 25.5 4 22.5C4 15.0938 11.3125 9 20.5 9C29.5938 9 37 15.0938 37 22.5C37 30 29.5938 36 20.5 36ZM57.8125 46.875C59.7812 44.25 61 40.9688 61 37.5C61 28.4062 52.9375 21 43 21C42.9062 21 42.9062 21.0938 42.9062 21.0938C42.9062 21.5625 43 22.0312 43 22.5C43 23.0625 42.9062 23.5312 42.9062 24.0938C42.9062 24.0938 42.9062 24 43 24C51.25 24 58 30.0938 58 37.5C58 40.2188 57.0625 42.8438 55.375 45.0938L54.1562 46.6875L55.2812 48.4688C55.8438 49.4062 56.5 50.3438 56.9688 51C55.2812 50.8125 53.5938 50.3438 51.9062 49.5938L50.6875 49.125L49.5625 49.6875C47.4062 50.5312 45.25 51 43 51C35.875 51 30.0625 46.6875 28.4688 40.7812C27.5312 41.0625 26.5 41.3438 25.4688 41.5312C27.4375 48.75 34.4688 54 43 54C45.7188 54 48.3438 53.4375 50.7812 52.4062C53.0312 53.3438 55.6562 54 58.75 54C59.5938 54 60.4375 53.5312 60.8125 52.6875C61.0938 51.8438 60.9062 50.9062 60.3438 50.3438C60.3438 50.25 59.0312 48.8438 57.8125 46.875ZM37.375 37.6875C36.8125 38.3438 36.8125 39.2812 37.375 39.8438L40.9375 43.3125C41.2188 43.5938 41.5938 43.7812 41.9688 43.7812C42.3438 43.7812 42.7188 43.5938 43 43.3125L50.7812 35.625C51.3438 35.0625 51.3438 34.0312 50.7812 33.4688C50.2188 32.9062 49.1875 32.9062 48.625 33.4688L41.9688 40.2188L39.5312 37.7812C38.9688 37.125 37.9375 37.125 37.375 37.6875Z" fill="#226752"/>
</svg>
