<svg width="26" height="26" viewBox="0 0 26 26" fill="none" xmlns="http://www.w3.org/2000/svg">
<path d="M26 13C26 5.82062 20.1794 0 13 0C5.82062 0 0 5.82062 0 13C0 20.1794 5.82062 26 13 26C20.1794 26 26 20.1794 26 13Z" fill="#D8EADF"/>
<path d="M13.7068 17.2073L19.7068 11.2073C19.8865 11.0183 19.9851 10.7665 19.9818 10.5058C19.9784 10.245 19.8734 9.99585 19.689 9.81145C19.5046 9.62705 19.2554 9.52198 18.9947 9.51864C18.7339 9.5153 18.4822 9.61396 18.2931 9.79358L13 15.0861L7.70684 9.79358C7.51778 9.61396 7.26603 9.5153 7.00526 9.51864C6.7445 9.52198 6.49536 9.62705 6.31096 9.81145C6.12656 9.99585 6.02149 10.245 6.01815 10.5058C6.01481 10.7665 6.11347 11.0183 6.29309 11.2073L12.2931 17.2073C12.4806 17.3947 12.7349 17.5 13 17.5C13.2651 17.5 13.5193 17.3947 13.7068 17.2073Z" fill="#276164"/>
</svg>
