<svg width="28" height="28" viewBox="0 0 28 28" fill="none" xmlns="http://www.w3.org/2000/svg">
<path d="M14.0001 0.666626C6.64008 0.666626 0.666748 6.63996 0.666748 14C0.666748 21.36 6.64008 27.3333 14.0001 27.3333C21.3601 27.3333 27.3334 21.36 27.3334 14C27.3334 6.63996 21.3601 0.666626 14.0001 0.666626ZM10.3867 19.72L5.60008 14.9333C5.47664 14.8099 5.37872 14.6633 5.31191 14.502C5.24511 14.3407 5.21072 14.1679 5.21072 13.9933C5.21072 13.8187 5.24511 13.6459 5.31191 13.4846C5.37872 13.3233 5.47664 13.1767 5.60008 13.0533C5.72352 12.9299 5.87007 12.8319 6.03136 12.7651C6.19264 12.6983 6.36551 12.6639 6.54008 12.6639C6.71466 12.6639 6.88752 12.6983 7.04881 12.7651C7.21009 12.8319 7.35664 12.9299 7.48008 13.0533L11.3334 16.8933L20.5067 7.71996C20.7561 7.47066 21.0942 7.3306 21.4467 7.3306C21.7993 7.3306 22.1374 7.47066 22.3867 7.71996C22.6361 7.96926 22.7761 8.30739 22.7761 8.65996C22.7761 9.01253 22.6361 9.35066 22.3867 9.59996L12.2667 19.72C12.1434 19.8436 11.9969 19.9416 11.8356 20.0085C11.6743 20.0754 11.5014 20.1099 11.3267 20.1099C11.1521 20.1099 10.9792 20.0754 10.8179 20.0085C10.6566 19.9416 10.5101 19.8436 10.3867 19.72Z" fill="#276164"/>
</svg>
