<svg width="132" height="12" viewBox="0 0 132 12" fill="none" xmlns="http://www.w3.org/2000/svg">
<path d="M40.8032 9.28401C40.4544 9.92338 39.6988 10.0977 38.4201 10.0977H35.7464V2.7741C35.7464 1.90224 35.9207 1.78599 36.967 1.78599H37.7807V0.565386H31.2127V1.78599H31.7939C32.7239 1.78599 33.247 1.90224 33.247 2.83223V9.22589C33.247 10.1559 32.8402 10.2721 31.9102 10.2721H31.2708V11.4927H42.5469V7.07529H41.2682C41.2682 8.0634 41.1519 8.76089 40.8032 9.28401ZM26.4465 10.0977H22.959V6.31968H23.7728C25.1678 6.31968 25.3421 6.55218 25.4003 8.47027H26.679V2.94848H25.4003C25.284 4.57595 25.1096 5.04095 23.7147 5.04095H22.9009V1.78599H25.9815C28.1902 1.78599 28.7715 2.19286 28.8877 4.75033H30.1083V0.507263H13.9498V1.72787H14.7054C15.3448 1.72787 15.6354 1.84412 15.6354 2.19286C15.6354 2.36724 15.6354 2.65786 15.5192 3.0066L13.3686 8.58652H13.2523C12.2642 5.79656 10.9855 2.65786 10.9855 2.65786C10.9273 2.48348 10.8692 2.30911 10.8692 2.19286C10.8692 1.84412 11.1017 1.72787 11.6248 1.72787H12.5548V0.507263H6.7424V1.72787H7.49802C8.428 1.72787 8.71862 2.19286 8.83487 3.06473L6.68428 8.5284H6.50991C5.5218 5.56406 4.24306 2.59973 4.24306 2.59973C4.18494 2.42536 4.18494 2.30911 4.18494 2.25099C4.18494 1.90224 4.41744 1.72787 5.0568 1.72787H5.57992V0.507263H0V1.72787H0.232497C1.04623 1.72787 1.56935 2.25099 1.97622 3.18097L5.23117 11.4346H7.26552L9.64861 5.33157L12.1479 11.3765H14.1242L17.2629 3.06473C17.6116 2.07661 17.9604 1.72787 18.8322 1.72787H19.0066C19.9366 1.72787 20.4597 1.84412 20.4597 2.71598V9.16776C20.4597 10.0977 19.9366 10.1559 19.0066 10.1559H18.3672V11.3765H30.3408V6.95904H29.0621C28.8877 9.16776 28.4227 10.0977 26.4465 10.0977ZM52.5442 9.28401C52.1955 9.92338 51.4399 10.0977 50.1612 10.0977H47.4874V2.7741C47.4874 1.90224 47.6618 1.78599 48.708 1.78599H49.5218V0.565386H42.9538V1.78599H43.6512C44.5812 1.78599 45.0462 1.90224 45.0462 2.83223V9.22589C45.0462 10.1559 44.6394 10.2721 43.6512 10.2721H43.4769V11.4927H54.288V7.07529H53.0092C53.0092 8.0634 52.893 8.76089 52.5442 9.28401ZM61.321 4.75033L59.0541 4.34346C58.0079 4.16908 57.1942 4.05284 57.1942 3.2391C57.1942 2.36723 58.066 1.61162 59.3448 1.5535C61.1466 1.49537 63.2391 2.13474 63.4716 4.28533H64.6922V0.449138H63.7041L63.181 1.37912C62.0185 0.449138 60.4491 0.274765 59.2866 0.274765C56.8454 0.274765 55.0436 1.61162 55.1017 3.58784C55.1598 5.38969 56.0898 6.20343 58.8798 6.72655L60.7397 7.07529C62.0185 7.30779 63.5297 7.19154 63.3553 8.58652C63.2391 9.80713 62.0185 10.214 60.2748 10.1559C58.2985 10.0396 56.8454 9.16776 56.4967 7.07529H55.218V11.4346H56.3223L56.6711 10.2721C57.0198 10.6209 58.7054 11.609 60.5073 11.609C63.4135 11.609 65.3897 10.7371 65.3897 8.23778C65.4478 5.62219 63.646 5.1572 61.321 4.75033ZM75.9683 5.04095H75.0964V1.78599H77.8282C79.107 1.78599 79.8626 1.90224 80.2695 2.54161C80.5601 3.12285 80.7345 3.87846 80.7345 4.75033H82.0132V0.507263H70.7952V1.72787H71.4346C72.3646 1.72787 72.7133 1.84412 72.7133 2.71598V9.16776C72.7133 10.0977 72.3646 10.1559 71.4346 10.1559H70.7952V11.3765H77.5376V10.1559H76.2589C75.3289 10.1559 75.1545 10.0396 75.1545 9.16776V6.31968H76.0264C77.3633 6.31968 77.5958 6.66842 77.5958 8.5284H78.642V3.06473H77.6539C77.5376 4.80845 77.3633 5.04095 75.9683 5.04095ZM104.856 8.2959C104.914 9.57463 104.856 10.0977 104.217 10.0977C103.868 10.0977 103.635 9.80713 103.577 9.16776V8.47027C103.461 7.01717 103.229 6.31968 101.252 5.85468C103.345 5.56406 104.565 4.63408 104.565 3.06473C104.565 1.321 103.287 0.449138 100.497 0.449138H92.9987V1.66975H93.8705C94.8005 1.66975 94.9749 1.78599 94.9749 2.65786V9.10964C94.9749 9.92338 94.4518 10.1559 93.8124 10.1559H93.0568C92.4174 10.1559 92.0687 9.92338 91.778 9.10964L88.2906 0.507263H85.6169L81.9551 9.10964C81.6063 9.86525 81.3738 10.1559 80.502 10.1559H79.9789V11.3765H85.675V10.1559H84.5125C83.9313 10.1559 83.6407 10.1559 83.6407 9.80713C83.6407 9.69088 83.6988 9.51651 83.7569 9.28401L84.28 7.94715H88.5231L88.9881 9.22589C89.0895 9.38271 89.1495 9.56269 89.1625 9.749C89.1625 10.0977 88.8718 10.214 88.2325 10.214H87.07V11.4346H99.4504V10.214H98.4623C97.5323 10.214 97.358 10.0977 97.358 9.22589V6.31968H98.4623C100.322 6.31968 100.962 6.66842 101.02 8.5284L101.078 9.80713C101.136 11.3184 102.124 11.7252 103.635 11.7252C104.972 11.7252 105.844 10.9115 105.844 8.93527V8.35402H104.856V8.2959ZM84.9194 6.66842L86.5469 2.48348L88.2325 6.66842H84.9194ZM99.7992 5.04095H97.4161V1.72787H99.7411C101.31 1.72787 102.008 2.07661 102.008 3.35535C102.066 4.57595 101.31 5.04095 99.7992 5.04095ZM113.226 6.90092H113.749C114.795 6.90092 114.97 6.90092 114.97 7.65653V8.23778C114.97 9.51651 113.633 10.214 112.18 10.214C110.145 10.214 109.041 8.64464 109.041 5.85468C109.041 3.06472 110.436 1.61162 112.18 1.61162C113.981 1.61162 115.086 2.36724 115.609 3.99471H116.713V0.332889H115.841L115.26 1.43725C114.446 0.565386 113.051 0.274765 111.773 0.274765C110.262 0.274765 108.867 0.797882 107.937 1.72787C106.832 2.83223 106.309 4.16908 106.309 5.85468C106.309 7.54029 106.89 8.99339 107.995 10.0977C108.983 11.144 110.262 11.6671 111.773 11.6671C113.051 11.6671 114.505 11.3184 115.493 10.5046L116.074 11.4346H116.946V7.77278C116.946 6.8428 117.062 6.90092 117.876 6.90092H118.283V5.62219H113.226V6.90092ZM125.606 0.274765C122.003 0.274765 119.213 2.48348 119.213 5.91281C119.213 9.34213 122.003 11.609 125.664 11.609C129.268 11.609 132 9.34213 132 5.91281C131.942 2.48348 129.21 0.274765 125.606 0.274765ZM129.268 5.97093C129.268 8.81902 127.699 10.3302 125.606 10.3302C123.456 10.3302 121.886 8.81902 121.886 5.97093C121.886 3.12285 123.514 1.61162 125.606 1.61162C127.699 1.61162 129.268 3.12285 129.268 5.97093Z" fill="#FCB827"/>
</svg>
