<svg width="178" height="16" viewBox="0 0 178 16" fill="none" xmlns="http://www.w3.org/2000/svg">
<g clip-path="url(#clip0_1133_4319)">
<mask id="mask0_1133_4319" style="mask-type:alpha" maskUnits="userSpaceOnUse" x="0" y="0" width="178" height="16">
<path d="M55.0434 12.588C54.5758 13.4363 53.5626 13.6676 51.848 13.6676H48.263V3.9507C48.263 2.79393 48.4968 2.63969 49.8997 2.63969H50.9908V1.0202H42.1841V2.63969H42.9635C44.2104 2.63969 44.9118 2.79393 44.9118 4.02782V12.5108C44.9118 13.7447 44.3663 13.899 43.1193 13.899H42.262V15.5184H57.3814V9.65746H55.6669C55.6669 10.9685 55.511 11.8939 55.0434 12.588ZM35.7934 13.6676H31.1173V8.65492H32.2084C34.0789 8.65492 34.3127 8.96339 34.3906 11.5083H36.1052V4.18206H34.3906C34.2347 6.34137 34.0009 6.95831 32.1305 6.95831H31.0394V2.63969H35.17C38.1315 2.63969 38.9108 3.17952 39.0667 6.57272H40.7033V0.943087H19.0374V2.56257H20.0506C20.9078 2.56257 21.2975 2.71681 21.2975 3.17952C21.2975 3.41087 21.2975 3.79646 21.1417 4.25917L18.2581 11.6625H18.1022C16.7773 7.96085 15.0627 3.79646 15.0627 3.79646C14.9848 3.56511 14.9069 3.33375 14.9069 3.17952C14.9069 2.71681 15.2186 2.56257 15.92 2.56257H17.167V0.943087H9.37347V2.56257H10.3866C11.6336 2.56257 12.0233 3.17952 12.1791 4.33629L9.29553 11.5854H9.06173C7.73683 7.65238 6.02226 3.71935 6.02226 3.71935C5.94433 3.48799 5.94433 3.33375 5.94433 3.25664C5.94433 2.79393 6.25607 2.56257 7.11335 2.56257H7.81477V0.943087H0.333008V2.56257H0.644748C1.73584 2.56257 2.43725 3.25664 2.9828 4.49053L7.34716 15.4413H10.0749L13.2702 7.34391L16.6214 15.3642H19.2712L23.4797 4.33629C23.9473 3.02528 24.4149 2.56257 25.5839 2.56257H25.8178C27.0647 2.56257 27.7661 2.71681 27.7661 3.87358V12.4337C27.7661 13.6676 27.0647 13.7447 25.8178 13.7447H24.9605V15.3642H41.0151V9.50322H39.3005C39.0667 12.4337 38.4432 13.6676 35.7934 13.6676ZM70.7862 12.588C70.3186 13.4363 69.3055 13.6676 67.5909 13.6676H64.0059V3.9507C64.0059 2.79393 64.2397 2.63969 65.6425 2.63969H66.7336V1.0202H57.927V2.63969H58.8622C60.1092 2.63969 60.7326 2.79393 60.7326 4.02782V12.5108C60.7326 13.7447 60.1871 13.899 58.8622 13.899H58.6284V15.5184H73.1243V9.65746H71.4097C71.4097 10.9685 71.2539 11.8939 70.7862 12.588ZM82.5544 6.57272L79.515 6.03289C78.1121 5.80154 77.021 5.6473 77.021 4.56765C77.021 3.41087 78.1901 2.40833 79.9046 2.33122C82.3206 2.2541 85.1263 3.1024 85.438 5.95578H87.0747V0.865969H85.7498L85.0483 2.09986C83.4896 0.865969 81.3854 0.634613 79.8267 0.634613C76.5534 0.634613 74.1375 2.40833 74.2154 5.03036C74.2933 7.42102 75.5403 8.50068 79.2812 9.19475L81.7751 9.65746C83.4897 9.96593 85.516 9.81169 85.2822 11.6625C85.1263 13.282 83.4896 13.8218 81.1516 13.7447C78.5018 13.5905 76.5534 12.4337 76.0858 9.65746H74.3713V15.4413H75.852L76.3196 13.899C76.7872 14.3617 79.0474 15.6727 81.4633 15.6727C85.3601 15.6727 88.0099 14.5159 88.0099 11.1998C88.0878 7.7295 85.6718 7.11255 82.5544 6.57272V6.57272ZM102.194 6.95831H101.025V2.63969H104.688C106.403 2.63969 107.416 2.79393 107.961 3.64223C108.351 4.41341 108.585 5.41595 108.585 6.57272H110.299V0.943087H95.2578V2.56257H96.1151C97.3621 2.56257 97.8297 2.71681 97.8297 3.87358V12.4337C97.8297 13.6676 97.3621 13.7447 96.1151 13.7447H95.2578V15.3642H104.298V13.7447H102.584C101.337 13.7447 101.103 13.5905 101.103 12.4337V8.65492H102.272C104.064 8.65492 104.376 9.11763 104.376 11.5854H105.779V4.33629H104.454C104.298 6.64984 104.064 6.95831 102.194 6.95831V6.95831ZM140.928 11.2769C141.006 12.9735 140.928 13.6676 140.07 13.6676C139.603 13.6676 139.291 13.282 139.213 12.4337V11.5083C139.057 9.58034 138.746 8.65492 136.096 8.03797C138.901 7.65238 140.538 6.41849 140.538 4.33629C140.538 2.02274 138.823 0.865969 135.083 0.865969H125.029V2.48545H126.198C127.445 2.48545 127.679 2.63969 127.679 3.79646V12.3566C127.679 13.4363 126.977 13.7447 126.12 13.7447H125.107C124.25 13.7447 123.782 13.4363 123.392 12.3566L118.716 0.943087H115.131L110.221 12.3566C109.754 13.3591 109.442 13.7447 108.273 13.7447H107.572V15.3642H115.209V13.7447H113.65C112.871 13.7447 112.481 13.7447 112.481 13.282C112.481 13.1278 112.559 12.8964 112.637 12.588L113.339 10.8142H119.028L119.651 12.5108C119.787 12.7189 119.868 12.9577 119.885 13.2049C119.885 13.6676 119.496 13.8218 118.638 13.8218H117.08V15.4413H133.68V13.8218H132.355C131.108 13.8218 130.874 13.6676 130.874 12.5108V8.65492H132.355C134.849 8.65492 135.706 9.11763 135.784 11.5854L135.862 13.282C135.94 15.2871 137.265 15.8269 139.291 15.8269C141.084 15.8269 142.253 14.7473 142.253 12.1252V11.3541H140.928V11.2769ZM114.196 9.11763L116.378 3.56511L118.638 9.11763H114.196ZM134.147 6.95831H130.952V2.56257H134.069C136.174 2.56257 137.109 3.02528 137.109 4.72188C137.187 6.34137 136.174 6.95831 134.147 6.95831ZM152.15 9.4261H152.852C154.255 9.4261 154.488 9.4261 154.488 10.4286V11.1998C154.488 12.8964 152.696 13.8218 150.748 13.8218C148.02 13.8218 146.539 11.7396 146.539 8.03797C146.539 4.33629 148.41 2.40833 150.748 2.40833C153.164 2.40833 154.644 3.41087 155.346 5.57019H156.826V0.711732H155.657L154.878 2.17698C153.787 1.0202 151.917 0.634613 150.202 0.634613C148.176 0.634613 146.305 1.32868 145.058 2.56257C143.578 4.02782 142.876 5.80154 142.876 8.03797C142.876 10.2744 143.655 12.2024 145.136 13.6676C146.461 15.0557 148.176 15.7498 150.202 15.7498C151.917 15.7498 153.865 15.2871 155.19 14.2074L155.969 15.4413H157.138V10.5829C157.138 9.34898 157.294 9.4261 158.385 9.4261H158.931V7.7295H152.15V9.4261ZM168.751 0.634613C163.919 0.634613 160.178 3.56511 160.178 8.11509C160.178 12.6651 163.919 15.6727 168.828 15.6727C173.66 15.6727 177.323 12.6651 177.323 8.11509C177.245 3.56511 173.583 0.634613 168.751 0.634613ZM173.66 8.19221C173.66 11.971 171.556 13.9761 168.751 13.9761C165.867 13.9761 163.763 11.971 163.763 8.19221C163.763 4.41341 165.945 2.40833 168.751 2.40833C171.556 2.40833 173.66 4.41341 173.66 8.19221V8.19221Z" fill="#FCB827"/>
</mask>
<g mask="url(#mask0_1133_4319)">
<rect x="0.333008" y="-41.1443" width="176.99" height="98.75" fill="white"/>
</g>
</g>
<defs>
<clipPath id="clip0_1133_4319">
<rect width="176.99" height="15.1923" fill="white" transform="translate(0.333008 0.634613)"/>
</clipPath>
</defs>
</svg>
